M48
; DRILL file {KiCad (5.1.6)-1} date 12/07/20 00:16:04
; FORMAT={-:-/ absolute / inch / decimal}
; #@! TF.CreationDate,2020-12-07T00:16:04-06:00
; #@! TF.GenerationSoftware,Kicad,Pcbnew,(5.1.6)-1
FMAT,2
INCH
T1C0.0157
T2C0.0280
T3C0.0300
T4C0.0310
T5C0.0315
T6C0.0350
T7C0.0394
T8C0.0600
T9C0.1300
%
G90
G05
T1
X2.55Y-0.7
X2.725Y-2.325
X2.725Y-2.325
X2.75Y-1.2
X2.8Y-1.35
X2.825Y-4.0
X2.825Y-4.9
X2.85Y-2.25
X2.85Y-2.875
X2.85Y-5.875
X2.85Y-6.7
X2.85Y-6.7
X3.1Y-2.475
X3.15Y-7.5
X3.25Y-2.55
X3.25Y-7.6
X3.3Y-3.65
X3.35Y-7.5
X3.45Y-7.6
X3.5Y-3.75
X3.5Y-3.75
X3.525Y-7.2
X3.55Y-0.95
X3.575Y-3.35
X3.65Y-2.825
X3.65Y-3.0
X3.79Y-0.95
X3.8Y-0.86
X3.875Y-2.125
X3.9Y-2.35
X3.9Y-7.2
X3.925Y-3.775
X3.925Y-4.05
X3.925Y-4.15
X3.925Y-4.325
X3.9695Y-2.09
X3.975Y-1.8
X4.025Y-2.2
X4.025Y-2.5805
X4.05Y-2.07
X4.06Y-0.65
X4.1Y-2.2
X4.1Y-2.5805
X4.15Y-0.65
X4.175Y-2.2
X4.175Y-2.5805
X4.225Y-1.25
X4.225Y-1.575
X4.25Y-1.825
X4.25Y-2.075
X4.26Y-0.85
X4.275Y-2.35
X4.3Y-6.625
X4.5Y-2.5805
X4.5945Y-2.675
X4.675Y-3.925
X4.725Y-4.25
X4.75Y-1.175
X4.75Y-3.925
X4.8Y-4.225
X4.825Y-2.225
X4.825Y-2.575
X4.825Y-3.9
X4.85Y-2.9
X4.875Y-2.575
X4.875Y-4.175
X4.95Y-2.7
X5.0048Y-1.0048
X5.175Y-0.95
X5.2052Y-2.6552
X5.275Y-7.45
X5.3Y-2.725
X5.5Y-6.025
X5.55Y-2.5
X5.6Y-6.025
X5.625Y-1.525
X5.625Y-6.125
X5.675Y-0.7
X5.7Y-2.95
X5.7Y-6.125
X5.775Y-6.025
X5.8Y-6.125
X5.875Y-0.675
X5.875Y-3.2
X5.875Y-6.725
X5.925Y-0.725
X5.975Y-6.725
X6.0Y-3.75
X6.025Y-3.6
X6.025Y-4.65
X6.025Y-5.925
X6.125Y-0.975
X6.15Y-6.7
X6.175Y-1.15
X6.175Y-5.975
X6.175Y-6.575
X6.2Y-3.5
X6.2Y-4.675
X6.2Y-5.8
X6.225Y-1.05
X6.225Y-2.775
X6.25Y-3.15
X6.275Y-2.7
X6.275Y-5.9
X6.375Y-2.525
X6.55Y-3.075
X6.575Y-0.8
X6.575Y-3.7
X6.65Y-3.1
X6.7Y-3.6
X6.725Y-1.525
X6.75Y-3.5
X6.8Y-3.3
X6.8Y-3.375
X6.85Y-3.5
X6.875Y-3.95
X6.925Y-1.5
X7.175Y-4.0
X7.25Y-5.5
X7.25Y-5.65
X7.4Y-3.95
X7.6Y-3.95
X7.925Y-4.5
X8.05Y-4.525
X8.1Y-5.15
X8.775Y-4.775
X9.025Y-2.975
X9.025Y-4.25
T2
X5.6894Y-0.8
X5.6894Y-1.0
X5.7344Y-0.9
X5.7795Y-0.8
X5.7795Y-1.0
X5.8246Y-0.9
X5.8697Y-0.8
X5.8697Y-1.0
X5.9148Y-0.9
X5.9598Y-0.8
X5.9598Y-1.0
X6.0049Y-0.9
X6.05Y-0.8
X6.05Y-1.0
X6.0951Y-0.9
X5.7049Y-7.5
X5.75Y-7.4
X5.75Y-7.6
X5.7951Y-7.5
X5.8402Y-7.4
X5.8402Y-7.6
X5.8852Y-7.5
X5.9303Y-7.4
X5.9303Y-7.6
X5.9754Y-7.5
X6.0205Y-7.4
X6.0205Y-7.6
X6.0656Y-7.5
X6.1106Y-7.4
X6.1106Y-7.6
T3
X5.15Y-3.8524
X5.15Y-3.9524
X5.15Y-4.0524
X5.15Y-4.1524
X5.25Y-3.8524
X5.25Y-3.9524
X5.25Y-4.0524
X5.25Y-4.1524
X5.35Y-3.8524
X5.35Y-3.9524
X5.35Y-4.0524
X5.35Y-4.1524
X5.45Y-3.8524
X5.45Y-3.9524
X5.45Y-4.0524
X5.45Y-4.1524
X5.15Y-4.2516
X5.15Y-4.3516
X5.15Y-4.4516
X5.15Y-4.5516
X5.25Y-4.2516
X5.25Y-4.3516
X5.25Y-4.4516
X5.25Y-4.5516
X5.35Y-4.2516
X5.35Y-4.3516
X5.35Y-4.4516
X5.35Y-4.5516
X5.45Y-4.2516
X5.45Y-4.3516
X5.45Y-4.4516
X5.45Y-4.5516
X9.45Y-4.375
X9.45Y-4.475
X9.45Y-4.575
X5.5492Y-3.8524
X5.5492Y-3.9524
X5.5492Y-4.0524
X5.5492Y-4.1524
X5.6492Y-3.8524
X5.6492Y-3.9524
X5.6492Y-4.0524
X5.6492Y-4.1524
X5.7492Y-3.8524
X5.7492Y-3.9524
X5.7492Y-4.0524
X5.7492Y-4.1524
X5.8492Y-3.8524
X5.8492Y-3.9524
X5.8492Y-4.0524
X5.8492Y-4.1524
X5.95Y-3.85
X5.95Y-3.95
X5.95Y-4.05
X5.95Y-4.15
X6.05Y-3.85
X6.05Y-3.95
X6.05Y-4.05
X6.05Y-4.15
X6.15Y-3.85
X6.15Y-3.95
X6.15Y-4.05
X6.15Y-4.15
X6.25Y-3.85
X6.25Y-3.95
X6.25Y-4.05
X6.25Y-4.15
X3.1Y-0.65
X3.1Y-0.75
X3.1Y-0.85
X3.1Y-0.95
X3.1Y-1.05
X3.1Y-1.15
X3.1Y-1.25
X3.1Y-1.35
X3.1Y-1.45
X3.1Y-1.55
X3.1Y-1.65
X3.1Y-1.75
X3.1Y-1.85
X3.1Y-1.95
X3.1Y-2.05
X3.7Y-0.65
X3.7Y-0.75
X3.7Y-0.85
X3.7Y-0.95
X3.7Y-1.05
X3.7Y-1.15
X3.7Y-1.25
X3.7Y-1.35
X3.7Y-1.45
X3.7Y-1.55
X3.7Y-1.65
X3.7Y-1.75
X3.7Y-1.85
X3.7Y-1.95
X3.7Y-2.05
X2.9Y-0.65
X2.9Y-0.75
X2.9Y-0.85
X2.9Y-0.95
X2.9Y-1.05
X2.9Y-1.15
X2.9Y-1.25
X2.9Y-1.35
X2.9Y-1.45
X2.9Y-1.55
X2.9Y-1.65
X2.9Y-1.75
X2.9Y-1.85
X2.9Y-1.95
X2.9Y-2.05
X3.9Y-0.65
X3.9Y-0.75
X3.9Y-0.85
X3.9Y-0.95
X3.9Y-1.05
X3.9Y-1.15
X3.9Y-1.25
X3.9Y-1.35
X3.9Y-1.45
X3.9Y-1.55
X3.9Y-1.65
X3.9Y-1.75
X3.9Y-1.85
X3.9Y-1.95
X3.9Y-2.05
X5.5492Y-4.2516
X5.5492Y-4.3516
X5.5492Y-4.4516
X5.5492Y-4.5516
X5.6492Y-4.2516
X5.6492Y-4.3516
X5.6492Y-4.4516
X5.6492Y-4.5516
X5.7492Y-4.2516
X5.7492Y-4.3516
X5.7492Y-4.4516
X5.7492Y-4.5516
X5.8492Y-4.2516
X5.8492Y-4.3516
X5.8492Y-4.4516
X5.8492Y-4.5516
X9.45Y-0.825
X9.45Y-0.925
X9.45Y-1.025
X5.95Y-4.2508
X5.95Y-4.3508
X5.95Y-4.4508
X5.95Y-4.5508
X6.05Y-4.2508
X6.05Y-4.3508
X6.05Y-4.4508
X6.05Y-4.5508
X6.15Y-4.2508
X6.15Y-4.3508
X6.15Y-4.4508
X6.15Y-4.5508
X6.25Y-4.2508
X6.25Y-4.3508
X6.25Y-4.4508
X6.25Y-4.5508
X9.45Y-3.825
X9.45Y-3.925
X9.45Y-4.025
X9.45Y-6.375
X9.45Y-6.475
X9.45Y-6.575
X9.45Y-2.825
X9.45Y-2.925
X9.45Y-3.025
X6.35Y-3.85
X6.35Y-3.95
X6.35Y-4.05
X6.35Y-4.15
X6.45Y-3.85
X6.45Y-3.95
X6.45Y-4.05
X6.45Y-4.15
X6.55Y-3.85
X6.55Y-3.95
X6.55Y-4.05
X6.55Y-4.15
X6.65Y-3.85
X6.65Y-3.95
X6.65Y-4.05
X6.65Y-4.15
X6.3492Y-4.2508
X6.3492Y-4.3508
X6.3492Y-4.4508
X6.3492Y-4.5508
X6.4492Y-4.2508
X6.4492Y-4.3508
X6.4492Y-4.4508
X6.4492Y-4.5508
X6.5492Y-4.2508
X6.5492Y-4.3508
X6.5492Y-4.4508
X6.5492Y-4.5508
X6.6492Y-4.2508
X6.6492Y-4.3508
X6.6492Y-4.4508
X6.6492Y-4.5508
X9.45Y-5.375
X9.45Y-5.475
X9.45Y-5.575
X9.45Y-1.825
X9.45Y-1.925
X9.45Y-2.025
T4
X4.6Y-1.7917
X4.6Y-1.8917
X4.6Y-1.9917
X4.6Y-2.0917
X4.6Y-2.1917
X4.6Y-2.2917
X4.6Y-2.3917
X4.6Y-2.4917
X4.9Y-1.7917
X4.9Y-1.8917
X4.9Y-1.9917
X4.9Y-2.0917
X4.9Y-2.1917
X4.9Y-2.2917
X4.9Y-2.3917
X4.9Y-2.4917
X2.7Y-7.05
X2.7Y-7.15
X2.7Y-7.25
X2.7Y-7.35
X2.7Y-7.45
X2.7Y-7.55
X2.7Y-7.65
X2.7Y-7.75
X3.0Y-7.05
X3.0Y-7.15
X3.0Y-7.25
X3.0Y-7.35
X3.0Y-7.45
X3.0Y-7.55
X3.0Y-7.65
X3.0Y-7.75
X2.7Y-5.3583
X2.7Y-5.4583
X2.7Y-5.5583
X2.7Y-5.6583
X2.7Y-5.7583
X2.7Y-5.8583
X2.7Y-5.9583
X2.7Y-6.0583
X3.0Y-5.3583
X3.0Y-5.4583
X3.0Y-5.5583
X3.0Y-5.6583
X3.0Y-5.7583
X3.0Y-5.8583
X3.0Y-5.9583
X3.0Y-6.0583
X2.7Y-2.5333
X2.7Y-2.6333
X2.7Y-2.7333
X2.7Y-2.8333
X2.7Y-2.9333
X2.7Y-3.0333
X2.7Y-3.1333
X2.7Y-3.2333
X3.0Y-2.5333
X3.0Y-2.6333
X3.0Y-2.7333
X3.0Y-2.8333
X3.0Y-2.9333
X3.0Y-3.0333
X3.0Y-3.1333
X3.0Y-3.2333
X2.7Y-3.475
X2.7Y-3.575
X2.7Y-3.675
X2.7Y-3.775
X2.7Y-3.875
X2.7Y-3.975
X2.7Y-4.075
X2.7Y-4.175
X3.0Y-3.475
X3.0Y-3.575
X3.0Y-3.675
X3.0Y-3.775
X3.0Y-3.875
X3.0Y-3.975
X3.0Y-4.075
X3.0Y-4.175
X2.7Y-6.2
X2.7Y-6.3
X2.7Y-6.4
X2.7Y-6.5
X2.7Y-6.6
X2.7Y-6.7
X2.7Y-6.8
X2.7Y-6.9
X3.0Y-6.2
X3.0Y-6.3
X3.0Y-6.4
X3.0Y-6.5
X3.0Y-6.6
X3.0Y-6.7
X3.0Y-6.8
X3.0Y-6.9
X2.7Y-4.4167
X2.7Y-4.5167
X2.7Y-4.6167
X2.7Y-4.7167
X2.7Y-4.8167
X2.7Y-4.9167
X2.7Y-5.0167
X2.7Y-5.1167
X3.0Y-4.4167
X3.0Y-4.5167
X3.0Y-4.6167
X3.0Y-4.7167
X3.0Y-4.8167
X3.0Y-4.9167
X3.0Y-5.0167
X3.0Y-5.1167
X7.9Y-4.075
X7.9Y-4.375
X8.0Y-4.075
X8.0Y-4.375
X8.1Y-4.075
X8.1Y-4.375
X8.2Y-4.075
X8.2Y-4.375
X8.3Y-4.075
X8.3Y-4.375
X8.4Y-4.075
X8.4Y-4.375
X8.5Y-4.075
X8.5Y-4.375
X8.6Y-4.075
X8.6Y-4.375
X4.6Y-0.85
X4.6Y-0.95
X4.6Y-1.05
X4.6Y-1.15
X4.6Y-1.25
X4.6Y-1.35
X4.6Y-1.45
X4.6Y-1.55
X4.9Y-0.85
X4.9Y-0.95
X4.9Y-1.05
X4.9Y-1.15
X4.9Y-1.25
X4.9Y-1.35
X4.9Y-1.45
X4.9Y-1.55
T5
X2.4Y-6.3
X2.4Y-6.6
X4.0Y-7.05
X4.3Y-7.05
X4.1Y-6.45
X4.4Y-6.45
X8.4Y-2.8
X8.4Y-3.1
X5.4Y-2.8
X5.4Y-3.1
X9.0Y-6.7
X9.3Y-6.7
X8.975Y-0.7
X9.275Y-0.7
X6.4Y-1.8
X6.4Y-2.1
X3.25Y-5.55
X3.55Y-5.55
X7.4Y-6.8
X7.4Y-7.1
X9.0Y-5.7
X9.3Y-5.7
X4.4Y-2.8
X4.4Y-3.1
X6.4Y-2.8
X6.4Y-3.1
X5.1Y-4.85
X5.4Y-4.85
X4.4Y-1.8
X4.4Y-2.1
X8.4Y-6.8
X8.4Y-7.1
X3.25Y-4.55
X3.55Y-4.55
X8.4Y-5.8
X8.4Y-6.1
X7.4Y-5.8
X7.4Y-6.1
X9.0Y-3.7
X9.3Y-3.7
X8.4Y-3.3
X8.4Y-3.6
X6.55Y-0.7
X6.85Y-0.7
X2.4Y-0.8
X2.4Y-1.1
X8.4Y-1.8
X8.4Y-2.1
X3.4Y-1.8
X3.4Y-2.1
X6.4Y-5.8
X6.4Y-6.1
X6.625Y-7.35
X6.625Y-7.65
X2.4Y-5.3
X2.4Y-5.6
X7.4Y-4.8
X7.4Y-5.1
X9.0Y-2.7
X9.3Y-2.7
X4.4Y-3.8
X4.4Y-4.1
X7.4Y-0.8
X7.4Y-1.1
X3.4Y-2.3
X3.4Y-2.6
X2.4Y-1.8
X2.4Y-2.1
X9.0Y-7.7
X9.3Y-7.7
X9.0Y-4.7
X9.3Y-4.7
X3.15Y-7.05
X3.45Y-7.05
X5.25Y-5.575
X5.55Y-5.575
X6.4Y-4.8
X6.4Y-5.1
X7.4Y-2.8
X7.4Y-3.1
X7.4Y-3.3
X7.4Y-3.6
X4.95Y-0.65
X5.25Y-0.65
X2.4Y-2.8
X2.4Y-3.1
X2.4Y-7.3
X2.4Y-7.6
X4.25Y-4.55
X4.55Y-4.55
X6.4Y-6.8
X6.4Y-7.1
X4.25Y-5.575
X4.55Y-5.575
X2.4Y-3.8
X2.4Y-4.1
X7.0Y-7.7
X7.3Y-7.7
X8.4Y-4.8
X8.4Y-5.1
X4.525Y-0.7
X4.825Y-0.7
X9.0Y-1.7
X9.3Y-1.7
X7.4Y-1.85
X7.4Y-2.15
X8.0Y-7.7
X8.3Y-7.7
X5.075Y-7.15
X5.375Y-7.15
X5.4Y-3.3
X5.4Y-3.6
X4.975Y-6.7
X5.275Y-6.7
X6.4Y-3.3
X6.4Y-3.6
X3.25Y-3.55
X3.55Y-3.55
X3.25Y-6.4
X3.55Y-6.4
X2.4Y-4.3
X2.4Y-4.6
X3.4Y-0.8
X3.4Y-1.1
X5.4Y-1.8
X5.4Y-2.1
X8.4Y-0.8
X8.4Y-1.1
T6
X9.45Y-7.375
X9.45Y-7.475
X9.45Y-7.575
T7
X9.575Y-2.7
X6.2843Y-1.2711
X5.525Y-6.425
X6.4923Y-1.2711
X5.325Y-6.425
X9.575Y-5.7
X6.125Y-6.425
X5.275Y-1.275
X6.525Y-6.425
X9.575Y-6.7
X9.575Y-1.7
X8.6Y-4.575
X5.475Y-1.275
X9.575Y-3.7
X5.925Y-6.425
X9.575Y-7.7
X5.675Y-1.275
X9.575Y-0.7
X6.075Y-1.275
X6.325Y-6.425
X9.575Y-4.7
X5.725Y-6.425
X5.875Y-1.275
T8
X5.8Y-2.5
X6.0Y-2.5
X9.25Y-4.1
X9.25Y-4.3
X2.4Y-0.7
X2.4Y-1.7
X2.4Y-2.7
X2.4Y-3.7
X2.4Y-4.7
X2.4Y-5.7
X2.4Y-6.7
X2.4Y-7.7
X3.4Y-0.7
X3.4Y-1.7
X3.4Y-2.7
X3.4Y-3.7
X3.4Y-4.7
X3.4Y-5.7
X3.4Y-6.7
X3.4Y-7.7
X4.4Y-0.7
X4.4Y-1.7
X4.4Y-2.7
X4.4Y-3.7
X4.4Y-4.7
X4.4Y-5.7
X4.4Y-6.7
X4.4Y-7.7
X5.4Y-0.7
X5.4Y-1.7
X5.4Y-2.7
X5.4Y-3.7
X5.4Y-4.7
X5.4Y-5.7
X5.4Y-6.7
X5.4Y-7.7
X6.4Y-0.7
X6.4Y-1.7
X6.4Y-2.7
X6.4Y-3.7
X6.4Y-4.7
X6.4Y-5.7
X6.4Y-6.7
X6.4Y-7.7
X7.4Y-0.7
X7.4Y-1.7
X7.4Y-2.7
X7.4Y-3.7
X7.4Y-4.7
X7.4Y-5.7
X7.4Y-6.7
X7.4Y-7.7
X8.4Y-0.7
X8.4Y-1.7
X8.4Y-2.7
X8.4Y-3.7
X8.4Y-4.7
X8.4Y-5.7
X8.4Y-6.7
X8.4Y-7.7
X9.4Y-0.7
X9.4Y-1.7
X9.4Y-2.7
X9.4Y-3.7
X9.4Y-4.7
X9.4Y-5.7
X9.4Y-6.7
X9.4Y-7.7
T9
X5.4189Y-0.9
X6.3656Y-0.9
X5.4344Y-7.5
X6.3811Y-7.5
T0
M30
