%FSLAX45Y45*%
G04 Gerber Fmt 4.5, Leading zero omitted, Abs format (unit mm)*
G04 Created by KiCad (PCBNEW (5.1.6)-1) date 2020-12-07 00:15:16*
%MOMM*%
%LPD*%
G01*
G04 APERTURE LIST*
%TA.AperFunction,Profile*%
%ADD10C,0.050000*%
%TD*%
%ADD11C,0.200000*%
%ADD12C,0.300000*%
G04 APERTURE END LIST*
D10*
X24436605Y-19939000D02*
G75*
G03*
X24436605Y-19939000I-179605J0D01*
G01*
X5894605Y-19939000D02*
G75*
G03*
X5894605Y-19939000I-179605J0D01*
G01*
X5894605Y-1397000D02*
G75*
G03*
X5894605Y-1397000I-179605J0D01*
G01*
X24436605Y-1397000D02*
G75*
G03*
X24436605Y-1397000I-179605J0D01*
G01*
X5461000Y-1143000D02*
X24511000Y-1143000D01*
X5461000Y-20193000D02*
X5461000Y-1143000D01*
X24511000Y-20193000D02*
X5461000Y-20193000D01*
X24511000Y-1143000D02*
X24511000Y-20193000D01*
D11*
X6457000Y-1758000D02*
X6497000Y-1798000D01*
X6497000Y-1758000D02*
X6457000Y-1798000D01*
X6901500Y-5885500D02*
X6941500Y-5925500D01*
X6941500Y-5885500D02*
X6901500Y-5925500D01*
X6901500Y-5885500D02*
X6941500Y-5925500D01*
X6941500Y-5885500D02*
X6901500Y-5925500D01*
X6965000Y-3028000D02*
X7005000Y-3068000D01*
X7005000Y-3028000D02*
X6965000Y-3068000D01*
X7092000Y-3409000D02*
X7132000Y-3449000D01*
X7132000Y-3409000D02*
X7092000Y-3449000D01*
X7155500Y-10140000D02*
X7195500Y-10180000D01*
X7195500Y-10140000D02*
X7155500Y-10180000D01*
X7155500Y-12426000D02*
X7195500Y-12466000D01*
X7195500Y-12426000D02*
X7155500Y-12466000D01*
X7219000Y-5695000D02*
X7259000Y-5735000D01*
X7259000Y-5695000D02*
X7219000Y-5735000D01*
X7219000Y-7282500D02*
X7259000Y-7322500D01*
X7259000Y-7282500D02*
X7219000Y-7322500D01*
X7219000Y-14902500D02*
X7259000Y-14942500D01*
X7259000Y-14902500D02*
X7219000Y-14942500D01*
X7219000Y-16998000D02*
X7259000Y-17038000D01*
X7259000Y-16998000D02*
X7219000Y-17038000D01*
X7219000Y-16998000D02*
X7259000Y-17038000D01*
X7259000Y-16998000D02*
X7219000Y-17038000D01*
X7854000Y-6266500D02*
X7894000Y-6306500D01*
X7894000Y-6266500D02*
X7854000Y-6306500D01*
X7981000Y-19030000D02*
X8021000Y-19070000D01*
X8021000Y-19030000D02*
X7981000Y-19070000D01*
X8235000Y-6457000D02*
X8275000Y-6497000D01*
X8275000Y-6457000D02*
X8235000Y-6497000D01*
X8235000Y-19284000D02*
X8275000Y-19324000D01*
X8275000Y-19284000D02*
X8235000Y-19324000D01*
X8362000Y-9251000D02*
X8402000Y-9291000D01*
X8402000Y-9251000D02*
X8362000Y-9291000D01*
X8489000Y-19030000D02*
X8529000Y-19070000D01*
X8529000Y-19030000D02*
X8489000Y-19070000D01*
X8743000Y-19284000D02*
X8783000Y-19324000D01*
X8783000Y-19284000D02*
X8743000Y-19324000D01*
X8870000Y-9505000D02*
X8910000Y-9545000D01*
X8910000Y-9505000D02*
X8870000Y-9545000D01*
X8870000Y-9505000D02*
X8910000Y-9545000D01*
X8910000Y-9505000D02*
X8870000Y-9545000D01*
X8933500Y-18268000D02*
X8973500Y-18308000D01*
X8973500Y-18268000D02*
X8933500Y-18308000D01*
X8997000Y-2393000D02*
X9037000Y-2433000D01*
X9037000Y-2393000D02*
X8997000Y-2433000D01*
X9060500Y-8489000D02*
X9100500Y-8529000D01*
X9100500Y-8489000D02*
X9060500Y-8529000D01*
X9251000Y-7155500D02*
X9291000Y-7195500D01*
X9291000Y-7155500D02*
X9251000Y-7195500D01*
X9251000Y-7600000D02*
X9291000Y-7640000D01*
X9291000Y-7600000D02*
X9251000Y-7640000D01*
X9606600Y-2393000D02*
X9646600Y-2433000D01*
X9646600Y-2393000D02*
X9606600Y-2433000D01*
X9632000Y-2164400D02*
X9672000Y-2204400D01*
X9672000Y-2164400D02*
X9632000Y-2204400D01*
X9822500Y-5377500D02*
X9862500Y-5417500D01*
X9862500Y-5377500D02*
X9822500Y-5417500D01*
X9886000Y-5949000D02*
X9926000Y-5989000D01*
X9926000Y-5949000D02*
X9886000Y-5989000D01*
X9886000Y-18268000D02*
X9926000Y-18308000D01*
X9926000Y-18268000D02*
X9886000Y-18308000D01*
X9949500Y-9568500D02*
X9989500Y-9608500D01*
X9989500Y-9568500D02*
X9949500Y-9608500D01*
X9949500Y-10267000D02*
X9989500Y-10307000D01*
X9989500Y-10267000D02*
X9949500Y-10307000D01*
X9949500Y-10521000D02*
X9989500Y-10561000D01*
X9989500Y-10521000D02*
X9949500Y-10561000D01*
X9949500Y-10965500D02*
X9989500Y-11005500D01*
X9989500Y-10965500D02*
X9949500Y-11005500D01*
X10062500Y-5288600D02*
X10102500Y-5328600D01*
X10102500Y-5288600D02*
X10062500Y-5328600D01*
X10076500Y-4552000D02*
X10116500Y-4592000D01*
X10116500Y-4552000D02*
X10076500Y-4592000D01*
X10203500Y-5568000D02*
X10243500Y-5608000D01*
X10243500Y-5568000D02*
X10203500Y-5608000D01*
X10203500Y-6534500D02*
X10243500Y-6574500D01*
X10243500Y-6534500D02*
X10203500Y-6574500D01*
X10267000Y-5237800D02*
X10307000Y-5277800D01*
X10307000Y-5237800D02*
X10267000Y-5277800D01*
X10292400Y-1631000D02*
X10332400Y-1671000D01*
X10332400Y-1631000D02*
X10292400Y-1671000D01*
X10394000Y-5568000D02*
X10434000Y-5608000D01*
X10434000Y-5568000D02*
X10394000Y-5608000D01*
X10394000Y-6534500D02*
X10434000Y-6574500D01*
X10434000Y-6534500D02*
X10394000Y-6574500D01*
X10521000Y-1631000D02*
X10561000Y-1671000D01*
X10561000Y-1631000D02*
X10521000Y-1671000D01*
X10584500Y-5568000D02*
X10624500Y-5608000D01*
X10624500Y-5568000D02*
X10584500Y-5608000D01*
X10584500Y-6534500D02*
X10624500Y-6574500D01*
X10624500Y-6534500D02*
X10584500Y-6574500D01*
X10711500Y-3155000D02*
X10751500Y-3195000D01*
X10751500Y-3155000D02*
X10711500Y-3195000D01*
X10711500Y-3980500D02*
X10751500Y-4020500D01*
X10751500Y-3980500D02*
X10711500Y-4020500D01*
X10775000Y-4615500D02*
X10815000Y-4655500D01*
X10815000Y-4615500D02*
X10775000Y-4655500D01*
X10775000Y-5250500D02*
X10815000Y-5290500D01*
X10815000Y-5250500D02*
X10775000Y-5290500D01*
X10800400Y-2139000D02*
X10840400Y-2179000D01*
X10840400Y-2139000D02*
X10800400Y-2179000D01*
X10838500Y-5949000D02*
X10878500Y-5989000D01*
X10878500Y-5949000D02*
X10838500Y-5989000D01*
X10902000Y-16807500D02*
X10942000Y-16847500D01*
X10942000Y-16807500D02*
X10902000Y-16847500D01*
X11410000Y-6534500D02*
X11450000Y-6574500D01*
X11450000Y-6534500D02*
X11410000Y-6574500D01*
X11650000Y-6774500D02*
X11690000Y-6814500D01*
X11690000Y-6774500D02*
X11650000Y-6814500D01*
X11854500Y-9949500D02*
X11894500Y-9989500D01*
X11894500Y-9949500D02*
X11854500Y-9989500D01*
X11981500Y-10775000D02*
X12021500Y-10815000D01*
X12021500Y-10775000D02*
X11981500Y-10815000D01*
X12045000Y-2964500D02*
X12085000Y-3004500D01*
X12085000Y-2964500D02*
X12045000Y-3004500D01*
X12045000Y-9949500D02*
X12085000Y-9989500D01*
X12085000Y-9949500D02*
X12045000Y-9989500D01*
X12172000Y-10711500D02*
X12212000Y-10751500D01*
X12212000Y-10711500D02*
X12172000Y-10751500D01*
X12235500Y-5631500D02*
X12275500Y-5671500D01*
X12275500Y-5631500D02*
X12235500Y-5671500D01*
X12235500Y-6520500D02*
X12275500Y-6560500D01*
X12275500Y-6520500D02*
X12235500Y-6560500D01*
X12235500Y-9886000D02*
X12275500Y-9926000D01*
X12275500Y-9886000D02*
X12235500Y-9926000D01*
X12299000Y-7346000D02*
X12339000Y-7386000D01*
X12339000Y-7346000D02*
X12299000Y-7386000D01*
X12362500Y-6520500D02*
X12402500Y-6560500D01*
X12402500Y-6520500D02*
X12362500Y-6560500D01*
X12362500Y-10584500D02*
X12402500Y-10624500D01*
X12402500Y-10584500D02*
X12362500Y-10624500D01*
X12553000Y-6838000D02*
X12593000Y-6878000D01*
X12593000Y-6838000D02*
X12553000Y-6878000D01*
X12692180Y-2532180D02*
X12732180Y-2572180D01*
X12732180Y-2532180D02*
X12692180Y-2572180D01*
X13124500Y-2393000D02*
X13164500Y-2433000D01*
X13164500Y-2393000D02*
X13124500Y-2433000D01*
X13201300Y-6724300D02*
X13241300Y-6764300D01*
X13241300Y-6724300D02*
X13201300Y-6764300D01*
X13378500Y-18903000D02*
X13418500Y-18943000D01*
X13418500Y-18903000D02*
X13378500Y-18943000D01*
X13442000Y-6901500D02*
X13482000Y-6941500D01*
X13482000Y-6901500D02*
X13442000Y-6941500D01*
X13950000Y-15283500D02*
X13990000Y-15323500D01*
X13990000Y-15283500D02*
X13950000Y-15323500D01*
X14077000Y-6330000D02*
X14117000Y-6370000D01*
X14117000Y-6330000D02*
X14077000Y-6370000D01*
X14204000Y-15283500D02*
X14244000Y-15323500D01*
X14244000Y-15283500D02*
X14204000Y-15323500D01*
X14267500Y-3853500D02*
X14307500Y-3893500D01*
X14307500Y-3853500D02*
X14267500Y-3893500D01*
X14267500Y-15537500D02*
X14307500Y-15577500D01*
X14307500Y-15537500D02*
X14267500Y-15577500D01*
X14394500Y-1758000D02*
X14434500Y-1798000D01*
X14434500Y-1758000D02*
X14394500Y-1798000D01*
X14458000Y-7473000D02*
X14498000Y-7513000D01*
X14498000Y-7473000D02*
X14458000Y-7513000D01*
X14458000Y-15537500D02*
X14498000Y-15577500D01*
X14498000Y-15537500D02*
X14458000Y-15577500D01*
X14648500Y-15283500D02*
X14688500Y-15323500D01*
X14688500Y-15283500D02*
X14648500Y-15323500D01*
X14712000Y-15537500D02*
X14752000Y-15577500D01*
X14752000Y-15537500D02*
X14712000Y-15577500D01*
X14902500Y-1694500D02*
X14942500Y-1734500D01*
X14942500Y-1694500D02*
X14902500Y-1734500D01*
X14902500Y-8108000D02*
X14942500Y-8148000D01*
X14942500Y-8108000D02*
X14902500Y-8148000D01*
X14902500Y-17061500D02*
X14942500Y-17101500D01*
X14942500Y-17061500D02*
X14902500Y-17101500D01*
X15029500Y-1821500D02*
X15069500Y-1861500D01*
X15069500Y-1821500D02*
X15029500Y-1861500D01*
X15156500Y-17061500D02*
X15196500Y-17101500D01*
X15196500Y-17061500D02*
X15156500Y-17101500D01*
X15220000Y-9505000D02*
X15260000Y-9545000D01*
X15260000Y-9505000D02*
X15220000Y-9545000D01*
X15283500Y-9124000D02*
X15323500Y-9164000D01*
X15323500Y-9124000D02*
X15283500Y-9164000D01*
X15283500Y-11791000D02*
X15323500Y-11831000D01*
X15323500Y-11791000D02*
X15283500Y-11831000D01*
X15283500Y-15029500D02*
X15323500Y-15069500D01*
X15323500Y-15029500D02*
X15283500Y-15069500D01*
X15537500Y-2456500D02*
X15577500Y-2496500D01*
X15577500Y-2456500D02*
X15537500Y-2496500D01*
X15601000Y-16998000D02*
X15641000Y-17038000D01*
X15641000Y-16998000D02*
X15601000Y-17038000D01*
X15664500Y-2901000D02*
X15704500Y-2941000D01*
X15704500Y-2901000D02*
X15664500Y-2941000D01*
X15664500Y-15156500D02*
X15704500Y-15196500D01*
X15704500Y-15156500D02*
X15664500Y-15196500D01*
X15664500Y-16680500D02*
X15704500Y-16720500D01*
X15704500Y-16680500D02*
X15664500Y-16720500D01*
X15728000Y-8870000D02*
X15768000Y-8910000D01*
X15768000Y-8870000D02*
X15728000Y-8910000D01*
X15728000Y-11854500D02*
X15768000Y-11894500D01*
X15768000Y-11854500D02*
X15728000Y-11894500D01*
X15728000Y-14712000D02*
X15768000Y-14752000D01*
X15768000Y-14712000D02*
X15728000Y-14752000D01*
X15791500Y-2647000D02*
X15831500Y-2687000D01*
X15831500Y-2647000D02*
X15791500Y-2687000D01*
X15791500Y-7028500D02*
X15831500Y-7068500D01*
X15831500Y-7028500D02*
X15791500Y-7068500D01*
X15855000Y-7981000D02*
X15895000Y-8021000D01*
X15895000Y-7981000D02*
X15855000Y-8021000D01*
X15918500Y-6838000D02*
X15958500Y-6878000D01*
X15958500Y-6838000D02*
X15918500Y-6878000D01*
X15918500Y-14966000D02*
X15958500Y-15006000D01*
X15958500Y-14966000D02*
X15918500Y-15006000D01*
X16172500Y-6393500D02*
X16212500Y-6433500D01*
X16212500Y-6393500D02*
X16172500Y-6433500D01*
X16617000Y-7790500D02*
X16657000Y-7830500D01*
X16657000Y-7790500D02*
X16617000Y-7830500D01*
X16680500Y-2012000D02*
X16720500Y-2052000D01*
X16720500Y-2012000D02*
X16680500Y-2052000D01*
X16680500Y-9378000D02*
X16720500Y-9418000D01*
X16720500Y-9378000D02*
X16680500Y-9418000D01*
X16871000Y-7854000D02*
X16911000Y-7894000D01*
X16911000Y-7854000D02*
X16871000Y-7894000D01*
X16998000Y-9124000D02*
X17038000Y-9164000D01*
X17038000Y-9124000D02*
X16998000Y-9164000D01*
X17061500Y-3853500D02*
X17101500Y-3893500D01*
X17101500Y-3853500D02*
X17061500Y-3893500D01*
X17125000Y-8870000D02*
X17165000Y-8910000D01*
X17165000Y-8870000D02*
X17125000Y-8910000D01*
X17252000Y-8362000D02*
X17292000Y-8402000D01*
X17292000Y-8362000D02*
X17252000Y-8402000D01*
X17252000Y-8552500D02*
X17292000Y-8592500D01*
X17292000Y-8552500D02*
X17252000Y-8592500D01*
X17379000Y-8870000D02*
X17419000Y-8910000D01*
X17419000Y-8870000D02*
X17379000Y-8910000D01*
X17442500Y-10013000D02*
X17482500Y-10053000D01*
X17482500Y-10013000D02*
X17442500Y-10053000D01*
X17569500Y-3790000D02*
X17609500Y-3830000D01*
X17609500Y-3790000D02*
X17569500Y-3830000D01*
X18204500Y-10140000D02*
X18244500Y-10180000D01*
X18244500Y-10140000D02*
X18204500Y-10180000D01*
X18395000Y-13950000D02*
X18435000Y-13990000D01*
X18435000Y-13950000D02*
X18395000Y-13990000D01*
X18395000Y-14331000D02*
X18435000Y-14371000D01*
X18435000Y-14331000D02*
X18395000Y-14371000D01*
X18776000Y-10013000D02*
X18816000Y-10053000D01*
X18816000Y-10013000D02*
X18776000Y-10053000D01*
X19284000Y-10013000D02*
X19324000Y-10053000D01*
X19324000Y-10013000D02*
X19284000Y-10053000D01*
X20109500Y-11410000D02*
X20149500Y-11450000D01*
X20149500Y-11410000D02*
X20109500Y-11450000D01*
X20427000Y-11473500D02*
X20467000Y-11513500D01*
X20467000Y-11473500D02*
X20427000Y-11513500D01*
X20554000Y-13061000D02*
X20594000Y-13101000D01*
X20594000Y-13061000D02*
X20554000Y-13101000D01*
X22268500Y-12108500D02*
X22308500Y-12148500D01*
X22308500Y-12108500D02*
X22268500Y-12148500D01*
X22903500Y-7536500D02*
X22943500Y-7576500D01*
X22943500Y-7536500D02*
X22903500Y-7576500D01*
X22903500Y-10775000D02*
X22943500Y-10815000D01*
X22943500Y-10775000D02*
X22903500Y-10815000D01*
X14486560Y-2032000D02*
G75*
G03*
X14486560Y-2032000I-35560J0D01*
G01*
X14486560Y-2540000D02*
G75*
G03*
X14486560Y-2540000I-35560J0D01*
G01*
X14601060Y-2286000D02*
G75*
G03*
X14601060Y-2286000I-35560J0D01*
G01*
X14715560Y-2032000D02*
G75*
G03*
X14715560Y-2032000I-35560J0D01*
G01*
X14715560Y-2540000D02*
G75*
G03*
X14715560Y-2540000I-35560J0D01*
G01*
X14830060Y-2286000D02*
G75*
G03*
X14830060Y-2286000I-35560J0D01*
G01*
X14944560Y-2032000D02*
G75*
G03*
X14944560Y-2032000I-35560J0D01*
G01*
X14944560Y-2540000D02*
G75*
G03*
X14944560Y-2540000I-35560J0D01*
G01*
X15059060Y-2286000D02*
G75*
G03*
X15059060Y-2286000I-35560J0D01*
G01*
X15173560Y-2032000D02*
G75*
G03*
X15173560Y-2032000I-35560J0D01*
G01*
X15173560Y-2540000D02*
G75*
G03*
X15173560Y-2540000I-35560J0D01*
G01*
X15288060Y-2286000D02*
G75*
G03*
X15288060Y-2286000I-35560J0D01*
G01*
X15402560Y-2032000D02*
G75*
G03*
X15402560Y-2032000I-35560J0D01*
G01*
X15402560Y-2540000D02*
G75*
G03*
X15402560Y-2540000I-35560J0D01*
G01*
X15517060Y-2286000D02*
G75*
G03*
X15517060Y-2286000I-35560J0D01*
G01*
X14526060Y-19050000D02*
G75*
G03*
X14526060Y-19050000I-35560J0D01*
G01*
X14640560Y-18796000D02*
G75*
G03*
X14640560Y-18796000I-35560J0D01*
G01*
X14640560Y-19304000D02*
G75*
G03*
X14640560Y-19304000I-35560J0D01*
G01*
X14755060Y-19050000D02*
G75*
G03*
X14755060Y-19050000I-35560J0D01*
G01*
X14869560Y-18796000D02*
G75*
G03*
X14869560Y-18796000I-35560J0D01*
G01*
X14869560Y-19304000D02*
G75*
G03*
X14869560Y-19304000I-35560J0D01*
G01*
X14984060Y-19050000D02*
G75*
G03*
X14984060Y-19050000I-35560J0D01*
G01*
X15098560Y-18796000D02*
G75*
G03*
X15098560Y-18796000I-35560J0D01*
G01*
X15098560Y-19304000D02*
G75*
G03*
X15098560Y-19304000I-35560J0D01*
G01*
X15213060Y-19050000D02*
G75*
G03*
X15213060Y-19050000I-35560J0D01*
G01*
X15327560Y-18796000D02*
G75*
G03*
X15327560Y-18796000I-35560J0D01*
G01*
X15327560Y-19304000D02*
G75*
G03*
X15327560Y-19304000I-35560J0D01*
G01*
X15442060Y-19050000D02*
G75*
G03*
X15442060Y-19050000I-35560J0D01*
G01*
X15556560Y-18796000D02*
G75*
G03*
X15556560Y-18796000I-35560J0D01*
G01*
X15556560Y-19304000D02*
G75*
G03*
X15556560Y-19304000I-35560J0D01*
G01*
X13081000Y-9746900D02*
X13081000Y-9823100D01*
X13042900Y-9785000D02*
X13119100Y-9785000D01*
X13081000Y-10000900D02*
X13081000Y-10077100D01*
X13042900Y-10039000D02*
X13119100Y-10039000D01*
X13081000Y-10254900D02*
X13081000Y-10331100D01*
X13042900Y-10293000D02*
X13119100Y-10293000D01*
X13081000Y-10508900D02*
X13081000Y-10585100D01*
X13042900Y-10547000D02*
X13119100Y-10547000D01*
X13335000Y-9746900D02*
X13335000Y-9823100D01*
X13296900Y-9785000D02*
X13373100Y-9785000D01*
X13335000Y-10000900D02*
X13335000Y-10077100D01*
X13296900Y-10039000D02*
X13373100Y-10039000D01*
X13335000Y-10254900D02*
X13335000Y-10331100D01*
X13296900Y-10293000D02*
X13373100Y-10293000D01*
X13335000Y-10508900D02*
X13335000Y-10585100D01*
X13296900Y-10547000D02*
X13373100Y-10547000D01*
X13589000Y-9746900D02*
X13589000Y-9823100D01*
X13550900Y-9785000D02*
X13627100Y-9785000D01*
X13589000Y-10000900D02*
X13589000Y-10077100D01*
X13550900Y-10039000D02*
X13627100Y-10039000D01*
X13589000Y-10254900D02*
X13589000Y-10331100D01*
X13550900Y-10293000D02*
X13627100Y-10293000D01*
X13589000Y-10508900D02*
X13589000Y-10585100D01*
X13550900Y-10547000D02*
X13627100Y-10547000D01*
X13843000Y-9746900D02*
X13843000Y-9823100D01*
X13804900Y-9785000D02*
X13881100Y-9785000D01*
X13843000Y-10000900D02*
X13843000Y-10077100D01*
X13804900Y-10039000D02*
X13881100Y-10039000D01*
X13843000Y-10254900D02*
X13843000Y-10331100D01*
X13804900Y-10293000D02*
X13881100Y-10293000D01*
X13843000Y-10508900D02*
X13843000Y-10585100D01*
X13804900Y-10547000D02*
X13881100Y-10547000D01*
X13081000Y-10760900D02*
X13081000Y-10837100D01*
X13042900Y-10799000D02*
X13119100Y-10799000D01*
X13081000Y-11014900D02*
X13081000Y-11091100D01*
X13042900Y-11053000D02*
X13119100Y-11053000D01*
X13081000Y-11268900D02*
X13081000Y-11345100D01*
X13042900Y-11307000D02*
X13119100Y-11307000D01*
X13081000Y-11522900D02*
X13081000Y-11599100D01*
X13042900Y-11561000D02*
X13119100Y-11561000D01*
X13335000Y-10760900D02*
X13335000Y-10837100D01*
X13296900Y-10799000D02*
X13373100Y-10799000D01*
X13335000Y-11014900D02*
X13335000Y-11091100D01*
X13296900Y-11053000D02*
X13373100Y-11053000D01*
X13335000Y-11268900D02*
X13335000Y-11345100D01*
X13296900Y-11307000D02*
X13373100Y-11307000D01*
X13335000Y-11522900D02*
X13335000Y-11599100D01*
X13296900Y-11561000D02*
X13373100Y-11561000D01*
X13589000Y-10760900D02*
X13589000Y-10837100D01*
X13550900Y-10799000D02*
X13627100Y-10799000D01*
X13589000Y-11014900D02*
X13589000Y-11091100D01*
X13550900Y-11053000D02*
X13627100Y-11053000D01*
X13589000Y-11268900D02*
X13589000Y-11345100D01*
X13550900Y-11307000D02*
X13627100Y-11307000D01*
X13589000Y-11522900D02*
X13589000Y-11599100D01*
X13550900Y-11561000D02*
X13627100Y-11561000D01*
X13843000Y-10760900D02*
X13843000Y-10837100D01*
X13804900Y-10799000D02*
X13881100Y-10799000D01*
X13843000Y-11014900D02*
X13843000Y-11091100D01*
X13804900Y-11053000D02*
X13881100Y-11053000D01*
X13843000Y-11268900D02*
X13843000Y-11345100D01*
X13804900Y-11307000D02*
X13881100Y-11307000D01*
X13843000Y-11522900D02*
X13843000Y-11599100D01*
X13804900Y-11561000D02*
X13881100Y-11561000D01*
X24003000Y-11074400D02*
X24003000Y-11150600D01*
X23964900Y-11112500D02*
X24041100Y-11112500D01*
X24003000Y-11328400D02*
X24003000Y-11404600D01*
X23964900Y-11366500D02*
X24041100Y-11366500D01*
X24003000Y-11582400D02*
X24003000Y-11658600D01*
X23964900Y-11620500D02*
X24041100Y-11620500D01*
X14095000Y-9746900D02*
X14095000Y-9823100D01*
X14056900Y-9785000D02*
X14133100Y-9785000D01*
X14095000Y-10000900D02*
X14095000Y-10077100D01*
X14056900Y-10039000D02*
X14133100Y-10039000D01*
X14095000Y-10254900D02*
X14095000Y-10331100D01*
X14056900Y-10293000D02*
X14133100Y-10293000D01*
X14095000Y-10508900D02*
X14095000Y-10585100D01*
X14056900Y-10547000D02*
X14133100Y-10547000D01*
X14349000Y-9746900D02*
X14349000Y-9823100D01*
X14310900Y-9785000D02*
X14387100Y-9785000D01*
X14349000Y-10000900D02*
X14349000Y-10077100D01*
X14310900Y-10039000D02*
X14387100Y-10039000D01*
X14349000Y-10254900D02*
X14349000Y-10331100D01*
X14310900Y-10293000D02*
X14387100Y-10293000D01*
X14349000Y-10508900D02*
X14349000Y-10585100D01*
X14310900Y-10547000D02*
X14387100Y-10547000D01*
X14603000Y-9746900D02*
X14603000Y-9823100D01*
X14564900Y-9785000D02*
X14641100Y-9785000D01*
X14603000Y-10000900D02*
X14603000Y-10077100D01*
X14564900Y-10039000D02*
X14641100Y-10039000D01*
X14603000Y-10254900D02*
X14603000Y-10331100D01*
X14564900Y-10293000D02*
X14641100Y-10293000D01*
X14603000Y-10508900D02*
X14603000Y-10585100D01*
X14564900Y-10547000D02*
X14641100Y-10547000D01*
X14857000Y-9746900D02*
X14857000Y-9823100D01*
X14818900Y-9785000D02*
X14895100Y-9785000D01*
X14857000Y-10000900D02*
X14857000Y-10077100D01*
X14818900Y-10039000D02*
X14895100Y-10039000D01*
X14857000Y-10254900D02*
X14857000Y-10331100D01*
X14818900Y-10293000D02*
X14895100Y-10293000D01*
X14857000Y-10508900D02*
X14857000Y-10585100D01*
X14818900Y-10547000D02*
X14895100Y-10547000D01*
X15113000Y-9740900D02*
X15113000Y-9817100D01*
X15074900Y-9779000D02*
X15151100Y-9779000D01*
X15113000Y-9994900D02*
X15113000Y-10071100D01*
X15074900Y-10033000D02*
X15151100Y-10033000D01*
X15113000Y-10248900D02*
X15113000Y-10325100D01*
X15074900Y-10287000D02*
X15151100Y-10287000D01*
X15113000Y-10502900D02*
X15113000Y-10579100D01*
X15074900Y-10541000D02*
X15151100Y-10541000D01*
X15367000Y-9740900D02*
X15367000Y-9817100D01*
X15328900Y-9779000D02*
X15405100Y-9779000D01*
X15367000Y-9994900D02*
X15367000Y-10071100D01*
X15328900Y-10033000D02*
X15405100Y-10033000D01*
X15367000Y-10248900D02*
X15367000Y-10325100D01*
X15328900Y-10287000D02*
X15405100Y-10287000D01*
X15367000Y-10502900D02*
X15367000Y-10579100D01*
X15328900Y-10541000D02*
X15405100Y-10541000D01*
X15621000Y-9740900D02*
X15621000Y-9817100D01*
X15582900Y-9779000D02*
X15659100Y-9779000D01*
X15621000Y-9994900D02*
X15621000Y-10071100D01*
X15582900Y-10033000D02*
X15659100Y-10033000D01*
X15621000Y-10248900D02*
X15621000Y-10325100D01*
X15582900Y-10287000D02*
X15659100Y-10287000D01*
X15621000Y-10502900D02*
X15621000Y-10579100D01*
X15582900Y-10541000D02*
X15659100Y-10541000D01*
X15875000Y-9740900D02*
X15875000Y-9817100D01*
X15836900Y-9779000D02*
X15913100Y-9779000D01*
X15875000Y-9994900D02*
X15875000Y-10071100D01*
X15836900Y-10033000D02*
X15913100Y-10033000D01*
X15875000Y-10248900D02*
X15875000Y-10325100D01*
X15836900Y-10287000D02*
X15913100Y-10287000D01*
X15875000Y-10502900D02*
X15875000Y-10579100D01*
X15836900Y-10541000D02*
X15913100Y-10541000D01*
X7874000Y-1612900D02*
X7874000Y-1689100D01*
X7835900Y-1651000D02*
X7912100Y-1651000D01*
X7874000Y-1866900D02*
X7874000Y-1943100D01*
X7835900Y-1905000D02*
X7912100Y-1905000D01*
X7874000Y-2120900D02*
X7874000Y-2197100D01*
X7835900Y-2159000D02*
X7912100Y-2159000D01*
X7874000Y-2374900D02*
X7874000Y-2451100D01*
X7835900Y-2413000D02*
X7912100Y-2413000D01*
X7874000Y-2628900D02*
X7874000Y-2705100D01*
X7835900Y-2667000D02*
X7912100Y-2667000D01*
X7874000Y-2882900D02*
X7874000Y-2959100D01*
X7835900Y-2921000D02*
X7912100Y-2921000D01*
X7874000Y-3136900D02*
X7874000Y-3213100D01*
X7835900Y-3175000D02*
X7912100Y-3175000D01*
X7874000Y-3390900D02*
X7874000Y-3467100D01*
X7835900Y-3429000D02*
X7912100Y-3429000D01*
X7874000Y-3644900D02*
X7874000Y-3721100D01*
X7835900Y-3683000D02*
X7912100Y-3683000D01*
X7874000Y-3898900D02*
X7874000Y-3975100D01*
X7835900Y-3937000D02*
X7912100Y-3937000D01*
X7874000Y-4152900D02*
X7874000Y-4229100D01*
X7835900Y-4191000D02*
X7912100Y-4191000D01*
X7874000Y-4406900D02*
X7874000Y-4483100D01*
X7835900Y-4445000D02*
X7912100Y-4445000D01*
X7874000Y-4660900D02*
X7874000Y-4737100D01*
X7835900Y-4699000D02*
X7912100Y-4699000D01*
X7874000Y-4914900D02*
X7874000Y-4991100D01*
X7835900Y-4953000D02*
X7912100Y-4953000D01*
X7874000Y-5168900D02*
X7874000Y-5245100D01*
X7835900Y-5207000D02*
X7912100Y-5207000D01*
X9398000Y-1612900D02*
X9398000Y-1689100D01*
X9359900Y-1651000D02*
X9436100Y-1651000D01*
X9398000Y-1866900D02*
X9398000Y-1943100D01*
X9359900Y-1905000D02*
X9436100Y-1905000D01*
X9398000Y-2120900D02*
X9398000Y-2197100D01*
X9359900Y-2159000D02*
X9436100Y-2159000D01*
X9398000Y-2374900D02*
X9398000Y-2451100D01*
X9359900Y-2413000D02*
X9436100Y-2413000D01*
X9398000Y-2628900D02*
X9398000Y-2705100D01*
X9359900Y-2667000D02*
X9436100Y-2667000D01*
X9398000Y-2882900D02*
X9398000Y-2959100D01*
X9359900Y-2921000D02*
X9436100Y-2921000D01*
X9398000Y-3136900D02*
X9398000Y-3213100D01*
X9359900Y-3175000D02*
X9436100Y-3175000D01*
X9398000Y-3390900D02*
X9398000Y-3467100D01*
X9359900Y-3429000D02*
X9436100Y-3429000D01*
X9398000Y-3644900D02*
X9398000Y-3721100D01*
X9359900Y-3683000D02*
X9436100Y-3683000D01*
X9398000Y-3898900D02*
X9398000Y-3975100D01*
X9359900Y-3937000D02*
X9436100Y-3937000D01*
X9398000Y-4152900D02*
X9398000Y-4229100D01*
X9359900Y-4191000D02*
X9436100Y-4191000D01*
X9398000Y-4406900D02*
X9398000Y-4483100D01*
X9359900Y-4445000D02*
X9436100Y-4445000D01*
X9398000Y-4660900D02*
X9398000Y-4737100D01*
X9359900Y-4699000D02*
X9436100Y-4699000D01*
X9398000Y-4914900D02*
X9398000Y-4991100D01*
X9359900Y-4953000D02*
X9436100Y-4953000D01*
X9398000Y-5168900D02*
X9398000Y-5245100D01*
X9359900Y-5207000D02*
X9436100Y-5207000D01*
X7366000Y-1612900D02*
X7366000Y-1689100D01*
X7327900Y-1651000D02*
X7404100Y-1651000D01*
X7366000Y-1866900D02*
X7366000Y-1943100D01*
X7327900Y-1905000D02*
X7404100Y-1905000D01*
X7366000Y-2120900D02*
X7366000Y-2197100D01*
X7327900Y-2159000D02*
X7404100Y-2159000D01*
X7366000Y-2374900D02*
X7366000Y-2451100D01*
X7327900Y-2413000D02*
X7404100Y-2413000D01*
X7366000Y-2628900D02*
X7366000Y-2705100D01*
X7327900Y-2667000D02*
X7404100Y-2667000D01*
X7366000Y-2882900D02*
X7366000Y-2959100D01*
X7327900Y-2921000D02*
X7404100Y-2921000D01*
X7366000Y-3136900D02*
X7366000Y-3213100D01*
X7327900Y-3175000D02*
X7404100Y-3175000D01*
X7366000Y-3390900D02*
X7366000Y-3467100D01*
X7327900Y-3429000D02*
X7404100Y-3429000D01*
X7366000Y-3644900D02*
X7366000Y-3721100D01*
X7327900Y-3683000D02*
X7404100Y-3683000D01*
X7366000Y-3898900D02*
X7366000Y-3975100D01*
X7327900Y-3937000D02*
X7404100Y-3937000D01*
X7366000Y-4152900D02*
X7366000Y-4229100D01*
X7327900Y-4191000D02*
X7404100Y-4191000D01*
X7366000Y-4406900D02*
X7366000Y-4483100D01*
X7327900Y-4445000D02*
X7404100Y-4445000D01*
X7366000Y-4660900D02*
X7366000Y-4737100D01*
X7327900Y-4699000D02*
X7404100Y-4699000D01*
X7366000Y-4914900D02*
X7366000Y-4991100D01*
X7327900Y-4953000D02*
X7404100Y-4953000D01*
X7366000Y-5168900D02*
X7366000Y-5245100D01*
X7327900Y-5207000D02*
X7404100Y-5207000D01*
X9906000Y-1612900D02*
X9906000Y-1689100D01*
X9867900Y-1651000D02*
X9944100Y-1651000D01*
X9906000Y-1866900D02*
X9906000Y-1943100D01*
X9867900Y-1905000D02*
X9944100Y-1905000D01*
X9906000Y-2120900D02*
X9906000Y-2197100D01*
X9867900Y-2159000D02*
X9944100Y-2159000D01*
X9906000Y-2374900D02*
X9906000Y-2451100D01*
X9867900Y-2413000D02*
X9944100Y-2413000D01*
X9906000Y-2628900D02*
X9906000Y-2705100D01*
X9867900Y-2667000D02*
X9944100Y-2667000D01*
X9906000Y-2882900D02*
X9906000Y-2959100D01*
X9867900Y-2921000D02*
X9944100Y-2921000D01*
X9906000Y-3136900D02*
X9906000Y-3213100D01*
X9867900Y-3175000D02*
X9944100Y-3175000D01*
X9906000Y-3390900D02*
X9906000Y-3467100D01*
X9867900Y-3429000D02*
X9944100Y-3429000D01*
X9906000Y-3644900D02*
X9906000Y-3721100D01*
X9867900Y-3683000D02*
X9944100Y-3683000D01*
X9906000Y-3898900D02*
X9906000Y-3975100D01*
X9867900Y-3937000D02*
X9944100Y-3937000D01*
X9906000Y-4152900D02*
X9906000Y-4229100D01*
X9867900Y-4191000D02*
X9944100Y-4191000D01*
X9906000Y-4406900D02*
X9906000Y-4483100D01*
X9867900Y-4445000D02*
X9944100Y-4445000D01*
X9906000Y-4660900D02*
X9906000Y-4737100D01*
X9867900Y-4699000D02*
X9944100Y-4699000D01*
X9906000Y-4914900D02*
X9906000Y-4991100D01*
X9867900Y-4953000D02*
X9944100Y-4953000D01*
X9906000Y-5168900D02*
X9906000Y-5245100D01*
X9867900Y-5207000D02*
X9944100Y-5207000D01*
X14095000Y-10760900D02*
X14095000Y-10837100D01*
X14056900Y-10799000D02*
X14133100Y-10799000D01*
X14095000Y-11014900D02*
X14095000Y-11091100D01*
X14056900Y-11053000D02*
X14133100Y-11053000D01*
X14095000Y-11268900D02*
X14095000Y-11345100D01*
X14056900Y-11307000D02*
X14133100Y-11307000D01*
X14095000Y-11522900D02*
X14095000Y-11599100D01*
X14056900Y-11561000D02*
X14133100Y-11561000D01*
X14349000Y-10760900D02*
X14349000Y-10837100D01*
X14310900Y-10799000D02*
X14387100Y-10799000D01*
X14349000Y-11014900D02*
X14349000Y-11091100D01*
X14310900Y-11053000D02*
X14387100Y-11053000D01*
X14349000Y-11268900D02*
X14349000Y-11345100D01*
X14310900Y-11307000D02*
X14387100Y-11307000D01*
X14349000Y-11522900D02*
X14349000Y-11599100D01*
X14310900Y-11561000D02*
X14387100Y-11561000D01*
X14603000Y-10760900D02*
X14603000Y-10837100D01*
X14564900Y-10799000D02*
X14641100Y-10799000D01*
X14603000Y-11014900D02*
X14603000Y-11091100D01*
X14564900Y-11053000D02*
X14641100Y-11053000D01*
X14603000Y-11268900D02*
X14603000Y-11345100D01*
X14564900Y-11307000D02*
X14641100Y-11307000D01*
X14603000Y-11522900D02*
X14603000Y-11599100D01*
X14564900Y-11561000D02*
X14641100Y-11561000D01*
X14857000Y-10760900D02*
X14857000Y-10837100D01*
X14818900Y-10799000D02*
X14895100Y-10799000D01*
X14857000Y-11014900D02*
X14857000Y-11091100D01*
X14818900Y-11053000D02*
X14895100Y-11053000D01*
X14857000Y-11268900D02*
X14857000Y-11345100D01*
X14818900Y-11307000D02*
X14895100Y-11307000D01*
X14857000Y-11522900D02*
X14857000Y-11599100D01*
X14818900Y-11561000D02*
X14895100Y-11561000D01*
X24003000Y-2057400D02*
X24003000Y-2133600D01*
X23964900Y-2095500D02*
X24041100Y-2095500D01*
X24003000Y-2311400D02*
X24003000Y-2387600D01*
X23964900Y-2349500D02*
X24041100Y-2349500D01*
X24003000Y-2565400D02*
X24003000Y-2641600D01*
X23964900Y-2603500D02*
X24041100Y-2603500D01*
X15113000Y-10758900D02*
X15113000Y-10835100D01*
X15074900Y-10797000D02*
X15151100Y-10797000D01*
X15113000Y-11012900D02*
X15113000Y-11089100D01*
X15074900Y-11051000D02*
X15151100Y-11051000D01*
X15113000Y-11266900D02*
X15113000Y-11343100D01*
X15074900Y-11305000D02*
X15151100Y-11305000D01*
X15113000Y-11520900D02*
X15113000Y-11597100D01*
X15074900Y-11559000D02*
X15151100Y-11559000D01*
X15367000Y-10758900D02*
X15367000Y-10835100D01*
X15328900Y-10797000D02*
X15405100Y-10797000D01*
X15367000Y-11012900D02*
X15367000Y-11089100D01*
X15328900Y-11051000D02*
X15405100Y-11051000D01*
X15367000Y-11266900D02*
X15367000Y-11343100D01*
X15328900Y-11305000D02*
X15405100Y-11305000D01*
X15367000Y-11520900D02*
X15367000Y-11597100D01*
X15328900Y-11559000D02*
X15405100Y-11559000D01*
X15621000Y-10758900D02*
X15621000Y-10835100D01*
X15582900Y-10797000D02*
X15659100Y-10797000D01*
X15621000Y-11012900D02*
X15621000Y-11089100D01*
X15582900Y-11051000D02*
X15659100Y-11051000D01*
X15621000Y-11266900D02*
X15621000Y-11343100D01*
X15582900Y-11305000D02*
X15659100Y-11305000D01*
X15621000Y-11520900D02*
X15621000Y-11597100D01*
X15582900Y-11559000D02*
X15659100Y-11559000D01*
X15875000Y-10758900D02*
X15875000Y-10835100D01*
X15836900Y-10797000D02*
X15913100Y-10797000D01*
X15875000Y-11012900D02*
X15875000Y-11089100D01*
X15836900Y-11051000D02*
X15913100Y-11051000D01*
X15875000Y-11266900D02*
X15875000Y-11343100D01*
X15836900Y-11305000D02*
X15913100Y-11305000D01*
X15875000Y-11520900D02*
X15875000Y-11597100D01*
X15836900Y-11559000D02*
X15913100Y-11559000D01*
X24003000Y-9677400D02*
X24003000Y-9753600D01*
X23964900Y-9715500D02*
X24041100Y-9715500D01*
X24003000Y-9931400D02*
X24003000Y-10007600D01*
X23964900Y-9969500D02*
X24041100Y-9969500D01*
X24003000Y-10185400D02*
X24003000Y-10261600D01*
X23964900Y-10223500D02*
X24041100Y-10223500D01*
X24003000Y-16154400D02*
X24003000Y-16230600D01*
X23964900Y-16192500D02*
X24041100Y-16192500D01*
X24003000Y-16408400D02*
X24003000Y-16484600D01*
X23964900Y-16446500D02*
X24041100Y-16446500D01*
X24003000Y-16662400D02*
X24003000Y-16738600D01*
X23964900Y-16700500D02*
X24041100Y-16700500D01*
X24003000Y-7137400D02*
X24003000Y-7213600D01*
X23964900Y-7175500D02*
X24041100Y-7175500D01*
X24003000Y-7391400D02*
X24003000Y-7467600D01*
X23964900Y-7429500D02*
X24041100Y-7429500D01*
X24003000Y-7645400D02*
X24003000Y-7721600D01*
X23964900Y-7683500D02*
X24041100Y-7683500D01*
X16129000Y-9740900D02*
X16129000Y-9817100D01*
X16090900Y-9779000D02*
X16167100Y-9779000D01*
X16129000Y-9994900D02*
X16129000Y-10071100D01*
X16090900Y-10033000D02*
X16167100Y-10033000D01*
X16129000Y-10248900D02*
X16129000Y-10325100D01*
X16090900Y-10287000D02*
X16167100Y-10287000D01*
X16129000Y-10502900D02*
X16129000Y-10579100D01*
X16090900Y-10541000D02*
X16167100Y-10541000D01*
X16383000Y-9740900D02*
X16383000Y-9817100D01*
X16344900Y-9779000D02*
X16421100Y-9779000D01*
X16383000Y-9994900D02*
X16383000Y-10071100D01*
X16344900Y-10033000D02*
X16421100Y-10033000D01*
X16383000Y-10248900D02*
X16383000Y-10325100D01*
X16344900Y-10287000D02*
X16421100Y-10287000D01*
X16383000Y-10502900D02*
X16383000Y-10579100D01*
X16344900Y-10541000D02*
X16421100Y-10541000D01*
X16637000Y-9740900D02*
X16637000Y-9817100D01*
X16598900Y-9779000D02*
X16675100Y-9779000D01*
X16637000Y-9994900D02*
X16637000Y-10071100D01*
X16598900Y-10033000D02*
X16675100Y-10033000D01*
X16637000Y-10248900D02*
X16637000Y-10325100D01*
X16598900Y-10287000D02*
X16675100Y-10287000D01*
X16637000Y-10502900D02*
X16637000Y-10579100D01*
X16598900Y-10541000D02*
X16675100Y-10541000D01*
X16891000Y-9740900D02*
X16891000Y-9817100D01*
X16852900Y-9779000D02*
X16929100Y-9779000D01*
X16891000Y-9994900D02*
X16891000Y-10071100D01*
X16852900Y-10033000D02*
X16929100Y-10033000D01*
X16891000Y-10248900D02*
X16891000Y-10325100D01*
X16852900Y-10287000D02*
X16929100Y-10287000D01*
X16891000Y-10502900D02*
X16891000Y-10579100D01*
X16852900Y-10541000D02*
X16929100Y-10541000D01*
X16127000Y-10758900D02*
X16127000Y-10835100D01*
X16088900Y-10797000D02*
X16165100Y-10797000D01*
X16127000Y-11012900D02*
X16127000Y-11089100D01*
X16088900Y-11051000D02*
X16165100Y-11051000D01*
X16127000Y-11266900D02*
X16127000Y-11343100D01*
X16088900Y-11305000D02*
X16165100Y-11305000D01*
X16127000Y-11520900D02*
X16127000Y-11597100D01*
X16088900Y-11559000D02*
X16165100Y-11559000D01*
X16381000Y-10758900D02*
X16381000Y-10835100D01*
X16342900Y-10797000D02*
X16419100Y-10797000D01*
X16381000Y-11012900D02*
X16381000Y-11089100D01*
X16342900Y-11051000D02*
X16419100Y-11051000D01*
X16381000Y-11266900D02*
X16381000Y-11343100D01*
X16342900Y-11305000D02*
X16419100Y-11305000D01*
X16381000Y-11520900D02*
X16381000Y-11597100D01*
X16342900Y-11559000D02*
X16419100Y-11559000D01*
X16635000Y-10758900D02*
X16635000Y-10835100D01*
X16596900Y-10797000D02*
X16673100Y-10797000D01*
X16635000Y-11012900D02*
X16635000Y-11089100D01*
X16596900Y-11051000D02*
X16673100Y-11051000D01*
X16635000Y-11266900D02*
X16635000Y-11343100D01*
X16596900Y-11305000D02*
X16673100Y-11305000D01*
X16635000Y-11520900D02*
X16635000Y-11597100D01*
X16596900Y-11559000D02*
X16673100Y-11559000D01*
X16889000Y-10758900D02*
X16889000Y-10835100D01*
X16850900Y-10797000D02*
X16927100Y-10797000D01*
X16889000Y-11012900D02*
X16889000Y-11089100D01*
X16850900Y-11051000D02*
X16927100Y-11051000D01*
X16889000Y-11266900D02*
X16889000Y-11343100D01*
X16850900Y-11305000D02*
X16927100Y-11305000D01*
X16889000Y-11520900D02*
X16889000Y-11597100D01*
X16850900Y-11559000D02*
X16927100Y-11559000D01*
X24003000Y-13614400D02*
X24003000Y-13690600D01*
X23964900Y-13652500D02*
X24041100Y-13652500D01*
X24003000Y-13868400D02*
X24003000Y-13944600D01*
X23964900Y-13906500D02*
X24041100Y-13906500D01*
X24003000Y-14122400D02*
X24003000Y-14198600D01*
X23964900Y-14160500D02*
X24041100Y-14160500D01*
X24003000Y-4597400D02*
X24003000Y-4673600D01*
X23964900Y-4635500D02*
X24041100Y-4635500D01*
X24003000Y-4851400D02*
X24003000Y-4927600D01*
X23964900Y-4889500D02*
X24041100Y-4889500D01*
X24003000Y-5105400D02*
X24003000Y-5181600D01*
X23964900Y-5143500D02*
X24041100Y-5143500D01*
X11711839Y-4578672D02*
X11711839Y-4522994D01*
X11656161Y-4522994D01*
X11656161Y-4578672D01*
X11711839Y-4578672D01*
X11711839Y-4832672D02*
X11711839Y-4776994D01*
X11656161Y-4776994D01*
X11656161Y-4832672D01*
X11711839Y-4832672D01*
X11711839Y-5086672D02*
X11711839Y-5030994D01*
X11656161Y-5030994D01*
X11656161Y-5086672D01*
X11711839Y-5086672D01*
X11711839Y-5340672D02*
X11711839Y-5284994D01*
X11656161Y-5284994D01*
X11656161Y-5340672D01*
X11711839Y-5340672D01*
X11711839Y-5594672D02*
X11711839Y-5538994D01*
X11656161Y-5538994D01*
X11656161Y-5594672D01*
X11711839Y-5594672D01*
X11711839Y-5848672D02*
X11711839Y-5792994D01*
X11656161Y-5792994D01*
X11656161Y-5848672D01*
X11711839Y-5848672D01*
X11711839Y-6102672D02*
X11711839Y-6046994D01*
X11656161Y-6046994D01*
X11656161Y-6102672D01*
X11711839Y-6102672D01*
X11711839Y-6356672D02*
X11711839Y-6300994D01*
X11656161Y-6300994D01*
X11656161Y-6356672D01*
X11711839Y-6356672D01*
X12473839Y-4578672D02*
X12473839Y-4522994D01*
X12418161Y-4522994D01*
X12418161Y-4578672D01*
X12473839Y-4578672D01*
X12473839Y-4832672D02*
X12473839Y-4776994D01*
X12418161Y-4776994D01*
X12418161Y-4832672D01*
X12473839Y-4832672D01*
X12473839Y-5086672D02*
X12473839Y-5030994D01*
X12418161Y-5030994D01*
X12418161Y-5086672D01*
X12473839Y-5086672D01*
X12473839Y-5340672D02*
X12473839Y-5284994D01*
X12418161Y-5284994D01*
X12418161Y-5340672D01*
X12473839Y-5340672D01*
X12473839Y-5594672D02*
X12473839Y-5538994D01*
X12418161Y-5538994D01*
X12418161Y-5594672D01*
X12473839Y-5594672D01*
X12473839Y-5848672D02*
X12473839Y-5792994D01*
X12418161Y-5792994D01*
X12418161Y-5848672D01*
X12473839Y-5848672D01*
X12473839Y-6102672D02*
X12473839Y-6046994D01*
X12418161Y-6046994D01*
X12418161Y-6102672D01*
X12473839Y-6102672D01*
X12473839Y-6356672D02*
X12473839Y-6300994D01*
X12418161Y-6300994D01*
X12418161Y-6356672D01*
X12473839Y-6356672D01*
X6885839Y-17934839D02*
X6885839Y-17879161D01*
X6830161Y-17879161D01*
X6830161Y-17934839D01*
X6885839Y-17934839D01*
X6885839Y-18188839D02*
X6885839Y-18133161D01*
X6830161Y-18133161D01*
X6830161Y-18188839D01*
X6885839Y-18188839D01*
X6885839Y-18442839D02*
X6885839Y-18387161D01*
X6830161Y-18387161D01*
X6830161Y-18442839D01*
X6885839Y-18442839D01*
X6885839Y-18696839D02*
X6885839Y-18641161D01*
X6830161Y-18641161D01*
X6830161Y-18696839D01*
X6885839Y-18696839D01*
X6885839Y-18950839D02*
X6885839Y-18895161D01*
X6830161Y-18895161D01*
X6830161Y-18950839D01*
X6885839Y-18950839D01*
X6885839Y-19204839D02*
X6885839Y-19149161D01*
X6830161Y-19149161D01*
X6830161Y-19204839D01*
X6885839Y-19204839D01*
X6885839Y-19458839D02*
X6885839Y-19403161D01*
X6830161Y-19403161D01*
X6830161Y-19458839D01*
X6885839Y-19458839D01*
X6885839Y-19712839D02*
X6885839Y-19657161D01*
X6830161Y-19657161D01*
X6830161Y-19712839D01*
X6885839Y-19712839D01*
X7647839Y-17934839D02*
X7647839Y-17879161D01*
X7592161Y-17879161D01*
X7592161Y-17934839D01*
X7647839Y-17934839D01*
X7647839Y-18188839D02*
X7647839Y-18133161D01*
X7592161Y-18133161D01*
X7592161Y-18188839D01*
X7647839Y-18188839D01*
X7647839Y-18442839D02*
X7647839Y-18387161D01*
X7592161Y-18387161D01*
X7592161Y-18442839D01*
X7647839Y-18442839D01*
X7647839Y-18696839D02*
X7647839Y-18641161D01*
X7592161Y-18641161D01*
X7592161Y-18696839D01*
X7647839Y-18696839D01*
X7647839Y-18950839D02*
X7647839Y-18895161D01*
X7592161Y-18895161D01*
X7592161Y-18950839D01*
X7647839Y-18950839D01*
X7647839Y-19204839D02*
X7647839Y-19149161D01*
X7592161Y-19149161D01*
X7592161Y-19204839D01*
X7647839Y-19204839D01*
X7647839Y-19458839D02*
X7647839Y-19403161D01*
X7592161Y-19403161D01*
X7592161Y-19458839D01*
X7647839Y-19458839D01*
X7647839Y-19712839D02*
X7647839Y-19657161D01*
X7592161Y-19657161D01*
X7592161Y-19712839D01*
X7647839Y-19712839D01*
X6885839Y-13638006D02*
X6885839Y-13582327D01*
X6830161Y-13582327D01*
X6830161Y-13638006D01*
X6885839Y-13638006D01*
X6885839Y-13892006D02*
X6885839Y-13836327D01*
X6830161Y-13836327D01*
X6830161Y-13892006D01*
X6885839Y-13892006D01*
X6885839Y-14146006D02*
X6885839Y-14090327D01*
X6830161Y-14090327D01*
X6830161Y-14146006D01*
X6885839Y-14146006D01*
X6885839Y-14400006D02*
X6885839Y-14344327D01*
X6830161Y-14344327D01*
X6830161Y-14400006D01*
X6885839Y-14400006D01*
X6885839Y-14654006D02*
X6885839Y-14598327D01*
X6830161Y-14598327D01*
X6830161Y-14654006D01*
X6885839Y-14654006D01*
X6885839Y-14908006D02*
X6885839Y-14852327D01*
X6830161Y-14852327D01*
X6830161Y-14908006D01*
X6885839Y-14908006D01*
X6885839Y-15162006D02*
X6885839Y-15106327D01*
X6830161Y-15106327D01*
X6830161Y-15162006D01*
X6885839Y-15162006D01*
X6885839Y-15416006D02*
X6885839Y-15360327D01*
X6830161Y-15360327D01*
X6830161Y-15416006D01*
X6885839Y-15416006D01*
X7647839Y-13638006D02*
X7647839Y-13582327D01*
X7592161Y-13582327D01*
X7592161Y-13638006D01*
X7647839Y-13638006D01*
X7647839Y-13892006D02*
X7647839Y-13836327D01*
X7592161Y-13836327D01*
X7592161Y-13892006D01*
X7647839Y-13892006D01*
X7647839Y-14146006D02*
X7647839Y-14090327D01*
X7592161Y-14090327D01*
X7592161Y-14146006D01*
X7647839Y-14146006D01*
X7647839Y-14400006D02*
X7647839Y-14344327D01*
X7592161Y-14344327D01*
X7592161Y-14400006D01*
X7647839Y-14400006D01*
X7647839Y-14654006D02*
X7647839Y-14598327D01*
X7592161Y-14598327D01*
X7592161Y-14654006D01*
X7647839Y-14654006D01*
X7647839Y-14908006D02*
X7647839Y-14852327D01*
X7592161Y-14852327D01*
X7592161Y-14908006D01*
X7647839Y-14908006D01*
X7647839Y-15162006D02*
X7647839Y-15106327D01*
X7592161Y-15106327D01*
X7592161Y-15162006D01*
X7647839Y-15162006D01*
X7647839Y-15416006D02*
X7647839Y-15360327D01*
X7592161Y-15360327D01*
X7592161Y-15416006D01*
X7647839Y-15416006D01*
X6885839Y-6462506D02*
X6885839Y-6406827D01*
X6830161Y-6406827D01*
X6830161Y-6462506D01*
X6885839Y-6462506D01*
X6885839Y-6716506D02*
X6885839Y-6660827D01*
X6830161Y-6660827D01*
X6830161Y-6716506D01*
X6885839Y-6716506D01*
X6885839Y-6970506D02*
X6885839Y-6914827D01*
X6830161Y-6914827D01*
X6830161Y-6970506D01*
X6885839Y-6970506D01*
X6885839Y-7224506D02*
X6885839Y-7168827D01*
X6830161Y-7168827D01*
X6830161Y-7224506D01*
X6885839Y-7224506D01*
X6885839Y-7478506D02*
X6885839Y-7422827D01*
X6830161Y-7422827D01*
X6830161Y-7478506D01*
X6885839Y-7478506D01*
X6885839Y-7732506D02*
X6885839Y-7676827D01*
X6830161Y-7676827D01*
X6830161Y-7732506D01*
X6885839Y-7732506D01*
X6885839Y-7986506D02*
X6885839Y-7930827D01*
X6830161Y-7930827D01*
X6830161Y-7986506D01*
X6885839Y-7986506D01*
X6885839Y-8240506D02*
X6885839Y-8184827D01*
X6830161Y-8184827D01*
X6830161Y-8240506D01*
X6885839Y-8240506D01*
X7647839Y-6462506D02*
X7647839Y-6406827D01*
X7592161Y-6406827D01*
X7592161Y-6462506D01*
X7647839Y-6462506D01*
X7647839Y-6716506D02*
X7647839Y-6660827D01*
X7592161Y-6660827D01*
X7592161Y-6716506D01*
X7647839Y-6716506D01*
X7647839Y-6970506D02*
X7647839Y-6914827D01*
X7592161Y-6914827D01*
X7592161Y-6970506D01*
X7647839Y-6970506D01*
X7647839Y-7224506D02*
X7647839Y-7168827D01*
X7592161Y-7168827D01*
X7592161Y-7224506D01*
X7647839Y-7224506D01*
X7647839Y-7478506D02*
X7647839Y-7422827D01*
X7592161Y-7422827D01*
X7592161Y-7478506D01*
X7647839Y-7478506D01*
X7647839Y-7732506D02*
X7647839Y-7676827D01*
X7592161Y-7676827D01*
X7592161Y-7732506D01*
X7647839Y-7732506D01*
X7647839Y-7986506D02*
X7647839Y-7930827D01*
X7592161Y-7930827D01*
X7592161Y-7986506D01*
X7647839Y-7986506D01*
X7647839Y-8240506D02*
X7647839Y-8184827D01*
X7592161Y-8184827D01*
X7592161Y-8240506D01*
X7647839Y-8240506D01*
X6885839Y-8854339D02*
X6885839Y-8798661D01*
X6830161Y-8798661D01*
X6830161Y-8854339D01*
X6885839Y-8854339D01*
X6885839Y-9108339D02*
X6885839Y-9052661D01*
X6830161Y-9052661D01*
X6830161Y-9108339D01*
X6885839Y-9108339D01*
X6885839Y-9362339D02*
X6885839Y-9306661D01*
X6830161Y-9306661D01*
X6830161Y-9362339D01*
X6885839Y-9362339D01*
X6885839Y-9616339D02*
X6885839Y-9560661D01*
X6830161Y-9560661D01*
X6830161Y-9616339D01*
X6885839Y-9616339D01*
X6885839Y-9870339D02*
X6885839Y-9814661D01*
X6830161Y-9814661D01*
X6830161Y-9870339D01*
X6885839Y-9870339D01*
X6885839Y-10124339D02*
X6885839Y-10068661D01*
X6830161Y-10068661D01*
X6830161Y-10124339D01*
X6885839Y-10124339D01*
X6885839Y-10378339D02*
X6885839Y-10322661D01*
X6830161Y-10322661D01*
X6830161Y-10378339D01*
X6885839Y-10378339D01*
X6885839Y-10632339D02*
X6885839Y-10576661D01*
X6830161Y-10576661D01*
X6830161Y-10632339D01*
X6885839Y-10632339D01*
X7647839Y-8854339D02*
X7647839Y-8798661D01*
X7592161Y-8798661D01*
X7592161Y-8854339D01*
X7647839Y-8854339D01*
X7647839Y-9108339D02*
X7647839Y-9052661D01*
X7592161Y-9052661D01*
X7592161Y-9108339D01*
X7647839Y-9108339D01*
X7647839Y-9362339D02*
X7647839Y-9306661D01*
X7592161Y-9306661D01*
X7592161Y-9362339D01*
X7647839Y-9362339D01*
X7647839Y-9616339D02*
X7647839Y-9560661D01*
X7592161Y-9560661D01*
X7592161Y-9616339D01*
X7647839Y-9616339D01*
X7647839Y-9870339D02*
X7647839Y-9814661D01*
X7592161Y-9814661D01*
X7592161Y-9870339D01*
X7647839Y-9870339D01*
X7647839Y-10124339D02*
X7647839Y-10068661D01*
X7592161Y-10068661D01*
X7592161Y-10124339D01*
X7647839Y-10124339D01*
X7647839Y-10378339D02*
X7647839Y-10322661D01*
X7592161Y-10322661D01*
X7592161Y-10378339D01*
X7647839Y-10378339D01*
X7647839Y-10632339D02*
X7647839Y-10576661D01*
X7592161Y-10576661D01*
X7592161Y-10632339D01*
X7647839Y-10632339D01*
X6885839Y-15775839D02*
X6885839Y-15720161D01*
X6830161Y-15720161D01*
X6830161Y-15775839D01*
X6885839Y-15775839D01*
X6885839Y-16029839D02*
X6885839Y-15974161D01*
X6830161Y-15974161D01*
X6830161Y-16029839D01*
X6885839Y-16029839D01*
X6885839Y-16283839D02*
X6885839Y-16228161D01*
X6830161Y-16228161D01*
X6830161Y-16283839D01*
X6885839Y-16283839D01*
X6885839Y-16537839D02*
X6885839Y-16482161D01*
X6830161Y-16482161D01*
X6830161Y-16537839D01*
X6885839Y-16537839D01*
X6885839Y-16791839D02*
X6885839Y-16736161D01*
X6830161Y-16736161D01*
X6830161Y-16791839D01*
X6885839Y-16791839D01*
X6885839Y-17045839D02*
X6885839Y-16990161D01*
X6830161Y-16990161D01*
X6830161Y-17045839D01*
X6885839Y-17045839D01*
X6885839Y-17299839D02*
X6885839Y-17244161D01*
X6830161Y-17244161D01*
X6830161Y-17299839D01*
X6885839Y-17299839D01*
X6885839Y-17553839D02*
X6885839Y-17498161D01*
X6830161Y-17498161D01*
X6830161Y-17553839D01*
X6885839Y-17553839D01*
X7647839Y-15775839D02*
X7647839Y-15720161D01*
X7592161Y-15720161D01*
X7592161Y-15775839D01*
X7647839Y-15775839D01*
X7647839Y-16029839D02*
X7647839Y-15974161D01*
X7592161Y-15974161D01*
X7592161Y-16029839D01*
X7647839Y-16029839D01*
X7647839Y-16283839D02*
X7647839Y-16228161D01*
X7592161Y-16228161D01*
X7592161Y-16283839D01*
X7647839Y-16283839D01*
X7647839Y-16537839D02*
X7647839Y-16482161D01*
X7592161Y-16482161D01*
X7592161Y-16537839D01*
X7647839Y-16537839D01*
X7647839Y-16791839D02*
X7647839Y-16736161D01*
X7592161Y-16736161D01*
X7592161Y-16791839D01*
X7647839Y-16791839D01*
X7647839Y-17045839D02*
X7647839Y-16990161D01*
X7592161Y-16990161D01*
X7592161Y-17045839D01*
X7647839Y-17045839D01*
X7647839Y-17299839D02*
X7647839Y-17244161D01*
X7592161Y-17244161D01*
X7592161Y-17299839D01*
X7647839Y-17299839D01*
X7647839Y-17553839D02*
X7647839Y-17498161D01*
X7592161Y-17498161D01*
X7592161Y-17553839D01*
X7647839Y-17553839D01*
X6885839Y-11246172D02*
X6885839Y-11190494D01*
X6830161Y-11190494D01*
X6830161Y-11246172D01*
X6885839Y-11246172D01*
X6885839Y-11500172D02*
X6885839Y-11444494D01*
X6830161Y-11444494D01*
X6830161Y-11500172D01*
X6885839Y-11500172D01*
X6885839Y-11754172D02*
X6885839Y-11698494D01*
X6830161Y-11698494D01*
X6830161Y-11754172D01*
X6885839Y-11754172D01*
X6885839Y-12008172D02*
X6885839Y-11952494D01*
X6830161Y-11952494D01*
X6830161Y-12008172D01*
X6885839Y-12008172D01*
X6885839Y-12262172D02*
X6885839Y-12206494D01*
X6830161Y-12206494D01*
X6830161Y-12262172D01*
X6885839Y-12262172D01*
X6885839Y-12516172D02*
X6885839Y-12460494D01*
X6830161Y-12460494D01*
X6830161Y-12516172D01*
X6885839Y-12516172D01*
X6885839Y-12770172D02*
X6885839Y-12714494D01*
X6830161Y-12714494D01*
X6830161Y-12770172D01*
X6885839Y-12770172D01*
X6885839Y-13024172D02*
X6885839Y-12968494D01*
X6830161Y-12968494D01*
X6830161Y-13024172D01*
X6885839Y-13024172D01*
X7647839Y-11246172D02*
X7647839Y-11190494D01*
X7592161Y-11190494D01*
X7592161Y-11246172D01*
X7647839Y-11246172D01*
X7647839Y-11500172D02*
X7647839Y-11444494D01*
X7592161Y-11444494D01*
X7592161Y-11500172D01*
X7647839Y-11500172D01*
X7647839Y-11754172D02*
X7647839Y-11698494D01*
X7592161Y-11698494D01*
X7592161Y-11754172D01*
X7647839Y-11754172D01*
X7647839Y-12008172D02*
X7647839Y-11952494D01*
X7592161Y-11952494D01*
X7592161Y-12008172D01*
X7647839Y-12008172D01*
X7647839Y-12262172D02*
X7647839Y-12206494D01*
X7592161Y-12206494D01*
X7592161Y-12262172D01*
X7647839Y-12262172D01*
X7647839Y-12516172D02*
X7647839Y-12460494D01*
X7592161Y-12460494D01*
X7592161Y-12516172D01*
X7647839Y-12516172D01*
X7647839Y-12770172D02*
X7647839Y-12714494D01*
X7592161Y-12714494D01*
X7592161Y-12770172D01*
X7647839Y-12770172D01*
X7647839Y-13024172D02*
X7647839Y-12968494D01*
X7592161Y-12968494D01*
X7592161Y-13024172D01*
X7647839Y-13024172D01*
X20093839Y-10378339D02*
X20093839Y-10322661D01*
X20038161Y-10322661D01*
X20038161Y-10378339D01*
X20093839Y-10378339D01*
X20093839Y-11140339D02*
X20093839Y-11084661D01*
X20038161Y-11084661D01*
X20038161Y-11140339D01*
X20093839Y-11140339D01*
X20347839Y-10378339D02*
X20347839Y-10322661D01*
X20292161Y-10322661D01*
X20292161Y-10378339D01*
X20347839Y-10378339D01*
X20347839Y-11140339D02*
X20347839Y-11084661D01*
X20292161Y-11084661D01*
X20292161Y-11140339D01*
X20347839Y-11140339D01*
X20601839Y-10378339D02*
X20601839Y-10322661D01*
X20546161Y-10322661D01*
X20546161Y-10378339D01*
X20601839Y-10378339D01*
X20601839Y-11140339D02*
X20601839Y-11084661D01*
X20546161Y-11084661D01*
X20546161Y-11140339D01*
X20601839Y-11140339D01*
X20855839Y-10378339D02*
X20855839Y-10322661D01*
X20800161Y-10322661D01*
X20800161Y-10378339D01*
X20855839Y-10378339D01*
X20855839Y-11140339D02*
X20855839Y-11084661D01*
X20800161Y-11084661D01*
X20800161Y-11140339D01*
X20855839Y-11140339D01*
X21109839Y-10378339D02*
X21109839Y-10322661D01*
X21054161Y-10322661D01*
X21054161Y-10378339D01*
X21109839Y-10378339D01*
X21109839Y-11140339D02*
X21109839Y-11084661D01*
X21054161Y-11084661D01*
X21054161Y-11140339D01*
X21109839Y-11140339D01*
X21363839Y-10378339D02*
X21363839Y-10322661D01*
X21308161Y-10322661D01*
X21308161Y-10378339D01*
X21363839Y-10378339D01*
X21363839Y-11140339D02*
X21363839Y-11084661D01*
X21308161Y-11084661D01*
X21308161Y-11140339D01*
X21363839Y-11140339D01*
X21617839Y-10378339D02*
X21617839Y-10322661D01*
X21562161Y-10322661D01*
X21562161Y-10378339D01*
X21617839Y-10378339D01*
X21617839Y-11140339D02*
X21617839Y-11084661D01*
X21562161Y-11084661D01*
X21562161Y-11140339D01*
X21617839Y-11140339D01*
X21871839Y-10378339D02*
X21871839Y-10322661D01*
X21816161Y-10322661D01*
X21816161Y-10378339D01*
X21871839Y-10378339D01*
X21871839Y-11140339D02*
X21871839Y-11084661D01*
X21816161Y-11084661D01*
X21816161Y-11140339D01*
X21871839Y-11140339D01*
X11711839Y-2186839D02*
X11711839Y-2131161D01*
X11656161Y-2131161D01*
X11656161Y-2186839D01*
X11711839Y-2186839D01*
X11711839Y-2440839D02*
X11711839Y-2385161D01*
X11656161Y-2385161D01*
X11656161Y-2440839D01*
X11711839Y-2440839D01*
X11711839Y-2694839D02*
X11711839Y-2639161D01*
X11656161Y-2639161D01*
X11656161Y-2694839D01*
X11711839Y-2694839D01*
X11711839Y-2948839D02*
X11711839Y-2893161D01*
X11656161Y-2893161D01*
X11656161Y-2948839D01*
X11711839Y-2948839D01*
X11711839Y-3202839D02*
X11711839Y-3147161D01*
X11656161Y-3147161D01*
X11656161Y-3202839D01*
X11711839Y-3202839D01*
X11711839Y-3456839D02*
X11711839Y-3401161D01*
X11656161Y-3401161D01*
X11656161Y-3456839D01*
X11711839Y-3456839D01*
X11711839Y-3710839D02*
X11711839Y-3655161D01*
X11656161Y-3655161D01*
X11656161Y-3710839D01*
X11711839Y-3710839D01*
X11711839Y-3964839D02*
X11711839Y-3909161D01*
X11656161Y-3909161D01*
X11656161Y-3964839D01*
X11711839Y-3964839D01*
X12473839Y-2186839D02*
X12473839Y-2131161D01*
X12418161Y-2131161D01*
X12418161Y-2186839D01*
X12473839Y-2186839D01*
X12473839Y-2440839D02*
X12473839Y-2385161D01*
X12418161Y-2385161D01*
X12418161Y-2440839D01*
X12473839Y-2440839D01*
X12473839Y-2694839D02*
X12473839Y-2639161D01*
X12418161Y-2639161D01*
X12418161Y-2694839D01*
X12473839Y-2694839D01*
X12473839Y-2948839D02*
X12473839Y-2893161D01*
X12418161Y-2893161D01*
X12418161Y-2948839D01*
X12473839Y-2948839D01*
X12473839Y-3202839D02*
X12473839Y-3147161D01*
X12418161Y-3147161D01*
X12418161Y-3202839D01*
X12473839Y-3202839D01*
X12473839Y-3456839D02*
X12473839Y-3401161D01*
X12418161Y-3401161D01*
X12418161Y-3456839D01*
X12473839Y-3456839D01*
X12473839Y-3710839D02*
X12473839Y-3655161D01*
X12418161Y-3655161D01*
X12418161Y-3710839D01*
X12473839Y-3710839D01*
X12473839Y-3964839D02*
X12473839Y-3909161D01*
X12418161Y-3909161D01*
X12418161Y-3964839D01*
X12473839Y-3964839D01*
X6096000Y-16042000D02*
X6136000Y-16002000D01*
X6096000Y-15962000D01*
X6056000Y-16002000D01*
X6096000Y-16042000D01*
X6096000Y-16804000D02*
X6136000Y-16764000D01*
X6096000Y-16724000D01*
X6056000Y-16764000D01*
X6096000Y-16804000D01*
X10160000Y-17947000D02*
X10200000Y-17907000D01*
X10160000Y-17867000D01*
X10120000Y-17907000D01*
X10160000Y-17947000D01*
X10922000Y-17947000D02*
X10962000Y-17907000D01*
X10922000Y-17867000D01*
X10882000Y-17907000D01*
X10922000Y-17947000D01*
X10414000Y-16423000D02*
X10454000Y-16383000D01*
X10414000Y-16343000D01*
X10374000Y-16383000D01*
X10414000Y-16423000D01*
X11176000Y-16423000D02*
X11216000Y-16383000D01*
X11176000Y-16343000D01*
X11136000Y-16383000D01*
X11176000Y-16423000D01*
X21336000Y-7152000D02*
X21376000Y-7112000D01*
X21336000Y-7072000D01*
X21296000Y-7112000D01*
X21336000Y-7152000D01*
X21336000Y-7914000D02*
X21376000Y-7874000D01*
X21336000Y-7834000D01*
X21296000Y-7874000D01*
X21336000Y-7914000D01*
X13716000Y-7152000D02*
X13756000Y-7112000D01*
X13716000Y-7072000D01*
X13676000Y-7112000D01*
X13716000Y-7152000D01*
X13716000Y-7914000D02*
X13756000Y-7874000D01*
X13716000Y-7834000D01*
X13676000Y-7874000D01*
X13716000Y-7914000D01*
X22860000Y-17058000D02*
X22900000Y-17018000D01*
X22860000Y-16978000D01*
X22820000Y-17018000D01*
X22860000Y-17058000D01*
X23622000Y-17058000D02*
X23662000Y-17018000D01*
X23622000Y-16978000D01*
X23582000Y-17018000D01*
X23622000Y-17058000D01*
X22796500Y-1818000D02*
X22836500Y-1778000D01*
X22796500Y-1738000D01*
X22756500Y-1778000D01*
X22796500Y-1818000D01*
X23558500Y-1818000D02*
X23598500Y-1778000D01*
X23558500Y-1738000D01*
X23518500Y-1778000D01*
X23558500Y-1818000D01*
X16256000Y-4612000D02*
X16296000Y-4572000D01*
X16256000Y-4532000D01*
X16216000Y-4572000D01*
X16256000Y-4612000D01*
X16256000Y-5374000D02*
X16296000Y-5334000D01*
X16256000Y-5294000D01*
X16216000Y-5334000D01*
X16256000Y-5374000D01*
X8255000Y-14137000D02*
X8295000Y-14097000D01*
X8255000Y-14057000D01*
X8215000Y-14097000D01*
X8255000Y-14137000D01*
X9017000Y-14137000D02*
X9057000Y-14097000D01*
X9017000Y-14057000D01*
X8977000Y-14097000D01*
X9017000Y-14137000D01*
X18796000Y-17312000D02*
X18836000Y-17272000D01*
X18796000Y-17232000D01*
X18756000Y-17272000D01*
X18796000Y-17312000D01*
X18796000Y-18074000D02*
X18836000Y-18034000D01*
X18796000Y-17994000D01*
X18756000Y-18034000D01*
X18796000Y-18074000D01*
X22860000Y-14518000D02*
X22900000Y-14478000D01*
X22860000Y-14438000D01*
X22820000Y-14478000D01*
X22860000Y-14518000D01*
X23622000Y-14518000D02*
X23662000Y-14478000D01*
X23622000Y-14438000D01*
X23582000Y-14478000D01*
X23622000Y-14518000D01*
X11176000Y-7152000D02*
X11216000Y-7112000D01*
X11176000Y-7072000D01*
X11136000Y-7112000D01*
X11176000Y-7152000D01*
X11176000Y-7914000D02*
X11216000Y-7874000D01*
X11176000Y-7834000D01*
X11136000Y-7874000D01*
X11176000Y-7914000D01*
X16256000Y-7152000D02*
X16296000Y-7112000D01*
X16256000Y-7072000D01*
X16216000Y-7112000D01*
X16256000Y-7152000D01*
X16256000Y-7914000D02*
X16296000Y-7874000D01*
X16256000Y-7834000D01*
X16216000Y-7874000D01*
X16256000Y-7914000D01*
X12954000Y-12359000D02*
X12994000Y-12319000D01*
X12954000Y-12279000D01*
X12914000Y-12319000D01*
X12954000Y-12359000D01*
X13716000Y-12359000D02*
X13756000Y-12319000D01*
X13716000Y-12279000D01*
X13676000Y-12319000D01*
X13716000Y-12359000D01*
X11176000Y-4612000D02*
X11216000Y-4572000D01*
X11176000Y-4532000D01*
X11136000Y-4572000D01*
X11176000Y-4612000D01*
X11176000Y-5374000D02*
X11216000Y-5334000D01*
X11176000Y-5294000D01*
X11136000Y-5334000D01*
X11176000Y-5374000D01*
X21336000Y-17312000D02*
X21376000Y-17272000D01*
X21336000Y-17232000D01*
X21296000Y-17272000D01*
X21336000Y-17312000D01*
X21336000Y-18074000D02*
X21376000Y-18034000D01*
X21336000Y-17994000D01*
X21296000Y-18034000D01*
X21336000Y-18074000D01*
X8255000Y-11597000D02*
X8295000Y-11557000D01*
X8255000Y-11517000D01*
X8215000Y-11557000D01*
X8255000Y-11597000D01*
X9017000Y-11597000D02*
X9057000Y-11557000D01*
X9017000Y-11517000D01*
X8977000Y-11557000D01*
X9017000Y-11597000D01*
X21336000Y-14772000D02*
X21376000Y-14732000D01*
X21336000Y-14692000D01*
X21296000Y-14732000D01*
X21336000Y-14772000D01*
X21336000Y-15534000D02*
X21376000Y-15494000D01*
X21336000Y-15454000D01*
X21296000Y-15494000D01*
X21336000Y-15534000D01*
X18796000Y-14772000D02*
X18836000Y-14732000D01*
X18796000Y-14692000D01*
X18756000Y-14732000D01*
X18796000Y-14772000D01*
X18796000Y-15534000D02*
X18836000Y-15494000D01*
X18796000Y-15454000D01*
X18756000Y-15494000D01*
X18796000Y-15534000D01*
X22860000Y-9438000D02*
X22900000Y-9398000D01*
X22860000Y-9358000D01*
X22820000Y-9398000D01*
X22860000Y-9438000D01*
X23622000Y-9438000D02*
X23662000Y-9398000D01*
X23622000Y-9358000D01*
X23582000Y-9398000D01*
X23622000Y-9438000D01*
X21336000Y-8422000D02*
X21376000Y-8382000D01*
X21336000Y-8342000D01*
X21296000Y-8382000D01*
X21336000Y-8422000D01*
X21336000Y-9184000D02*
X21376000Y-9144000D01*
X21336000Y-9104000D01*
X21296000Y-9144000D01*
X21336000Y-9184000D01*
X16637000Y-1818000D02*
X16677000Y-1778000D01*
X16637000Y-1738000D01*
X16597000Y-1778000D01*
X16637000Y-1818000D01*
X17399000Y-1818000D02*
X17439000Y-1778000D01*
X17399000Y-1738000D01*
X17359000Y-1778000D01*
X17399000Y-1818000D01*
X6096000Y-2072000D02*
X6136000Y-2032000D01*
X6096000Y-1992000D01*
X6056000Y-2032000D01*
X6096000Y-2072000D01*
X6096000Y-2834000D02*
X6136000Y-2794000D01*
X6096000Y-2754000D01*
X6056000Y-2794000D01*
X6096000Y-2834000D01*
X21336000Y-4612000D02*
X21376000Y-4572000D01*
X21336000Y-4532000D01*
X21296000Y-4572000D01*
X21336000Y-4612000D01*
X21336000Y-5374000D02*
X21376000Y-5334000D01*
X21336000Y-5294000D01*
X21296000Y-5334000D01*
X21336000Y-5374000D01*
X8636000Y-4612000D02*
X8676000Y-4572000D01*
X8636000Y-4532000D01*
X8596000Y-4572000D01*
X8636000Y-4612000D01*
X8636000Y-5374000D02*
X8676000Y-5334000D01*
X8636000Y-5294000D01*
X8596000Y-5334000D01*
X8636000Y-5374000D01*
X16256000Y-14772000D02*
X16296000Y-14732000D01*
X16256000Y-14692000D01*
X16216000Y-14732000D01*
X16256000Y-14772000D01*
X16256000Y-15534000D02*
X16296000Y-15494000D01*
X16256000Y-15454000D01*
X16216000Y-15494000D01*
X16256000Y-15534000D01*
X16827500Y-18709000D02*
X16867500Y-18669000D01*
X16827500Y-18629000D01*
X16787500Y-18669000D01*
X16827500Y-18709000D01*
X16827500Y-19471000D02*
X16867500Y-19431000D01*
X16827500Y-19391000D01*
X16787500Y-19431000D01*
X16827500Y-19471000D01*
X6096000Y-13502000D02*
X6136000Y-13462000D01*
X6096000Y-13422000D01*
X6056000Y-13462000D01*
X6096000Y-13502000D01*
X6096000Y-14264000D02*
X6136000Y-14224000D01*
X6096000Y-14184000D01*
X6056000Y-14224000D01*
X6096000Y-14264000D01*
X18796000Y-12232000D02*
X18836000Y-12192000D01*
X18796000Y-12152000D01*
X18756000Y-12192000D01*
X18796000Y-12232000D01*
X18796000Y-12994000D02*
X18836000Y-12954000D01*
X18796000Y-12914000D01*
X18756000Y-12954000D01*
X18796000Y-12994000D01*
X22860000Y-6898000D02*
X22900000Y-6858000D01*
X22860000Y-6818000D01*
X22820000Y-6858000D01*
X22860000Y-6898000D01*
X23622000Y-6898000D02*
X23662000Y-6858000D01*
X23622000Y-6818000D01*
X23582000Y-6858000D01*
X23622000Y-6898000D01*
X11176000Y-9692000D02*
X11216000Y-9652000D01*
X11176000Y-9612000D01*
X11136000Y-9652000D01*
X11176000Y-9692000D01*
X11176000Y-10454000D02*
X11216000Y-10414000D01*
X11176000Y-10374000D01*
X11136000Y-10414000D01*
X11176000Y-10454000D01*
X18796000Y-2072000D02*
X18836000Y-2032000D01*
X18796000Y-1992000D01*
X18756000Y-2032000D01*
X18796000Y-2072000D01*
X18796000Y-2834000D02*
X18836000Y-2794000D01*
X18796000Y-2754000D01*
X18756000Y-2794000D01*
X18796000Y-2834000D01*
X8636000Y-5882000D02*
X8676000Y-5842000D01*
X8636000Y-5802000D01*
X8596000Y-5842000D01*
X8636000Y-5882000D01*
X8636000Y-6644000D02*
X8676000Y-6604000D01*
X8636000Y-6564000D01*
X8596000Y-6604000D01*
X8636000Y-6644000D01*
X6096000Y-4612000D02*
X6136000Y-4572000D01*
X6096000Y-4532000D01*
X6056000Y-4572000D01*
X6096000Y-4612000D01*
X6096000Y-5374000D02*
X6136000Y-5334000D01*
X6096000Y-5294000D01*
X6056000Y-5334000D01*
X6096000Y-5374000D01*
X22860000Y-19598000D02*
X22900000Y-19558000D01*
X22860000Y-19518000D01*
X22820000Y-19558000D01*
X22860000Y-19598000D01*
X23622000Y-19598000D02*
X23662000Y-19558000D01*
X23622000Y-19518000D01*
X23582000Y-19558000D01*
X23622000Y-19598000D01*
X22860000Y-11978000D02*
X22900000Y-11938000D01*
X22860000Y-11898000D01*
X22820000Y-11938000D01*
X22860000Y-11978000D01*
X23622000Y-11978000D02*
X23662000Y-11938000D01*
X23622000Y-11898000D01*
X23582000Y-11938000D01*
X23622000Y-11978000D01*
X8001000Y-17947000D02*
X8041000Y-17907000D01*
X8001000Y-17867000D01*
X7961000Y-17907000D01*
X8001000Y-17947000D01*
X8763000Y-17947000D02*
X8803000Y-17907000D01*
X8763000Y-17867000D01*
X8723000Y-17907000D01*
X8763000Y-17947000D01*
X13335000Y-14200500D02*
X13375000Y-14160500D01*
X13335000Y-14120500D01*
X13295000Y-14160500D01*
X13335000Y-14200500D01*
X14097000Y-14200500D02*
X14137000Y-14160500D01*
X14097000Y-14120500D01*
X14057000Y-14160500D01*
X14097000Y-14200500D01*
X16256000Y-12232000D02*
X16296000Y-12192000D01*
X16256000Y-12152000D01*
X16216000Y-12192000D01*
X16256000Y-12232000D01*
X16256000Y-12994000D02*
X16296000Y-12954000D01*
X16256000Y-12914000D01*
X16216000Y-12954000D01*
X16256000Y-12994000D01*
X18796000Y-7152000D02*
X18836000Y-7112000D01*
X18796000Y-7072000D01*
X18756000Y-7112000D01*
X18796000Y-7152000D01*
X18796000Y-7914000D02*
X18836000Y-7874000D01*
X18796000Y-7834000D01*
X18756000Y-7874000D01*
X18796000Y-7914000D01*
X18796000Y-8422000D02*
X18836000Y-8382000D01*
X18796000Y-8342000D01*
X18756000Y-8382000D01*
X18796000Y-8422000D01*
X18796000Y-9184000D02*
X18836000Y-9144000D01*
X18796000Y-9104000D01*
X18756000Y-9144000D01*
X18796000Y-9184000D01*
X12573000Y-1691000D02*
X12613000Y-1651000D01*
X12573000Y-1611000D01*
X12533000Y-1651000D01*
X12573000Y-1691000D01*
X13335000Y-1691000D02*
X13375000Y-1651000D01*
X13335000Y-1611000D01*
X13295000Y-1651000D01*
X13335000Y-1691000D01*
X6096000Y-7152000D02*
X6136000Y-7112000D01*
X6096000Y-7072000D01*
X6056000Y-7112000D01*
X6096000Y-7152000D01*
X6096000Y-7914000D02*
X6136000Y-7874000D01*
X6096000Y-7834000D01*
X6056000Y-7874000D01*
X6096000Y-7914000D01*
X6096000Y-18582000D02*
X6136000Y-18542000D01*
X6096000Y-18502000D01*
X6056000Y-18542000D01*
X6096000Y-18582000D01*
X6096000Y-19344000D02*
X6136000Y-19304000D01*
X6096000Y-19264000D01*
X6056000Y-19304000D01*
X6096000Y-19344000D01*
X10795000Y-11597000D02*
X10835000Y-11557000D01*
X10795000Y-11517000D01*
X10755000Y-11557000D01*
X10795000Y-11597000D01*
X11557000Y-11597000D02*
X11597000Y-11557000D01*
X11557000Y-11517000D01*
X11517000Y-11557000D01*
X11557000Y-11597000D01*
X16256000Y-17312000D02*
X16296000Y-17272000D01*
X16256000Y-17232000D01*
X16216000Y-17272000D01*
X16256000Y-17312000D01*
X16256000Y-18074000D02*
X16296000Y-18034000D01*
X16256000Y-17994000D01*
X16216000Y-18034000D01*
X16256000Y-18074000D01*
X10795000Y-14200500D02*
X10835000Y-14160500D01*
X10795000Y-14120500D01*
X10755000Y-14160500D01*
X10795000Y-14200500D01*
X11557000Y-14200500D02*
X11597000Y-14160500D01*
X11557000Y-14120500D01*
X11517000Y-14160500D01*
X11557000Y-14200500D01*
X6096000Y-9692000D02*
X6136000Y-9652000D01*
X6096000Y-9612000D01*
X6056000Y-9652000D01*
X6096000Y-9692000D01*
X6096000Y-10454000D02*
X6136000Y-10414000D01*
X6096000Y-10374000D01*
X6056000Y-10414000D01*
X6096000Y-10454000D01*
X17780000Y-19598000D02*
X17820000Y-19558000D01*
X17780000Y-19518000D01*
X17740000Y-19558000D01*
X17780000Y-19598000D01*
X18542000Y-19598000D02*
X18582000Y-19558000D01*
X18542000Y-19518000D01*
X18502000Y-19558000D01*
X18542000Y-19598000D01*
X21336000Y-12232000D02*
X21376000Y-12192000D01*
X21336000Y-12152000D01*
X21296000Y-12192000D01*
X21336000Y-12232000D01*
X21336000Y-12994000D02*
X21376000Y-12954000D01*
X21336000Y-12914000D01*
X21296000Y-12954000D01*
X21336000Y-12994000D01*
X11493500Y-1818000D02*
X11533500Y-1778000D01*
X11493500Y-1738000D01*
X11453500Y-1778000D01*
X11493500Y-1818000D01*
X12255500Y-1818000D02*
X12295500Y-1778000D01*
X12255500Y-1738000D01*
X12215500Y-1778000D01*
X12255500Y-1818000D01*
X22860000Y-4358000D02*
X22900000Y-4318000D01*
X22860000Y-4278000D01*
X22820000Y-4318000D01*
X22860000Y-4358000D01*
X23622000Y-4358000D02*
X23662000Y-4318000D01*
X23622000Y-4278000D01*
X23582000Y-4318000D01*
X23622000Y-4358000D01*
X18796000Y-4739000D02*
X18836000Y-4699000D01*
X18796000Y-4659000D01*
X18756000Y-4699000D01*
X18796000Y-4739000D01*
X18796000Y-5501000D02*
X18836000Y-5461000D01*
X18796000Y-5421000D01*
X18756000Y-5461000D01*
X18796000Y-5501000D01*
X20320000Y-19598000D02*
X20360000Y-19558000D01*
X20320000Y-19518000D01*
X20280000Y-19558000D01*
X20320000Y-19598000D01*
X21082000Y-19598000D02*
X21122000Y-19558000D01*
X21082000Y-19518000D01*
X21042000Y-19558000D01*
X21082000Y-19598000D01*
X12890500Y-18201000D02*
X12930500Y-18161000D01*
X12890500Y-18121000D01*
X12850500Y-18161000D01*
X12890500Y-18201000D01*
X13652500Y-18201000D02*
X13692500Y-18161000D01*
X13652500Y-18121000D01*
X13612500Y-18161000D01*
X13652500Y-18201000D01*
X13716000Y-8422000D02*
X13756000Y-8382000D01*
X13716000Y-8342000D01*
X13676000Y-8382000D01*
X13716000Y-8422000D01*
X13716000Y-9184000D02*
X13756000Y-9144000D01*
X13716000Y-9104000D01*
X13676000Y-9144000D01*
X13716000Y-9184000D01*
X12636500Y-17058000D02*
X12676500Y-17018000D01*
X12636500Y-16978000D01*
X12596500Y-17018000D01*
X12636500Y-17058000D01*
X13398500Y-17058000D02*
X13438500Y-17018000D01*
X13398500Y-16978000D01*
X13358500Y-17018000D01*
X13398500Y-17058000D01*
X16256000Y-8422000D02*
X16296000Y-8382000D01*
X16256000Y-8342000D01*
X16216000Y-8382000D01*
X16256000Y-8422000D01*
X16256000Y-9184000D02*
X16296000Y-9144000D01*
X16256000Y-9104000D01*
X16216000Y-9144000D01*
X16256000Y-9184000D01*
X8255000Y-9057000D02*
X8295000Y-9017000D01*
X8255000Y-8977000D01*
X8215000Y-9017000D01*
X8255000Y-9057000D01*
X9017000Y-9057000D02*
X9057000Y-9017000D01*
X9017000Y-8977000D01*
X8977000Y-9017000D01*
X9017000Y-9057000D01*
X8255000Y-16296000D02*
X8295000Y-16256000D01*
X8255000Y-16216000D01*
X8215000Y-16256000D01*
X8255000Y-16296000D01*
X9017000Y-16296000D02*
X9057000Y-16256000D01*
X9017000Y-16216000D01*
X8977000Y-16256000D01*
X9017000Y-16296000D01*
X6096000Y-10962000D02*
X6136000Y-10922000D01*
X6096000Y-10882000D01*
X6056000Y-10922000D01*
X6096000Y-10962000D01*
X6096000Y-11724000D02*
X6136000Y-11684000D01*
X6096000Y-11644000D01*
X6056000Y-11684000D01*
X6096000Y-11724000D01*
X8636000Y-2072000D02*
X8676000Y-2032000D01*
X8636000Y-1992000D01*
X8596000Y-2032000D01*
X8636000Y-2072000D01*
X8636000Y-2834000D02*
X8676000Y-2794000D01*
X8636000Y-2754000D01*
X8596000Y-2794000D01*
X8636000Y-2834000D01*
X13716000Y-4612000D02*
X13756000Y-4572000D01*
X13716000Y-4532000D01*
X13676000Y-4572000D01*
X13716000Y-4612000D01*
X13716000Y-5374000D02*
X13756000Y-5334000D01*
X13716000Y-5294000D01*
X13676000Y-5334000D01*
X13716000Y-5374000D01*
X21336000Y-2072000D02*
X21376000Y-2032000D01*
X21336000Y-1992000D01*
X21296000Y-2032000D01*
X21336000Y-2072000D01*
X21336000Y-2834000D02*
X21376000Y-2794000D01*
X21336000Y-2754000D01*
X21296000Y-2794000D01*
X21336000Y-2834000D01*
X23958550Y-18688050D02*
X24047450Y-18776950D01*
X24047450Y-18688050D02*
X23958550Y-18776950D01*
X24047450Y-18732500D02*
G75*
G03*
X24047450Y-18732500I-44450J0D01*
G01*
X23958550Y-18942050D02*
X24047450Y-19030950D01*
X24047450Y-18942050D02*
X23958550Y-19030950D01*
X24047450Y-18986500D02*
G75*
G03*
X24047450Y-18986500I-44450J0D01*
G01*
X23958550Y-19196050D02*
X24047450Y-19284950D01*
X24047450Y-19196050D02*
X23958550Y-19284950D01*
X24047450Y-19240500D02*
G75*
G03*
X24047450Y-19240500I-44450J0D01*
G01*
X24270500Y-6808000D02*
X24370500Y-6908000D01*
X24370500Y-6808000D02*
X24270500Y-6908000D01*
X24320500Y-6808000D02*
X24320500Y-6908000D01*
X24270500Y-6858000D02*
X24370500Y-6858000D01*
X15912000Y-3178500D02*
X16012000Y-3278500D01*
X16012000Y-3178500D02*
X15912000Y-3278500D01*
X15962000Y-3178500D02*
X15962000Y-3278500D01*
X15912000Y-3228500D02*
X16012000Y-3228500D01*
X13983500Y-16269500D02*
X14083500Y-16369500D01*
X14083500Y-16269500D02*
X13983500Y-16369500D01*
X14033500Y-16269500D02*
X14033500Y-16369500D01*
X13983500Y-16319500D02*
X14083500Y-16319500D01*
X16440500Y-3178500D02*
X16540500Y-3278500D01*
X16540500Y-3178500D02*
X16440500Y-3278500D01*
X16490500Y-3178500D02*
X16490500Y-3278500D01*
X16440500Y-3228500D02*
X16540500Y-3228500D01*
X13475500Y-16269500D02*
X13575500Y-16369500D01*
X13575500Y-16269500D02*
X13475500Y-16369500D01*
X13525500Y-16269500D02*
X13525500Y-16369500D01*
X13475500Y-16319500D02*
X13575500Y-16319500D01*
X24270500Y-14428000D02*
X24370500Y-14528000D01*
X24370500Y-14428000D02*
X24270500Y-14528000D01*
X24320500Y-14428000D02*
X24320500Y-14528000D01*
X24270500Y-14478000D02*
X24370500Y-14478000D01*
X15507500Y-16269500D02*
X15607500Y-16369500D01*
X15607500Y-16269500D02*
X15507500Y-16369500D01*
X15557500Y-16269500D02*
X15557500Y-16369500D01*
X15507500Y-16319500D02*
X15607500Y-16319500D01*
X13348500Y-3188500D02*
X13448500Y-3288500D01*
X13448500Y-3188500D02*
X13348500Y-3288500D01*
X13398500Y-3188500D02*
X13398500Y-3288500D01*
X13348500Y-3238500D02*
X13448500Y-3238500D01*
X16523500Y-16269500D02*
X16623500Y-16369500D01*
X16623500Y-16269500D02*
X16523500Y-16369500D01*
X16573500Y-16269500D02*
X16573500Y-16369500D01*
X16523500Y-16319500D02*
X16623500Y-16319500D01*
X24270500Y-16968000D02*
X24370500Y-17068000D01*
X24370500Y-16968000D02*
X24270500Y-17068000D01*
X24320500Y-16968000D02*
X24320500Y-17068000D01*
X24270500Y-17018000D02*
X24370500Y-17018000D01*
X24270500Y-4268000D02*
X24370500Y-4368000D01*
X24370500Y-4268000D02*
X24270500Y-4368000D01*
X24320500Y-4268000D02*
X24320500Y-4368000D01*
X24270500Y-4318000D02*
X24370500Y-4318000D01*
X21794000Y-11570500D02*
X21894000Y-11670500D01*
X21894000Y-11570500D02*
X21794000Y-11670500D01*
X21844000Y-11570500D02*
X21844000Y-11670500D01*
X21794000Y-11620500D02*
X21894000Y-11620500D01*
X13856500Y-3188500D02*
X13956500Y-3288500D01*
X13956500Y-3188500D02*
X13856500Y-3288500D01*
X13906500Y-3188500D02*
X13906500Y-3288500D01*
X13856500Y-3238500D02*
X13956500Y-3238500D01*
X24270500Y-9348000D02*
X24370500Y-9448000D01*
X24370500Y-9348000D02*
X24270500Y-9448000D01*
X24320500Y-9348000D02*
X24320500Y-9448000D01*
X24270500Y-9398000D02*
X24370500Y-9398000D01*
X14999500Y-16269500D02*
X15099500Y-16369500D01*
X15099500Y-16269500D02*
X14999500Y-16369500D01*
X15049500Y-16269500D02*
X15049500Y-16369500D01*
X14999500Y-16319500D02*
X15099500Y-16319500D01*
X24270500Y-19508000D02*
X24370500Y-19608000D01*
X24370500Y-19508000D02*
X24270500Y-19608000D01*
X24320500Y-19508000D02*
X24320500Y-19608000D01*
X24270500Y-19558000D02*
X24370500Y-19558000D01*
X14364500Y-3188500D02*
X14464500Y-3288500D01*
X14464500Y-3188500D02*
X14364500Y-3288500D01*
X14414500Y-3188500D02*
X14414500Y-3288500D01*
X14364500Y-3238500D02*
X14464500Y-3238500D01*
X24270500Y-1728000D02*
X24370500Y-1828000D01*
X24370500Y-1728000D02*
X24270500Y-1828000D01*
X24320500Y-1728000D02*
X24320500Y-1828000D01*
X24270500Y-1778000D02*
X24370500Y-1778000D01*
X15380500Y-3188500D02*
X15480500Y-3288500D01*
X15480500Y-3188500D02*
X15380500Y-3288500D01*
X15430500Y-3188500D02*
X15430500Y-3288500D01*
X15380500Y-3238500D02*
X15480500Y-3238500D01*
X16015500Y-16269500D02*
X16115500Y-16369500D01*
X16115500Y-16269500D02*
X16015500Y-16369500D01*
X16065500Y-16269500D02*
X16065500Y-16369500D01*
X16015500Y-16319500D02*
X16115500Y-16319500D01*
X24270500Y-11888000D02*
X24370500Y-11988000D01*
X24370500Y-11888000D02*
X24270500Y-11988000D01*
X24320500Y-11888000D02*
X24320500Y-11988000D01*
X24270500Y-11938000D02*
X24370500Y-11938000D01*
X14491500Y-16269500D02*
X14591500Y-16369500D01*
X14591500Y-16269500D02*
X14491500Y-16369500D01*
X14541500Y-16269500D02*
X14541500Y-16369500D01*
X14491500Y-16319500D02*
X14591500Y-16319500D01*
X14872500Y-3188500D02*
X14972500Y-3288500D01*
X14972500Y-3188500D02*
X14872500Y-3288500D01*
X14922500Y-3188500D02*
X14922500Y-3288500D01*
X14872500Y-3238500D02*
X14972500Y-3238500D01*
X14655800Y-6273800D02*
X14808200Y-6426200D01*
X14808200Y-6273800D02*
X14655800Y-6426200D01*
X14785882Y-6403882D02*
X14785882Y-6296118D01*
X14678118Y-6296118D01*
X14678118Y-6403882D01*
X14785882Y-6403882D01*
X15163800Y-6273800D02*
X15316200Y-6426200D01*
X15316200Y-6273800D02*
X15163800Y-6426200D01*
X15293882Y-6403882D02*
X15293882Y-6296118D01*
X15186118Y-6296118D01*
X15186118Y-6403882D01*
X15293882Y-6403882D01*
X23418800Y-10337800D02*
X23571200Y-10490200D01*
X23571200Y-10337800D02*
X23418800Y-10490200D01*
X23548882Y-10467882D02*
X23548882Y-10360118D01*
X23441118Y-10360118D01*
X23441118Y-10467882D01*
X23548882Y-10467882D01*
X23418800Y-10845800D02*
X23571200Y-10998200D01*
X23571200Y-10845800D02*
X23418800Y-10998200D01*
X23548882Y-10975882D02*
X23548882Y-10868118D01*
X23441118Y-10868118D01*
X23441118Y-10975882D01*
X23548882Y-10975882D01*
X6019800Y-1701800D02*
X6172200Y-1854200D01*
X6172200Y-1701800D02*
X6019800Y-1854200D01*
X6149882Y-1831882D02*
X6149882Y-1724118D01*
X6042118Y-1724118D01*
X6042118Y-1831882D01*
X6149882Y-1831882D01*
X6019800Y-4241800D02*
X6172200Y-4394200D01*
X6172200Y-4241800D02*
X6019800Y-4394200D01*
X6149882Y-4371882D02*
X6149882Y-4264118D01*
X6042118Y-4264118D01*
X6042118Y-4371882D01*
X6149882Y-4371882D01*
X6019800Y-6781800D02*
X6172200Y-6934200D01*
X6172200Y-6781800D02*
X6019800Y-6934200D01*
X6149882Y-6911882D02*
X6149882Y-6804118D01*
X6042118Y-6804118D01*
X6042118Y-6911882D01*
X6149882Y-6911882D01*
X6019800Y-9321800D02*
X6172200Y-9474200D01*
X6172200Y-9321800D02*
X6019800Y-9474200D01*
X6149882Y-9451882D02*
X6149882Y-9344118D01*
X6042118Y-9344118D01*
X6042118Y-9451882D01*
X6149882Y-9451882D01*
X6019800Y-11861800D02*
X6172200Y-12014200D01*
X6172200Y-11861800D02*
X6019800Y-12014200D01*
X6149882Y-11991882D02*
X6149882Y-11884118D01*
X6042118Y-11884118D01*
X6042118Y-11991882D01*
X6149882Y-11991882D01*
X6019800Y-14401800D02*
X6172200Y-14554200D01*
X6172200Y-14401800D02*
X6019800Y-14554200D01*
X6149882Y-14531882D02*
X6149882Y-14424118D01*
X6042118Y-14424118D01*
X6042118Y-14531882D01*
X6149882Y-14531882D01*
X6019800Y-16941800D02*
X6172200Y-17094200D01*
X6172200Y-16941800D02*
X6019800Y-17094200D01*
X6149882Y-17071882D02*
X6149882Y-16964118D01*
X6042118Y-16964118D01*
X6042118Y-17071882D01*
X6149882Y-17071882D01*
X6019800Y-19481800D02*
X6172200Y-19634200D01*
X6172200Y-19481800D02*
X6019800Y-19634200D01*
X6149882Y-19611882D02*
X6149882Y-19504118D01*
X6042118Y-19504118D01*
X6042118Y-19611882D01*
X6149882Y-19611882D01*
X8559800Y-1701800D02*
X8712200Y-1854200D01*
X8712200Y-1701800D02*
X8559800Y-1854200D01*
X8689882Y-1831882D02*
X8689882Y-1724118D01*
X8582118Y-1724118D01*
X8582118Y-1831882D01*
X8689882Y-1831882D01*
X8559800Y-4241800D02*
X8712200Y-4394200D01*
X8712200Y-4241800D02*
X8559800Y-4394200D01*
X8689882Y-4371882D02*
X8689882Y-4264118D01*
X8582118Y-4264118D01*
X8582118Y-4371882D01*
X8689882Y-4371882D01*
X8559800Y-6781800D02*
X8712200Y-6934200D01*
X8712200Y-6781800D02*
X8559800Y-6934200D01*
X8689882Y-6911882D02*
X8689882Y-6804118D01*
X8582118Y-6804118D01*
X8582118Y-6911882D01*
X8689882Y-6911882D01*
X8559800Y-9321800D02*
X8712200Y-9474200D01*
X8712200Y-9321800D02*
X8559800Y-9474200D01*
X8689882Y-9451882D02*
X8689882Y-9344118D01*
X8582118Y-9344118D01*
X8582118Y-9451882D01*
X8689882Y-9451882D01*
X8559800Y-11861800D02*
X8712200Y-12014200D01*
X8712200Y-11861800D02*
X8559800Y-12014200D01*
X8689882Y-11991882D02*
X8689882Y-11884118D01*
X8582118Y-11884118D01*
X8582118Y-11991882D01*
X8689882Y-11991882D01*
X8559800Y-14401800D02*
X8712200Y-14554200D01*
X8712200Y-14401800D02*
X8559800Y-14554200D01*
X8689882Y-14531882D02*
X8689882Y-14424118D01*
X8582118Y-14424118D01*
X8582118Y-14531882D01*
X8689882Y-14531882D01*
X8559800Y-16941800D02*
X8712200Y-17094200D01*
X8712200Y-16941800D02*
X8559800Y-17094200D01*
X8689882Y-17071882D02*
X8689882Y-16964118D01*
X8582118Y-16964118D01*
X8582118Y-17071882D01*
X8689882Y-17071882D01*
X8559800Y-19481800D02*
X8712200Y-19634200D01*
X8712200Y-19481800D02*
X8559800Y-19634200D01*
X8689882Y-19611882D02*
X8689882Y-19504118D01*
X8582118Y-19504118D01*
X8582118Y-19611882D01*
X8689882Y-19611882D01*
X11099800Y-1701800D02*
X11252200Y-1854200D01*
X11252200Y-1701800D02*
X11099800Y-1854200D01*
X11229882Y-1831882D02*
X11229882Y-1724118D01*
X11122118Y-1724118D01*
X11122118Y-1831882D01*
X11229882Y-1831882D01*
X11099800Y-4241800D02*
X11252200Y-4394200D01*
X11252200Y-4241800D02*
X11099800Y-4394200D01*
X11229882Y-4371882D02*
X11229882Y-4264118D01*
X11122118Y-4264118D01*
X11122118Y-4371882D01*
X11229882Y-4371882D01*
X11099800Y-6781800D02*
X11252200Y-6934200D01*
X11252200Y-6781800D02*
X11099800Y-6934200D01*
X11229882Y-6911882D02*
X11229882Y-6804118D01*
X11122118Y-6804118D01*
X11122118Y-6911882D01*
X11229882Y-6911882D01*
X11099800Y-9321800D02*
X11252200Y-9474200D01*
X11252200Y-9321800D02*
X11099800Y-9474200D01*
X11229882Y-9451882D02*
X11229882Y-9344118D01*
X11122118Y-9344118D01*
X11122118Y-9451882D01*
X11229882Y-9451882D01*
X11099800Y-11861800D02*
X11252200Y-12014200D01*
X11252200Y-11861800D02*
X11099800Y-12014200D01*
X11229882Y-11991882D02*
X11229882Y-11884118D01*
X11122118Y-11884118D01*
X11122118Y-11991882D01*
X11229882Y-11991882D01*
X11099800Y-14401800D02*
X11252200Y-14554200D01*
X11252200Y-14401800D02*
X11099800Y-14554200D01*
X11229882Y-14531882D02*
X11229882Y-14424118D01*
X11122118Y-14424118D01*
X11122118Y-14531882D01*
X11229882Y-14531882D01*
X11099800Y-16941800D02*
X11252200Y-17094200D01*
X11252200Y-16941800D02*
X11099800Y-17094200D01*
X11229882Y-17071882D02*
X11229882Y-16964118D01*
X11122118Y-16964118D01*
X11122118Y-17071882D01*
X11229882Y-17071882D01*
X11099800Y-19481800D02*
X11252200Y-19634200D01*
X11252200Y-19481800D02*
X11099800Y-19634200D01*
X11229882Y-19611882D02*
X11229882Y-19504118D01*
X11122118Y-19504118D01*
X11122118Y-19611882D01*
X11229882Y-19611882D01*
X13639800Y-1701800D02*
X13792200Y-1854200D01*
X13792200Y-1701800D02*
X13639800Y-1854200D01*
X13769882Y-1831882D02*
X13769882Y-1724118D01*
X13662118Y-1724118D01*
X13662118Y-1831882D01*
X13769882Y-1831882D01*
X13639800Y-4241800D02*
X13792200Y-4394200D01*
X13792200Y-4241800D02*
X13639800Y-4394200D01*
X13769882Y-4371882D02*
X13769882Y-4264118D01*
X13662118Y-4264118D01*
X13662118Y-4371882D01*
X13769882Y-4371882D01*
X13639800Y-6781800D02*
X13792200Y-6934200D01*
X13792200Y-6781800D02*
X13639800Y-6934200D01*
X13769882Y-6911882D02*
X13769882Y-6804118D01*
X13662118Y-6804118D01*
X13662118Y-6911882D01*
X13769882Y-6911882D01*
X13639800Y-9321800D02*
X13792200Y-9474200D01*
X13792200Y-9321800D02*
X13639800Y-9474200D01*
X13769882Y-9451882D02*
X13769882Y-9344118D01*
X13662118Y-9344118D01*
X13662118Y-9451882D01*
X13769882Y-9451882D01*
X13639800Y-11861800D02*
X13792200Y-12014200D01*
X13792200Y-11861800D02*
X13639800Y-12014200D01*
X13769882Y-11991882D02*
X13769882Y-11884118D01*
X13662118Y-11884118D01*
X13662118Y-11991882D01*
X13769882Y-11991882D01*
X13639800Y-14401800D02*
X13792200Y-14554200D01*
X13792200Y-14401800D02*
X13639800Y-14554200D01*
X13769882Y-14531882D02*
X13769882Y-14424118D01*
X13662118Y-14424118D01*
X13662118Y-14531882D01*
X13769882Y-14531882D01*
X13639800Y-16941800D02*
X13792200Y-17094200D01*
X13792200Y-16941800D02*
X13639800Y-17094200D01*
X13769882Y-17071882D02*
X13769882Y-16964118D01*
X13662118Y-16964118D01*
X13662118Y-17071882D01*
X13769882Y-17071882D01*
X13639800Y-19481800D02*
X13792200Y-19634200D01*
X13792200Y-19481800D02*
X13639800Y-19634200D01*
X13769882Y-19611882D02*
X13769882Y-19504118D01*
X13662118Y-19504118D01*
X13662118Y-19611882D01*
X13769882Y-19611882D01*
X16179800Y-1701800D02*
X16332200Y-1854200D01*
X16332200Y-1701800D02*
X16179800Y-1854200D01*
X16309882Y-1831882D02*
X16309882Y-1724118D01*
X16202118Y-1724118D01*
X16202118Y-1831882D01*
X16309882Y-1831882D01*
X16179800Y-4241800D02*
X16332200Y-4394200D01*
X16332200Y-4241800D02*
X16179800Y-4394200D01*
X16309882Y-4371882D02*
X16309882Y-4264118D01*
X16202118Y-4264118D01*
X16202118Y-4371882D01*
X16309882Y-4371882D01*
X16179800Y-6781800D02*
X16332200Y-6934200D01*
X16332200Y-6781800D02*
X16179800Y-6934200D01*
X16309882Y-6911882D02*
X16309882Y-6804118D01*
X16202118Y-6804118D01*
X16202118Y-6911882D01*
X16309882Y-6911882D01*
X16179800Y-9321800D02*
X16332200Y-9474200D01*
X16332200Y-9321800D02*
X16179800Y-9474200D01*
X16309882Y-9451882D02*
X16309882Y-9344118D01*
X16202118Y-9344118D01*
X16202118Y-9451882D01*
X16309882Y-9451882D01*
X16179800Y-11861800D02*
X16332200Y-12014200D01*
X16332200Y-11861800D02*
X16179800Y-12014200D01*
X16309882Y-11991882D02*
X16309882Y-11884118D01*
X16202118Y-11884118D01*
X16202118Y-11991882D01*
X16309882Y-11991882D01*
X16179800Y-14401800D02*
X16332200Y-14554200D01*
X16332200Y-14401800D02*
X16179800Y-14554200D01*
X16309882Y-14531882D02*
X16309882Y-14424118D01*
X16202118Y-14424118D01*
X16202118Y-14531882D01*
X16309882Y-14531882D01*
X16179800Y-16941800D02*
X16332200Y-17094200D01*
X16332200Y-16941800D02*
X16179800Y-17094200D01*
X16309882Y-17071882D02*
X16309882Y-16964118D01*
X16202118Y-16964118D01*
X16202118Y-17071882D01*
X16309882Y-17071882D01*
X16179800Y-19481800D02*
X16332200Y-19634200D01*
X16332200Y-19481800D02*
X16179800Y-19634200D01*
X16309882Y-19611882D02*
X16309882Y-19504118D01*
X16202118Y-19504118D01*
X16202118Y-19611882D01*
X16309882Y-19611882D01*
X18719800Y-1701800D02*
X18872200Y-1854200D01*
X18872200Y-1701800D02*
X18719800Y-1854200D01*
X18849882Y-1831882D02*
X18849882Y-1724118D01*
X18742118Y-1724118D01*
X18742118Y-1831882D01*
X18849882Y-1831882D01*
X18719800Y-4241800D02*
X18872200Y-4394200D01*
X18872200Y-4241800D02*
X18719800Y-4394200D01*
X18849882Y-4371882D02*
X18849882Y-4264118D01*
X18742118Y-4264118D01*
X18742118Y-4371882D01*
X18849882Y-4371882D01*
X18719800Y-6781800D02*
X18872200Y-6934200D01*
X18872200Y-6781800D02*
X18719800Y-6934200D01*
X18849882Y-6911882D02*
X18849882Y-6804118D01*
X18742118Y-6804118D01*
X18742118Y-6911882D01*
X18849882Y-6911882D01*
X18719800Y-9321800D02*
X18872200Y-9474200D01*
X18872200Y-9321800D02*
X18719800Y-9474200D01*
X18849882Y-9451882D02*
X18849882Y-9344118D01*
X18742118Y-9344118D01*
X18742118Y-9451882D01*
X18849882Y-9451882D01*
X18719800Y-11861800D02*
X18872200Y-12014200D01*
X18872200Y-11861800D02*
X18719800Y-12014200D01*
X18849882Y-11991882D02*
X18849882Y-11884118D01*
X18742118Y-11884118D01*
X18742118Y-11991882D01*
X18849882Y-11991882D01*
X18719800Y-14401800D02*
X18872200Y-14554200D01*
X18872200Y-14401800D02*
X18719800Y-14554200D01*
X18849882Y-14531882D02*
X18849882Y-14424118D01*
X18742118Y-14424118D01*
X18742118Y-14531882D01*
X18849882Y-14531882D01*
X18719800Y-16941800D02*
X18872200Y-17094200D01*
X18872200Y-16941800D02*
X18719800Y-17094200D01*
X18849882Y-17071882D02*
X18849882Y-16964118D01*
X18742118Y-16964118D01*
X18742118Y-17071882D01*
X18849882Y-17071882D01*
X18719800Y-19481800D02*
X18872200Y-19634200D01*
X18872200Y-19481800D02*
X18719800Y-19634200D01*
X18849882Y-19611882D02*
X18849882Y-19504118D01*
X18742118Y-19504118D01*
X18742118Y-19611882D01*
X18849882Y-19611882D01*
X21259800Y-1701800D02*
X21412200Y-1854200D01*
X21412200Y-1701800D02*
X21259800Y-1854200D01*
X21389882Y-1831882D02*
X21389882Y-1724118D01*
X21282118Y-1724118D01*
X21282118Y-1831882D01*
X21389882Y-1831882D01*
X21259800Y-4241800D02*
X21412200Y-4394200D01*
X21412200Y-4241800D02*
X21259800Y-4394200D01*
X21389882Y-4371882D02*
X21389882Y-4264118D01*
X21282118Y-4264118D01*
X21282118Y-4371882D01*
X21389882Y-4371882D01*
X21259800Y-6781800D02*
X21412200Y-6934200D01*
X21412200Y-6781800D02*
X21259800Y-6934200D01*
X21389882Y-6911882D02*
X21389882Y-6804118D01*
X21282118Y-6804118D01*
X21282118Y-6911882D01*
X21389882Y-6911882D01*
X21259800Y-9321800D02*
X21412200Y-9474200D01*
X21412200Y-9321800D02*
X21259800Y-9474200D01*
X21389882Y-9451882D02*
X21389882Y-9344118D01*
X21282118Y-9344118D01*
X21282118Y-9451882D01*
X21389882Y-9451882D01*
X21259800Y-11861800D02*
X21412200Y-12014200D01*
X21412200Y-11861800D02*
X21259800Y-12014200D01*
X21389882Y-11991882D02*
X21389882Y-11884118D01*
X21282118Y-11884118D01*
X21282118Y-11991882D01*
X21389882Y-11991882D01*
X21259800Y-14401800D02*
X21412200Y-14554200D01*
X21412200Y-14401800D02*
X21259800Y-14554200D01*
X21389882Y-14531882D02*
X21389882Y-14424118D01*
X21282118Y-14424118D01*
X21282118Y-14531882D01*
X21389882Y-14531882D01*
X21259800Y-16941800D02*
X21412200Y-17094200D01*
X21412200Y-16941800D02*
X21259800Y-17094200D01*
X21389882Y-17071882D02*
X21389882Y-16964118D01*
X21282118Y-16964118D01*
X21282118Y-17071882D01*
X21389882Y-17071882D01*
X21259800Y-19481800D02*
X21412200Y-19634200D01*
X21412200Y-19481800D02*
X21259800Y-19634200D01*
X21389882Y-19611882D02*
X21389882Y-19504118D01*
X21282118Y-19504118D01*
X21282118Y-19611882D01*
X21389882Y-19611882D01*
X23799800Y-1701800D02*
X23952200Y-1854200D01*
X23952200Y-1701800D02*
X23799800Y-1854200D01*
X23929882Y-1831882D02*
X23929882Y-1724118D01*
X23822118Y-1724118D01*
X23822118Y-1831882D01*
X23929882Y-1831882D01*
X23799800Y-4241800D02*
X23952200Y-4394200D01*
X23952200Y-4241800D02*
X23799800Y-4394200D01*
X23929882Y-4371882D02*
X23929882Y-4264118D01*
X23822118Y-4264118D01*
X23822118Y-4371882D01*
X23929882Y-4371882D01*
X23799800Y-6781800D02*
X23952200Y-6934200D01*
X23952200Y-6781800D02*
X23799800Y-6934200D01*
X23929882Y-6911882D02*
X23929882Y-6804118D01*
X23822118Y-6804118D01*
X23822118Y-6911882D01*
X23929882Y-6911882D01*
X23799800Y-9321800D02*
X23952200Y-9474200D01*
X23952200Y-9321800D02*
X23799800Y-9474200D01*
X23929882Y-9451882D02*
X23929882Y-9344118D01*
X23822118Y-9344118D01*
X23822118Y-9451882D01*
X23929882Y-9451882D01*
X23799800Y-11861800D02*
X23952200Y-12014200D01*
X23952200Y-11861800D02*
X23799800Y-12014200D01*
X23929882Y-11991882D02*
X23929882Y-11884118D01*
X23822118Y-11884118D01*
X23822118Y-11991882D01*
X23929882Y-11991882D01*
X23799800Y-14401800D02*
X23952200Y-14554200D01*
X23952200Y-14401800D02*
X23799800Y-14554200D01*
X23929882Y-14531882D02*
X23929882Y-14424118D01*
X23822118Y-14424118D01*
X23822118Y-14531882D01*
X23929882Y-14531882D01*
X23799800Y-16941800D02*
X23952200Y-17094200D01*
X23952200Y-16941800D02*
X23799800Y-17094200D01*
X23929882Y-17071882D02*
X23929882Y-16964118D01*
X23822118Y-16964118D01*
X23822118Y-17071882D01*
X23929882Y-17071882D01*
X23799800Y-19481800D02*
X23952200Y-19634200D01*
X23952200Y-19481800D02*
X23799800Y-19634200D01*
X23929882Y-19611882D02*
X23929882Y-19504118D01*
X23822118Y-19504118D01*
X23822118Y-19611882D01*
X23929882Y-19611882D01*
X13598900Y-2120900D02*
X13929100Y-2451100D01*
X13929100Y-2120900D02*
X13598900Y-2451100D01*
X13764000Y-2451100D02*
X13929100Y-2286000D01*
X13764000Y-2120900D01*
X13598900Y-2286000D01*
X13764000Y-2451100D01*
X16003400Y-2120900D02*
X16333600Y-2451100D01*
X16333600Y-2120900D02*
X16003400Y-2451100D01*
X16168500Y-2451100D02*
X16333600Y-2286000D01*
X16168500Y-2120900D01*
X16003400Y-2286000D01*
X16168500Y-2451100D01*
X13638400Y-18884900D02*
X13968600Y-19215100D01*
X13968600Y-18884900D02*
X13638400Y-19215100D01*
X13803500Y-19215100D02*
X13968600Y-19050000D01*
X13803500Y-18884900D01*
X13638400Y-19050000D01*
X13803500Y-19215100D01*
X16042900Y-18884900D02*
X16373100Y-19215100D01*
X16373100Y-18884900D02*
X16042900Y-19215100D01*
X16208000Y-19215100D02*
X16373100Y-19050000D01*
X16208000Y-18884900D01*
X16042900Y-19050000D01*
X16208000Y-19215100D01*
D12*
X5744928Y-20661214D02*
X5744928Y-20361214D01*
X5816357Y-20361214D01*
X5859214Y-20375500D01*
X5887786Y-20404072D01*
X5902071Y-20432643D01*
X5916357Y-20489786D01*
X5916357Y-20532643D01*
X5902071Y-20589786D01*
X5887786Y-20618357D01*
X5859214Y-20646929D01*
X5816357Y-20661214D01*
X5744928Y-20661214D01*
X6044928Y-20661214D02*
X6044928Y-20461214D01*
X6044928Y-20518357D02*
X6059214Y-20489786D01*
X6073500Y-20475500D01*
X6102071Y-20461214D01*
X6130643Y-20461214D01*
X6230643Y-20661214D02*
X6230643Y-20461214D01*
X6230643Y-20361214D02*
X6216357Y-20375500D01*
X6230643Y-20389786D01*
X6244928Y-20375500D01*
X6230643Y-20361214D01*
X6230643Y-20389786D01*
X6416357Y-20661214D02*
X6387786Y-20646929D01*
X6373500Y-20618357D01*
X6373500Y-20361214D01*
X6573500Y-20661214D02*
X6544928Y-20646929D01*
X6530643Y-20618357D01*
X6530643Y-20361214D01*
X6916357Y-20661214D02*
X6916357Y-20361214D01*
X7016357Y-20575500D01*
X7116357Y-20361214D01*
X7116357Y-20661214D01*
X7387786Y-20661214D02*
X7387786Y-20504072D01*
X7373500Y-20475500D01*
X7344928Y-20461214D01*
X7287786Y-20461214D01*
X7259214Y-20475500D01*
X7387786Y-20646929D02*
X7359214Y-20661214D01*
X7287786Y-20661214D01*
X7259214Y-20646929D01*
X7244928Y-20618357D01*
X7244928Y-20589786D01*
X7259214Y-20561214D01*
X7287786Y-20546929D01*
X7359214Y-20546929D01*
X7387786Y-20532643D01*
X7530643Y-20461214D02*
X7530643Y-20761214D01*
X7530643Y-20475500D02*
X7559214Y-20461214D01*
X7616357Y-20461214D01*
X7644928Y-20475500D01*
X7659214Y-20489786D01*
X7673500Y-20518357D01*
X7673500Y-20604072D01*
X7659214Y-20632643D01*
X7644928Y-20646929D01*
X7616357Y-20661214D01*
X7559214Y-20661214D01*
X7530643Y-20646929D01*
X7802071Y-20632643D02*
X7816357Y-20646929D01*
X7802071Y-20661214D01*
X7787786Y-20646929D01*
X7802071Y-20632643D01*
X7802071Y-20661214D01*
X7802071Y-20475500D02*
X7816357Y-20489786D01*
X7802071Y-20504072D01*
X7787786Y-20489786D01*
X7802071Y-20475500D01*
X7802071Y-20504072D01*
X5418500Y-21135500D02*
X5458500Y-21175500D01*
X5458500Y-21135500D02*
X5418500Y-21175500D01*
X5802071Y-20991214D02*
X5830643Y-20991214D01*
X5859214Y-21005500D01*
X5873500Y-21019786D01*
X5887786Y-21048357D01*
X5902071Y-21105500D01*
X5902071Y-21176929D01*
X5887786Y-21234072D01*
X5873500Y-21262643D01*
X5859214Y-21276929D01*
X5830643Y-21291214D01*
X5802071Y-21291214D01*
X5773500Y-21276929D01*
X5759214Y-21262643D01*
X5744928Y-21234072D01*
X5730643Y-21176929D01*
X5730643Y-21105500D01*
X5744928Y-21048357D01*
X5759214Y-21019786D01*
X5773500Y-21005500D01*
X5802071Y-20991214D01*
X6030643Y-21262643D02*
X6044928Y-21276929D01*
X6030643Y-21291214D01*
X6016357Y-21276929D01*
X6030643Y-21262643D01*
X6030643Y-21291214D01*
X6302071Y-21091214D02*
X6302071Y-21291214D01*
X6230643Y-20976929D02*
X6159214Y-21191214D01*
X6344928Y-21191214D01*
X6516357Y-20991214D02*
X6544928Y-20991214D01*
X6573500Y-21005500D01*
X6587786Y-21019786D01*
X6602071Y-21048357D01*
X6616357Y-21105500D01*
X6616357Y-21176929D01*
X6602071Y-21234072D01*
X6587786Y-21262643D01*
X6573500Y-21276929D01*
X6544928Y-21291214D01*
X6516357Y-21291214D01*
X6487786Y-21276929D01*
X6473500Y-21262643D01*
X6459214Y-21234072D01*
X6444928Y-21176929D01*
X6444928Y-21105500D01*
X6459214Y-21048357D01*
X6473500Y-21019786D01*
X6487786Y-21005500D01*
X6516357Y-20991214D01*
X6744928Y-21291214D02*
X6744928Y-21091214D01*
X6744928Y-21119786D02*
X6759214Y-21105500D01*
X6787786Y-21091214D01*
X6830643Y-21091214D01*
X6859214Y-21105500D01*
X6873500Y-21134072D01*
X6873500Y-21291214D01*
X6873500Y-21134072D02*
X6887786Y-21105500D01*
X6916357Y-21091214D01*
X6959214Y-21091214D01*
X6987786Y-21105500D01*
X7002071Y-21134072D01*
X7002071Y-21291214D01*
X7144928Y-21291214D02*
X7144928Y-21091214D01*
X7144928Y-21119786D02*
X7159214Y-21105500D01*
X7187786Y-21091214D01*
X7230643Y-21091214D01*
X7259214Y-21105500D01*
X7273500Y-21134072D01*
X7273500Y-21291214D01*
X7273500Y-21134072D02*
X7287786Y-21105500D01*
X7316357Y-21091214D01*
X7359214Y-21091214D01*
X7387786Y-21105500D01*
X7402071Y-21134072D01*
X7402071Y-21291214D01*
X7987786Y-20976929D02*
X7730643Y-21362643D01*
X8373500Y-20991214D02*
X8402071Y-20991214D01*
X8430643Y-21005500D01*
X8444928Y-21019786D01*
X8459214Y-21048357D01*
X8473500Y-21105500D01*
X8473500Y-21176929D01*
X8459214Y-21234072D01*
X8444928Y-21262643D01*
X8430643Y-21276929D01*
X8402071Y-21291214D01*
X8373500Y-21291214D01*
X8344928Y-21276929D01*
X8330643Y-21262643D01*
X8316357Y-21234072D01*
X8302071Y-21176929D01*
X8302071Y-21105500D01*
X8316357Y-21048357D01*
X8330643Y-21019786D01*
X8344928Y-21005500D01*
X8373500Y-20991214D01*
X8602071Y-21262643D02*
X8616357Y-21276929D01*
X8602071Y-21291214D01*
X8587786Y-21276929D01*
X8602071Y-21262643D01*
X8602071Y-21291214D01*
X8802071Y-20991214D02*
X8830643Y-20991214D01*
X8859214Y-21005500D01*
X8873500Y-21019786D01*
X8887786Y-21048357D01*
X8902071Y-21105500D01*
X8902071Y-21176929D01*
X8887786Y-21234072D01*
X8873500Y-21262643D01*
X8859214Y-21276929D01*
X8830643Y-21291214D01*
X8802071Y-21291214D01*
X8773500Y-21276929D01*
X8759214Y-21262643D01*
X8744928Y-21234072D01*
X8730643Y-21176929D01*
X8730643Y-21105500D01*
X8744928Y-21048357D01*
X8759214Y-21019786D01*
X8773500Y-21005500D01*
X8802071Y-20991214D01*
X9187786Y-21291214D02*
X9016357Y-21291214D01*
X9102071Y-21291214D02*
X9102071Y-20991214D01*
X9073500Y-21034072D01*
X9044928Y-21062643D01*
X9016357Y-21076929D01*
X9444928Y-20991214D02*
X9387786Y-20991214D01*
X9359214Y-21005500D01*
X9344928Y-21019786D01*
X9316357Y-21062643D01*
X9302071Y-21119786D01*
X9302071Y-21234072D01*
X9316357Y-21262643D01*
X9330643Y-21276929D01*
X9359214Y-21291214D01*
X9416357Y-21291214D01*
X9444928Y-21276929D01*
X9459214Y-21262643D01*
X9473500Y-21234072D01*
X9473500Y-21162643D01*
X9459214Y-21134072D01*
X9444928Y-21119786D01*
X9416357Y-21105500D01*
X9359214Y-21105500D01*
X9330643Y-21119786D01*
X9316357Y-21134072D01*
X9302071Y-21162643D01*
X9587786Y-20991214D02*
X9587786Y-21048357D01*
X9702071Y-20991214D02*
X9702071Y-21048357D01*
X10144928Y-21405500D02*
X10130643Y-21391214D01*
X10102071Y-21348357D01*
X10087786Y-21319786D01*
X10073500Y-21276929D01*
X10059214Y-21205500D01*
X10059214Y-21148357D01*
X10073500Y-21076929D01*
X10087786Y-21034072D01*
X10102071Y-21005500D01*
X10130643Y-20962643D01*
X10144928Y-20948357D01*
X10416357Y-21291214D02*
X10244928Y-21291214D01*
X10330643Y-21291214D02*
X10330643Y-20991214D01*
X10302071Y-21034072D01*
X10273500Y-21062643D01*
X10244928Y-21076929D01*
X10530643Y-21019786D02*
X10544928Y-21005500D01*
X10573500Y-20991214D01*
X10644928Y-20991214D01*
X10673500Y-21005500D01*
X10687786Y-21019786D01*
X10702071Y-21048357D01*
X10702071Y-21076929D01*
X10687786Y-21119786D01*
X10516357Y-21291214D01*
X10702071Y-21291214D01*
X10873500Y-21119786D02*
X10844928Y-21105500D01*
X10830643Y-21091214D01*
X10816357Y-21062643D01*
X10816357Y-21048357D01*
X10830643Y-21019786D01*
X10844928Y-21005500D01*
X10873500Y-20991214D01*
X10930643Y-20991214D01*
X10959214Y-21005500D01*
X10973500Y-21019786D01*
X10987786Y-21048357D01*
X10987786Y-21062643D01*
X10973500Y-21091214D01*
X10959214Y-21105500D01*
X10930643Y-21119786D01*
X10873500Y-21119786D01*
X10844928Y-21134072D01*
X10830643Y-21148357D01*
X10816357Y-21176929D01*
X10816357Y-21234072D01*
X10830643Y-21262643D01*
X10844928Y-21276929D01*
X10873500Y-21291214D01*
X10930643Y-21291214D01*
X10959214Y-21276929D01*
X10973500Y-21262643D01*
X10987786Y-21234072D01*
X10987786Y-21176929D01*
X10973500Y-21148357D01*
X10959214Y-21134072D01*
X10930643Y-21119786D01*
X11344928Y-21291214D02*
X11344928Y-20991214D01*
X11473500Y-21291214D02*
X11473500Y-21134072D01*
X11459214Y-21105500D01*
X11430643Y-21091214D01*
X11387786Y-21091214D01*
X11359214Y-21105500D01*
X11344928Y-21119786D01*
X11659214Y-21291214D02*
X11630643Y-21276929D01*
X11616357Y-21262643D01*
X11602071Y-21234072D01*
X11602071Y-21148357D01*
X11616357Y-21119786D01*
X11630643Y-21105500D01*
X11659214Y-21091214D01*
X11702071Y-21091214D01*
X11730643Y-21105500D01*
X11744928Y-21119786D01*
X11759214Y-21148357D01*
X11759214Y-21234072D01*
X11744928Y-21262643D01*
X11730643Y-21276929D01*
X11702071Y-21291214D01*
X11659214Y-21291214D01*
X11930643Y-21291214D02*
X11902071Y-21276929D01*
X11887786Y-21248357D01*
X11887786Y-20991214D01*
X12159214Y-21276929D02*
X12130643Y-21291214D01*
X12073500Y-21291214D01*
X12044928Y-21276929D01*
X12030643Y-21248357D01*
X12030643Y-21134072D01*
X12044928Y-21105500D01*
X12073500Y-21091214D01*
X12130643Y-21091214D01*
X12159214Y-21105500D01*
X12173500Y-21134072D01*
X12173500Y-21162643D01*
X12030643Y-21191214D01*
X12287786Y-21276929D02*
X12316357Y-21291214D01*
X12373500Y-21291214D01*
X12402071Y-21276929D01*
X12416357Y-21248357D01*
X12416357Y-21234072D01*
X12402071Y-21205500D01*
X12373500Y-21191214D01*
X12330643Y-21191214D01*
X12302071Y-21176929D01*
X12287786Y-21148357D01*
X12287786Y-21134072D01*
X12302071Y-21105500D01*
X12330643Y-21091214D01*
X12373500Y-21091214D01*
X12402071Y-21105500D01*
X12516357Y-21405500D02*
X12530643Y-21391214D01*
X12559214Y-21348357D01*
X12573500Y-21319786D01*
X12587786Y-21276929D01*
X12602071Y-21205500D01*
X12602071Y-21148357D01*
X12587786Y-21076929D01*
X12573500Y-21034072D01*
X12559214Y-21005500D01*
X12530643Y-20962643D01*
X12516357Y-20948357D01*
X5458500Y-21551500D02*
G75*
G03*
X5458500Y-21551500I-35560J0D01*
G01*
X5802071Y-21387214D02*
X5830643Y-21387214D01*
X5859214Y-21401500D01*
X5873500Y-21415786D01*
X5887786Y-21444357D01*
X5902071Y-21501500D01*
X5902071Y-21572929D01*
X5887786Y-21630072D01*
X5873500Y-21658643D01*
X5859214Y-21672929D01*
X5830643Y-21687214D01*
X5802071Y-21687214D01*
X5773500Y-21672929D01*
X5759214Y-21658643D01*
X5744928Y-21630072D01*
X5730643Y-21572929D01*
X5730643Y-21501500D01*
X5744928Y-21444357D01*
X5759214Y-21415786D01*
X5773500Y-21401500D01*
X5802071Y-21387214D01*
X6030643Y-21658643D02*
X6044928Y-21672929D01*
X6030643Y-21687214D01*
X6016357Y-21672929D01*
X6030643Y-21658643D01*
X6030643Y-21687214D01*
X6144928Y-21387214D02*
X6344928Y-21387214D01*
X6216357Y-21687214D01*
X6616357Y-21687214D02*
X6444928Y-21687214D01*
X6530643Y-21687214D02*
X6530643Y-21387214D01*
X6502071Y-21430072D01*
X6473500Y-21458643D01*
X6444928Y-21472929D01*
X6744928Y-21687214D02*
X6744928Y-21487214D01*
X6744928Y-21515786D02*
X6759214Y-21501500D01*
X6787786Y-21487214D01*
X6830643Y-21487214D01*
X6859214Y-21501500D01*
X6873500Y-21530072D01*
X6873500Y-21687214D01*
X6873500Y-21530072D02*
X6887786Y-21501500D01*
X6916357Y-21487214D01*
X6959214Y-21487214D01*
X6987786Y-21501500D01*
X7002071Y-21530072D01*
X7002071Y-21687214D01*
X7144928Y-21687214D02*
X7144928Y-21487214D01*
X7144928Y-21515786D02*
X7159214Y-21501500D01*
X7187786Y-21487214D01*
X7230643Y-21487214D01*
X7259214Y-21501500D01*
X7273500Y-21530072D01*
X7273500Y-21687214D01*
X7273500Y-21530072D02*
X7287786Y-21501500D01*
X7316357Y-21487214D01*
X7359214Y-21487214D01*
X7387786Y-21501500D01*
X7402071Y-21530072D01*
X7402071Y-21687214D01*
X7987786Y-21372929D02*
X7730643Y-21758643D01*
X8373500Y-21387214D02*
X8402071Y-21387214D01*
X8430643Y-21401500D01*
X8444928Y-21415786D01*
X8459214Y-21444357D01*
X8473500Y-21501500D01*
X8473500Y-21572929D01*
X8459214Y-21630072D01*
X8444928Y-21658643D01*
X8430643Y-21672929D01*
X8402071Y-21687214D01*
X8373500Y-21687214D01*
X8344928Y-21672929D01*
X8330643Y-21658643D01*
X8316357Y-21630072D01*
X8302071Y-21572929D01*
X8302071Y-21501500D01*
X8316357Y-21444357D01*
X8330643Y-21415786D01*
X8344928Y-21401500D01*
X8373500Y-21387214D01*
X8602071Y-21658643D02*
X8616357Y-21672929D01*
X8602071Y-21687214D01*
X8587786Y-21672929D01*
X8602071Y-21658643D01*
X8602071Y-21687214D01*
X8802071Y-21387214D02*
X8830643Y-21387214D01*
X8859214Y-21401500D01*
X8873500Y-21415786D01*
X8887786Y-21444357D01*
X8902071Y-21501500D01*
X8902071Y-21572929D01*
X8887786Y-21630072D01*
X8873500Y-21658643D01*
X8859214Y-21672929D01*
X8830643Y-21687214D01*
X8802071Y-21687214D01*
X8773500Y-21672929D01*
X8759214Y-21658643D01*
X8744928Y-21630072D01*
X8730643Y-21572929D01*
X8730643Y-21501500D01*
X8744928Y-21444357D01*
X8759214Y-21415786D01*
X8773500Y-21401500D01*
X8802071Y-21387214D01*
X9016357Y-21415786D02*
X9030643Y-21401500D01*
X9059214Y-21387214D01*
X9130643Y-21387214D01*
X9159214Y-21401500D01*
X9173500Y-21415786D01*
X9187786Y-21444357D01*
X9187786Y-21472929D01*
X9173500Y-21515786D01*
X9002071Y-21687214D01*
X9187786Y-21687214D01*
X9359214Y-21515786D02*
X9330643Y-21501500D01*
X9316357Y-21487214D01*
X9302071Y-21458643D01*
X9302071Y-21444357D01*
X9316357Y-21415786D01*
X9330643Y-21401500D01*
X9359214Y-21387214D01*
X9416357Y-21387214D01*
X9444928Y-21401500D01*
X9459214Y-21415786D01*
X9473500Y-21444357D01*
X9473500Y-21458643D01*
X9459214Y-21487214D01*
X9444928Y-21501500D01*
X9416357Y-21515786D01*
X9359214Y-21515786D01*
X9330643Y-21530072D01*
X9316357Y-21544357D01*
X9302071Y-21572929D01*
X9302071Y-21630072D01*
X9316357Y-21658643D01*
X9330643Y-21672929D01*
X9359214Y-21687214D01*
X9416357Y-21687214D01*
X9444928Y-21672929D01*
X9459214Y-21658643D01*
X9473500Y-21630072D01*
X9473500Y-21572929D01*
X9459214Y-21544357D01*
X9444928Y-21530072D01*
X9416357Y-21515786D01*
X9587786Y-21387214D02*
X9587786Y-21444357D01*
X9702071Y-21387214D02*
X9702071Y-21444357D01*
X10144928Y-21801500D02*
X10130643Y-21787214D01*
X10102071Y-21744357D01*
X10087786Y-21715786D01*
X10073500Y-21672929D01*
X10059214Y-21601500D01*
X10059214Y-21544357D01*
X10073500Y-21472929D01*
X10087786Y-21430072D01*
X10102071Y-21401500D01*
X10130643Y-21358643D01*
X10144928Y-21344357D01*
X10230643Y-21387214D02*
X10416357Y-21387214D01*
X10316357Y-21501500D01*
X10359214Y-21501500D01*
X10387786Y-21515786D01*
X10402071Y-21530072D01*
X10416357Y-21558643D01*
X10416357Y-21630072D01*
X10402071Y-21658643D01*
X10387786Y-21672929D01*
X10359214Y-21687214D01*
X10273500Y-21687214D01*
X10244928Y-21672929D01*
X10230643Y-21658643D01*
X10602071Y-21387214D02*
X10630643Y-21387214D01*
X10659214Y-21401500D01*
X10673500Y-21415786D01*
X10687786Y-21444357D01*
X10702071Y-21501500D01*
X10702071Y-21572929D01*
X10687786Y-21630072D01*
X10673500Y-21658643D01*
X10659214Y-21672929D01*
X10630643Y-21687214D01*
X10602071Y-21687214D01*
X10573500Y-21672929D01*
X10559214Y-21658643D01*
X10544928Y-21630072D01*
X10530643Y-21572929D01*
X10530643Y-21501500D01*
X10544928Y-21444357D01*
X10559214Y-21415786D01*
X10573500Y-21401500D01*
X10602071Y-21387214D01*
X11059214Y-21687214D02*
X11059214Y-21387214D01*
X11187786Y-21687214D02*
X11187786Y-21530072D01*
X11173500Y-21501500D01*
X11144928Y-21487214D01*
X11102071Y-21487214D01*
X11073500Y-21501500D01*
X11059214Y-21515786D01*
X11373500Y-21687214D02*
X11344928Y-21672929D01*
X11330643Y-21658643D01*
X11316357Y-21630072D01*
X11316357Y-21544357D01*
X11330643Y-21515786D01*
X11344928Y-21501500D01*
X11373500Y-21487214D01*
X11416357Y-21487214D01*
X11444928Y-21501500D01*
X11459214Y-21515786D01*
X11473500Y-21544357D01*
X11473500Y-21630072D01*
X11459214Y-21658643D01*
X11444928Y-21672929D01*
X11416357Y-21687214D01*
X11373500Y-21687214D01*
X11644928Y-21687214D02*
X11616357Y-21672929D01*
X11602071Y-21644357D01*
X11602071Y-21387214D01*
X11873500Y-21672929D02*
X11844928Y-21687214D01*
X11787786Y-21687214D01*
X11759214Y-21672929D01*
X11744928Y-21644357D01*
X11744928Y-21530072D01*
X11759214Y-21501500D01*
X11787786Y-21487214D01*
X11844928Y-21487214D01*
X11873500Y-21501500D01*
X11887786Y-21530072D01*
X11887786Y-21558643D01*
X11744928Y-21587214D01*
X12002071Y-21672929D02*
X12030643Y-21687214D01*
X12087786Y-21687214D01*
X12116357Y-21672929D01*
X12130643Y-21644357D01*
X12130643Y-21630072D01*
X12116357Y-21601500D01*
X12087786Y-21587214D01*
X12044928Y-21587214D01*
X12016357Y-21572929D01*
X12002071Y-21544357D01*
X12002071Y-21530072D01*
X12016357Y-21501500D01*
X12044928Y-21487214D01*
X12087786Y-21487214D01*
X12116357Y-21501500D01*
X12230643Y-21801500D02*
X12244928Y-21787214D01*
X12273500Y-21744357D01*
X12287786Y-21715786D01*
X12302071Y-21672929D01*
X12316357Y-21601500D01*
X12316357Y-21544357D01*
X12302071Y-21472929D01*
X12287786Y-21430072D01*
X12273500Y-21401500D01*
X12244928Y-21358643D01*
X12230643Y-21344357D01*
X5420400Y-21909400D02*
X5420400Y-21985600D01*
X5382300Y-21947500D02*
X5458500Y-21947500D01*
X5802071Y-21783214D02*
X5830643Y-21783214D01*
X5859214Y-21797500D01*
X5873500Y-21811786D01*
X5887786Y-21840357D01*
X5902071Y-21897500D01*
X5902071Y-21968929D01*
X5887786Y-22026072D01*
X5873500Y-22054643D01*
X5859214Y-22068929D01*
X5830643Y-22083214D01*
X5802071Y-22083214D01*
X5773500Y-22068929D01*
X5759214Y-22054643D01*
X5744928Y-22026072D01*
X5730643Y-21968929D01*
X5730643Y-21897500D01*
X5744928Y-21840357D01*
X5759214Y-21811786D01*
X5773500Y-21797500D01*
X5802071Y-21783214D01*
X6030643Y-22054643D02*
X6044928Y-22068929D01*
X6030643Y-22083214D01*
X6016357Y-22068929D01*
X6030643Y-22054643D01*
X6030643Y-22083214D01*
X6144928Y-21783214D02*
X6344928Y-21783214D01*
X6216357Y-22083214D01*
X6587786Y-21783214D02*
X6530643Y-21783214D01*
X6502071Y-21797500D01*
X6487786Y-21811786D01*
X6459214Y-21854643D01*
X6444928Y-21911786D01*
X6444928Y-22026072D01*
X6459214Y-22054643D01*
X6473500Y-22068929D01*
X6502071Y-22083214D01*
X6559214Y-22083214D01*
X6587786Y-22068929D01*
X6602071Y-22054643D01*
X6616357Y-22026072D01*
X6616357Y-21954643D01*
X6602071Y-21926072D01*
X6587786Y-21911786D01*
X6559214Y-21897500D01*
X6502071Y-21897500D01*
X6473500Y-21911786D01*
X6459214Y-21926072D01*
X6444928Y-21954643D01*
X6744928Y-22083214D02*
X6744928Y-21883214D01*
X6744928Y-21911786D02*
X6759214Y-21897500D01*
X6787786Y-21883214D01*
X6830643Y-21883214D01*
X6859214Y-21897500D01*
X6873500Y-21926072D01*
X6873500Y-22083214D01*
X6873500Y-21926072D02*
X6887786Y-21897500D01*
X6916357Y-21883214D01*
X6959214Y-21883214D01*
X6987786Y-21897500D01*
X7002071Y-21926072D01*
X7002071Y-22083214D01*
X7144928Y-22083214D02*
X7144928Y-21883214D01*
X7144928Y-21911786D02*
X7159214Y-21897500D01*
X7187786Y-21883214D01*
X7230643Y-21883214D01*
X7259214Y-21897500D01*
X7273500Y-21926072D01*
X7273500Y-22083214D01*
X7273500Y-21926072D02*
X7287786Y-21897500D01*
X7316357Y-21883214D01*
X7359214Y-21883214D01*
X7387786Y-21897500D01*
X7402071Y-21926072D01*
X7402071Y-22083214D01*
X7987786Y-21768929D02*
X7730643Y-22154643D01*
X8373500Y-21783214D02*
X8402071Y-21783214D01*
X8430643Y-21797500D01*
X8444928Y-21811786D01*
X8459214Y-21840357D01*
X8473500Y-21897500D01*
X8473500Y-21968929D01*
X8459214Y-22026072D01*
X8444928Y-22054643D01*
X8430643Y-22068929D01*
X8402071Y-22083214D01*
X8373500Y-22083214D01*
X8344928Y-22068929D01*
X8330643Y-22054643D01*
X8316357Y-22026072D01*
X8302071Y-21968929D01*
X8302071Y-21897500D01*
X8316357Y-21840357D01*
X8330643Y-21811786D01*
X8344928Y-21797500D01*
X8373500Y-21783214D01*
X8602071Y-22054643D02*
X8616357Y-22068929D01*
X8602071Y-22083214D01*
X8587786Y-22068929D01*
X8602071Y-22054643D01*
X8602071Y-22083214D01*
X8802071Y-21783214D02*
X8830643Y-21783214D01*
X8859214Y-21797500D01*
X8873500Y-21811786D01*
X8887786Y-21840357D01*
X8902071Y-21897500D01*
X8902071Y-21968929D01*
X8887786Y-22026072D01*
X8873500Y-22054643D01*
X8859214Y-22068929D01*
X8830643Y-22083214D01*
X8802071Y-22083214D01*
X8773500Y-22068929D01*
X8759214Y-22054643D01*
X8744928Y-22026072D01*
X8730643Y-21968929D01*
X8730643Y-21897500D01*
X8744928Y-21840357D01*
X8759214Y-21811786D01*
X8773500Y-21797500D01*
X8802071Y-21783214D01*
X9002071Y-21783214D02*
X9187786Y-21783214D01*
X9087786Y-21897500D01*
X9130643Y-21897500D01*
X9159214Y-21911786D01*
X9173500Y-21926072D01*
X9187786Y-21954643D01*
X9187786Y-22026072D01*
X9173500Y-22054643D01*
X9159214Y-22068929D01*
X9130643Y-22083214D01*
X9044928Y-22083214D01*
X9016357Y-22068929D01*
X9002071Y-22054643D01*
X9373500Y-21783214D02*
X9402071Y-21783214D01*
X9430643Y-21797500D01*
X9444928Y-21811786D01*
X9459214Y-21840357D01*
X9473500Y-21897500D01*
X9473500Y-21968929D01*
X9459214Y-22026072D01*
X9444928Y-22054643D01*
X9430643Y-22068929D01*
X9402071Y-22083214D01*
X9373500Y-22083214D01*
X9344928Y-22068929D01*
X9330643Y-22054643D01*
X9316357Y-22026072D01*
X9302071Y-21968929D01*
X9302071Y-21897500D01*
X9316357Y-21840357D01*
X9330643Y-21811786D01*
X9344928Y-21797500D01*
X9373500Y-21783214D01*
X9587786Y-21783214D02*
X9587786Y-21840357D01*
X9702071Y-21783214D02*
X9702071Y-21840357D01*
X10144928Y-22197500D02*
X10130643Y-22183214D01*
X10102071Y-22140357D01*
X10087786Y-22111786D01*
X10073500Y-22068929D01*
X10059214Y-21997500D01*
X10059214Y-21940357D01*
X10073500Y-21868929D01*
X10087786Y-21826072D01*
X10102071Y-21797500D01*
X10130643Y-21754643D01*
X10144928Y-21740357D01*
X10244928Y-21811786D02*
X10259214Y-21797500D01*
X10287786Y-21783214D01*
X10359214Y-21783214D01*
X10387786Y-21797500D01*
X10402071Y-21811786D01*
X10416357Y-21840357D01*
X10416357Y-21868929D01*
X10402071Y-21911786D01*
X10230643Y-22083214D01*
X10416357Y-22083214D01*
X10602071Y-21783214D02*
X10630643Y-21783214D01*
X10659214Y-21797500D01*
X10673500Y-21811786D01*
X10687786Y-21840357D01*
X10702071Y-21897500D01*
X10702071Y-21968929D01*
X10687786Y-22026072D01*
X10673500Y-22054643D01*
X10659214Y-22068929D01*
X10630643Y-22083214D01*
X10602071Y-22083214D01*
X10573500Y-22068929D01*
X10559214Y-22054643D01*
X10544928Y-22026072D01*
X10530643Y-21968929D01*
X10530643Y-21897500D01*
X10544928Y-21840357D01*
X10559214Y-21811786D01*
X10573500Y-21797500D01*
X10602071Y-21783214D01*
X10844928Y-22083214D02*
X10902071Y-22083214D01*
X10930643Y-22068929D01*
X10944928Y-22054643D01*
X10973500Y-22011786D01*
X10987786Y-21954643D01*
X10987786Y-21840357D01*
X10973500Y-21811786D01*
X10959214Y-21797500D01*
X10930643Y-21783214D01*
X10873500Y-21783214D01*
X10844928Y-21797500D01*
X10830643Y-21811786D01*
X10816357Y-21840357D01*
X10816357Y-21911786D01*
X10830643Y-21940357D01*
X10844928Y-21954643D01*
X10873500Y-21968929D01*
X10930643Y-21968929D01*
X10959214Y-21954643D01*
X10973500Y-21940357D01*
X10987786Y-21911786D01*
X11344928Y-22083214D02*
X11344928Y-21783214D01*
X11473500Y-22083214D02*
X11473500Y-21926072D01*
X11459214Y-21897500D01*
X11430643Y-21883214D01*
X11387786Y-21883214D01*
X11359214Y-21897500D01*
X11344928Y-21911786D01*
X11659214Y-22083214D02*
X11630643Y-22068929D01*
X11616357Y-22054643D01*
X11602071Y-22026072D01*
X11602071Y-21940357D01*
X11616357Y-21911786D01*
X11630643Y-21897500D01*
X11659214Y-21883214D01*
X11702071Y-21883214D01*
X11730643Y-21897500D01*
X11744928Y-21911786D01*
X11759214Y-21940357D01*
X11759214Y-22026072D01*
X11744928Y-22054643D01*
X11730643Y-22068929D01*
X11702071Y-22083214D01*
X11659214Y-22083214D01*
X11930643Y-22083214D02*
X11902071Y-22068929D01*
X11887786Y-22040357D01*
X11887786Y-21783214D01*
X12159214Y-22068929D02*
X12130643Y-22083214D01*
X12073500Y-22083214D01*
X12044928Y-22068929D01*
X12030643Y-22040357D01*
X12030643Y-21926072D01*
X12044928Y-21897500D01*
X12073500Y-21883214D01*
X12130643Y-21883214D01*
X12159214Y-21897500D01*
X12173500Y-21926072D01*
X12173500Y-21954643D01*
X12030643Y-21983214D01*
X12287786Y-22068929D02*
X12316357Y-22083214D01*
X12373500Y-22083214D01*
X12402071Y-22068929D01*
X12416357Y-22040357D01*
X12416357Y-22026072D01*
X12402071Y-21997500D01*
X12373500Y-21983214D01*
X12330643Y-21983214D01*
X12302071Y-21968929D01*
X12287786Y-21940357D01*
X12287786Y-21926072D01*
X12302071Y-21897500D01*
X12330643Y-21883214D01*
X12373500Y-21883214D01*
X12402071Y-21897500D01*
X12516357Y-22197500D02*
X12530643Y-22183214D01*
X12559214Y-22140357D01*
X12573500Y-22111786D01*
X12587786Y-22068929D01*
X12602071Y-21997500D01*
X12602071Y-21940357D01*
X12587786Y-21868929D01*
X12573500Y-21826072D01*
X12559214Y-21797500D01*
X12530643Y-21754643D01*
X12516357Y-21740357D01*
X5446969Y-22371339D02*
X5446969Y-22315661D01*
X5391291Y-22315661D01*
X5391291Y-22371339D01*
X5446969Y-22371339D01*
X5802071Y-22179214D02*
X5830643Y-22179214D01*
X5859214Y-22193500D01*
X5873500Y-22207786D01*
X5887786Y-22236357D01*
X5902071Y-22293500D01*
X5902071Y-22364929D01*
X5887786Y-22422071D01*
X5873500Y-22450643D01*
X5859214Y-22464929D01*
X5830643Y-22479214D01*
X5802071Y-22479214D01*
X5773500Y-22464929D01*
X5759214Y-22450643D01*
X5744928Y-22422071D01*
X5730643Y-22364929D01*
X5730643Y-22293500D01*
X5744928Y-22236357D01*
X5759214Y-22207786D01*
X5773500Y-22193500D01*
X5802071Y-22179214D01*
X6030643Y-22450643D02*
X6044928Y-22464929D01*
X6030643Y-22479214D01*
X6016357Y-22464929D01*
X6030643Y-22450643D01*
X6030643Y-22479214D01*
X6144928Y-22179214D02*
X6344928Y-22179214D01*
X6216357Y-22479214D01*
X6473500Y-22479214D02*
X6530643Y-22479214D01*
X6559214Y-22464929D01*
X6573500Y-22450643D01*
X6602071Y-22407786D01*
X6616357Y-22350643D01*
X6616357Y-22236357D01*
X6602071Y-22207786D01*
X6587786Y-22193500D01*
X6559214Y-22179214D01*
X6502071Y-22179214D01*
X6473500Y-22193500D01*
X6459214Y-22207786D01*
X6444928Y-22236357D01*
X6444928Y-22307786D01*
X6459214Y-22336357D01*
X6473500Y-22350643D01*
X6502071Y-22364929D01*
X6559214Y-22364929D01*
X6587786Y-22350643D01*
X6602071Y-22336357D01*
X6616357Y-22307786D01*
X6744928Y-22479214D02*
X6744928Y-22279214D01*
X6744928Y-22307786D02*
X6759214Y-22293500D01*
X6787786Y-22279214D01*
X6830643Y-22279214D01*
X6859214Y-22293500D01*
X6873500Y-22322072D01*
X6873500Y-22479214D01*
X6873500Y-22322072D02*
X6887786Y-22293500D01*
X6916357Y-22279214D01*
X6959214Y-22279214D01*
X6987786Y-22293500D01*
X7002071Y-22322072D01*
X7002071Y-22479214D01*
X7144928Y-22479214D02*
X7144928Y-22279214D01*
X7144928Y-22307786D02*
X7159214Y-22293500D01*
X7187786Y-22279214D01*
X7230643Y-22279214D01*
X7259214Y-22293500D01*
X7273500Y-22322072D01*
X7273500Y-22479214D01*
X7273500Y-22322072D02*
X7287786Y-22293500D01*
X7316357Y-22279214D01*
X7359214Y-22279214D01*
X7387786Y-22293500D01*
X7402071Y-22322072D01*
X7402071Y-22479214D01*
X7987786Y-22164929D02*
X7730643Y-22550643D01*
X8373500Y-22179214D02*
X8402071Y-22179214D01*
X8430643Y-22193500D01*
X8444928Y-22207786D01*
X8459214Y-22236357D01*
X8473500Y-22293500D01*
X8473500Y-22364929D01*
X8459214Y-22422071D01*
X8444928Y-22450643D01*
X8430643Y-22464929D01*
X8402071Y-22479214D01*
X8373500Y-22479214D01*
X8344928Y-22464929D01*
X8330643Y-22450643D01*
X8316357Y-22422071D01*
X8302071Y-22364929D01*
X8302071Y-22293500D01*
X8316357Y-22236357D01*
X8330643Y-22207786D01*
X8344928Y-22193500D01*
X8373500Y-22179214D01*
X8602071Y-22450643D02*
X8616357Y-22464929D01*
X8602071Y-22479214D01*
X8587786Y-22464929D01*
X8602071Y-22450643D01*
X8602071Y-22479214D01*
X8802071Y-22179214D02*
X8830643Y-22179214D01*
X8859214Y-22193500D01*
X8873500Y-22207786D01*
X8887786Y-22236357D01*
X8902071Y-22293500D01*
X8902071Y-22364929D01*
X8887786Y-22422071D01*
X8873500Y-22450643D01*
X8859214Y-22464929D01*
X8830643Y-22479214D01*
X8802071Y-22479214D01*
X8773500Y-22464929D01*
X8759214Y-22450643D01*
X8744928Y-22422071D01*
X8730643Y-22364929D01*
X8730643Y-22293500D01*
X8744928Y-22236357D01*
X8759214Y-22207786D01*
X8773500Y-22193500D01*
X8802071Y-22179214D01*
X9002071Y-22179214D02*
X9187786Y-22179214D01*
X9087786Y-22293500D01*
X9130643Y-22293500D01*
X9159214Y-22307786D01*
X9173500Y-22322072D01*
X9187786Y-22350643D01*
X9187786Y-22422071D01*
X9173500Y-22450643D01*
X9159214Y-22464929D01*
X9130643Y-22479214D01*
X9044928Y-22479214D01*
X9016357Y-22464929D01*
X9002071Y-22450643D01*
X9473500Y-22479214D02*
X9302071Y-22479214D01*
X9387786Y-22479214D02*
X9387786Y-22179214D01*
X9359214Y-22222072D01*
X9330643Y-22250643D01*
X9302071Y-22264929D01*
X9587786Y-22179214D02*
X9587786Y-22236357D01*
X9702071Y-22179214D02*
X9702071Y-22236357D01*
X10144928Y-22593500D02*
X10130643Y-22579214D01*
X10102071Y-22536357D01*
X10087786Y-22507786D01*
X10073500Y-22464929D01*
X10059214Y-22393500D01*
X10059214Y-22336357D01*
X10073500Y-22264929D01*
X10087786Y-22222072D01*
X10102071Y-22193500D01*
X10130643Y-22150643D01*
X10144928Y-22136357D01*
X10416357Y-22479214D02*
X10244928Y-22479214D01*
X10330643Y-22479214D02*
X10330643Y-22179214D01*
X10302071Y-22222072D01*
X10273500Y-22250643D01*
X10244928Y-22264929D01*
X10673500Y-22279214D02*
X10673500Y-22479214D01*
X10602071Y-22164929D02*
X10530643Y-22379214D01*
X10716357Y-22379214D01*
X10959214Y-22279214D02*
X10959214Y-22479214D01*
X10887786Y-22164929D02*
X10816357Y-22379214D01*
X11002071Y-22379214D01*
X11344928Y-22479214D02*
X11344928Y-22179214D01*
X11473500Y-22479214D02*
X11473500Y-22322072D01*
X11459214Y-22293500D01*
X11430643Y-22279214D01*
X11387786Y-22279214D01*
X11359214Y-22293500D01*
X11344928Y-22307786D01*
X11659214Y-22479214D02*
X11630643Y-22464929D01*
X11616357Y-22450643D01*
X11602071Y-22422071D01*
X11602071Y-22336357D01*
X11616357Y-22307786D01*
X11630643Y-22293500D01*
X11659214Y-22279214D01*
X11702071Y-22279214D01*
X11730643Y-22293500D01*
X11744928Y-22307786D01*
X11759214Y-22336357D01*
X11759214Y-22422071D01*
X11744928Y-22450643D01*
X11730643Y-22464929D01*
X11702071Y-22479214D01*
X11659214Y-22479214D01*
X11930643Y-22479214D02*
X11902071Y-22464929D01*
X11887786Y-22436357D01*
X11887786Y-22179214D01*
X12159214Y-22464929D02*
X12130643Y-22479214D01*
X12073500Y-22479214D01*
X12044928Y-22464929D01*
X12030643Y-22436357D01*
X12030643Y-22322072D01*
X12044928Y-22293500D01*
X12073500Y-22279214D01*
X12130643Y-22279214D01*
X12159214Y-22293500D01*
X12173500Y-22322072D01*
X12173500Y-22350643D01*
X12030643Y-22379214D01*
X12287786Y-22464929D02*
X12316357Y-22479214D01*
X12373500Y-22479214D01*
X12402071Y-22464929D01*
X12416357Y-22436357D01*
X12416357Y-22422071D01*
X12402071Y-22393500D01*
X12373500Y-22379214D01*
X12330643Y-22379214D01*
X12302071Y-22364929D01*
X12287786Y-22336357D01*
X12287786Y-22322072D01*
X12302071Y-22293500D01*
X12330643Y-22279214D01*
X12373500Y-22279214D01*
X12402071Y-22293500D01*
X12516357Y-22593500D02*
X12530643Y-22579214D01*
X12559214Y-22536357D01*
X12573500Y-22507786D01*
X12587786Y-22464929D01*
X12602071Y-22393500D01*
X12602071Y-22336357D01*
X12587786Y-22264929D01*
X12573500Y-22222072D01*
X12559214Y-22193500D01*
X12530643Y-22150643D01*
X12516357Y-22136357D01*
X5418500Y-22779500D02*
X5458500Y-22739500D01*
X5418500Y-22699500D01*
X5378500Y-22739500D01*
X5418500Y-22779500D01*
X5802071Y-22575214D02*
X5830643Y-22575214D01*
X5859214Y-22589500D01*
X5873500Y-22603786D01*
X5887786Y-22632357D01*
X5902071Y-22689500D01*
X5902071Y-22760929D01*
X5887786Y-22818071D01*
X5873500Y-22846643D01*
X5859214Y-22860929D01*
X5830643Y-22875214D01*
X5802071Y-22875214D01*
X5773500Y-22860929D01*
X5759214Y-22846643D01*
X5744928Y-22818071D01*
X5730643Y-22760929D01*
X5730643Y-22689500D01*
X5744928Y-22632357D01*
X5759214Y-22603786D01*
X5773500Y-22589500D01*
X5802071Y-22575214D01*
X6030643Y-22846643D02*
X6044928Y-22860929D01*
X6030643Y-22875214D01*
X6016357Y-22860929D01*
X6030643Y-22846643D01*
X6030643Y-22875214D01*
X6216357Y-22703786D02*
X6187786Y-22689500D01*
X6173500Y-22675214D01*
X6159214Y-22646643D01*
X6159214Y-22632357D01*
X6173500Y-22603786D01*
X6187786Y-22589500D01*
X6216357Y-22575214D01*
X6273500Y-22575214D01*
X6302071Y-22589500D01*
X6316357Y-22603786D01*
X6330643Y-22632357D01*
X6330643Y-22646643D01*
X6316357Y-22675214D01*
X6302071Y-22689500D01*
X6273500Y-22703786D01*
X6216357Y-22703786D01*
X6187786Y-22718071D01*
X6173500Y-22732357D01*
X6159214Y-22760929D01*
X6159214Y-22818071D01*
X6173500Y-22846643D01*
X6187786Y-22860929D01*
X6216357Y-22875214D01*
X6273500Y-22875214D01*
X6302071Y-22860929D01*
X6316357Y-22846643D01*
X6330643Y-22818071D01*
X6330643Y-22760929D01*
X6316357Y-22732357D01*
X6302071Y-22718071D01*
X6273500Y-22703786D01*
X6516357Y-22575214D02*
X6544928Y-22575214D01*
X6573500Y-22589500D01*
X6587786Y-22603786D01*
X6602071Y-22632357D01*
X6616357Y-22689500D01*
X6616357Y-22760929D01*
X6602071Y-22818071D01*
X6587786Y-22846643D01*
X6573500Y-22860929D01*
X6544928Y-22875214D01*
X6516357Y-22875214D01*
X6487786Y-22860929D01*
X6473500Y-22846643D01*
X6459214Y-22818071D01*
X6444928Y-22760929D01*
X6444928Y-22689500D01*
X6459214Y-22632357D01*
X6473500Y-22603786D01*
X6487786Y-22589500D01*
X6516357Y-22575214D01*
X6744928Y-22875214D02*
X6744928Y-22675214D01*
X6744928Y-22703786D02*
X6759214Y-22689500D01*
X6787786Y-22675214D01*
X6830643Y-22675214D01*
X6859214Y-22689500D01*
X6873500Y-22718071D01*
X6873500Y-22875214D01*
X6873500Y-22718071D02*
X6887786Y-22689500D01*
X6916357Y-22675214D01*
X6959214Y-22675214D01*
X6987786Y-22689500D01*
X7002071Y-22718071D01*
X7002071Y-22875214D01*
X7144928Y-22875214D02*
X7144928Y-22675214D01*
X7144928Y-22703786D02*
X7159214Y-22689500D01*
X7187786Y-22675214D01*
X7230643Y-22675214D01*
X7259214Y-22689500D01*
X7273500Y-22718071D01*
X7273500Y-22875214D01*
X7273500Y-22718071D02*
X7287786Y-22689500D01*
X7316357Y-22675214D01*
X7359214Y-22675214D01*
X7387786Y-22689500D01*
X7402071Y-22718071D01*
X7402071Y-22875214D01*
X7987786Y-22560929D02*
X7730643Y-22946643D01*
X8373500Y-22575214D02*
X8402071Y-22575214D01*
X8430643Y-22589500D01*
X8444928Y-22603786D01*
X8459214Y-22632357D01*
X8473500Y-22689500D01*
X8473500Y-22760929D01*
X8459214Y-22818071D01*
X8444928Y-22846643D01*
X8430643Y-22860929D01*
X8402071Y-22875214D01*
X8373500Y-22875214D01*
X8344928Y-22860929D01*
X8330643Y-22846643D01*
X8316357Y-22818071D01*
X8302071Y-22760929D01*
X8302071Y-22689500D01*
X8316357Y-22632357D01*
X8330643Y-22603786D01*
X8344928Y-22589500D01*
X8373500Y-22575214D01*
X8602071Y-22846643D02*
X8616357Y-22860929D01*
X8602071Y-22875214D01*
X8587786Y-22860929D01*
X8602071Y-22846643D01*
X8602071Y-22875214D01*
X8802071Y-22575214D02*
X8830643Y-22575214D01*
X8859214Y-22589500D01*
X8873500Y-22603786D01*
X8887786Y-22632357D01*
X8902071Y-22689500D01*
X8902071Y-22760929D01*
X8887786Y-22818071D01*
X8873500Y-22846643D01*
X8859214Y-22860929D01*
X8830643Y-22875214D01*
X8802071Y-22875214D01*
X8773500Y-22860929D01*
X8759214Y-22846643D01*
X8744928Y-22818071D01*
X8730643Y-22760929D01*
X8730643Y-22689500D01*
X8744928Y-22632357D01*
X8759214Y-22603786D01*
X8773500Y-22589500D01*
X8802071Y-22575214D01*
X9002071Y-22575214D02*
X9187786Y-22575214D01*
X9087786Y-22689500D01*
X9130643Y-22689500D01*
X9159214Y-22703786D01*
X9173500Y-22718071D01*
X9187786Y-22746643D01*
X9187786Y-22818071D01*
X9173500Y-22846643D01*
X9159214Y-22860929D01*
X9130643Y-22875214D01*
X9044928Y-22875214D01*
X9016357Y-22860929D01*
X9002071Y-22846643D01*
X9473500Y-22875214D02*
X9302071Y-22875214D01*
X9387786Y-22875214D02*
X9387786Y-22575214D01*
X9359214Y-22618071D01*
X9330643Y-22646643D01*
X9302071Y-22660929D01*
X9587786Y-22575214D02*
X9587786Y-22632357D01*
X9702071Y-22575214D02*
X9702071Y-22632357D01*
X10144928Y-22989500D02*
X10130643Y-22975214D01*
X10102071Y-22932357D01*
X10087786Y-22903786D01*
X10073500Y-22860929D01*
X10059214Y-22789500D01*
X10059214Y-22732357D01*
X10073500Y-22660929D01*
X10087786Y-22618071D01*
X10102071Y-22589500D01*
X10130643Y-22546643D01*
X10144928Y-22532357D01*
X10416357Y-22875214D02*
X10244928Y-22875214D01*
X10330643Y-22875214D02*
X10330643Y-22575214D01*
X10302071Y-22618071D01*
X10273500Y-22646643D01*
X10244928Y-22660929D01*
X10530643Y-22603786D02*
X10544928Y-22589500D01*
X10573500Y-22575214D01*
X10644928Y-22575214D01*
X10673500Y-22589500D01*
X10687786Y-22603786D01*
X10702071Y-22632357D01*
X10702071Y-22660929D01*
X10687786Y-22703786D01*
X10516357Y-22875214D01*
X10702071Y-22875214D01*
X10873500Y-22703786D02*
X10844928Y-22689500D01*
X10830643Y-22675214D01*
X10816357Y-22646643D01*
X10816357Y-22632357D01*
X10830643Y-22603786D01*
X10844928Y-22589500D01*
X10873500Y-22575214D01*
X10930643Y-22575214D01*
X10959214Y-22589500D01*
X10973500Y-22603786D01*
X10987786Y-22632357D01*
X10987786Y-22646643D01*
X10973500Y-22675214D01*
X10959214Y-22689500D01*
X10930643Y-22703786D01*
X10873500Y-22703786D01*
X10844928Y-22718071D01*
X10830643Y-22732357D01*
X10816357Y-22760929D01*
X10816357Y-22818071D01*
X10830643Y-22846643D01*
X10844928Y-22860929D01*
X10873500Y-22875214D01*
X10930643Y-22875214D01*
X10959214Y-22860929D01*
X10973500Y-22846643D01*
X10987786Y-22818071D01*
X10987786Y-22760929D01*
X10973500Y-22732357D01*
X10959214Y-22718071D01*
X10930643Y-22703786D01*
X11344928Y-22875214D02*
X11344928Y-22575214D01*
X11473500Y-22875214D02*
X11473500Y-22718071D01*
X11459214Y-22689500D01*
X11430643Y-22675214D01*
X11387786Y-22675214D01*
X11359214Y-22689500D01*
X11344928Y-22703786D01*
X11659214Y-22875214D02*
X11630643Y-22860929D01*
X11616357Y-22846643D01*
X11602071Y-22818071D01*
X11602071Y-22732357D01*
X11616357Y-22703786D01*
X11630643Y-22689500D01*
X11659214Y-22675214D01*
X11702071Y-22675214D01*
X11730643Y-22689500D01*
X11744928Y-22703786D01*
X11759214Y-22732357D01*
X11759214Y-22818071D01*
X11744928Y-22846643D01*
X11730643Y-22860929D01*
X11702071Y-22875214D01*
X11659214Y-22875214D01*
X11930643Y-22875214D02*
X11902071Y-22860929D01*
X11887786Y-22832357D01*
X11887786Y-22575214D01*
X12159214Y-22860929D02*
X12130643Y-22875214D01*
X12073500Y-22875214D01*
X12044928Y-22860929D01*
X12030643Y-22832357D01*
X12030643Y-22718071D01*
X12044928Y-22689500D01*
X12073500Y-22675214D01*
X12130643Y-22675214D01*
X12159214Y-22689500D01*
X12173500Y-22718071D01*
X12173500Y-22746643D01*
X12030643Y-22775214D01*
X12287786Y-22860929D02*
X12316357Y-22875214D01*
X12373500Y-22875214D01*
X12402071Y-22860929D01*
X12416357Y-22832357D01*
X12416357Y-22818071D01*
X12402071Y-22789500D01*
X12373500Y-22775214D01*
X12330643Y-22775214D01*
X12302071Y-22760929D01*
X12287786Y-22732357D01*
X12287786Y-22718071D01*
X12302071Y-22689500D01*
X12330643Y-22675214D01*
X12373500Y-22675214D01*
X12402071Y-22689500D01*
X12516357Y-22989500D02*
X12530643Y-22975214D01*
X12559214Y-22932357D01*
X12573500Y-22903786D01*
X12587786Y-22860929D01*
X12602071Y-22789500D01*
X12602071Y-22732357D01*
X12587786Y-22660929D01*
X12573500Y-22618071D01*
X12559214Y-22589500D01*
X12530643Y-22546643D01*
X12516357Y-22532357D01*
X5369600Y-23091050D02*
X5458500Y-23179950D01*
X5458500Y-23091050D02*
X5369600Y-23179950D01*
X5458500Y-23135500D02*
G75*
G03*
X5458500Y-23135500I-44450J0D01*
G01*
X5802071Y-22971214D02*
X5830643Y-22971214D01*
X5859214Y-22985500D01*
X5873500Y-22999786D01*
X5887786Y-23028357D01*
X5902071Y-23085500D01*
X5902071Y-23156929D01*
X5887786Y-23214071D01*
X5873500Y-23242643D01*
X5859214Y-23256929D01*
X5830643Y-23271214D01*
X5802071Y-23271214D01*
X5773500Y-23256929D01*
X5759214Y-23242643D01*
X5744928Y-23214071D01*
X5730643Y-23156929D01*
X5730643Y-23085500D01*
X5744928Y-23028357D01*
X5759214Y-22999786D01*
X5773500Y-22985500D01*
X5802071Y-22971214D01*
X6030643Y-23242643D02*
X6044928Y-23256929D01*
X6030643Y-23271214D01*
X6016357Y-23256929D01*
X6030643Y-23242643D01*
X6030643Y-23271214D01*
X6216357Y-23099786D02*
X6187786Y-23085500D01*
X6173500Y-23071214D01*
X6159214Y-23042643D01*
X6159214Y-23028357D01*
X6173500Y-22999786D01*
X6187786Y-22985500D01*
X6216357Y-22971214D01*
X6273500Y-22971214D01*
X6302071Y-22985500D01*
X6316357Y-22999786D01*
X6330643Y-23028357D01*
X6330643Y-23042643D01*
X6316357Y-23071214D01*
X6302071Y-23085500D01*
X6273500Y-23099786D01*
X6216357Y-23099786D01*
X6187786Y-23114071D01*
X6173500Y-23128357D01*
X6159214Y-23156929D01*
X6159214Y-23214071D01*
X6173500Y-23242643D01*
X6187786Y-23256929D01*
X6216357Y-23271214D01*
X6273500Y-23271214D01*
X6302071Y-23256929D01*
X6316357Y-23242643D01*
X6330643Y-23214071D01*
X6330643Y-23156929D01*
X6316357Y-23128357D01*
X6302071Y-23114071D01*
X6273500Y-23099786D01*
X6473500Y-23271214D02*
X6530643Y-23271214D01*
X6559214Y-23256929D01*
X6573500Y-23242643D01*
X6602071Y-23199786D01*
X6616357Y-23142643D01*
X6616357Y-23028357D01*
X6602071Y-22999786D01*
X6587786Y-22985500D01*
X6559214Y-22971214D01*
X6502071Y-22971214D01*
X6473500Y-22985500D01*
X6459214Y-22999786D01*
X6444928Y-23028357D01*
X6444928Y-23099786D01*
X6459214Y-23128357D01*
X6473500Y-23142643D01*
X6502071Y-23156929D01*
X6559214Y-23156929D01*
X6587786Y-23142643D01*
X6602071Y-23128357D01*
X6616357Y-23099786D01*
X6744928Y-23271214D02*
X6744928Y-23071214D01*
X6744928Y-23099786D02*
X6759214Y-23085500D01*
X6787786Y-23071214D01*
X6830643Y-23071214D01*
X6859214Y-23085500D01*
X6873500Y-23114071D01*
X6873500Y-23271214D01*
X6873500Y-23114071D02*
X6887786Y-23085500D01*
X6916357Y-23071214D01*
X6959214Y-23071214D01*
X6987786Y-23085500D01*
X7002071Y-23114071D01*
X7002071Y-23271214D01*
X7144928Y-23271214D02*
X7144928Y-23071214D01*
X7144928Y-23099786D02*
X7159214Y-23085500D01*
X7187786Y-23071214D01*
X7230643Y-23071214D01*
X7259214Y-23085500D01*
X7273500Y-23114071D01*
X7273500Y-23271214D01*
X7273500Y-23114071D02*
X7287786Y-23085500D01*
X7316357Y-23071214D01*
X7359214Y-23071214D01*
X7387786Y-23085500D01*
X7402071Y-23114071D01*
X7402071Y-23271214D01*
X7987786Y-22956929D02*
X7730643Y-23342643D01*
X8373500Y-22971214D02*
X8402071Y-22971214D01*
X8430643Y-22985500D01*
X8444928Y-22999786D01*
X8459214Y-23028357D01*
X8473500Y-23085500D01*
X8473500Y-23156929D01*
X8459214Y-23214071D01*
X8444928Y-23242643D01*
X8430643Y-23256929D01*
X8402071Y-23271214D01*
X8373500Y-23271214D01*
X8344928Y-23256929D01*
X8330643Y-23242643D01*
X8316357Y-23214071D01*
X8302071Y-23156929D01*
X8302071Y-23085500D01*
X8316357Y-23028357D01*
X8330643Y-22999786D01*
X8344928Y-22985500D01*
X8373500Y-22971214D01*
X8602071Y-23242643D02*
X8616357Y-23256929D01*
X8602071Y-23271214D01*
X8587786Y-23256929D01*
X8602071Y-23242643D01*
X8602071Y-23271214D01*
X8802071Y-22971214D02*
X8830643Y-22971214D01*
X8859214Y-22985500D01*
X8873500Y-22999786D01*
X8887786Y-23028357D01*
X8902071Y-23085500D01*
X8902071Y-23156929D01*
X8887786Y-23214071D01*
X8873500Y-23242643D01*
X8859214Y-23256929D01*
X8830643Y-23271214D01*
X8802071Y-23271214D01*
X8773500Y-23256929D01*
X8759214Y-23242643D01*
X8744928Y-23214071D01*
X8730643Y-23156929D01*
X8730643Y-23085500D01*
X8744928Y-23028357D01*
X8759214Y-22999786D01*
X8773500Y-22985500D01*
X8802071Y-22971214D01*
X9002071Y-22971214D02*
X9187786Y-22971214D01*
X9087786Y-23085500D01*
X9130643Y-23085500D01*
X9159214Y-23099786D01*
X9173500Y-23114071D01*
X9187786Y-23142643D01*
X9187786Y-23214071D01*
X9173500Y-23242643D01*
X9159214Y-23256929D01*
X9130643Y-23271214D01*
X9044928Y-23271214D01*
X9016357Y-23256929D01*
X9002071Y-23242643D01*
X9459214Y-22971214D02*
X9316357Y-22971214D01*
X9302071Y-23114071D01*
X9316357Y-23099786D01*
X9344928Y-23085500D01*
X9416357Y-23085500D01*
X9444928Y-23099786D01*
X9459214Y-23114071D01*
X9473500Y-23142643D01*
X9473500Y-23214071D01*
X9459214Y-23242643D01*
X9444928Y-23256929D01*
X9416357Y-23271214D01*
X9344928Y-23271214D01*
X9316357Y-23256929D01*
X9302071Y-23242643D01*
X9587786Y-22971214D02*
X9587786Y-23028357D01*
X9702071Y-22971214D02*
X9702071Y-23028357D01*
X10144928Y-23385500D02*
X10130643Y-23371214D01*
X10102071Y-23328357D01*
X10087786Y-23299786D01*
X10073500Y-23256929D01*
X10059214Y-23185500D01*
X10059214Y-23128357D01*
X10073500Y-23056929D01*
X10087786Y-23014071D01*
X10102071Y-22985500D01*
X10130643Y-22942643D01*
X10144928Y-22928357D01*
X10230643Y-22971214D02*
X10416357Y-22971214D01*
X10316357Y-23085500D01*
X10359214Y-23085500D01*
X10387786Y-23099786D01*
X10402071Y-23114071D01*
X10416357Y-23142643D01*
X10416357Y-23214071D01*
X10402071Y-23242643D01*
X10387786Y-23256929D01*
X10359214Y-23271214D01*
X10273500Y-23271214D01*
X10244928Y-23256929D01*
X10230643Y-23242643D01*
X10773500Y-23271214D02*
X10773500Y-22971214D01*
X10902071Y-23271214D02*
X10902071Y-23114071D01*
X10887786Y-23085500D01*
X10859214Y-23071214D01*
X10816357Y-23071214D01*
X10787786Y-23085500D01*
X10773500Y-23099786D01*
X11087786Y-23271214D02*
X11059214Y-23256929D01*
X11044928Y-23242643D01*
X11030643Y-23214071D01*
X11030643Y-23128357D01*
X11044928Y-23099786D01*
X11059214Y-23085500D01*
X11087786Y-23071214D01*
X11130643Y-23071214D01*
X11159214Y-23085500D01*
X11173500Y-23099786D01*
X11187786Y-23128357D01*
X11187786Y-23214071D01*
X11173500Y-23242643D01*
X11159214Y-23256929D01*
X11130643Y-23271214D01*
X11087786Y-23271214D01*
X11359214Y-23271214D02*
X11330643Y-23256929D01*
X11316357Y-23228357D01*
X11316357Y-22971214D01*
X11587786Y-23256929D02*
X11559214Y-23271214D01*
X11502071Y-23271214D01*
X11473500Y-23256929D01*
X11459214Y-23228357D01*
X11459214Y-23114071D01*
X11473500Y-23085500D01*
X11502071Y-23071214D01*
X11559214Y-23071214D01*
X11587786Y-23085500D01*
X11602071Y-23114071D01*
X11602071Y-23142643D01*
X11459214Y-23171214D01*
X11716357Y-23256929D02*
X11744928Y-23271214D01*
X11802071Y-23271214D01*
X11830643Y-23256929D01*
X11844928Y-23228357D01*
X11844928Y-23214071D01*
X11830643Y-23185500D01*
X11802071Y-23171214D01*
X11759214Y-23171214D01*
X11730643Y-23156929D01*
X11716357Y-23128357D01*
X11716357Y-23114071D01*
X11730643Y-23085500D01*
X11759214Y-23071214D01*
X11802071Y-23071214D01*
X11830643Y-23085500D01*
X11944928Y-23385500D02*
X11959214Y-23371214D01*
X11987786Y-23328357D01*
X12002071Y-23299786D01*
X12016357Y-23256929D01*
X12030643Y-23185500D01*
X12030643Y-23128357D01*
X12016357Y-23056929D01*
X12002071Y-23014071D01*
X11987786Y-22985500D01*
X11959214Y-22942643D01*
X11944928Y-22928357D01*
X5358500Y-23481500D02*
X5458500Y-23581500D01*
X5458500Y-23481500D02*
X5358500Y-23581500D01*
X5408500Y-23481500D02*
X5408500Y-23581500D01*
X5358500Y-23531500D02*
X5458500Y-23531500D01*
X5902071Y-23667214D02*
X5730643Y-23667214D01*
X5816357Y-23667214D02*
X5816357Y-23367214D01*
X5787786Y-23410071D01*
X5759214Y-23438643D01*
X5730643Y-23452929D01*
X6030643Y-23638643D02*
X6044928Y-23652929D01*
X6030643Y-23667214D01*
X6016357Y-23652929D01*
X6030643Y-23638643D01*
X6030643Y-23667214D01*
X6230643Y-23367214D02*
X6259214Y-23367214D01*
X6287786Y-23381500D01*
X6302071Y-23395786D01*
X6316357Y-23424357D01*
X6330643Y-23481500D01*
X6330643Y-23552929D01*
X6316357Y-23610071D01*
X6302071Y-23638643D01*
X6287786Y-23652929D01*
X6259214Y-23667214D01*
X6230643Y-23667214D01*
X6202071Y-23652929D01*
X6187786Y-23638643D01*
X6173500Y-23610071D01*
X6159214Y-23552929D01*
X6159214Y-23481500D01*
X6173500Y-23424357D01*
X6187786Y-23395786D01*
X6202071Y-23381500D01*
X6230643Y-23367214D01*
X6516357Y-23367214D02*
X6544928Y-23367214D01*
X6573500Y-23381500D01*
X6587786Y-23395786D01*
X6602071Y-23424357D01*
X6616357Y-23481500D01*
X6616357Y-23552929D01*
X6602071Y-23610071D01*
X6587786Y-23638643D01*
X6573500Y-23652929D01*
X6544928Y-23667214D01*
X6516357Y-23667214D01*
X6487786Y-23652929D01*
X6473500Y-23638643D01*
X6459214Y-23610071D01*
X6444928Y-23552929D01*
X6444928Y-23481500D01*
X6459214Y-23424357D01*
X6473500Y-23395786D01*
X6487786Y-23381500D01*
X6516357Y-23367214D01*
X6744928Y-23667214D02*
X6744928Y-23467214D01*
X6744928Y-23495786D02*
X6759214Y-23481500D01*
X6787786Y-23467214D01*
X6830643Y-23467214D01*
X6859214Y-23481500D01*
X6873500Y-23510071D01*
X6873500Y-23667214D01*
X6873500Y-23510071D02*
X6887786Y-23481500D01*
X6916357Y-23467214D01*
X6959214Y-23467214D01*
X6987786Y-23481500D01*
X7002071Y-23510071D01*
X7002071Y-23667214D01*
X7144928Y-23667214D02*
X7144928Y-23467214D01*
X7144928Y-23495786D02*
X7159214Y-23481500D01*
X7187786Y-23467214D01*
X7230643Y-23467214D01*
X7259214Y-23481500D01*
X7273500Y-23510071D01*
X7273500Y-23667214D01*
X7273500Y-23510071D02*
X7287786Y-23481500D01*
X7316357Y-23467214D01*
X7359214Y-23467214D01*
X7387786Y-23481500D01*
X7402071Y-23510071D01*
X7402071Y-23667214D01*
X7987786Y-23352929D02*
X7730643Y-23738643D01*
X8373500Y-23367214D02*
X8402071Y-23367214D01*
X8430643Y-23381500D01*
X8444928Y-23395786D01*
X8459214Y-23424357D01*
X8473500Y-23481500D01*
X8473500Y-23552929D01*
X8459214Y-23610071D01*
X8444928Y-23638643D01*
X8430643Y-23652929D01*
X8402071Y-23667214D01*
X8373500Y-23667214D01*
X8344928Y-23652929D01*
X8330643Y-23638643D01*
X8316357Y-23610071D01*
X8302071Y-23552929D01*
X8302071Y-23481500D01*
X8316357Y-23424357D01*
X8330643Y-23395786D01*
X8344928Y-23381500D01*
X8373500Y-23367214D01*
X8602071Y-23638643D02*
X8616357Y-23652929D01*
X8602071Y-23667214D01*
X8587786Y-23652929D01*
X8602071Y-23638643D01*
X8602071Y-23667214D01*
X8802071Y-23367214D02*
X8830643Y-23367214D01*
X8859214Y-23381500D01*
X8873500Y-23395786D01*
X8887786Y-23424357D01*
X8902071Y-23481500D01*
X8902071Y-23552929D01*
X8887786Y-23610071D01*
X8873500Y-23638643D01*
X8859214Y-23652929D01*
X8830643Y-23667214D01*
X8802071Y-23667214D01*
X8773500Y-23652929D01*
X8759214Y-23638643D01*
X8744928Y-23610071D01*
X8730643Y-23552929D01*
X8730643Y-23481500D01*
X8744928Y-23424357D01*
X8759214Y-23395786D01*
X8773500Y-23381500D01*
X8802071Y-23367214D01*
X9002071Y-23367214D02*
X9187786Y-23367214D01*
X9087786Y-23481500D01*
X9130643Y-23481500D01*
X9159214Y-23495786D01*
X9173500Y-23510071D01*
X9187786Y-23538643D01*
X9187786Y-23610071D01*
X9173500Y-23638643D01*
X9159214Y-23652929D01*
X9130643Y-23667214D01*
X9044928Y-23667214D01*
X9016357Y-23652929D01*
X9002071Y-23638643D01*
X9330643Y-23667214D02*
X9387786Y-23667214D01*
X9416357Y-23652929D01*
X9430643Y-23638643D01*
X9459214Y-23595786D01*
X9473500Y-23538643D01*
X9473500Y-23424357D01*
X9459214Y-23395786D01*
X9444928Y-23381500D01*
X9416357Y-23367214D01*
X9359214Y-23367214D01*
X9330643Y-23381500D01*
X9316357Y-23395786D01*
X9302071Y-23424357D01*
X9302071Y-23495786D01*
X9316357Y-23524357D01*
X9330643Y-23538643D01*
X9359214Y-23552929D01*
X9416357Y-23552929D01*
X9444928Y-23538643D01*
X9459214Y-23524357D01*
X9473500Y-23495786D01*
X9587786Y-23367214D02*
X9587786Y-23424357D01*
X9702071Y-23367214D02*
X9702071Y-23424357D01*
X10144928Y-23781500D02*
X10130643Y-23767214D01*
X10102071Y-23724357D01*
X10087786Y-23695786D01*
X10073500Y-23652929D01*
X10059214Y-23581500D01*
X10059214Y-23524357D01*
X10073500Y-23452929D01*
X10087786Y-23410071D01*
X10102071Y-23381500D01*
X10130643Y-23338643D01*
X10144928Y-23324357D01*
X10244928Y-23395786D02*
X10259214Y-23381500D01*
X10287786Y-23367214D01*
X10359214Y-23367214D01*
X10387786Y-23381500D01*
X10402071Y-23395786D01*
X10416357Y-23424357D01*
X10416357Y-23452929D01*
X10402071Y-23495786D01*
X10230643Y-23667214D01*
X10416357Y-23667214D01*
X10516357Y-23367214D02*
X10702071Y-23367214D01*
X10602071Y-23481500D01*
X10644928Y-23481500D01*
X10673500Y-23495786D01*
X10687786Y-23510071D01*
X10702071Y-23538643D01*
X10702071Y-23610071D01*
X10687786Y-23638643D01*
X10673500Y-23652929D01*
X10644928Y-23667214D01*
X10559214Y-23667214D01*
X10530643Y-23652929D01*
X10516357Y-23638643D01*
X11059214Y-23667214D02*
X11059214Y-23367214D01*
X11187786Y-23667214D02*
X11187786Y-23510071D01*
X11173500Y-23481500D01*
X11144928Y-23467214D01*
X11102071Y-23467214D01*
X11073500Y-23481500D01*
X11059214Y-23495786D01*
X11373500Y-23667214D02*
X11344928Y-23652929D01*
X11330643Y-23638643D01*
X11316357Y-23610071D01*
X11316357Y-23524357D01*
X11330643Y-23495786D01*
X11344928Y-23481500D01*
X11373500Y-23467214D01*
X11416357Y-23467214D01*
X11444928Y-23481500D01*
X11459214Y-23495786D01*
X11473500Y-23524357D01*
X11473500Y-23610071D01*
X11459214Y-23638643D01*
X11444928Y-23652929D01*
X11416357Y-23667214D01*
X11373500Y-23667214D01*
X11644928Y-23667214D02*
X11616357Y-23652929D01*
X11602071Y-23624357D01*
X11602071Y-23367214D01*
X11873500Y-23652929D02*
X11844928Y-23667214D01*
X11787786Y-23667214D01*
X11759214Y-23652929D01*
X11744928Y-23624357D01*
X11744928Y-23510071D01*
X11759214Y-23481500D01*
X11787786Y-23467214D01*
X11844928Y-23467214D01*
X11873500Y-23481500D01*
X11887786Y-23510071D01*
X11887786Y-23538643D01*
X11744928Y-23567214D01*
X12002071Y-23652929D02*
X12030643Y-23667214D01*
X12087786Y-23667214D01*
X12116357Y-23652929D01*
X12130643Y-23624357D01*
X12130643Y-23610071D01*
X12116357Y-23581500D01*
X12087786Y-23567214D01*
X12044928Y-23567214D01*
X12016357Y-23552929D01*
X12002071Y-23524357D01*
X12002071Y-23510071D01*
X12016357Y-23481500D01*
X12044928Y-23467214D01*
X12087786Y-23467214D01*
X12116357Y-23481500D01*
X12230643Y-23781500D02*
X12244928Y-23767214D01*
X12273500Y-23724357D01*
X12287786Y-23695786D01*
X12302071Y-23652929D01*
X12316357Y-23581500D01*
X12316357Y-23524357D01*
X12302071Y-23452929D01*
X12287786Y-23410071D01*
X12273500Y-23381500D01*
X12244928Y-23338643D01*
X12230643Y-23324357D01*
X5306100Y-23851300D02*
X5458500Y-24003700D01*
X5458500Y-23851300D02*
X5306100Y-24003700D01*
X5436182Y-23981382D02*
X5436182Y-23873618D01*
X5328418Y-23873618D01*
X5328418Y-23981382D01*
X5436182Y-23981382D01*
X5902071Y-24063214D02*
X5730643Y-24063214D01*
X5816357Y-24063214D02*
X5816357Y-23763214D01*
X5787786Y-23806071D01*
X5759214Y-23834643D01*
X5730643Y-23848929D01*
X6030643Y-24034643D02*
X6044928Y-24048929D01*
X6030643Y-24063214D01*
X6016357Y-24048929D01*
X6030643Y-24034643D01*
X6030643Y-24063214D01*
X6316357Y-23763214D02*
X6173500Y-23763214D01*
X6159214Y-23906071D01*
X6173500Y-23891786D01*
X6202071Y-23877500D01*
X6273500Y-23877500D01*
X6302071Y-23891786D01*
X6316357Y-23906071D01*
X6330643Y-23934643D01*
X6330643Y-24006071D01*
X6316357Y-24034643D01*
X6302071Y-24048929D01*
X6273500Y-24063214D01*
X6202071Y-24063214D01*
X6173500Y-24048929D01*
X6159214Y-24034643D01*
X6444928Y-23791786D02*
X6459214Y-23777500D01*
X6487786Y-23763214D01*
X6559214Y-23763214D01*
X6587786Y-23777500D01*
X6602071Y-23791786D01*
X6616357Y-23820357D01*
X6616357Y-23848929D01*
X6602071Y-23891786D01*
X6430643Y-24063214D01*
X6616357Y-24063214D01*
X6744928Y-24063214D02*
X6744928Y-23863214D01*
X6744928Y-23891786D02*
X6759214Y-23877500D01*
X6787786Y-23863214D01*
X6830643Y-23863214D01*
X6859214Y-23877500D01*
X6873500Y-23906071D01*
X6873500Y-24063214D01*
X6873500Y-23906071D02*
X6887786Y-23877500D01*
X6916357Y-23863214D01*
X6959214Y-23863214D01*
X6987786Y-23877500D01*
X7002071Y-23906071D01*
X7002071Y-24063214D01*
X7144928Y-24063214D02*
X7144928Y-23863214D01*
X7144928Y-23891786D02*
X7159214Y-23877500D01*
X7187786Y-23863214D01*
X7230643Y-23863214D01*
X7259214Y-23877500D01*
X7273500Y-23906071D01*
X7273500Y-24063214D01*
X7273500Y-23906071D02*
X7287786Y-23877500D01*
X7316357Y-23863214D01*
X7359214Y-23863214D01*
X7387786Y-23877500D01*
X7402071Y-23906071D01*
X7402071Y-24063214D01*
X7987786Y-23748929D02*
X7730643Y-24134643D01*
X8373500Y-23763214D02*
X8402071Y-23763214D01*
X8430643Y-23777500D01*
X8444928Y-23791786D01*
X8459214Y-23820357D01*
X8473500Y-23877500D01*
X8473500Y-23948929D01*
X8459214Y-24006071D01*
X8444928Y-24034643D01*
X8430643Y-24048929D01*
X8402071Y-24063214D01*
X8373500Y-24063214D01*
X8344928Y-24048929D01*
X8330643Y-24034643D01*
X8316357Y-24006071D01*
X8302071Y-23948929D01*
X8302071Y-23877500D01*
X8316357Y-23820357D01*
X8330643Y-23791786D01*
X8344928Y-23777500D01*
X8373500Y-23763214D01*
X8602071Y-24034643D02*
X8616357Y-24048929D01*
X8602071Y-24063214D01*
X8587786Y-24048929D01*
X8602071Y-24034643D01*
X8602071Y-24063214D01*
X8802071Y-23763214D02*
X8830643Y-23763214D01*
X8859214Y-23777500D01*
X8873500Y-23791786D01*
X8887786Y-23820357D01*
X8902071Y-23877500D01*
X8902071Y-23948929D01*
X8887786Y-24006071D01*
X8873500Y-24034643D01*
X8859214Y-24048929D01*
X8830643Y-24063214D01*
X8802071Y-24063214D01*
X8773500Y-24048929D01*
X8759214Y-24034643D01*
X8744928Y-24006071D01*
X8730643Y-23948929D01*
X8730643Y-23877500D01*
X8744928Y-23820357D01*
X8759214Y-23791786D01*
X8773500Y-23777500D01*
X8802071Y-23763214D01*
X9159214Y-23763214D02*
X9102071Y-23763214D01*
X9073500Y-23777500D01*
X9059214Y-23791786D01*
X9030643Y-23834643D01*
X9016357Y-23891786D01*
X9016357Y-24006071D01*
X9030643Y-24034643D01*
X9044928Y-24048929D01*
X9073500Y-24063214D01*
X9130643Y-24063214D01*
X9159214Y-24048929D01*
X9173500Y-24034643D01*
X9187786Y-24006071D01*
X9187786Y-23934643D01*
X9173500Y-23906071D01*
X9159214Y-23891786D01*
X9130643Y-23877500D01*
X9073500Y-23877500D01*
X9044928Y-23891786D01*
X9030643Y-23906071D01*
X9016357Y-23934643D01*
X9373500Y-23763214D02*
X9402071Y-23763214D01*
X9430643Y-23777500D01*
X9444928Y-23791786D01*
X9459214Y-23820357D01*
X9473500Y-23877500D01*
X9473500Y-23948929D01*
X9459214Y-24006071D01*
X9444928Y-24034643D01*
X9430643Y-24048929D01*
X9402071Y-24063214D01*
X9373500Y-24063214D01*
X9344928Y-24048929D01*
X9330643Y-24034643D01*
X9316357Y-24006071D01*
X9302071Y-23948929D01*
X9302071Y-23877500D01*
X9316357Y-23820357D01*
X9330643Y-23791786D01*
X9344928Y-23777500D01*
X9373500Y-23763214D01*
X9587786Y-23763214D02*
X9587786Y-23820357D01*
X9702071Y-23763214D02*
X9702071Y-23820357D01*
X10144928Y-24177500D02*
X10130643Y-24163214D01*
X10102071Y-24120357D01*
X10087786Y-24091786D01*
X10073500Y-24048929D01*
X10059214Y-23977500D01*
X10059214Y-23920357D01*
X10073500Y-23848929D01*
X10087786Y-23806071D01*
X10102071Y-23777500D01*
X10130643Y-23734643D01*
X10144928Y-23720357D01*
X10387786Y-23763214D02*
X10330643Y-23763214D01*
X10302071Y-23777500D01*
X10287786Y-23791786D01*
X10259214Y-23834643D01*
X10244928Y-23891786D01*
X10244928Y-24006071D01*
X10259214Y-24034643D01*
X10273500Y-24048929D01*
X10302071Y-24063214D01*
X10359214Y-24063214D01*
X10387786Y-24048929D01*
X10402071Y-24034643D01*
X10416357Y-24006071D01*
X10416357Y-23934643D01*
X10402071Y-23906071D01*
X10387786Y-23891786D01*
X10359214Y-23877500D01*
X10302071Y-23877500D01*
X10273500Y-23891786D01*
X10259214Y-23906071D01*
X10244928Y-23934643D01*
X10587786Y-23891786D02*
X10559214Y-23877500D01*
X10544928Y-23863214D01*
X10530643Y-23834643D01*
X10530643Y-23820357D01*
X10544928Y-23791786D01*
X10559214Y-23777500D01*
X10587786Y-23763214D01*
X10644928Y-23763214D01*
X10673500Y-23777500D01*
X10687786Y-23791786D01*
X10702071Y-23820357D01*
X10702071Y-23834643D01*
X10687786Y-23863214D01*
X10673500Y-23877500D01*
X10644928Y-23891786D01*
X10587786Y-23891786D01*
X10559214Y-23906071D01*
X10544928Y-23920357D01*
X10530643Y-23948929D01*
X10530643Y-24006071D01*
X10544928Y-24034643D01*
X10559214Y-24048929D01*
X10587786Y-24063214D01*
X10644928Y-24063214D01*
X10673500Y-24048929D01*
X10687786Y-24034643D01*
X10702071Y-24006071D01*
X10702071Y-23948929D01*
X10687786Y-23920357D01*
X10673500Y-23906071D01*
X10644928Y-23891786D01*
X11059214Y-24063214D02*
X11059214Y-23763214D01*
X11187786Y-24063214D02*
X11187786Y-23906071D01*
X11173500Y-23877500D01*
X11144928Y-23863214D01*
X11102071Y-23863214D01*
X11073500Y-23877500D01*
X11059214Y-23891786D01*
X11373500Y-24063214D02*
X11344928Y-24048929D01*
X11330643Y-24034643D01*
X11316357Y-24006071D01*
X11316357Y-23920357D01*
X11330643Y-23891786D01*
X11344928Y-23877500D01*
X11373500Y-23863214D01*
X11416357Y-23863214D01*
X11444928Y-23877500D01*
X11459214Y-23891786D01*
X11473500Y-23920357D01*
X11473500Y-24006071D01*
X11459214Y-24034643D01*
X11444928Y-24048929D01*
X11416357Y-24063214D01*
X11373500Y-24063214D01*
X11644928Y-24063214D02*
X11616357Y-24048929D01*
X11602071Y-24020357D01*
X11602071Y-23763214D01*
X11873500Y-24048929D02*
X11844928Y-24063214D01*
X11787786Y-24063214D01*
X11759214Y-24048929D01*
X11744928Y-24020357D01*
X11744928Y-23906071D01*
X11759214Y-23877500D01*
X11787786Y-23863214D01*
X11844928Y-23863214D01*
X11873500Y-23877500D01*
X11887786Y-23906071D01*
X11887786Y-23934643D01*
X11744928Y-23963214D01*
X12002071Y-24048929D02*
X12030643Y-24063214D01*
X12087786Y-24063214D01*
X12116357Y-24048929D01*
X12130643Y-24020357D01*
X12130643Y-24006071D01*
X12116357Y-23977500D01*
X12087786Y-23963214D01*
X12044928Y-23963214D01*
X12016357Y-23948929D01*
X12002071Y-23920357D01*
X12002071Y-23906071D01*
X12016357Y-23877500D01*
X12044928Y-23863214D01*
X12087786Y-23863214D01*
X12116357Y-23877500D01*
X12230643Y-24177500D02*
X12244928Y-24163214D01*
X12273500Y-24120357D01*
X12287786Y-24091786D01*
X12302071Y-24048929D01*
X12316357Y-23977500D01*
X12316357Y-23920357D01*
X12302071Y-23848929D01*
X12287786Y-23806071D01*
X12273500Y-23777500D01*
X12244928Y-23734643D01*
X12230643Y-23720357D01*
X5128300Y-24158400D02*
X5458500Y-24488600D01*
X5458500Y-24158400D02*
X5128300Y-24488600D01*
X5293400Y-24488600D02*
X5458500Y-24323500D01*
X5293400Y-24158400D01*
X5128300Y-24323500D01*
X5293400Y-24488600D01*
X5716357Y-24159214D02*
X5902071Y-24159214D01*
X5802071Y-24273500D01*
X5844928Y-24273500D01*
X5873500Y-24287786D01*
X5887786Y-24302071D01*
X5902071Y-24330643D01*
X5902071Y-24402071D01*
X5887786Y-24430643D01*
X5873500Y-24444929D01*
X5844928Y-24459214D01*
X5759214Y-24459214D01*
X5730643Y-24444929D01*
X5716357Y-24430643D01*
X6030643Y-24430643D02*
X6044928Y-24444929D01*
X6030643Y-24459214D01*
X6016357Y-24444929D01*
X6030643Y-24430643D01*
X6030643Y-24459214D01*
X6144928Y-24159214D02*
X6330643Y-24159214D01*
X6230643Y-24273500D01*
X6273500Y-24273500D01*
X6302071Y-24287786D01*
X6316357Y-24302071D01*
X6330643Y-24330643D01*
X6330643Y-24402071D01*
X6316357Y-24430643D01*
X6302071Y-24444929D01*
X6273500Y-24459214D01*
X6187786Y-24459214D01*
X6159214Y-24444929D01*
X6144928Y-24430643D01*
X6516357Y-24159214D02*
X6544928Y-24159214D01*
X6573500Y-24173500D01*
X6587786Y-24187786D01*
X6602071Y-24216357D01*
X6616357Y-24273500D01*
X6616357Y-24344929D01*
X6602071Y-24402071D01*
X6587786Y-24430643D01*
X6573500Y-24444929D01*
X6544928Y-24459214D01*
X6516357Y-24459214D01*
X6487786Y-24444929D01*
X6473500Y-24430643D01*
X6459214Y-24402071D01*
X6444928Y-24344929D01*
X6444928Y-24273500D01*
X6459214Y-24216357D01*
X6473500Y-24187786D01*
X6487786Y-24173500D01*
X6516357Y-24159214D01*
X6744928Y-24459214D02*
X6744928Y-24259214D01*
X6744928Y-24287786D02*
X6759214Y-24273500D01*
X6787786Y-24259214D01*
X6830643Y-24259214D01*
X6859214Y-24273500D01*
X6873500Y-24302071D01*
X6873500Y-24459214D01*
X6873500Y-24302071D02*
X6887786Y-24273500D01*
X6916357Y-24259214D01*
X6959214Y-24259214D01*
X6987786Y-24273500D01*
X7002071Y-24302071D01*
X7002071Y-24459214D01*
X7144928Y-24459214D02*
X7144928Y-24259214D01*
X7144928Y-24287786D02*
X7159214Y-24273500D01*
X7187786Y-24259214D01*
X7230643Y-24259214D01*
X7259214Y-24273500D01*
X7273500Y-24302071D01*
X7273500Y-24459214D01*
X7273500Y-24302071D02*
X7287786Y-24273500D01*
X7316357Y-24259214D01*
X7359214Y-24259214D01*
X7387786Y-24273500D01*
X7402071Y-24302071D01*
X7402071Y-24459214D01*
X7987786Y-24144929D02*
X7730643Y-24530643D01*
X8373500Y-24159214D02*
X8402071Y-24159214D01*
X8430643Y-24173500D01*
X8444928Y-24187786D01*
X8459214Y-24216357D01*
X8473500Y-24273500D01*
X8473500Y-24344929D01*
X8459214Y-24402071D01*
X8444928Y-24430643D01*
X8430643Y-24444929D01*
X8402071Y-24459214D01*
X8373500Y-24459214D01*
X8344928Y-24444929D01*
X8330643Y-24430643D01*
X8316357Y-24402071D01*
X8302071Y-24344929D01*
X8302071Y-24273500D01*
X8316357Y-24216357D01*
X8330643Y-24187786D01*
X8344928Y-24173500D01*
X8373500Y-24159214D01*
X8602071Y-24430643D02*
X8616357Y-24444929D01*
X8602071Y-24459214D01*
X8587786Y-24444929D01*
X8602071Y-24430643D01*
X8602071Y-24459214D01*
X8902071Y-24459214D02*
X8730643Y-24459214D01*
X8816357Y-24459214D02*
X8816357Y-24159214D01*
X8787786Y-24202071D01*
X8759214Y-24230643D01*
X8730643Y-24244929D01*
X9002071Y-24159214D02*
X9187786Y-24159214D01*
X9087786Y-24273500D01*
X9130643Y-24273500D01*
X9159214Y-24287786D01*
X9173500Y-24302071D01*
X9187786Y-24330643D01*
X9187786Y-24402071D01*
X9173500Y-24430643D01*
X9159214Y-24444929D01*
X9130643Y-24459214D01*
X9044928Y-24459214D01*
X9016357Y-24444929D01*
X9002071Y-24430643D01*
X9373500Y-24159214D02*
X9402071Y-24159214D01*
X9430643Y-24173500D01*
X9444928Y-24187786D01*
X9459214Y-24216357D01*
X9473500Y-24273500D01*
X9473500Y-24344929D01*
X9459214Y-24402071D01*
X9444928Y-24430643D01*
X9430643Y-24444929D01*
X9402071Y-24459214D01*
X9373500Y-24459214D01*
X9344928Y-24444929D01*
X9330643Y-24430643D01*
X9316357Y-24402071D01*
X9302071Y-24344929D01*
X9302071Y-24273500D01*
X9316357Y-24216357D01*
X9330643Y-24187786D01*
X9344928Y-24173500D01*
X9373500Y-24159214D01*
X9587786Y-24159214D02*
X9587786Y-24216357D01*
X9702071Y-24159214D02*
X9702071Y-24216357D01*
X10144928Y-24573500D02*
X10130643Y-24559214D01*
X10102071Y-24516357D01*
X10087786Y-24487786D01*
X10073500Y-24444929D01*
X10059214Y-24373500D01*
X10059214Y-24316357D01*
X10073500Y-24244929D01*
X10087786Y-24202071D01*
X10102071Y-24173500D01*
X10130643Y-24130643D01*
X10144928Y-24116357D01*
X10387786Y-24259214D02*
X10387786Y-24459214D01*
X10316357Y-24144929D02*
X10244928Y-24359214D01*
X10430643Y-24359214D01*
X10773500Y-24459214D02*
X10773500Y-24159214D01*
X10902071Y-24459214D02*
X10902071Y-24302071D01*
X10887786Y-24273500D01*
X10859214Y-24259214D01*
X10816357Y-24259214D01*
X10787786Y-24273500D01*
X10773500Y-24287786D01*
X11087786Y-24459214D02*
X11059214Y-24444929D01*
X11044928Y-24430643D01*
X11030643Y-24402071D01*
X11030643Y-24316357D01*
X11044928Y-24287786D01*
X11059214Y-24273500D01*
X11087786Y-24259214D01*
X11130643Y-24259214D01*
X11159214Y-24273500D01*
X11173500Y-24287786D01*
X11187786Y-24316357D01*
X11187786Y-24402071D01*
X11173500Y-24430643D01*
X11159214Y-24444929D01*
X11130643Y-24459214D01*
X11087786Y-24459214D01*
X11359214Y-24459214D02*
X11330643Y-24444929D01*
X11316357Y-24416357D01*
X11316357Y-24159214D01*
X11587786Y-24444929D02*
X11559214Y-24459214D01*
X11502071Y-24459214D01*
X11473500Y-24444929D01*
X11459214Y-24416357D01*
X11459214Y-24302071D01*
X11473500Y-24273500D01*
X11502071Y-24259214D01*
X11559214Y-24259214D01*
X11587786Y-24273500D01*
X11602071Y-24302071D01*
X11602071Y-24330643D01*
X11459214Y-24359214D01*
X11716357Y-24444929D02*
X11744928Y-24459214D01*
X11802071Y-24459214D01*
X11830643Y-24444929D01*
X11844928Y-24416357D01*
X11844928Y-24402071D01*
X11830643Y-24373500D01*
X11802071Y-24359214D01*
X11759214Y-24359214D01*
X11730643Y-24344929D01*
X11716357Y-24316357D01*
X11716357Y-24302071D01*
X11730643Y-24273500D01*
X11759214Y-24259214D01*
X11802071Y-24259214D01*
X11830643Y-24273500D01*
X11944928Y-24573500D02*
X11959214Y-24559214D01*
X11987786Y-24516357D01*
X12002071Y-24487786D01*
X12016357Y-24444929D01*
X12030643Y-24373500D01*
X12030643Y-24316357D01*
X12016357Y-24244929D01*
X12002071Y-24202071D01*
X11987786Y-24173500D01*
X11959214Y-24130643D01*
X11944928Y-24116357D01*
M02*
