%TF.GenerationSoftware,KiCad,Pcbnew,(5.1.6)-1*%
%TF.CreationDate,2020-12-17T21:40:49-06:00*%
%TF.ProjectId,controller,636f6e74-726f-46c6-9c65-722e6b696361,rev?*%
%TF.SameCoordinates,Original*%
%TF.FileFunction,Legend,Top*%
%TF.FilePolarity,Positive*%
%FSLAX46Y46*%
G04 Gerber Fmt 4.6, Leading zero omitted, Abs format (unit mm)*
G04 Created by KiCad (PCBNEW (5.1.6)-1) date 2020-12-17 21:40:49*
%MOMM*%
%LPD*%
G01*
G04 APERTURE LIST*
%ADD10C,0.150000*%
%ADD11C,0.120000*%
G04 APERTURE END LIST*
D10*
X111619047Y-31857142D02*
X112285714Y-31857142D01*
X112571428Y-32904761D02*
X111619047Y-32904761D01*
X111619047Y-30904761D01*
X112571428Y-30904761D01*
X113333333Y-32809523D02*
X113619047Y-32904761D01*
X114095238Y-32904761D01*
X114285714Y-32809523D01*
X114380952Y-32714285D01*
X114476190Y-32523809D01*
X114476190Y-32333333D01*
X114380952Y-32142857D01*
X114285714Y-32047619D01*
X114095238Y-31952380D01*
X113714285Y-31857142D01*
X113523809Y-31761904D01*
X113428571Y-31666666D01*
X113333333Y-31476190D01*
X113333333Y-31285714D01*
X113428571Y-31095238D01*
X113523809Y-31000000D01*
X113714285Y-30904761D01*
X114190476Y-30904761D01*
X114476190Y-31000000D01*
X116476190Y-32714285D02*
X116380952Y-32809523D01*
X116095238Y-32904761D01*
X115904761Y-32904761D01*
X115619047Y-32809523D01*
X115428571Y-32619047D01*
X115333333Y-32428571D01*
X115238095Y-32047619D01*
X115238095Y-31761904D01*
X115333333Y-31380952D01*
X115428571Y-31190476D01*
X115619047Y-31000000D01*
X115904761Y-30904761D01*
X116095238Y-30904761D01*
X116380952Y-31000000D01*
X116476190Y-31095238D01*
X70523809Y-43000000D02*
X70333333Y-42904761D01*
X70047619Y-42904761D01*
X69761904Y-43000000D01*
X69571428Y-43190476D01*
X69476190Y-43380952D01*
X69380952Y-43761904D01*
X69380952Y-44047619D01*
X69476190Y-44428571D01*
X69571428Y-44619047D01*
X69761904Y-44809523D01*
X70047619Y-44904761D01*
X70238095Y-44904761D01*
X70523809Y-44809523D01*
X70619047Y-44714285D01*
X70619047Y-44047619D01*
X70238095Y-44047619D01*
X101428571Y-62809523D02*
X101714285Y-62904761D01*
X102190476Y-62904761D01*
X102380952Y-62809523D01*
X102476190Y-62714285D01*
X102571428Y-62523809D01*
X102571428Y-62333333D01*
X102476190Y-62142857D01*
X102380952Y-62047619D01*
X102190476Y-61952380D01*
X101809523Y-61857142D01*
X101619047Y-61761904D01*
X101523809Y-61666666D01*
X101428571Y-61476190D01*
X101428571Y-61285714D01*
X101523809Y-61095238D01*
X101619047Y-61000000D01*
X101809523Y-60904761D01*
X102285714Y-60904761D01*
X102571428Y-61000000D01*
X117476190Y-47904761D02*
X117476190Y-45904761D01*
X117952380Y-45904761D01*
X118238095Y-46000000D01*
X118428571Y-46190476D01*
X118523809Y-46380952D01*
X118619047Y-46761904D01*
X118619047Y-47047619D01*
X118523809Y-47428571D01*
X118428571Y-47619047D01*
X118238095Y-47809523D01*
X117952380Y-47904761D01*
X117476190Y-47904761D01*
X82523809Y-47333333D02*
X83476190Y-47333333D01*
X82333333Y-47904761D02*
X83000000Y-45904761D01*
X83666666Y-47904761D01*
X101142857Y-30904761D02*
X101619047Y-32904761D01*
X102000000Y-31476190D01*
X102380952Y-32904761D01*
X102857142Y-30904761D01*
X90761904Y-31095238D02*
X90571428Y-31000000D01*
X90380952Y-30809523D01*
X90095238Y-30523809D01*
X89904761Y-30428571D01*
X89714285Y-30428571D01*
X89809523Y-30904761D02*
X89619047Y-30809523D01*
X89428571Y-30619047D01*
X89333333Y-30238095D01*
X89333333Y-29571428D01*
X89428571Y-29190476D01*
X89619047Y-29000000D01*
X89809523Y-28904761D01*
X90190476Y-28904761D01*
X90380952Y-29000000D01*
X90571428Y-29190476D01*
X90666666Y-29571428D01*
X90666666Y-30238095D01*
X90571428Y-30619047D01*
X90380952Y-30809523D01*
X90190476Y-30904761D01*
X89809523Y-30904761D01*
D11*
%TO.C,SW7*%
X100000000Y-54000000D02*
X104000000Y-54000000D01*
X100000000Y-60000000D02*
X104000000Y-60000000D01*
%TO.C,SW6*%
X68000000Y-46000000D02*
X72000000Y-46000000D01*
X68000000Y-52000000D02*
X72000000Y-52000000D01*
%TO.C,SW5*%
X87500000Y-44000000D02*
X91500000Y-44000000D01*
X87500000Y-50000000D02*
X91500000Y-50000000D01*
%TO.C,SW4*%
X111000000Y-44000000D02*
X115000000Y-44000000D01*
X111000000Y-50000000D02*
X115000000Y-50000000D01*
%TO.C,SW3*%
X112000000Y-23000000D02*
X116000000Y-23000000D01*
X112000000Y-29000000D02*
X116000000Y-29000000D01*
%TO.C,SW2*%
X100000000Y-34000000D02*
X104000000Y-34000000D01*
X100000000Y-40000000D02*
X104000000Y-40000000D01*
%TO.C,SW1*%
X88000000Y-32000000D02*
X92000000Y-32000000D01*
X88000000Y-38000000D02*
X92000000Y-38000000D01*
%TO.C,pull_down1*%
X91810000Y-23630000D02*
X91810000Y-26370000D01*
X91810000Y-26370000D02*
X98350000Y-26370000D01*
X98350000Y-26370000D02*
X98350000Y-23630000D01*
X98350000Y-23630000D02*
X91810000Y-23630000D01*
X91040000Y-25000000D02*
X91810000Y-25000000D01*
X99120000Y-25000000D02*
X98350000Y-25000000D01*
%TO.C,D1*%
X86030000Y-22460000D02*
X55115000Y-22460000D01*
X55115000Y-22460000D02*
X55115000Y-32620000D01*
X55115000Y-32620000D02*
X86030000Y-32620000D01*
X86030000Y-32620000D02*
X86030000Y-22460000D01*
%TO.C,.2*%
D10*
X109443809Y-56737142D02*
X109491428Y-56784761D01*
X109443809Y-56832380D01*
X109396190Y-56784761D01*
X109443809Y-56737142D01*
X109443809Y-56832380D01*
X109872380Y-55927619D02*
X109920000Y-55880000D01*
X110015238Y-55832380D01*
X110253333Y-55832380D01*
X110348571Y-55880000D01*
X110396190Y-55927619D01*
X110443809Y-56022857D01*
X110443809Y-56118095D01*
X110396190Y-56260952D01*
X109824761Y-56832380D01*
X110443809Y-56832380D01*
%TO.C,.1*%
X109523809Y-46737142D02*
X109571428Y-46784761D01*
X109523809Y-46832380D01*
X109476190Y-46784761D01*
X109523809Y-46737142D01*
X109523809Y-46832380D01*
X110523809Y-46832380D02*
X109952380Y-46832380D01*
X110238095Y-46832380D02*
X110238095Y-45832380D01*
X110142857Y-45975238D01*
X110047619Y-46070476D01*
X109952380Y-46118095D01*
%TO.C,U2*%
X18888095Y-40202380D02*
X18888095Y-41011904D01*
X18935714Y-41107142D01*
X18983333Y-41154761D01*
X19078571Y-41202380D01*
X19269047Y-41202380D01*
X19364285Y-41154761D01*
X19411904Y-41107142D01*
X19459523Y-41011904D01*
X19459523Y-40202380D01*
X19888095Y-40297619D02*
X19935714Y-40250000D01*
X20030952Y-40202380D01*
X20269047Y-40202380D01*
X20364285Y-40250000D01*
X20411904Y-40297619D01*
X20459523Y-40392857D01*
X20459523Y-40488095D01*
X20411904Y-40630952D01*
X19840476Y-41202380D01*
X20459523Y-41202380D01*
%TO.C,pull_down1*%
X91151428Y-22415714D02*
X91151428Y-23415714D01*
X91151428Y-22463333D02*
X91246666Y-22415714D01*
X91437142Y-22415714D01*
X91532380Y-22463333D01*
X91580000Y-22510952D01*
X91627619Y-22606190D01*
X91627619Y-22891904D01*
X91580000Y-22987142D01*
X91532380Y-23034761D01*
X91437142Y-23082380D01*
X91246666Y-23082380D01*
X91151428Y-23034761D01*
X92484761Y-22415714D02*
X92484761Y-23082380D01*
X92056190Y-22415714D02*
X92056190Y-22939523D01*
X92103809Y-23034761D01*
X92199047Y-23082380D01*
X92341904Y-23082380D01*
X92437142Y-23034761D01*
X92484761Y-22987142D01*
X93103809Y-23082380D02*
X93008571Y-23034761D01*
X92960952Y-22939523D01*
X92960952Y-22082380D01*
X93627619Y-23082380D02*
X93532380Y-23034761D01*
X93484761Y-22939523D01*
X93484761Y-22082380D01*
X93770476Y-23177619D02*
X94532380Y-23177619D01*
X95199047Y-23082380D02*
X95199047Y-22082380D01*
X95199047Y-23034761D02*
X95103809Y-23082380D01*
X94913333Y-23082380D01*
X94818095Y-23034761D01*
X94770476Y-22987142D01*
X94722857Y-22891904D01*
X94722857Y-22606190D01*
X94770476Y-22510952D01*
X94818095Y-22463333D01*
X94913333Y-22415714D01*
X95103809Y-22415714D01*
X95199047Y-22463333D01*
X95818095Y-23082380D02*
X95722857Y-23034761D01*
X95675238Y-22987142D01*
X95627619Y-22891904D01*
X95627619Y-22606190D01*
X95675238Y-22510952D01*
X95722857Y-22463333D01*
X95818095Y-22415714D01*
X95960952Y-22415714D01*
X96056190Y-22463333D01*
X96103809Y-22510952D01*
X96151428Y-22606190D01*
X96151428Y-22891904D01*
X96103809Y-22987142D01*
X96056190Y-23034761D01*
X95960952Y-23082380D01*
X95818095Y-23082380D01*
X96484761Y-22415714D02*
X96675238Y-23082380D01*
X96865714Y-22606190D01*
X97056190Y-23082380D01*
X97246666Y-22415714D01*
X97627619Y-22415714D02*
X97627619Y-23082380D01*
X97627619Y-22510952D02*
X97675238Y-22463333D01*
X97770476Y-22415714D01*
X97913333Y-22415714D01*
X98008571Y-22463333D01*
X98056190Y-22558571D01*
X98056190Y-23082380D01*
X99056190Y-23082380D02*
X98484761Y-23082380D01*
X98770476Y-23082380D02*
X98770476Y-22082380D01*
X98675238Y-22225238D01*
X98580000Y-22320476D01*
X98484761Y-22368095D01*
%TO.C,D1*%
X65826904Y-19602380D02*
X65826904Y-18602380D01*
X66065000Y-18602380D01*
X66207857Y-18650000D01*
X66303095Y-18745238D01*
X66350714Y-18840476D01*
X66398333Y-19030952D01*
X66398333Y-19173809D01*
X66350714Y-19364285D01*
X66303095Y-19459523D01*
X66207857Y-19554761D01*
X66065000Y-19602380D01*
X65826904Y-19602380D01*
X67350714Y-19602380D02*
X66779285Y-19602380D01*
X67065000Y-19602380D02*
X67065000Y-18602380D01*
X66969761Y-18745238D01*
X66874523Y-18840476D01*
X66779285Y-18888095D01*
%TD*%
M02*
