%TF.GenerationSoftware,KiCad,Pcbnew,(5.1.6)-1*%
%TF.CreationDate,2020-12-17T21:40:49-06:00*%
%TF.ProjectId,controller,636f6e74-726f-46c6-9c65-722e6b696361,rev?*%
%TF.SameCoordinates,Original*%
%TF.FileFunction,Copper,L1,Top*%
%TF.FilePolarity,Positive*%
%FSLAX46Y46*%
G04 Gerber Fmt 4.6, Leading zero omitted, Abs format (unit mm)*
G04 Created by KiCad (PCBNEW (5.1.6)-1) date 2020-12-17 21:40:49*
%MOMM*%
%LPD*%
G01*
G04 APERTURE LIST*
%TA.AperFunction,ComponentPad*%
%ADD10O,1.700000X1.700000*%
%TD*%
%TA.AperFunction,ComponentPad*%
%ADD11R,1.700000X1.700000*%
%TD*%
%TA.AperFunction,ComponentPad*%
%ADD12C,1.524000*%
%TD*%
%TA.AperFunction,ComponentPad*%
%ADD13C,1.295400*%
%TD*%
%TA.AperFunction,ComponentPad*%
%ADD14R,1.295400X1.295400*%
%TD*%
%TA.AperFunction,ComponentPad*%
%ADD15C,2.250000*%
%TD*%
%TA.AperFunction,ComponentPad*%
%ADD16C,1.750000*%
%TD*%
%TA.AperFunction,ComponentPad*%
%ADD17O,1.600000X1.600000*%
%TD*%
%TA.AperFunction,ComponentPad*%
%ADD18C,1.600000*%
%TD*%
%TA.AperFunction,ComponentPad*%
%ADD19C,4.572000*%
%TD*%
%TA.AperFunction,ComponentPad*%
%ADD20C,1.016000*%
%TD*%
%TA.AperFunction,ViaPad*%
%ADD21C,0.800000*%
%TD*%
%TA.AperFunction,Conductor*%
%ADD22C,0.250000*%
%TD*%
%TA.AperFunction,Conductor*%
%ADD23C,0.254000*%
%TD*%
G04 APERTURE END LIST*
D10*
%TO.P,J1,7*%
%TO.N,Net-(D1-Pad9)*%
X62300000Y-37620000D03*
%TO.P,J1,6*%
%TO.N,Net-(D1-Pad10)*%
X64840000Y-37620000D03*
%TO.P,J1,5*%
%TO.N,Net-(D1-Pad11)*%
X67380000Y-37620000D03*
%TO.P,J1,4*%
%TO.N,Net-(D1-Pad12)*%
X69920000Y-37620000D03*
%TO.P,J1,3*%
%TO.N,Net-(D1-Pad13)*%
X72460000Y-37620000D03*
%TO.P,J1,2*%
%TO.N,Net-(D1-Pad14)*%
X75000000Y-37620000D03*
D11*
%TO.P,J1,1*%
%TO.N,Net-(D1-Pad15)*%
X77540000Y-37620000D03*
%TD*%
D12*
%TO.P,fet1,3*%
%TO.N,Net-(U2-Pad7)*%
X86841425Y-70000000D03*
%TO.P,fet1,2*%
%TO.N,+5V*%
X84301425Y-70000000D03*
%TO.P,fet1,1*%
%TO.N,qa*%
X81761425Y-70000000D03*
%TD*%
D13*
%TO.P,U1,16*%
%TO.N,+5V*%
X49080000Y-25000000D03*
%TO.P,U1,15*%
%TO.N,qa*%
X46540000Y-25000000D03*
%TO.P,U1,14*%
%TO.N,data*%
X44000000Y-25000000D03*
%TO.P,U1,13*%
%TO.N,GND*%
X41460000Y-25000000D03*
%TO.P,U1,12*%
%TO.N,latch*%
X38920000Y-25000000D03*
%TO.P,U1,11*%
%TO.N,clk*%
X36380000Y-25000000D03*
%TO.P,U1,10*%
%TO.N,+5V*%
X33840000Y-25000000D03*
%TO.P,U1,9*%
%TO.N,qh'*%
X31300000Y-25000000D03*
%TO.P,U1,8*%
%TO.N,GND*%
X31300000Y-32620000D03*
%TO.P,U1,7*%
%TO.N,qh*%
X33840000Y-32620000D03*
%TO.P,U1,6*%
%TO.N,qg*%
X36380000Y-32620000D03*
%TO.P,U1,5*%
%TO.N,qf*%
X38920000Y-32620000D03*
%TO.P,U1,4*%
%TO.N,qe*%
X41460000Y-32620000D03*
%TO.P,U1,3*%
%TO.N,qd*%
X44000000Y-32620000D03*
%TO.P,U1,2*%
%TO.N,qc*%
X46540000Y-32620000D03*
D14*
%TO.P,U1,1*%
%TO.N,qb*%
X49080000Y-32620000D03*
%TD*%
D11*
%TO.P,J2,1*%
%TO.N,qh'*%
X22000000Y-25000000D03*
%TD*%
D12*
%TO.P,.2,_*%
%TO.N,N/C*%
X117540000Y-71620000D03*
X115000000Y-71620000D03*
X112460000Y-71620000D03*
X109920000Y-71620000D03*
X117540000Y-69080000D03*
X115000000Y-69080000D03*
X112460000Y-69080000D03*
X109920000Y-69080000D03*
X117540000Y-66540000D03*
X117540000Y-64000000D03*
X115000000Y-66540000D03*
X112460000Y-66540000D03*
X109920000Y-66540000D03*
X115000000Y-64000000D03*
X112460000Y-64000000D03*
X109920000Y-64000000D03*
%TD*%
%TO.P,.1,_*%
%TO.N,N/C*%
X117620000Y-61620000D03*
X115080000Y-61620000D03*
X112540000Y-61620000D03*
X110000000Y-61620000D03*
X117620000Y-59080000D03*
X115080000Y-59080000D03*
X112540000Y-59080000D03*
X110000000Y-59080000D03*
X117620000Y-56540000D03*
X117620000Y-54000000D03*
X115080000Y-56540000D03*
X112540000Y-56540000D03*
X110000000Y-56540000D03*
X115080000Y-54000000D03*
X112540000Y-54000000D03*
X110000000Y-54000000D03*
%TD*%
D15*
%TO.P,U2,14*%
%TO.N,N/C*%
X41320000Y-42500000D03*
%TO.P,U2,13*%
X41320000Y-52500000D03*
%TO.P,U2,12*%
X28680000Y-52500000D03*
%TO.P,U2,11*%
X28680000Y-42500000D03*
D16*
%TO.P,U2,7*%
%TO.N,Net-(U2-Pad7)*%
X31750000Y-53250000D03*
%TO.P,U2,8*%
%TO.N,watch*%
X31750000Y-57750000D03*
X38250000Y-57750000D03*
%TO.P,U2,7*%
%TO.N,Net-(U2-Pad7)*%
X38250000Y-53250000D03*
%TO.P,U2,6*%
%TO.N,GND*%
X32500000Y-38750000D03*
%TO.P,U2,4*%
%TO.N,+5V*%
X37500000Y-38750000D03*
%TO.P,U2,5*%
%TO.N,vert*%
X35000000Y-38750000D03*
%TO.P,U2,3*%
%TO.N,GND*%
X43750000Y-50000000D03*
%TO.P,U2,1*%
%TO.N,+5V*%
X43750000Y-45000000D03*
%TO.P,U2,2*%
%TO.N,horz*%
X43750000Y-47500000D03*
%TD*%
%TO.P,SW7,1*%
%TO.N,Net-(SW7-Pad1)*%
X105000000Y-54000000D03*
%TO.P,SW7,2*%
%TO.N,watch*%
X105000000Y-60000000D03*
X99000000Y-60000000D03*
%TO.P,SW7,1*%
%TO.N,Net-(SW7-Pad1)*%
X99000000Y-54000000D03*
%TD*%
%TO.P,SW6,1*%
%TO.N,Net-(SW6-Pad1)*%
X73000000Y-46000000D03*
%TO.P,SW6,2*%
%TO.N,watch*%
X73000000Y-52000000D03*
X67000000Y-52000000D03*
%TO.P,SW6,1*%
%TO.N,Net-(SW6-Pad1)*%
X67000000Y-46000000D03*
%TD*%
%TO.P,SW5,1*%
%TO.N,Net-(SW5-Pad1)*%
X92500000Y-44000000D03*
%TO.P,SW5,2*%
%TO.N,watch*%
X92500000Y-50000000D03*
X86500000Y-50000000D03*
%TO.P,SW5,1*%
%TO.N,Net-(SW5-Pad1)*%
X86500000Y-44000000D03*
%TD*%
%TO.P,SW4,1*%
%TO.N,Net-(SW4-Pad1)*%
X116000000Y-44000000D03*
%TO.P,SW4,2*%
%TO.N,watch*%
X116000000Y-50000000D03*
X110000000Y-50000000D03*
%TO.P,SW4,1*%
%TO.N,Net-(SW4-Pad1)*%
X110000000Y-44000000D03*
%TD*%
%TO.P,SW3,1*%
%TO.N,Net-(SW3-Pad1)*%
X117000000Y-23000000D03*
%TO.P,SW3,2*%
%TO.N,watch*%
X117000000Y-29000000D03*
X111000000Y-29000000D03*
%TO.P,SW3,1*%
%TO.N,Net-(SW3-Pad1)*%
X111000000Y-23000000D03*
%TD*%
%TO.P,SW2,1*%
%TO.N,Net-(SW2-Pad1)*%
X105000000Y-34000000D03*
%TO.P,SW2,2*%
%TO.N,watch*%
X105000000Y-40000000D03*
X99000000Y-40000000D03*
%TO.P,SW2,1*%
%TO.N,Net-(SW2-Pad1)*%
X99000000Y-34000000D03*
%TD*%
%TO.P,SW1,1*%
%TO.N,Net-(SW1-Pad1)*%
X93000000Y-32000000D03*
%TO.P,SW1,2*%
%TO.N,watch*%
X93000000Y-38000000D03*
X87000000Y-38000000D03*
%TO.P,SW1,1*%
%TO.N,Net-(SW1-Pad1)*%
X87000000Y-32000000D03*
%TD*%
D17*
%TO.P,pull_down1,2*%
%TO.N,watch*%
X100160000Y-25000000D03*
D18*
%TO.P,pull_down1,1*%
%TO.N,GND*%
X90000000Y-25000000D03*
%TD*%
D12*
%TO.P,fet8,3*%
%TO.N,Net-(SW7-Pad1)*%
X105080000Y-70000000D03*
%TO.P,fet8,2*%
%TO.N,+5V*%
X102540000Y-70000000D03*
%TO.P,fet8,1*%
%TO.N,qh*%
X100000000Y-70000000D03*
%TD*%
%TO.P,fet7,3*%
%TO.N,Net-(SW6-Pad1)*%
X41245000Y-70000000D03*
%TO.P,fet7,2*%
%TO.N,+5V*%
X38705000Y-70000000D03*
%TO.P,fet7,1*%
%TO.N,qg*%
X36165000Y-70000000D03*
%TD*%
%TO.P,fet6,3*%
%TO.N,Net-(SW5-Pad1)*%
X50364285Y-70000000D03*
%TO.P,fet6,2*%
%TO.N,+5V*%
X47824285Y-70000000D03*
%TO.P,fet6,1*%
%TO.N,qf*%
X45284285Y-70000000D03*
%TD*%
%TO.P,fet5,3*%
%TO.N,Net-(SW4-Pad1)*%
X68602855Y-70000000D03*
%TO.P,fet5,2*%
%TO.N,+5V*%
X66062855Y-70000000D03*
%TO.P,fet5,1*%
%TO.N,qc*%
X63522855Y-70000000D03*
%TD*%
%TO.P,fet4,3*%
%TO.N,Net-(SW3-Pad1)*%
X95960710Y-70000000D03*
%TO.P,fet4,2*%
%TO.N,+5V*%
X93420710Y-70000000D03*
%TO.P,fet4,1*%
%TO.N,qe*%
X90880710Y-70000000D03*
%TD*%
%TO.P,fet3,3*%
%TO.N,Net-(SW2-Pad1)*%
X77722140Y-70000000D03*
%TO.P,fet3,2*%
%TO.N,+5V*%
X75182140Y-70000000D03*
%TO.P,fet3,1*%
%TO.N,qb*%
X72642140Y-70000000D03*
%TD*%
%TO.P,fet2,3*%
%TO.N,Net-(SW1-Pad1)*%
X59483570Y-70000000D03*
%TO.P,fet2,2*%
%TO.N,+5V*%
X56943570Y-70000000D03*
%TO.P,fet2,1*%
%TO.N,qd*%
X54403570Y-70000000D03*
%TD*%
D19*
%TO.P,D1, *%
%TO.N,N/C*%
X58550000Y-27540000D03*
X82595000Y-27540000D03*
D20*
%TO.P,D1,15*%
%TO.N,Net-(D1-Pad15)*%
X75725000Y-30080000D03*
%TO.P,D1,14*%
%TO.N,Net-(D1-Pad14)*%
X73435000Y-30080000D03*
%TO.P,D1,13*%
%TO.N,Net-(D1-Pad13)*%
X71145000Y-30080000D03*
%TO.P,D1,12*%
%TO.N,Net-(D1-Pad12)*%
X68855000Y-30080000D03*
%TO.P,D1,11*%
%TO.N,Net-(D1-Pad11)*%
X66565000Y-30080000D03*
%TO.P,D1,10*%
%TO.N,Net-(D1-Pad10)*%
X74580000Y-27540000D03*
%TO.P,D1,9*%
%TO.N,Net-(D1-Pad9)*%
X72290000Y-27540000D03*
%TO.P,D1,8*%
%TO.N,watch*%
X70000000Y-27540000D03*
%TO.P,D1,7*%
%TO.N,vert*%
X67710000Y-27540000D03*
%TO.P,D1,6*%
%TO.N,horz*%
X65420000Y-27540000D03*
%TO.P,D1,5*%
%TO.N,latch*%
X75725000Y-25000000D03*
%TO.P,D1,4*%
%TO.N,data*%
X73435000Y-25000000D03*
%TO.P,D1,3*%
%TO.N,clk*%
X71145000Y-25000000D03*
%TO.P,D1,2*%
%TO.N,+5V*%
X68855000Y-25000000D03*
%TO.P,D1,1*%
%TO.N,GND*%
X66565000Y-25000000D03*
%TD*%
D21*
%TO.N,qa*%
X78000000Y-62000000D03*
%TO.N,Net-(SW1-Pad1)*%
X71000000Y-66000000D03*
X72000000Y-61000000D03*
X76000000Y-55000000D03*
X83000000Y-43000000D03*
%TO.N,qd*%
X50000000Y-60000000D03*
%TO.N,Net-(SW2-Pad1)*%
X94000000Y-54000000D03*
%TO.N,qb*%
X59000000Y-59000000D03*
%TO.N,Net-(SW3-Pad1)*%
X96000000Y-56000000D03*
%TO.N,Net-(SW4-Pad1)*%
X94000000Y-62000000D03*
%TO.N,qc*%
X53000000Y-59000000D03*
%TO.N,Net-(SW5-Pad1)*%
X79000000Y-47000000D03*
X65000000Y-58000000D03*
X51987347Y-63012653D03*
%TO.N,Net-(SW6-Pad1)*%
X44000000Y-57000000D03*
%TO.N,qh*%
X68000000Y-43000000D03*
X50000000Y-44000000D03*
X45000000Y-39000000D03*
X40000000Y-39000000D03*
%TO.N,+5V*%
X52000000Y-25000000D03*
X51000000Y-22000000D03*
X49000000Y-22000000D03*
%TD*%
D22*
%TO.N,watch*%
X85299999Y-48799999D02*
X86500000Y-50000000D01*
X85299999Y-43094997D02*
X85299999Y-48799999D01*
X74268001Y-32062999D02*
X85299999Y-43094997D01*
X74268001Y-29680159D02*
X74268001Y-32062999D01*
X73834841Y-29246999D02*
X74268001Y-29680159D01*
X71706999Y-29246999D02*
X73834841Y-29246999D01*
X70000000Y-27540000D02*
X71706999Y-29246999D01*
X86500000Y-50000000D02*
X92500000Y-50000000D01*
X92500000Y-46500000D02*
X99000000Y-40000000D01*
X92500000Y-50000000D02*
X92500000Y-46500000D01*
X99000000Y-40000000D02*
X105000000Y-40000000D01*
X111000000Y-34000000D02*
X111000000Y-29000000D01*
X105000000Y-40000000D02*
X111000000Y-34000000D01*
X111000000Y-29000000D02*
X117000000Y-29000000D01*
X104160000Y-29000000D02*
X100160000Y-25000000D01*
X111000000Y-29000000D02*
X104160000Y-29000000D01*
X105000000Y-40000000D02*
X105000000Y-45000000D01*
X110000000Y-50000000D02*
X116000000Y-50000000D01*
X105000000Y-60000000D02*
X99000000Y-60000000D01*
X99000000Y-56500000D02*
X92500000Y-50000000D01*
X99000000Y-60000000D02*
X99000000Y-56500000D01*
X92500000Y-50000000D02*
X92500000Y-51500000D01*
X84000000Y-60000000D02*
X75000000Y-60000000D01*
X92500000Y-51500000D02*
X84000000Y-60000000D01*
X65000000Y-60000000D02*
X63000000Y-58000000D01*
X69000000Y-60000000D02*
X65000000Y-60000000D01*
X63000000Y-58000000D02*
X57000000Y-58000000D01*
X38500000Y-58000000D02*
X38250000Y-57750000D01*
X57000000Y-58000000D02*
X38500000Y-58000000D01*
X38250000Y-57750000D02*
X31750000Y-57750000D01*
X63000000Y-56000000D02*
X67000000Y-52000000D01*
X63000000Y-58000000D02*
X63000000Y-56000000D01*
X74000000Y-53000000D02*
X73000000Y-52000000D01*
X74000000Y-60000000D02*
X74000000Y-53000000D01*
X74000000Y-60000000D02*
X69000000Y-60000000D01*
X75000000Y-60000000D02*
X74000000Y-60000000D01*
X87000000Y-41394996D02*
X85299999Y-43094997D01*
X87000000Y-38000000D02*
X87000000Y-41394996D01*
X87000000Y-38000000D02*
X93000000Y-38000000D01*
X97000000Y-38000000D02*
X99000000Y-40000000D01*
X93000000Y-38000000D02*
X97000000Y-38000000D01*
X105000000Y-56237436D02*
X105000000Y-60000000D01*
X110000000Y-51237436D02*
X105000000Y-56237436D01*
X110000000Y-50000000D02*
X110000000Y-51237436D01*
X116000000Y-50000000D02*
X114000000Y-48000000D01*
X114000000Y-48000000D02*
X108000000Y-48000000D01*
X105000000Y-45000000D02*
X108000000Y-48000000D01*
X108000000Y-48000000D02*
X110000000Y-50000000D01*
%TO.N,vert*%
X36200001Y-37549999D02*
X35000000Y-38750000D01*
X52404283Y-37549999D02*
X36200001Y-37549999D01*
X66876999Y-26706999D02*
X63247283Y-26706999D01*
X63247283Y-26706999D02*
X52404283Y-37549999D01*
X67710000Y-27540000D02*
X66876999Y-26706999D01*
%TO.N,horz*%
X63710000Y-27540000D02*
X43750000Y-47500000D01*
X65420000Y-27540000D02*
X63710000Y-27540000D01*
%TO.N,latch*%
X75725000Y-25000000D02*
X73725000Y-23000000D01*
X40920000Y-23000000D02*
X38920000Y-25000000D01*
X73725000Y-23000000D02*
X40920000Y-23000000D01*
%TO.N,data*%
X71094831Y-23716989D02*
X57283011Y-23716989D01*
X57283011Y-23716989D02*
X54000000Y-27000000D01*
X46000000Y-27000000D02*
X44000000Y-25000000D01*
X54000000Y-27000000D02*
X46000000Y-27000000D01*
X72377842Y-25000000D02*
X71094831Y-23716989D01*
X73435000Y-25000000D02*
X72377842Y-25000000D01*
%TO.N,clk*%
X70311999Y-24166999D02*
X57833001Y-24166999D01*
X71145000Y-25000000D02*
X70311999Y-24166999D01*
X57833001Y-24166999D02*
X54000000Y-28000000D01*
X39380000Y-28000000D02*
X36380000Y-25000000D01*
X54000000Y-28000000D02*
X39380000Y-28000000D01*
%TO.N,qa*%
X81761425Y-70000000D02*
X81761425Y-65761425D01*
X81761425Y-65761425D02*
X78000000Y-62000000D01*
%TO.N,Net-(SW1-Pad1)*%
X71000000Y-66000000D02*
X71000000Y-62000000D01*
X71000000Y-62000000D02*
X72000000Y-61000000D01*
X76000000Y-55000000D02*
X83000000Y-48000000D01*
X83000000Y-48000000D02*
X83000000Y-43000000D01*
%TO.N,qd*%
X54403570Y-70000000D02*
X54403570Y-64403570D01*
X54403570Y-64403570D02*
X50000000Y-60000000D01*
%TO.N,Net-(SW2-Pad1)*%
X78476988Y-60450010D02*
X87549990Y-60450010D01*
X76960141Y-61966857D02*
X78476988Y-60450010D01*
X77722140Y-70000000D02*
X76960141Y-69238001D01*
X76960141Y-69238001D02*
X76960141Y-61966857D01*
X87549990Y-60450010D02*
X94000000Y-54000000D01*
%TO.N,qb*%
X72642140Y-70000000D02*
X67642140Y-65000000D01*
X67642140Y-65000000D02*
X65000000Y-65000000D01*
X65000000Y-65000000D02*
X59000000Y-59000000D01*
%TO.N,Net-(SW3-Pad1)*%
X95960710Y-61263288D02*
X96000000Y-61223998D01*
X95960710Y-70000000D02*
X95960710Y-61263288D01*
X96000000Y-61223998D02*
X96000000Y-56000000D01*
%TO.N,Net-(SW4-Pad1)*%
X89793709Y-68656478D02*
X85450187Y-73000000D01*
X94000000Y-62000000D02*
X89793709Y-66206291D01*
X89793709Y-66206291D02*
X89793709Y-68656478D01*
X71602855Y-73000000D02*
X68602855Y-70000000D01*
X85450187Y-73000000D02*
X71602855Y-73000000D01*
%TO.N,qc*%
X63522855Y-70000000D02*
X53000000Y-59477145D01*
X53000000Y-59477145D02*
X53000000Y-59000000D01*
%TO.N,Net-(SW5-Pad1)*%
X74223998Y-47000000D02*
X65000000Y-56223998D01*
X79000000Y-47000000D02*
X74223998Y-47000000D01*
X65000000Y-56223998D02*
X65000000Y-58000000D01*
X50364285Y-64635715D02*
X50364285Y-70000000D01*
X51987347Y-63012653D02*
X50364285Y-64635715D01*
%TO.N,qf*%
X45284285Y-70000000D02*
X43284285Y-68000000D01*
X43284285Y-68000000D02*
X33000000Y-68000000D01*
X33000000Y-68000000D02*
X26000000Y-61000000D01*
X26000000Y-61000000D02*
X26000000Y-53000000D01*
X33799999Y-37740001D02*
X38920000Y-32620000D01*
X33799999Y-45200001D02*
X33799999Y-37740001D01*
X26000000Y-53000000D02*
X33799999Y-45200001D01*
%TO.N,Net-(SW6-Pad1)*%
X49000000Y-52000000D02*
X44000000Y-57000000D01*
X61000000Y-52000000D02*
X67000000Y-46000000D01*
X49000000Y-52000000D02*
X61000000Y-52000000D01*
X67000000Y-46000000D02*
X73000000Y-46000000D01*
%TO.N,qg*%
X36165000Y-70000000D02*
X33000000Y-70000000D01*
X33000000Y-70000000D02*
X24000000Y-61000000D01*
X36380000Y-32653998D02*
X36380000Y-32620000D01*
X24000000Y-45033998D02*
X36380000Y-32653998D01*
X24000000Y-61000000D02*
X24000000Y-45033998D01*
%TO.N,qh*%
X68000000Y-43000000D02*
X51000000Y-43000000D01*
X51000000Y-43000000D02*
X50000000Y-44000000D01*
X45000000Y-39000000D02*
X40000000Y-39000000D01*
%TD*%
D23*
%TO.N,+5V*%
G36*
X118873000Y-53374474D02*
G01*
X118858005Y-53338273D01*
X118705120Y-53109465D01*
X118510535Y-52914880D01*
X118281727Y-52761995D01*
X118027490Y-52656686D01*
X117757592Y-52603000D01*
X117482408Y-52603000D01*
X117212510Y-52656686D01*
X116958273Y-52761995D01*
X116729465Y-52914880D01*
X116534880Y-53109465D01*
X116381995Y-53338273D01*
X116350000Y-53415515D01*
X116318005Y-53338273D01*
X116165120Y-53109465D01*
X115970535Y-52914880D01*
X115741727Y-52761995D01*
X115487490Y-52656686D01*
X115217592Y-52603000D01*
X114942408Y-52603000D01*
X114672510Y-52656686D01*
X114418273Y-52761995D01*
X114189465Y-52914880D01*
X113994880Y-53109465D01*
X113841995Y-53338273D01*
X113810000Y-53415515D01*
X113778005Y-53338273D01*
X113625120Y-53109465D01*
X113430535Y-52914880D01*
X113201727Y-52761995D01*
X112947490Y-52656686D01*
X112677592Y-52603000D01*
X112402408Y-52603000D01*
X112132510Y-52656686D01*
X111878273Y-52761995D01*
X111649465Y-52914880D01*
X111454880Y-53109465D01*
X111301995Y-53338273D01*
X111270000Y-53415515D01*
X111238005Y-53338273D01*
X111085120Y-53109465D01*
X110890535Y-52914880D01*
X110661727Y-52761995D01*
X110407490Y-52656686D01*
X110137592Y-52603000D01*
X109862408Y-52603000D01*
X109671205Y-52641033D01*
X110511003Y-51801235D01*
X110540001Y-51777437D01*
X110634974Y-51661712D01*
X110705546Y-51529683D01*
X110749003Y-51386422D01*
X110756471Y-51310603D01*
X110962569Y-51172893D01*
X111172893Y-50962569D01*
X111308245Y-50760000D01*
X114691755Y-50760000D01*
X114827107Y-50962569D01*
X115037431Y-51172893D01*
X115284747Y-51338144D01*
X115559549Y-51451971D01*
X115851278Y-51510000D01*
X116148722Y-51510000D01*
X116440451Y-51451971D01*
X116715253Y-51338144D01*
X116962569Y-51172893D01*
X117172893Y-50962569D01*
X117338144Y-50715253D01*
X117451971Y-50440451D01*
X117510000Y-50148722D01*
X117510000Y-49851278D01*
X117451971Y-49559549D01*
X117338144Y-49284747D01*
X117172893Y-49037431D01*
X116962569Y-48827107D01*
X116715253Y-48661856D01*
X116440451Y-48548029D01*
X116148722Y-48490000D01*
X115851278Y-48490000D01*
X115612331Y-48537530D01*
X114563804Y-47489003D01*
X114540001Y-47459999D01*
X114424276Y-47365026D01*
X114292247Y-47294454D01*
X114148986Y-47250997D01*
X114037333Y-47240000D01*
X114037322Y-47240000D01*
X114000000Y-47236324D01*
X113962678Y-47240000D01*
X108314802Y-47240000D01*
X105760000Y-44685199D01*
X105760000Y-43851278D01*
X108490000Y-43851278D01*
X108490000Y-44148722D01*
X108548029Y-44440451D01*
X108661856Y-44715253D01*
X108827107Y-44962569D01*
X109037431Y-45172893D01*
X109284747Y-45338144D01*
X109559549Y-45451971D01*
X109851278Y-45510000D01*
X110148722Y-45510000D01*
X110440451Y-45451971D01*
X110715253Y-45338144D01*
X110962569Y-45172893D01*
X111172893Y-44962569D01*
X111338144Y-44715253D01*
X111451971Y-44440451D01*
X111510000Y-44148722D01*
X111510000Y-43851278D01*
X114490000Y-43851278D01*
X114490000Y-44148722D01*
X114548029Y-44440451D01*
X114661856Y-44715253D01*
X114827107Y-44962569D01*
X115037431Y-45172893D01*
X115284747Y-45338144D01*
X115559549Y-45451971D01*
X115851278Y-45510000D01*
X116148722Y-45510000D01*
X116440451Y-45451971D01*
X116715253Y-45338144D01*
X116962569Y-45172893D01*
X117172893Y-44962569D01*
X117338144Y-44715253D01*
X117451971Y-44440451D01*
X117510000Y-44148722D01*
X117510000Y-43851278D01*
X117451971Y-43559549D01*
X117338144Y-43284747D01*
X117172893Y-43037431D01*
X116962569Y-42827107D01*
X116715253Y-42661856D01*
X116440451Y-42548029D01*
X116148722Y-42490000D01*
X115851278Y-42490000D01*
X115559549Y-42548029D01*
X115284747Y-42661856D01*
X115037431Y-42827107D01*
X114827107Y-43037431D01*
X114661856Y-43284747D01*
X114548029Y-43559549D01*
X114490000Y-43851278D01*
X111510000Y-43851278D01*
X111451971Y-43559549D01*
X111338144Y-43284747D01*
X111172893Y-43037431D01*
X110962569Y-42827107D01*
X110715253Y-42661856D01*
X110440451Y-42548029D01*
X110148722Y-42490000D01*
X109851278Y-42490000D01*
X109559549Y-42548029D01*
X109284747Y-42661856D01*
X109037431Y-42827107D01*
X108827107Y-43037431D01*
X108661856Y-43284747D01*
X108548029Y-43559549D01*
X108490000Y-43851278D01*
X105760000Y-43851278D01*
X105760000Y-41308245D01*
X105962569Y-41172893D01*
X106172893Y-40962569D01*
X106338144Y-40715253D01*
X106451971Y-40440451D01*
X106510000Y-40148722D01*
X106510000Y-39851278D01*
X106462470Y-39612331D01*
X111511009Y-34563794D01*
X111540001Y-34540001D01*
X111563795Y-34511008D01*
X111563799Y-34511004D01*
X111634973Y-34424277D01*
X111634974Y-34424276D01*
X111705546Y-34292247D01*
X111749003Y-34148986D01*
X111760000Y-34037333D01*
X111760000Y-34037324D01*
X111763676Y-34000001D01*
X111760000Y-33962678D01*
X111760000Y-30308245D01*
X111962569Y-30172893D01*
X112172893Y-29962569D01*
X112308245Y-29760000D01*
X115691755Y-29760000D01*
X115827107Y-29962569D01*
X116037431Y-30172893D01*
X116284747Y-30338144D01*
X116559549Y-30451971D01*
X116851278Y-30510000D01*
X117148722Y-30510000D01*
X117440451Y-30451971D01*
X117715253Y-30338144D01*
X117962569Y-30172893D01*
X118172893Y-29962569D01*
X118338144Y-29715253D01*
X118451971Y-29440451D01*
X118510000Y-29148722D01*
X118510000Y-28851278D01*
X118451971Y-28559549D01*
X118338144Y-28284747D01*
X118172893Y-28037431D01*
X117962569Y-27827107D01*
X117715253Y-27661856D01*
X117440451Y-27548029D01*
X117148722Y-27490000D01*
X116851278Y-27490000D01*
X116559549Y-27548029D01*
X116284747Y-27661856D01*
X116037431Y-27827107D01*
X115827107Y-28037431D01*
X115691755Y-28240000D01*
X112308245Y-28240000D01*
X112172893Y-28037431D01*
X111962569Y-27827107D01*
X111715253Y-27661856D01*
X111440451Y-27548029D01*
X111148722Y-27490000D01*
X110851278Y-27490000D01*
X110559549Y-27548029D01*
X110284747Y-27661856D01*
X110037431Y-27827107D01*
X109827107Y-28037431D01*
X109691755Y-28240000D01*
X104474802Y-28240000D01*
X101558688Y-25323887D01*
X101595000Y-25141335D01*
X101595000Y-24858665D01*
X101539853Y-24581426D01*
X101431680Y-24320273D01*
X101274637Y-24085241D01*
X101074759Y-23885363D01*
X100839727Y-23728320D01*
X100578574Y-23620147D01*
X100301335Y-23565000D01*
X100018665Y-23565000D01*
X99741426Y-23620147D01*
X99480273Y-23728320D01*
X99245241Y-23885363D01*
X99045363Y-24085241D01*
X98888320Y-24320273D01*
X98780147Y-24581426D01*
X98725000Y-24858665D01*
X98725000Y-25141335D01*
X98780147Y-25418574D01*
X98888320Y-25679727D01*
X99045363Y-25914759D01*
X99245241Y-26114637D01*
X99480273Y-26271680D01*
X99741426Y-26379853D01*
X100018665Y-26435000D01*
X100301335Y-26435000D01*
X100483887Y-26398688D01*
X103596201Y-29511003D01*
X103619999Y-29540001D01*
X103735724Y-29634974D01*
X103867753Y-29705546D01*
X104011014Y-29749003D01*
X104122667Y-29760000D01*
X104122676Y-29760000D01*
X104159999Y-29763676D01*
X104197322Y-29760000D01*
X109691755Y-29760000D01*
X109827107Y-29962569D01*
X110037431Y-30172893D01*
X110240001Y-30308246D01*
X110240000Y-33685197D01*
X105387669Y-38537530D01*
X105148722Y-38490000D01*
X104851278Y-38490000D01*
X104559549Y-38548029D01*
X104284747Y-38661856D01*
X104037431Y-38827107D01*
X103827107Y-39037431D01*
X103691755Y-39240000D01*
X100308245Y-39240000D01*
X100172893Y-39037431D01*
X99962569Y-38827107D01*
X99715253Y-38661856D01*
X99440451Y-38548029D01*
X99148722Y-38490000D01*
X98851278Y-38490000D01*
X98612331Y-38537530D01*
X97563804Y-37489003D01*
X97540001Y-37459999D01*
X97424276Y-37365026D01*
X97292247Y-37294454D01*
X97148986Y-37250997D01*
X97037333Y-37240000D01*
X97037322Y-37240000D01*
X97000000Y-37236324D01*
X96962678Y-37240000D01*
X94308245Y-37240000D01*
X94172893Y-37037431D01*
X93962569Y-36827107D01*
X93715253Y-36661856D01*
X93440451Y-36548029D01*
X93148722Y-36490000D01*
X92851278Y-36490000D01*
X92559549Y-36548029D01*
X92284747Y-36661856D01*
X92037431Y-36827107D01*
X91827107Y-37037431D01*
X91691755Y-37240000D01*
X88308245Y-37240000D01*
X88172893Y-37037431D01*
X87962569Y-36827107D01*
X87715253Y-36661856D01*
X87440451Y-36548029D01*
X87148722Y-36490000D01*
X86851278Y-36490000D01*
X86559549Y-36548029D01*
X86284747Y-36661856D01*
X86037431Y-36827107D01*
X85827107Y-37037431D01*
X85661856Y-37284747D01*
X85548029Y-37559549D01*
X85490000Y-37851278D01*
X85490000Y-38148722D01*
X85548029Y-38440451D01*
X85661856Y-38715253D01*
X85827107Y-38962569D01*
X86037431Y-39172893D01*
X86240000Y-39308245D01*
X86240001Y-41080192D01*
X85299999Y-42020195D01*
X77131082Y-33851278D01*
X97490000Y-33851278D01*
X97490000Y-34148722D01*
X97548029Y-34440451D01*
X97661856Y-34715253D01*
X97827107Y-34962569D01*
X98037431Y-35172893D01*
X98284747Y-35338144D01*
X98559549Y-35451971D01*
X98851278Y-35510000D01*
X99148722Y-35510000D01*
X99440451Y-35451971D01*
X99715253Y-35338144D01*
X99962569Y-35172893D01*
X100172893Y-34962569D01*
X100338144Y-34715253D01*
X100451971Y-34440451D01*
X100510000Y-34148722D01*
X100510000Y-33851278D01*
X103490000Y-33851278D01*
X103490000Y-34148722D01*
X103548029Y-34440451D01*
X103661856Y-34715253D01*
X103827107Y-34962569D01*
X104037431Y-35172893D01*
X104284747Y-35338144D01*
X104559549Y-35451971D01*
X104851278Y-35510000D01*
X105148722Y-35510000D01*
X105440451Y-35451971D01*
X105715253Y-35338144D01*
X105962569Y-35172893D01*
X106172893Y-34962569D01*
X106338144Y-34715253D01*
X106451971Y-34440451D01*
X106510000Y-34148722D01*
X106510000Y-33851278D01*
X106451971Y-33559549D01*
X106338144Y-33284747D01*
X106172893Y-33037431D01*
X105962569Y-32827107D01*
X105715253Y-32661856D01*
X105440451Y-32548029D01*
X105148722Y-32490000D01*
X104851278Y-32490000D01*
X104559549Y-32548029D01*
X104284747Y-32661856D01*
X104037431Y-32827107D01*
X103827107Y-33037431D01*
X103661856Y-33284747D01*
X103548029Y-33559549D01*
X103490000Y-33851278D01*
X100510000Y-33851278D01*
X100451971Y-33559549D01*
X100338144Y-33284747D01*
X100172893Y-33037431D01*
X99962569Y-32827107D01*
X99715253Y-32661856D01*
X99440451Y-32548029D01*
X99148722Y-32490000D01*
X98851278Y-32490000D01*
X98559549Y-32548029D01*
X98284747Y-32661856D01*
X98037431Y-32827107D01*
X97827107Y-33037431D01*
X97661856Y-33284747D01*
X97548029Y-33559549D01*
X97490000Y-33851278D01*
X77131082Y-33851278D01*
X75131082Y-31851278D01*
X85490000Y-31851278D01*
X85490000Y-32148722D01*
X85548029Y-32440451D01*
X85661856Y-32715253D01*
X85827107Y-32962569D01*
X86037431Y-33172893D01*
X86284747Y-33338144D01*
X86559549Y-33451971D01*
X86851278Y-33510000D01*
X87148722Y-33510000D01*
X87440451Y-33451971D01*
X87715253Y-33338144D01*
X87962569Y-33172893D01*
X88172893Y-32962569D01*
X88338144Y-32715253D01*
X88451971Y-32440451D01*
X88510000Y-32148722D01*
X88510000Y-31851278D01*
X91490000Y-31851278D01*
X91490000Y-32148722D01*
X91548029Y-32440451D01*
X91661856Y-32715253D01*
X91827107Y-32962569D01*
X92037431Y-33172893D01*
X92284747Y-33338144D01*
X92559549Y-33451971D01*
X92851278Y-33510000D01*
X93148722Y-33510000D01*
X93440451Y-33451971D01*
X93715253Y-33338144D01*
X93962569Y-33172893D01*
X94172893Y-32962569D01*
X94338144Y-32715253D01*
X94451971Y-32440451D01*
X94510000Y-32148722D01*
X94510000Y-31851278D01*
X94451971Y-31559549D01*
X94338144Y-31284747D01*
X94172893Y-31037431D01*
X93962569Y-30827107D01*
X93715253Y-30661856D01*
X93440451Y-30548029D01*
X93148722Y-30490000D01*
X92851278Y-30490000D01*
X92559549Y-30548029D01*
X92284747Y-30661856D01*
X92037431Y-30827107D01*
X91827107Y-31037431D01*
X91661856Y-31284747D01*
X91548029Y-31559549D01*
X91490000Y-31851278D01*
X88510000Y-31851278D01*
X88451971Y-31559549D01*
X88338144Y-31284747D01*
X88172893Y-31037431D01*
X87962569Y-30827107D01*
X87715253Y-30661856D01*
X87440451Y-30548029D01*
X87148722Y-30490000D01*
X86851278Y-30490000D01*
X86559549Y-30548029D01*
X86284747Y-30661856D01*
X86037431Y-30827107D01*
X85827107Y-31037431D01*
X85661856Y-31284747D01*
X85548029Y-31559549D01*
X85490000Y-31851278D01*
X75131082Y-31851278D01*
X75028001Y-31748198D01*
X75028001Y-30988954D01*
X75183587Y-31092913D01*
X75391599Y-31179075D01*
X75612424Y-31223000D01*
X75837576Y-31223000D01*
X76058401Y-31179075D01*
X76266413Y-31092913D01*
X76453620Y-30967826D01*
X76612826Y-30808620D01*
X76737913Y-30621413D01*
X76824075Y-30413401D01*
X76868000Y-30192576D01*
X76868000Y-29967424D01*
X76824075Y-29746599D01*
X76737913Y-29538587D01*
X76612826Y-29351380D01*
X76453620Y-29192174D01*
X76266413Y-29067087D01*
X76058401Y-28980925D01*
X75837576Y-28937000D01*
X75612424Y-28937000D01*
X75391599Y-28980925D01*
X75183587Y-29067087D01*
X74996380Y-29192174D01*
X74913319Y-29275235D01*
X74902975Y-29255883D01*
X74808002Y-29140158D01*
X74778999Y-29116356D01*
X74398645Y-28736002D01*
X74374842Y-28706998D01*
X74306627Y-28651015D01*
X74467424Y-28683000D01*
X74692576Y-28683000D01*
X74913401Y-28639075D01*
X75121413Y-28552913D01*
X75308620Y-28427826D01*
X75467826Y-28268620D01*
X75592913Y-28081413D01*
X75679075Y-27873401D01*
X75723000Y-27652576D01*
X75723000Y-27427424D01*
X75688167Y-27252307D01*
X79674000Y-27252307D01*
X79674000Y-27827693D01*
X79786253Y-28392024D01*
X80006444Y-28923612D01*
X80326112Y-29402029D01*
X80732971Y-29808888D01*
X81211388Y-30128556D01*
X81742976Y-30348747D01*
X82307307Y-30461000D01*
X82882693Y-30461000D01*
X83447024Y-30348747D01*
X83978612Y-30128556D01*
X84457029Y-29808888D01*
X84863888Y-29402029D01*
X85183556Y-28923612D01*
X85403747Y-28392024D01*
X85516000Y-27827693D01*
X85516000Y-27252307D01*
X85403747Y-26687976D01*
X85183556Y-26156388D01*
X84863888Y-25677971D01*
X84457029Y-25271112D01*
X83978612Y-24951444D01*
X83754624Y-24858665D01*
X88565000Y-24858665D01*
X88565000Y-25141335D01*
X88620147Y-25418574D01*
X88728320Y-25679727D01*
X88885363Y-25914759D01*
X89085241Y-26114637D01*
X89320273Y-26271680D01*
X89581426Y-26379853D01*
X89858665Y-26435000D01*
X90141335Y-26435000D01*
X90418574Y-26379853D01*
X90679727Y-26271680D01*
X90914759Y-26114637D01*
X91114637Y-25914759D01*
X91271680Y-25679727D01*
X91379853Y-25418574D01*
X91435000Y-25141335D01*
X91435000Y-24858665D01*
X91379853Y-24581426D01*
X91271680Y-24320273D01*
X91114637Y-24085241D01*
X90914759Y-23885363D01*
X90679727Y-23728320D01*
X90418574Y-23620147D01*
X90141335Y-23565000D01*
X89858665Y-23565000D01*
X89581426Y-23620147D01*
X89320273Y-23728320D01*
X89085241Y-23885363D01*
X88885363Y-24085241D01*
X88728320Y-24320273D01*
X88620147Y-24581426D01*
X88565000Y-24858665D01*
X83754624Y-24858665D01*
X83447024Y-24731253D01*
X82882693Y-24619000D01*
X82307307Y-24619000D01*
X81742976Y-24731253D01*
X81211388Y-24951444D01*
X80732971Y-25271112D01*
X80326112Y-25677971D01*
X80006444Y-26156388D01*
X79786253Y-26687976D01*
X79674000Y-27252307D01*
X75688167Y-27252307D01*
X75679075Y-27206599D01*
X75592913Y-26998587D01*
X75467826Y-26811380D01*
X75308620Y-26652174D01*
X75121413Y-26527087D01*
X74913401Y-26440925D01*
X74692576Y-26397000D01*
X74467424Y-26397000D01*
X74246599Y-26440925D01*
X74038587Y-26527087D01*
X73851380Y-26652174D01*
X73692174Y-26811380D01*
X73567087Y-26998587D01*
X73480925Y-27206599D01*
X73437000Y-27427424D01*
X73437000Y-27652576D01*
X73480925Y-27873401D01*
X73567087Y-28081413D01*
X73692174Y-28268620D01*
X73851380Y-28427826D01*
X73951655Y-28494827D01*
X73872174Y-28486999D01*
X73872163Y-28486999D01*
X73834841Y-28483323D01*
X73797519Y-28486999D01*
X72930061Y-28486999D01*
X73018620Y-28427826D01*
X73177826Y-28268620D01*
X73302913Y-28081413D01*
X73389075Y-27873401D01*
X73433000Y-27652576D01*
X73433000Y-27427424D01*
X73389075Y-27206599D01*
X73302913Y-26998587D01*
X73177826Y-26811380D01*
X73018620Y-26652174D01*
X72831413Y-26527087D01*
X72623401Y-26440925D01*
X72402576Y-26397000D01*
X72177424Y-26397000D01*
X71956599Y-26440925D01*
X71748587Y-26527087D01*
X71561380Y-26652174D01*
X71402174Y-26811380D01*
X71277087Y-26998587D01*
X71190925Y-27206599D01*
X71147000Y-27427424D01*
X71147000Y-27612199D01*
X71143000Y-27608199D01*
X71143000Y-27427424D01*
X71099075Y-27206599D01*
X71012913Y-26998587D01*
X70887826Y-26811380D01*
X70728620Y-26652174D01*
X70541413Y-26527087D01*
X70333401Y-26440925D01*
X70112576Y-26397000D01*
X69887424Y-26397000D01*
X69666599Y-26440925D01*
X69458587Y-26527087D01*
X69271380Y-26652174D01*
X69112174Y-26811380D01*
X68987087Y-26998587D01*
X68900925Y-27206599D01*
X68857000Y-27427424D01*
X68857000Y-27652576D01*
X68900925Y-27873401D01*
X68987087Y-28081413D01*
X69112174Y-28268620D01*
X69271380Y-28427826D01*
X69458587Y-28552913D01*
X69666599Y-28639075D01*
X69887424Y-28683000D01*
X70068199Y-28683000D01*
X70512888Y-29127690D01*
X70416380Y-29192174D01*
X70257174Y-29351380D01*
X70132087Y-29538587D01*
X70045925Y-29746599D01*
X70002000Y-29967424D01*
X70002000Y-30192576D01*
X70045925Y-30413401D01*
X70132087Y-30621413D01*
X70257174Y-30808620D01*
X70416380Y-30967826D01*
X70603587Y-31092913D01*
X70811599Y-31179075D01*
X71032424Y-31223000D01*
X71257576Y-31223000D01*
X71478401Y-31179075D01*
X71686413Y-31092913D01*
X71873620Y-30967826D01*
X72032826Y-30808620D01*
X72157913Y-30621413D01*
X72244075Y-30413401D01*
X72288000Y-30192576D01*
X72288000Y-30006999D01*
X72292000Y-30006999D01*
X72292000Y-30192576D01*
X72335925Y-30413401D01*
X72422087Y-30621413D01*
X72547174Y-30808620D01*
X72706380Y-30967826D01*
X72893587Y-31092913D01*
X73101599Y-31179075D01*
X73322424Y-31223000D01*
X73508002Y-31223000D01*
X73508002Y-32025667D01*
X73504325Y-32062999D01*
X73508002Y-32100332D01*
X73518999Y-32211985D01*
X73529272Y-32245850D01*
X73562455Y-32355245D01*
X73633027Y-32487275D01*
X73647584Y-32505012D01*
X73728001Y-32603000D01*
X73756999Y-32626798D01*
X77262129Y-36131928D01*
X76690000Y-36131928D01*
X76565518Y-36144188D01*
X76445820Y-36180498D01*
X76335506Y-36239463D01*
X76238815Y-36318815D01*
X76159463Y-36415506D01*
X76100498Y-36525820D01*
X76078487Y-36598380D01*
X75946632Y-36466525D01*
X75703411Y-36304010D01*
X75433158Y-36192068D01*
X75146260Y-36135000D01*
X74853740Y-36135000D01*
X74566842Y-36192068D01*
X74296589Y-36304010D01*
X74053368Y-36466525D01*
X73846525Y-36673368D01*
X73730000Y-36847760D01*
X73613475Y-36673368D01*
X73406632Y-36466525D01*
X73163411Y-36304010D01*
X72893158Y-36192068D01*
X72606260Y-36135000D01*
X72313740Y-36135000D01*
X72026842Y-36192068D01*
X71756589Y-36304010D01*
X71513368Y-36466525D01*
X71306525Y-36673368D01*
X71190000Y-36847760D01*
X71073475Y-36673368D01*
X70866632Y-36466525D01*
X70623411Y-36304010D01*
X70353158Y-36192068D01*
X70066260Y-36135000D01*
X69773740Y-36135000D01*
X69486842Y-36192068D01*
X69216589Y-36304010D01*
X68973368Y-36466525D01*
X68766525Y-36673368D01*
X68650000Y-36847760D01*
X68533475Y-36673368D01*
X68326632Y-36466525D01*
X68083411Y-36304010D01*
X67813158Y-36192068D01*
X67526260Y-36135000D01*
X67233740Y-36135000D01*
X66946842Y-36192068D01*
X66676589Y-36304010D01*
X66433368Y-36466525D01*
X66226525Y-36673368D01*
X66110000Y-36847760D01*
X65993475Y-36673368D01*
X65786632Y-36466525D01*
X65543411Y-36304010D01*
X65273158Y-36192068D01*
X64986260Y-36135000D01*
X64693740Y-36135000D01*
X64406842Y-36192068D01*
X64136589Y-36304010D01*
X63893368Y-36466525D01*
X63686525Y-36673368D01*
X63570000Y-36847760D01*
X63453475Y-36673368D01*
X63246632Y-36466525D01*
X63003411Y-36304010D01*
X62733158Y-36192068D01*
X62446260Y-36135000D01*
X62153740Y-36135000D01*
X61866842Y-36192068D01*
X61596589Y-36304010D01*
X61353368Y-36466525D01*
X61146525Y-36673368D01*
X60984010Y-36916589D01*
X60872068Y-37186842D01*
X60815000Y-37473740D01*
X60815000Y-37766260D01*
X60872068Y-38053158D01*
X60984010Y-38323411D01*
X61146525Y-38566632D01*
X61353368Y-38773475D01*
X61596589Y-38935990D01*
X61866842Y-39047932D01*
X62153740Y-39105000D01*
X62446260Y-39105000D01*
X62733158Y-39047932D01*
X63003411Y-38935990D01*
X63246632Y-38773475D01*
X63453475Y-38566632D01*
X63570000Y-38392240D01*
X63686525Y-38566632D01*
X63893368Y-38773475D01*
X64136589Y-38935990D01*
X64406842Y-39047932D01*
X64693740Y-39105000D01*
X64986260Y-39105000D01*
X65273158Y-39047932D01*
X65543411Y-38935990D01*
X65786632Y-38773475D01*
X65993475Y-38566632D01*
X66110000Y-38392240D01*
X66226525Y-38566632D01*
X66433368Y-38773475D01*
X66676589Y-38935990D01*
X66946842Y-39047932D01*
X67233740Y-39105000D01*
X67526260Y-39105000D01*
X67813158Y-39047932D01*
X68083411Y-38935990D01*
X68326632Y-38773475D01*
X68533475Y-38566632D01*
X68650000Y-38392240D01*
X68766525Y-38566632D01*
X68973368Y-38773475D01*
X69216589Y-38935990D01*
X69486842Y-39047932D01*
X69773740Y-39105000D01*
X70066260Y-39105000D01*
X70353158Y-39047932D01*
X70623411Y-38935990D01*
X70866632Y-38773475D01*
X71073475Y-38566632D01*
X71190000Y-38392240D01*
X71306525Y-38566632D01*
X71513368Y-38773475D01*
X71756589Y-38935990D01*
X72026842Y-39047932D01*
X72313740Y-39105000D01*
X72606260Y-39105000D01*
X72893158Y-39047932D01*
X73163411Y-38935990D01*
X73406632Y-38773475D01*
X73613475Y-38566632D01*
X73730000Y-38392240D01*
X73846525Y-38566632D01*
X74053368Y-38773475D01*
X74296589Y-38935990D01*
X74566842Y-39047932D01*
X74853740Y-39105000D01*
X75146260Y-39105000D01*
X75433158Y-39047932D01*
X75703411Y-38935990D01*
X75946632Y-38773475D01*
X76078487Y-38641620D01*
X76100498Y-38714180D01*
X76159463Y-38824494D01*
X76238815Y-38921185D01*
X76335506Y-39000537D01*
X76445820Y-39059502D01*
X76565518Y-39095812D01*
X76690000Y-39108072D01*
X78390000Y-39108072D01*
X78514482Y-39095812D01*
X78634180Y-39059502D01*
X78744494Y-39000537D01*
X78841185Y-38921185D01*
X78920537Y-38824494D01*
X78979502Y-38714180D01*
X79015812Y-38594482D01*
X79028072Y-38470000D01*
X79028072Y-37897871D01*
X83095200Y-41965000D01*
X82898061Y-41965000D01*
X82698102Y-42004774D01*
X82509744Y-42082795D01*
X82340226Y-42196063D01*
X82196063Y-42340226D01*
X82082795Y-42509744D01*
X82004774Y-42698102D01*
X81965000Y-42898061D01*
X81965000Y-43101939D01*
X82004774Y-43301898D01*
X82082795Y-43490256D01*
X82196063Y-43659774D01*
X82240001Y-43703712D01*
X82240000Y-47685198D01*
X75960199Y-53965000D01*
X75898061Y-53965000D01*
X75698102Y-54004774D01*
X75509744Y-54082795D01*
X75340226Y-54196063D01*
X75196063Y-54340226D01*
X75082795Y-54509744D01*
X75004774Y-54698102D01*
X74965000Y-54898061D01*
X74965000Y-55101939D01*
X75004774Y-55301898D01*
X75082795Y-55490256D01*
X75196063Y-55659774D01*
X75340226Y-55803937D01*
X75509744Y-55917205D01*
X75698102Y-55995226D01*
X75898061Y-56035000D01*
X76101939Y-56035000D01*
X76301898Y-55995226D01*
X76490256Y-55917205D01*
X76659774Y-55803937D01*
X76803937Y-55659774D01*
X76917205Y-55490256D01*
X76995226Y-55301898D01*
X77035000Y-55101939D01*
X77035000Y-55039801D01*
X83511004Y-48563798D01*
X83540001Y-48540001D01*
X83603548Y-48462569D01*
X83634974Y-48424277D01*
X83705546Y-48292247D01*
X83728901Y-48215253D01*
X83749003Y-48148986D01*
X83760000Y-48037333D01*
X83760000Y-48037323D01*
X83763676Y-48000000D01*
X83760000Y-47962677D01*
X83760000Y-43703711D01*
X83803937Y-43659774D01*
X83917205Y-43490256D01*
X83995226Y-43301898D01*
X84035000Y-43101939D01*
X84035000Y-42904800D01*
X84539999Y-43409799D01*
X84540000Y-48762667D01*
X84536323Y-48799999D01*
X84550997Y-48948984D01*
X84594453Y-49092245D01*
X84665025Y-49224275D01*
X84714654Y-49284747D01*
X84759999Y-49340000D01*
X84788997Y-49363798D01*
X85037530Y-49612331D01*
X84990000Y-49851278D01*
X84990000Y-50148722D01*
X85048029Y-50440451D01*
X85161856Y-50715253D01*
X85327107Y-50962569D01*
X85537431Y-51172893D01*
X85784747Y-51338144D01*
X86059549Y-51451971D01*
X86351278Y-51510000D01*
X86648722Y-51510000D01*
X86940451Y-51451971D01*
X87215253Y-51338144D01*
X87462569Y-51172893D01*
X87672893Y-50962569D01*
X87808245Y-50760000D01*
X91191755Y-50760000D01*
X91327107Y-50962569D01*
X91537431Y-51172893D01*
X91666239Y-51258959D01*
X83685199Y-59240000D01*
X74760000Y-59240000D01*
X74760000Y-53037333D01*
X74763677Y-53000000D01*
X74749003Y-52851014D01*
X74705546Y-52707753D01*
X74634974Y-52575724D01*
X74563799Y-52488997D01*
X74540001Y-52459999D01*
X74511003Y-52436201D01*
X74462470Y-52387668D01*
X74510000Y-52148722D01*
X74510000Y-51851278D01*
X74451971Y-51559549D01*
X74338144Y-51284747D01*
X74172893Y-51037431D01*
X73962569Y-50827107D01*
X73715253Y-50661856D01*
X73440451Y-50548029D01*
X73148722Y-50490000D01*
X72851278Y-50490000D01*
X72559549Y-50548029D01*
X72284747Y-50661856D01*
X72037431Y-50827107D01*
X71827107Y-51037431D01*
X71661856Y-51284747D01*
X71548029Y-51559549D01*
X71490000Y-51851278D01*
X71490000Y-52148722D01*
X71548029Y-52440451D01*
X71661856Y-52715253D01*
X71827107Y-52962569D01*
X72037431Y-53172893D01*
X72284747Y-53338144D01*
X72559549Y-53451971D01*
X72851278Y-53510000D01*
X73148722Y-53510000D01*
X73240001Y-53491843D01*
X73240000Y-59240000D01*
X65314802Y-59240000D01*
X65108497Y-59033695D01*
X65301898Y-58995226D01*
X65490256Y-58917205D01*
X65659774Y-58803937D01*
X65803937Y-58659774D01*
X65917205Y-58490256D01*
X65995226Y-58301898D01*
X66035000Y-58101939D01*
X66035000Y-57898061D01*
X65995226Y-57698102D01*
X65917205Y-57509744D01*
X65803937Y-57340226D01*
X65760000Y-57296289D01*
X65760000Y-56538799D01*
X74538800Y-47760000D01*
X78296289Y-47760000D01*
X78340226Y-47803937D01*
X78509744Y-47917205D01*
X78698102Y-47995226D01*
X78898061Y-48035000D01*
X79101939Y-48035000D01*
X79301898Y-47995226D01*
X79490256Y-47917205D01*
X79659774Y-47803937D01*
X79803937Y-47659774D01*
X79917205Y-47490256D01*
X79995226Y-47301898D01*
X80035000Y-47101939D01*
X80035000Y-46898061D01*
X79995226Y-46698102D01*
X79917205Y-46509744D01*
X79803937Y-46340226D01*
X79659774Y-46196063D01*
X79490256Y-46082795D01*
X79301898Y-46004774D01*
X79101939Y-45965000D01*
X78898061Y-45965000D01*
X78698102Y-46004774D01*
X78509744Y-46082795D01*
X78340226Y-46196063D01*
X78296289Y-46240000D01*
X74491844Y-46240000D01*
X74510000Y-46148722D01*
X74510000Y-45851278D01*
X74451971Y-45559549D01*
X74338144Y-45284747D01*
X74172893Y-45037431D01*
X73962569Y-44827107D01*
X73715253Y-44661856D01*
X73440451Y-44548029D01*
X73148722Y-44490000D01*
X72851278Y-44490000D01*
X72559549Y-44548029D01*
X72284747Y-44661856D01*
X72037431Y-44827107D01*
X71827107Y-45037431D01*
X71691755Y-45240000D01*
X68308245Y-45240000D01*
X68172893Y-45037431D01*
X67962569Y-44827107D01*
X67715253Y-44661856D01*
X67440451Y-44548029D01*
X67148722Y-44490000D01*
X66851278Y-44490000D01*
X66559549Y-44548029D01*
X66284747Y-44661856D01*
X66037431Y-44827107D01*
X65827107Y-45037431D01*
X65661856Y-45284747D01*
X65548029Y-45559549D01*
X65490000Y-45851278D01*
X65490000Y-46148722D01*
X65537530Y-46387668D01*
X60685199Y-51240000D01*
X49037323Y-51240000D01*
X49000000Y-51236324D01*
X48962677Y-51240000D01*
X48962667Y-51240000D01*
X48851014Y-51250997D01*
X48707753Y-51294454D01*
X48575724Y-51365026D01*
X48459999Y-51459999D01*
X48436201Y-51488997D01*
X43960199Y-55965000D01*
X43898061Y-55965000D01*
X43698102Y-56004774D01*
X43509744Y-56082795D01*
X43340226Y-56196063D01*
X43196063Y-56340226D01*
X43082795Y-56509744D01*
X43004774Y-56698102D01*
X42965000Y-56898061D01*
X42965000Y-57101939D01*
X42992462Y-57240000D01*
X39673163Y-57240000D01*
X39588144Y-57034747D01*
X39422893Y-56787431D01*
X39212569Y-56577107D01*
X38965253Y-56411856D01*
X38690451Y-56298029D01*
X38398722Y-56240000D01*
X38101278Y-56240000D01*
X37809549Y-56298029D01*
X37534747Y-56411856D01*
X37287431Y-56577107D01*
X37077107Y-56787431D01*
X36941755Y-56990000D01*
X33058245Y-56990000D01*
X32922893Y-56787431D01*
X32712569Y-56577107D01*
X32465253Y-56411856D01*
X32190451Y-56298029D01*
X31898722Y-56240000D01*
X31601278Y-56240000D01*
X31309549Y-56298029D01*
X31034747Y-56411856D01*
X30787431Y-56577107D01*
X30577107Y-56787431D01*
X30411856Y-57034747D01*
X30298029Y-57309549D01*
X30240000Y-57601278D01*
X30240000Y-57898722D01*
X30298029Y-58190451D01*
X30411856Y-58465253D01*
X30577107Y-58712569D01*
X30787431Y-58922893D01*
X31034747Y-59088144D01*
X31309549Y-59201971D01*
X31601278Y-59260000D01*
X31898722Y-59260000D01*
X32190451Y-59201971D01*
X32465253Y-59088144D01*
X32712569Y-58922893D01*
X32922893Y-58712569D01*
X33058245Y-58510000D01*
X36941755Y-58510000D01*
X37077107Y-58712569D01*
X37287431Y-58922893D01*
X37534747Y-59088144D01*
X37809549Y-59201971D01*
X38101278Y-59260000D01*
X38398722Y-59260000D01*
X38690451Y-59201971D01*
X38965253Y-59088144D01*
X39212569Y-58922893D01*
X39375462Y-58760000D01*
X51992462Y-58760000D01*
X51965000Y-58898061D01*
X51965000Y-59101939D01*
X52004774Y-59301898D01*
X52082795Y-59490256D01*
X52196063Y-59659774D01*
X52289566Y-59753277D01*
X52294454Y-59769391D01*
X52365026Y-59901421D01*
X52377980Y-59917205D01*
X52459999Y-60017146D01*
X52489003Y-60040949D01*
X62156483Y-69708430D01*
X62125855Y-69862408D01*
X62125855Y-70137592D01*
X62179541Y-70407490D01*
X62284850Y-70661727D01*
X62437735Y-70890535D01*
X62632320Y-71085120D01*
X62861128Y-71238005D01*
X63115365Y-71343314D01*
X63385263Y-71397000D01*
X63660447Y-71397000D01*
X63930345Y-71343314D01*
X64184582Y-71238005D01*
X64413390Y-71085120D01*
X64532945Y-70965565D01*
X65276895Y-70965565D01*
X65343875Y-71205656D01*
X65592903Y-71322756D01*
X65859990Y-71389023D01*
X66134872Y-71401910D01*
X66406988Y-71360922D01*
X66665878Y-71267636D01*
X66781835Y-71205656D01*
X66848815Y-70965565D01*
X66062855Y-70179605D01*
X65276895Y-70965565D01*
X64532945Y-70965565D01*
X64607975Y-70890535D01*
X64760860Y-70661727D01*
X64790547Y-70590057D01*
X64795219Y-70603023D01*
X64857199Y-70718980D01*
X65097290Y-70785960D01*
X65883250Y-70000000D01*
X66242460Y-70000000D01*
X67028420Y-70785960D01*
X67268511Y-70718980D01*
X67332340Y-70583240D01*
X67364850Y-70661727D01*
X67517735Y-70890535D01*
X67712320Y-71085120D01*
X67941128Y-71238005D01*
X68195365Y-71343314D01*
X68465263Y-71397000D01*
X68740447Y-71397000D01*
X68894426Y-71366372D01*
X71039056Y-73511003D01*
X71062854Y-73540001D01*
X71178579Y-73634974D01*
X71310608Y-73705546D01*
X71453869Y-73749003D01*
X71565522Y-73760000D01*
X71565530Y-73760000D01*
X71602855Y-73763676D01*
X71640180Y-73760000D01*
X85412865Y-73760000D01*
X85450187Y-73763676D01*
X85487509Y-73760000D01*
X85487520Y-73760000D01*
X85599173Y-73749003D01*
X85742434Y-73705546D01*
X85874463Y-73634974D01*
X85990188Y-73540001D01*
X86013991Y-73510997D01*
X89483710Y-70041279D01*
X89483710Y-70137592D01*
X89537396Y-70407490D01*
X89642705Y-70661727D01*
X89795590Y-70890535D01*
X89990175Y-71085120D01*
X90218983Y-71238005D01*
X90473220Y-71343314D01*
X90743118Y-71397000D01*
X91018302Y-71397000D01*
X91288200Y-71343314D01*
X91542437Y-71238005D01*
X91771245Y-71085120D01*
X91890800Y-70965565D01*
X92634750Y-70965565D01*
X92701730Y-71205656D01*
X92950758Y-71322756D01*
X93217845Y-71389023D01*
X93492727Y-71401910D01*
X93764843Y-71360922D01*
X94023733Y-71267636D01*
X94139690Y-71205656D01*
X94206670Y-70965565D01*
X93420710Y-70179605D01*
X92634750Y-70965565D01*
X91890800Y-70965565D01*
X91965830Y-70890535D01*
X92118715Y-70661727D01*
X92148402Y-70590057D01*
X92153074Y-70603023D01*
X92215054Y-70718980D01*
X92455145Y-70785960D01*
X93241105Y-70000000D01*
X92455145Y-69214040D01*
X92215054Y-69281020D01*
X92151225Y-69416760D01*
X92118715Y-69338273D01*
X91965830Y-69109465D01*
X91890800Y-69034435D01*
X92634750Y-69034435D01*
X93420710Y-69820395D01*
X94206670Y-69034435D01*
X94139690Y-68794344D01*
X93890662Y-68677244D01*
X93623575Y-68610977D01*
X93348693Y-68598090D01*
X93076577Y-68639078D01*
X92817687Y-68732364D01*
X92701730Y-68794344D01*
X92634750Y-69034435D01*
X91890800Y-69034435D01*
X91771245Y-68914880D01*
X91542437Y-68761995D01*
X91288200Y-68656686D01*
X91018302Y-68603000D01*
X90743118Y-68603000D01*
X90555788Y-68640262D01*
X90553709Y-68619153D01*
X90553709Y-66521092D01*
X94039802Y-63035000D01*
X94101939Y-63035000D01*
X94301898Y-62995226D01*
X94490256Y-62917205D01*
X94659774Y-62803937D01*
X94803937Y-62659774D01*
X94917205Y-62490256D01*
X94995226Y-62301898D01*
X95035000Y-62101939D01*
X95035000Y-61898061D01*
X94995226Y-61698102D01*
X94917205Y-61509744D01*
X94803937Y-61340226D01*
X94659774Y-61196063D01*
X94490256Y-61082795D01*
X94301898Y-61004774D01*
X94101939Y-60965000D01*
X93898061Y-60965000D01*
X93698102Y-61004774D01*
X93509744Y-61082795D01*
X93340226Y-61196063D01*
X93196063Y-61340226D01*
X93082795Y-61509744D01*
X93004774Y-61698102D01*
X92965000Y-61898061D01*
X92965000Y-61960198D01*
X89282712Y-65642487D01*
X89253708Y-65666290D01*
X89227601Y-65698102D01*
X89158735Y-65782015D01*
X89107284Y-65878273D01*
X89088163Y-65914045D01*
X89044706Y-66057306D01*
X89033709Y-66168959D01*
X89033709Y-66168969D01*
X89030033Y-66206291D01*
X89033709Y-66243614D01*
X89033710Y-68341675D01*
X88062480Y-69312905D01*
X87926545Y-69109465D01*
X87731960Y-68914880D01*
X87503152Y-68761995D01*
X87248915Y-68656686D01*
X86979017Y-68603000D01*
X86703833Y-68603000D01*
X86433935Y-68656686D01*
X86179698Y-68761995D01*
X85950890Y-68914880D01*
X85756305Y-69109465D01*
X85603420Y-69338273D01*
X85573733Y-69409943D01*
X85569061Y-69396977D01*
X85507081Y-69281020D01*
X85266990Y-69214040D01*
X84481030Y-70000000D01*
X85266990Y-70785960D01*
X85507081Y-70718980D01*
X85570910Y-70583240D01*
X85603420Y-70661727D01*
X85756305Y-70890535D01*
X85950890Y-71085120D01*
X86154331Y-71221055D01*
X85135386Y-72240000D01*
X71917657Y-72240000D01*
X69969227Y-70291571D01*
X69999855Y-70137592D01*
X69999855Y-69862408D01*
X69946169Y-69592510D01*
X69840860Y-69338273D01*
X69687975Y-69109465D01*
X69493390Y-68914880D01*
X69264582Y-68761995D01*
X69010345Y-68656686D01*
X68740447Y-68603000D01*
X68465263Y-68603000D01*
X68195365Y-68656686D01*
X67941128Y-68761995D01*
X67712320Y-68914880D01*
X67517735Y-69109465D01*
X67364850Y-69338273D01*
X67335163Y-69409943D01*
X67330491Y-69396977D01*
X67268511Y-69281020D01*
X67028420Y-69214040D01*
X66242460Y-70000000D01*
X65883250Y-70000000D01*
X65097290Y-69214040D01*
X64857199Y-69281020D01*
X64793370Y-69416760D01*
X64760860Y-69338273D01*
X64607975Y-69109465D01*
X64532945Y-69034435D01*
X65276895Y-69034435D01*
X66062855Y-69820395D01*
X66848815Y-69034435D01*
X66781835Y-68794344D01*
X66532807Y-68677244D01*
X66265720Y-68610977D01*
X65990838Y-68598090D01*
X65718722Y-68639078D01*
X65459832Y-68732364D01*
X65343875Y-68794344D01*
X65276895Y-69034435D01*
X64532945Y-69034435D01*
X64413390Y-68914880D01*
X64184582Y-68761995D01*
X63930345Y-68656686D01*
X63660447Y-68603000D01*
X63385263Y-68603000D01*
X63231285Y-68633628D01*
X53967204Y-59369548D01*
X53995226Y-59301898D01*
X54035000Y-59101939D01*
X54035000Y-58898061D01*
X54007538Y-58760000D01*
X57992462Y-58760000D01*
X57965000Y-58898061D01*
X57965000Y-59101939D01*
X58004774Y-59301898D01*
X58082795Y-59490256D01*
X58196063Y-59659774D01*
X58340226Y-59803937D01*
X58509744Y-59917205D01*
X58698102Y-59995226D01*
X58898061Y-60035000D01*
X58960199Y-60035000D01*
X64436205Y-65511008D01*
X64459999Y-65540001D01*
X64488992Y-65563795D01*
X64488996Y-65563799D01*
X64548264Y-65612438D01*
X64575724Y-65634974D01*
X64707753Y-65705546D01*
X64851014Y-65749003D01*
X64962667Y-65760000D01*
X64962676Y-65760000D01*
X64999999Y-65763676D01*
X65037322Y-65760000D01*
X67327339Y-65760000D01*
X71275768Y-69708430D01*
X71245140Y-69862408D01*
X71245140Y-70137592D01*
X71298826Y-70407490D01*
X71404135Y-70661727D01*
X71557020Y-70890535D01*
X71751605Y-71085120D01*
X71980413Y-71238005D01*
X72234650Y-71343314D01*
X72504548Y-71397000D01*
X72779732Y-71397000D01*
X73049630Y-71343314D01*
X73303867Y-71238005D01*
X73532675Y-71085120D01*
X73652230Y-70965565D01*
X74396180Y-70965565D01*
X74463160Y-71205656D01*
X74712188Y-71322756D01*
X74979275Y-71389023D01*
X75254157Y-71401910D01*
X75526273Y-71360922D01*
X75785163Y-71267636D01*
X75901120Y-71205656D01*
X75968100Y-70965565D01*
X75182140Y-70179605D01*
X74396180Y-70965565D01*
X73652230Y-70965565D01*
X73727260Y-70890535D01*
X73880145Y-70661727D01*
X73909832Y-70590057D01*
X73914504Y-70603023D01*
X73976484Y-70718980D01*
X74216575Y-70785960D01*
X75002535Y-70000000D01*
X74216575Y-69214040D01*
X73976484Y-69281020D01*
X73912655Y-69416760D01*
X73880145Y-69338273D01*
X73727260Y-69109465D01*
X73652230Y-69034435D01*
X74396180Y-69034435D01*
X75182140Y-69820395D01*
X75968100Y-69034435D01*
X75901120Y-68794344D01*
X75652092Y-68677244D01*
X75385005Y-68610977D01*
X75110123Y-68598090D01*
X74838007Y-68639078D01*
X74579117Y-68732364D01*
X74463160Y-68794344D01*
X74396180Y-69034435D01*
X73652230Y-69034435D01*
X73532675Y-68914880D01*
X73303867Y-68761995D01*
X73049630Y-68656686D01*
X72779732Y-68603000D01*
X72504548Y-68603000D01*
X72350570Y-68633628D01*
X70715660Y-66998718D01*
X70898061Y-67035000D01*
X71101939Y-67035000D01*
X71301898Y-66995226D01*
X71490256Y-66917205D01*
X71659774Y-66803937D01*
X71803937Y-66659774D01*
X71917205Y-66490256D01*
X71995226Y-66301898D01*
X72035000Y-66101939D01*
X72035000Y-65898061D01*
X71995226Y-65698102D01*
X71917205Y-65509744D01*
X71803937Y-65340226D01*
X71760000Y-65296289D01*
X71760000Y-62314801D01*
X72039802Y-62035000D01*
X72101939Y-62035000D01*
X72301898Y-61995226D01*
X72490256Y-61917205D01*
X72659774Y-61803937D01*
X72803937Y-61659774D01*
X72917205Y-61490256D01*
X72995226Y-61301898D01*
X73035000Y-61101939D01*
X73035000Y-60898061D01*
X73007538Y-60760000D01*
X73962667Y-60760000D01*
X74000000Y-60763677D01*
X74037333Y-60760000D01*
X77092197Y-60760000D01*
X76449139Y-61403058D01*
X76420141Y-61426856D01*
X76396343Y-61455854D01*
X76396342Y-61455855D01*
X76325167Y-61542581D01*
X76254595Y-61674611D01*
X76229424Y-61757592D01*
X76215563Y-61803289D01*
X76211139Y-61817872D01*
X76196465Y-61966857D01*
X76200142Y-62004189D01*
X76200141Y-69200678D01*
X76197458Y-69227920D01*
X76147705Y-69214040D01*
X75361745Y-70000000D01*
X76147705Y-70785960D01*
X76387796Y-70718980D01*
X76451625Y-70583240D01*
X76484135Y-70661727D01*
X76637020Y-70890535D01*
X76831605Y-71085120D01*
X77060413Y-71238005D01*
X77314650Y-71343314D01*
X77584548Y-71397000D01*
X77859732Y-71397000D01*
X78129630Y-71343314D01*
X78383867Y-71238005D01*
X78612675Y-71085120D01*
X78807260Y-70890535D01*
X78960145Y-70661727D01*
X79065454Y-70407490D01*
X79119140Y-70137592D01*
X79119140Y-69862408D01*
X79065454Y-69592510D01*
X78960145Y-69338273D01*
X78807260Y-69109465D01*
X78612675Y-68914880D01*
X78383867Y-68761995D01*
X78129630Y-68656686D01*
X77859732Y-68603000D01*
X77720141Y-68603000D01*
X77720141Y-62999610D01*
X77898061Y-63035000D01*
X77960199Y-63035000D01*
X81001426Y-66076228D01*
X81001425Y-68827659D01*
X80870890Y-68914880D01*
X80676305Y-69109465D01*
X80523420Y-69338273D01*
X80418111Y-69592510D01*
X80364425Y-69862408D01*
X80364425Y-70137592D01*
X80418111Y-70407490D01*
X80523420Y-70661727D01*
X80676305Y-70890535D01*
X80870890Y-71085120D01*
X81099698Y-71238005D01*
X81353935Y-71343314D01*
X81623833Y-71397000D01*
X81899017Y-71397000D01*
X82168915Y-71343314D01*
X82423152Y-71238005D01*
X82651960Y-71085120D01*
X82771515Y-70965565D01*
X83515465Y-70965565D01*
X83582445Y-71205656D01*
X83831473Y-71322756D01*
X84098560Y-71389023D01*
X84373442Y-71401910D01*
X84645558Y-71360922D01*
X84904448Y-71267636D01*
X85020405Y-71205656D01*
X85087385Y-70965565D01*
X84301425Y-70179605D01*
X83515465Y-70965565D01*
X82771515Y-70965565D01*
X82846545Y-70890535D01*
X82999430Y-70661727D01*
X83029117Y-70590057D01*
X83033789Y-70603023D01*
X83095769Y-70718980D01*
X83335860Y-70785960D01*
X84121820Y-70000000D01*
X83335860Y-69214040D01*
X83095769Y-69281020D01*
X83031940Y-69416760D01*
X82999430Y-69338273D01*
X82846545Y-69109465D01*
X82771515Y-69034435D01*
X83515465Y-69034435D01*
X84301425Y-69820395D01*
X85087385Y-69034435D01*
X85020405Y-68794344D01*
X84771377Y-68677244D01*
X84504290Y-68610977D01*
X84229408Y-68598090D01*
X83957292Y-68639078D01*
X83698402Y-68732364D01*
X83582445Y-68794344D01*
X83515465Y-69034435D01*
X82771515Y-69034435D01*
X82651960Y-68914880D01*
X82521425Y-68827659D01*
X82521425Y-65798747D01*
X82525101Y-65761424D01*
X82521425Y-65724101D01*
X82521425Y-65724092D01*
X82510428Y-65612439D01*
X82466971Y-65469178D01*
X82396399Y-65337149D01*
X82301426Y-65221424D01*
X82272428Y-65197626D01*
X79035000Y-61960199D01*
X79035000Y-61898061D01*
X78995226Y-61698102D01*
X78917205Y-61509744D01*
X78803937Y-61340226D01*
X78732755Y-61269044D01*
X78791790Y-61210010D01*
X87512668Y-61210010D01*
X87549990Y-61213686D01*
X87587312Y-61210010D01*
X87587323Y-61210010D01*
X87698976Y-61199013D01*
X87842237Y-61155556D01*
X87974266Y-61084984D01*
X88089991Y-60990011D01*
X88113794Y-60961007D01*
X94039802Y-55035000D01*
X94101939Y-55035000D01*
X94301898Y-54995226D01*
X94490256Y-54917205D01*
X94659774Y-54803937D01*
X94803937Y-54659774D01*
X94917205Y-54490256D01*
X94995226Y-54301898D01*
X95035000Y-54101939D01*
X95035000Y-53898061D01*
X94995226Y-53698102D01*
X94917205Y-53509744D01*
X94881488Y-53456289D01*
X96543710Y-55118512D01*
X96490256Y-55082795D01*
X96301898Y-55004774D01*
X96101939Y-54965000D01*
X95898061Y-54965000D01*
X95698102Y-55004774D01*
X95509744Y-55082795D01*
X95340226Y-55196063D01*
X95196063Y-55340226D01*
X95082795Y-55509744D01*
X95004774Y-55698102D01*
X94965000Y-55898061D01*
X94965000Y-56101939D01*
X95004774Y-56301898D01*
X95082795Y-56490256D01*
X95196063Y-56659774D01*
X95240001Y-56703712D01*
X95240000Y-61021033D01*
X95235056Y-61037332D01*
X95211708Y-61114302D01*
X95202035Y-61212510D01*
X95197034Y-61263288D01*
X95200711Y-61300620D01*
X95200710Y-68827659D01*
X95070175Y-68914880D01*
X94875590Y-69109465D01*
X94722705Y-69338273D01*
X94693018Y-69409943D01*
X94688346Y-69396977D01*
X94626366Y-69281020D01*
X94386275Y-69214040D01*
X93600315Y-70000000D01*
X94386275Y-70785960D01*
X94626366Y-70718980D01*
X94690195Y-70583240D01*
X94722705Y-70661727D01*
X94875590Y-70890535D01*
X95070175Y-71085120D01*
X95298983Y-71238005D01*
X95553220Y-71343314D01*
X95823118Y-71397000D01*
X96098302Y-71397000D01*
X96368200Y-71343314D01*
X96622437Y-71238005D01*
X96851245Y-71085120D01*
X97045830Y-70890535D01*
X97198715Y-70661727D01*
X97304024Y-70407490D01*
X97357710Y-70137592D01*
X97357710Y-69862408D01*
X98603000Y-69862408D01*
X98603000Y-70137592D01*
X98656686Y-70407490D01*
X98761995Y-70661727D01*
X98914880Y-70890535D01*
X99109465Y-71085120D01*
X99338273Y-71238005D01*
X99592510Y-71343314D01*
X99862408Y-71397000D01*
X100137592Y-71397000D01*
X100407490Y-71343314D01*
X100661727Y-71238005D01*
X100890535Y-71085120D01*
X101010090Y-70965565D01*
X101754040Y-70965565D01*
X101821020Y-71205656D01*
X102070048Y-71322756D01*
X102337135Y-71389023D01*
X102612017Y-71401910D01*
X102884133Y-71360922D01*
X103143023Y-71267636D01*
X103258980Y-71205656D01*
X103325960Y-70965565D01*
X102540000Y-70179605D01*
X101754040Y-70965565D01*
X101010090Y-70965565D01*
X101085120Y-70890535D01*
X101238005Y-70661727D01*
X101267692Y-70590057D01*
X101272364Y-70603023D01*
X101334344Y-70718980D01*
X101574435Y-70785960D01*
X102360395Y-70000000D01*
X102719605Y-70000000D01*
X103505565Y-70785960D01*
X103745656Y-70718980D01*
X103809485Y-70583240D01*
X103841995Y-70661727D01*
X103994880Y-70890535D01*
X104189465Y-71085120D01*
X104418273Y-71238005D01*
X104672510Y-71343314D01*
X104942408Y-71397000D01*
X105217592Y-71397000D01*
X105487490Y-71343314D01*
X105741727Y-71238005D01*
X105970535Y-71085120D01*
X106165120Y-70890535D01*
X106318005Y-70661727D01*
X106423314Y-70407490D01*
X106477000Y-70137592D01*
X106477000Y-69862408D01*
X106423314Y-69592510D01*
X106318005Y-69338273D01*
X106165120Y-69109465D01*
X105970535Y-68914880D01*
X105741727Y-68761995D01*
X105487490Y-68656686D01*
X105217592Y-68603000D01*
X104942408Y-68603000D01*
X104672510Y-68656686D01*
X104418273Y-68761995D01*
X104189465Y-68914880D01*
X103994880Y-69109465D01*
X103841995Y-69338273D01*
X103812308Y-69409943D01*
X103807636Y-69396977D01*
X103745656Y-69281020D01*
X103505565Y-69214040D01*
X102719605Y-70000000D01*
X102360395Y-70000000D01*
X101574435Y-69214040D01*
X101334344Y-69281020D01*
X101270515Y-69416760D01*
X101238005Y-69338273D01*
X101085120Y-69109465D01*
X101010090Y-69034435D01*
X101754040Y-69034435D01*
X102540000Y-69820395D01*
X103325960Y-69034435D01*
X103258980Y-68794344D01*
X103009952Y-68677244D01*
X102742865Y-68610977D01*
X102467983Y-68598090D01*
X102195867Y-68639078D01*
X101936977Y-68732364D01*
X101821020Y-68794344D01*
X101754040Y-69034435D01*
X101010090Y-69034435D01*
X100890535Y-68914880D01*
X100661727Y-68761995D01*
X100407490Y-68656686D01*
X100137592Y-68603000D01*
X99862408Y-68603000D01*
X99592510Y-68656686D01*
X99338273Y-68761995D01*
X99109465Y-68914880D01*
X98914880Y-69109465D01*
X98761995Y-69338273D01*
X98656686Y-69592510D01*
X98603000Y-69862408D01*
X97357710Y-69862408D01*
X97304024Y-69592510D01*
X97198715Y-69338273D01*
X97045830Y-69109465D01*
X96851245Y-68914880D01*
X96720710Y-68827659D01*
X96720710Y-61466255D01*
X96749003Y-61372984D01*
X96760000Y-61261331D01*
X96760000Y-61261321D01*
X96763676Y-61223999D01*
X96760000Y-61186676D01*
X96760000Y-56703711D01*
X96803937Y-56659774D01*
X96917205Y-56490256D01*
X96995226Y-56301898D01*
X97035000Y-56101939D01*
X97035000Y-55898061D01*
X96995226Y-55698102D01*
X96917205Y-55509744D01*
X96881488Y-55456290D01*
X98240001Y-56814803D01*
X98240000Y-58691755D01*
X98037431Y-58827107D01*
X97827107Y-59037431D01*
X97661856Y-59284747D01*
X97548029Y-59559549D01*
X97490000Y-59851278D01*
X97490000Y-60148722D01*
X97548029Y-60440451D01*
X97661856Y-60715253D01*
X97827107Y-60962569D01*
X98037431Y-61172893D01*
X98284747Y-61338144D01*
X98559549Y-61451971D01*
X98851278Y-61510000D01*
X99148722Y-61510000D01*
X99440451Y-61451971D01*
X99715253Y-61338144D01*
X99962569Y-61172893D01*
X100172893Y-60962569D01*
X100308245Y-60760000D01*
X103691755Y-60760000D01*
X103827107Y-60962569D01*
X104037431Y-61172893D01*
X104284747Y-61338144D01*
X104559549Y-61451971D01*
X104851278Y-61510000D01*
X105148722Y-61510000D01*
X105440451Y-61451971D01*
X105715253Y-61338144D01*
X105962569Y-61172893D01*
X106172893Y-60962569D01*
X106338144Y-60715253D01*
X106451971Y-60440451D01*
X106510000Y-60148722D01*
X106510000Y-59851278D01*
X106451971Y-59559549D01*
X106338144Y-59284747D01*
X106172893Y-59037431D01*
X105962569Y-58827107D01*
X105760000Y-58691755D01*
X105760000Y-56552237D01*
X108641033Y-53671205D01*
X108603000Y-53862408D01*
X108603000Y-54137592D01*
X108656686Y-54407490D01*
X108761995Y-54661727D01*
X108914880Y-54890535D01*
X109109465Y-55085120D01*
X109338273Y-55238005D01*
X109415515Y-55270000D01*
X109338273Y-55301995D01*
X109109465Y-55454880D01*
X108914880Y-55649465D01*
X108761995Y-55878273D01*
X108656686Y-56132510D01*
X108603000Y-56402408D01*
X108603000Y-56677592D01*
X108656686Y-56947490D01*
X108761995Y-57201727D01*
X108914880Y-57430535D01*
X109109465Y-57625120D01*
X109338273Y-57778005D01*
X109415515Y-57810000D01*
X109338273Y-57841995D01*
X109109465Y-57994880D01*
X108914880Y-58189465D01*
X108761995Y-58418273D01*
X108656686Y-58672510D01*
X108603000Y-58942408D01*
X108603000Y-59217592D01*
X108656686Y-59487490D01*
X108761995Y-59741727D01*
X108914880Y-59970535D01*
X109109465Y-60165120D01*
X109338273Y-60318005D01*
X109415515Y-60350000D01*
X109338273Y-60381995D01*
X109109465Y-60534880D01*
X108914880Y-60729465D01*
X108761995Y-60958273D01*
X108656686Y-61212510D01*
X108603000Y-61482408D01*
X108603000Y-61757592D01*
X108656686Y-62027490D01*
X108761995Y-62281727D01*
X108914880Y-62510535D01*
X109109465Y-62705120D01*
X109226429Y-62783273D01*
X109029465Y-62914880D01*
X108834880Y-63109465D01*
X108681995Y-63338273D01*
X108576686Y-63592510D01*
X108523000Y-63862408D01*
X108523000Y-64137592D01*
X108576686Y-64407490D01*
X108681995Y-64661727D01*
X108834880Y-64890535D01*
X109029465Y-65085120D01*
X109258273Y-65238005D01*
X109335515Y-65270000D01*
X109258273Y-65301995D01*
X109029465Y-65454880D01*
X108834880Y-65649465D01*
X108681995Y-65878273D01*
X108576686Y-66132510D01*
X108523000Y-66402408D01*
X108523000Y-66677592D01*
X108576686Y-66947490D01*
X108681995Y-67201727D01*
X108834880Y-67430535D01*
X109029465Y-67625120D01*
X109258273Y-67778005D01*
X109335515Y-67810000D01*
X109258273Y-67841995D01*
X109029465Y-67994880D01*
X108834880Y-68189465D01*
X108681995Y-68418273D01*
X108576686Y-68672510D01*
X108523000Y-68942408D01*
X108523000Y-69217592D01*
X108576686Y-69487490D01*
X108681995Y-69741727D01*
X108834880Y-69970535D01*
X109029465Y-70165120D01*
X109258273Y-70318005D01*
X109335515Y-70350000D01*
X109258273Y-70381995D01*
X109029465Y-70534880D01*
X108834880Y-70729465D01*
X108681995Y-70958273D01*
X108576686Y-71212510D01*
X108523000Y-71482408D01*
X108523000Y-71757592D01*
X108576686Y-72027490D01*
X108681995Y-72281727D01*
X108834880Y-72510535D01*
X109029465Y-72705120D01*
X109258273Y-72858005D01*
X109512510Y-72963314D01*
X109782408Y-73017000D01*
X110057592Y-73017000D01*
X110327490Y-72963314D01*
X110581727Y-72858005D01*
X110810535Y-72705120D01*
X111005120Y-72510535D01*
X111158005Y-72281727D01*
X111190000Y-72204485D01*
X111221995Y-72281727D01*
X111374880Y-72510535D01*
X111569465Y-72705120D01*
X111798273Y-72858005D01*
X112052510Y-72963314D01*
X112322408Y-73017000D01*
X112597592Y-73017000D01*
X112867490Y-72963314D01*
X113121727Y-72858005D01*
X113350535Y-72705120D01*
X113545120Y-72510535D01*
X113698005Y-72281727D01*
X113730000Y-72204485D01*
X113761995Y-72281727D01*
X113914880Y-72510535D01*
X114109465Y-72705120D01*
X114338273Y-72858005D01*
X114592510Y-72963314D01*
X114862408Y-73017000D01*
X115137592Y-73017000D01*
X115407490Y-72963314D01*
X115661727Y-72858005D01*
X115890535Y-72705120D01*
X116085120Y-72510535D01*
X116238005Y-72281727D01*
X116270000Y-72204485D01*
X116301995Y-72281727D01*
X116454880Y-72510535D01*
X116649465Y-72705120D01*
X116878273Y-72858005D01*
X117132510Y-72963314D01*
X117402408Y-73017000D01*
X117677592Y-73017000D01*
X117947490Y-72963314D01*
X118201727Y-72858005D01*
X118430535Y-72705120D01*
X118625120Y-72510535D01*
X118778005Y-72281727D01*
X118873000Y-72052390D01*
X118873000Y-73873000D01*
X21127000Y-73873000D01*
X21127000Y-45033998D01*
X23236324Y-45033998D01*
X23240001Y-45071331D01*
X23240000Y-60962678D01*
X23236324Y-61000000D01*
X23240000Y-61037322D01*
X23240000Y-61037332D01*
X23250997Y-61148985D01*
X23281942Y-61250998D01*
X23294454Y-61292246D01*
X23365026Y-61424276D01*
X23404871Y-61472826D01*
X23459999Y-61540001D01*
X23489003Y-61563804D01*
X32436200Y-70511002D01*
X32459999Y-70540001D01*
X32488997Y-70563799D01*
X32575723Y-70634974D01*
X32707751Y-70705545D01*
X32707753Y-70705546D01*
X32851014Y-70749003D01*
X32962667Y-70760000D01*
X32962676Y-70760000D01*
X32999999Y-70763676D01*
X33037322Y-70760000D01*
X34992659Y-70760000D01*
X35079880Y-70890535D01*
X35274465Y-71085120D01*
X35503273Y-71238005D01*
X35757510Y-71343314D01*
X36027408Y-71397000D01*
X36302592Y-71397000D01*
X36572490Y-71343314D01*
X36826727Y-71238005D01*
X37055535Y-71085120D01*
X37175090Y-70965565D01*
X37919040Y-70965565D01*
X37986020Y-71205656D01*
X38235048Y-71322756D01*
X38502135Y-71389023D01*
X38777017Y-71401910D01*
X39049133Y-71360922D01*
X39308023Y-71267636D01*
X39423980Y-71205656D01*
X39490960Y-70965565D01*
X38705000Y-70179605D01*
X37919040Y-70965565D01*
X37175090Y-70965565D01*
X37250120Y-70890535D01*
X37403005Y-70661727D01*
X37432692Y-70590057D01*
X37437364Y-70603023D01*
X37499344Y-70718980D01*
X37739435Y-70785960D01*
X38525395Y-70000000D01*
X37739435Y-69214040D01*
X37499344Y-69281020D01*
X37435515Y-69416760D01*
X37403005Y-69338273D01*
X37250120Y-69109465D01*
X37055535Y-68914880D01*
X36826727Y-68761995D01*
X36821911Y-68760000D01*
X38050273Y-68760000D01*
X37986020Y-68794344D01*
X37919040Y-69034435D01*
X38705000Y-69820395D01*
X39490960Y-69034435D01*
X39423980Y-68794344D01*
X39350943Y-68760000D01*
X40588089Y-68760000D01*
X40583273Y-68761995D01*
X40354465Y-68914880D01*
X40159880Y-69109465D01*
X40006995Y-69338273D01*
X39977308Y-69409943D01*
X39972636Y-69396977D01*
X39910656Y-69281020D01*
X39670565Y-69214040D01*
X38884605Y-70000000D01*
X39670565Y-70785960D01*
X39910656Y-70718980D01*
X39974485Y-70583240D01*
X40006995Y-70661727D01*
X40159880Y-70890535D01*
X40354465Y-71085120D01*
X40583273Y-71238005D01*
X40837510Y-71343314D01*
X41107408Y-71397000D01*
X41382592Y-71397000D01*
X41652490Y-71343314D01*
X41906727Y-71238005D01*
X42135535Y-71085120D01*
X42330120Y-70890535D01*
X42483005Y-70661727D01*
X42588314Y-70407490D01*
X42642000Y-70137592D01*
X42642000Y-69862408D01*
X42588314Y-69592510D01*
X42483005Y-69338273D01*
X42330120Y-69109465D01*
X42135535Y-68914880D01*
X41906727Y-68761995D01*
X41901911Y-68760000D01*
X42969484Y-68760000D01*
X43917913Y-69708430D01*
X43887285Y-69862408D01*
X43887285Y-70137592D01*
X43940971Y-70407490D01*
X44046280Y-70661727D01*
X44199165Y-70890535D01*
X44393750Y-71085120D01*
X44622558Y-71238005D01*
X44876795Y-71343314D01*
X45146693Y-71397000D01*
X45421877Y-71397000D01*
X45691775Y-71343314D01*
X45946012Y-71238005D01*
X46174820Y-71085120D01*
X46294375Y-70965565D01*
X47038325Y-70965565D01*
X47105305Y-71205656D01*
X47354333Y-71322756D01*
X47621420Y-71389023D01*
X47896302Y-71401910D01*
X48168418Y-71360922D01*
X48427308Y-71267636D01*
X48543265Y-71205656D01*
X48610245Y-70965565D01*
X47824285Y-70179605D01*
X47038325Y-70965565D01*
X46294375Y-70965565D01*
X46369405Y-70890535D01*
X46522290Y-70661727D01*
X46551977Y-70590057D01*
X46556649Y-70603023D01*
X46618629Y-70718980D01*
X46858720Y-70785960D01*
X47644680Y-70000000D01*
X48003890Y-70000000D01*
X48789850Y-70785960D01*
X49029941Y-70718980D01*
X49093770Y-70583240D01*
X49126280Y-70661727D01*
X49279165Y-70890535D01*
X49473750Y-71085120D01*
X49702558Y-71238005D01*
X49956795Y-71343314D01*
X50226693Y-71397000D01*
X50501877Y-71397000D01*
X50771775Y-71343314D01*
X51026012Y-71238005D01*
X51254820Y-71085120D01*
X51449405Y-70890535D01*
X51602290Y-70661727D01*
X51707599Y-70407490D01*
X51761285Y-70137592D01*
X51761285Y-69862408D01*
X51707599Y-69592510D01*
X51602290Y-69338273D01*
X51449405Y-69109465D01*
X51254820Y-68914880D01*
X51124285Y-68827659D01*
X51124285Y-64950516D01*
X52027149Y-64047653D01*
X52089286Y-64047653D01*
X52289245Y-64007879D01*
X52477603Y-63929858D01*
X52647121Y-63816590D01*
X52694454Y-63769257D01*
X53643571Y-64718374D01*
X53643570Y-68827659D01*
X53513035Y-68914880D01*
X53318450Y-69109465D01*
X53165565Y-69338273D01*
X53060256Y-69592510D01*
X53006570Y-69862408D01*
X53006570Y-70137592D01*
X53060256Y-70407490D01*
X53165565Y-70661727D01*
X53318450Y-70890535D01*
X53513035Y-71085120D01*
X53741843Y-71238005D01*
X53996080Y-71343314D01*
X54265978Y-71397000D01*
X54541162Y-71397000D01*
X54811060Y-71343314D01*
X55065297Y-71238005D01*
X55294105Y-71085120D01*
X55413660Y-70965565D01*
X56157610Y-70965565D01*
X56224590Y-71205656D01*
X56473618Y-71322756D01*
X56740705Y-71389023D01*
X57015587Y-71401910D01*
X57287703Y-71360922D01*
X57546593Y-71267636D01*
X57662550Y-71205656D01*
X57729530Y-70965565D01*
X56943570Y-70179605D01*
X56157610Y-70965565D01*
X55413660Y-70965565D01*
X55488690Y-70890535D01*
X55641575Y-70661727D01*
X55671262Y-70590057D01*
X55675934Y-70603023D01*
X55737914Y-70718980D01*
X55978005Y-70785960D01*
X56763965Y-70000000D01*
X57123175Y-70000000D01*
X57909135Y-70785960D01*
X58149226Y-70718980D01*
X58213055Y-70583240D01*
X58245565Y-70661727D01*
X58398450Y-70890535D01*
X58593035Y-71085120D01*
X58821843Y-71238005D01*
X59076080Y-71343314D01*
X59345978Y-71397000D01*
X59621162Y-71397000D01*
X59891060Y-71343314D01*
X60145297Y-71238005D01*
X60374105Y-71085120D01*
X60568690Y-70890535D01*
X60721575Y-70661727D01*
X60826884Y-70407490D01*
X60880570Y-70137592D01*
X60880570Y-69862408D01*
X60826884Y-69592510D01*
X60721575Y-69338273D01*
X60568690Y-69109465D01*
X60374105Y-68914880D01*
X60145297Y-68761995D01*
X59891060Y-68656686D01*
X59621162Y-68603000D01*
X59345978Y-68603000D01*
X59076080Y-68656686D01*
X58821843Y-68761995D01*
X58593035Y-68914880D01*
X58398450Y-69109465D01*
X58245565Y-69338273D01*
X58215878Y-69409943D01*
X58211206Y-69396977D01*
X58149226Y-69281020D01*
X57909135Y-69214040D01*
X57123175Y-70000000D01*
X56763965Y-70000000D01*
X55978005Y-69214040D01*
X55737914Y-69281020D01*
X55674085Y-69416760D01*
X55641575Y-69338273D01*
X55488690Y-69109465D01*
X55413660Y-69034435D01*
X56157610Y-69034435D01*
X56943570Y-69820395D01*
X57729530Y-69034435D01*
X57662550Y-68794344D01*
X57413522Y-68677244D01*
X57146435Y-68610977D01*
X56871553Y-68598090D01*
X56599437Y-68639078D01*
X56340547Y-68732364D01*
X56224590Y-68794344D01*
X56157610Y-69034435D01*
X55413660Y-69034435D01*
X55294105Y-68914880D01*
X55163570Y-68827659D01*
X55163570Y-64440892D01*
X55167246Y-64403569D01*
X55163570Y-64366246D01*
X55163570Y-64366237D01*
X55152573Y-64254584D01*
X55109116Y-64111323D01*
X55038544Y-63979294D01*
X55025381Y-63963255D01*
X54967369Y-63892566D01*
X54967365Y-63892562D01*
X54943571Y-63863569D01*
X54914578Y-63839775D01*
X51035000Y-59960199D01*
X51035000Y-59898061D01*
X50995226Y-59698102D01*
X50917205Y-59509744D01*
X50803937Y-59340226D01*
X50659774Y-59196063D01*
X50490256Y-59082795D01*
X50301898Y-59004774D01*
X50101939Y-58965000D01*
X49898061Y-58965000D01*
X49698102Y-59004774D01*
X49509744Y-59082795D01*
X49340226Y-59196063D01*
X49196063Y-59340226D01*
X49082795Y-59509744D01*
X49004774Y-59698102D01*
X48965000Y-59898061D01*
X48965000Y-60101939D01*
X49004774Y-60301898D01*
X49082795Y-60490256D01*
X49196063Y-60659774D01*
X49340226Y-60803937D01*
X49509744Y-60917205D01*
X49698102Y-60995226D01*
X49898061Y-61035000D01*
X49960199Y-61035000D01*
X51230744Y-62305545D01*
X51183410Y-62352879D01*
X51070142Y-62522397D01*
X50992121Y-62710755D01*
X50952347Y-62910714D01*
X50952347Y-62972851D01*
X49853288Y-64071911D01*
X49824284Y-64095714D01*
X49789916Y-64137592D01*
X49729311Y-64211439D01*
X49684938Y-64294454D01*
X49658739Y-64343469D01*
X49615282Y-64486730D01*
X49604285Y-64598383D01*
X49604285Y-64598393D01*
X49600609Y-64635715D01*
X49604285Y-64673038D01*
X49604286Y-68827659D01*
X49473750Y-68914880D01*
X49279165Y-69109465D01*
X49126280Y-69338273D01*
X49096593Y-69409943D01*
X49091921Y-69396977D01*
X49029941Y-69281020D01*
X48789850Y-69214040D01*
X48003890Y-70000000D01*
X47644680Y-70000000D01*
X46858720Y-69214040D01*
X46618629Y-69281020D01*
X46554800Y-69416760D01*
X46522290Y-69338273D01*
X46369405Y-69109465D01*
X46294375Y-69034435D01*
X47038325Y-69034435D01*
X47824285Y-69820395D01*
X48610245Y-69034435D01*
X48543265Y-68794344D01*
X48294237Y-68677244D01*
X48027150Y-68610977D01*
X47752268Y-68598090D01*
X47480152Y-68639078D01*
X47221262Y-68732364D01*
X47105305Y-68794344D01*
X47038325Y-69034435D01*
X46294375Y-69034435D01*
X46174820Y-68914880D01*
X45946012Y-68761995D01*
X45691775Y-68656686D01*
X45421877Y-68603000D01*
X45146693Y-68603000D01*
X44992715Y-68633628D01*
X43848089Y-67489003D01*
X43824286Y-67459999D01*
X43708561Y-67365026D01*
X43576532Y-67294454D01*
X43433271Y-67250997D01*
X43321618Y-67240000D01*
X43321607Y-67240000D01*
X43284285Y-67236324D01*
X43246963Y-67240000D01*
X33314802Y-67240000D01*
X26760000Y-60685199D01*
X26760000Y-53314801D01*
X27009249Y-53065552D01*
X27120308Y-53333673D01*
X27312919Y-53621935D01*
X27558065Y-53867081D01*
X27846327Y-54059692D01*
X28166627Y-54192364D01*
X28506655Y-54260000D01*
X28853345Y-54260000D01*
X29193373Y-54192364D01*
X29513673Y-54059692D01*
X29801935Y-53867081D01*
X30047081Y-53621935D01*
X30239692Y-53333673D01*
X30240000Y-53332929D01*
X30240000Y-53398722D01*
X30298029Y-53690451D01*
X30411856Y-53965253D01*
X30577107Y-54212569D01*
X30787431Y-54422893D01*
X31034747Y-54588144D01*
X31309549Y-54701971D01*
X31601278Y-54760000D01*
X31898722Y-54760000D01*
X32190451Y-54701971D01*
X32465253Y-54588144D01*
X32712569Y-54422893D01*
X32922893Y-54212569D01*
X33088144Y-53965253D01*
X33201971Y-53690451D01*
X33260000Y-53398722D01*
X33260000Y-53101278D01*
X36740000Y-53101278D01*
X36740000Y-53398722D01*
X36798029Y-53690451D01*
X36911856Y-53965253D01*
X37077107Y-54212569D01*
X37287431Y-54422893D01*
X37534747Y-54588144D01*
X37809549Y-54701971D01*
X38101278Y-54760000D01*
X38398722Y-54760000D01*
X38690451Y-54701971D01*
X38965253Y-54588144D01*
X39212569Y-54422893D01*
X39422893Y-54212569D01*
X39588144Y-53965253D01*
X39701971Y-53690451D01*
X39760000Y-53398722D01*
X39760000Y-53332929D01*
X39760308Y-53333673D01*
X39952919Y-53621935D01*
X40198065Y-53867081D01*
X40486327Y-54059692D01*
X40806627Y-54192364D01*
X41146655Y-54260000D01*
X41493345Y-54260000D01*
X41833373Y-54192364D01*
X42153673Y-54059692D01*
X42441935Y-53867081D01*
X42687081Y-53621935D01*
X42879692Y-53333673D01*
X43012364Y-53013373D01*
X43080000Y-52673345D01*
X43080000Y-52326655D01*
X43012364Y-51986627D01*
X42879692Y-51666327D01*
X42687081Y-51378065D01*
X42441935Y-51132919D01*
X42153673Y-50940308D01*
X41833373Y-50807636D01*
X41493345Y-50740000D01*
X41146655Y-50740000D01*
X40806627Y-50807636D01*
X40486327Y-50940308D01*
X40198065Y-51132919D01*
X39952919Y-51378065D01*
X39760308Y-51666327D01*
X39627636Y-51986627D01*
X39560000Y-52326655D01*
X39560000Y-52492626D01*
X39422893Y-52287431D01*
X39212569Y-52077107D01*
X38965253Y-51911856D01*
X38690451Y-51798029D01*
X38398722Y-51740000D01*
X38101278Y-51740000D01*
X37809549Y-51798029D01*
X37534747Y-51911856D01*
X37287431Y-52077107D01*
X37077107Y-52287431D01*
X36911856Y-52534747D01*
X36798029Y-52809549D01*
X36740000Y-53101278D01*
X33260000Y-53101278D01*
X33201971Y-52809549D01*
X33088144Y-52534747D01*
X32922893Y-52287431D01*
X32712569Y-52077107D01*
X32465253Y-51911856D01*
X32190451Y-51798029D01*
X31898722Y-51740000D01*
X31601278Y-51740000D01*
X31309549Y-51798029D01*
X31034747Y-51911856D01*
X30787431Y-52077107D01*
X30577107Y-52287431D01*
X30440000Y-52492626D01*
X30440000Y-52326655D01*
X30372364Y-51986627D01*
X30239692Y-51666327D01*
X30047081Y-51378065D01*
X29801935Y-51132919D01*
X29513673Y-50940308D01*
X29245552Y-50829249D01*
X34311003Y-45763799D01*
X34340000Y-45740002D01*
X34434973Y-45624277D01*
X34505545Y-45492248D01*
X34549002Y-45348987D01*
X34559999Y-45237334D01*
X34559999Y-45237325D01*
X34563675Y-45200002D01*
X34559999Y-45162679D01*
X34559999Y-45067543D01*
X42234196Y-45067543D01*
X42276499Y-45361963D01*
X42375428Y-45642474D01*
X42452132Y-45785975D01*
X42703760Y-45866635D01*
X43570395Y-45000000D01*
X42703760Y-44133365D01*
X42452132Y-44214025D01*
X42323733Y-44482329D01*
X42250145Y-44770526D01*
X42234196Y-45067543D01*
X34559999Y-45067543D01*
X34559999Y-42326655D01*
X39560000Y-42326655D01*
X39560000Y-42673345D01*
X39627636Y-43013373D01*
X39760308Y-43333673D01*
X39952919Y-43621935D01*
X40198065Y-43867081D01*
X40486327Y-44059692D01*
X40806627Y-44192364D01*
X41146655Y-44260000D01*
X41493345Y-44260000D01*
X41833373Y-44192364D01*
X42153673Y-44059692D01*
X42312211Y-43953760D01*
X42883365Y-43953760D01*
X43750000Y-44820395D01*
X44616635Y-43953760D01*
X44535975Y-43702132D01*
X44267671Y-43573733D01*
X43979474Y-43500145D01*
X43682457Y-43484196D01*
X43388037Y-43526499D01*
X43107526Y-43625428D01*
X42964025Y-43702132D01*
X42883365Y-43953760D01*
X42312211Y-43953760D01*
X42441935Y-43867081D01*
X42687081Y-43621935D01*
X42879692Y-43333673D01*
X43012364Y-43013373D01*
X43080000Y-42673345D01*
X43080000Y-42326655D01*
X43012364Y-41986627D01*
X42879692Y-41666327D01*
X42687081Y-41378065D01*
X42441935Y-41132919D01*
X42153673Y-40940308D01*
X41833373Y-40807636D01*
X41493345Y-40740000D01*
X41146655Y-40740000D01*
X40806627Y-40807636D01*
X40486327Y-40940308D01*
X40198065Y-41132919D01*
X39952919Y-41378065D01*
X39760308Y-41666327D01*
X39627636Y-41986627D01*
X39560000Y-42326655D01*
X34559999Y-42326655D01*
X34559999Y-40202061D01*
X34851278Y-40260000D01*
X35148722Y-40260000D01*
X35440451Y-40201971D01*
X35715253Y-40088144D01*
X35962569Y-39922893D01*
X36089222Y-39796240D01*
X36633365Y-39796240D01*
X36714025Y-40047868D01*
X36982329Y-40176267D01*
X37270526Y-40249855D01*
X37567543Y-40265804D01*
X37861963Y-40223501D01*
X38142474Y-40124572D01*
X38285975Y-40047868D01*
X38366635Y-39796240D01*
X37500000Y-38929605D01*
X36633365Y-39796240D01*
X36089222Y-39796240D01*
X36172893Y-39712569D01*
X36275232Y-39559407D01*
X36453760Y-39616635D01*
X37320395Y-38750000D01*
X37306253Y-38735858D01*
X37485858Y-38556253D01*
X37500000Y-38570395D01*
X37514143Y-38556253D01*
X37693748Y-38735858D01*
X37679605Y-38750000D01*
X38546240Y-39616635D01*
X38797868Y-39535975D01*
X38926267Y-39267671D01*
X38966570Y-39109831D01*
X39004774Y-39301898D01*
X39082795Y-39490256D01*
X39196063Y-39659774D01*
X39340226Y-39803937D01*
X39509744Y-39917205D01*
X39698102Y-39995226D01*
X39898061Y-40035000D01*
X40101939Y-40035000D01*
X40301898Y-39995226D01*
X40490256Y-39917205D01*
X40659774Y-39803937D01*
X40703711Y-39760000D01*
X44296289Y-39760000D01*
X44340226Y-39803937D01*
X44509744Y-39917205D01*
X44698102Y-39995226D01*
X44898061Y-40035000D01*
X45101939Y-40035000D01*
X45301898Y-39995226D01*
X45490256Y-39917205D01*
X45659774Y-39803937D01*
X45803937Y-39659774D01*
X45917205Y-39490256D01*
X45995226Y-39301898D01*
X46035000Y-39101939D01*
X46035000Y-38898061D01*
X45995226Y-38698102D01*
X45917205Y-38509744D01*
X45803937Y-38340226D01*
X45773710Y-38309999D01*
X51865200Y-38309999D01*
X45262907Y-44912292D01*
X45223501Y-44638037D01*
X45124572Y-44357526D01*
X45047868Y-44214025D01*
X44796240Y-44133365D01*
X43929605Y-45000000D01*
X43943748Y-45014143D01*
X43764143Y-45193748D01*
X43750000Y-45179605D01*
X42883365Y-46046240D01*
X42940593Y-46224768D01*
X42787431Y-46327107D01*
X42577107Y-46537431D01*
X42411856Y-46784747D01*
X42298029Y-47059549D01*
X42240000Y-47351278D01*
X42240000Y-47648722D01*
X42298029Y-47940451D01*
X42411856Y-48215253D01*
X42577107Y-48462569D01*
X42787431Y-48672893D01*
X42902830Y-48750000D01*
X42787431Y-48827107D01*
X42577107Y-49037431D01*
X42411856Y-49284747D01*
X42298029Y-49559549D01*
X42240000Y-49851278D01*
X42240000Y-50148722D01*
X42298029Y-50440451D01*
X42411856Y-50715253D01*
X42577107Y-50962569D01*
X42787431Y-51172893D01*
X43034747Y-51338144D01*
X43309549Y-51451971D01*
X43601278Y-51510000D01*
X43898722Y-51510000D01*
X44190451Y-51451971D01*
X44465253Y-51338144D01*
X44712569Y-51172893D01*
X44922893Y-50962569D01*
X45088144Y-50715253D01*
X45201971Y-50440451D01*
X45260000Y-50148722D01*
X45260000Y-49851278D01*
X45201971Y-49559549D01*
X45088144Y-49284747D01*
X44922893Y-49037431D01*
X44712569Y-48827107D01*
X44597170Y-48750000D01*
X44712569Y-48672893D01*
X44922893Y-48462569D01*
X45088144Y-48215253D01*
X45201971Y-47940451D01*
X45260000Y-47648722D01*
X45260000Y-47351278D01*
X45212470Y-47112331D01*
X48426740Y-43898061D01*
X48965000Y-43898061D01*
X48965000Y-44101939D01*
X49004774Y-44301898D01*
X49082795Y-44490256D01*
X49196063Y-44659774D01*
X49340226Y-44803937D01*
X49509744Y-44917205D01*
X49698102Y-44995226D01*
X49898061Y-45035000D01*
X50101939Y-45035000D01*
X50301898Y-44995226D01*
X50490256Y-44917205D01*
X50659774Y-44803937D01*
X50803937Y-44659774D01*
X50917205Y-44490256D01*
X50995226Y-44301898D01*
X51035000Y-44101939D01*
X51035000Y-44039801D01*
X51314802Y-43760000D01*
X67296289Y-43760000D01*
X67340226Y-43803937D01*
X67509744Y-43917205D01*
X67698102Y-43995226D01*
X67898061Y-44035000D01*
X68101939Y-44035000D01*
X68301898Y-43995226D01*
X68490256Y-43917205D01*
X68659774Y-43803937D01*
X68803937Y-43659774D01*
X68917205Y-43490256D01*
X68995226Y-43301898D01*
X69035000Y-43101939D01*
X69035000Y-42898061D01*
X68995226Y-42698102D01*
X68917205Y-42509744D01*
X68803937Y-42340226D01*
X68659774Y-42196063D01*
X68490256Y-42082795D01*
X68301898Y-42004774D01*
X68101939Y-41965000D01*
X67898061Y-41965000D01*
X67698102Y-42004774D01*
X67509744Y-42082795D01*
X67340226Y-42196063D01*
X67296289Y-42240000D01*
X51037333Y-42240000D01*
X51000000Y-42236323D01*
X50962667Y-42240000D01*
X50851014Y-42250997D01*
X50707753Y-42294454D01*
X50575724Y-42365026D01*
X50459999Y-42459999D01*
X50436201Y-42488997D01*
X49960199Y-42965000D01*
X49898061Y-42965000D01*
X49698102Y-43004774D01*
X49509744Y-43082795D01*
X49340226Y-43196063D01*
X49196063Y-43340226D01*
X49082795Y-43509744D01*
X49004774Y-43698102D01*
X48965000Y-43898061D01*
X48426740Y-43898061D01*
X62357377Y-29967424D01*
X65422000Y-29967424D01*
X65422000Y-30192576D01*
X65465925Y-30413401D01*
X65552087Y-30621413D01*
X65677174Y-30808620D01*
X65836380Y-30967826D01*
X66023587Y-31092913D01*
X66231599Y-31179075D01*
X66452424Y-31223000D01*
X66677576Y-31223000D01*
X66898401Y-31179075D01*
X67106413Y-31092913D01*
X67293620Y-30967826D01*
X67452826Y-30808620D01*
X67577913Y-30621413D01*
X67664075Y-30413401D01*
X67708000Y-30192576D01*
X67708000Y-29967424D01*
X67712000Y-29967424D01*
X67712000Y-30192576D01*
X67755925Y-30413401D01*
X67842087Y-30621413D01*
X67967174Y-30808620D01*
X68126380Y-30967826D01*
X68313587Y-31092913D01*
X68521599Y-31179075D01*
X68742424Y-31223000D01*
X68967576Y-31223000D01*
X69188401Y-31179075D01*
X69396413Y-31092913D01*
X69583620Y-30967826D01*
X69742826Y-30808620D01*
X69867913Y-30621413D01*
X69954075Y-30413401D01*
X69998000Y-30192576D01*
X69998000Y-29967424D01*
X69954075Y-29746599D01*
X69867913Y-29538587D01*
X69742826Y-29351380D01*
X69583620Y-29192174D01*
X69396413Y-29067087D01*
X69188401Y-28980925D01*
X68967576Y-28937000D01*
X68742424Y-28937000D01*
X68521599Y-28980925D01*
X68313587Y-29067087D01*
X68126380Y-29192174D01*
X67967174Y-29351380D01*
X67842087Y-29538587D01*
X67755925Y-29746599D01*
X67712000Y-29967424D01*
X67708000Y-29967424D01*
X67664075Y-29746599D01*
X67577913Y-29538587D01*
X67452826Y-29351380D01*
X67293620Y-29192174D01*
X67106413Y-29067087D01*
X66898401Y-28980925D01*
X66677576Y-28937000D01*
X66452424Y-28937000D01*
X66231599Y-28980925D01*
X66023587Y-29067087D01*
X65836380Y-29192174D01*
X65677174Y-29351380D01*
X65552087Y-29538587D01*
X65465925Y-29746599D01*
X65422000Y-29967424D01*
X62357377Y-29967424D01*
X64024802Y-28300000D01*
X64563554Y-28300000D01*
X64691380Y-28427826D01*
X64878587Y-28552913D01*
X65086599Y-28639075D01*
X65307424Y-28683000D01*
X65532576Y-28683000D01*
X65753401Y-28639075D01*
X65961413Y-28552913D01*
X66148620Y-28427826D01*
X66307826Y-28268620D01*
X66432913Y-28081413D01*
X66519075Y-27873401D01*
X66563000Y-27652576D01*
X66563000Y-27467801D01*
X66567000Y-27471801D01*
X66567000Y-27652576D01*
X66610925Y-27873401D01*
X66697087Y-28081413D01*
X66822174Y-28268620D01*
X66981380Y-28427826D01*
X67168587Y-28552913D01*
X67376599Y-28639075D01*
X67597424Y-28683000D01*
X67822576Y-28683000D01*
X68043401Y-28639075D01*
X68251413Y-28552913D01*
X68438620Y-28427826D01*
X68597826Y-28268620D01*
X68722913Y-28081413D01*
X68809075Y-27873401D01*
X68853000Y-27652576D01*
X68853000Y-27427424D01*
X68809075Y-27206599D01*
X68722913Y-26998587D01*
X68597826Y-26811380D01*
X68438620Y-26652174D01*
X68251413Y-26527087D01*
X68043401Y-26440925D01*
X67822576Y-26397000D01*
X67641801Y-26397000D01*
X67440802Y-26196001D01*
X67417000Y-26166998D01*
X67301275Y-26072025D01*
X67169246Y-26001453D01*
X67137828Y-25991923D01*
X67293620Y-25887826D01*
X67397549Y-25783897D01*
X68250708Y-25783897D01*
X68286796Y-25998131D01*
X68492439Y-26089803D01*
X68712016Y-26139595D01*
X68937087Y-26145593D01*
X69159004Y-26107566D01*
X69369238Y-26026976D01*
X69423204Y-25998131D01*
X69459292Y-25783897D01*
X68855000Y-25179605D01*
X68250708Y-25783897D01*
X67397549Y-25783897D01*
X67452826Y-25728620D01*
X67577913Y-25541413D01*
X67664075Y-25333401D01*
X67708000Y-25112576D01*
X67708000Y-24926999D01*
X67713540Y-24926999D01*
X67709407Y-25082087D01*
X67747434Y-25304004D01*
X67828024Y-25514238D01*
X67856869Y-25568204D01*
X68071103Y-25604292D01*
X68675395Y-25000000D01*
X68661253Y-24985858D01*
X68720111Y-24926999D01*
X68989889Y-24926999D01*
X69048748Y-24985858D01*
X69034605Y-25000000D01*
X69638897Y-25604292D01*
X69853131Y-25568204D01*
X69944803Y-25362561D01*
X69994595Y-25142984D01*
X70000269Y-24930070D01*
X70002000Y-24931801D01*
X70002000Y-25112576D01*
X70045925Y-25333401D01*
X70132087Y-25541413D01*
X70257174Y-25728620D01*
X70416380Y-25887826D01*
X70603587Y-26012913D01*
X70811599Y-26099075D01*
X71032424Y-26143000D01*
X71257576Y-26143000D01*
X71478401Y-26099075D01*
X71686413Y-26012913D01*
X71873620Y-25887826D01*
X72032826Y-25728620D01*
X72058073Y-25690835D01*
X72085595Y-25705546D01*
X72228856Y-25749003D01*
X72377842Y-25763677D01*
X72415175Y-25760000D01*
X72578554Y-25760000D01*
X72706380Y-25887826D01*
X72893587Y-26012913D01*
X73101599Y-26099075D01*
X73322424Y-26143000D01*
X73547576Y-26143000D01*
X73768401Y-26099075D01*
X73976413Y-26012913D01*
X74163620Y-25887826D01*
X74322826Y-25728620D01*
X74447913Y-25541413D01*
X74534075Y-25333401D01*
X74578000Y-25112576D01*
X74578000Y-24927802D01*
X74582000Y-24931802D01*
X74582000Y-25112576D01*
X74625925Y-25333401D01*
X74712087Y-25541413D01*
X74837174Y-25728620D01*
X74996380Y-25887826D01*
X75183587Y-26012913D01*
X75391599Y-26099075D01*
X75612424Y-26143000D01*
X75837576Y-26143000D01*
X76058401Y-26099075D01*
X76266413Y-26012913D01*
X76453620Y-25887826D01*
X76612826Y-25728620D01*
X76737913Y-25541413D01*
X76824075Y-25333401D01*
X76868000Y-25112576D01*
X76868000Y-24887424D01*
X76824075Y-24666599D01*
X76737913Y-24458587D01*
X76612826Y-24271380D01*
X76453620Y-24112174D01*
X76266413Y-23987087D01*
X76058401Y-23900925D01*
X75837576Y-23857000D01*
X75656802Y-23857000D01*
X74651080Y-22851278D01*
X109490000Y-22851278D01*
X109490000Y-23148722D01*
X109548029Y-23440451D01*
X109661856Y-23715253D01*
X109827107Y-23962569D01*
X110037431Y-24172893D01*
X110284747Y-24338144D01*
X110559549Y-24451971D01*
X110851278Y-24510000D01*
X111148722Y-24510000D01*
X111440451Y-24451971D01*
X111715253Y-24338144D01*
X111962569Y-24172893D01*
X112172893Y-23962569D01*
X112338144Y-23715253D01*
X112451971Y-23440451D01*
X112510000Y-23148722D01*
X112510000Y-22851278D01*
X115490000Y-22851278D01*
X115490000Y-23148722D01*
X115548029Y-23440451D01*
X115661856Y-23715253D01*
X115827107Y-23962569D01*
X116037431Y-24172893D01*
X116284747Y-24338144D01*
X116559549Y-24451971D01*
X116851278Y-24510000D01*
X117148722Y-24510000D01*
X117440451Y-24451971D01*
X117715253Y-24338144D01*
X117962569Y-24172893D01*
X118172893Y-23962569D01*
X118338144Y-23715253D01*
X118451971Y-23440451D01*
X118510000Y-23148722D01*
X118510000Y-22851278D01*
X118451971Y-22559549D01*
X118338144Y-22284747D01*
X118172893Y-22037431D01*
X117962569Y-21827107D01*
X117715253Y-21661856D01*
X117440451Y-21548029D01*
X117148722Y-21490000D01*
X116851278Y-21490000D01*
X116559549Y-21548029D01*
X116284747Y-21661856D01*
X116037431Y-21827107D01*
X115827107Y-22037431D01*
X115661856Y-22284747D01*
X115548029Y-22559549D01*
X115490000Y-22851278D01*
X112510000Y-22851278D01*
X112451971Y-22559549D01*
X112338144Y-22284747D01*
X112172893Y-22037431D01*
X111962569Y-21827107D01*
X111715253Y-21661856D01*
X111440451Y-21548029D01*
X111148722Y-21490000D01*
X110851278Y-21490000D01*
X110559549Y-21548029D01*
X110284747Y-21661856D01*
X110037431Y-21827107D01*
X109827107Y-22037431D01*
X109661856Y-22284747D01*
X109548029Y-22559549D01*
X109490000Y-22851278D01*
X74651080Y-22851278D01*
X74288804Y-22489003D01*
X74265001Y-22459999D01*
X74149276Y-22365026D01*
X74017247Y-22294454D01*
X73873986Y-22250997D01*
X73762333Y-22240000D01*
X73762322Y-22240000D01*
X73725000Y-22236324D01*
X73687678Y-22240000D01*
X40957322Y-22240000D01*
X40919999Y-22236324D01*
X40882676Y-22240000D01*
X40882667Y-22240000D01*
X40771014Y-22250997D01*
X40627753Y-22294454D01*
X40495723Y-22365026D01*
X40412083Y-22433668D01*
X40379999Y-22459999D01*
X40356201Y-22488997D01*
X39114366Y-23730832D01*
X39046335Y-23717300D01*
X38793665Y-23717300D01*
X38545850Y-23766594D01*
X38312414Y-23863286D01*
X38102327Y-24003662D01*
X37923662Y-24182327D01*
X37783286Y-24392414D01*
X37686594Y-24625850D01*
X37650000Y-24809818D01*
X37613406Y-24625850D01*
X37516714Y-24392414D01*
X37376338Y-24182327D01*
X37197673Y-24003662D01*
X36987586Y-23863286D01*
X36754150Y-23766594D01*
X36506335Y-23717300D01*
X36253665Y-23717300D01*
X36005850Y-23766594D01*
X35772414Y-23863286D01*
X35562327Y-24003662D01*
X35383662Y-24182327D01*
X35243286Y-24392414D01*
X35146594Y-24625850D01*
X35109206Y-24813808D01*
X35086975Y-24673916D01*
X34999399Y-24436908D01*
X34952321Y-24348832D01*
X34723882Y-24295723D01*
X34019605Y-25000000D01*
X34723882Y-25704277D01*
X34952321Y-25651168D01*
X35057985Y-25421653D01*
X35111556Y-25198005D01*
X35146594Y-25374150D01*
X35243286Y-25607586D01*
X35383662Y-25817673D01*
X35562327Y-25996338D01*
X35772414Y-26136714D01*
X36005850Y-26233406D01*
X36253665Y-26282700D01*
X36506335Y-26282700D01*
X36574366Y-26269168D01*
X38816201Y-28511003D01*
X38839999Y-28540001D01*
X38955724Y-28634974D01*
X39087753Y-28705546D01*
X39231014Y-28749003D01*
X39342667Y-28760000D01*
X39342675Y-28760000D01*
X39380000Y-28763676D01*
X39417325Y-28760000D01*
X53962678Y-28760000D01*
X54000000Y-28763676D01*
X54037322Y-28760000D01*
X54037333Y-28760000D01*
X54148986Y-28749003D01*
X54292247Y-28705546D01*
X54424276Y-28634974D01*
X54540001Y-28540001D01*
X54563804Y-28510997D01*
X55629000Y-27445801D01*
X55629000Y-27827693D01*
X55741253Y-28392024D01*
X55961444Y-28923612D01*
X56281112Y-29402029D01*
X56687971Y-29808888D01*
X57166388Y-30128556D01*
X57697976Y-30348747D01*
X58262307Y-30461000D01*
X58418480Y-30461000D01*
X52089482Y-36789999D01*
X36237326Y-36789999D01*
X36200001Y-36786323D01*
X36162676Y-36789999D01*
X36162668Y-36789999D01*
X36051015Y-36800996D01*
X35907754Y-36844453D01*
X35775725Y-36915025D01*
X35660000Y-37009998D01*
X35636202Y-37038996D01*
X35387668Y-37287530D01*
X35337292Y-37277509D01*
X38725634Y-33889168D01*
X38793665Y-33902700D01*
X39046335Y-33902700D01*
X39294150Y-33853406D01*
X39527586Y-33756714D01*
X39737673Y-33616338D01*
X39916338Y-33437673D01*
X40056714Y-33227586D01*
X40153406Y-32994150D01*
X40190000Y-32810182D01*
X40226594Y-32994150D01*
X40323286Y-33227586D01*
X40463662Y-33437673D01*
X40642327Y-33616338D01*
X40852414Y-33756714D01*
X41085850Y-33853406D01*
X41333665Y-33902700D01*
X41586335Y-33902700D01*
X41834150Y-33853406D01*
X42067586Y-33756714D01*
X42277673Y-33616338D01*
X42456338Y-33437673D01*
X42596714Y-33227586D01*
X42693406Y-32994150D01*
X42730000Y-32810182D01*
X42766594Y-32994150D01*
X42863286Y-33227586D01*
X43003662Y-33437673D01*
X43182327Y-33616338D01*
X43392414Y-33756714D01*
X43625850Y-33853406D01*
X43873665Y-33902700D01*
X44126335Y-33902700D01*
X44374150Y-33853406D01*
X44607586Y-33756714D01*
X44817673Y-33616338D01*
X44996338Y-33437673D01*
X45136714Y-33227586D01*
X45233406Y-32994150D01*
X45270000Y-32810182D01*
X45306594Y-32994150D01*
X45403286Y-33227586D01*
X45543662Y-33437673D01*
X45722327Y-33616338D01*
X45932414Y-33756714D01*
X46165850Y-33853406D01*
X46413665Y-33902700D01*
X46666335Y-33902700D01*
X46914150Y-33853406D01*
X47147586Y-33756714D01*
X47357673Y-33616338D01*
X47536338Y-33437673D01*
X47676714Y-33227586D01*
X47773406Y-32994150D01*
X47794228Y-32889472D01*
X47794228Y-33267700D01*
X47806488Y-33392182D01*
X47842798Y-33511880D01*
X47901763Y-33622194D01*
X47981115Y-33718885D01*
X48077806Y-33798237D01*
X48188120Y-33857202D01*
X48307818Y-33893512D01*
X48432300Y-33905772D01*
X49727700Y-33905772D01*
X49852182Y-33893512D01*
X49971880Y-33857202D01*
X50082194Y-33798237D01*
X50178885Y-33718885D01*
X50258237Y-33622194D01*
X50317202Y-33511880D01*
X50353512Y-33392182D01*
X50365772Y-33267700D01*
X50365772Y-31972300D01*
X50353512Y-31847818D01*
X50317202Y-31728120D01*
X50258237Y-31617806D01*
X50178885Y-31521115D01*
X50082194Y-31441763D01*
X49971880Y-31382798D01*
X49852182Y-31346488D01*
X49727700Y-31334228D01*
X48432300Y-31334228D01*
X48307818Y-31346488D01*
X48188120Y-31382798D01*
X48077806Y-31441763D01*
X47981115Y-31521115D01*
X47901763Y-31617806D01*
X47842798Y-31728120D01*
X47806488Y-31847818D01*
X47794228Y-31972300D01*
X47794228Y-32350528D01*
X47773406Y-32245850D01*
X47676714Y-32012414D01*
X47536338Y-31802327D01*
X47357673Y-31623662D01*
X47147586Y-31483286D01*
X46914150Y-31386594D01*
X46666335Y-31337300D01*
X46413665Y-31337300D01*
X46165850Y-31386594D01*
X45932414Y-31483286D01*
X45722327Y-31623662D01*
X45543662Y-31802327D01*
X45403286Y-32012414D01*
X45306594Y-32245850D01*
X45270000Y-32429818D01*
X45233406Y-32245850D01*
X45136714Y-32012414D01*
X44996338Y-31802327D01*
X44817673Y-31623662D01*
X44607586Y-31483286D01*
X44374150Y-31386594D01*
X44126335Y-31337300D01*
X43873665Y-31337300D01*
X43625850Y-31386594D01*
X43392414Y-31483286D01*
X43182327Y-31623662D01*
X43003662Y-31802327D01*
X42863286Y-32012414D01*
X42766594Y-32245850D01*
X42730000Y-32429818D01*
X42693406Y-32245850D01*
X42596714Y-32012414D01*
X42456338Y-31802327D01*
X42277673Y-31623662D01*
X42067586Y-31483286D01*
X41834150Y-31386594D01*
X41586335Y-31337300D01*
X41333665Y-31337300D01*
X41085850Y-31386594D01*
X40852414Y-31483286D01*
X40642327Y-31623662D01*
X40463662Y-31802327D01*
X40323286Y-32012414D01*
X40226594Y-32245850D01*
X40190000Y-32429818D01*
X40153406Y-32245850D01*
X40056714Y-32012414D01*
X39916338Y-31802327D01*
X39737673Y-31623662D01*
X39527586Y-31483286D01*
X39294150Y-31386594D01*
X39046335Y-31337300D01*
X38793665Y-31337300D01*
X38545850Y-31386594D01*
X38312414Y-31483286D01*
X38102327Y-31623662D01*
X37923662Y-31802327D01*
X37783286Y-32012414D01*
X37686594Y-32245850D01*
X37650000Y-32429818D01*
X37613406Y-32245850D01*
X37516714Y-32012414D01*
X37376338Y-31802327D01*
X37197673Y-31623662D01*
X36987586Y-31483286D01*
X36754150Y-31386594D01*
X36506335Y-31337300D01*
X36253665Y-31337300D01*
X36005850Y-31386594D01*
X35772414Y-31483286D01*
X35562327Y-31623662D01*
X35383662Y-31802327D01*
X35243286Y-32012414D01*
X35146594Y-32245850D01*
X35110000Y-32429818D01*
X35073406Y-32245850D01*
X34976714Y-32012414D01*
X34836338Y-31802327D01*
X34657673Y-31623662D01*
X34447586Y-31483286D01*
X34214150Y-31386594D01*
X33966335Y-31337300D01*
X33713665Y-31337300D01*
X33465850Y-31386594D01*
X33232414Y-31483286D01*
X33022327Y-31623662D01*
X32843662Y-31802327D01*
X32703286Y-32012414D01*
X32606594Y-32245850D01*
X32570000Y-32429818D01*
X32533406Y-32245850D01*
X32436714Y-32012414D01*
X32296338Y-31802327D01*
X32117673Y-31623662D01*
X31907586Y-31483286D01*
X31674150Y-31386594D01*
X31426335Y-31337300D01*
X31173665Y-31337300D01*
X30925850Y-31386594D01*
X30692414Y-31483286D01*
X30482327Y-31623662D01*
X30303662Y-31802327D01*
X30163286Y-32012414D01*
X30066594Y-32245850D01*
X30017300Y-32493665D01*
X30017300Y-32746335D01*
X30066594Y-32994150D01*
X30163286Y-33227586D01*
X30303662Y-33437673D01*
X30482327Y-33616338D01*
X30692414Y-33756714D01*
X30925850Y-33853406D01*
X31173665Y-33902700D01*
X31426335Y-33902700D01*
X31674150Y-33853406D01*
X31907586Y-33756714D01*
X32117673Y-33616338D01*
X32296338Y-33437673D01*
X32436714Y-33227586D01*
X32533406Y-32994150D01*
X32570000Y-32810182D01*
X32606594Y-32994150D01*
X32703286Y-33227586D01*
X32843662Y-33437673D01*
X33022327Y-33616338D01*
X33232414Y-33756714D01*
X33465850Y-33853406D01*
X33713665Y-33902700D01*
X33966335Y-33902700D01*
X34078884Y-33880312D01*
X23488998Y-44470199D01*
X23460000Y-44493997D01*
X23436202Y-44522995D01*
X23436201Y-44522996D01*
X23365026Y-44609722D01*
X23294454Y-44741752D01*
X23250998Y-44885013D01*
X23236324Y-45033998D01*
X21127000Y-45033998D01*
X21127000Y-26485807D01*
X21150000Y-26488072D01*
X22850000Y-26488072D01*
X22974482Y-26475812D01*
X23094180Y-26439502D01*
X23204494Y-26380537D01*
X23301185Y-26301185D01*
X23380537Y-26204494D01*
X23439502Y-26094180D01*
X23475812Y-25974482D01*
X23488072Y-25850000D01*
X23488072Y-24873665D01*
X30017300Y-24873665D01*
X30017300Y-25126335D01*
X30066594Y-25374150D01*
X30163286Y-25607586D01*
X30303662Y-25817673D01*
X30482327Y-25996338D01*
X30692414Y-26136714D01*
X30925850Y-26233406D01*
X31173665Y-26282700D01*
X31426335Y-26282700D01*
X31674150Y-26233406D01*
X31907586Y-26136714D01*
X32117673Y-25996338D01*
X32230129Y-25883882D01*
X33135723Y-25883882D01*
X33188832Y-26112321D01*
X33418347Y-26217985D01*
X33664066Y-26276843D01*
X33916546Y-26286631D01*
X34166084Y-26246975D01*
X34403092Y-26159399D01*
X34491168Y-26112321D01*
X34544277Y-25883882D01*
X33840000Y-25179605D01*
X33135723Y-25883882D01*
X32230129Y-25883882D01*
X32296338Y-25817673D01*
X32436714Y-25607586D01*
X32533406Y-25374150D01*
X32570794Y-25186192D01*
X32593025Y-25326084D01*
X32680601Y-25563092D01*
X32727679Y-25651168D01*
X32956118Y-25704277D01*
X33660395Y-25000000D01*
X32956118Y-24295723D01*
X32727679Y-24348832D01*
X32622015Y-24578347D01*
X32568444Y-24801995D01*
X32533406Y-24625850D01*
X32436714Y-24392414D01*
X32296338Y-24182327D01*
X32230129Y-24116118D01*
X33135723Y-24116118D01*
X33840000Y-24820395D01*
X34544277Y-24116118D01*
X34491168Y-23887679D01*
X34261653Y-23782015D01*
X34015934Y-23723157D01*
X33763454Y-23713369D01*
X33513916Y-23753025D01*
X33276908Y-23840601D01*
X33188832Y-23887679D01*
X33135723Y-24116118D01*
X32230129Y-24116118D01*
X32117673Y-24003662D01*
X31907586Y-23863286D01*
X31674150Y-23766594D01*
X31426335Y-23717300D01*
X31173665Y-23717300D01*
X30925850Y-23766594D01*
X30692414Y-23863286D01*
X30482327Y-24003662D01*
X30303662Y-24182327D01*
X30163286Y-24392414D01*
X30066594Y-24625850D01*
X30017300Y-24873665D01*
X23488072Y-24873665D01*
X23488072Y-24150000D01*
X23475812Y-24025518D01*
X23439502Y-23905820D01*
X23380537Y-23795506D01*
X23301185Y-23698815D01*
X23204494Y-23619463D01*
X23094180Y-23560498D01*
X22974482Y-23524188D01*
X22850000Y-23511928D01*
X21150000Y-23511928D01*
X21127000Y-23514193D01*
X21127000Y-21127000D01*
X118873000Y-21127000D01*
X118873000Y-53374474D01*
G37*
X118873000Y-53374474D02*
X118858005Y-53338273D01*
X118705120Y-53109465D01*
X118510535Y-52914880D01*
X118281727Y-52761995D01*
X118027490Y-52656686D01*
X117757592Y-52603000D01*
X117482408Y-52603000D01*
X117212510Y-52656686D01*
X116958273Y-52761995D01*
X116729465Y-52914880D01*
X116534880Y-53109465D01*
X116381995Y-53338273D01*
X116350000Y-53415515D01*
X116318005Y-53338273D01*
X116165120Y-53109465D01*
X115970535Y-52914880D01*
X115741727Y-52761995D01*
X115487490Y-52656686D01*
X115217592Y-52603000D01*
X114942408Y-52603000D01*
X114672510Y-52656686D01*
X114418273Y-52761995D01*
X114189465Y-52914880D01*
X113994880Y-53109465D01*
X113841995Y-53338273D01*
X113810000Y-53415515D01*
X113778005Y-53338273D01*
X113625120Y-53109465D01*
X113430535Y-52914880D01*
X113201727Y-52761995D01*
X112947490Y-52656686D01*
X112677592Y-52603000D01*
X112402408Y-52603000D01*
X112132510Y-52656686D01*
X111878273Y-52761995D01*
X111649465Y-52914880D01*
X111454880Y-53109465D01*
X111301995Y-53338273D01*
X111270000Y-53415515D01*
X111238005Y-53338273D01*
X111085120Y-53109465D01*
X110890535Y-52914880D01*
X110661727Y-52761995D01*
X110407490Y-52656686D01*
X110137592Y-52603000D01*
X109862408Y-52603000D01*
X109671205Y-52641033D01*
X110511003Y-51801235D01*
X110540001Y-51777437D01*
X110634974Y-51661712D01*
X110705546Y-51529683D01*
X110749003Y-51386422D01*
X110756471Y-51310603D01*
X110962569Y-51172893D01*
X111172893Y-50962569D01*
X111308245Y-50760000D01*
X114691755Y-50760000D01*
X114827107Y-50962569D01*
X115037431Y-51172893D01*
X115284747Y-51338144D01*
X115559549Y-51451971D01*
X115851278Y-51510000D01*
X116148722Y-51510000D01*
X116440451Y-51451971D01*
X116715253Y-51338144D01*
X116962569Y-51172893D01*
X117172893Y-50962569D01*
X117338144Y-50715253D01*
X117451971Y-50440451D01*
X117510000Y-50148722D01*
X117510000Y-49851278D01*
X117451971Y-49559549D01*
X117338144Y-49284747D01*
X117172893Y-49037431D01*
X116962569Y-48827107D01*
X116715253Y-48661856D01*
X116440451Y-48548029D01*
X116148722Y-48490000D01*
X115851278Y-48490000D01*
X115612331Y-48537530D01*
X114563804Y-47489003D01*
X114540001Y-47459999D01*
X114424276Y-47365026D01*
X114292247Y-47294454D01*
X114148986Y-47250997D01*
X114037333Y-47240000D01*
X114037322Y-47240000D01*
X114000000Y-47236324D01*
X113962678Y-47240000D01*
X108314802Y-47240000D01*
X105760000Y-44685199D01*
X105760000Y-43851278D01*
X108490000Y-43851278D01*
X108490000Y-44148722D01*
X108548029Y-44440451D01*
X108661856Y-44715253D01*
X108827107Y-44962569D01*
X109037431Y-45172893D01*
X109284747Y-45338144D01*
X109559549Y-45451971D01*
X109851278Y-45510000D01*
X110148722Y-45510000D01*
X110440451Y-45451971D01*
X110715253Y-45338144D01*
X110962569Y-45172893D01*
X111172893Y-44962569D01*
X111338144Y-44715253D01*
X111451971Y-44440451D01*
X111510000Y-44148722D01*
X111510000Y-43851278D01*
X114490000Y-43851278D01*
X114490000Y-44148722D01*
X114548029Y-44440451D01*
X114661856Y-44715253D01*
X114827107Y-44962569D01*
X115037431Y-45172893D01*
X115284747Y-45338144D01*
X115559549Y-45451971D01*
X115851278Y-45510000D01*
X116148722Y-45510000D01*
X116440451Y-45451971D01*
X116715253Y-45338144D01*
X116962569Y-45172893D01*
X117172893Y-44962569D01*
X117338144Y-44715253D01*
X117451971Y-44440451D01*
X117510000Y-44148722D01*
X117510000Y-43851278D01*
X117451971Y-43559549D01*
X117338144Y-43284747D01*
X117172893Y-43037431D01*
X116962569Y-42827107D01*
X116715253Y-42661856D01*
X116440451Y-42548029D01*
X116148722Y-42490000D01*
X115851278Y-42490000D01*
X115559549Y-42548029D01*
X115284747Y-42661856D01*
X115037431Y-42827107D01*
X114827107Y-43037431D01*
X114661856Y-43284747D01*
X114548029Y-43559549D01*
X114490000Y-43851278D01*
X111510000Y-43851278D01*
X111451971Y-43559549D01*
X111338144Y-43284747D01*
X111172893Y-43037431D01*
X110962569Y-42827107D01*
X110715253Y-42661856D01*
X110440451Y-42548029D01*
X110148722Y-42490000D01*
X109851278Y-42490000D01*
X109559549Y-42548029D01*
X109284747Y-42661856D01*
X109037431Y-42827107D01*
X108827107Y-43037431D01*
X108661856Y-43284747D01*
X108548029Y-43559549D01*
X108490000Y-43851278D01*
X105760000Y-43851278D01*
X105760000Y-41308245D01*
X105962569Y-41172893D01*
X106172893Y-40962569D01*
X106338144Y-40715253D01*
X106451971Y-40440451D01*
X106510000Y-40148722D01*
X106510000Y-39851278D01*
X106462470Y-39612331D01*
X111511009Y-34563794D01*
X111540001Y-34540001D01*
X111563795Y-34511008D01*
X111563799Y-34511004D01*
X111634973Y-34424277D01*
X111634974Y-34424276D01*
X111705546Y-34292247D01*
X111749003Y-34148986D01*
X111760000Y-34037333D01*
X111760000Y-34037324D01*
X111763676Y-34000001D01*
X111760000Y-33962678D01*
X111760000Y-30308245D01*
X111962569Y-30172893D01*
X112172893Y-29962569D01*
X112308245Y-29760000D01*
X115691755Y-29760000D01*
X115827107Y-29962569D01*
X116037431Y-30172893D01*
X116284747Y-30338144D01*
X116559549Y-30451971D01*
X116851278Y-30510000D01*
X117148722Y-30510000D01*
X117440451Y-30451971D01*
X117715253Y-30338144D01*
X117962569Y-30172893D01*
X118172893Y-29962569D01*
X118338144Y-29715253D01*
X118451971Y-29440451D01*
X118510000Y-29148722D01*
X118510000Y-28851278D01*
X118451971Y-28559549D01*
X118338144Y-28284747D01*
X118172893Y-28037431D01*
X117962569Y-27827107D01*
X117715253Y-27661856D01*
X117440451Y-27548029D01*
X117148722Y-27490000D01*
X116851278Y-27490000D01*
X116559549Y-27548029D01*
X116284747Y-27661856D01*
X116037431Y-27827107D01*
X115827107Y-28037431D01*
X115691755Y-28240000D01*
X112308245Y-28240000D01*
X112172893Y-28037431D01*
X111962569Y-27827107D01*
X111715253Y-27661856D01*
X111440451Y-27548029D01*
X111148722Y-27490000D01*
X110851278Y-27490000D01*
X110559549Y-27548029D01*
X110284747Y-27661856D01*
X110037431Y-27827107D01*
X109827107Y-28037431D01*
X109691755Y-28240000D01*
X104474802Y-28240000D01*
X101558688Y-25323887D01*
X101595000Y-25141335D01*
X101595000Y-24858665D01*
X101539853Y-24581426D01*
X101431680Y-24320273D01*
X101274637Y-24085241D01*
X101074759Y-23885363D01*
X100839727Y-23728320D01*
X100578574Y-23620147D01*
X100301335Y-23565000D01*
X100018665Y-23565000D01*
X99741426Y-23620147D01*
X99480273Y-23728320D01*
X99245241Y-23885363D01*
X99045363Y-24085241D01*
X98888320Y-24320273D01*
X98780147Y-24581426D01*
X98725000Y-24858665D01*
X98725000Y-25141335D01*
X98780147Y-25418574D01*
X98888320Y-25679727D01*
X99045363Y-25914759D01*
X99245241Y-26114637D01*
X99480273Y-26271680D01*
X99741426Y-26379853D01*
X100018665Y-26435000D01*
X100301335Y-26435000D01*
X100483887Y-26398688D01*
X103596201Y-29511003D01*
X103619999Y-29540001D01*
X103735724Y-29634974D01*
X103867753Y-29705546D01*
X104011014Y-29749003D01*
X104122667Y-29760000D01*
X104122676Y-29760000D01*
X104159999Y-29763676D01*
X104197322Y-29760000D01*
X109691755Y-29760000D01*
X109827107Y-29962569D01*
X110037431Y-30172893D01*
X110240001Y-30308246D01*
X110240000Y-33685197D01*
X105387669Y-38537530D01*
X105148722Y-38490000D01*
X104851278Y-38490000D01*
X104559549Y-38548029D01*
X104284747Y-38661856D01*
X104037431Y-38827107D01*
X103827107Y-39037431D01*
X103691755Y-39240000D01*
X100308245Y-39240000D01*
X100172893Y-39037431D01*
X99962569Y-38827107D01*
X99715253Y-38661856D01*
X99440451Y-38548029D01*
X99148722Y-38490000D01*
X98851278Y-38490000D01*
X98612331Y-38537530D01*
X97563804Y-37489003D01*
X97540001Y-37459999D01*
X97424276Y-37365026D01*
X97292247Y-37294454D01*
X97148986Y-37250997D01*
X97037333Y-37240000D01*
X97037322Y-37240000D01*
X97000000Y-37236324D01*
X96962678Y-37240000D01*
X94308245Y-37240000D01*
X94172893Y-37037431D01*
X93962569Y-36827107D01*
X93715253Y-36661856D01*
X93440451Y-36548029D01*
X93148722Y-36490000D01*
X92851278Y-36490000D01*
X92559549Y-36548029D01*
X92284747Y-36661856D01*
X92037431Y-36827107D01*
X91827107Y-37037431D01*
X91691755Y-37240000D01*
X88308245Y-37240000D01*
X88172893Y-37037431D01*
X87962569Y-36827107D01*
X87715253Y-36661856D01*
X87440451Y-36548029D01*
X87148722Y-36490000D01*
X86851278Y-36490000D01*
X86559549Y-36548029D01*
X86284747Y-36661856D01*
X86037431Y-36827107D01*
X85827107Y-37037431D01*
X85661856Y-37284747D01*
X85548029Y-37559549D01*
X85490000Y-37851278D01*
X85490000Y-38148722D01*
X85548029Y-38440451D01*
X85661856Y-38715253D01*
X85827107Y-38962569D01*
X86037431Y-39172893D01*
X86240000Y-39308245D01*
X86240001Y-41080192D01*
X85299999Y-42020195D01*
X77131082Y-33851278D01*
X97490000Y-33851278D01*
X97490000Y-34148722D01*
X97548029Y-34440451D01*
X97661856Y-34715253D01*
X97827107Y-34962569D01*
X98037431Y-35172893D01*
X98284747Y-35338144D01*
X98559549Y-35451971D01*
X98851278Y-35510000D01*
X99148722Y-35510000D01*
X99440451Y-35451971D01*
X99715253Y-35338144D01*
X99962569Y-35172893D01*
X100172893Y-34962569D01*
X100338144Y-34715253D01*
X100451971Y-34440451D01*
X100510000Y-34148722D01*
X100510000Y-33851278D01*
X103490000Y-33851278D01*
X103490000Y-34148722D01*
X103548029Y-34440451D01*
X103661856Y-34715253D01*
X103827107Y-34962569D01*
X104037431Y-35172893D01*
X104284747Y-35338144D01*
X104559549Y-35451971D01*
X104851278Y-35510000D01*
X105148722Y-35510000D01*
X105440451Y-35451971D01*
X105715253Y-35338144D01*
X105962569Y-35172893D01*
X106172893Y-34962569D01*
X106338144Y-34715253D01*
X106451971Y-34440451D01*
X106510000Y-34148722D01*
X106510000Y-33851278D01*
X106451971Y-33559549D01*
X106338144Y-33284747D01*
X106172893Y-33037431D01*
X105962569Y-32827107D01*
X105715253Y-32661856D01*
X105440451Y-32548029D01*
X105148722Y-32490000D01*
X104851278Y-32490000D01*
X104559549Y-32548029D01*
X104284747Y-32661856D01*
X104037431Y-32827107D01*
X103827107Y-33037431D01*
X103661856Y-33284747D01*
X103548029Y-33559549D01*
X103490000Y-33851278D01*
X100510000Y-33851278D01*
X100451971Y-33559549D01*
X100338144Y-33284747D01*
X100172893Y-33037431D01*
X99962569Y-32827107D01*
X99715253Y-32661856D01*
X99440451Y-32548029D01*
X99148722Y-32490000D01*
X98851278Y-32490000D01*
X98559549Y-32548029D01*
X98284747Y-32661856D01*
X98037431Y-32827107D01*
X97827107Y-33037431D01*
X97661856Y-33284747D01*
X97548029Y-33559549D01*
X97490000Y-33851278D01*
X77131082Y-33851278D01*
X75131082Y-31851278D01*
X85490000Y-31851278D01*
X85490000Y-32148722D01*
X85548029Y-32440451D01*
X85661856Y-32715253D01*
X85827107Y-32962569D01*
X86037431Y-33172893D01*
X86284747Y-33338144D01*
X86559549Y-33451971D01*
X86851278Y-33510000D01*
X87148722Y-33510000D01*
X87440451Y-33451971D01*
X87715253Y-33338144D01*
X87962569Y-33172893D01*
X88172893Y-32962569D01*
X88338144Y-32715253D01*
X88451971Y-32440451D01*
X88510000Y-32148722D01*
X88510000Y-31851278D01*
X91490000Y-31851278D01*
X91490000Y-32148722D01*
X91548029Y-32440451D01*
X91661856Y-32715253D01*
X91827107Y-32962569D01*
X92037431Y-33172893D01*
X92284747Y-33338144D01*
X92559549Y-33451971D01*
X92851278Y-33510000D01*
X93148722Y-33510000D01*
X93440451Y-33451971D01*
X93715253Y-33338144D01*
X93962569Y-33172893D01*
X94172893Y-32962569D01*
X94338144Y-32715253D01*
X94451971Y-32440451D01*
X94510000Y-32148722D01*
X94510000Y-31851278D01*
X94451971Y-31559549D01*
X94338144Y-31284747D01*
X94172893Y-31037431D01*
X93962569Y-30827107D01*
X93715253Y-30661856D01*
X93440451Y-30548029D01*
X93148722Y-30490000D01*
X92851278Y-30490000D01*
X92559549Y-30548029D01*
X92284747Y-30661856D01*
X92037431Y-30827107D01*
X91827107Y-31037431D01*
X91661856Y-31284747D01*
X91548029Y-31559549D01*
X91490000Y-31851278D01*
X88510000Y-31851278D01*
X88451971Y-31559549D01*
X88338144Y-31284747D01*
X88172893Y-31037431D01*
X87962569Y-30827107D01*
X87715253Y-30661856D01*
X87440451Y-30548029D01*
X87148722Y-30490000D01*
X86851278Y-30490000D01*
X86559549Y-30548029D01*
X86284747Y-30661856D01*
X86037431Y-30827107D01*
X85827107Y-31037431D01*
X85661856Y-31284747D01*
X85548029Y-31559549D01*
X85490000Y-31851278D01*
X75131082Y-31851278D01*
X75028001Y-31748198D01*
X75028001Y-30988954D01*
X75183587Y-31092913D01*
X75391599Y-31179075D01*
X75612424Y-31223000D01*
X75837576Y-31223000D01*
X76058401Y-31179075D01*
X76266413Y-31092913D01*
X76453620Y-30967826D01*
X76612826Y-30808620D01*
X76737913Y-30621413D01*
X76824075Y-30413401D01*
X76868000Y-30192576D01*
X76868000Y-29967424D01*
X76824075Y-29746599D01*
X76737913Y-29538587D01*
X76612826Y-29351380D01*
X76453620Y-29192174D01*
X76266413Y-29067087D01*
X76058401Y-28980925D01*
X75837576Y-28937000D01*
X75612424Y-28937000D01*
X75391599Y-28980925D01*
X75183587Y-29067087D01*
X74996380Y-29192174D01*
X74913319Y-29275235D01*
X74902975Y-29255883D01*
X74808002Y-29140158D01*
X74778999Y-29116356D01*
X74398645Y-28736002D01*
X74374842Y-28706998D01*
X74306627Y-28651015D01*
X74467424Y-28683000D01*
X74692576Y-28683000D01*
X74913401Y-28639075D01*
X75121413Y-28552913D01*
X75308620Y-28427826D01*
X75467826Y-28268620D01*
X75592913Y-28081413D01*
X75679075Y-27873401D01*
X75723000Y-27652576D01*
X75723000Y-27427424D01*
X75688167Y-27252307D01*
X79674000Y-27252307D01*
X79674000Y-27827693D01*
X79786253Y-28392024D01*
X80006444Y-28923612D01*
X80326112Y-29402029D01*
X80732971Y-29808888D01*
X81211388Y-30128556D01*
X81742976Y-30348747D01*
X82307307Y-30461000D01*
X82882693Y-30461000D01*
X83447024Y-30348747D01*
X83978612Y-30128556D01*
X84457029Y-29808888D01*
X84863888Y-29402029D01*
X85183556Y-28923612D01*
X85403747Y-28392024D01*
X85516000Y-27827693D01*
X85516000Y-27252307D01*
X85403747Y-26687976D01*
X85183556Y-26156388D01*
X84863888Y-25677971D01*
X84457029Y-25271112D01*
X83978612Y-24951444D01*
X83754624Y-24858665D01*
X88565000Y-24858665D01*
X88565000Y-25141335D01*
X88620147Y-25418574D01*
X88728320Y-25679727D01*
X88885363Y-25914759D01*
X89085241Y-26114637D01*
X89320273Y-26271680D01*
X89581426Y-26379853D01*
X89858665Y-26435000D01*
X90141335Y-26435000D01*
X90418574Y-26379853D01*
X90679727Y-26271680D01*
X90914759Y-26114637D01*
X91114637Y-25914759D01*
X91271680Y-25679727D01*
X91379853Y-25418574D01*
X91435000Y-25141335D01*
X91435000Y-24858665D01*
X91379853Y-24581426D01*
X91271680Y-24320273D01*
X91114637Y-24085241D01*
X90914759Y-23885363D01*
X90679727Y-23728320D01*
X90418574Y-23620147D01*
X90141335Y-23565000D01*
X89858665Y-23565000D01*
X89581426Y-23620147D01*
X89320273Y-23728320D01*
X89085241Y-23885363D01*
X88885363Y-24085241D01*
X88728320Y-24320273D01*
X88620147Y-24581426D01*
X88565000Y-24858665D01*
X83754624Y-24858665D01*
X83447024Y-24731253D01*
X82882693Y-24619000D01*
X82307307Y-24619000D01*
X81742976Y-24731253D01*
X81211388Y-24951444D01*
X80732971Y-25271112D01*
X80326112Y-25677971D01*
X80006444Y-26156388D01*
X79786253Y-26687976D01*
X79674000Y-27252307D01*
X75688167Y-27252307D01*
X75679075Y-27206599D01*
X75592913Y-26998587D01*
X75467826Y-26811380D01*
X75308620Y-26652174D01*
X75121413Y-26527087D01*
X74913401Y-26440925D01*
X74692576Y-26397000D01*
X74467424Y-26397000D01*
X74246599Y-26440925D01*
X74038587Y-26527087D01*
X73851380Y-26652174D01*
X73692174Y-26811380D01*
X73567087Y-26998587D01*
X73480925Y-27206599D01*
X73437000Y-27427424D01*
X73437000Y-27652576D01*
X73480925Y-27873401D01*
X73567087Y-28081413D01*
X73692174Y-28268620D01*
X73851380Y-28427826D01*
X73951655Y-28494827D01*
X73872174Y-28486999D01*
X73872163Y-28486999D01*
X73834841Y-28483323D01*
X73797519Y-28486999D01*
X72930061Y-28486999D01*
X73018620Y-28427826D01*
X73177826Y-28268620D01*
X73302913Y-28081413D01*
X73389075Y-27873401D01*
X73433000Y-27652576D01*
X73433000Y-27427424D01*
X73389075Y-27206599D01*
X73302913Y-26998587D01*
X73177826Y-26811380D01*
X73018620Y-26652174D01*
X72831413Y-26527087D01*
X72623401Y-26440925D01*
X72402576Y-26397000D01*
X72177424Y-26397000D01*
X71956599Y-26440925D01*
X71748587Y-26527087D01*
X71561380Y-26652174D01*
X71402174Y-26811380D01*
X71277087Y-26998587D01*
X71190925Y-27206599D01*
X71147000Y-27427424D01*
X71147000Y-27612199D01*
X71143000Y-27608199D01*
X71143000Y-27427424D01*
X71099075Y-27206599D01*
X71012913Y-26998587D01*
X70887826Y-26811380D01*
X70728620Y-26652174D01*
X70541413Y-26527087D01*
X70333401Y-26440925D01*
X70112576Y-26397000D01*
X69887424Y-26397000D01*
X69666599Y-26440925D01*
X69458587Y-26527087D01*
X69271380Y-26652174D01*
X69112174Y-26811380D01*
X68987087Y-26998587D01*
X68900925Y-27206599D01*
X68857000Y-27427424D01*
X68857000Y-27652576D01*
X68900925Y-27873401D01*
X68987087Y-28081413D01*
X69112174Y-28268620D01*
X69271380Y-28427826D01*
X69458587Y-28552913D01*
X69666599Y-28639075D01*
X69887424Y-28683000D01*
X70068199Y-28683000D01*
X70512888Y-29127690D01*
X70416380Y-29192174D01*
X70257174Y-29351380D01*
X70132087Y-29538587D01*
X70045925Y-29746599D01*
X70002000Y-29967424D01*
X70002000Y-30192576D01*
X70045925Y-30413401D01*
X70132087Y-30621413D01*
X70257174Y-30808620D01*
X70416380Y-30967826D01*
X70603587Y-31092913D01*
X70811599Y-31179075D01*
X71032424Y-31223000D01*
X71257576Y-31223000D01*
X71478401Y-31179075D01*
X71686413Y-31092913D01*
X71873620Y-30967826D01*
X72032826Y-30808620D01*
X72157913Y-30621413D01*
X72244075Y-30413401D01*
X72288000Y-30192576D01*
X72288000Y-30006999D01*
X72292000Y-30006999D01*
X72292000Y-30192576D01*
X72335925Y-30413401D01*
X72422087Y-30621413D01*
X72547174Y-30808620D01*
X72706380Y-30967826D01*
X72893587Y-31092913D01*
X73101599Y-31179075D01*
X73322424Y-31223000D01*
X73508002Y-31223000D01*
X73508002Y-32025667D01*
X73504325Y-32062999D01*
X73508002Y-32100332D01*
X73518999Y-32211985D01*
X73529272Y-32245850D01*
X73562455Y-32355245D01*
X73633027Y-32487275D01*
X73647584Y-32505012D01*
X73728001Y-32603000D01*
X73756999Y-32626798D01*
X77262129Y-36131928D01*
X76690000Y-36131928D01*
X76565518Y-36144188D01*
X76445820Y-36180498D01*
X76335506Y-36239463D01*
X76238815Y-36318815D01*
X76159463Y-36415506D01*
X76100498Y-36525820D01*
X76078487Y-36598380D01*
X75946632Y-36466525D01*
X75703411Y-36304010D01*
X75433158Y-36192068D01*
X75146260Y-36135000D01*
X74853740Y-36135000D01*
X74566842Y-36192068D01*
X74296589Y-36304010D01*
X74053368Y-36466525D01*
X73846525Y-36673368D01*
X73730000Y-36847760D01*
X73613475Y-36673368D01*
X73406632Y-36466525D01*
X73163411Y-36304010D01*
X72893158Y-36192068D01*
X72606260Y-36135000D01*
X72313740Y-36135000D01*
X72026842Y-36192068D01*
X71756589Y-36304010D01*
X71513368Y-36466525D01*
X71306525Y-36673368D01*
X71190000Y-36847760D01*
X71073475Y-36673368D01*
X70866632Y-36466525D01*
X70623411Y-36304010D01*
X70353158Y-36192068D01*
X70066260Y-36135000D01*
X69773740Y-36135000D01*
X69486842Y-36192068D01*
X69216589Y-36304010D01*
X68973368Y-36466525D01*
X68766525Y-36673368D01*
X68650000Y-36847760D01*
X68533475Y-36673368D01*
X68326632Y-36466525D01*
X68083411Y-36304010D01*
X67813158Y-36192068D01*
X67526260Y-36135000D01*
X67233740Y-36135000D01*
X66946842Y-36192068D01*
X66676589Y-36304010D01*
X66433368Y-36466525D01*
X66226525Y-36673368D01*
X66110000Y-36847760D01*
X65993475Y-36673368D01*
X65786632Y-36466525D01*
X65543411Y-36304010D01*
X65273158Y-36192068D01*
X64986260Y-36135000D01*
X64693740Y-36135000D01*
X64406842Y-36192068D01*
X64136589Y-36304010D01*
X63893368Y-36466525D01*
X63686525Y-36673368D01*
X63570000Y-36847760D01*
X63453475Y-36673368D01*
X63246632Y-36466525D01*
X63003411Y-36304010D01*
X62733158Y-36192068D01*
X62446260Y-36135000D01*
X62153740Y-36135000D01*
X61866842Y-36192068D01*
X61596589Y-36304010D01*
X61353368Y-36466525D01*
X61146525Y-36673368D01*
X60984010Y-36916589D01*
X60872068Y-37186842D01*
X60815000Y-37473740D01*
X60815000Y-37766260D01*
X60872068Y-38053158D01*
X60984010Y-38323411D01*
X61146525Y-38566632D01*
X61353368Y-38773475D01*
X61596589Y-38935990D01*
X61866842Y-39047932D01*
X62153740Y-39105000D01*
X62446260Y-39105000D01*
X62733158Y-39047932D01*
X63003411Y-38935990D01*
X63246632Y-38773475D01*
X63453475Y-38566632D01*
X63570000Y-38392240D01*
X63686525Y-38566632D01*
X63893368Y-38773475D01*
X64136589Y-38935990D01*
X64406842Y-39047932D01*
X64693740Y-39105000D01*
X64986260Y-39105000D01*
X65273158Y-39047932D01*
X65543411Y-38935990D01*
X65786632Y-38773475D01*
X65993475Y-38566632D01*
X66110000Y-38392240D01*
X66226525Y-38566632D01*
X66433368Y-38773475D01*
X66676589Y-38935990D01*
X66946842Y-39047932D01*
X67233740Y-39105000D01*
X67526260Y-39105000D01*
X67813158Y-39047932D01*
X68083411Y-38935990D01*
X68326632Y-38773475D01*
X68533475Y-38566632D01*
X68650000Y-38392240D01*
X68766525Y-38566632D01*
X68973368Y-38773475D01*
X69216589Y-38935990D01*
X69486842Y-39047932D01*
X69773740Y-39105000D01*
X70066260Y-39105000D01*
X70353158Y-39047932D01*
X70623411Y-38935990D01*
X70866632Y-38773475D01*
X71073475Y-38566632D01*
X71190000Y-38392240D01*
X71306525Y-38566632D01*
X71513368Y-38773475D01*
X71756589Y-38935990D01*
X72026842Y-39047932D01*
X72313740Y-39105000D01*
X72606260Y-39105000D01*
X72893158Y-39047932D01*
X73163411Y-38935990D01*
X73406632Y-38773475D01*
X73613475Y-38566632D01*
X73730000Y-38392240D01*
X73846525Y-38566632D01*
X74053368Y-38773475D01*
X74296589Y-38935990D01*
X74566842Y-39047932D01*
X74853740Y-39105000D01*
X75146260Y-39105000D01*
X75433158Y-39047932D01*
X75703411Y-38935990D01*
X75946632Y-38773475D01*
X76078487Y-38641620D01*
X76100498Y-38714180D01*
X76159463Y-38824494D01*
X76238815Y-38921185D01*
X76335506Y-39000537D01*
X76445820Y-39059502D01*
X76565518Y-39095812D01*
X76690000Y-39108072D01*
X78390000Y-39108072D01*
X78514482Y-39095812D01*
X78634180Y-39059502D01*
X78744494Y-39000537D01*
X78841185Y-38921185D01*
X78920537Y-38824494D01*
X78979502Y-38714180D01*
X79015812Y-38594482D01*
X79028072Y-38470000D01*
X79028072Y-37897871D01*
X83095200Y-41965000D01*
X82898061Y-41965000D01*
X82698102Y-42004774D01*
X82509744Y-42082795D01*
X82340226Y-42196063D01*
X82196063Y-42340226D01*
X82082795Y-42509744D01*
X82004774Y-42698102D01*
X81965000Y-42898061D01*
X81965000Y-43101939D01*
X82004774Y-43301898D01*
X82082795Y-43490256D01*
X82196063Y-43659774D01*
X82240001Y-43703712D01*
X82240000Y-47685198D01*
X75960199Y-53965000D01*
X75898061Y-53965000D01*
X75698102Y-54004774D01*
X75509744Y-54082795D01*
X75340226Y-54196063D01*
X75196063Y-54340226D01*
X75082795Y-54509744D01*
X75004774Y-54698102D01*
X74965000Y-54898061D01*
X74965000Y-55101939D01*
X75004774Y-55301898D01*
X75082795Y-55490256D01*
X75196063Y-55659774D01*
X75340226Y-55803937D01*
X75509744Y-55917205D01*
X75698102Y-55995226D01*
X75898061Y-56035000D01*
X76101939Y-56035000D01*
X76301898Y-55995226D01*
X76490256Y-55917205D01*
X76659774Y-55803937D01*
X76803937Y-55659774D01*
X76917205Y-55490256D01*
X76995226Y-55301898D01*
X77035000Y-55101939D01*
X77035000Y-55039801D01*
X83511004Y-48563798D01*
X83540001Y-48540001D01*
X83603548Y-48462569D01*
X83634974Y-48424277D01*
X83705546Y-48292247D01*
X83728901Y-48215253D01*
X83749003Y-48148986D01*
X83760000Y-48037333D01*
X83760000Y-48037323D01*
X83763676Y-48000000D01*
X83760000Y-47962677D01*
X83760000Y-43703711D01*
X83803937Y-43659774D01*
X83917205Y-43490256D01*
X83995226Y-43301898D01*
X84035000Y-43101939D01*
X84035000Y-42904800D01*
X84539999Y-43409799D01*
X84540000Y-48762667D01*
X84536323Y-48799999D01*
X84550997Y-48948984D01*
X84594453Y-49092245D01*
X84665025Y-49224275D01*
X84714654Y-49284747D01*
X84759999Y-49340000D01*
X84788997Y-49363798D01*
X85037530Y-49612331D01*
X84990000Y-49851278D01*
X84990000Y-50148722D01*
X85048029Y-50440451D01*
X85161856Y-50715253D01*
X85327107Y-50962569D01*
X85537431Y-51172893D01*
X85784747Y-51338144D01*
X86059549Y-51451971D01*
X86351278Y-51510000D01*
X86648722Y-51510000D01*
X86940451Y-51451971D01*
X87215253Y-51338144D01*
X87462569Y-51172893D01*
X87672893Y-50962569D01*
X87808245Y-50760000D01*
X91191755Y-50760000D01*
X91327107Y-50962569D01*
X91537431Y-51172893D01*
X91666239Y-51258959D01*
X83685199Y-59240000D01*
X74760000Y-59240000D01*
X74760000Y-53037333D01*
X74763677Y-53000000D01*
X74749003Y-52851014D01*
X74705546Y-52707753D01*
X74634974Y-52575724D01*
X74563799Y-52488997D01*
X74540001Y-52459999D01*
X74511003Y-52436201D01*
X74462470Y-52387668D01*
X74510000Y-52148722D01*
X74510000Y-51851278D01*
X74451971Y-51559549D01*
X74338144Y-51284747D01*
X74172893Y-51037431D01*
X73962569Y-50827107D01*
X73715253Y-50661856D01*
X73440451Y-50548029D01*
X73148722Y-50490000D01*
X72851278Y-50490000D01*
X72559549Y-50548029D01*
X72284747Y-50661856D01*
X72037431Y-50827107D01*
X71827107Y-51037431D01*
X71661856Y-51284747D01*
X71548029Y-51559549D01*
X71490000Y-51851278D01*
X71490000Y-52148722D01*
X71548029Y-52440451D01*
X71661856Y-52715253D01*
X71827107Y-52962569D01*
X72037431Y-53172893D01*
X72284747Y-53338144D01*
X72559549Y-53451971D01*
X72851278Y-53510000D01*
X73148722Y-53510000D01*
X73240001Y-53491843D01*
X73240000Y-59240000D01*
X65314802Y-59240000D01*
X65108497Y-59033695D01*
X65301898Y-58995226D01*
X65490256Y-58917205D01*
X65659774Y-58803937D01*
X65803937Y-58659774D01*
X65917205Y-58490256D01*
X65995226Y-58301898D01*
X66035000Y-58101939D01*
X66035000Y-57898061D01*
X65995226Y-57698102D01*
X65917205Y-57509744D01*
X65803937Y-57340226D01*
X65760000Y-57296289D01*
X65760000Y-56538799D01*
X74538800Y-47760000D01*
X78296289Y-47760000D01*
X78340226Y-47803937D01*
X78509744Y-47917205D01*
X78698102Y-47995226D01*
X78898061Y-48035000D01*
X79101939Y-48035000D01*
X79301898Y-47995226D01*
X79490256Y-47917205D01*
X79659774Y-47803937D01*
X79803937Y-47659774D01*
X79917205Y-47490256D01*
X79995226Y-47301898D01*
X80035000Y-47101939D01*
X80035000Y-46898061D01*
X79995226Y-46698102D01*
X79917205Y-46509744D01*
X79803937Y-46340226D01*
X79659774Y-46196063D01*
X79490256Y-46082795D01*
X79301898Y-46004774D01*
X79101939Y-45965000D01*
X78898061Y-45965000D01*
X78698102Y-46004774D01*
X78509744Y-46082795D01*
X78340226Y-46196063D01*
X78296289Y-46240000D01*
X74491844Y-46240000D01*
X74510000Y-46148722D01*
X74510000Y-45851278D01*
X74451971Y-45559549D01*
X74338144Y-45284747D01*
X74172893Y-45037431D01*
X73962569Y-44827107D01*
X73715253Y-44661856D01*
X73440451Y-44548029D01*
X73148722Y-44490000D01*
X72851278Y-44490000D01*
X72559549Y-44548029D01*
X72284747Y-44661856D01*
X72037431Y-44827107D01*
X71827107Y-45037431D01*
X71691755Y-45240000D01*
X68308245Y-45240000D01*
X68172893Y-45037431D01*
X67962569Y-44827107D01*
X67715253Y-44661856D01*
X67440451Y-44548029D01*
X67148722Y-44490000D01*
X66851278Y-44490000D01*
X66559549Y-44548029D01*
X66284747Y-44661856D01*
X66037431Y-44827107D01*
X65827107Y-45037431D01*
X65661856Y-45284747D01*
X65548029Y-45559549D01*
X65490000Y-45851278D01*
X65490000Y-46148722D01*
X65537530Y-46387668D01*
X60685199Y-51240000D01*
X49037323Y-51240000D01*
X49000000Y-51236324D01*
X48962677Y-51240000D01*
X48962667Y-51240000D01*
X48851014Y-51250997D01*
X48707753Y-51294454D01*
X48575724Y-51365026D01*
X48459999Y-51459999D01*
X48436201Y-51488997D01*
X43960199Y-55965000D01*
X43898061Y-55965000D01*
X43698102Y-56004774D01*
X43509744Y-56082795D01*
X43340226Y-56196063D01*
X43196063Y-56340226D01*
X43082795Y-56509744D01*
X43004774Y-56698102D01*
X42965000Y-56898061D01*
X42965000Y-57101939D01*
X42992462Y-57240000D01*
X39673163Y-57240000D01*
X39588144Y-57034747D01*
X39422893Y-56787431D01*
X39212569Y-56577107D01*
X38965253Y-56411856D01*
X38690451Y-56298029D01*
X38398722Y-56240000D01*
X38101278Y-56240000D01*
X37809549Y-56298029D01*
X37534747Y-56411856D01*
X37287431Y-56577107D01*
X37077107Y-56787431D01*
X36941755Y-56990000D01*
X33058245Y-56990000D01*
X32922893Y-56787431D01*
X32712569Y-56577107D01*
X32465253Y-56411856D01*
X32190451Y-56298029D01*
X31898722Y-56240000D01*
X31601278Y-56240000D01*
X31309549Y-56298029D01*
X31034747Y-56411856D01*
X30787431Y-56577107D01*
X30577107Y-56787431D01*
X30411856Y-57034747D01*
X30298029Y-57309549D01*
X30240000Y-57601278D01*
X30240000Y-57898722D01*
X30298029Y-58190451D01*
X30411856Y-58465253D01*
X30577107Y-58712569D01*
X30787431Y-58922893D01*
X31034747Y-59088144D01*
X31309549Y-59201971D01*
X31601278Y-59260000D01*
X31898722Y-59260000D01*
X32190451Y-59201971D01*
X32465253Y-59088144D01*
X32712569Y-58922893D01*
X32922893Y-58712569D01*
X33058245Y-58510000D01*
X36941755Y-58510000D01*
X37077107Y-58712569D01*
X37287431Y-58922893D01*
X37534747Y-59088144D01*
X37809549Y-59201971D01*
X38101278Y-59260000D01*
X38398722Y-59260000D01*
X38690451Y-59201971D01*
X38965253Y-59088144D01*
X39212569Y-58922893D01*
X39375462Y-58760000D01*
X51992462Y-58760000D01*
X51965000Y-58898061D01*
X51965000Y-59101939D01*
X52004774Y-59301898D01*
X52082795Y-59490256D01*
X52196063Y-59659774D01*
X52289566Y-59753277D01*
X52294454Y-59769391D01*
X52365026Y-59901421D01*
X52377980Y-59917205D01*
X52459999Y-60017146D01*
X52489003Y-60040949D01*
X62156483Y-69708430D01*
X62125855Y-69862408D01*
X62125855Y-70137592D01*
X62179541Y-70407490D01*
X62284850Y-70661727D01*
X62437735Y-70890535D01*
X62632320Y-71085120D01*
X62861128Y-71238005D01*
X63115365Y-71343314D01*
X63385263Y-71397000D01*
X63660447Y-71397000D01*
X63930345Y-71343314D01*
X64184582Y-71238005D01*
X64413390Y-71085120D01*
X64532945Y-70965565D01*
X65276895Y-70965565D01*
X65343875Y-71205656D01*
X65592903Y-71322756D01*
X65859990Y-71389023D01*
X66134872Y-71401910D01*
X66406988Y-71360922D01*
X66665878Y-71267636D01*
X66781835Y-71205656D01*
X66848815Y-70965565D01*
X66062855Y-70179605D01*
X65276895Y-70965565D01*
X64532945Y-70965565D01*
X64607975Y-70890535D01*
X64760860Y-70661727D01*
X64790547Y-70590057D01*
X64795219Y-70603023D01*
X64857199Y-70718980D01*
X65097290Y-70785960D01*
X65883250Y-70000000D01*
X66242460Y-70000000D01*
X67028420Y-70785960D01*
X67268511Y-70718980D01*
X67332340Y-70583240D01*
X67364850Y-70661727D01*
X67517735Y-70890535D01*
X67712320Y-71085120D01*
X67941128Y-71238005D01*
X68195365Y-71343314D01*
X68465263Y-71397000D01*
X68740447Y-71397000D01*
X68894426Y-71366372D01*
X71039056Y-73511003D01*
X71062854Y-73540001D01*
X71178579Y-73634974D01*
X71310608Y-73705546D01*
X71453869Y-73749003D01*
X71565522Y-73760000D01*
X71565530Y-73760000D01*
X71602855Y-73763676D01*
X71640180Y-73760000D01*
X85412865Y-73760000D01*
X85450187Y-73763676D01*
X85487509Y-73760000D01*
X85487520Y-73760000D01*
X85599173Y-73749003D01*
X85742434Y-73705546D01*
X85874463Y-73634974D01*
X85990188Y-73540001D01*
X86013991Y-73510997D01*
X89483710Y-70041279D01*
X89483710Y-70137592D01*
X89537396Y-70407490D01*
X89642705Y-70661727D01*
X89795590Y-70890535D01*
X89990175Y-71085120D01*
X90218983Y-71238005D01*
X90473220Y-71343314D01*
X90743118Y-71397000D01*
X91018302Y-71397000D01*
X91288200Y-71343314D01*
X91542437Y-71238005D01*
X91771245Y-71085120D01*
X91890800Y-70965565D01*
X92634750Y-70965565D01*
X92701730Y-71205656D01*
X92950758Y-71322756D01*
X93217845Y-71389023D01*
X93492727Y-71401910D01*
X93764843Y-71360922D01*
X94023733Y-71267636D01*
X94139690Y-71205656D01*
X94206670Y-70965565D01*
X93420710Y-70179605D01*
X92634750Y-70965565D01*
X91890800Y-70965565D01*
X91965830Y-70890535D01*
X92118715Y-70661727D01*
X92148402Y-70590057D01*
X92153074Y-70603023D01*
X92215054Y-70718980D01*
X92455145Y-70785960D01*
X93241105Y-70000000D01*
X92455145Y-69214040D01*
X92215054Y-69281020D01*
X92151225Y-69416760D01*
X92118715Y-69338273D01*
X91965830Y-69109465D01*
X91890800Y-69034435D01*
X92634750Y-69034435D01*
X93420710Y-69820395D01*
X94206670Y-69034435D01*
X94139690Y-68794344D01*
X93890662Y-68677244D01*
X93623575Y-68610977D01*
X93348693Y-68598090D01*
X93076577Y-68639078D01*
X92817687Y-68732364D01*
X92701730Y-68794344D01*
X92634750Y-69034435D01*
X91890800Y-69034435D01*
X91771245Y-68914880D01*
X91542437Y-68761995D01*
X91288200Y-68656686D01*
X91018302Y-68603000D01*
X90743118Y-68603000D01*
X90555788Y-68640262D01*
X90553709Y-68619153D01*
X90553709Y-66521092D01*
X94039802Y-63035000D01*
X94101939Y-63035000D01*
X94301898Y-62995226D01*
X94490256Y-62917205D01*
X94659774Y-62803937D01*
X94803937Y-62659774D01*
X94917205Y-62490256D01*
X94995226Y-62301898D01*
X95035000Y-62101939D01*
X95035000Y-61898061D01*
X94995226Y-61698102D01*
X94917205Y-61509744D01*
X94803937Y-61340226D01*
X94659774Y-61196063D01*
X94490256Y-61082795D01*
X94301898Y-61004774D01*
X94101939Y-60965000D01*
X93898061Y-60965000D01*
X93698102Y-61004774D01*
X93509744Y-61082795D01*
X93340226Y-61196063D01*
X93196063Y-61340226D01*
X93082795Y-61509744D01*
X93004774Y-61698102D01*
X92965000Y-61898061D01*
X92965000Y-61960198D01*
X89282712Y-65642487D01*
X89253708Y-65666290D01*
X89227601Y-65698102D01*
X89158735Y-65782015D01*
X89107284Y-65878273D01*
X89088163Y-65914045D01*
X89044706Y-66057306D01*
X89033709Y-66168959D01*
X89033709Y-66168969D01*
X89030033Y-66206291D01*
X89033709Y-66243614D01*
X89033710Y-68341675D01*
X88062480Y-69312905D01*
X87926545Y-69109465D01*
X87731960Y-68914880D01*
X87503152Y-68761995D01*
X87248915Y-68656686D01*
X86979017Y-68603000D01*
X86703833Y-68603000D01*
X86433935Y-68656686D01*
X86179698Y-68761995D01*
X85950890Y-68914880D01*
X85756305Y-69109465D01*
X85603420Y-69338273D01*
X85573733Y-69409943D01*
X85569061Y-69396977D01*
X85507081Y-69281020D01*
X85266990Y-69214040D01*
X84481030Y-70000000D01*
X85266990Y-70785960D01*
X85507081Y-70718980D01*
X85570910Y-70583240D01*
X85603420Y-70661727D01*
X85756305Y-70890535D01*
X85950890Y-71085120D01*
X86154331Y-71221055D01*
X85135386Y-72240000D01*
X71917657Y-72240000D01*
X69969227Y-70291571D01*
X69999855Y-70137592D01*
X69999855Y-69862408D01*
X69946169Y-69592510D01*
X69840860Y-69338273D01*
X69687975Y-69109465D01*
X69493390Y-68914880D01*
X69264582Y-68761995D01*
X69010345Y-68656686D01*
X68740447Y-68603000D01*
X68465263Y-68603000D01*
X68195365Y-68656686D01*
X67941128Y-68761995D01*
X67712320Y-68914880D01*
X67517735Y-69109465D01*
X67364850Y-69338273D01*
X67335163Y-69409943D01*
X67330491Y-69396977D01*
X67268511Y-69281020D01*
X67028420Y-69214040D01*
X66242460Y-70000000D01*
X65883250Y-70000000D01*
X65097290Y-69214040D01*
X64857199Y-69281020D01*
X64793370Y-69416760D01*
X64760860Y-69338273D01*
X64607975Y-69109465D01*
X64532945Y-69034435D01*
X65276895Y-69034435D01*
X66062855Y-69820395D01*
X66848815Y-69034435D01*
X66781835Y-68794344D01*
X66532807Y-68677244D01*
X66265720Y-68610977D01*
X65990838Y-68598090D01*
X65718722Y-68639078D01*
X65459832Y-68732364D01*
X65343875Y-68794344D01*
X65276895Y-69034435D01*
X64532945Y-69034435D01*
X64413390Y-68914880D01*
X64184582Y-68761995D01*
X63930345Y-68656686D01*
X63660447Y-68603000D01*
X63385263Y-68603000D01*
X63231285Y-68633628D01*
X53967204Y-59369548D01*
X53995226Y-59301898D01*
X54035000Y-59101939D01*
X54035000Y-58898061D01*
X54007538Y-58760000D01*
X57992462Y-58760000D01*
X57965000Y-58898061D01*
X57965000Y-59101939D01*
X58004774Y-59301898D01*
X58082795Y-59490256D01*
X58196063Y-59659774D01*
X58340226Y-59803937D01*
X58509744Y-59917205D01*
X58698102Y-59995226D01*
X58898061Y-60035000D01*
X58960199Y-60035000D01*
X64436205Y-65511008D01*
X64459999Y-65540001D01*
X64488992Y-65563795D01*
X64488996Y-65563799D01*
X64548264Y-65612438D01*
X64575724Y-65634974D01*
X64707753Y-65705546D01*
X64851014Y-65749003D01*
X64962667Y-65760000D01*
X64962676Y-65760000D01*
X64999999Y-65763676D01*
X65037322Y-65760000D01*
X67327339Y-65760000D01*
X71275768Y-69708430D01*
X71245140Y-69862408D01*
X71245140Y-70137592D01*
X71298826Y-70407490D01*
X71404135Y-70661727D01*
X71557020Y-70890535D01*
X71751605Y-71085120D01*
X71980413Y-71238005D01*
X72234650Y-71343314D01*
X72504548Y-71397000D01*
X72779732Y-71397000D01*
X73049630Y-71343314D01*
X73303867Y-71238005D01*
X73532675Y-71085120D01*
X73652230Y-70965565D01*
X74396180Y-70965565D01*
X74463160Y-71205656D01*
X74712188Y-71322756D01*
X74979275Y-71389023D01*
X75254157Y-71401910D01*
X75526273Y-71360922D01*
X75785163Y-71267636D01*
X75901120Y-71205656D01*
X75968100Y-70965565D01*
X75182140Y-70179605D01*
X74396180Y-70965565D01*
X73652230Y-70965565D01*
X73727260Y-70890535D01*
X73880145Y-70661727D01*
X73909832Y-70590057D01*
X73914504Y-70603023D01*
X73976484Y-70718980D01*
X74216575Y-70785960D01*
X75002535Y-70000000D01*
X74216575Y-69214040D01*
X73976484Y-69281020D01*
X73912655Y-69416760D01*
X73880145Y-69338273D01*
X73727260Y-69109465D01*
X73652230Y-69034435D01*
X74396180Y-69034435D01*
X75182140Y-69820395D01*
X75968100Y-69034435D01*
X75901120Y-68794344D01*
X75652092Y-68677244D01*
X75385005Y-68610977D01*
X75110123Y-68598090D01*
X74838007Y-68639078D01*
X74579117Y-68732364D01*
X74463160Y-68794344D01*
X74396180Y-69034435D01*
X73652230Y-69034435D01*
X73532675Y-68914880D01*
X73303867Y-68761995D01*
X73049630Y-68656686D01*
X72779732Y-68603000D01*
X72504548Y-68603000D01*
X72350570Y-68633628D01*
X70715660Y-66998718D01*
X70898061Y-67035000D01*
X71101939Y-67035000D01*
X71301898Y-66995226D01*
X71490256Y-66917205D01*
X71659774Y-66803937D01*
X71803937Y-66659774D01*
X71917205Y-66490256D01*
X71995226Y-66301898D01*
X72035000Y-66101939D01*
X72035000Y-65898061D01*
X71995226Y-65698102D01*
X71917205Y-65509744D01*
X71803937Y-65340226D01*
X71760000Y-65296289D01*
X71760000Y-62314801D01*
X72039802Y-62035000D01*
X72101939Y-62035000D01*
X72301898Y-61995226D01*
X72490256Y-61917205D01*
X72659774Y-61803937D01*
X72803937Y-61659774D01*
X72917205Y-61490256D01*
X72995226Y-61301898D01*
X73035000Y-61101939D01*
X73035000Y-60898061D01*
X73007538Y-60760000D01*
X73962667Y-60760000D01*
X74000000Y-60763677D01*
X74037333Y-60760000D01*
X77092197Y-60760000D01*
X76449139Y-61403058D01*
X76420141Y-61426856D01*
X76396343Y-61455854D01*
X76396342Y-61455855D01*
X76325167Y-61542581D01*
X76254595Y-61674611D01*
X76229424Y-61757592D01*
X76215563Y-61803289D01*
X76211139Y-61817872D01*
X76196465Y-61966857D01*
X76200142Y-62004189D01*
X76200141Y-69200678D01*
X76197458Y-69227920D01*
X76147705Y-69214040D01*
X75361745Y-70000000D01*
X76147705Y-70785960D01*
X76387796Y-70718980D01*
X76451625Y-70583240D01*
X76484135Y-70661727D01*
X76637020Y-70890535D01*
X76831605Y-71085120D01*
X77060413Y-71238005D01*
X77314650Y-71343314D01*
X77584548Y-71397000D01*
X77859732Y-71397000D01*
X78129630Y-71343314D01*
X78383867Y-71238005D01*
X78612675Y-71085120D01*
X78807260Y-70890535D01*
X78960145Y-70661727D01*
X79065454Y-70407490D01*
X79119140Y-70137592D01*
X79119140Y-69862408D01*
X79065454Y-69592510D01*
X78960145Y-69338273D01*
X78807260Y-69109465D01*
X78612675Y-68914880D01*
X78383867Y-68761995D01*
X78129630Y-68656686D01*
X77859732Y-68603000D01*
X77720141Y-68603000D01*
X77720141Y-62999610D01*
X77898061Y-63035000D01*
X77960199Y-63035000D01*
X81001426Y-66076228D01*
X81001425Y-68827659D01*
X80870890Y-68914880D01*
X80676305Y-69109465D01*
X80523420Y-69338273D01*
X80418111Y-69592510D01*
X80364425Y-69862408D01*
X80364425Y-70137592D01*
X80418111Y-70407490D01*
X80523420Y-70661727D01*
X80676305Y-70890535D01*
X80870890Y-71085120D01*
X81099698Y-71238005D01*
X81353935Y-71343314D01*
X81623833Y-71397000D01*
X81899017Y-71397000D01*
X82168915Y-71343314D01*
X82423152Y-71238005D01*
X82651960Y-71085120D01*
X82771515Y-70965565D01*
X83515465Y-70965565D01*
X83582445Y-71205656D01*
X83831473Y-71322756D01*
X84098560Y-71389023D01*
X84373442Y-71401910D01*
X84645558Y-71360922D01*
X84904448Y-71267636D01*
X85020405Y-71205656D01*
X85087385Y-70965565D01*
X84301425Y-70179605D01*
X83515465Y-70965565D01*
X82771515Y-70965565D01*
X82846545Y-70890535D01*
X82999430Y-70661727D01*
X83029117Y-70590057D01*
X83033789Y-70603023D01*
X83095769Y-70718980D01*
X83335860Y-70785960D01*
X84121820Y-70000000D01*
X83335860Y-69214040D01*
X83095769Y-69281020D01*
X83031940Y-69416760D01*
X82999430Y-69338273D01*
X82846545Y-69109465D01*
X82771515Y-69034435D01*
X83515465Y-69034435D01*
X84301425Y-69820395D01*
X85087385Y-69034435D01*
X85020405Y-68794344D01*
X84771377Y-68677244D01*
X84504290Y-68610977D01*
X84229408Y-68598090D01*
X83957292Y-68639078D01*
X83698402Y-68732364D01*
X83582445Y-68794344D01*
X83515465Y-69034435D01*
X82771515Y-69034435D01*
X82651960Y-68914880D01*
X82521425Y-68827659D01*
X82521425Y-65798747D01*
X82525101Y-65761424D01*
X82521425Y-65724101D01*
X82521425Y-65724092D01*
X82510428Y-65612439D01*
X82466971Y-65469178D01*
X82396399Y-65337149D01*
X82301426Y-65221424D01*
X82272428Y-65197626D01*
X79035000Y-61960199D01*
X79035000Y-61898061D01*
X78995226Y-61698102D01*
X78917205Y-61509744D01*
X78803937Y-61340226D01*
X78732755Y-61269044D01*
X78791790Y-61210010D01*
X87512668Y-61210010D01*
X87549990Y-61213686D01*
X87587312Y-61210010D01*
X87587323Y-61210010D01*
X87698976Y-61199013D01*
X87842237Y-61155556D01*
X87974266Y-61084984D01*
X88089991Y-60990011D01*
X88113794Y-60961007D01*
X94039802Y-55035000D01*
X94101939Y-55035000D01*
X94301898Y-54995226D01*
X94490256Y-54917205D01*
X94659774Y-54803937D01*
X94803937Y-54659774D01*
X94917205Y-54490256D01*
X94995226Y-54301898D01*
X95035000Y-54101939D01*
X95035000Y-53898061D01*
X94995226Y-53698102D01*
X94917205Y-53509744D01*
X94881488Y-53456289D01*
X96543710Y-55118512D01*
X96490256Y-55082795D01*
X96301898Y-55004774D01*
X96101939Y-54965000D01*
X95898061Y-54965000D01*
X95698102Y-55004774D01*
X95509744Y-55082795D01*
X95340226Y-55196063D01*
X95196063Y-55340226D01*
X95082795Y-55509744D01*
X95004774Y-55698102D01*
X94965000Y-55898061D01*
X94965000Y-56101939D01*
X95004774Y-56301898D01*
X95082795Y-56490256D01*
X95196063Y-56659774D01*
X95240001Y-56703712D01*
X95240000Y-61021033D01*
X95235056Y-61037332D01*
X95211708Y-61114302D01*
X95202035Y-61212510D01*
X95197034Y-61263288D01*
X95200711Y-61300620D01*
X95200710Y-68827659D01*
X95070175Y-68914880D01*
X94875590Y-69109465D01*
X94722705Y-69338273D01*
X94693018Y-69409943D01*
X94688346Y-69396977D01*
X94626366Y-69281020D01*
X94386275Y-69214040D01*
X93600315Y-70000000D01*
X94386275Y-70785960D01*
X94626366Y-70718980D01*
X94690195Y-70583240D01*
X94722705Y-70661727D01*
X94875590Y-70890535D01*
X95070175Y-71085120D01*
X95298983Y-71238005D01*
X95553220Y-71343314D01*
X95823118Y-71397000D01*
X96098302Y-71397000D01*
X96368200Y-71343314D01*
X96622437Y-71238005D01*
X96851245Y-71085120D01*
X97045830Y-70890535D01*
X97198715Y-70661727D01*
X97304024Y-70407490D01*
X97357710Y-70137592D01*
X97357710Y-69862408D01*
X98603000Y-69862408D01*
X98603000Y-70137592D01*
X98656686Y-70407490D01*
X98761995Y-70661727D01*
X98914880Y-70890535D01*
X99109465Y-71085120D01*
X99338273Y-71238005D01*
X99592510Y-71343314D01*
X99862408Y-71397000D01*
X100137592Y-71397000D01*
X100407490Y-71343314D01*
X100661727Y-71238005D01*
X100890535Y-71085120D01*
X101010090Y-70965565D01*
X101754040Y-70965565D01*
X101821020Y-71205656D01*
X102070048Y-71322756D01*
X102337135Y-71389023D01*
X102612017Y-71401910D01*
X102884133Y-71360922D01*
X103143023Y-71267636D01*
X103258980Y-71205656D01*
X103325960Y-70965565D01*
X102540000Y-70179605D01*
X101754040Y-70965565D01*
X101010090Y-70965565D01*
X101085120Y-70890535D01*
X101238005Y-70661727D01*
X101267692Y-70590057D01*
X101272364Y-70603023D01*
X101334344Y-70718980D01*
X101574435Y-70785960D01*
X102360395Y-70000000D01*
X102719605Y-70000000D01*
X103505565Y-70785960D01*
X103745656Y-70718980D01*
X103809485Y-70583240D01*
X103841995Y-70661727D01*
X103994880Y-70890535D01*
X104189465Y-71085120D01*
X104418273Y-71238005D01*
X104672510Y-71343314D01*
X104942408Y-71397000D01*
X105217592Y-71397000D01*
X105487490Y-71343314D01*
X105741727Y-71238005D01*
X105970535Y-71085120D01*
X106165120Y-70890535D01*
X106318005Y-70661727D01*
X106423314Y-70407490D01*
X106477000Y-70137592D01*
X106477000Y-69862408D01*
X106423314Y-69592510D01*
X106318005Y-69338273D01*
X106165120Y-69109465D01*
X105970535Y-68914880D01*
X105741727Y-68761995D01*
X105487490Y-68656686D01*
X105217592Y-68603000D01*
X104942408Y-68603000D01*
X104672510Y-68656686D01*
X104418273Y-68761995D01*
X104189465Y-68914880D01*
X103994880Y-69109465D01*
X103841995Y-69338273D01*
X103812308Y-69409943D01*
X103807636Y-69396977D01*
X103745656Y-69281020D01*
X103505565Y-69214040D01*
X102719605Y-70000000D01*
X102360395Y-70000000D01*
X101574435Y-69214040D01*
X101334344Y-69281020D01*
X101270515Y-69416760D01*
X101238005Y-69338273D01*
X101085120Y-69109465D01*
X101010090Y-69034435D01*
X101754040Y-69034435D01*
X102540000Y-69820395D01*
X103325960Y-69034435D01*
X103258980Y-68794344D01*
X103009952Y-68677244D01*
X102742865Y-68610977D01*
X102467983Y-68598090D01*
X102195867Y-68639078D01*
X101936977Y-68732364D01*
X101821020Y-68794344D01*
X101754040Y-69034435D01*
X101010090Y-69034435D01*
X100890535Y-68914880D01*
X100661727Y-68761995D01*
X100407490Y-68656686D01*
X100137592Y-68603000D01*
X99862408Y-68603000D01*
X99592510Y-68656686D01*
X99338273Y-68761995D01*
X99109465Y-68914880D01*
X98914880Y-69109465D01*
X98761995Y-69338273D01*
X98656686Y-69592510D01*
X98603000Y-69862408D01*
X97357710Y-69862408D01*
X97304024Y-69592510D01*
X97198715Y-69338273D01*
X97045830Y-69109465D01*
X96851245Y-68914880D01*
X96720710Y-68827659D01*
X96720710Y-61466255D01*
X96749003Y-61372984D01*
X96760000Y-61261331D01*
X96760000Y-61261321D01*
X96763676Y-61223999D01*
X96760000Y-61186676D01*
X96760000Y-56703711D01*
X96803937Y-56659774D01*
X96917205Y-56490256D01*
X96995226Y-56301898D01*
X97035000Y-56101939D01*
X97035000Y-55898061D01*
X96995226Y-55698102D01*
X96917205Y-55509744D01*
X96881488Y-55456290D01*
X98240001Y-56814803D01*
X98240000Y-58691755D01*
X98037431Y-58827107D01*
X97827107Y-59037431D01*
X97661856Y-59284747D01*
X97548029Y-59559549D01*
X97490000Y-59851278D01*
X97490000Y-60148722D01*
X97548029Y-60440451D01*
X97661856Y-60715253D01*
X97827107Y-60962569D01*
X98037431Y-61172893D01*
X98284747Y-61338144D01*
X98559549Y-61451971D01*
X98851278Y-61510000D01*
X99148722Y-61510000D01*
X99440451Y-61451971D01*
X99715253Y-61338144D01*
X99962569Y-61172893D01*
X100172893Y-60962569D01*
X100308245Y-60760000D01*
X103691755Y-60760000D01*
X103827107Y-60962569D01*
X104037431Y-61172893D01*
X104284747Y-61338144D01*
X104559549Y-61451971D01*
X104851278Y-61510000D01*
X105148722Y-61510000D01*
X105440451Y-61451971D01*
X105715253Y-61338144D01*
X105962569Y-61172893D01*
X106172893Y-60962569D01*
X106338144Y-60715253D01*
X106451971Y-60440451D01*
X106510000Y-60148722D01*
X106510000Y-59851278D01*
X106451971Y-59559549D01*
X106338144Y-59284747D01*
X106172893Y-59037431D01*
X105962569Y-58827107D01*
X105760000Y-58691755D01*
X105760000Y-56552237D01*
X108641033Y-53671205D01*
X108603000Y-53862408D01*
X108603000Y-54137592D01*
X108656686Y-54407490D01*
X108761995Y-54661727D01*
X108914880Y-54890535D01*
X109109465Y-55085120D01*
X109338273Y-55238005D01*
X109415515Y-55270000D01*
X109338273Y-55301995D01*
X109109465Y-55454880D01*
X108914880Y-55649465D01*
X108761995Y-55878273D01*
X108656686Y-56132510D01*
X108603000Y-56402408D01*
X108603000Y-56677592D01*
X108656686Y-56947490D01*
X108761995Y-57201727D01*
X108914880Y-57430535D01*
X109109465Y-57625120D01*
X109338273Y-57778005D01*
X109415515Y-57810000D01*
X109338273Y-57841995D01*
X109109465Y-57994880D01*
X108914880Y-58189465D01*
X108761995Y-58418273D01*
X108656686Y-58672510D01*
X108603000Y-58942408D01*
X108603000Y-59217592D01*
X108656686Y-59487490D01*
X108761995Y-59741727D01*
X108914880Y-59970535D01*
X109109465Y-60165120D01*
X109338273Y-60318005D01*
X109415515Y-60350000D01*
X109338273Y-60381995D01*
X109109465Y-60534880D01*
X108914880Y-60729465D01*
X108761995Y-60958273D01*
X108656686Y-61212510D01*
X108603000Y-61482408D01*
X108603000Y-61757592D01*
X108656686Y-62027490D01*
X108761995Y-62281727D01*
X108914880Y-62510535D01*
X109109465Y-62705120D01*
X109226429Y-62783273D01*
X109029465Y-62914880D01*
X108834880Y-63109465D01*
X108681995Y-63338273D01*
X108576686Y-63592510D01*
X108523000Y-63862408D01*
X108523000Y-64137592D01*
X108576686Y-64407490D01*
X108681995Y-64661727D01*
X108834880Y-64890535D01*
X109029465Y-65085120D01*
X109258273Y-65238005D01*
X109335515Y-65270000D01*
X109258273Y-65301995D01*
X109029465Y-65454880D01*
X108834880Y-65649465D01*
X108681995Y-65878273D01*
X108576686Y-66132510D01*
X108523000Y-66402408D01*
X108523000Y-66677592D01*
X108576686Y-66947490D01*
X108681995Y-67201727D01*
X108834880Y-67430535D01*
X109029465Y-67625120D01*
X109258273Y-67778005D01*
X109335515Y-67810000D01*
X109258273Y-67841995D01*
X109029465Y-67994880D01*
X108834880Y-68189465D01*
X108681995Y-68418273D01*
X108576686Y-68672510D01*
X108523000Y-68942408D01*
X108523000Y-69217592D01*
X108576686Y-69487490D01*
X108681995Y-69741727D01*
X108834880Y-69970535D01*
X109029465Y-70165120D01*
X109258273Y-70318005D01*
X109335515Y-70350000D01*
X109258273Y-70381995D01*
X109029465Y-70534880D01*
X108834880Y-70729465D01*
X108681995Y-70958273D01*
X108576686Y-71212510D01*
X108523000Y-71482408D01*
X108523000Y-71757592D01*
X108576686Y-72027490D01*
X108681995Y-72281727D01*
X108834880Y-72510535D01*
X109029465Y-72705120D01*
X109258273Y-72858005D01*
X109512510Y-72963314D01*
X109782408Y-73017000D01*
X110057592Y-73017000D01*
X110327490Y-72963314D01*
X110581727Y-72858005D01*
X110810535Y-72705120D01*
X111005120Y-72510535D01*
X111158005Y-72281727D01*
X111190000Y-72204485D01*
X111221995Y-72281727D01*
X111374880Y-72510535D01*
X111569465Y-72705120D01*
X111798273Y-72858005D01*
X112052510Y-72963314D01*
X112322408Y-73017000D01*
X112597592Y-73017000D01*
X112867490Y-72963314D01*
X113121727Y-72858005D01*
X113350535Y-72705120D01*
X113545120Y-72510535D01*
X113698005Y-72281727D01*
X113730000Y-72204485D01*
X113761995Y-72281727D01*
X113914880Y-72510535D01*
X114109465Y-72705120D01*
X114338273Y-72858005D01*
X114592510Y-72963314D01*
X114862408Y-73017000D01*
X115137592Y-73017000D01*
X115407490Y-72963314D01*
X115661727Y-72858005D01*
X115890535Y-72705120D01*
X116085120Y-72510535D01*
X116238005Y-72281727D01*
X116270000Y-72204485D01*
X116301995Y-72281727D01*
X116454880Y-72510535D01*
X116649465Y-72705120D01*
X116878273Y-72858005D01*
X117132510Y-72963314D01*
X117402408Y-73017000D01*
X117677592Y-73017000D01*
X117947490Y-72963314D01*
X118201727Y-72858005D01*
X118430535Y-72705120D01*
X118625120Y-72510535D01*
X118778005Y-72281727D01*
X118873000Y-72052390D01*
X118873000Y-73873000D01*
X21127000Y-73873000D01*
X21127000Y-45033998D01*
X23236324Y-45033998D01*
X23240001Y-45071331D01*
X23240000Y-60962678D01*
X23236324Y-61000000D01*
X23240000Y-61037322D01*
X23240000Y-61037332D01*
X23250997Y-61148985D01*
X23281942Y-61250998D01*
X23294454Y-61292246D01*
X23365026Y-61424276D01*
X23404871Y-61472826D01*
X23459999Y-61540001D01*
X23489003Y-61563804D01*
X32436200Y-70511002D01*
X32459999Y-70540001D01*
X32488997Y-70563799D01*
X32575723Y-70634974D01*
X32707751Y-70705545D01*
X32707753Y-70705546D01*
X32851014Y-70749003D01*
X32962667Y-70760000D01*
X32962676Y-70760000D01*
X32999999Y-70763676D01*
X33037322Y-70760000D01*
X34992659Y-70760000D01*
X35079880Y-70890535D01*
X35274465Y-71085120D01*
X35503273Y-71238005D01*
X35757510Y-71343314D01*
X36027408Y-71397000D01*
X36302592Y-71397000D01*
X36572490Y-71343314D01*
X36826727Y-71238005D01*
X37055535Y-71085120D01*
X37175090Y-70965565D01*
X37919040Y-70965565D01*
X37986020Y-71205656D01*
X38235048Y-71322756D01*
X38502135Y-71389023D01*
X38777017Y-71401910D01*
X39049133Y-71360922D01*
X39308023Y-71267636D01*
X39423980Y-71205656D01*
X39490960Y-70965565D01*
X38705000Y-70179605D01*
X37919040Y-70965565D01*
X37175090Y-70965565D01*
X37250120Y-70890535D01*
X37403005Y-70661727D01*
X37432692Y-70590057D01*
X37437364Y-70603023D01*
X37499344Y-70718980D01*
X37739435Y-70785960D01*
X38525395Y-70000000D01*
X37739435Y-69214040D01*
X37499344Y-69281020D01*
X37435515Y-69416760D01*
X37403005Y-69338273D01*
X37250120Y-69109465D01*
X37055535Y-68914880D01*
X36826727Y-68761995D01*
X36821911Y-68760000D01*
X38050273Y-68760000D01*
X37986020Y-68794344D01*
X37919040Y-69034435D01*
X38705000Y-69820395D01*
X39490960Y-69034435D01*
X39423980Y-68794344D01*
X39350943Y-68760000D01*
X40588089Y-68760000D01*
X40583273Y-68761995D01*
X40354465Y-68914880D01*
X40159880Y-69109465D01*
X40006995Y-69338273D01*
X39977308Y-69409943D01*
X39972636Y-69396977D01*
X39910656Y-69281020D01*
X39670565Y-69214040D01*
X38884605Y-70000000D01*
X39670565Y-70785960D01*
X39910656Y-70718980D01*
X39974485Y-70583240D01*
X40006995Y-70661727D01*
X40159880Y-70890535D01*
X40354465Y-71085120D01*
X40583273Y-71238005D01*
X40837510Y-71343314D01*
X41107408Y-71397000D01*
X41382592Y-71397000D01*
X41652490Y-71343314D01*
X41906727Y-71238005D01*
X42135535Y-71085120D01*
X42330120Y-70890535D01*
X42483005Y-70661727D01*
X42588314Y-70407490D01*
X42642000Y-70137592D01*
X42642000Y-69862408D01*
X42588314Y-69592510D01*
X42483005Y-69338273D01*
X42330120Y-69109465D01*
X42135535Y-68914880D01*
X41906727Y-68761995D01*
X41901911Y-68760000D01*
X42969484Y-68760000D01*
X43917913Y-69708430D01*
X43887285Y-69862408D01*
X43887285Y-70137592D01*
X43940971Y-70407490D01*
X44046280Y-70661727D01*
X44199165Y-70890535D01*
X44393750Y-71085120D01*
X44622558Y-71238005D01*
X44876795Y-71343314D01*
X45146693Y-71397000D01*
X45421877Y-71397000D01*
X45691775Y-71343314D01*
X45946012Y-71238005D01*
X46174820Y-71085120D01*
X46294375Y-70965565D01*
X47038325Y-70965565D01*
X47105305Y-71205656D01*
X47354333Y-71322756D01*
X47621420Y-71389023D01*
X47896302Y-71401910D01*
X48168418Y-71360922D01*
X48427308Y-71267636D01*
X48543265Y-71205656D01*
X48610245Y-70965565D01*
X47824285Y-70179605D01*
X47038325Y-70965565D01*
X46294375Y-70965565D01*
X46369405Y-70890535D01*
X46522290Y-70661727D01*
X46551977Y-70590057D01*
X46556649Y-70603023D01*
X46618629Y-70718980D01*
X46858720Y-70785960D01*
X47644680Y-70000000D01*
X48003890Y-70000000D01*
X48789850Y-70785960D01*
X49029941Y-70718980D01*
X49093770Y-70583240D01*
X49126280Y-70661727D01*
X49279165Y-70890535D01*
X49473750Y-71085120D01*
X49702558Y-71238005D01*
X49956795Y-71343314D01*
X50226693Y-71397000D01*
X50501877Y-71397000D01*
X50771775Y-71343314D01*
X51026012Y-71238005D01*
X51254820Y-71085120D01*
X51449405Y-70890535D01*
X51602290Y-70661727D01*
X51707599Y-70407490D01*
X51761285Y-70137592D01*
X51761285Y-69862408D01*
X51707599Y-69592510D01*
X51602290Y-69338273D01*
X51449405Y-69109465D01*
X51254820Y-68914880D01*
X51124285Y-68827659D01*
X51124285Y-64950516D01*
X52027149Y-64047653D01*
X52089286Y-64047653D01*
X52289245Y-64007879D01*
X52477603Y-63929858D01*
X52647121Y-63816590D01*
X52694454Y-63769257D01*
X53643571Y-64718374D01*
X53643570Y-68827659D01*
X53513035Y-68914880D01*
X53318450Y-69109465D01*
X53165565Y-69338273D01*
X53060256Y-69592510D01*
X53006570Y-69862408D01*
X53006570Y-70137592D01*
X53060256Y-70407490D01*
X53165565Y-70661727D01*
X53318450Y-70890535D01*
X53513035Y-71085120D01*
X53741843Y-71238005D01*
X53996080Y-71343314D01*
X54265978Y-71397000D01*
X54541162Y-71397000D01*
X54811060Y-71343314D01*
X55065297Y-71238005D01*
X55294105Y-71085120D01*
X55413660Y-70965565D01*
X56157610Y-70965565D01*
X56224590Y-71205656D01*
X56473618Y-71322756D01*
X56740705Y-71389023D01*
X57015587Y-71401910D01*
X57287703Y-71360922D01*
X57546593Y-71267636D01*
X57662550Y-71205656D01*
X57729530Y-70965565D01*
X56943570Y-70179605D01*
X56157610Y-70965565D01*
X55413660Y-70965565D01*
X55488690Y-70890535D01*
X55641575Y-70661727D01*
X55671262Y-70590057D01*
X55675934Y-70603023D01*
X55737914Y-70718980D01*
X55978005Y-70785960D01*
X56763965Y-70000000D01*
X57123175Y-70000000D01*
X57909135Y-70785960D01*
X58149226Y-70718980D01*
X58213055Y-70583240D01*
X58245565Y-70661727D01*
X58398450Y-70890535D01*
X58593035Y-71085120D01*
X58821843Y-71238005D01*
X59076080Y-71343314D01*
X59345978Y-71397000D01*
X59621162Y-71397000D01*
X59891060Y-71343314D01*
X60145297Y-71238005D01*
X60374105Y-71085120D01*
X60568690Y-70890535D01*
X60721575Y-70661727D01*
X60826884Y-70407490D01*
X60880570Y-70137592D01*
X60880570Y-69862408D01*
X60826884Y-69592510D01*
X60721575Y-69338273D01*
X60568690Y-69109465D01*
X60374105Y-68914880D01*
X60145297Y-68761995D01*
X59891060Y-68656686D01*
X59621162Y-68603000D01*
X59345978Y-68603000D01*
X59076080Y-68656686D01*
X58821843Y-68761995D01*
X58593035Y-68914880D01*
X58398450Y-69109465D01*
X58245565Y-69338273D01*
X58215878Y-69409943D01*
X58211206Y-69396977D01*
X58149226Y-69281020D01*
X57909135Y-69214040D01*
X57123175Y-70000000D01*
X56763965Y-70000000D01*
X55978005Y-69214040D01*
X55737914Y-69281020D01*
X55674085Y-69416760D01*
X55641575Y-69338273D01*
X55488690Y-69109465D01*
X55413660Y-69034435D01*
X56157610Y-69034435D01*
X56943570Y-69820395D01*
X57729530Y-69034435D01*
X57662550Y-68794344D01*
X57413522Y-68677244D01*
X57146435Y-68610977D01*
X56871553Y-68598090D01*
X56599437Y-68639078D01*
X56340547Y-68732364D01*
X56224590Y-68794344D01*
X56157610Y-69034435D01*
X55413660Y-69034435D01*
X55294105Y-68914880D01*
X55163570Y-68827659D01*
X55163570Y-64440892D01*
X55167246Y-64403569D01*
X55163570Y-64366246D01*
X55163570Y-64366237D01*
X55152573Y-64254584D01*
X55109116Y-64111323D01*
X55038544Y-63979294D01*
X55025381Y-63963255D01*
X54967369Y-63892566D01*
X54967365Y-63892562D01*
X54943571Y-63863569D01*
X54914578Y-63839775D01*
X51035000Y-59960199D01*
X51035000Y-59898061D01*
X50995226Y-59698102D01*
X50917205Y-59509744D01*
X50803937Y-59340226D01*
X50659774Y-59196063D01*
X50490256Y-59082795D01*
X50301898Y-59004774D01*
X50101939Y-58965000D01*
X49898061Y-58965000D01*
X49698102Y-59004774D01*
X49509744Y-59082795D01*
X49340226Y-59196063D01*
X49196063Y-59340226D01*
X49082795Y-59509744D01*
X49004774Y-59698102D01*
X48965000Y-59898061D01*
X48965000Y-60101939D01*
X49004774Y-60301898D01*
X49082795Y-60490256D01*
X49196063Y-60659774D01*
X49340226Y-60803937D01*
X49509744Y-60917205D01*
X49698102Y-60995226D01*
X49898061Y-61035000D01*
X49960199Y-61035000D01*
X51230744Y-62305545D01*
X51183410Y-62352879D01*
X51070142Y-62522397D01*
X50992121Y-62710755D01*
X50952347Y-62910714D01*
X50952347Y-62972851D01*
X49853288Y-64071911D01*
X49824284Y-64095714D01*
X49789916Y-64137592D01*
X49729311Y-64211439D01*
X49684938Y-64294454D01*
X49658739Y-64343469D01*
X49615282Y-64486730D01*
X49604285Y-64598383D01*
X49604285Y-64598393D01*
X49600609Y-64635715D01*
X49604285Y-64673038D01*
X49604286Y-68827659D01*
X49473750Y-68914880D01*
X49279165Y-69109465D01*
X49126280Y-69338273D01*
X49096593Y-69409943D01*
X49091921Y-69396977D01*
X49029941Y-69281020D01*
X48789850Y-69214040D01*
X48003890Y-70000000D01*
X47644680Y-70000000D01*
X46858720Y-69214040D01*
X46618629Y-69281020D01*
X46554800Y-69416760D01*
X46522290Y-69338273D01*
X46369405Y-69109465D01*
X46294375Y-69034435D01*
X47038325Y-69034435D01*
X47824285Y-69820395D01*
X48610245Y-69034435D01*
X48543265Y-68794344D01*
X48294237Y-68677244D01*
X48027150Y-68610977D01*
X47752268Y-68598090D01*
X47480152Y-68639078D01*
X47221262Y-68732364D01*
X47105305Y-68794344D01*
X47038325Y-69034435D01*
X46294375Y-69034435D01*
X46174820Y-68914880D01*
X45946012Y-68761995D01*
X45691775Y-68656686D01*
X45421877Y-68603000D01*
X45146693Y-68603000D01*
X44992715Y-68633628D01*
X43848089Y-67489003D01*
X43824286Y-67459999D01*
X43708561Y-67365026D01*
X43576532Y-67294454D01*
X43433271Y-67250997D01*
X43321618Y-67240000D01*
X43321607Y-67240000D01*
X43284285Y-67236324D01*
X43246963Y-67240000D01*
X33314802Y-67240000D01*
X26760000Y-60685199D01*
X26760000Y-53314801D01*
X27009249Y-53065552D01*
X27120308Y-53333673D01*
X27312919Y-53621935D01*
X27558065Y-53867081D01*
X27846327Y-54059692D01*
X28166627Y-54192364D01*
X28506655Y-54260000D01*
X28853345Y-54260000D01*
X29193373Y-54192364D01*
X29513673Y-54059692D01*
X29801935Y-53867081D01*
X30047081Y-53621935D01*
X30239692Y-53333673D01*
X30240000Y-53332929D01*
X30240000Y-53398722D01*
X30298029Y-53690451D01*
X30411856Y-53965253D01*
X30577107Y-54212569D01*
X30787431Y-54422893D01*
X31034747Y-54588144D01*
X31309549Y-54701971D01*
X31601278Y-54760000D01*
X31898722Y-54760000D01*
X32190451Y-54701971D01*
X32465253Y-54588144D01*
X32712569Y-54422893D01*
X32922893Y-54212569D01*
X33088144Y-53965253D01*
X33201971Y-53690451D01*
X33260000Y-53398722D01*
X33260000Y-53101278D01*
X36740000Y-53101278D01*
X36740000Y-53398722D01*
X36798029Y-53690451D01*
X36911856Y-53965253D01*
X37077107Y-54212569D01*
X37287431Y-54422893D01*
X37534747Y-54588144D01*
X37809549Y-54701971D01*
X38101278Y-54760000D01*
X38398722Y-54760000D01*
X38690451Y-54701971D01*
X38965253Y-54588144D01*
X39212569Y-54422893D01*
X39422893Y-54212569D01*
X39588144Y-53965253D01*
X39701971Y-53690451D01*
X39760000Y-53398722D01*
X39760000Y-53332929D01*
X39760308Y-53333673D01*
X39952919Y-53621935D01*
X40198065Y-53867081D01*
X40486327Y-54059692D01*
X40806627Y-54192364D01*
X41146655Y-54260000D01*
X41493345Y-54260000D01*
X41833373Y-54192364D01*
X42153673Y-54059692D01*
X42441935Y-53867081D01*
X42687081Y-53621935D01*
X42879692Y-53333673D01*
X43012364Y-53013373D01*
X43080000Y-52673345D01*
X43080000Y-52326655D01*
X43012364Y-51986627D01*
X42879692Y-51666327D01*
X42687081Y-51378065D01*
X42441935Y-51132919D01*
X42153673Y-50940308D01*
X41833373Y-50807636D01*
X41493345Y-50740000D01*
X41146655Y-50740000D01*
X40806627Y-50807636D01*
X40486327Y-50940308D01*
X40198065Y-51132919D01*
X39952919Y-51378065D01*
X39760308Y-51666327D01*
X39627636Y-51986627D01*
X39560000Y-52326655D01*
X39560000Y-52492626D01*
X39422893Y-52287431D01*
X39212569Y-52077107D01*
X38965253Y-51911856D01*
X38690451Y-51798029D01*
X38398722Y-51740000D01*
X38101278Y-51740000D01*
X37809549Y-51798029D01*
X37534747Y-51911856D01*
X37287431Y-52077107D01*
X37077107Y-52287431D01*
X36911856Y-52534747D01*
X36798029Y-52809549D01*
X36740000Y-53101278D01*
X33260000Y-53101278D01*
X33201971Y-52809549D01*
X33088144Y-52534747D01*
X32922893Y-52287431D01*
X32712569Y-52077107D01*
X32465253Y-51911856D01*
X32190451Y-51798029D01*
X31898722Y-51740000D01*
X31601278Y-51740000D01*
X31309549Y-51798029D01*
X31034747Y-51911856D01*
X30787431Y-52077107D01*
X30577107Y-52287431D01*
X30440000Y-52492626D01*
X30440000Y-52326655D01*
X30372364Y-51986627D01*
X30239692Y-51666327D01*
X30047081Y-51378065D01*
X29801935Y-51132919D01*
X29513673Y-50940308D01*
X29245552Y-50829249D01*
X34311003Y-45763799D01*
X34340000Y-45740002D01*
X34434973Y-45624277D01*
X34505545Y-45492248D01*
X34549002Y-45348987D01*
X34559999Y-45237334D01*
X34559999Y-45237325D01*
X34563675Y-45200002D01*
X34559999Y-45162679D01*
X34559999Y-45067543D01*
X42234196Y-45067543D01*
X42276499Y-45361963D01*
X42375428Y-45642474D01*
X42452132Y-45785975D01*
X42703760Y-45866635D01*
X43570395Y-45000000D01*
X42703760Y-44133365D01*
X42452132Y-44214025D01*
X42323733Y-44482329D01*
X42250145Y-44770526D01*
X42234196Y-45067543D01*
X34559999Y-45067543D01*
X34559999Y-42326655D01*
X39560000Y-42326655D01*
X39560000Y-42673345D01*
X39627636Y-43013373D01*
X39760308Y-43333673D01*
X39952919Y-43621935D01*
X40198065Y-43867081D01*
X40486327Y-44059692D01*
X40806627Y-44192364D01*
X41146655Y-44260000D01*
X41493345Y-44260000D01*
X41833373Y-44192364D01*
X42153673Y-44059692D01*
X42312211Y-43953760D01*
X42883365Y-43953760D01*
X43750000Y-44820395D01*
X44616635Y-43953760D01*
X44535975Y-43702132D01*
X44267671Y-43573733D01*
X43979474Y-43500145D01*
X43682457Y-43484196D01*
X43388037Y-43526499D01*
X43107526Y-43625428D01*
X42964025Y-43702132D01*
X42883365Y-43953760D01*
X42312211Y-43953760D01*
X42441935Y-43867081D01*
X42687081Y-43621935D01*
X42879692Y-43333673D01*
X43012364Y-43013373D01*
X43080000Y-42673345D01*
X43080000Y-42326655D01*
X43012364Y-41986627D01*
X42879692Y-41666327D01*
X42687081Y-41378065D01*
X42441935Y-41132919D01*
X42153673Y-40940308D01*
X41833373Y-40807636D01*
X41493345Y-40740000D01*
X41146655Y-40740000D01*
X40806627Y-40807636D01*
X40486327Y-40940308D01*
X40198065Y-41132919D01*
X39952919Y-41378065D01*
X39760308Y-41666327D01*
X39627636Y-41986627D01*
X39560000Y-42326655D01*
X34559999Y-42326655D01*
X34559999Y-40202061D01*
X34851278Y-40260000D01*
X35148722Y-40260000D01*
X35440451Y-40201971D01*
X35715253Y-40088144D01*
X35962569Y-39922893D01*
X36089222Y-39796240D01*
X36633365Y-39796240D01*
X36714025Y-40047868D01*
X36982329Y-40176267D01*
X37270526Y-40249855D01*
X37567543Y-40265804D01*
X37861963Y-40223501D01*
X38142474Y-40124572D01*
X38285975Y-40047868D01*
X38366635Y-39796240D01*
X37500000Y-38929605D01*
X36633365Y-39796240D01*
X36089222Y-39796240D01*
X36172893Y-39712569D01*
X36275232Y-39559407D01*
X36453760Y-39616635D01*
X37320395Y-38750000D01*
X37306253Y-38735858D01*
X37485858Y-38556253D01*
X37500000Y-38570395D01*
X37514143Y-38556253D01*
X37693748Y-38735858D01*
X37679605Y-38750000D01*
X38546240Y-39616635D01*
X38797868Y-39535975D01*
X38926267Y-39267671D01*
X38966570Y-39109831D01*
X39004774Y-39301898D01*
X39082795Y-39490256D01*
X39196063Y-39659774D01*
X39340226Y-39803937D01*
X39509744Y-39917205D01*
X39698102Y-39995226D01*
X39898061Y-40035000D01*
X40101939Y-40035000D01*
X40301898Y-39995226D01*
X40490256Y-39917205D01*
X40659774Y-39803937D01*
X40703711Y-39760000D01*
X44296289Y-39760000D01*
X44340226Y-39803937D01*
X44509744Y-39917205D01*
X44698102Y-39995226D01*
X44898061Y-40035000D01*
X45101939Y-40035000D01*
X45301898Y-39995226D01*
X45490256Y-39917205D01*
X45659774Y-39803937D01*
X45803937Y-39659774D01*
X45917205Y-39490256D01*
X45995226Y-39301898D01*
X46035000Y-39101939D01*
X46035000Y-38898061D01*
X45995226Y-38698102D01*
X45917205Y-38509744D01*
X45803937Y-38340226D01*
X45773710Y-38309999D01*
X51865200Y-38309999D01*
X45262907Y-44912292D01*
X45223501Y-44638037D01*
X45124572Y-44357526D01*
X45047868Y-44214025D01*
X44796240Y-44133365D01*
X43929605Y-45000000D01*
X43943748Y-45014143D01*
X43764143Y-45193748D01*
X43750000Y-45179605D01*
X42883365Y-46046240D01*
X42940593Y-46224768D01*
X42787431Y-46327107D01*
X42577107Y-46537431D01*
X42411856Y-46784747D01*
X42298029Y-47059549D01*
X42240000Y-47351278D01*
X42240000Y-47648722D01*
X42298029Y-47940451D01*
X42411856Y-48215253D01*
X42577107Y-48462569D01*
X42787431Y-48672893D01*
X42902830Y-48750000D01*
X42787431Y-48827107D01*
X42577107Y-49037431D01*
X42411856Y-49284747D01*
X42298029Y-49559549D01*
X42240000Y-49851278D01*
X42240000Y-50148722D01*
X42298029Y-50440451D01*
X42411856Y-50715253D01*
X42577107Y-50962569D01*
X42787431Y-51172893D01*
X43034747Y-51338144D01*
X43309549Y-51451971D01*
X43601278Y-51510000D01*
X43898722Y-51510000D01*
X44190451Y-51451971D01*
X44465253Y-51338144D01*
X44712569Y-51172893D01*
X44922893Y-50962569D01*
X45088144Y-50715253D01*
X45201971Y-50440451D01*
X45260000Y-50148722D01*
X45260000Y-49851278D01*
X45201971Y-49559549D01*
X45088144Y-49284747D01*
X44922893Y-49037431D01*
X44712569Y-48827107D01*
X44597170Y-48750000D01*
X44712569Y-48672893D01*
X44922893Y-48462569D01*
X45088144Y-48215253D01*
X45201971Y-47940451D01*
X45260000Y-47648722D01*
X45260000Y-47351278D01*
X45212470Y-47112331D01*
X48426740Y-43898061D01*
X48965000Y-43898061D01*
X48965000Y-44101939D01*
X49004774Y-44301898D01*
X49082795Y-44490256D01*
X49196063Y-44659774D01*
X49340226Y-44803937D01*
X49509744Y-44917205D01*
X49698102Y-44995226D01*
X49898061Y-45035000D01*
X50101939Y-45035000D01*
X50301898Y-44995226D01*
X50490256Y-44917205D01*
X50659774Y-44803937D01*
X50803937Y-44659774D01*
X50917205Y-44490256D01*
X50995226Y-44301898D01*
X51035000Y-44101939D01*
X51035000Y-44039801D01*
X51314802Y-43760000D01*
X67296289Y-43760000D01*
X67340226Y-43803937D01*
X67509744Y-43917205D01*
X67698102Y-43995226D01*
X67898061Y-44035000D01*
X68101939Y-44035000D01*
X68301898Y-43995226D01*
X68490256Y-43917205D01*
X68659774Y-43803937D01*
X68803937Y-43659774D01*
X68917205Y-43490256D01*
X68995226Y-43301898D01*
X69035000Y-43101939D01*
X69035000Y-42898061D01*
X68995226Y-42698102D01*
X68917205Y-42509744D01*
X68803937Y-42340226D01*
X68659774Y-42196063D01*
X68490256Y-42082795D01*
X68301898Y-42004774D01*
X68101939Y-41965000D01*
X67898061Y-41965000D01*
X67698102Y-42004774D01*
X67509744Y-42082795D01*
X67340226Y-42196063D01*
X67296289Y-42240000D01*
X51037333Y-42240000D01*
X51000000Y-42236323D01*
X50962667Y-42240000D01*
X50851014Y-42250997D01*
X50707753Y-42294454D01*
X50575724Y-42365026D01*
X50459999Y-42459999D01*
X50436201Y-42488997D01*
X49960199Y-42965000D01*
X49898061Y-42965000D01*
X49698102Y-43004774D01*
X49509744Y-43082795D01*
X49340226Y-43196063D01*
X49196063Y-43340226D01*
X49082795Y-43509744D01*
X49004774Y-43698102D01*
X48965000Y-43898061D01*
X48426740Y-43898061D01*
X62357377Y-29967424D01*
X65422000Y-29967424D01*
X65422000Y-30192576D01*
X65465925Y-30413401D01*
X65552087Y-30621413D01*
X65677174Y-30808620D01*
X65836380Y-30967826D01*
X66023587Y-31092913D01*
X66231599Y-31179075D01*
X66452424Y-31223000D01*
X66677576Y-31223000D01*
X66898401Y-31179075D01*
X67106413Y-31092913D01*
X67293620Y-30967826D01*
X67452826Y-30808620D01*
X67577913Y-30621413D01*
X67664075Y-30413401D01*
X67708000Y-30192576D01*
X67708000Y-29967424D01*
X67712000Y-29967424D01*
X67712000Y-30192576D01*
X67755925Y-30413401D01*
X67842087Y-30621413D01*
X67967174Y-30808620D01*
X68126380Y-30967826D01*
X68313587Y-31092913D01*
X68521599Y-31179075D01*
X68742424Y-31223000D01*
X68967576Y-31223000D01*
X69188401Y-31179075D01*
X69396413Y-31092913D01*
X69583620Y-30967826D01*
X69742826Y-30808620D01*
X69867913Y-30621413D01*
X69954075Y-30413401D01*
X69998000Y-30192576D01*
X69998000Y-29967424D01*
X69954075Y-29746599D01*
X69867913Y-29538587D01*
X69742826Y-29351380D01*
X69583620Y-29192174D01*
X69396413Y-29067087D01*
X69188401Y-28980925D01*
X68967576Y-28937000D01*
X68742424Y-28937000D01*
X68521599Y-28980925D01*
X68313587Y-29067087D01*
X68126380Y-29192174D01*
X67967174Y-29351380D01*
X67842087Y-29538587D01*
X67755925Y-29746599D01*
X67712000Y-29967424D01*
X67708000Y-29967424D01*
X67664075Y-29746599D01*
X67577913Y-29538587D01*
X67452826Y-29351380D01*
X67293620Y-29192174D01*
X67106413Y-29067087D01*
X66898401Y-28980925D01*
X66677576Y-28937000D01*
X66452424Y-28937000D01*
X66231599Y-28980925D01*
X66023587Y-29067087D01*
X65836380Y-29192174D01*
X65677174Y-29351380D01*
X65552087Y-29538587D01*
X65465925Y-29746599D01*
X65422000Y-29967424D01*
X62357377Y-29967424D01*
X64024802Y-28300000D01*
X64563554Y-28300000D01*
X64691380Y-28427826D01*
X64878587Y-28552913D01*
X65086599Y-28639075D01*
X65307424Y-28683000D01*
X65532576Y-28683000D01*
X65753401Y-28639075D01*
X65961413Y-28552913D01*
X66148620Y-28427826D01*
X66307826Y-28268620D01*
X66432913Y-28081413D01*
X66519075Y-27873401D01*
X66563000Y-27652576D01*
X66563000Y-27467801D01*
X66567000Y-27471801D01*
X66567000Y-27652576D01*
X66610925Y-27873401D01*
X66697087Y-28081413D01*
X66822174Y-28268620D01*
X66981380Y-28427826D01*
X67168587Y-28552913D01*
X67376599Y-28639075D01*
X67597424Y-28683000D01*
X67822576Y-28683000D01*
X68043401Y-28639075D01*
X68251413Y-28552913D01*
X68438620Y-28427826D01*
X68597826Y-28268620D01*
X68722913Y-28081413D01*
X68809075Y-27873401D01*
X68853000Y-27652576D01*
X68853000Y-27427424D01*
X68809075Y-27206599D01*
X68722913Y-26998587D01*
X68597826Y-26811380D01*
X68438620Y-26652174D01*
X68251413Y-26527087D01*
X68043401Y-26440925D01*
X67822576Y-26397000D01*
X67641801Y-26397000D01*
X67440802Y-26196001D01*
X67417000Y-26166998D01*
X67301275Y-26072025D01*
X67169246Y-26001453D01*
X67137828Y-25991923D01*
X67293620Y-25887826D01*
X67397549Y-25783897D01*
X68250708Y-25783897D01*
X68286796Y-25998131D01*
X68492439Y-26089803D01*
X68712016Y-26139595D01*
X68937087Y-26145593D01*
X69159004Y-26107566D01*
X69369238Y-26026976D01*
X69423204Y-25998131D01*
X69459292Y-25783897D01*
X68855000Y-25179605D01*
X68250708Y-25783897D01*
X67397549Y-25783897D01*
X67452826Y-25728620D01*
X67577913Y-25541413D01*
X67664075Y-25333401D01*
X67708000Y-25112576D01*
X67708000Y-24926999D01*
X67713540Y-24926999D01*
X67709407Y-25082087D01*
X67747434Y-25304004D01*
X67828024Y-25514238D01*
X67856869Y-25568204D01*
X68071103Y-25604292D01*
X68675395Y-25000000D01*
X68661253Y-24985858D01*
X68720111Y-24926999D01*
X68989889Y-24926999D01*
X69048748Y-24985858D01*
X69034605Y-25000000D01*
X69638897Y-25604292D01*
X69853131Y-25568204D01*
X69944803Y-25362561D01*
X69994595Y-25142984D01*
X70000269Y-24930070D01*
X70002000Y-24931801D01*
X70002000Y-25112576D01*
X70045925Y-25333401D01*
X70132087Y-25541413D01*
X70257174Y-25728620D01*
X70416380Y-25887826D01*
X70603587Y-26012913D01*
X70811599Y-26099075D01*
X71032424Y-26143000D01*
X71257576Y-26143000D01*
X71478401Y-26099075D01*
X71686413Y-26012913D01*
X71873620Y-25887826D01*
X72032826Y-25728620D01*
X72058073Y-25690835D01*
X72085595Y-25705546D01*
X72228856Y-25749003D01*
X72377842Y-25763677D01*
X72415175Y-25760000D01*
X72578554Y-25760000D01*
X72706380Y-25887826D01*
X72893587Y-26012913D01*
X73101599Y-26099075D01*
X73322424Y-26143000D01*
X73547576Y-26143000D01*
X73768401Y-26099075D01*
X73976413Y-26012913D01*
X74163620Y-25887826D01*
X74322826Y-25728620D01*
X74447913Y-25541413D01*
X74534075Y-25333401D01*
X74578000Y-25112576D01*
X74578000Y-24927802D01*
X74582000Y-24931802D01*
X74582000Y-25112576D01*
X74625925Y-25333401D01*
X74712087Y-25541413D01*
X74837174Y-25728620D01*
X74996380Y-25887826D01*
X75183587Y-26012913D01*
X75391599Y-26099075D01*
X75612424Y-26143000D01*
X75837576Y-26143000D01*
X76058401Y-26099075D01*
X76266413Y-26012913D01*
X76453620Y-25887826D01*
X76612826Y-25728620D01*
X76737913Y-25541413D01*
X76824075Y-25333401D01*
X76868000Y-25112576D01*
X76868000Y-24887424D01*
X76824075Y-24666599D01*
X76737913Y-24458587D01*
X76612826Y-24271380D01*
X76453620Y-24112174D01*
X76266413Y-23987087D01*
X76058401Y-23900925D01*
X75837576Y-23857000D01*
X75656802Y-23857000D01*
X74651080Y-22851278D01*
X109490000Y-22851278D01*
X109490000Y-23148722D01*
X109548029Y-23440451D01*
X109661856Y-23715253D01*
X109827107Y-23962569D01*
X110037431Y-24172893D01*
X110284747Y-24338144D01*
X110559549Y-24451971D01*
X110851278Y-24510000D01*
X111148722Y-24510000D01*
X111440451Y-24451971D01*
X111715253Y-24338144D01*
X111962569Y-24172893D01*
X112172893Y-23962569D01*
X112338144Y-23715253D01*
X112451971Y-23440451D01*
X112510000Y-23148722D01*
X112510000Y-22851278D01*
X115490000Y-22851278D01*
X115490000Y-23148722D01*
X115548029Y-23440451D01*
X115661856Y-23715253D01*
X115827107Y-23962569D01*
X116037431Y-24172893D01*
X116284747Y-24338144D01*
X116559549Y-24451971D01*
X116851278Y-24510000D01*
X117148722Y-24510000D01*
X117440451Y-24451971D01*
X117715253Y-24338144D01*
X117962569Y-24172893D01*
X118172893Y-23962569D01*
X118338144Y-23715253D01*
X118451971Y-23440451D01*
X118510000Y-23148722D01*
X118510000Y-22851278D01*
X118451971Y-22559549D01*
X118338144Y-22284747D01*
X118172893Y-22037431D01*
X117962569Y-21827107D01*
X117715253Y-21661856D01*
X117440451Y-21548029D01*
X117148722Y-21490000D01*
X116851278Y-21490000D01*
X116559549Y-21548029D01*
X116284747Y-21661856D01*
X116037431Y-21827107D01*
X115827107Y-22037431D01*
X115661856Y-22284747D01*
X115548029Y-22559549D01*
X115490000Y-22851278D01*
X112510000Y-22851278D01*
X112451971Y-22559549D01*
X112338144Y-22284747D01*
X112172893Y-22037431D01*
X111962569Y-21827107D01*
X111715253Y-21661856D01*
X111440451Y-21548029D01*
X111148722Y-21490000D01*
X110851278Y-21490000D01*
X110559549Y-21548029D01*
X110284747Y-21661856D01*
X110037431Y-21827107D01*
X109827107Y-22037431D01*
X109661856Y-22284747D01*
X109548029Y-22559549D01*
X109490000Y-22851278D01*
X74651080Y-22851278D01*
X74288804Y-22489003D01*
X74265001Y-22459999D01*
X74149276Y-22365026D01*
X74017247Y-22294454D01*
X73873986Y-22250997D01*
X73762333Y-22240000D01*
X73762322Y-22240000D01*
X73725000Y-22236324D01*
X73687678Y-22240000D01*
X40957322Y-22240000D01*
X40919999Y-22236324D01*
X40882676Y-22240000D01*
X40882667Y-22240000D01*
X40771014Y-22250997D01*
X40627753Y-22294454D01*
X40495723Y-22365026D01*
X40412083Y-22433668D01*
X40379999Y-22459999D01*
X40356201Y-22488997D01*
X39114366Y-23730832D01*
X39046335Y-23717300D01*
X38793665Y-23717300D01*
X38545850Y-23766594D01*
X38312414Y-23863286D01*
X38102327Y-24003662D01*
X37923662Y-24182327D01*
X37783286Y-24392414D01*
X37686594Y-24625850D01*
X37650000Y-24809818D01*
X37613406Y-24625850D01*
X37516714Y-24392414D01*
X37376338Y-24182327D01*
X37197673Y-24003662D01*
X36987586Y-23863286D01*
X36754150Y-23766594D01*
X36506335Y-23717300D01*
X36253665Y-23717300D01*
X36005850Y-23766594D01*
X35772414Y-23863286D01*
X35562327Y-24003662D01*
X35383662Y-24182327D01*
X35243286Y-24392414D01*
X35146594Y-24625850D01*
X35109206Y-24813808D01*
X35086975Y-24673916D01*
X34999399Y-24436908D01*
X34952321Y-24348832D01*
X34723882Y-24295723D01*
X34019605Y-25000000D01*
X34723882Y-25704277D01*
X34952321Y-25651168D01*
X35057985Y-25421653D01*
X35111556Y-25198005D01*
X35146594Y-25374150D01*
X35243286Y-25607586D01*
X35383662Y-25817673D01*
X35562327Y-25996338D01*
X35772414Y-26136714D01*
X36005850Y-26233406D01*
X36253665Y-26282700D01*
X36506335Y-26282700D01*
X36574366Y-26269168D01*
X38816201Y-28511003D01*
X38839999Y-28540001D01*
X38955724Y-28634974D01*
X39087753Y-28705546D01*
X39231014Y-28749003D01*
X39342667Y-28760000D01*
X39342675Y-28760000D01*
X39380000Y-28763676D01*
X39417325Y-28760000D01*
X53962678Y-28760000D01*
X54000000Y-28763676D01*
X54037322Y-28760000D01*
X54037333Y-28760000D01*
X54148986Y-28749003D01*
X54292247Y-28705546D01*
X54424276Y-28634974D01*
X54540001Y-28540001D01*
X54563804Y-28510997D01*
X55629000Y-27445801D01*
X55629000Y-27827693D01*
X55741253Y-28392024D01*
X55961444Y-28923612D01*
X56281112Y-29402029D01*
X56687971Y-29808888D01*
X57166388Y-30128556D01*
X57697976Y-30348747D01*
X58262307Y-30461000D01*
X58418480Y-30461000D01*
X52089482Y-36789999D01*
X36237326Y-36789999D01*
X36200001Y-36786323D01*
X36162676Y-36789999D01*
X36162668Y-36789999D01*
X36051015Y-36800996D01*
X35907754Y-36844453D01*
X35775725Y-36915025D01*
X35660000Y-37009998D01*
X35636202Y-37038996D01*
X35387668Y-37287530D01*
X35337292Y-37277509D01*
X38725634Y-33889168D01*
X38793665Y-33902700D01*
X39046335Y-33902700D01*
X39294150Y-33853406D01*
X39527586Y-33756714D01*
X39737673Y-33616338D01*
X39916338Y-33437673D01*
X40056714Y-33227586D01*
X40153406Y-32994150D01*
X40190000Y-32810182D01*
X40226594Y-32994150D01*
X40323286Y-33227586D01*
X40463662Y-33437673D01*
X40642327Y-33616338D01*
X40852414Y-33756714D01*
X41085850Y-33853406D01*
X41333665Y-33902700D01*
X41586335Y-33902700D01*
X41834150Y-33853406D01*
X42067586Y-33756714D01*
X42277673Y-33616338D01*
X42456338Y-33437673D01*
X42596714Y-33227586D01*
X42693406Y-32994150D01*
X42730000Y-32810182D01*
X42766594Y-32994150D01*
X42863286Y-33227586D01*
X43003662Y-33437673D01*
X43182327Y-33616338D01*
X43392414Y-33756714D01*
X43625850Y-33853406D01*
X43873665Y-33902700D01*
X44126335Y-33902700D01*
X44374150Y-33853406D01*
X44607586Y-33756714D01*
X44817673Y-33616338D01*
X44996338Y-33437673D01*
X45136714Y-33227586D01*
X45233406Y-32994150D01*
X45270000Y-32810182D01*
X45306594Y-32994150D01*
X45403286Y-33227586D01*
X45543662Y-33437673D01*
X45722327Y-33616338D01*
X45932414Y-33756714D01*
X46165850Y-33853406D01*
X46413665Y-33902700D01*
X46666335Y-33902700D01*
X46914150Y-33853406D01*
X47147586Y-33756714D01*
X47357673Y-33616338D01*
X47536338Y-33437673D01*
X47676714Y-33227586D01*
X47773406Y-32994150D01*
X47794228Y-32889472D01*
X47794228Y-33267700D01*
X47806488Y-33392182D01*
X47842798Y-33511880D01*
X47901763Y-33622194D01*
X47981115Y-33718885D01*
X48077806Y-33798237D01*
X48188120Y-33857202D01*
X48307818Y-33893512D01*
X48432300Y-33905772D01*
X49727700Y-33905772D01*
X49852182Y-33893512D01*
X49971880Y-33857202D01*
X50082194Y-33798237D01*
X50178885Y-33718885D01*
X50258237Y-33622194D01*
X50317202Y-33511880D01*
X50353512Y-33392182D01*
X50365772Y-33267700D01*
X50365772Y-31972300D01*
X50353512Y-31847818D01*
X50317202Y-31728120D01*
X50258237Y-31617806D01*
X50178885Y-31521115D01*
X50082194Y-31441763D01*
X49971880Y-31382798D01*
X49852182Y-31346488D01*
X49727700Y-31334228D01*
X48432300Y-31334228D01*
X48307818Y-31346488D01*
X48188120Y-31382798D01*
X48077806Y-31441763D01*
X47981115Y-31521115D01*
X47901763Y-31617806D01*
X47842798Y-31728120D01*
X47806488Y-31847818D01*
X47794228Y-31972300D01*
X47794228Y-32350528D01*
X47773406Y-32245850D01*
X47676714Y-32012414D01*
X47536338Y-31802327D01*
X47357673Y-31623662D01*
X47147586Y-31483286D01*
X46914150Y-31386594D01*
X46666335Y-31337300D01*
X46413665Y-31337300D01*
X46165850Y-31386594D01*
X45932414Y-31483286D01*
X45722327Y-31623662D01*
X45543662Y-31802327D01*
X45403286Y-32012414D01*
X45306594Y-32245850D01*
X45270000Y-32429818D01*
X45233406Y-32245850D01*
X45136714Y-32012414D01*
X44996338Y-31802327D01*
X44817673Y-31623662D01*
X44607586Y-31483286D01*
X44374150Y-31386594D01*
X44126335Y-31337300D01*
X43873665Y-31337300D01*
X43625850Y-31386594D01*
X43392414Y-31483286D01*
X43182327Y-31623662D01*
X43003662Y-31802327D01*
X42863286Y-32012414D01*
X42766594Y-32245850D01*
X42730000Y-32429818D01*
X42693406Y-32245850D01*
X42596714Y-32012414D01*
X42456338Y-31802327D01*
X42277673Y-31623662D01*
X42067586Y-31483286D01*
X41834150Y-31386594D01*
X41586335Y-31337300D01*
X41333665Y-31337300D01*
X41085850Y-31386594D01*
X40852414Y-31483286D01*
X40642327Y-31623662D01*
X40463662Y-31802327D01*
X40323286Y-32012414D01*
X40226594Y-32245850D01*
X40190000Y-32429818D01*
X40153406Y-32245850D01*
X40056714Y-32012414D01*
X39916338Y-31802327D01*
X39737673Y-31623662D01*
X39527586Y-31483286D01*
X39294150Y-31386594D01*
X39046335Y-31337300D01*
X38793665Y-31337300D01*
X38545850Y-31386594D01*
X38312414Y-31483286D01*
X38102327Y-31623662D01*
X37923662Y-31802327D01*
X37783286Y-32012414D01*
X37686594Y-32245850D01*
X37650000Y-32429818D01*
X37613406Y-32245850D01*
X37516714Y-32012414D01*
X37376338Y-31802327D01*
X37197673Y-31623662D01*
X36987586Y-31483286D01*
X36754150Y-31386594D01*
X36506335Y-31337300D01*
X36253665Y-31337300D01*
X36005850Y-31386594D01*
X35772414Y-31483286D01*
X35562327Y-31623662D01*
X35383662Y-31802327D01*
X35243286Y-32012414D01*
X35146594Y-32245850D01*
X35110000Y-32429818D01*
X35073406Y-32245850D01*
X34976714Y-32012414D01*
X34836338Y-31802327D01*
X34657673Y-31623662D01*
X34447586Y-31483286D01*
X34214150Y-31386594D01*
X33966335Y-31337300D01*
X33713665Y-31337300D01*
X33465850Y-31386594D01*
X33232414Y-31483286D01*
X33022327Y-31623662D01*
X32843662Y-31802327D01*
X32703286Y-32012414D01*
X32606594Y-32245850D01*
X32570000Y-32429818D01*
X32533406Y-32245850D01*
X32436714Y-32012414D01*
X32296338Y-31802327D01*
X32117673Y-31623662D01*
X31907586Y-31483286D01*
X31674150Y-31386594D01*
X31426335Y-31337300D01*
X31173665Y-31337300D01*
X30925850Y-31386594D01*
X30692414Y-31483286D01*
X30482327Y-31623662D01*
X30303662Y-31802327D01*
X30163286Y-32012414D01*
X30066594Y-32245850D01*
X30017300Y-32493665D01*
X30017300Y-32746335D01*
X30066594Y-32994150D01*
X30163286Y-33227586D01*
X30303662Y-33437673D01*
X30482327Y-33616338D01*
X30692414Y-33756714D01*
X30925850Y-33853406D01*
X31173665Y-33902700D01*
X31426335Y-33902700D01*
X31674150Y-33853406D01*
X31907586Y-33756714D01*
X32117673Y-33616338D01*
X32296338Y-33437673D01*
X32436714Y-33227586D01*
X32533406Y-32994150D01*
X32570000Y-32810182D01*
X32606594Y-32994150D01*
X32703286Y-33227586D01*
X32843662Y-33437673D01*
X33022327Y-33616338D01*
X33232414Y-33756714D01*
X33465850Y-33853406D01*
X33713665Y-33902700D01*
X33966335Y-33902700D01*
X34078884Y-33880312D01*
X23488998Y-44470199D01*
X23460000Y-44493997D01*
X23436202Y-44522995D01*
X23436201Y-44522996D01*
X23365026Y-44609722D01*
X23294454Y-44741752D01*
X23250998Y-44885013D01*
X23236324Y-45033998D01*
X21127000Y-45033998D01*
X21127000Y-26485807D01*
X21150000Y-26488072D01*
X22850000Y-26488072D01*
X22974482Y-26475812D01*
X23094180Y-26439502D01*
X23204494Y-26380537D01*
X23301185Y-26301185D01*
X23380537Y-26204494D01*
X23439502Y-26094180D01*
X23475812Y-25974482D01*
X23488072Y-25850000D01*
X23488072Y-24873665D01*
X30017300Y-24873665D01*
X30017300Y-25126335D01*
X30066594Y-25374150D01*
X30163286Y-25607586D01*
X30303662Y-25817673D01*
X30482327Y-25996338D01*
X30692414Y-26136714D01*
X30925850Y-26233406D01*
X31173665Y-26282700D01*
X31426335Y-26282700D01*
X31674150Y-26233406D01*
X31907586Y-26136714D01*
X32117673Y-25996338D01*
X32230129Y-25883882D01*
X33135723Y-25883882D01*
X33188832Y-26112321D01*
X33418347Y-26217985D01*
X33664066Y-26276843D01*
X33916546Y-26286631D01*
X34166084Y-26246975D01*
X34403092Y-26159399D01*
X34491168Y-26112321D01*
X34544277Y-25883882D01*
X33840000Y-25179605D01*
X33135723Y-25883882D01*
X32230129Y-25883882D01*
X32296338Y-25817673D01*
X32436714Y-25607586D01*
X32533406Y-25374150D01*
X32570794Y-25186192D01*
X32593025Y-25326084D01*
X32680601Y-25563092D01*
X32727679Y-25651168D01*
X32956118Y-25704277D01*
X33660395Y-25000000D01*
X32956118Y-24295723D01*
X32727679Y-24348832D01*
X32622015Y-24578347D01*
X32568444Y-24801995D01*
X32533406Y-24625850D01*
X32436714Y-24392414D01*
X32296338Y-24182327D01*
X32230129Y-24116118D01*
X33135723Y-24116118D01*
X33840000Y-24820395D01*
X34544277Y-24116118D01*
X34491168Y-23887679D01*
X34261653Y-23782015D01*
X34015934Y-23723157D01*
X33763454Y-23713369D01*
X33513916Y-23753025D01*
X33276908Y-23840601D01*
X33188832Y-23887679D01*
X33135723Y-24116118D01*
X32230129Y-24116118D01*
X32117673Y-24003662D01*
X31907586Y-23863286D01*
X31674150Y-23766594D01*
X31426335Y-23717300D01*
X31173665Y-23717300D01*
X30925850Y-23766594D01*
X30692414Y-23863286D01*
X30482327Y-24003662D01*
X30303662Y-24182327D01*
X30163286Y-24392414D01*
X30066594Y-24625850D01*
X30017300Y-24873665D01*
X23488072Y-24873665D01*
X23488072Y-24150000D01*
X23475812Y-24025518D01*
X23439502Y-23905820D01*
X23380537Y-23795506D01*
X23301185Y-23698815D01*
X23204494Y-23619463D01*
X23094180Y-23560498D01*
X22974482Y-23524188D01*
X22850000Y-23511928D01*
X21150000Y-23511928D01*
X21127000Y-23514193D01*
X21127000Y-21127000D01*
X118873000Y-21127000D01*
X118873000Y-53374474D01*
G36*
X48516908Y-23840601D02*
G01*
X48428832Y-23887679D01*
X48375723Y-24116118D01*
X49080000Y-24820395D01*
X49784277Y-24116118D01*
X49731168Y-23887679D01*
X49501653Y-23782015D01*
X49409745Y-23760000D01*
X56165198Y-23760000D01*
X53685199Y-26240000D01*
X49424961Y-26240000D01*
X49643092Y-26159399D01*
X49731168Y-26112321D01*
X49784277Y-25883882D01*
X49080000Y-25179605D01*
X48375723Y-25883882D01*
X48428832Y-26112321D01*
X48658347Y-26217985D01*
X48750255Y-26240000D01*
X46881000Y-26240000D01*
X46914150Y-26233406D01*
X47147586Y-26136714D01*
X47357673Y-25996338D01*
X47536338Y-25817673D01*
X47676714Y-25607586D01*
X47773406Y-25374150D01*
X47810794Y-25186192D01*
X47833025Y-25326084D01*
X47920601Y-25563092D01*
X47967679Y-25651168D01*
X48196118Y-25704277D01*
X48900395Y-25000000D01*
X49259605Y-25000000D01*
X49963882Y-25704277D01*
X50192321Y-25651168D01*
X50297985Y-25421653D01*
X50356843Y-25175934D01*
X50366631Y-24923454D01*
X50326975Y-24673916D01*
X50239399Y-24436908D01*
X50192321Y-24348832D01*
X49963882Y-24295723D01*
X49259605Y-25000000D01*
X48900395Y-25000000D01*
X48196118Y-24295723D01*
X47967679Y-24348832D01*
X47862015Y-24578347D01*
X47808444Y-24801995D01*
X47773406Y-24625850D01*
X47676714Y-24392414D01*
X47536338Y-24182327D01*
X47357673Y-24003662D01*
X47147586Y-23863286D01*
X46914150Y-23766594D01*
X46881000Y-23760000D01*
X48735039Y-23760000D01*
X48516908Y-23840601D01*
G37*
X48516908Y-23840601D02*
X48428832Y-23887679D01*
X48375723Y-24116118D01*
X49080000Y-24820395D01*
X49784277Y-24116118D01*
X49731168Y-23887679D01*
X49501653Y-23782015D01*
X49409745Y-23760000D01*
X56165198Y-23760000D01*
X53685199Y-26240000D01*
X49424961Y-26240000D01*
X49643092Y-26159399D01*
X49731168Y-26112321D01*
X49784277Y-25883882D01*
X49080000Y-25179605D01*
X48375723Y-25883882D01*
X48428832Y-26112321D01*
X48658347Y-26217985D01*
X48750255Y-26240000D01*
X46881000Y-26240000D01*
X46914150Y-26233406D01*
X47147586Y-26136714D01*
X47357673Y-25996338D01*
X47536338Y-25817673D01*
X47676714Y-25607586D01*
X47773406Y-25374150D01*
X47810794Y-25186192D01*
X47833025Y-25326084D01*
X47920601Y-25563092D01*
X47967679Y-25651168D01*
X48196118Y-25704277D01*
X48900395Y-25000000D01*
X49259605Y-25000000D01*
X49963882Y-25704277D01*
X50192321Y-25651168D01*
X50297985Y-25421653D01*
X50356843Y-25175934D01*
X50366631Y-24923454D01*
X50326975Y-24673916D01*
X50239399Y-24436908D01*
X50192321Y-24348832D01*
X49963882Y-24295723D01*
X49259605Y-25000000D01*
X48900395Y-25000000D01*
X48196118Y-24295723D01*
X47967679Y-24348832D01*
X47862015Y-24578347D01*
X47808444Y-24801995D01*
X47773406Y-24625850D01*
X47676714Y-24392414D01*
X47536338Y-24182327D01*
X47357673Y-24003662D01*
X47147586Y-23863286D01*
X46914150Y-23766594D01*
X46881000Y-23760000D01*
X48735039Y-23760000D01*
X48516908Y-23840601D01*
%TD*%
M02*
