M48
; DRILL file {KiCad (5.1.6)-1} date 12/17/20 21:40:55
; FORMAT={-:-/ absolute / inch / decimal}
; #@! TF.CreationDate,2020-12-17T21:40:55-06:00
; #@! TF.GenerationSoftware,Kicad,Pcbnew,(5.1.6)-1
FMAT,2
INCH
T1C0.0157
T2C0.0280
T3C0.0300
T4C0.0310
T5C0.0315
T6C0.0394
T7C0.0472
T8C0.0492
T9C0.0689
T10C0.1300
%
G90
G05
T1
X1.5748Y-1.5354
X1.7323Y-2.2441
X1.7717Y-1.5354
X1.9291Y-0.8661
X1.9685Y-1.7323
X1.9685Y-2.3622
X2.0079Y-0.8661
X2.0467Y-2.4808
X2.0472Y-0.9843
X2.0866Y-2.3228
X2.3228Y-2.3228
X2.5591Y-2.2835
X2.6772Y-1.6929
X2.7953Y-2.5984
X2.8346Y-2.4016
X2.9921Y-2.1654
X3.0709Y-2.4409
X3.1102Y-1.8504
X3.2677Y-1.6929
X3.7008Y-2.126
X3.7008Y-2.4409
X3.7795Y-2.2047
T2
X2.5756Y-1.0843
X2.6207Y-0.9843
X2.6207Y-1.1843
X2.6657Y-1.0843
X2.7108Y-0.9843
X2.7108Y-1.1843
X2.7559Y-1.0843
X2.801Y-0.9843
X2.801Y-1.1843
X2.8461Y-1.0843
X2.8911Y-0.9843
X2.8911Y-1.1843
X2.9362Y-1.0843
X2.9813Y-0.9843
X2.9813Y-1.1843
T3
X4.3307Y-2.126
X4.3307Y-2.226
X4.3307Y-2.326
X4.3307Y-2.426
X4.4307Y-2.126
X4.4307Y-2.226
X4.4307Y-2.326
X4.4307Y-2.426
X4.5307Y-2.126
X4.5307Y-2.226
X4.5307Y-2.326
X4.5307Y-2.426
X4.6307Y-2.126
X4.6307Y-2.226
X4.6307Y-2.326
X4.6307Y-2.426
X3.937Y-2.7559
X4.037Y-2.7559
X4.137Y-2.7559
X2.5009Y-2.7559
X2.6009Y-2.7559
X2.7009Y-2.7559
X1.7828Y-2.7559
X1.8828Y-2.7559
X1.9828Y-2.7559
X1.4238Y-2.7559
X1.5238Y-2.7559
X1.6238Y-2.7559
X2.1419Y-2.7559
X2.2419Y-2.7559
X2.3419Y-2.7559
X3.219Y-2.7559
X3.319Y-2.7559
X3.419Y-2.7559
X4.3276Y-2.5197
X4.3276Y-2.6197
X4.3276Y-2.7197
X4.3276Y-2.8197
X4.4276Y-2.5197
X4.4276Y-2.6197
X4.4276Y-2.7197
X4.4276Y-2.8197
X4.5276Y-2.5197
X4.5276Y-2.6197
X4.5276Y-2.7197
X4.5276Y-2.8197
X4.6276Y-2.5197
X4.6276Y-2.6197
X4.6276Y-2.7197
X4.6276Y-2.8197
X2.8599Y-2.7559
X2.9599Y-2.7559
X3.0599Y-2.7559
X3.578Y-2.7559
X3.678Y-2.7559
X3.778Y-2.7559
T4
X1.2323Y-0.9843
X1.2323Y-1.2843
X1.3323Y-0.9843
X1.3323Y-1.2843
X1.4323Y-0.9843
X1.4323Y-1.2843
X1.5323Y-0.9843
X1.5323Y-1.2843
X1.6323Y-0.9843
X1.6323Y-1.2843
X1.7323Y-0.9843
X1.7323Y-1.2843
X1.8323Y-0.9843
X1.8323Y-1.2843
X1.9323Y-0.9843
X1.9323Y-1.2843
T5
X3.5433Y-0.9843
X3.9433Y-0.9843
T6
X0.8661Y-0.9843
X2.4528Y-1.4811
X2.5528Y-1.4811
X2.6528Y-1.4811
X2.7528Y-1.4811
X2.8528Y-1.4811
X2.9528Y-1.4811
X3.0528Y-1.4811
T7
X1.2795Y-1.5256
T8
X4.3307Y-1.7323
X4.3307Y-1.9685
X4.5669Y-1.7323
X4.5669Y-1.9685
X4.3701Y-0.9055
X4.3701Y-1.1417
X4.6063Y-0.9055
X4.6063Y-1.1417
X3.8976Y-2.126
X3.8976Y-2.3622
X4.1339Y-2.126
X4.1339Y-2.3622
X1.25Y-2.0965
X1.25Y-2.2736
X1.378Y-1.5256
X1.4764Y-1.5256
X1.5059Y-2.0965
X1.5059Y-2.2736
X1.7224Y-1.7717
X1.7224Y-1.8701
X1.7224Y-1.9685
X2.6378Y-1.811
X2.6378Y-2.0472
X2.874Y-1.811
X2.874Y-2.0472
X3.8976Y-1.3386
X3.8976Y-1.5748
X4.1339Y-1.3386
X4.1339Y-1.5748
X3.4252Y-1.2598
X3.4252Y-1.4961
X3.6614Y-1.2598
X3.6614Y-1.4961
X3.4055Y-1.7323
X3.4055Y-1.9685
X3.6417Y-1.7323
X3.6417Y-1.9685
T9
X1.1291Y-1.6732
X1.1291Y-2.0669
X1.6268Y-1.6732
X1.6268Y-2.0669
T10
X2.3051Y-1.0843
X3.2518Y-1.0843
T0
M30
