%TF.GenerationSoftware,KiCad,Pcbnew,(5.1.6)-1*%
%TF.CreationDate,2020-12-17T21:40:49-06:00*%
%TF.ProjectId,controller,636f6e74-726f-46c6-9c65-722e6b696361,rev?*%
%TF.SameCoordinates,Original*%
%TF.FileFunction,Copper,L2,Bot*%
%TF.FilePolarity,Positive*%
%FSLAX46Y46*%
G04 Gerber Fmt 4.6, Leading zero omitted, Abs format (unit mm)*
G04 Created by KiCad (PCBNEW (5.1.6)-1) date 2020-12-17 21:40:49*
%MOMM*%
%LPD*%
G01*
G04 APERTURE LIST*
%TA.AperFunction,ComponentPad*%
%ADD10O,1.700000X1.700000*%
%TD*%
%TA.AperFunction,ComponentPad*%
%ADD11R,1.700000X1.700000*%
%TD*%
%TA.AperFunction,ComponentPad*%
%ADD12C,1.524000*%
%TD*%
%TA.AperFunction,ComponentPad*%
%ADD13C,1.295400*%
%TD*%
%TA.AperFunction,ComponentPad*%
%ADD14R,1.295400X1.295400*%
%TD*%
%TA.AperFunction,ComponentPad*%
%ADD15C,2.250000*%
%TD*%
%TA.AperFunction,ComponentPad*%
%ADD16C,1.750000*%
%TD*%
%TA.AperFunction,ComponentPad*%
%ADD17O,1.600000X1.600000*%
%TD*%
%TA.AperFunction,ComponentPad*%
%ADD18C,1.600000*%
%TD*%
%TA.AperFunction,ComponentPad*%
%ADD19C,4.572000*%
%TD*%
%TA.AperFunction,ComponentPad*%
%ADD20C,1.016000*%
%TD*%
%TA.AperFunction,ViaPad*%
%ADD21C,0.800000*%
%TD*%
%TA.AperFunction,Conductor*%
%ADD22C,0.250000*%
%TD*%
%TA.AperFunction,Conductor*%
%ADD23C,2.000000*%
%TD*%
%TA.AperFunction,Conductor*%
%ADD24C,0.254000*%
%TD*%
G04 APERTURE END LIST*
D10*
%TO.P,J1,7*%
%TO.N,Net-(D1-Pad9)*%
X62300000Y-37620000D03*
%TO.P,J1,6*%
%TO.N,Net-(D1-Pad10)*%
X64840000Y-37620000D03*
%TO.P,J1,5*%
%TO.N,Net-(D1-Pad11)*%
X67380000Y-37620000D03*
%TO.P,J1,4*%
%TO.N,Net-(D1-Pad12)*%
X69920000Y-37620000D03*
%TO.P,J1,3*%
%TO.N,Net-(D1-Pad13)*%
X72460000Y-37620000D03*
%TO.P,J1,2*%
%TO.N,Net-(D1-Pad14)*%
X75000000Y-37620000D03*
D11*
%TO.P,J1,1*%
%TO.N,Net-(D1-Pad15)*%
X77540000Y-37620000D03*
%TD*%
D12*
%TO.P,fet1,3*%
%TO.N,Net-(U2-Pad7)*%
X86841425Y-70000000D03*
%TO.P,fet1,2*%
%TO.N,+5V*%
X84301425Y-70000000D03*
%TO.P,fet1,1*%
%TO.N,qa*%
X81761425Y-70000000D03*
%TD*%
D13*
%TO.P,U1,16*%
%TO.N,+5V*%
X49080000Y-25000000D03*
%TO.P,U1,15*%
%TO.N,qa*%
X46540000Y-25000000D03*
%TO.P,U1,14*%
%TO.N,data*%
X44000000Y-25000000D03*
%TO.P,U1,13*%
%TO.N,GND*%
X41460000Y-25000000D03*
%TO.P,U1,12*%
%TO.N,latch*%
X38920000Y-25000000D03*
%TO.P,U1,11*%
%TO.N,clk*%
X36380000Y-25000000D03*
%TO.P,U1,10*%
%TO.N,+5V*%
X33840000Y-25000000D03*
%TO.P,U1,9*%
%TO.N,qh'*%
X31300000Y-25000000D03*
%TO.P,U1,8*%
%TO.N,GND*%
X31300000Y-32620000D03*
%TO.P,U1,7*%
%TO.N,qh*%
X33840000Y-32620000D03*
%TO.P,U1,6*%
%TO.N,qg*%
X36380000Y-32620000D03*
%TO.P,U1,5*%
%TO.N,qf*%
X38920000Y-32620000D03*
%TO.P,U1,4*%
%TO.N,qe*%
X41460000Y-32620000D03*
%TO.P,U1,3*%
%TO.N,qd*%
X44000000Y-32620000D03*
%TO.P,U1,2*%
%TO.N,qc*%
X46540000Y-32620000D03*
D14*
%TO.P,U1,1*%
%TO.N,qb*%
X49080000Y-32620000D03*
%TD*%
D11*
%TO.P,J2,1*%
%TO.N,qh'*%
X22000000Y-25000000D03*
%TD*%
D12*
%TO.P,.2,_*%
%TO.N,N/C*%
X117540000Y-71620000D03*
X115000000Y-71620000D03*
X112460000Y-71620000D03*
X109920000Y-71620000D03*
X117540000Y-69080000D03*
X115000000Y-69080000D03*
X112460000Y-69080000D03*
X109920000Y-69080000D03*
X117540000Y-66540000D03*
X117540000Y-64000000D03*
X115000000Y-66540000D03*
X112460000Y-66540000D03*
X109920000Y-66540000D03*
X115000000Y-64000000D03*
X112460000Y-64000000D03*
X109920000Y-64000000D03*
%TD*%
%TO.P,.1,_*%
%TO.N,N/C*%
X117620000Y-61620000D03*
X115080000Y-61620000D03*
X112540000Y-61620000D03*
X110000000Y-61620000D03*
X117620000Y-59080000D03*
X115080000Y-59080000D03*
X112540000Y-59080000D03*
X110000000Y-59080000D03*
X117620000Y-56540000D03*
X117620000Y-54000000D03*
X115080000Y-56540000D03*
X112540000Y-56540000D03*
X110000000Y-56540000D03*
X115080000Y-54000000D03*
X112540000Y-54000000D03*
X110000000Y-54000000D03*
%TD*%
D15*
%TO.P,U2,14*%
%TO.N,N/C*%
X41320000Y-42500000D03*
%TO.P,U2,13*%
X41320000Y-52500000D03*
%TO.P,U2,12*%
X28680000Y-52500000D03*
%TO.P,U2,11*%
X28680000Y-42500000D03*
D16*
%TO.P,U2,7*%
%TO.N,Net-(U2-Pad7)*%
X31750000Y-53250000D03*
%TO.P,U2,8*%
%TO.N,watch*%
X31750000Y-57750000D03*
X38250000Y-57750000D03*
%TO.P,U2,7*%
%TO.N,Net-(U2-Pad7)*%
X38250000Y-53250000D03*
%TO.P,U2,6*%
%TO.N,GND*%
X32500000Y-38750000D03*
%TO.P,U2,4*%
%TO.N,+5V*%
X37500000Y-38750000D03*
%TO.P,U2,5*%
%TO.N,vert*%
X35000000Y-38750000D03*
%TO.P,U2,3*%
%TO.N,GND*%
X43750000Y-50000000D03*
%TO.P,U2,1*%
%TO.N,+5V*%
X43750000Y-45000000D03*
%TO.P,U2,2*%
%TO.N,horz*%
X43750000Y-47500000D03*
%TD*%
%TO.P,SW7,1*%
%TO.N,Net-(SW7-Pad1)*%
X105000000Y-54000000D03*
%TO.P,SW7,2*%
%TO.N,watch*%
X105000000Y-60000000D03*
X99000000Y-60000000D03*
%TO.P,SW7,1*%
%TO.N,Net-(SW7-Pad1)*%
X99000000Y-54000000D03*
%TD*%
%TO.P,SW6,1*%
%TO.N,Net-(SW6-Pad1)*%
X73000000Y-46000000D03*
%TO.P,SW6,2*%
%TO.N,watch*%
X73000000Y-52000000D03*
X67000000Y-52000000D03*
%TO.P,SW6,1*%
%TO.N,Net-(SW6-Pad1)*%
X67000000Y-46000000D03*
%TD*%
%TO.P,SW5,1*%
%TO.N,Net-(SW5-Pad1)*%
X92500000Y-44000000D03*
%TO.P,SW5,2*%
%TO.N,watch*%
X92500000Y-50000000D03*
X86500000Y-50000000D03*
%TO.P,SW5,1*%
%TO.N,Net-(SW5-Pad1)*%
X86500000Y-44000000D03*
%TD*%
%TO.P,SW4,1*%
%TO.N,Net-(SW4-Pad1)*%
X116000000Y-44000000D03*
%TO.P,SW4,2*%
%TO.N,watch*%
X116000000Y-50000000D03*
X110000000Y-50000000D03*
%TO.P,SW4,1*%
%TO.N,Net-(SW4-Pad1)*%
X110000000Y-44000000D03*
%TD*%
%TO.P,SW3,1*%
%TO.N,Net-(SW3-Pad1)*%
X117000000Y-23000000D03*
%TO.P,SW3,2*%
%TO.N,watch*%
X117000000Y-29000000D03*
X111000000Y-29000000D03*
%TO.P,SW3,1*%
%TO.N,Net-(SW3-Pad1)*%
X111000000Y-23000000D03*
%TD*%
%TO.P,SW2,1*%
%TO.N,Net-(SW2-Pad1)*%
X105000000Y-34000000D03*
%TO.P,SW2,2*%
%TO.N,watch*%
X105000000Y-40000000D03*
X99000000Y-40000000D03*
%TO.P,SW2,1*%
%TO.N,Net-(SW2-Pad1)*%
X99000000Y-34000000D03*
%TD*%
%TO.P,SW1,1*%
%TO.N,Net-(SW1-Pad1)*%
X93000000Y-32000000D03*
%TO.P,SW1,2*%
%TO.N,watch*%
X93000000Y-38000000D03*
X87000000Y-38000000D03*
%TO.P,SW1,1*%
%TO.N,Net-(SW1-Pad1)*%
X87000000Y-32000000D03*
%TD*%
D17*
%TO.P,pull_down1,2*%
%TO.N,watch*%
X100160000Y-25000000D03*
D18*
%TO.P,pull_down1,1*%
%TO.N,GND*%
X90000000Y-25000000D03*
%TD*%
D12*
%TO.P,fet8,3*%
%TO.N,Net-(SW7-Pad1)*%
X105080000Y-70000000D03*
%TO.P,fet8,2*%
%TO.N,+5V*%
X102540000Y-70000000D03*
%TO.P,fet8,1*%
%TO.N,qh*%
X100000000Y-70000000D03*
%TD*%
%TO.P,fet7,3*%
%TO.N,Net-(SW6-Pad1)*%
X41245000Y-70000000D03*
%TO.P,fet7,2*%
%TO.N,+5V*%
X38705000Y-70000000D03*
%TO.P,fet7,1*%
%TO.N,qg*%
X36165000Y-70000000D03*
%TD*%
%TO.P,fet6,3*%
%TO.N,Net-(SW5-Pad1)*%
X50364285Y-70000000D03*
%TO.P,fet6,2*%
%TO.N,+5V*%
X47824285Y-70000000D03*
%TO.P,fet6,1*%
%TO.N,qf*%
X45284285Y-70000000D03*
%TD*%
%TO.P,fet5,3*%
%TO.N,Net-(SW4-Pad1)*%
X68602855Y-70000000D03*
%TO.P,fet5,2*%
%TO.N,+5V*%
X66062855Y-70000000D03*
%TO.P,fet5,1*%
%TO.N,qc*%
X63522855Y-70000000D03*
%TD*%
%TO.P,fet4,3*%
%TO.N,Net-(SW3-Pad1)*%
X95960710Y-70000000D03*
%TO.P,fet4,2*%
%TO.N,+5V*%
X93420710Y-70000000D03*
%TO.P,fet4,1*%
%TO.N,qe*%
X90880710Y-70000000D03*
%TD*%
%TO.P,fet3,3*%
%TO.N,Net-(SW2-Pad1)*%
X77722140Y-70000000D03*
%TO.P,fet3,2*%
%TO.N,+5V*%
X75182140Y-70000000D03*
%TO.P,fet3,1*%
%TO.N,qb*%
X72642140Y-70000000D03*
%TD*%
%TO.P,fet2,3*%
%TO.N,Net-(SW1-Pad1)*%
X59483570Y-70000000D03*
%TO.P,fet2,2*%
%TO.N,+5V*%
X56943570Y-70000000D03*
%TO.P,fet2,1*%
%TO.N,qd*%
X54403570Y-70000000D03*
%TD*%
D19*
%TO.P,D1, *%
%TO.N,N/C*%
X58550000Y-27540000D03*
X82595000Y-27540000D03*
D20*
%TO.P,D1,15*%
%TO.N,Net-(D1-Pad15)*%
X75725000Y-30080000D03*
%TO.P,D1,14*%
%TO.N,Net-(D1-Pad14)*%
X73435000Y-30080000D03*
%TO.P,D1,13*%
%TO.N,Net-(D1-Pad13)*%
X71145000Y-30080000D03*
%TO.P,D1,12*%
%TO.N,Net-(D1-Pad12)*%
X68855000Y-30080000D03*
%TO.P,D1,11*%
%TO.N,Net-(D1-Pad11)*%
X66565000Y-30080000D03*
%TO.P,D1,10*%
%TO.N,Net-(D1-Pad10)*%
X74580000Y-27540000D03*
%TO.P,D1,9*%
%TO.N,Net-(D1-Pad9)*%
X72290000Y-27540000D03*
%TO.P,D1,8*%
%TO.N,watch*%
X70000000Y-27540000D03*
%TO.P,D1,7*%
%TO.N,vert*%
X67710000Y-27540000D03*
%TO.P,D1,6*%
%TO.N,horz*%
X65420000Y-27540000D03*
%TO.P,D1,5*%
%TO.N,latch*%
X75725000Y-25000000D03*
%TO.P,D1,4*%
%TO.N,data*%
X73435000Y-25000000D03*
%TO.P,D1,3*%
%TO.N,clk*%
X71145000Y-25000000D03*
%TO.P,D1,2*%
%TO.N,+5V*%
X68855000Y-25000000D03*
%TO.P,D1,1*%
%TO.N,GND*%
X66565000Y-25000000D03*
%TD*%
D21*
%TO.N,qa*%
X78000000Y-62000000D03*
%TO.N,Net-(SW1-Pad1)*%
X71000000Y-66000000D03*
X72000000Y-61000000D03*
X76000000Y-55000000D03*
X83000000Y-43000000D03*
%TO.N,qd*%
X50000000Y-60000000D03*
%TO.N,Net-(SW2-Pad1)*%
X94000000Y-54000000D03*
%TO.N,qb*%
X59000000Y-59000000D03*
%TO.N,Net-(SW3-Pad1)*%
X96000000Y-56000000D03*
%TO.N,Net-(SW4-Pad1)*%
X94000000Y-62000000D03*
%TO.N,qc*%
X53000000Y-59000000D03*
%TO.N,Net-(SW5-Pad1)*%
X79000000Y-47000000D03*
X65000000Y-58000000D03*
X51987347Y-63012653D03*
%TO.N,Net-(SW6-Pad1)*%
X44000000Y-57000000D03*
%TO.N,qh*%
X68000000Y-43000000D03*
X50000000Y-44000000D03*
X45000000Y-39000000D03*
X40000000Y-39000000D03*
%TO.N,+5V*%
X52000000Y-25000000D03*
X51000000Y-22000000D03*
X49000000Y-22000000D03*
%TD*%
D22*
%TO.N,Net-(D1-Pad15)*%
X77540000Y-31895000D02*
X75725000Y-30080000D01*
X77540000Y-37620000D02*
X77540000Y-31895000D01*
%TO.N,Net-(D1-Pad14)*%
X75000000Y-31645000D02*
X73435000Y-30080000D01*
X75000000Y-37620000D02*
X75000000Y-31645000D01*
%TO.N,Net-(D1-Pad13)*%
X72460000Y-31395000D02*
X71145000Y-30080000D01*
X72460000Y-37620000D02*
X72460000Y-31395000D01*
%TO.N,Net-(D1-Pad12)*%
X69920000Y-31145000D02*
X68855000Y-30080000D01*
X69920000Y-37620000D02*
X69920000Y-31145000D01*
%TO.N,Net-(D1-Pad11)*%
X67380000Y-30895000D02*
X66565000Y-30080000D01*
X67380000Y-37620000D02*
X67380000Y-30895000D01*
%TO.N,Net-(D1-Pad10)*%
X73746999Y-28373001D02*
X74580000Y-27540000D01*
X67039157Y-28373001D02*
X73746999Y-28373001D01*
X64840000Y-30572158D02*
X67039157Y-28373001D01*
X64840000Y-37620000D02*
X64840000Y-30572158D01*
%TO.N,Net-(D1-Pad9)*%
X62300000Y-37620000D02*
X62300000Y-27700000D01*
X71456999Y-26706999D02*
X72290000Y-27540000D01*
X63293001Y-26706999D02*
X71456999Y-26706999D01*
X62300000Y-27700000D02*
X63293001Y-26706999D01*
%TO.N,Net-(U2-Pad7)*%
X38250000Y-53250000D02*
X34000000Y-57500000D01*
X34000000Y-69443762D02*
X37556238Y-73000000D01*
X34000000Y-57500000D02*
X34000000Y-69443762D01*
X83841425Y-73000000D02*
X86841425Y-70000000D01*
X37556238Y-73000000D02*
X83841425Y-73000000D01*
X31750000Y-53250000D02*
X38250000Y-53250000D01*
%TO.N,qa*%
X47512701Y-25972701D02*
X46540000Y-25000000D01*
X48748703Y-25972701D02*
X47512701Y-25972701D01*
X78000000Y-55223998D02*
X48748703Y-25972701D01*
X78000000Y-62000000D02*
X78000000Y-55223998D01*
%TO.N,Net-(SW1-Pad1)*%
X59483570Y-70000000D02*
X63483570Y-66000000D01*
X63483570Y-66000000D02*
X67000000Y-66000000D01*
X67000000Y-66000000D02*
X71000000Y-66000000D01*
X72000000Y-61000000D02*
X72000000Y-57000000D01*
X72000000Y-57000000D02*
X72000000Y-56000000D01*
X72000000Y-56000000D02*
X73000000Y-55000000D01*
X73000000Y-55000000D02*
X76000000Y-55000000D01*
X83000000Y-36000000D02*
X87000000Y-32000000D01*
X83000000Y-43000000D02*
X83000000Y-36000000D01*
X87000000Y-32000000D02*
X93000000Y-32000000D01*
%TO.N,qd*%
X50000000Y-60000000D02*
X50000000Y-48000000D01*
X44000000Y-42000000D02*
X44000000Y-32620000D01*
X50000000Y-48000000D02*
X44000000Y-42000000D01*
%TO.N,Net-(SW2-Pad1)*%
X99000000Y-38223998D02*
X99000000Y-34000000D01*
X94000000Y-43223998D02*
X99000000Y-38223998D01*
X94000000Y-54000000D02*
X94000000Y-43223998D01*
X99000000Y-34000000D02*
X105000000Y-34000000D01*
%TO.N,qb*%
X59000000Y-59000000D02*
X59000000Y-56000000D01*
X59000000Y-56000000D02*
X55000000Y-52000000D01*
X55000000Y-52000000D02*
X55000000Y-42000000D01*
X55000000Y-42000000D02*
X49000000Y-36000000D01*
X49080000Y-35920000D02*
X49080000Y-32620000D01*
X49000000Y-36000000D02*
X49080000Y-35920000D01*
%TO.N,Net-(SW3-Pad1)*%
X109799999Y-24200001D02*
X111000000Y-23000000D01*
X109799999Y-36976003D02*
X109799999Y-24200001D01*
X96000000Y-50776002D02*
X109799999Y-36976003D01*
X96000000Y-56000000D02*
X96000000Y-50776002D01*
X111000000Y-23000000D02*
X117000000Y-23000000D01*
%TO.N,qe*%
X85299999Y-64419289D02*
X51419289Y-64419289D01*
X90880710Y-70000000D02*
X85299999Y-64419289D01*
X41460000Y-40096410D02*
X41460000Y-32620000D01*
X47000000Y-45636410D02*
X41460000Y-40096410D01*
X47000000Y-60000000D02*
X47000000Y-45636410D01*
X51419289Y-64419289D02*
X47000000Y-60000000D01*
%TO.N,Net-(SW4-Pad1)*%
X110000000Y-44000000D02*
X116000000Y-44000000D01*
X97799999Y-50200001D02*
X97799999Y-56799999D01*
X110000000Y-44000000D02*
X104000000Y-44000000D01*
X104000000Y-44000000D02*
X97799999Y-50200001D01*
X97799999Y-56799999D02*
X97799999Y-58200001D01*
X97799999Y-58200001D02*
X94000000Y-62000000D01*
%TO.N,qc*%
X53000000Y-59000000D02*
X53000000Y-43000000D01*
X46540000Y-36540000D02*
X46540000Y-32620000D01*
X53000000Y-43000000D02*
X46540000Y-36540000D01*
%TO.N,Net-(SW5-Pad1)*%
X92500000Y-44000000D02*
X86500000Y-44000000D01*
X86500000Y-44000000D02*
X82000000Y-44000000D01*
X82000000Y-44000000D02*
X79000000Y-47000000D01*
X65000000Y-58000000D02*
X60000000Y-63000000D01*
X60000000Y-63000000D02*
X52000000Y-63000000D01*
X52000000Y-63000000D02*
X51987347Y-63012653D01*
%TO.N,Net-(SW6-Pad1)*%
X44000000Y-67245000D02*
X41245000Y-70000000D01*
X44000000Y-57000000D02*
X44000000Y-67245000D01*
%TO.N,Net-(SW7-Pad1)*%
X106200001Y-55200001D02*
X105000000Y-54000000D01*
X106200001Y-68879999D02*
X106200001Y-55200001D01*
X105080000Y-70000000D02*
X106200001Y-68879999D01*
X99000000Y-54000000D02*
X105000000Y-54000000D01*
%TO.N,qh*%
X100000000Y-70000000D02*
X73000000Y-43000000D01*
X73000000Y-43000000D02*
X68000000Y-43000000D01*
X50000000Y-44000000D02*
X45000000Y-39000000D01*
X33840000Y-32840000D02*
X33840000Y-32620000D01*
X40000000Y-39000000D02*
X33840000Y-32840000D01*
D23*
%TO.N,+5V*%
X52000000Y-23000000D02*
X51000000Y-22000000D01*
X52000000Y-25000000D02*
X52000000Y-23000000D01*
X51000000Y-22000000D02*
X49000000Y-22000000D01*
D22*
%TO.N,qh'*%
X31300000Y-25000000D02*
X22000000Y-25000000D01*
%TD*%
D24*
%TO.N,GND*%
G36*
X47482148Y-21371285D02*
G01*
X47388657Y-21679484D01*
X47357089Y-22000000D01*
X47388657Y-22320516D01*
X47482148Y-22628715D01*
X47633969Y-22912752D01*
X47838286Y-23161714D01*
X48087248Y-23366031D01*
X48371285Y-23517852D01*
X48679484Y-23611343D01*
X48919678Y-23635000D01*
X50322762Y-23635000D01*
X50365001Y-23677239D01*
X50365000Y-25080321D01*
X50388657Y-25320515D01*
X50482148Y-25628714D01*
X50633969Y-25912751D01*
X50838286Y-26161714D01*
X51087248Y-26366031D01*
X51371285Y-26517852D01*
X51679484Y-26611343D01*
X52000000Y-26642911D01*
X52320515Y-26611343D01*
X52628714Y-26517852D01*
X52912751Y-26366031D01*
X53161714Y-26161714D01*
X53366031Y-25912752D01*
X53517852Y-25628715D01*
X53611343Y-25320516D01*
X53635000Y-25080322D01*
X53635000Y-24216103D01*
X65960708Y-24216103D01*
X66565000Y-24820395D01*
X67169292Y-24216103D01*
X67133204Y-24001869D01*
X66927561Y-23910197D01*
X66707984Y-23860405D01*
X66482913Y-23854407D01*
X66260996Y-23892434D01*
X66050762Y-23973024D01*
X65996796Y-24001869D01*
X65960708Y-24216103D01*
X53635000Y-24216103D01*
X53635000Y-23080330D01*
X53642912Y-23000000D01*
X53611343Y-22679483D01*
X53517852Y-22371285D01*
X53453557Y-22250997D01*
X53366031Y-22087248D01*
X53161714Y-21838286D01*
X53099318Y-21787079D01*
X52439238Y-21127000D01*
X118873000Y-21127000D01*
X118873000Y-53374474D01*
X118858005Y-53338273D01*
X118705120Y-53109465D01*
X118510535Y-52914880D01*
X118281727Y-52761995D01*
X118027490Y-52656686D01*
X117757592Y-52603000D01*
X117482408Y-52603000D01*
X117212510Y-52656686D01*
X116958273Y-52761995D01*
X116729465Y-52914880D01*
X116534880Y-53109465D01*
X116381995Y-53338273D01*
X116350000Y-53415515D01*
X116318005Y-53338273D01*
X116165120Y-53109465D01*
X115970535Y-52914880D01*
X115741727Y-52761995D01*
X115487490Y-52656686D01*
X115217592Y-52603000D01*
X114942408Y-52603000D01*
X114672510Y-52656686D01*
X114418273Y-52761995D01*
X114189465Y-52914880D01*
X113994880Y-53109465D01*
X113841995Y-53338273D01*
X113810000Y-53415515D01*
X113778005Y-53338273D01*
X113625120Y-53109465D01*
X113430535Y-52914880D01*
X113201727Y-52761995D01*
X112947490Y-52656686D01*
X112677592Y-52603000D01*
X112402408Y-52603000D01*
X112132510Y-52656686D01*
X111878273Y-52761995D01*
X111649465Y-52914880D01*
X111454880Y-53109465D01*
X111301995Y-53338273D01*
X111270000Y-53415515D01*
X111238005Y-53338273D01*
X111085120Y-53109465D01*
X110890535Y-52914880D01*
X110661727Y-52761995D01*
X110407490Y-52656686D01*
X110137592Y-52603000D01*
X109862408Y-52603000D01*
X109592510Y-52656686D01*
X109338273Y-52761995D01*
X109109465Y-52914880D01*
X108914880Y-53109465D01*
X108761995Y-53338273D01*
X108656686Y-53592510D01*
X108603000Y-53862408D01*
X108603000Y-54137592D01*
X108656686Y-54407490D01*
X108761995Y-54661727D01*
X108914880Y-54890535D01*
X109109465Y-55085120D01*
X109338273Y-55238005D01*
X109415515Y-55270000D01*
X109338273Y-55301995D01*
X109109465Y-55454880D01*
X108914880Y-55649465D01*
X108761995Y-55878273D01*
X108656686Y-56132510D01*
X108603000Y-56402408D01*
X108603000Y-56677592D01*
X108656686Y-56947490D01*
X108761995Y-57201727D01*
X108914880Y-57430535D01*
X109109465Y-57625120D01*
X109338273Y-57778005D01*
X109415515Y-57810000D01*
X109338273Y-57841995D01*
X109109465Y-57994880D01*
X108914880Y-58189465D01*
X108761995Y-58418273D01*
X108656686Y-58672510D01*
X108603000Y-58942408D01*
X108603000Y-59217592D01*
X108656686Y-59487490D01*
X108761995Y-59741727D01*
X108914880Y-59970535D01*
X109109465Y-60165120D01*
X109338273Y-60318005D01*
X109415515Y-60350000D01*
X109338273Y-60381995D01*
X109109465Y-60534880D01*
X108914880Y-60729465D01*
X108761995Y-60958273D01*
X108656686Y-61212510D01*
X108603000Y-61482408D01*
X108603000Y-61757592D01*
X108656686Y-62027490D01*
X108761995Y-62281727D01*
X108914880Y-62510535D01*
X109109465Y-62705120D01*
X109226429Y-62783273D01*
X109029465Y-62914880D01*
X108834880Y-63109465D01*
X108681995Y-63338273D01*
X108576686Y-63592510D01*
X108523000Y-63862408D01*
X108523000Y-64137592D01*
X108576686Y-64407490D01*
X108681995Y-64661727D01*
X108834880Y-64890535D01*
X109029465Y-65085120D01*
X109258273Y-65238005D01*
X109335515Y-65270000D01*
X109258273Y-65301995D01*
X109029465Y-65454880D01*
X108834880Y-65649465D01*
X108681995Y-65878273D01*
X108576686Y-66132510D01*
X108523000Y-66402408D01*
X108523000Y-66677592D01*
X108576686Y-66947490D01*
X108681995Y-67201727D01*
X108834880Y-67430535D01*
X109029465Y-67625120D01*
X109258273Y-67778005D01*
X109335515Y-67810000D01*
X109258273Y-67841995D01*
X109029465Y-67994880D01*
X108834880Y-68189465D01*
X108681995Y-68418273D01*
X108576686Y-68672510D01*
X108523000Y-68942408D01*
X108523000Y-69217592D01*
X108576686Y-69487490D01*
X108681995Y-69741727D01*
X108834880Y-69970535D01*
X109029465Y-70165120D01*
X109258273Y-70318005D01*
X109335515Y-70350000D01*
X109258273Y-70381995D01*
X109029465Y-70534880D01*
X108834880Y-70729465D01*
X108681995Y-70958273D01*
X108576686Y-71212510D01*
X108523000Y-71482408D01*
X108523000Y-71757592D01*
X108576686Y-72027490D01*
X108681995Y-72281727D01*
X108834880Y-72510535D01*
X109029465Y-72705120D01*
X109258273Y-72858005D01*
X109512510Y-72963314D01*
X109782408Y-73017000D01*
X110057592Y-73017000D01*
X110327490Y-72963314D01*
X110581727Y-72858005D01*
X110810535Y-72705120D01*
X111005120Y-72510535D01*
X111158005Y-72281727D01*
X111190000Y-72204485D01*
X111221995Y-72281727D01*
X111374880Y-72510535D01*
X111569465Y-72705120D01*
X111798273Y-72858005D01*
X112052510Y-72963314D01*
X112322408Y-73017000D01*
X112597592Y-73017000D01*
X112867490Y-72963314D01*
X113121727Y-72858005D01*
X113350535Y-72705120D01*
X113545120Y-72510535D01*
X113698005Y-72281727D01*
X113730000Y-72204485D01*
X113761995Y-72281727D01*
X113914880Y-72510535D01*
X114109465Y-72705120D01*
X114338273Y-72858005D01*
X114592510Y-72963314D01*
X114862408Y-73017000D01*
X115137592Y-73017000D01*
X115407490Y-72963314D01*
X115661727Y-72858005D01*
X115890535Y-72705120D01*
X116085120Y-72510535D01*
X116238005Y-72281727D01*
X116270000Y-72204485D01*
X116301995Y-72281727D01*
X116454880Y-72510535D01*
X116649465Y-72705120D01*
X116878273Y-72858005D01*
X117132510Y-72963314D01*
X117402408Y-73017000D01*
X117677592Y-73017000D01*
X117947490Y-72963314D01*
X118201727Y-72858005D01*
X118430535Y-72705120D01*
X118625120Y-72510535D01*
X118778005Y-72281727D01*
X118873000Y-72052390D01*
X118873000Y-73873000D01*
X21127000Y-73873000D01*
X21127000Y-52326655D01*
X26920000Y-52326655D01*
X26920000Y-52673345D01*
X26987636Y-53013373D01*
X27120308Y-53333673D01*
X27312919Y-53621935D01*
X27558065Y-53867081D01*
X27846327Y-54059692D01*
X28166627Y-54192364D01*
X28506655Y-54260000D01*
X28853345Y-54260000D01*
X29193373Y-54192364D01*
X29513673Y-54059692D01*
X29801935Y-53867081D01*
X30047081Y-53621935D01*
X30239692Y-53333673D01*
X30240000Y-53332929D01*
X30240000Y-53398722D01*
X30298029Y-53690451D01*
X30411856Y-53965253D01*
X30577107Y-54212569D01*
X30787431Y-54422893D01*
X31034747Y-54588144D01*
X31309549Y-54701971D01*
X31601278Y-54760000D01*
X31898722Y-54760000D01*
X32190451Y-54701971D01*
X32465253Y-54588144D01*
X32712569Y-54422893D01*
X32922893Y-54212569D01*
X33058245Y-54010000D01*
X36415198Y-54010000D01*
X33489003Y-56936196D01*
X33459999Y-56959999D01*
X33404871Y-57027174D01*
X33365026Y-57075724D01*
X33300703Y-57196063D01*
X33294454Y-57207754D01*
X33250997Y-57351015D01*
X33240000Y-57462668D01*
X33240000Y-57462678D01*
X33237493Y-57488129D01*
X33201971Y-57309549D01*
X33088144Y-57034747D01*
X32922893Y-56787431D01*
X32712569Y-56577107D01*
X32465253Y-56411856D01*
X32190451Y-56298029D01*
X31898722Y-56240000D01*
X31601278Y-56240000D01*
X31309549Y-56298029D01*
X31034747Y-56411856D01*
X30787431Y-56577107D01*
X30577107Y-56787431D01*
X30411856Y-57034747D01*
X30298029Y-57309549D01*
X30240000Y-57601278D01*
X30240000Y-57898722D01*
X30298029Y-58190451D01*
X30411856Y-58465253D01*
X30577107Y-58712569D01*
X30787431Y-58922893D01*
X31034747Y-59088144D01*
X31309549Y-59201971D01*
X31601278Y-59260000D01*
X31898722Y-59260000D01*
X32190451Y-59201971D01*
X32465253Y-59088144D01*
X32712569Y-58922893D01*
X32922893Y-58712569D01*
X33088144Y-58465253D01*
X33201971Y-58190451D01*
X33240000Y-57999268D01*
X33240001Y-69406430D01*
X33236324Y-69443762D01*
X33250998Y-69592747D01*
X33294454Y-69736008D01*
X33365026Y-69868038D01*
X33436201Y-69954764D01*
X33460000Y-69983763D01*
X33488998Y-70007561D01*
X36992439Y-73511003D01*
X37016237Y-73540001D01*
X37045235Y-73563799D01*
X37131961Y-73634974D01*
X37263991Y-73705546D01*
X37407252Y-73749003D01*
X37518905Y-73760000D01*
X37518915Y-73760000D01*
X37556237Y-73763676D01*
X37593560Y-73760000D01*
X83804103Y-73760000D01*
X83841425Y-73763676D01*
X83878747Y-73760000D01*
X83878758Y-73760000D01*
X83990411Y-73749003D01*
X84133672Y-73705546D01*
X84265701Y-73634974D01*
X84381426Y-73540001D01*
X84405229Y-73510997D01*
X86549855Y-71366372D01*
X86703833Y-71397000D01*
X86979017Y-71397000D01*
X87248915Y-71343314D01*
X87503152Y-71238005D01*
X87731960Y-71085120D01*
X87926545Y-70890535D01*
X88079430Y-70661727D01*
X88184739Y-70407490D01*
X88238425Y-70137592D01*
X88238425Y-69862408D01*
X88184739Y-69592510D01*
X88079430Y-69338273D01*
X87926545Y-69109465D01*
X87731960Y-68914880D01*
X87503152Y-68761995D01*
X87248915Y-68656686D01*
X86979017Y-68603000D01*
X86703833Y-68603000D01*
X86433935Y-68656686D01*
X86179698Y-68761995D01*
X85950890Y-68914880D01*
X85756305Y-69109465D01*
X85603420Y-69338273D01*
X85571425Y-69415515D01*
X85539430Y-69338273D01*
X85386545Y-69109465D01*
X85191960Y-68914880D01*
X84963152Y-68761995D01*
X84708915Y-68656686D01*
X84439017Y-68603000D01*
X84163833Y-68603000D01*
X83893935Y-68656686D01*
X83639698Y-68761995D01*
X83410890Y-68914880D01*
X83216305Y-69109465D01*
X83063420Y-69338273D01*
X83031425Y-69415515D01*
X82999430Y-69338273D01*
X82846545Y-69109465D01*
X82651960Y-68914880D01*
X82423152Y-68761995D01*
X82168915Y-68656686D01*
X81899017Y-68603000D01*
X81623833Y-68603000D01*
X81353935Y-68656686D01*
X81099698Y-68761995D01*
X80870890Y-68914880D01*
X80676305Y-69109465D01*
X80523420Y-69338273D01*
X80418111Y-69592510D01*
X80364425Y-69862408D01*
X80364425Y-70137592D01*
X80418111Y-70407490D01*
X80523420Y-70661727D01*
X80676305Y-70890535D01*
X80870890Y-71085120D01*
X81099698Y-71238005D01*
X81353935Y-71343314D01*
X81623833Y-71397000D01*
X81899017Y-71397000D01*
X82168915Y-71343314D01*
X82423152Y-71238005D01*
X82651960Y-71085120D01*
X82846545Y-70890535D01*
X82999430Y-70661727D01*
X83031425Y-70584485D01*
X83063420Y-70661727D01*
X83216305Y-70890535D01*
X83410890Y-71085120D01*
X83639698Y-71238005D01*
X83893935Y-71343314D01*
X84163833Y-71397000D01*
X84369624Y-71397000D01*
X83526624Y-72240000D01*
X37871040Y-72240000D01*
X36852095Y-71221055D01*
X37055535Y-71085120D01*
X37250120Y-70890535D01*
X37403005Y-70661727D01*
X37435000Y-70584485D01*
X37466995Y-70661727D01*
X37619880Y-70890535D01*
X37814465Y-71085120D01*
X38043273Y-71238005D01*
X38297510Y-71343314D01*
X38567408Y-71397000D01*
X38842592Y-71397000D01*
X39112490Y-71343314D01*
X39366727Y-71238005D01*
X39595535Y-71085120D01*
X39790120Y-70890535D01*
X39943005Y-70661727D01*
X39975000Y-70584485D01*
X40006995Y-70661727D01*
X40159880Y-70890535D01*
X40354465Y-71085120D01*
X40583273Y-71238005D01*
X40837510Y-71343314D01*
X41107408Y-71397000D01*
X41382592Y-71397000D01*
X41652490Y-71343314D01*
X41906727Y-71238005D01*
X42135535Y-71085120D01*
X42330120Y-70890535D01*
X42483005Y-70661727D01*
X42588314Y-70407490D01*
X42642000Y-70137592D01*
X42642000Y-69862408D01*
X43887285Y-69862408D01*
X43887285Y-70137592D01*
X43940971Y-70407490D01*
X44046280Y-70661727D01*
X44199165Y-70890535D01*
X44393750Y-71085120D01*
X44622558Y-71238005D01*
X44876795Y-71343314D01*
X45146693Y-71397000D01*
X45421877Y-71397000D01*
X45691775Y-71343314D01*
X45946012Y-71238005D01*
X46174820Y-71085120D01*
X46369405Y-70890535D01*
X46522290Y-70661727D01*
X46554285Y-70584485D01*
X46586280Y-70661727D01*
X46739165Y-70890535D01*
X46933750Y-71085120D01*
X47162558Y-71238005D01*
X47416795Y-71343314D01*
X47686693Y-71397000D01*
X47961877Y-71397000D01*
X48231775Y-71343314D01*
X48486012Y-71238005D01*
X48714820Y-71085120D01*
X48909405Y-70890535D01*
X49062290Y-70661727D01*
X49094285Y-70584485D01*
X49126280Y-70661727D01*
X49279165Y-70890535D01*
X49473750Y-71085120D01*
X49702558Y-71238005D01*
X49956795Y-71343314D01*
X50226693Y-71397000D01*
X50501877Y-71397000D01*
X50771775Y-71343314D01*
X51026012Y-71238005D01*
X51254820Y-71085120D01*
X51449405Y-70890535D01*
X51602290Y-70661727D01*
X51707599Y-70407490D01*
X51761285Y-70137592D01*
X51761285Y-69862408D01*
X51707599Y-69592510D01*
X51602290Y-69338273D01*
X51449405Y-69109465D01*
X51254820Y-68914880D01*
X51026012Y-68761995D01*
X50771775Y-68656686D01*
X50501877Y-68603000D01*
X50226693Y-68603000D01*
X49956795Y-68656686D01*
X49702558Y-68761995D01*
X49473750Y-68914880D01*
X49279165Y-69109465D01*
X49126280Y-69338273D01*
X49094285Y-69415515D01*
X49062290Y-69338273D01*
X48909405Y-69109465D01*
X48714820Y-68914880D01*
X48486012Y-68761995D01*
X48231775Y-68656686D01*
X47961877Y-68603000D01*
X47686693Y-68603000D01*
X47416795Y-68656686D01*
X47162558Y-68761995D01*
X46933750Y-68914880D01*
X46739165Y-69109465D01*
X46586280Y-69338273D01*
X46554285Y-69415515D01*
X46522290Y-69338273D01*
X46369405Y-69109465D01*
X46174820Y-68914880D01*
X45946012Y-68761995D01*
X45691775Y-68656686D01*
X45421877Y-68603000D01*
X45146693Y-68603000D01*
X44876795Y-68656686D01*
X44622558Y-68761995D01*
X44393750Y-68914880D01*
X44199165Y-69109465D01*
X44046280Y-69338273D01*
X43940971Y-69592510D01*
X43887285Y-69862408D01*
X42642000Y-69862408D01*
X42611372Y-69708430D01*
X44511003Y-67808799D01*
X44540001Y-67785001D01*
X44634974Y-67669276D01*
X44705546Y-67537247D01*
X44749003Y-67393986D01*
X44760000Y-67282333D01*
X44760000Y-67282324D01*
X44763676Y-67245001D01*
X44760000Y-67207678D01*
X44760000Y-57703711D01*
X44803937Y-57659774D01*
X44917205Y-57490256D01*
X44995226Y-57301898D01*
X45035000Y-57101939D01*
X45035000Y-56898061D01*
X44995226Y-56698102D01*
X44917205Y-56509744D01*
X44803937Y-56340226D01*
X44659774Y-56196063D01*
X44490256Y-56082795D01*
X44301898Y-56004774D01*
X44101939Y-55965000D01*
X43898061Y-55965000D01*
X43698102Y-56004774D01*
X43509744Y-56082795D01*
X43340226Y-56196063D01*
X43196063Y-56340226D01*
X43082795Y-56509744D01*
X43004774Y-56698102D01*
X42965000Y-56898061D01*
X42965000Y-57101939D01*
X43004774Y-57301898D01*
X43082795Y-57490256D01*
X43196063Y-57659774D01*
X43240000Y-57703711D01*
X43240001Y-66930197D01*
X41536570Y-68633628D01*
X41382592Y-68603000D01*
X41107408Y-68603000D01*
X40837510Y-68656686D01*
X40583273Y-68761995D01*
X40354465Y-68914880D01*
X40159880Y-69109465D01*
X40006995Y-69338273D01*
X39975000Y-69415515D01*
X39943005Y-69338273D01*
X39790120Y-69109465D01*
X39595535Y-68914880D01*
X39366727Y-68761995D01*
X39112490Y-68656686D01*
X38842592Y-68603000D01*
X38567408Y-68603000D01*
X38297510Y-68656686D01*
X38043273Y-68761995D01*
X37814465Y-68914880D01*
X37619880Y-69109465D01*
X37466995Y-69338273D01*
X37435000Y-69415515D01*
X37403005Y-69338273D01*
X37250120Y-69109465D01*
X37055535Y-68914880D01*
X36826727Y-68761995D01*
X36572490Y-68656686D01*
X36302592Y-68603000D01*
X36027408Y-68603000D01*
X35757510Y-68656686D01*
X35503273Y-68761995D01*
X35274465Y-68914880D01*
X35079880Y-69109465D01*
X34943945Y-69312906D01*
X34760000Y-69128961D01*
X34760000Y-57814801D01*
X34973523Y-57601278D01*
X36740000Y-57601278D01*
X36740000Y-57898722D01*
X36798029Y-58190451D01*
X36911856Y-58465253D01*
X37077107Y-58712569D01*
X37287431Y-58922893D01*
X37534747Y-59088144D01*
X37809549Y-59201971D01*
X38101278Y-59260000D01*
X38398722Y-59260000D01*
X38690451Y-59201971D01*
X38965253Y-59088144D01*
X39212569Y-58922893D01*
X39422893Y-58712569D01*
X39588144Y-58465253D01*
X39701971Y-58190451D01*
X39760000Y-57898722D01*
X39760000Y-57601278D01*
X39701971Y-57309549D01*
X39588144Y-57034747D01*
X39422893Y-56787431D01*
X39212569Y-56577107D01*
X38965253Y-56411856D01*
X38690451Y-56298029D01*
X38398722Y-56240000D01*
X38101278Y-56240000D01*
X37809549Y-56298029D01*
X37534747Y-56411856D01*
X37287431Y-56577107D01*
X37077107Y-56787431D01*
X36911856Y-57034747D01*
X36798029Y-57309549D01*
X36740000Y-57601278D01*
X34973523Y-57601278D01*
X37862332Y-54712470D01*
X38101278Y-54760000D01*
X38398722Y-54760000D01*
X38690451Y-54701971D01*
X38965253Y-54588144D01*
X39212569Y-54422893D01*
X39422893Y-54212569D01*
X39588144Y-53965253D01*
X39701971Y-53690451D01*
X39760000Y-53398722D01*
X39760000Y-53332929D01*
X39760308Y-53333673D01*
X39952919Y-53621935D01*
X40198065Y-53867081D01*
X40486327Y-54059692D01*
X40806627Y-54192364D01*
X41146655Y-54260000D01*
X41493345Y-54260000D01*
X41833373Y-54192364D01*
X42153673Y-54059692D01*
X42441935Y-53867081D01*
X42687081Y-53621935D01*
X42879692Y-53333673D01*
X43012364Y-53013373D01*
X43080000Y-52673345D01*
X43080000Y-52326655D01*
X43012364Y-51986627D01*
X42879692Y-51666327D01*
X42687081Y-51378065D01*
X42441935Y-51132919D01*
X42312212Y-51046240D01*
X42883365Y-51046240D01*
X42964025Y-51297868D01*
X43232329Y-51426267D01*
X43520526Y-51499855D01*
X43817543Y-51515804D01*
X44111963Y-51473501D01*
X44392474Y-51374572D01*
X44535975Y-51297868D01*
X44616635Y-51046240D01*
X43750000Y-50179605D01*
X42883365Y-51046240D01*
X42312212Y-51046240D01*
X42153673Y-50940308D01*
X41833373Y-50807636D01*
X41493345Y-50740000D01*
X41146655Y-50740000D01*
X40806627Y-50807636D01*
X40486327Y-50940308D01*
X40198065Y-51132919D01*
X39952919Y-51378065D01*
X39760308Y-51666327D01*
X39627636Y-51986627D01*
X39560000Y-52326655D01*
X39560000Y-52492626D01*
X39422893Y-52287431D01*
X39212569Y-52077107D01*
X38965253Y-51911856D01*
X38690451Y-51798029D01*
X38398722Y-51740000D01*
X38101278Y-51740000D01*
X37809549Y-51798029D01*
X37534747Y-51911856D01*
X37287431Y-52077107D01*
X37077107Y-52287431D01*
X36941755Y-52490000D01*
X33058245Y-52490000D01*
X32922893Y-52287431D01*
X32712569Y-52077107D01*
X32465253Y-51911856D01*
X32190451Y-51798029D01*
X31898722Y-51740000D01*
X31601278Y-51740000D01*
X31309549Y-51798029D01*
X31034747Y-51911856D01*
X30787431Y-52077107D01*
X30577107Y-52287431D01*
X30440000Y-52492626D01*
X30440000Y-52326655D01*
X30372364Y-51986627D01*
X30239692Y-51666327D01*
X30047081Y-51378065D01*
X29801935Y-51132919D01*
X29513673Y-50940308D01*
X29193373Y-50807636D01*
X28853345Y-50740000D01*
X28506655Y-50740000D01*
X28166627Y-50807636D01*
X27846327Y-50940308D01*
X27558065Y-51132919D01*
X27312919Y-51378065D01*
X27120308Y-51666327D01*
X26987636Y-51986627D01*
X26920000Y-52326655D01*
X21127000Y-52326655D01*
X21127000Y-50067543D01*
X42234196Y-50067543D01*
X42276499Y-50361963D01*
X42375428Y-50642474D01*
X42452132Y-50785975D01*
X42703760Y-50866635D01*
X43570395Y-50000000D01*
X43929605Y-50000000D01*
X44796240Y-50866635D01*
X45047868Y-50785975D01*
X45176267Y-50517671D01*
X45249855Y-50229474D01*
X45265804Y-49932457D01*
X45223501Y-49638037D01*
X45124572Y-49357526D01*
X45047868Y-49214025D01*
X44796240Y-49133365D01*
X43929605Y-50000000D01*
X43570395Y-50000000D01*
X42703760Y-49133365D01*
X42452132Y-49214025D01*
X42323733Y-49482329D01*
X42250145Y-49770526D01*
X42234196Y-50067543D01*
X21127000Y-50067543D01*
X21127000Y-42326655D01*
X26920000Y-42326655D01*
X26920000Y-42673345D01*
X26987636Y-43013373D01*
X27120308Y-43333673D01*
X27312919Y-43621935D01*
X27558065Y-43867081D01*
X27846327Y-44059692D01*
X28166627Y-44192364D01*
X28506655Y-44260000D01*
X28853345Y-44260000D01*
X29193373Y-44192364D01*
X29513673Y-44059692D01*
X29801935Y-43867081D01*
X30047081Y-43621935D01*
X30239692Y-43333673D01*
X30372364Y-43013373D01*
X30440000Y-42673345D01*
X30440000Y-42326655D01*
X30372364Y-41986627D01*
X30239692Y-41666327D01*
X30047081Y-41378065D01*
X29801935Y-41132919D01*
X29513673Y-40940308D01*
X29193373Y-40807636D01*
X28853345Y-40740000D01*
X28506655Y-40740000D01*
X28166627Y-40807636D01*
X27846327Y-40940308D01*
X27558065Y-41132919D01*
X27312919Y-41378065D01*
X27120308Y-41666327D01*
X26987636Y-41986627D01*
X26920000Y-42326655D01*
X21127000Y-42326655D01*
X21127000Y-39796240D01*
X31633365Y-39796240D01*
X31714025Y-40047868D01*
X31982329Y-40176267D01*
X32270526Y-40249855D01*
X32567543Y-40265804D01*
X32861963Y-40223501D01*
X33142474Y-40124572D01*
X33285975Y-40047868D01*
X33366635Y-39796240D01*
X32500000Y-38929605D01*
X31633365Y-39796240D01*
X21127000Y-39796240D01*
X21127000Y-38817543D01*
X30984196Y-38817543D01*
X31026499Y-39111963D01*
X31125428Y-39392474D01*
X31202132Y-39535975D01*
X31453760Y-39616635D01*
X32320395Y-38750000D01*
X31453760Y-37883365D01*
X31202132Y-37964025D01*
X31073733Y-38232329D01*
X31000145Y-38520526D01*
X30984196Y-38817543D01*
X21127000Y-38817543D01*
X21127000Y-37703760D01*
X31633365Y-37703760D01*
X32500000Y-38570395D01*
X33366635Y-37703760D01*
X33285975Y-37452132D01*
X33017671Y-37323733D01*
X32729474Y-37250145D01*
X32432457Y-37234196D01*
X32138037Y-37276499D01*
X31857526Y-37375428D01*
X31714025Y-37452132D01*
X31633365Y-37703760D01*
X21127000Y-37703760D01*
X21127000Y-33503882D01*
X30595723Y-33503882D01*
X30648832Y-33732321D01*
X30878347Y-33837985D01*
X31124066Y-33896843D01*
X31376546Y-33906631D01*
X31626084Y-33866975D01*
X31863092Y-33779399D01*
X31951168Y-33732321D01*
X32004277Y-33503882D01*
X31300000Y-32799605D01*
X30595723Y-33503882D01*
X21127000Y-33503882D01*
X21127000Y-32696546D01*
X30013369Y-32696546D01*
X30053025Y-32946084D01*
X30140601Y-33183092D01*
X30187679Y-33271168D01*
X30416118Y-33324277D01*
X31120395Y-32620000D01*
X31479605Y-32620000D01*
X32183882Y-33324277D01*
X32412321Y-33271168D01*
X32517985Y-33041653D01*
X32571556Y-32818005D01*
X32606594Y-32994150D01*
X32703286Y-33227586D01*
X32843662Y-33437673D01*
X33022327Y-33616338D01*
X33232414Y-33756714D01*
X33465850Y-33853406D01*
X33713665Y-33902700D01*
X33827899Y-33902700D01*
X37196071Y-37270873D01*
X37059549Y-37298029D01*
X36784747Y-37411856D01*
X36537431Y-37577107D01*
X36327107Y-37787431D01*
X36250000Y-37902830D01*
X36172893Y-37787431D01*
X35962569Y-37577107D01*
X35715253Y-37411856D01*
X35440451Y-37298029D01*
X35148722Y-37240000D01*
X34851278Y-37240000D01*
X34559549Y-37298029D01*
X34284747Y-37411856D01*
X34037431Y-37577107D01*
X33827107Y-37787431D01*
X33724768Y-37940593D01*
X33546240Y-37883365D01*
X32679605Y-38750000D01*
X33546240Y-39616635D01*
X33724768Y-39559407D01*
X33827107Y-39712569D01*
X34037431Y-39922893D01*
X34284747Y-40088144D01*
X34559549Y-40201971D01*
X34851278Y-40260000D01*
X35148722Y-40260000D01*
X35440451Y-40201971D01*
X35715253Y-40088144D01*
X35962569Y-39922893D01*
X36172893Y-39712569D01*
X36250000Y-39597170D01*
X36327107Y-39712569D01*
X36537431Y-39922893D01*
X36784747Y-40088144D01*
X37059549Y-40201971D01*
X37351278Y-40260000D01*
X37648722Y-40260000D01*
X37940451Y-40201971D01*
X38215253Y-40088144D01*
X38462569Y-39922893D01*
X38672893Y-39712569D01*
X38838144Y-39465253D01*
X38951971Y-39190451D01*
X38967289Y-39113445D01*
X39004774Y-39301898D01*
X39082795Y-39490256D01*
X39196063Y-39659774D01*
X39340226Y-39803937D01*
X39509744Y-39917205D01*
X39698102Y-39995226D01*
X39898061Y-40035000D01*
X40101939Y-40035000D01*
X40301898Y-39995226D01*
X40490256Y-39917205D01*
X40659774Y-39803937D01*
X40700000Y-39763711D01*
X40700000Y-40059088D01*
X40696324Y-40096410D01*
X40700000Y-40133732D01*
X40700000Y-40133742D01*
X40710997Y-40245395D01*
X40754454Y-40388656D01*
X40825026Y-40520686D01*
X40864871Y-40569236D01*
X40919999Y-40636411D01*
X40949003Y-40660214D01*
X41048344Y-40759555D01*
X40806627Y-40807636D01*
X40486327Y-40940308D01*
X40198065Y-41132919D01*
X39952919Y-41378065D01*
X39760308Y-41666327D01*
X39627636Y-41986627D01*
X39560000Y-42326655D01*
X39560000Y-42673345D01*
X39627636Y-43013373D01*
X39760308Y-43333673D01*
X39952919Y-43621935D01*
X40198065Y-43867081D01*
X40486327Y-44059692D01*
X40806627Y-44192364D01*
X41146655Y-44260000D01*
X41493345Y-44260000D01*
X41833373Y-44192364D01*
X42153673Y-44059692D01*
X42441935Y-43867081D01*
X42687081Y-43621935D01*
X42879692Y-43333673D01*
X43012364Y-43013373D01*
X43060445Y-42771656D01*
X43778788Y-43490000D01*
X43601278Y-43490000D01*
X43309549Y-43548029D01*
X43034747Y-43661856D01*
X42787431Y-43827107D01*
X42577107Y-44037431D01*
X42411856Y-44284747D01*
X42298029Y-44559549D01*
X42240000Y-44851278D01*
X42240000Y-45148722D01*
X42298029Y-45440451D01*
X42411856Y-45715253D01*
X42577107Y-45962569D01*
X42787431Y-46172893D01*
X42902830Y-46250000D01*
X42787431Y-46327107D01*
X42577107Y-46537431D01*
X42411856Y-46784747D01*
X42298029Y-47059549D01*
X42240000Y-47351278D01*
X42240000Y-47648722D01*
X42298029Y-47940451D01*
X42411856Y-48215253D01*
X42577107Y-48462569D01*
X42787431Y-48672893D01*
X42940593Y-48775232D01*
X42883365Y-48953760D01*
X43750000Y-49820395D01*
X44616635Y-48953760D01*
X44559407Y-48775232D01*
X44712569Y-48672893D01*
X44922893Y-48462569D01*
X45088144Y-48215253D01*
X45201971Y-47940451D01*
X45260000Y-47648722D01*
X45260000Y-47351278D01*
X45201971Y-47059549D01*
X45088144Y-46784747D01*
X44922893Y-46537431D01*
X44712569Y-46327107D01*
X44597170Y-46250000D01*
X44712569Y-46172893D01*
X44922893Y-45962569D01*
X45088144Y-45715253D01*
X45201971Y-45440451D01*
X45260000Y-45148722D01*
X45260000Y-44971212D01*
X46240001Y-45951213D01*
X46240000Y-59962678D01*
X46236324Y-60000000D01*
X46240000Y-60037322D01*
X46240000Y-60037332D01*
X46250997Y-60148985D01*
X46265278Y-60196063D01*
X46294454Y-60292246D01*
X46365026Y-60424276D01*
X46378301Y-60440451D01*
X46459999Y-60540001D01*
X46489003Y-60563804D01*
X50855494Y-64930297D01*
X50879288Y-64959290D01*
X50908281Y-64983084D01*
X50908285Y-64983088D01*
X50934710Y-65004774D01*
X50995013Y-65054263D01*
X51127042Y-65124835D01*
X51270303Y-65168292D01*
X51381956Y-65179289D01*
X51381965Y-65179289D01*
X51419288Y-65182965D01*
X51456611Y-65179289D01*
X70365330Y-65179289D01*
X70340226Y-65196063D01*
X70296289Y-65240000D01*
X63520892Y-65240000D01*
X63483569Y-65236324D01*
X63446246Y-65240000D01*
X63446237Y-65240000D01*
X63334584Y-65250997D01*
X63191323Y-65294454D01*
X63059294Y-65365026D01*
X62943569Y-65459999D01*
X62919771Y-65488997D01*
X59775141Y-68633628D01*
X59621162Y-68603000D01*
X59345978Y-68603000D01*
X59076080Y-68656686D01*
X58821843Y-68761995D01*
X58593035Y-68914880D01*
X58398450Y-69109465D01*
X58245565Y-69338273D01*
X58213570Y-69415515D01*
X58181575Y-69338273D01*
X58028690Y-69109465D01*
X57834105Y-68914880D01*
X57605297Y-68761995D01*
X57351060Y-68656686D01*
X57081162Y-68603000D01*
X56805978Y-68603000D01*
X56536080Y-68656686D01*
X56281843Y-68761995D01*
X56053035Y-68914880D01*
X55858450Y-69109465D01*
X55705565Y-69338273D01*
X55673570Y-69415515D01*
X55641575Y-69338273D01*
X55488690Y-69109465D01*
X55294105Y-68914880D01*
X55065297Y-68761995D01*
X54811060Y-68656686D01*
X54541162Y-68603000D01*
X54265978Y-68603000D01*
X53996080Y-68656686D01*
X53741843Y-68761995D01*
X53513035Y-68914880D01*
X53318450Y-69109465D01*
X53165565Y-69338273D01*
X53060256Y-69592510D01*
X53006570Y-69862408D01*
X53006570Y-70137592D01*
X53060256Y-70407490D01*
X53165565Y-70661727D01*
X53318450Y-70890535D01*
X53513035Y-71085120D01*
X53741843Y-71238005D01*
X53996080Y-71343314D01*
X54265978Y-71397000D01*
X54541162Y-71397000D01*
X54811060Y-71343314D01*
X55065297Y-71238005D01*
X55294105Y-71085120D01*
X55488690Y-70890535D01*
X55641575Y-70661727D01*
X55673570Y-70584485D01*
X55705565Y-70661727D01*
X55858450Y-70890535D01*
X56053035Y-71085120D01*
X56281843Y-71238005D01*
X56536080Y-71343314D01*
X56805978Y-71397000D01*
X57081162Y-71397000D01*
X57351060Y-71343314D01*
X57605297Y-71238005D01*
X57834105Y-71085120D01*
X58028690Y-70890535D01*
X58181575Y-70661727D01*
X58213570Y-70584485D01*
X58245565Y-70661727D01*
X58398450Y-70890535D01*
X58593035Y-71085120D01*
X58821843Y-71238005D01*
X59076080Y-71343314D01*
X59345978Y-71397000D01*
X59621162Y-71397000D01*
X59891060Y-71343314D01*
X60145297Y-71238005D01*
X60374105Y-71085120D01*
X60568690Y-70890535D01*
X60721575Y-70661727D01*
X60826884Y-70407490D01*
X60880570Y-70137592D01*
X60880570Y-69862408D01*
X62125855Y-69862408D01*
X62125855Y-70137592D01*
X62179541Y-70407490D01*
X62284850Y-70661727D01*
X62437735Y-70890535D01*
X62632320Y-71085120D01*
X62861128Y-71238005D01*
X63115365Y-71343314D01*
X63385263Y-71397000D01*
X63660447Y-71397000D01*
X63930345Y-71343314D01*
X64184582Y-71238005D01*
X64413390Y-71085120D01*
X64607975Y-70890535D01*
X64760860Y-70661727D01*
X64792855Y-70584485D01*
X64824850Y-70661727D01*
X64977735Y-70890535D01*
X65172320Y-71085120D01*
X65401128Y-71238005D01*
X65655365Y-71343314D01*
X65925263Y-71397000D01*
X66200447Y-71397000D01*
X66470345Y-71343314D01*
X66724582Y-71238005D01*
X66953390Y-71085120D01*
X67147975Y-70890535D01*
X67300860Y-70661727D01*
X67332855Y-70584485D01*
X67364850Y-70661727D01*
X67517735Y-70890535D01*
X67712320Y-71085120D01*
X67941128Y-71238005D01*
X68195365Y-71343314D01*
X68465263Y-71397000D01*
X68740447Y-71397000D01*
X69010345Y-71343314D01*
X69264582Y-71238005D01*
X69493390Y-71085120D01*
X69687975Y-70890535D01*
X69840860Y-70661727D01*
X69946169Y-70407490D01*
X69999855Y-70137592D01*
X69999855Y-69862408D01*
X71245140Y-69862408D01*
X71245140Y-70137592D01*
X71298826Y-70407490D01*
X71404135Y-70661727D01*
X71557020Y-70890535D01*
X71751605Y-71085120D01*
X71980413Y-71238005D01*
X72234650Y-71343314D01*
X72504548Y-71397000D01*
X72779732Y-71397000D01*
X73049630Y-71343314D01*
X73303867Y-71238005D01*
X73532675Y-71085120D01*
X73727260Y-70890535D01*
X73880145Y-70661727D01*
X73912140Y-70584485D01*
X73944135Y-70661727D01*
X74097020Y-70890535D01*
X74291605Y-71085120D01*
X74520413Y-71238005D01*
X74774650Y-71343314D01*
X75044548Y-71397000D01*
X75319732Y-71397000D01*
X75589630Y-71343314D01*
X75843867Y-71238005D01*
X76072675Y-71085120D01*
X76267260Y-70890535D01*
X76420145Y-70661727D01*
X76452140Y-70584485D01*
X76484135Y-70661727D01*
X76637020Y-70890535D01*
X76831605Y-71085120D01*
X77060413Y-71238005D01*
X77314650Y-71343314D01*
X77584548Y-71397000D01*
X77859732Y-71397000D01*
X78129630Y-71343314D01*
X78383867Y-71238005D01*
X78612675Y-71085120D01*
X78807260Y-70890535D01*
X78960145Y-70661727D01*
X79065454Y-70407490D01*
X79119140Y-70137592D01*
X79119140Y-69862408D01*
X79065454Y-69592510D01*
X78960145Y-69338273D01*
X78807260Y-69109465D01*
X78612675Y-68914880D01*
X78383867Y-68761995D01*
X78129630Y-68656686D01*
X77859732Y-68603000D01*
X77584548Y-68603000D01*
X77314650Y-68656686D01*
X77060413Y-68761995D01*
X76831605Y-68914880D01*
X76637020Y-69109465D01*
X76484135Y-69338273D01*
X76452140Y-69415515D01*
X76420145Y-69338273D01*
X76267260Y-69109465D01*
X76072675Y-68914880D01*
X75843867Y-68761995D01*
X75589630Y-68656686D01*
X75319732Y-68603000D01*
X75044548Y-68603000D01*
X74774650Y-68656686D01*
X74520413Y-68761995D01*
X74291605Y-68914880D01*
X74097020Y-69109465D01*
X73944135Y-69338273D01*
X73912140Y-69415515D01*
X73880145Y-69338273D01*
X73727260Y-69109465D01*
X73532675Y-68914880D01*
X73303867Y-68761995D01*
X73049630Y-68656686D01*
X72779732Y-68603000D01*
X72504548Y-68603000D01*
X72234650Y-68656686D01*
X71980413Y-68761995D01*
X71751605Y-68914880D01*
X71557020Y-69109465D01*
X71404135Y-69338273D01*
X71298826Y-69592510D01*
X71245140Y-69862408D01*
X69999855Y-69862408D01*
X69946169Y-69592510D01*
X69840860Y-69338273D01*
X69687975Y-69109465D01*
X69493390Y-68914880D01*
X69264582Y-68761995D01*
X69010345Y-68656686D01*
X68740447Y-68603000D01*
X68465263Y-68603000D01*
X68195365Y-68656686D01*
X67941128Y-68761995D01*
X67712320Y-68914880D01*
X67517735Y-69109465D01*
X67364850Y-69338273D01*
X67332855Y-69415515D01*
X67300860Y-69338273D01*
X67147975Y-69109465D01*
X66953390Y-68914880D01*
X66724582Y-68761995D01*
X66470345Y-68656686D01*
X66200447Y-68603000D01*
X65925263Y-68603000D01*
X65655365Y-68656686D01*
X65401128Y-68761995D01*
X65172320Y-68914880D01*
X64977735Y-69109465D01*
X64824850Y-69338273D01*
X64792855Y-69415515D01*
X64760860Y-69338273D01*
X64607975Y-69109465D01*
X64413390Y-68914880D01*
X64184582Y-68761995D01*
X63930345Y-68656686D01*
X63660447Y-68603000D01*
X63385263Y-68603000D01*
X63115365Y-68656686D01*
X62861128Y-68761995D01*
X62632320Y-68914880D01*
X62437735Y-69109465D01*
X62284850Y-69338273D01*
X62179541Y-69592510D01*
X62125855Y-69862408D01*
X60880570Y-69862408D01*
X60849942Y-69708429D01*
X63798372Y-66760000D01*
X70296289Y-66760000D01*
X70340226Y-66803937D01*
X70509744Y-66917205D01*
X70698102Y-66995226D01*
X70898061Y-67035000D01*
X71101939Y-67035000D01*
X71301898Y-66995226D01*
X71490256Y-66917205D01*
X71659774Y-66803937D01*
X71803937Y-66659774D01*
X71917205Y-66490256D01*
X71995226Y-66301898D01*
X72035000Y-66101939D01*
X72035000Y-65898061D01*
X71995226Y-65698102D01*
X71917205Y-65509744D01*
X71803937Y-65340226D01*
X71659774Y-65196063D01*
X71634670Y-65179289D01*
X84985198Y-65179289D01*
X89514338Y-69708430D01*
X89483710Y-69862408D01*
X89483710Y-70137592D01*
X89537396Y-70407490D01*
X89642705Y-70661727D01*
X89795590Y-70890535D01*
X89990175Y-71085120D01*
X90218983Y-71238005D01*
X90473220Y-71343314D01*
X90743118Y-71397000D01*
X91018302Y-71397000D01*
X91288200Y-71343314D01*
X91542437Y-71238005D01*
X91771245Y-71085120D01*
X91965830Y-70890535D01*
X92118715Y-70661727D01*
X92150710Y-70584485D01*
X92182705Y-70661727D01*
X92335590Y-70890535D01*
X92530175Y-71085120D01*
X92758983Y-71238005D01*
X93013220Y-71343314D01*
X93283118Y-71397000D01*
X93558302Y-71397000D01*
X93828200Y-71343314D01*
X94082437Y-71238005D01*
X94311245Y-71085120D01*
X94505830Y-70890535D01*
X94658715Y-70661727D01*
X94690710Y-70584485D01*
X94722705Y-70661727D01*
X94875590Y-70890535D01*
X95070175Y-71085120D01*
X95298983Y-71238005D01*
X95553220Y-71343314D01*
X95823118Y-71397000D01*
X96098302Y-71397000D01*
X96368200Y-71343314D01*
X96622437Y-71238005D01*
X96851245Y-71085120D01*
X97045830Y-70890535D01*
X97198715Y-70661727D01*
X97304024Y-70407490D01*
X97357710Y-70137592D01*
X97357710Y-69862408D01*
X97304024Y-69592510D01*
X97198715Y-69338273D01*
X97045830Y-69109465D01*
X96851245Y-68914880D01*
X96622437Y-68761995D01*
X96368200Y-68656686D01*
X96098302Y-68603000D01*
X95823118Y-68603000D01*
X95553220Y-68656686D01*
X95298983Y-68761995D01*
X95070175Y-68914880D01*
X94875590Y-69109465D01*
X94722705Y-69338273D01*
X94690710Y-69415515D01*
X94658715Y-69338273D01*
X94505830Y-69109465D01*
X94311245Y-68914880D01*
X94082437Y-68761995D01*
X93828200Y-68656686D01*
X93558302Y-68603000D01*
X93283118Y-68603000D01*
X93013220Y-68656686D01*
X92758983Y-68761995D01*
X92530175Y-68914880D01*
X92335590Y-69109465D01*
X92182705Y-69338273D01*
X92150710Y-69415515D01*
X92118715Y-69338273D01*
X91965830Y-69109465D01*
X91771245Y-68914880D01*
X91542437Y-68761995D01*
X91288200Y-68656686D01*
X91018302Y-68603000D01*
X90743118Y-68603000D01*
X90589140Y-68633628D01*
X85863803Y-63908292D01*
X85840000Y-63879288D01*
X85724275Y-63784315D01*
X85592246Y-63713743D01*
X85448985Y-63670286D01*
X85337332Y-63659289D01*
X85337321Y-63659289D01*
X85299999Y-63655613D01*
X85262677Y-63659289D01*
X60378786Y-63659289D01*
X60424276Y-63634974D01*
X60540001Y-63540001D01*
X60563804Y-63510997D01*
X65039802Y-59035000D01*
X65101939Y-59035000D01*
X65301898Y-58995226D01*
X65490256Y-58917205D01*
X65659774Y-58803937D01*
X65803937Y-58659774D01*
X65917205Y-58490256D01*
X65995226Y-58301898D01*
X66035000Y-58101939D01*
X66035000Y-57898061D01*
X65995226Y-57698102D01*
X65917205Y-57509744D01*
X65803937Y-57340226D01*
X65659774Y-57196063D01*
X65490256Y-57082795D01*
X65301898Y-57004774D01*
X65101939Y-56965000D01*
X64898061Y-56965000D01*
X64698102Y-57004774D01*
X64509744Y-57082795D01*
X64340226Y-57196063D01*
X64196063Y-57340226D01*
X64082795Y-57509744D01*
X64004774Y-57698102D01*
X63965000Y-57898061D01*
X63965000Y-57960198D01*
X59685199Y-62240000D01*
X52678405Y-62240000D01*
X52647121Y-62208716D01*
X52477603Y-62095448D01*
X52289245Y-62017427D01*
X52089286Y-61977653D01*
X51885408Y-61977653D01*
X51685449Y-62017427D01*
X51497091Y-62095448D01*
X51327573Y-62208716D01*
X51183410Y-62352879D01*
X51070142Y-62522397D01*
X50992121Y-62710755D01*
X50957850Y-62883048D01*
X47760000Y-59685199D01*
X47760000Y-46834802D01*
X49240001Y-48314804D01*
X49240000Y-59296289D01*
X49196063Y-59340226D01*
X49082795Y-59509744D01*
X49004774Y-59698102D01*
X48965000Y-59898061D01*
X48965000Y-60101939D01*
X49004774Y-60301898D01*
X49082795Y-60490256D01*
X49196063Y-60659774D01*
X49340226Y-60803937D01*
X49509744Y-60917205D01*
X49698102Y-60995226D01*
X49898061Y-61035000D01*
X50101939Y-61035000D01*
X50301898Y-60995226D01*
X50490256Y-60917205D01*
X50659774Y-60803937D01*
X50803937Y-60659774D01*
X50917205Y-60490256D01*
X50995226Y-60301898D01*
X51035000Y-60101939D01*
X51035000Y-59898061D01*
X50995226Y-59698102D01*
X50917205Y-59509744D01*
X50803937Y-59340226D01*
X50760000Y-59296289D01*
X50760000Y-48037322D01*
X50763676Y-47999999D01*
X50760000Y-47962676D01*
X50760000Y-47962667D01*
X50749003Y-47851014D01*
X50705546Y-47707753D01*
X50634974Y-47575724D01*
X50581036Y-47510000D01*
X50563799Y-47488996D01*
X50563795Y-47488992D01*
X50540001Y-47459999D01*
X50511008Y-47436205D01*
X44760000Y-41685199D01*
X44760000Y-40007538D01*
X44898061Y-40035000D01*
X44960199Y-40035000D01*
X48965000Y-44039802D01*
X48965000Y-44101939D01*
X49004774Y-44301898D01*
X49082795Y-44490256D01*
X49196063Y-44659774D01*
X49340226Y-44803937D01*
X49509744Y-44917205D01*
X49698102Y-44995226D01*
X49898061Y-45035000D01*
X50101939Y-45035000D01*
X50301898Y-44995226D01*
X50490256Y-44917205D01*
X50659774Y-44803937D01*
X50803937Y-44659774D01*
X50917205Y-44490256D01*
X50995226Y-44301898D01*
X51035000Y-44101939D01*
X51035000Y-43898061D01*
X50995226Y-43698102D01*
X50917205Y-43509744D01*
X50803937Y-43340226D01*
X50659774Y-43196063D01*
X50490256Y-43082795D01*
X50301898Y-43004774D01*
X50101939Y-42965000D01*
X50039802Y-42965000D01*
X46035000Y-38960199D01*
X46035000Y-38898061D01*
X45995226Y-38698102D01*
X45917205Y-38509744D01*
X45803937Y-38340226D01*
X45659774Y-38196063D01*
X45490256Y-38082795D01*
X45301898Y-38004774D01*
X45101939Y-37965000D01*
X44898061Y-37965000D01*
X44760000Y-37992462D01*
X44760000Y-33654874D01*
X44817673Y-33616338D01*
X44996338Y-33437673D01*
X45136714Y-33227586D01*
X45233406Y-32994150D01*
X45270000Y-32810182D01*
X45306594Y-32994150D01*
X45403286Y-33227586D01*
X45543662Y-33437673D01*
X45722327Y-33616338D01*
X45780001Y-33654874D01*
X45780000Y-36502677D01*
X45776324Y-36540000D01*
X45780000Y-36577322D01*
X45780000Y-36577332D01*
X45790997Y-36688985D01*
X45832868Y-36827017D01*
X45834454Y-36832246D01*
X45905026Y-36964276D01*
X45944871Y-37012826D01*
X45999999Y-37080001D01*
X46029003Y-37103804D01*
X52240001Y-43314803D01*
X52240000Y-58296289D01*
X52196063Y-58340226D01*
X52082795Y-58509744D01*
X52004774Y-58698102D01*
X51965000Y-58898061D01*
X51965000Y-59101939D01*
X52004774Y-59301898D01*
X52082795Y-59490256D01*
X52196063Y-59659774D01*
X52340226Y-59803937D01*
X52509744Y-59917205D01*
X52698102Y-59995226D01*
X52898061Y-60035000D01*
X53101939Y-60035000D01*
X53301898Y-59995226D01*
X53490256Y-59917205D01*
X53659774Y-59803937D01*
X53803937Y-59659774D01*
X53917205Y-59490256D01*
X53995226Y-59301898D01*
X54035000Y-59101939D01*
X54035000Y-58898061D01*
X53995226Y-58698102D01*
X53917205Y-58509744D01*
X53803937Y-58340226D01*
X53760000Y-58296289D01*
X53760000Y-43037332D01*
X53763677Y-43000000D01*
X53749003Y-42851014D01*
X53705546Y-42707753D01*
X53634974Y-42575724D01*
X53563799Y-42488997D01*
X53540001Y-42459999D01*
X53511003Y-42436201D01*
X47300000Y-36225199D01*
X47300000Y-33654874D01*
X47357673Y-33616338D01*
X47536338Y-33437673D01*
X47676714Y-33227586D01*
X47773406Y-32994150D01*
X47794228Y-32889472D01*
X47794228Y-33267700D01*
X47806488Y-33392182D01*
X47842798Y-33511880D01*
X47901763Y-33622194D01*
X47981115Y-33718885D01*
X48077806Y-33798237D01*
X48188120Y-33857202D01*
X48307818Y-33893512D01*
X48320001Y-33894712D01*
X48320000Y-35659961D01*
X48294454Y-35707754D01*
X48250998Y-35851015D01*
X48236324Y-36000000D01*
X48250998Y-36148985D01*
X48294454Y-36292246D01*
X48365026Y-36424276D01*
X48459999Y-36540001D01*
X48489003Y-36563804D01*
X54240001Y-42314804D01*
X54240000Y-51962678D01*
X54236324Y-52000000D01*
X54240000Y-52037322D01*
X54240000Y-52037332D01*
X54250997Y-52148985D01*
X54292993Y-52287431D01*
X54294454Y-52292246D01*
X54365026Y-52424276D01*
X54378301Y-52440451D01*
X54459999Y-52540001D01*
X54489003Y-52563804D01*
X58240001Y-56314803D01*
X58240000Y-58296289D01*
X58196063Y-58340226D01*
X58082795Y-58509744D01*
X58004774Y-58698102D01*
X57965000Y-58898061D01*
X57965000Y-59101939D01*
X58004774Y-59301898D01*
X58082795Y-59490256D01*
X58196063Y-59659774D01*
X58340226Y-59803937D01*
X58509744Y-59917205D01*
X58698102Y-59995226D01*
X58898061Y-60035000D01*
X59101939Y-60035000D01*
X59301898Y-59995226D01*
X59490256Y-59917205D01*
X59659774Y-59803937D01*
X59803937Y-59659774D01*
X59917205Y-59490256D01*
X59995226Y-59301898D01*
X60035000Y-59101939D01*
X60035000Y-58898061D01*
X59995226Y-58698102D01*
X59917205Y-58509744D01*
X59803937Y-58340226D01*
X59760000Y-58296289D01*
X59760000Y-56037322D01*
X59763676Y-55999999D01*
X59760000Y-55962676D01*
X59760000Y-55962667D01*
X59749003Y-55851014D01*
X59705546Y-55707753D01*
X59634974Y-55575724D01*
X59540001Y-55459999D01*
X59511003Y-55436201D01*
X55926080Y-51851278D01*
X65490000Y-51851278D01*
X65490000Y-52148722D01*
X65548029Y-52440451D01*
X65661856Y-52715253D01*
X65827107Y-52962569D01*
X66037431Y-53172893D01*
X66284747Y-53338144D01*
X66559549Y-53451971D01*
X66851278Y-53510000D01*
X67148722Y-53510000D01*
X67440451Y-53451971D01*
X67715253Y-53338144D01*
X67962569Y-53172893D01*
X68172893Y-52962569D01*
X68338144Y-52715253D01*
X68451971Y-52440451D01*
X68510000Y-52148722D01*
X68510000Y-51851278D01*
X68451971Y-51559549D01*
X68338144Y-51284747D01*
X68172893Y-51037431D01*
X67962569Y-50827107D01*
X67715253Y-50661856D01*
X67440451Y-50548029D01*
X67148722Y-50490000D01*
X66851278Y-50490000D01*
X66559549Y-50548029D01*
X66284747Y-50661856D01*
X66037431Y-50827107D01*
X65827107Y-51037431D01*
X65661856Y-51284747D01*
X65548029Y-51559549D01*
X65490000Y-51851278D01*
X55926080Y-51851278D01*
X55760000Y-51685199D01*
X55760000Y-42037322D01*
X55763676Y-41999999D01*
X55760000Y-41962676D01*
X55760000Y-41962667D01*
X55749003Y-41851014D01*
X55705546Y-41707753D01*
X55634974Y-41575724D01*
X55581036Y-41510000D01*
X55563799Y-41488996D01*
X55563795Y-41488992D01*
X55540001Y-41459999D01*
X55511008Y-41436205D01*
X49840000Y-35765199D01*
X49840000Y-33894712D01*
X49852182Y-33893512D01*
X49971880Y-33857202D01*
X50082194Y-33798237D01*
X50178885Y-33718885D01*
X50258237Y-33622194D01*
X50317202Y-33511880D01*
X50353512Y-33392182D01*
X50365772Y-33267700D01*
X50365772Y-31972300D01*
X50353512Y-31847818D01*
X50317202Y-31728120D01*
X50258237Y-31617806D01*
X50178885Y-31521115D01*
X50082194Y-31441763D01*
X49971880Y-31382798D01*
X49852182Y-31346488D01*
X49727700Y-31334228D01*
X48432300Y-31334228D01*
X48307818Y-31346488D01*
X48188120Y-31382798D01*
X48077806Y-31441763D01*
X47981115Y-31521115D01*
X47901763Y-31617806D01*
X47842798Y-31728120D01*
X47806488Y-31847818D01*
X47794228Y-31972300D01*
X47794228Y-32350528D01*
X47773406Y-32245850D01*
X47676714Y-32012414D01*
X47536338Y-31802327D01*
X47357673Y-31623662D01*
X47147586Y-31483286D01*
X46914150Y-31386594D01*
X46666335Y-31337300D01*
X46413665Y-31337300D01*
X46165850Y-31386594D01*
X45932414Y-31483286D01*
X45722327Y-31623662D01*
X45543662Y-31802327D01*
X45403286Y-32012414D01*
X45306594Y-32245850D01*
X45270000Y-32429818D01*
X45233406Y-32245850D01*
X45136714Y-32012414D01*
X44996338Y-31802327D01*
X44817673Y-31623662D01*
X44607586Y-31483286D01*
X44374150Y-31386594D01*
X44126335Y-31337300D01*
X43873665Y-31337300D01*
X43625850Y-31386594D01*
X43392414Y-31483286D01*
X43182327Y-31623662D01*
X43003662Y-31802327D01*
X42863286Y-32012414D01*
X42766594Y-32245850D01*
X42730000Y-32429818D01*
X42693406Y-32245850D01*
X42596714Y-32012414D01*
X42456338Y-31802327D01*
X42277673Y-31623662D01*
X42067586Y-31483286D01*
X41834150Y-31386594D01*
X41586335Y-31337300D01*
X41333665Y-31337300D01*
X41085850Y-31386594D01*
X40852414Y-31483286D01*
X40642327Y-31623662D01*
X40463662Y-31802327D01*
X40323286Y-32012414D01*
X40226594Y-32245850D01*
X40190000Y-32429818D01*
X40153406Y-32245850D01*
X40056714Y-32012414D01*
X39916338Y-31802327D01*
X39737673Y-31623662D01*
X39527586Y-31483286D01*
X39294150Y-31386594D01*
X39046335Y-31337300D01*
X38793665Y-31337300D01*
X38545850Y-31386594D01*
X38312414Y-31483286D01*
X38102327Y-31623662D01*
X37923662Y-31802327D01*
X37783286Y-32012414D01*
X37686594Y-32245850D01*
X37650000Y-32429818D01*
X37613406Y-32245850D01*
X37516714Y-32012414D01*
X37376338Y-31802327D01*
X37197673Y-31623662D01*
X36987586Y-31483286D01*
X36754150Y-31386594D01*
X36506335Y-31337300D01*
X36253665Y-31337300D01*
X36005850Y-31386594D01*
X35772414Y-31483286D01*
X35562327Y-31623662D01*
X35383662Y-31802327D01*
X35243286Y-32012414D01*
X35146594Y-32245850D01*
X35110000Y-32429818D01*
X35073406Y-32245850D01*
X34976714Y-32012414D01*
X34836338Y-31802327D01*
X34657673Y-31623662D01*
X34447586Y-31483286D01*
X34214150Y-31386594D01*
X33966335Y-31337300D01*
X33713665Y-31337300D01*
X33465850Y-31386594D01*
X33232414Y-31483286D01*
X33022327Y-31623662D01*
X32843662Y-31802327D01*
X32703286Y-32012414D01*
X32606594Y-32245850D01*
X32569206Y-32433808D01*
X32546975Y-32293916D01*
X32459399Y-32056908D01*
X32412321Y-31968832D01*
X32183882Y-31915723D01*
X31479605Y-32620000D01*
X31120395Y-32620000D01*
X30416118Y-31915723D01*
X30187679Y-31968832D01*
X30082015Y-32198347D01*
X30023157Y-32444066D01*
X30013369Y-32696546D01*
X21127000Y-32696546D01*
X21127000Y-31736118D01*
X30595723Y-31736118D01*
X31300000Y-32440395D01*
X32004277Y-31736118D01*
X31951168Y-31507679D01*
X31721653Y-31402015D01*
X31475934Y-31343157D01*
X31223454Y-31333369D01*
X30973916Y-31373025D01*
X30736908Y-31460601D01*
X30648832Y-31507679D01*
X30595723Y-31736118D01*
X21127000Y-31736118D01*
X21127000Y-26485807D01*
X21150000Y-26488072D01*
X22850000Y-26488072D01*
X22974482Y-26475812D01*
X23094180Y-26439502D01*
X23204494Y-26380537D01*
X23301185Y-26301185D01*
X23380537Y-26204494D01*
X23439502Y-26094180D01*
X23475812Y-25974482D01*
X23488072Y-25850000D01*
X23488072Y-25760000D01*
X30265126Y-25760000D01*
X30303662Y-25817673D01*
X30482327Y-25996338D01*
X30692414Y-26136714D01*
X30925850Y-26233406D01*
X31173665Y-26282700D01*
X31426335Y-26282700D01*
X31674150Y-26233406D01*
X31907586Y-26136714D01*
X32117673Y-25996338D01*
X32296338Y-25817673D01*
X32436714Y-25607586D01*
X32533406Y-25374150D01*
X32570000Y-25190182D01*
X32606594Y-25374150D01*
X32703286Y-25607586D01*
X32843662Y-25817673D01*
X33022327Y-25996338D01*
X33232414Y-26136714D01*
X33465850Y-26233406D01*
X33713665Y-26282700D01*
X33966335Y-26282700D01*
X34214150Y-26233406D01*
X34447586Y-26136714D01*
X34657673Y-25996338D01*
X34836338Y-25817673D01*
X34976714Y-25607586D01*
X35073406Y-25374150D01*
X35110000Y-25190182D01*
X35146594Y-25374150D01*
X35243286Y-25607586D01*
X35383662Y-25817673D01*
X35562327Y-25996338D01*
X35772414Y-26136714D01*
X36005850Y-26233406D01*
X36253665Y-26282700D01*
X36506335Y-26282700D01*
X36754150Y-26233406D01*
X36987586Y-26136714D01*
X37197673Y-25996338D01*
X37376338Y-25817673D01*
X37516714Y-25607586D01*
X37613406Y-25374150D01*
X37650000Y-25190182D01*
X37686594Y-25374150D01*
X37783286Y-25607586D01*
X37923662Y-25817673D01*
X38102327Y-25996338D01*
X38312414Y-26136714D01*
X38545850Y-26233406D01*
X38793665Y-26282700D01*
X39046335Y-26282700D01*
X39294150Y-26233406D01*
X39527586Y-26136714D01*
X39737673Y-25996338D01*
X39850129Y-25883882D01*
X40755723Y-25883882D01*
X40808832Y-26112321D01*
X41038347Y-26217985D01*
X41284066Y-26276843D01*
X41536546Y-26286631D01*
X41786084Y-26246975D01*
X42023092Y-26159399D01*
X42111168Y-26112321D01*
X42164277Y-25883882D01*
X41460000Y-25179605D01*
X40755723Y-25883882D01*
X39850129Y-25883882D01*
X39916338Y-25817673D01*
X40056714Y-25607586D01*
X40153406Y-25374150D01*
X40190794Y-25186192D01*
X40213025Y-25326084D01*
X40300601Y-25563092D01*
X40347679Y-25651168D01*
X40576118Y-25704277D01*
X41280395Y-25000000D01*
X41639605Y-25000000D01*
X42343882Y-25704277D01*
X42572321Y-25651168D01*
X42677985Y-25421653D01*
X42731556Y-25198005D01*
X42766594Y-25374150D01*
X42863286Y-25607586D01*
X43003662Y-25817673D01*
X43182327Y-25996338D01*
X43392414Y-26136714D01*
X43625850Y-26233406D01*
X43873665Y-26282700D01*
X44126335Y-26282700D01*
X44374150Y-26233406D01*
X44607586Y-26136714D01*
X44817673Y-25996338D01*
X44996338Y-25817673D01*
X45136714Y-25607586D01*
X45233406Y-25374150D01*
X45270000Y-25190182D01*
X45306594Y-25374150D01*
X45403286Y-25607586D01*
X45543662Y-25817673D01*
X45722327Y-25996338D01*
X45932414Y-26136714D01*
X46165850Y-26233406D01*
X46413665Y-26282700D01*
X46666335Y-26282700D01*
X46734366Y-26269168D01*
X46948901Y-26483703D01*
X46972700Y-26512702D01*
X47001698Y-26536500D01*
X47088424Y-26607675D01*
X47220454Y-26678247D01*
X47363715Y-26721704D01*
X47475368Y-26732701D01*
X47475378Y-26732701D01*
X47512701Y-26736377D01*
X47550024Y-26732701D01*
X48433902Y-26732701D01*
X66340120Y-44638920D01*
X66284747Y-44661856D01*
X66037431Y-44827107D01*
X65827107Y-45037431D01*
X65661856Y-45284747D01*
X65548029Y-45559549D01*
X65490000Y-45851278D01*
X65490000Y-46148722D01*
X65548029Y-46440451D01*
X65661856Y-46715253D01*
X65827107Y-46962569D01*
X66037431Y-47172893D01*
X66284747Y-47338144D01*
X66559549Y-47451971D01*
X66851278Y-47510000D01*
X67148722Y-47510000D01*
X67440451Y-47451971D01*
X67715253Y-47338144D01*
X67962569Y-47172893D01*
X68172893Y-46962569D01*
X68338144Y-46715253D01*
X68361080Y-46659880D01*
X72340120Y-50638920D01*
X72284747Y-50661856D01*
X72037431Y-50827107D01*
X71827107Y-51037431D01*
X71661856Y-51284747D01*
X71548029Y-51559549D01*
X71490000Y-51851278D01*
X71490000Y-52148722D01*
X71548029Y-52440451D01*
X71661856Y-52715253D01*
X71827107Y-52962569D01*
X72037431Y-53172893D01*
X72284747Y-53338144D01*
X72559549Y-53451971D01*
X72851278Y-53510000D01*
X73148722Y-53510000D01*
X73440451Y-53451971D01*
X73715253Y-53338144D01*
X73962569Y-53172893D01*
X74172893Y-52962569D01*
X74338144Y-52715253D01*
X74361080Y-52659880D01*
X75704668Y-54003468D01*
X75698102Y-54004774D01*
X75509744Y-54082795D01*
X75340226Y-54196063D01*
X75296289Y-54240000D01*
X73037333Y-54240000D01*
X73000000Y-54236323D01*
X72962667Y-54240000D01*
X72851014Y-54250997D01*
X72707753Y-54294454D01*
X72575724Y-54365026D01*
X72459999Y-54459999D01*
X72436201Y-54488997D01*
X71488998Y-55436201D01*
X71460000Y-55459999D01*
X71436202Y-55488997D01*
X71436201Y-55488998D01*
X71365026Y-55575724D01*
X71294454Y-55707754D01*
X71277393Y-55763999D01*
X71250999Y-55851013D01*
X71250998Y-55851015D01*
X71236324Y-56000000D01*
X71240001Y-56037332D01*
X71240000Y-57037332D01*
X71240001Y-57037342D01*
X71240000Y-60296289D01*
X71196063Y-60340226D01*
X71082795Y-60509744D01*
X71004774Y-60698102D01*
X70965000Y-60898061D01*
X70965000Y-61101939D01*
X71004774Y-61301898D01*
X71082795Y-61490256D01*
X71196063Y-61659774D01*
X71340226Y-61803937D01*
X71509744Y-61917205D01*
X71698102Y-61995226D01*
X71898061Y-62035000D01*
X72101939Y-62035000D01*
X72301898Y-61995226D01*
X72490256Y-61917205D01*
X72659774Y-61803937D01*
X72803937Y-61659774D01*
X72917205Y-61490256D01*
X72995226Y-61301898D01*
X73035000Y-61101939D01*
X73035000Y-60898061D01*
X72995226Y-60698102D01*
X72917205Y-60509744D01*
X72803937Y-60340226D01*
X72760000Y-60296289D01*
X72760000Y-56314801D01*
X73314802Y-55760000D01*
X75296289Y-55760000D01*
X75340226Y-55803937D01*
X75509744Y-55917205D01*
X75698102Y-55995226D01*
X75898061Y-56035000D01*
X76101939Y-56035000D01*
X76301898Y-55995226D01*
X76490256Y-55917205D01*
X76659774Y-55803937D01*
X76803937Y-55659774D01*
X76917205Y-55490256D01*
X76995226Y-55301898D01*
X76996532Y-55295332D01*
X77240001Y-55538801D01*
X77240000Y-61296289D01*
X77196063Y-61340226D01*
X77082795Y-61509744D01*
X77004774Y-61698102D01*
X76965000Y-61898061D01*
X76965000Y-62101939D01*
X77004774Y-62301898D01*
X77082795Y-62490256D01*
X77196063Y-62659774D01*
X77340226Y-62803937D01*
X77509744Y-62917205D01*
X77698102Y-62995226D01*
X77898061Y-63035000D01*
X78101939Y-63035000D01*
X78301898Y-62995226D01*
X78490256Y-62917205D01*
X78659774Y-62803937D01*
X78803937Y-62659774D01*
X78917205Y-62490256D01*
X78995226Y-62301898D01*
X79035000Y-62101939D01*
X79035000Y-61898061D01*
X78995226Y-61698102D01*
X78917205Y-61509744D01*
X78803937Y-61340226D01*
X78760000Y-61296289D01*
X78760000Y-55261321D01*
X78763676Y-55223998D01*
X78760000Y-55186675D01*
X78760000Y-55186665D01*
X78749003Y-55075012D01*
X78705546Y-54931751D01*
X78662391Y-54851014D01*
X78634974Y-54799721D01*
X78563799Y-54712995D01*
X78540001Y-54683997D01*
X78511003Y-54660199D01*
X67882760Y-44031956D01*
X67898061Y-44035000D01*
X68101939Y-44035000D01*
X68301898Y-43995226D01*
X68490256Y-43917205D01*
X68659774Y-43803937D01*
X68703711Y-43760000D01*
X72685199Y-43760000D01*
X73496405Y-44571206D01*
X73440451Y-44548029D01*
X73148722Y-44490000D01*
X72851278Y-44490000D01*
X72559549Y-44548029D01*
X72284747Y-44661856D01*
X72037431Y-44827107D01*
X71827107Y-45037431D01*
X71661856Y-45284747D01*
X71548029Y-45559549D01*
X71490000Y-45851278D01*
X71490000Y-46148722D01*
X71548029Y-46440451D01*
X71661856Y-46715253D01*
X71827107Y-46962569D01*
X72037431Y-47172893D01*
X72284747Y-47338144D01*
X72559549Y-47451971D01*
X72851278Y-47510000D01*
X73148722Y-47510000D01*
X73440451Y-47451971D01*
X73715253Y-47338144D01*
X73962569Y-47172893D01*
X74172893Y-46962569D01*
X74338144Y-46715253D01*
X74451971Y-46440451D01*
X74510000Y-46148722D01*
X74510000Y-45851278D01*
X74451971Y-45559549D01*
X74428794Y-45503595D01*
X98633628Y-69708430D01*
X98603000Y-69862408D01*
X98603000Y-70137592D01*
X98656686Y-70407490D01*
X98761995Y-70661727D01*
X98914880Y-70890535D01*
X99109465Y-71085120D01*
X99338273Y-71238005D01*
X99592510Y-71343314D01*
X99862408Y-71397000D01*
X100137592Y-71397000D01*
X100407490Y-71343314D01*
X100661727Y-71238005D01*
X100890535Y-71085120D01*
X101085120Y-70890535D01*
X101238005Y-70661727D01*
X101270000Y-70584485D01*
X101301995Y-70661727D01*
X101454880Y-70890535D01*
X101649465Y-71085120D01*
X101878273Y-71238005D01*
X102132510Y-71343314D01*
X102402408Y-71397000D01*
X102677592Y-71397000D01*
X102947490Y-71343314D01*
X103201727Y-71238005D01*
X103430535Y-71085120D01*
X103625120Y-70890535D01*
X103778005Y-70661727D01*
X103810000Y-70584485D01*
X103841995Y-70661727D01*
X103994880Y-70890535D01*
X104189465Y-71085120D01*
X104418273Y-71238005D01*
X104672510Y-71343314D01*
X104942408Y-71397000D01*
X105217592Y-71397000D01*
X105487490Y-71343314D01*
X105741727Y-71238005D01*
X105970535Y-71085120D01*
X106165120Y-70890535D01*
X106318005Y-70661727D01*
X106423314Y-70407490D01*
X106477000Y-70137592D01*
X106477000Y-69862408D01*
X106446372Y-69708430D01*
X106711005Y-69443797D01*
X106740002Y-69420000D01*
X106834975Y-69304275D01*
X106905547Y-69172246D01*
X106949004Y-69028985D01*
X106960001Y-68917332D01*
X106960001Y-68917331D01*
X106963678Y-68879999D01*
X106960001Y-68842666D01*
X106960001Y-55237326D01*
X106963677Y-55200001D01*
X106960001Y-55162676D01*
X106960001Y-55162668D01*
X106949004Y-55051015D01*
X106905547Y-54907754D01*
X106834975Y-54775725D01*
X106740002Y-54660000D01*
X106711004Y-54636202D01*
X106462470Y-54387668D01*
X106510000Y-54148722D01*
X106510000Y-53851278D01*
X106451971Y-53559549D01*
X106338144Y-53284747D01*
X106172893Y-53037431D01*
X105962569Y-52827107D01*
X105715253Y-52661856D01*
X105440451Y-52548029D01*
X105148722Y-52490000D01*
X104851278Y-52490000D01*
X104559549Y-52548029D01*
X104284747Y-52661856D01*
X104037431Y-52827107D01*
X103827107Y-53037431D01*
X103691755Y-53240000D01*
X100308245Y-53240000D01*
X100172893Y-53037431D01*
X99962569Y-52827107D01*
X99715253Y-52661856D01*
X99440451Y-52548029D01*
X99148722Y-52490000D01*
X98851278Y-52490000D01*
X98559999Y-52547939D01*
X98559999Y-50514802D01*
X99223523Y-49851278D01*
X108490000Y-49851278D01*
X108490000Y-50148722D01*
X108548029Y-50440451D01*
X108661856Y-50715253D01*
X108827107Y-50962569D01*
X109037431Y-51172893D01*
X109284747Y-51338144D01*
X109559549Y-51451971D01*
X109851278Y-51510000D01*
X110148722Y-51510000D01*
X110440451Y-51451971D01*
X110715253Y-51338144D01*
X110962569Y-51172893D01*
X111172893Y-50962569D01*
X111338144Y-50715253D01*
X111451971Y-50440451D01*
X111510000Y-50148722D01*
X111510000Y-49851278D01*
X114490000Y-49851278D01*
X114490000Y-50148722D01*
X114548029Y-50440451D01*
X114661856Y-50715253D01*
X114827107Y-50962569D01*
X115037431Y-51172893D01*
X115284747Y-51338144D01*
X115559549Y-51451971D01*
X115851278Y-51510000D01*
X116148722Y-51510000D01*
X116440451Y-51451971D01*
X116715253Y-51338144D01*
X116962569Y-51172893D01*
X117172893Y-50962569D01*
X117338144Y-50715253D01*
X117451971Y-50440451D01*
X117510000Y-50148722D01*
X117510000Y-49851278D01*
X117451971Y-49559549D01*
X117338144Y-49284747D01*
X117172893Y-49037431D01*
X116962569Y-48827107D01*
X116715253Y-48661856D01*
X116440451Y-48548029D01*
X116148722Y-48490000D01*
X115851278Y-48490000D01*
X115559549Y-48548029D01*
X115284747Y-48661856D01*
X115037431Y-48827107D01*
X114827107Y-49037431D01*
X114661856Y-49284747D01*
X114548029Y-49559549D01*
X114490000Y-49851278D01*
X111510000Y-49851278D01*
X111451971Y-49559549D01*
X111338144Y-49284747D01*
X111172893Y-49037431D01*
X110962569Y-48827107D01*
X110715253Y-48661856D01*
X110440451Y-48548029D01*
X110148722Y-48490000D01*
X109851278Y-48490000D01*
X109559549Y-48548029D01*
X109284747Y-48661856D01*
X109037431Y-48827107D01*
X108827107Y-49037431D01*
X108661856Y-49284747D01*
X108548029Y-49559549D01*
X108490000Y-49851278D01*
X99223523Y-49851278D01*
X104314802Y-44760000D01*
X108691755Y-44760000D01*
X108827107Y-44962569D01*
X109037431Y-45172893D01*
X109284747Y-45338144D01*
X109559549Y-45451971D01*
X109851278Y-45510000D01*
X110148722Y-45510000D01*
X110440451Y-45451971D01*
X110715253Y-45338144D01*
X110962569Y-45172893D01*
X111172893Y-44962569D01*
X111308245Y-44760000D01*
X114691755Y-44760000D01*
X114827107Y-44962569D01*
X115037431Y-45172893D01*
X115284747Y-45338144D01*
X115559549Y-45451971D01*
X115851278Y-45510000D01*
X116148722Y-45510000D01*
X116440451Y-45451971D01*
X116715253Y-45338144D01*
X116962569Y-45172893D01*
X117172893Y-44962569D01*
X117338144Y-44715253D01*
X117451971Y-44440451D01*
X117510000Y-44148722D01*
X117510000Y-43851278D01*
X117451971Y-43559549D01*
X117338144Y-43284747D01*
X117172893Y-43037431D01*
X116962569Y-42827107D01*
X116715253Y-42661856D01*
X116440451Y-42548029D01*
X116148722Y-42490000D01*
X115851278Y-42490000D01*
X115559549Y-42548029D01*
X115284747Y-42661856D01*
X115037431Y-42827107D01*
X114827107Y-43037431D01*
X114691755Y-43240000D01*
X111308245Y-43240000D01*
X111172893Y-43037431D01*
X110962569Y-42827107D01*
X110715253Y-42661856D01*
X110440451Y-42548029D01*
X110148722Y-42490000D01*
X109851278Y-42490000D01*
X109559549Y-42548029D01*
X109284747Y-42661856D01*
X109037431Y-42827107D01*
X108827107Y-43037431D01*
X108691755Y-43240000D01*
X104610804Y-43240000D01*
X110311003Y-37539801D01*
X110340000Y-37516004D01*
X110434973Y-37400279D01*
X110505545Y-37268250D01*
X110549002Y-37124989D01*
X110559999Y-37013336D01*
X110559999Y-37013328D01*
X110563675Y-36976003D01*
X110559999Y-36938678D01*
X110559999Y-30452061D01*
X110851278Y-30510000D01*
X111148722Y-30510000D01*
X111440451Y-30451971D01*
X111715253Y-30338144D01*
X111962569Y-30172893D01*
X112172893Y-29962569D01*
X112338144Y-29715253D01*
X112451971Y-29440451D01*
X112510000Y-29148722D01*
X112510000Y-28851278D01*
X115490000Y-28851278D01*
X115490000Y-29148722D01*
X115548029Y-29440451D01*
X115661856Y-29715253D01*
X115827107Y-29962569D01*
X116037431Y-30172893D01*
X116284747Y-30338144D01*
X116559549Y-30451971D01*
X116851278Y-30510000D01*
X117148722Y-30510000D01*
X117440451Y-30451971D01*
X117715253Y-30338144D01*
X117962569Y-30172893D01*
X118172893Y-29962569D01*
X118338144Y-29715253D01*
X118451971Y-29440451D01*
X118510000Y-29148722D01*
X118510000Y-28851278D01*
X118451971Y-28559549D01*
X118338144Y-28284747D01*
X118172893Y-28037431D01*
X117962569Y-27827107D01*
X117715253Y-27661856D01*
X117440451Y-27548029D01*
X117148722Y-27490000D01*
X116851278Y-27490000D01*
X116559549Y-27548029D01*
X116284747Y-27661856D01*
X116037431Y-27827107D01*
X115827107Y-28037431D01*
X115661856Y-28284747D01*
X115548029Y-28559549D01*
X115490000Y-28851278D01*
X112510000Y-28851278D01*
X112451971Y-28559549D01*
X112338144Y-28284747D01*
X112172893Y-28037431D01*
X111962569Y-27827107D01*
X111715253Y-27661856D01*
X111440451Y-27548029D01*
X111148722Y-27490000D01*
X110851278Y-27490000D01*
X110559999Y-27547939D01*
X110559999Y-24514802D01*
X110612331Y-24462470D01*
X110851278Y-24510000D01*
X111148722Y-24510000D01*
X111440451Y-24451971D01*
X111715253Y-24338144D01*
X111962569Y-24172893D01*
X112172893Y-23962569D01*
X112308245Y-23760000D01*
X115691755Y-23760000D01*
X115827107Y-23962569D01*
X116037431Y-24172893D01*
X116284747Y-24338144D01*
X116559549Y-24451971D01*
X116851278Y-24510000D01*
X117148722Y-24510000D01*
X117440451Y-24451971D01*
X117715253Y-24338144D01*
X117962569Y-24172893D01*
X118172893Y-23962569D01*
X118338144Y-23715253D01*
X118451971Y-23440451D01*
X118510000Y-23148722D01*
X118510000Y-22851278D01*
X118451971Y-22559549D01*
X118338144Y-22284747D01*
X118172893Y-22037431D01*
X117962569Y-21827107D01*
X117715253Y-21661856D01*
X117440451Y-21548029D01*
X117148722Y-21490000D01*
X116851278Y-21490000D01*
X116559549Y-21548029D01*
X116284747Y-21661856D01*
X116037431Y-21827107D01*
X115827107Y-22037431D01*
X115691755Y-22240000D01*
X112308245Y-22240000D01*
X112172893Y-22037431D01*
X111962569Y-21827107D01*
X111715253Y-21661856D01*
X111440451Y-21548029D01*
X111148722Y-21490000D01*
X110851278Y-21490000D01*
X110559549Y-21548029D01*
X110284747Y-21661856D01*
X110037431Y-21827107D01*
X109827107Y-22037431D01*
X109661856Y-22284747D01*
X109548029Y-22559549D01*
X109490000Y-22851278D01*
X109490000Y-23148722D01*
X109537530Y-23387669D01*
X109288997Y-23636202D01*
X109259999Y-23660000D01*
X109236201Y-23688998D01*
X109236200Y-23688999D01*
X109165025Y-23775725D01*
X109094453Y-23907755D01*
X109050997Y-24051016D01*
X109036323Y-24200001D01*
X109040000Y-24237333D01*
X109039999Y-36661201D01*
X106361080Y-39340120D01*
X106338144Y-39284747D01*
X106172893Y-39037431D01*
X105962569Y-38827107D01*
X105715253Y-38661856D01*
X105440451Y-38548029D01*
X105148722Y-38490000D01*
X104851278Y-38490000D01*
X104559549Y-38548029D01*
X104284747Y-38661856D01*
X104037431Y-38827107D01*
X103827107Y-39037431D01*
X103661856Y-39284747D01*
X103548029Y-39559549D01*
X103490000Y-39851278D01*
X103490000Y-40148722D01*
X103548029Y-40440451D01*
X103661856Y-40715253D01*
X103827107Y-40962569D01*
X104037431Y-41172893D01*
X104284747Y-41338144D01*
X104340120Y-41361080D01*
X95488998Y-50212203D01*
X95460000Y-50236001D01*
X95436202Y-50264999D01*
X95436201Y-50265000D01*
X95365026Y-50351726D01*
X95294454Y-50483756D01*
X95250998Y-50627017D01*
X95236324Y-50776002D01*
X95240001Y-50813334D01*
X95240000Y-55296289D01*
X95196063Y-55340226D01*
X95082795Y-55509744D01*
X95004774Y-55698102D01*
X94965000Y-55898061D01*
X94965000Y-56101939D01*
X95004774Y-56301898D01*
X95082795Y-56490256D01*
X95196063Y-56659774D01*
X95340226Y-56803937D01*
X95509744Y-56917205D01*
X95698102Y-56995226D01*
X95898061Y-57035000D01*
X96101939Y-57035000D01*
X96301898Y-56995226D01*
X96490256Y-56917205D01*
X96659774Y-56803937D01*
X96803937Y-56659774D01*
X96917205Y-56490256D01*
X96995226Y-56301898D01*
X97035000Y-56101939D01*
X97035000Y-55898061D01*
X96995226Y-55698102D01*
X96917205Y-55509744D01*
X96803937Y-55340226D01*
X96760000Y-55296289D01*
X96760000Y-51090803D01*
X97039999Y-50810804D01*
X97040000Y-56762657D01*
X97039999Y-56762667D01*
X97040000Y-57885198D01*
X93960199Y-60965000D01*
X93898061Y-60965000D01*
X93698102Y-61004774D01*
X93509744Y-61082795D01*
X93340226Y-61196063D01*
X93196063Y-61340226D01*
X93082795Y-61509744D01*
X93004774Y-61698102D01*
X92966305Y-61891503D01*
X80926080Y-49851278D01*
X84990000Y-49851278D01*
X84990000Y-50148722D01*
X85048029Y-50440451D01*
X85161856Y-50715253D01*
X85327107Y-50962569D01*
X85537431Y-51172893D01*
X85784747Y-51338144D01*
X86059549Y-51451971D01*
X86351278Y-51510000D01*
X86648722Y-51510000D01*
X86940451Y-51451971D01*
X87215253Y-51338144D01*
X87462569Y-51172893D01*
X87672893Y-50962569D01*
X87838144Y-50715253D01*
X87951971Y-50440451D01*
X88010000Y-50148722D01*
X88010000Y-49851278D01*
X87951971Y-49559549D01*
X87838144Y-49284747D01*
X87672893Y-49037431D01*
X87462569Y-48827107D01*
X87215253Y-48661856D01*
X86940451Y-48548029D01*
X86648722Y-48490000D01*
X86351278Y-48490000D01*
X86059549Y-48548029D01*
X85784747Y-48661856D01*
X85537431Y-48827107D01*
X85327107Y-49037431D01*
X85161856Y-49284747D01*
X85048029Y-49559549D01*
X84990000Y-49851278D01*
X80926080Y-49851278D01*
X79108497Y-48033696D01*
X79301898Y-47995226D01*
X79490256Y-47917205D01*
X79659774Y-47803937D01*
X79803937Y-47659774D01*
X79917205Y-47490256D01*
X79995226Y-47301898D01*
X80035000Y-47101939D01*
X80035000Y-47039801D01*
X82314802Y-44760000D01*
X85191755Y-44760000D01*
X85327107Y-44962569D01*
X85537431Y-45172893D01*
X85784747Y-45338144D01*
X86059549Y-45451971D01*
X86351278Y-45510000D01*
X86648722Y-45510000D01*
X86940451Y-45451971D01*
X87215253Y-45338144D01*
X87462569Y-45172893D01*
X87672893Y-44962569D01*
X87808245Y-44760000D01*
X91191755Y-44760000D01*
X91327107Y-44962569D01*
X91537431Y-45172893D01*
X91784747Y-45338144D01*
X92059549Y-45451971D01*
X92351278Y-45510000D01*
X92648722Y-45510000D01*
X92940451Y-45451971D01*
X93215253Y-45338144D01*
X93240001Y-45321608D01*
X93240000Y-48678392D01*
X93215253Y-48661856D01*
X92940451Y-48548029D01*
X92648722Y-48490000D01*
X92351278Y-48490000D01*
X92059549Y-48548029D01*
X91784747Y-48661856D01*
X91537431Y-48827107D01*
X91327107Y-49037431D01*
X91161856Y-49284747D01*
X91048029Y-49559549D01*
X90990000Y-49851278D01*
X90990000Y-50148722D01*
X91048029Y-50440451D01*
X91161856Y-50715253D01*
X91327107Y-50962569D01*
X91537431Y-51172893D01*
X91784747Y-51338144D01*
X92059549Y-51451971D01*
X92351278Y-51510000D01*
X92648722Y-51510000D01*
X92940451Y-51451971D01*
X93215253Y-51338144D01*
X93240000Y-51321608D01*
X93240000Y-53296289D01*
X93196063Y-53340226D01*
X93082795Y-53509744D01*
X93004774Y-53698102D01*
X92965000Y-53898061D01*
X92965000Y-54101939D01*
X93004774Y-54301898D01*
X93082795Y-54490256D01*
X93196063Y-54659774D01*
X93340226Y-54803937D01*
X93509744Y-54917205D01*
X93698102Y-54995226D01*
X93898061Y-55035000D01*
X94101939Y-55035000D01*
X94301898Y-54995226D01*
X94490256Y-54917205D01*
X94659774Y-54803937D01*
X94803937Y-54659774D01*
X94917205Y-54490256D01*
X94995226Y-54301898D01*
X95035000Y-54101939D01*
X95035000Y-53898061D01*
X94995226Y-53698102D01*
X94917205Y-53509744D01*
X94803937Y-53340226D01*
X94760000Y-53296289D01*
X94760000Y-43538799D01*
X97638920Y-40659880D01*
X97661856Y-40715253D01*
X97827107Y-40962569D01*
X98037431Y-41172893D01*
X98284747Y-41338144D01*
X98559549Y-41451971D01*
X98851278Y-41510000D01*
X99148722Y-41510000D01*
X99440451Y-41451971D01*
X99715253Y-41338144D01*
X99962569Y-41172893D01*
X100172893Y-40962569D01*
X100338144Y-40715253D01*
X100451971Y-40440451D01*
X100510000Y-40148722D01*
X100510000Y-39851278D01*
X100451971Y-39559549D01*
X100338144Y-39284747D01*
X100172893Y-39037431D01*
X99962569Y-38827107D01*
X99715253Y-38661856D01*
X99643582Y-38632169D01*
X99705546Y-38516245D01*
X99749003Y-38372984D01*
X99760000Y-38261331D01*
X99760000Y-38261321D01*
X99763676Y-38223998D01*
X99760000Y-38186675D01*
X99760000Y-35308245D01*
X99962569Y-35172893D01*
X100172893Y-34962569D01*
X100308245Y-34760000D01*
X103691755Y-34760000D01*
X103827107Y-34962569D01*
X104037431Y-35172893D01*
X104284747Y-35338144D01*
X104559549Y-35451971D01*
X104851278Y-35510000D01*
X105148722Y-35510000D01*
X105440451Y-35451971D01*
X105715253Y-35338144D01*
X105962569Y-35172893D01*
X106172893Y-34962569D01*
X106338144Y-34715253D01*
X106451971Y-34440451D01*
X106510000Y-34148722D01*
X106510000Y-33851278D01*
X106451971Y-33559549D01*
X106338144Y-33284747D01*
X106172893Y-33037431D01*
X105962569Y-32827107D01*
X105715253Y-32661856D01*
X105440451Y-32548029D01*
X105148722Y-32490000D01*
X104851278Y-32490000D01*
X104559549Y-32548029D01*
X104284747Y-32661856D01*
X104037431Y-32827107D01*
X103827107Y-33037431D01*
X103691755Y-33240000D01*
X100308245Y-33240000D01*
X100172893Y-33037431D01*
X99962569Y-32827107D01*
X99715253Y-32661856D01*
X99440451Y-32548029D01*
X99148722Y-32490000D01*
X98851278Y-32490000D01*
X98559549Y-32548029D01*
X98284747Y-32661856D01*
X98037431Y-32827107D01*
X97827107Y-33037431D01*
X97661856Y-33284747D01*
X97548029Y-33559549D01*
X97490000Y-33851278D01*
X97490000Y-34148722D01*
X97548029Y-34440451D01*
X97661856Y-34715253D01*
X97827107Y-34962569D01*
X98037431Y-35172893D01*
X98240001Y-35308246D01*
X98240000Y-37909196D01*
X93488998Y-42660199D01*
X93460000Y-42683997D01*
X93436202Y-42712995D01*
X93436201Y-42712996D01*
X93385057Y-42775315D01*
X93215253Y-42661856D01*
X92940451Y-42548029D01*
X92648722Y-42490000D01*
X92351278Y-42490000D01*
X92059549Y-42548029D01*
X91784747Y-42661856D01*
X91537431Y-42827107D01*
X91327107Y-43037431D01*
X91191755Y-43240000D01*
X87808245Y-43240000D01*
X87672893Y-43037431D01*
X87462569Y-42827107D01*
X87215253Y-42661856D01*
X86940451Y-42548029D01*
X86648722Y-42490000D01*
X86351278Y-42490000D01*
X86059549Y-42548029D01*
X85784747Y-42661856D01*
X85537431Y-42827107D01*
X85327107Y-43037431D01*
X85191755Y-43240000D01*
X84007538Y-43240000D01*
X84035000Y-43101939D01*
X84035000Y-42898061D01*
X83995226Y-42698102D01*
X83917205Y-42509744D01*
X83803937Y-42340226D01*
X83760000Y-42296289D01*
X83760000Y-37851278D01*
X85490000Y-37851278D01*
X85490000Y-38148722D01*
X85548029Y-38440451D01*
X85661856Y-38715253D01*
X85827107Y-38962569D01*
X86037431Y-39172893D01*
X86284747Y-39338144D01*
X86559549Y-39451971D01*
X86851278Y-39510000D01*
X87148722Y-39510000D01*
X87440451Y-39451971D01*
X87715253Y-39338144D01*
X87962569Y-39172893D01*
X88172893Y-38962569D01*
X88338144Y-38715253D01*
X88451971Y-38440451D01*
X88510000Y-38148722D01*
X88510000Y-37851278D01*
X91490000Y-37851278D01*
X91490000Y-38148722D01*
X91548029Y-38440451D01*
X91661856Y-38715253D01*
X91827107Y-38962569D01*
X92037431Y-39172893D01*
X92284747Y-39338144D01*
X92559549Y-39451971D01*
X92851278Y-39510000D01*
X93148722Y-39510000D01*
X93440451Y-39451971D01*
X93715253Y-39338144D01*
X93962569Y-39172893D01*
X94172893Y-38962569D01*
X94338144Y-38715253D01*
X94451971Y-38440451D01*
X94510000Y-38148722D01*
X94510000Y-37851278D01*
X94451971Y-37559549D01*
X94338144Y-37284747D01*
X94172893Y-37037431D01*
X93962569Y-36827107D01*
X93715253Y-36661856D01*
X93440451Y-36548029D01*
X93148722Y-36490000D01*
X92851278Y-36490000D01*
X92559549Y-36548029D01*
X92284747Y-36661856D01*
X92037431Y-36827107D01*
X91827107Y-37037431D01*
X91661856Y-37284747D01*
X91548029Y-37559549D01*
X91490000Y-37851278D01*
X88510000Y-37851278D01*
X88451971Y-37559549D01*
X88338144Y-37284747D01*
X88172893Y-37037431D01*
X87962569Y-36827107D01*
X87715253Y-36661856D01*
X87440451Y-36548029D01*
X87148722Y-36490000D01*
X86851278Y-36490000D01*
X86559549Y-36548029D01*
X86284747Y-36661856D01*
X86037431Y-36827107D01*
X85827107Y-37037431D01*
X85661856Y-37284747D01*
X85548029Y-37559549D01*
X85490000Y-37851278D01*
X83760000Y-37851278D01*
X83760000Y-36314801D01*
X86612332Y-33462470D01*
X86851278Y-33510000D01*
X87148722Y-33510000D01*
X87440451Y-33451971D01*
X87715253Y-33338144D01*
X87962569Y-33172893D01*
X88172893Y-32962569D01*
X88308245Y-32760000D01*
X91691755Y-32760000D01*
X91827107Y-32962569D01*
X92037431Y-33172893D01*
X92284747Y-33338144D01*
X92559549Y-33451971D01*
X92851278Y-33510000D01*
X93148722Y-33510000D01*
X93440451Y-33451971D01*
X93715253Y-33338144D01*
X93962569Y-33172893D01*
X94172893Y-32962569D01*
X94338144Y-32715253D01*
X94451971Y-32440451D01*
X94510000Y-32148722D01*
X94510000Y-31851278D01*
X94451971Y-31559549D01*
X94338144Y-31284747D01*
X94172893Y-31037431D01*
X93962569Y-30827107D01*
X93715253Y-30661856D01*
X93440451Y-30548029D01*
X93148722Y-30490000D01*
X92851278Y-30490000D01*
X92559549Y-30548029D01*
X92284747Y-30661856D01*
X92037431Y-30827107D01*
X91827107Y-31037431D01*
X91691755Y-31240000D01*
X88308245Y-31240000D01*
X88172893Y-31037431D01*
X87962569Y-30827107D01*
X87715253Y-30661856D01*
X87440451Y-30548029D01*
X87148722Y-30490000D01*
X86851278Y-30490000D01*
X86559549Y-30548029D01*
X86284747Y-30661856D01*
X86037431Y-30827107D01*
X85827107Y-31037431D01*
X85661856Y-31284747D01*
X85548029Y-31559549D01*
X85490000Y-31851278D01*
X85490000Y-32148722D01*
X85537530Y-32387668D01*
X82488998Y-35436201D01*
X82460000Y-35459999D01*
X82436202Y-35488997D01*
X82436201Y-35488998D01*
X82365026Y-35575724D01*
X82294454Y-35707754D01*
X82269203Y-35790998D01*
X82250998Y-35851014D01*
X82240526Y-35957333D01*
X82236324Y-36000000D01*
X82240001Y-36037332D01*
X82240000Y-42296289D01*
X82196063Y-42340226D01*
X82082795Y-42509744D01*
X82004774Y-42698102D01*
X81965000Y-42898061D01*
X81965000Y-43101939D01*
X81991890Y-43237123D01*
X81962675Y-43240000D01*
X81962667Y-43240000D01*
X81851014Y-43250997D01*
X81707753Y-43294454D01*
X81575724Y-43365026D01*
X81459999Y-43459999D01*
X81436201Y-43488997D01*
X78960199Y-45965000D01*
X78898061Y-45965000D01*
X78698102Y-46004774D01*
X78509744Y-46082795D01*
X78340226Y-46196063D01*
X78196063Y-46340226D01*
X78082795Y-46509744D01*
X78004774Y-46698102D01*
X77966304Y-46891503D01*
X73563804Y-42489003D01*
X73540001Y-42459999D01*
X73424276Y-42365026D01*
X73292247Y-42294454D01*
X73148986Y-42250997D01*
X73037333Y-42240000D01*
X73037322Y-42240000D01*
X73000000Y-42236324D01*
X72962678Y-42240000D01*
X68703711Y-42240000D01*
X68659774Y-42196063D01*
X68490256Y-42082795D01*
X68301898Y-42004774D01*
X68101939Y-41965000D01*
X67898061Y-41965000D01*
X67698102Y-42004774D01*
X67509744Y-42082795D01*
X67340226Y-42196063D01*
X67196063Y-42340226D01*
X67082795Y-42509744D01*
X67004774Y-42698102D01*
X66965000Y-42898061D01*
X66965000Y-43101939D01*
X66968044Y-43117240D01*
X62850239Y-38999436D01*
X63003411Y-38935990D01*
X63246632Y-38773475D01*
X63453475Y-38566632D01*
X63570000Y-38392240D01*
X63686525Y-38566632D01*
X63893368Y-38773475D01*
X64136589Y-38935990D01*
X64406842Y-39047932D01*
X64693740Y-39105000D01*
X64986260Y-39105000D01*
X65273158Y-39047932D01*
X65543411Y-38935990D01*
X65786632Y-38773475D01*
X65993475Y-38566632D01*
X66110000Y-38392240D01*
X66226525Y-38566632D01*
X66433368Y-38773475D01*
X66676589Y-38935990D01*
X66946842Y-39047932D01*
X67233740Y-39105000D01*
X67526260Y-39105000D01*
X67813158Y-39047932D01*
X68083411Y-38935990D01*
X68326632Y-38773475D01*
X68533475Y-38566632D01*
X68650000Y-38392240D01*
X68766525Y-38566632D01*
X68973368Y-38773475D01*
X69216589Y-38935990D01*
X69486842Y-39047932D01*
X69773740Y-39105000D01*
X70066260Y-39105000D01*
X70353158Y-39047932D01*
X70623411Y-38935990D01*
X70866632Y-38773475D01*
X71073475Y-38566632D01*
X71190000Y-38392240D01*
X71306525Y-38566632D01*
X71513368Y-38773475D01*
X71756589Y-38935990D01*
X72026842Y-39047932D01*
X72313740Y-39105000D01*
X72606260Y-39105000D01*
X72893158Y-39047932D01*
X73163411Y-38935990D01*
X73406632Y-38773475D01*
X73613475Y-38566632D01*
X73730000Y-38392240D01*
X73846525Y-38566632D01*
X74053368Y-38773475D01*
X74296589Y-38935990D01*
X74566842Y-39047932D01*
X74853740Y-39105000D01*
X75146260Y-39105000D01*
X75433158Y-39047932D01*
X75703411Y-38935990D01*
X75946632Y-38773475D01*
X76078487Y-38641620D01*
X76100498Y-38714180D01*
X76159463Y-38824494D01*
X76238815Y-38921185D01*
X76335506Y-39000537D01*
X76445820Y-39059502D01*
X76565518Y-39095812D01*
X76690000Y-39108072D01*
X78390000Y-39108072D01*
X78514482Y-39095812D01*
X78634180Y-39059502D01*
X78744494Y-39000537D01*
X78841185Y-38921185D01*
X78920537Y-38824494D01*
X78979502Y-38714180D01*
X79015812Y-38594482D01*
X79028072Y-38470000D01*
X79028072Y-36770000D01*
X79015812Y-36645518D01*
X78979502Y-36525820D01*
X78920537Y-36415506D01*
X78841185Y-36318815D01*
X78744494Y-36239463D01*
X78634180Y-36180498D01*
X78514482Y-36144188D01*
X78390000Y-36131928D01*
X78300000Y-36131928D01*
X78300000Y-31932333D01*
X78303677Y-31895000D01*
X78289003Y-31746014D01*
X78245546Y-31602753D01*
X78174974Y-31470724D01*
X78103799Y-31383997D01*
X78080001Y-31354999D01*
X78051003Y-31331201D01*
X76868000Y-30148199D01*
X76868000Y-29967424D01*
X76824075Y-29746599D01*
X76737913Y-29538587D01*
X76612826Y-29351380D01*
X76453620Y-29192174D01*
X76266413Y-29067087D01*
X76058401Y-28980925D01*
X75837576Y-28937000D01*
X75612424Y-28937000D01*
X75391599Y-28980925D01*
X75183587Y-29067087D01*
X74996380Y-29192174D01*
X74837174Y-29351380D01*
X74712087Y-29538587D01*
X74625925Y-29746599D01*
X74582000Y-29967424D01*
X74582000Y-30152199D01*
X74578000Y-30148199D01*
X74578000Y-29967424D01*
X74534075Y-29746599D01*
X74447913Y-29538587D01*
X74322826Y-29351380D01*
X74163620Y-29192174D01*
X74007828Y-29088077D01*
X74039246Y-29078547D01*
X74171275Y-29007975D01*
X74287000Y-28913002D01*
X74310802Y-28883999D01*
X74511801Y-28683000D01*
X74692576Y-28683000D01*
X74913401Y-28639075D01*
X75121413Y-28552913D01*
X75308620Y-28427826D01*
X75467826Y-28268620D01*
X75592913Y-28081413D01*
X75679075Y-27873401D01*
X75723000Y-27652576D01*
X75723000Y-27427424D01*
X75688167Y-27252307D01*
X79674000Y-27252307D01*
X79674000Y-27827693D01*
X79786253Y-28392024D01*
X80006444Y-28923612D01*
X80326112Y-29402029D01*
X80732971Y-29808888D01*
X81211388Y-30128556D01*
X81742976Y-30348747D01*
X82307307Y-30461000D01*
X82882693Y-30461000D01*
X83447024Y-30348747D01*
X83978612Y-30128556D01*
X84457029Y-29808888D01*
X84863888Y-29402029D01*
X85183556Y-28923612D01*
X85403747Y-28392024D01*
X85516000Y-27827693D01*
X85516000Y-27252307D01*
X85403747Y-26687976D01*
X85183556Y-26156388D01*
X85074185Y-25992702D01*
X89186903Y-25992702D01*
X89258486Y-26236671D01*
X89513996Y-26357571D01*
X89788184Y-26426300D01*
X90070512Y-26440217D01*
X90350130Y-26398787D01*
X90616292Y-26303603D01*
X90741514Y-26236671D01*
X90813097Y-25992702D01*
X90000000Y-25179605D01*
X89186903Y-25992702D01*
X85074185Y-25992702D01*
X84863888Y-25677971D01*
X84457029Y-25271112D01*
X84156810Y-25070512D01*
X88559783Y-25070512D01*
X88601213Y-25350130D01*
X88696397Y-25616292D01*
X88763329Y-25741514D01*
X89007298Y-25813097D01*
X89820395Y-25000000D01*
X90179605Y-25000000D01*
X90992702Y-25813097D01*
X91236671Y-25741514D01*
X91357571Y-25486004D01*
X91426300Y-25211816D01*
X91440217Y-24929488D01*
X91429724Y-24858665D01*
X98725000Y-24858665D01*
X98725000Y-25141335D01*
X98780147Y-25418574D01*
X98888320Y-25679727D01*
X99045363Y-25914759D01*
X99245241Y-26114637D01*
X99480273Y-26271680D01*
X99741426Y-26379853D01*
X100018665Y-26435000D01*
X100301335Y-26435000D01*
X100578574Y-26379853D01*
X100839727Y-26271680D01*
X101074759Y-26114637D01*
X101274637Y-25914759D01*
X101431680Y-25679727D01*
X101539853Y-25418574D01*
X101595000Y-25141335D01*
X101595000Y-24858665D01*
X101539853Y-24581426D01*
X101431680Y-24320273D01*
X101274637Y-24085241D01*
X101074759Y-23885363D01*
X100839727Y-23728320D01*
X100578574Y-23620147D01*
X100301335Y-23565000D01*
X100018665Y-23565000D01*
X99741426Y-23620147D01*
X99480273Y-23728320D01*
X99245241Y-23885363D01*
X99045363Y-24085241D01*
X98888320Y-24320273D01*
X98780147Y-24581426D01*
X98725000Y-24858665D01*
X91429724Y-24858665D01*
X91398787Y-24649870D01*
X91303603Y-24383708D01*
X91236671Y-24258486D01*
X90992702Y-24186903D01*
X90179605Y-25000000D01*
X89820395Y-25000000D01*
X89007298Y-24186903D01*
X88763329Y-24258486D01*
X88642429Y-24513996D01*
X88573700Y-24788184D01*
X88559783Y-25070512D01*
X84156810Y-25070512D01*
X83978612Y-24951444D01*
X83447024Y-24731253D01*
X82882693Y-24619000D01*
X82307307Y-24619000D01*
X81742976Y-24731253D01*
X81211388Y-24951444D01*
X80732971Y-25271112D01*
X80326112Y-25677971D01*
X80006444Y-26156388D01*
X79786253Y-26687976D01*
X79674000Y-27252307D01*
X75688167Y-27252307D01*
X75679075Y-27206599D01*
X75592913Y-26998587D01*
X75467826Y-26811380D01*
X75308620Y-26652174D01*
X75121413Y-26527087D01*
X74913401Y-26440925D01*
X74692576Y-26397000D01*
X74467424Y-26397000D01*
X74246599Y-26440925D01*
X74038587Y-26527087D01*
X73851380Y-26652174D01*
X73692174Y-26811380D01*
X73567087Y-26998587D01*
X73480925Y-27206599D01*
X73437000Y-27427424D01*
X73437000Y-27608199D01*
X73433000Y-27612199D01*
X73433000Y-27427424D01*
X73389075Y-27206599D01*
X73302913Y-26998587D01*
X73177826Y-26811380D01*
X73018620Y-26652174D01*
X72831413Y-26527087D01*
X72623401Y-26440925D01*
X72402576Y-26397000D01*
X72221801Y-26397000D01*
X72020802Y-26196001D01*
X71997000Y-26166998D01*
X71881275Y-26072025D01*
X71749246Y-26001453D01*
X71717828Y-25991923D01*
X71873620Y-25887826D01*
X72032826Y-25728620D01*
X72157913Y-25541413D01*
X72244075Y-25333401D01*
X72288000Y-25112576D01*
X72288000Y-24887424D01*
X72292000Y-24887424D01*
X72292000Y-25112576D01*
X72335925Y-25333401D01*
X72422087Y-25541413D01*
X72547174Y-25728620D01*
X72706380Y-25887826D01*
X72893587Y-26012913D01*
X73101599Y-26099075D01*
X73322424Y-26143000D01*
X73547576Y-26143000D01*
X73768401Y-26099075D01*
X73976413Y-26012913D01*
X74163620Y-25887826D01*
X74322826Y-25728620D01*
X74447913Y-25541413D01*
X74534075Y-25333401D01*
X74578000Y-25112576D01*
X74578000Y-24887424D01*
X74582000Y-24887424D01*
X74582000Y-25112576D01*
X74625925Y-25333401D01*
X74712087Y-25541413D01*
X74837174Y-25728620D01*
X74996380Y-25887826D01*
X75183587Y-26012913D01*
X75391599Y-26099075D01*
X75612424Y-26143000D01*
X75837576Y-26143000D01*
X76058401Y-26099075D01*
X76266413Y-26012913D01*
X76453620Y-25887826D01*
X76612826Y-25728620D01*
X76737913Y-25541413D01*
X76824075Y-25333401D01*
X76868000Y-25112576D01*
X76868000Y-24887424D01*
X76824075Y-24666599D01*
X76737913Y-24458587D01*
X76612826Y-24271380D01*
X76453620Y-24112174D01*
X76296662Y-24007298D01*
X89186903Y-24007298D01*
X90000000Y-24820395D01*
X90813097Y-24007298D01*
X90741514Y-23763329D01*
X90486004Y-23642429D01*
X90211816Y-23573700D01*
X89929488Y-23559783D01*
X89649870Y-23601213D01*
X89383708Y-23696397D01*
X89258486Y-23763329D01*
X89186903Y-24007298D01*
X76296662Y-24007298D01*
X76266413Y-23987087D01*
X76058401Y-23900925D01*
X75837576Y-23857000D01*
X75612424Y-23857000D01*
X75391599Y-23900925D01*
X75183587Y-23987087D01*
X74996380Y-24112174D01*
X74837174Y-24271380D01*
X74712087Y-24458587D01*
X74625925Y-24666599D01*
X74582000Y-24887424D01*
X74578000Y-24887424D01*
X74534075Y-24666599D01*
X74447913Y-24458587D01*
X74322826Y-24271380D01*
X74163620Y-24112174D01*
X73976413Y-23987087D01*
X73768401Y-23900925D01*
X73547576Y-23857000D01*
X73322424Y-23857000D01*
X73101599Y-23900925D01*
X72893587Y-23987087D01*
X72706380Y-24112174D01*
X72547174Y-24271380D01*
X72422087Y-24458587D01*
X72335925Y-24666599D01*
X72292000Y-24887424D01*
X72288000Y-24887424D01*
X72244075Y-24666599D01*
X72157913Y-24458587D01*
X72032826Y-24271380D01*
X71873620Y-24112174D01*
X71686413Y-23987087D01*
X71478401Y-23900925D01*
X71257576Y-23857000D01*
X71032424Y-23857000D01*
X70811599Y-23900925D01*
X70603587Y-23987087D01*
X70416380Y-24112174D01*
X70257174Y-24271380D01*
X70132087Y-24458587D01*
X70045925Y-24666599D01*
X70002000Y-24887424D01*
X70002000Y-25112576D01*
X70045925Y-25333401D01*
X70132087Y-25541413D01*
X70257174Y-25728620D01*
X70416380Y-25887826D01*
X70504939Y-25946999D01*
X69495061Y-25946999D01*
X69583620Y-25887826D01*
X69742826Y-25728620D01*
X69867913Y-25541413D01*
X69954075Y-25333401D01*
X69998000Y-25112576D01*
X69998000Y-24887424D01*
X69954075Y-24666599D01*
X69867913Y-24458587D01*
X69742826Y-24271380D01*
X69583620Y-24112174D01*
X69396413Y-23987087D01*
X69188401Y-23900925D01*
X68967576Y-23857000D01*
X68742424Y-23857000D01*
X68521599Y-23900925D01*
X68313587Y-23987087D01*
X68126380Y-24112174D01*
X67967174Y-24271380D01*
X67842087Y-24458587D01*
X67755925Y-24666599D01*
X67712000Y-24887424D01*
X67712000Y-25112576D01*
X67755925Y-25333401D01*
X67842087Y-25541413D01*
X67967174Y-25728620D01*
X68126380Y-25887826D01*
X68214939Y-25946999D01*
X67141817Y-25946999D01*
X67169292Y-25783897D01*
X66565000Y-25179605D01*
X65960708Y-25783897D01*
X65988183Y-25946999D01*
X63330323Y-25946999D01*
X63293000Y-25943323D01*
X63255677Y-25946999D01*
X63255668Y-25946999D01*
X63144015Y-25957996D01*
X63000754Y-26001453D01*
X62868725Y-26072025D01*
X62868723Y-26072026D01*
X62868724Y-26072026D01*
X62781997Y-26143200D01*
X62781993Y-26143204D01*
X62753000Y-26166998D01*
X62729206Y-26195991D01*
X61788998Y-27136201D01*
X61760000Y-27159999D01*
X61736202Y-27188997D01*
X61736201Y-27188998D01*
X61665026Y-27275724D01*
X61594454Y-27407754D01*
X61579819Y-27456002D01*
X61551904Y-27548029D01*
X61550998Y-27551015D01*
X61536324Y-27700000D01*
X61540001Y-27737332D01*
X61540000Y-36341821D01*
X61353368Y-36466525D01*
X61146525Y-36673368D01*
X60984010Y-36916589D01*
X60920564Y-37069761D01*
X51103110Y-27252307D01*
X55629000Y-27252307D01*
X55629000Y-27827693D01*
X55741253Y-28392024D01*
X55961444Y-28923612D01*
X56281112Y-29402029D01*
X56687971Y-29808888D01*
X57166388Y-30128556D01*
X57697976Y-30348747D01*
X58262307Y-30461000D01*
X58837693Y-30461000D01*
X59402024Y-30348747D01*
X59933612Y-30128556D01*
X60412029Y-29808888D01*
X60818888Y-29402029D01*
X61138556Y-28923612D01*
X61358747Y-28392024D01*
X61471000Y-27827693D01*
X61471000Y-27252307D01*
X61358747Y-26687976D01*
X61138556Y-26156388D01*
X60818888Y-25677971D01*
X60412029Y-25271112D01*
X60129134Y-25082087D01*
X65419407Y-25082087D01*
X65457434Y-25304004D01*
X65538024Y-25514238D01*
X65566869Y-25568204D01*
X65781103Y-25604292D01*
X66385395Y-25000000D01*
X66744605Y-25000000D01*
X67348897Y-25604292D01*
X67563131Y-25568204D01*
X67654803Y-25362561D01*
X67704595Y-25142984D01*
X67710593Y-24917913D01*
X67672566Y-24695996D01*
X67591976Y-24485762D01*
X67563131Y-24431796D01*
X67348897Y-24395708D01*
X66744605Y-25000000D01*
X66385395Y-25000000D01*
X65781103Y-24395708D01*
X65566869Y-24431796D01*
X65475197Y-24637439D01*
X65425405Y-24857016D01*
X65419407Y-25082087D01*
X60129134Y-25082087D01*
X59933612Y-24951444D01*
X59402024Y-24731253D01*
X58837693Y-24619000D01*
X58262307Y-24619000D01*
X57697976Y-24731253D01*
X57166388Y-24951444D01*
X56687971Y-25271112D01*
X56281112Y-25677971D01*
X55961444Y-26156388D01*
X55741253Y-26687976D01*
X55629000Y-27252307D01*
X51103110Y-27252307D01*
X49867381Y-26016578D01*
X49897673Y-25996338D01*
X50076338Y-25817673D01*
X50216714Y-25607586D01*
X50313406Y-25374150D01*
X50362700Y-25126335D01*
X50362700Y-24873665D01*
X50313406Y-24625850D01*
X50216714Y-24392414D01*
X50076338Y-24182327D01*
X49897673Y-24003662D01*
X49687586Y-23863286D01*
X49454150Y-23766594D01*
X49206335Y-23717300D01*
X48953665Y-23717300D01*
X48705850Y-23766594D01*
X48472414Y-23863286D01*
X48262327Y-24003662D01*
X48083662Y-24182327D01*
X47943286Y-24392414D01*
X47846594Y-24625850D01*
X47810000Y-24809818D01*
X47773406Y-24625850D01*
X47676714Y-24392414D01*
X47536338Y-24182327D01*
X47357673Y-24003662D01*
X47147586Y-23863286D01*
X46914150Y-23766594D01*
X46666335Y-23717300D01*
X46413665Y-23717300D01*
X46165850Y-23766594D01*
X45932414Y-23863286D01*
X45722327Y-24003662D01*
X45543662Y-24182327D01*
X45403286Y-24392414D01*
X45306594Y-24625850D01*
X45270000Y-24809818D01*
X45233406Y-24625850D01*
X45136714Y-24392414D01*
X44996338Y-24182327D01*
X44817673Y-24003662D01*
X44607586Y-23863286D01*
X44374150Y-23766594D01*
X44126335Y-23717300D01*
X43873665Y-23717300D01*
X43625850Y-23766594D01*
X43392414Y-23863286D01*
X43182327Y-24003662D01*
X43003662Y-24182327D01*
X42863286Y-24392414D01*
X42766594Y-24625850D01*
X42729206Y-24813808D01*
X42706975Y-24673916D01*
X42619399Y-24436908D01*
X42572321Y-24348832D01*
X42343882Y-24295723D01*
X41639605Y-25000000D01*
X41280395Y-25000000D01*
X40576118Y-24295723D01*
X40347679Y-24348832D01*
X40242015Y-24578347D01*
X40188444Y-24801995D01*
X40153406Y-24625850D01*
X40056714Y-24392414D01*
X39916338Y-24182327D01*
X39850129Y-24116118D01*
X40755723Y-24116118D01*
X41460000Y-24820395D01*
X42164277Y-24116118D01*
X42111168Y-23887679D01*
X41881653Y-23782015D01*
X41635934Y-23723157D01*
X41383454Y-23713369D01*
X41133916Y-23753025D01*
X40896908Y-23840601D01*
X40808832Y-23887679D01*
X40755723Y-24116118D01*
X39850129Y-24116118D01*
X39737673Y-24003662D01*
X39527586Y-23863286D01*
X39294150Y-23766594D01*
X39046335Y-23717300D01*
X38793665Y-23717300D01*
X38545850Y-23766594D01*
X38312414Y-23863286D01*
X38102327Y-24003662D01*
X37923662Y-24182327D01*
X37783286Y-24392414D01*
X37686594Y-24625850D01*
X37650000Y-24809818D01*
X37613406Y-24625850D01*
X37516714Y-24392414D01*
X37376338Y-24182327D01*
X37197673Y-24003662D01*
X36987586Y-23863286D01*
X36754150Y-23766594D01*
X36506335Y-23717300D01*
X36253665Y-23717300D01*
X36005850Y-23766594D01*
X35772414Y-23863286D01*
X35562327Y-24003662D01*
X35383662Y-24182327D01*
X35243286Y-24392414D01*
X35146594Y-24625850D01*
X35110000Y-24809818D01*
X35073406Y-24625850D01*
X34976714Y-24392414D01*
X34836338Y-24182327D01*
X34657673Y-24003662D01*
X34447586Y-23863286D01*
X34214150Y-23766594D01*
X33966335Y-23717300D01*
X33713665Y-23717300D01*
X33465850Y-23766594D01*
X33232414Y-23863286D01*
X33022327Y-24003662D01*
X32843662Y-24182327D01*
X32703286Y-24392414D01*
X32606594Y-24625850D01*
X32570000Y-24809818D01*
X32533406Y-24625850D01*
X32436714Y-24392414D01*
X32296338Y-24182327D01*
X32117673Y-24003662D01*
X31907586Y-23863286D01*
X31674150Y-23766594D01*
X31426335Y-23717300D01*
X31173665Y-23717300D01*
X30925850Y-23766594D01*
X30692414Y-23863286D01*
X30482327Y-24003662D01*
X30303662Y-24182327D01*
X30265126Y-24240000D01*
X23488072Y-24240000D01*
X23488072Y-24150000D01*
X23475812Y-24025518D01*
X23439502Y-23905820D01*
X23380537Y-23795506D01*
X23301185Y-23698815D01*
X23204494Y-23619463D01*
X23094180Y-23560498D01*
X22974482Y-23524188D01*
X22850000Y-23511928D01*
X21150000Y-23511928D01*
X21127000Y-23514193D01*
X21127000Y-21127000D01*
X47612721Y-21127000D01*
X47482148Y-21371285D01*
G37*
X47482148Y-21371285D02*
X47388657Y-21679484D01*
X47357089Y-22000000D01*
X47388657Y-22320516D01*
X47482148Y-22628715D01*
X47633969Y-22912752D01*
X47838286Y-23161714D01*
X48087248Y-23366031D01*
X48371285Y-23517852D01*
X48679484Y-23611343D01*
X48919678Y-23635000D01*
X50322762Y-23635000D01*
X50365001Y-23677239D01*
X50365000Y-25080321D01*
X50388657Y-25320515D01*
X50482148Y-25628714D01*
X50633969Y-25912751D01*
X50838286Y-26161714D01*
X51087248Y-26366031D01*
X51371285Y-26517852D01*
X51679484Y-26611343D01*
X52000000Y-26642911D01*
X52320515Y-26611343D01*
X52628714Y-26517852D01*
X52912751Y-26366031D01*
X53161714Y-26161714D01*
X53366031Y-25912752D01*
X53517852Y-25628715D01*
X53611343Y-25320516D01*
X53635000Y-25080322D01*
X53635000Y-24216103D01*
X65960708Y-24216103D01*
X66565000Y-24820395D01*
X67169292Y-24216103D01*
X67133204Y-24001869D01*
X66927561Y-23910197D01*
X66707984Y-23860405D01*
X66482913Y-23854407D01*
X66260996Y-23892434D01*
X66050762Y-23973024D01*
X65996796Y-24001869D01*
X65960708Y-24216103D01*
X53635000Y-24216103D01*
X53635000Y-23080330D01*
X53642912Y-23000000D01*
X53611343Y-22679483D01*
X53517852Y-22371285D01*
X53453557Y-22250997D01*
X53366031Y-22087248D01*
X53161714Y-21838286D01*
X53099318Y-21787079D01*
X52439238Y-21127000D01*
X118873000Y-21127000D01*
X118873000Y-53374474D01*
X118858005Y-53338273D01*
X118705120Y-53109465D01*
X118510535Y-52914880D01*
X118281727Y-52761995D01*
X118027490Y-52656686D01*
X117757592Y-52603000D01*
X117482408Y-52603000D01*
X117212510Y-52656686D01*
X116958273Y-52761995D01*
X116729465Y-52914880D01*
X116534880Y-53109465D01*
X116381995Y-53338273D01*
X116350000Y-53415515D01*
X116318005Y-53338273D01*
X116165120Y-53109465D01*
X115970535Y-52914880D01*
X115741727Y-52761995D01*
X115487490Y-52656686D01*
X115217592Y-52603000D01*
X114942408Y-52603000D01*
X114672510Y-52656686D01*
X114418273Y-52761995D01*
X114189465Y-52914880D01*
X113994880Y-53109465D01*
X113841995Y-53338273D01*
X113810000Y-53415515D01*
X113778005Y-53338273D01*
X113625120Y-53109465D01*
X113430535Y-52914880D01*
X113201727Y-52761995D01*
X112947490Y-52656686D01*
X112677592Y-52603000D01*
X112402408Y-52603000D01*
X112132510Y-52656686D01*
X111878273Y-52761995D01*
X111649465Y-52914880D01*
X111454880Y-53109465D01*
X111301995Y-53338273D01*
X111270000Y-53415515D01*
X111238005Y-53338273D01*
X111085120Y-53109465D01*
X110890535Y-52914880D01*
X110661727Y-52761995D01*
X110407490Y-52656686D01*
X110137592Y-52603000D01*
X109862408Y-52603000D01*
X109592510Y-52656686D01*
X109338273Y-52761995D01*
X109109465Y-52914880D01*
X108914880Y-53109465D01*
X108761995Y-53338273D01*
X108656686Y-53592510D01*
X108603000Y-53862408D01*
X108603000Y-54137592D01*
X108656686Y-54407490D01*
X108761995Y-54661727D01*
X108914880Y-54890535D01*
X109109465Y-55085120D01*
X109338273Y-55238005D01*
X109415515Y-55270000D01*
X109338273Y-55301995D01*
X109109465Y-55454880D01*
X108914880Y-55649465D01*
X108761995Y-55878273D01*
X108656686Y-56132510D01*
X108603000Y-56402408D01*
X108603000Y-56677592D01*
X108656686Y-56947490D01*
X108761995Y-57201727D01*
X108914880Y-57430535D01*
X109109465Y-57625120D01*
X109338273Y-57778005D01*
X109415515Y-57810000D01*
X109338273Y-57841995D01*
X109109465Y-57994880D01*
X108914880Y-58189465D01*
X108761995Y-58418273D01*
X108656686Y-58672510D01*
X108603000Y-58942408D01*
X108603000Y-59217592D01*
X108656686Y-59487490D01*
X108761995Y-59741727D01*
X108914880Y-59970535D01*
X109109465Y-60165120D01*
X109338273Y-60318005D01*
X109415515Y-60350000D01*
X109338273Y-60381995D01*
X109109465Y-60534880D01*
X108914880Y-60729465D01*
X108761995Y-60958273D01*
X108656686Y-61212510D01*
X108603000Y-61482408D01*
X108603000Y-61757592D01*
X108656686Y-62027490D01*
X108761995Y-62281727D01*
X108914880Y-62510535D01*
X109109465Y-62705120D01*
X109226429Y-62783273D01*
X109029465Y-62914880D01*
X108834880Y-63109465D01*
X108681995Y-63338273D01*
X108576686Y-63592510D01*
X108523000Y-63862408D01*
X108523000Y-64137592D01*
X108576686Y-64407490D01*
X108681995Y-64661727D01*
X108834880Y-64890535D01*
X109029465Y-65085120D01*
X109258273Y-65238005D01*
X109335515Y-65270000D01*
X109258273Y-65301995D01*
X109029465Y-65454880D01*
X108834880Y-65649465D01*
X108681995Y-65878273D01*
X108576686Y-66132510D01*
X108523000Y-66402408D01*
X108523000Y-66677592D01*
X108576686Y-66947490D01*
X108681995Y-67201727D01*
X108834880Y-67430535D01*
X109029465Y-67625120D01*
X109258273Y-67778005D01*
X109335515Y-67810000D01*
X109258273Y-67841995D01*
X109029465Y-67994880D01*
X108834880Y-68189465D01*
X108681995Y-68418273D01*
X108576686Y-68672510D01*
X108523000Y-68942408D01*
X108523000Y-69217592D01*
X108576686Y-69487490D01*
X108681995Y-69741727D01*
X108834880Y-69970535D01*
X109029465Y-70165120D01*
X109258273Y-70318005D01*
X109335515Y-70350000D01*
X109258273Y-70381995D01*
X109029465Y-70534880D01*
X108834880Y-70729465D01*
X108681995Y-70958273D01*
X108576686Y-71212510D01*
X108523000Y-71482408D01*
X108523000Y-71757592D01*
X108576686Y-72027490D01*
X108681995Y-72281727D01*
X108834880Y-72510535D01*
X109029465Y-72705120D01*
X109258273Y-72858005D01*
X109512510Y-72963314D01*
X109782408Y-73017000D01*
X110057592Y-73017000D01*
X110327490Y-72963314D01*
X110581727Y-72858005D01*
X110810535Y-72705120D01*
X111005120Y-72510535D01*
X111158005Y-72281727D01*
X111190000Y-72204485D01*
X111221995Y-72281727D01*
X111374880Y-72510535D01*
X111569465Y-72705120D01*
X111798273Y-72858005D01*
X112052510Y-72963314D01*
X112322408Y-73017000D01*
X112597592Y-73017000D01*
X112867490Y-72963314D01*
X113121727Y-72858005D01*
X113350535Y-72705120D01*
X113545120Y-72510535D01*
X113698005Y-72281727D01*
X113730000Y-72204485D01*
X113761995Y-72281727D01*
X113914880Y-72510535D01*
X114109465Y-72705120D01*
X114338273Y-72858005D01*
X114592510Y-72963314D01*
X114862408Y-73017000D01*
X115137592Y-73017000D01*
X115407490Y-72963314D01*
X115661727Y-72858005D01*
X115890535Y-72705120D01*
X116085120Y-72510535D01*
X116238005Y-72281727D01*
X116270000Y-72204485D01*
X116301995Y-72281727D01*
X116454880Y-72510535D01*
X116649465Y-72705120D01*
X116878273Y-72858005D01*
X117132510Y-72963314D01*
X117402408Y-73017000D01*
X117677592Y-73017000D01*
X117947490Y-72963314D01*
X118201727Y-72858005D01*
X118430535Y-72705120D01*
X118625120Y-72510535D01*
X118778005Y-72281727D01*
X118873000Y-72052390D01*
X118873000Y-73873000D01*
X21127000Y-73873000D01*
X21127000Y-52326655D01*
X26920000Y-52326655D01*
X26920000Y-52673345D01*
X26987636Y-53013373D01*
X27120308Y-53333673D01*
X27312919Y-53621935D01*
X27558065Y-53867081D01*
X27846327Y-54059692D01*
X28166627Y-54192364D01*
X28506655Y-54260000D01*
X28853345Y-54260000D01*
X29193373Y-54192364D01*
X29513673Y-54059692D01*
X29801935Y-53867081D01*
X30047081Y-53621935D01*
X30239692Y-53333673D01*
X30240000Y-53332929D01*
X30240000Y-53398722D01*
X30298029Y-53690451D01*
X30411856Y-53965253D01*
X30577107Y-54212569D01*
X30787431Y-54422893D01*
X31034747Y-54588144D01*
X31309549Y-54701971D01*
X31601278Y-54760000D01*
X31898722Y-54760000D01*
X32190451Y-54701971D01*
X32465253Y-54588144D01*
X32712569Y-54422893D01*
X32922893Y-54212569D01*
X33058245Y-54010000D01*
X36415198Y-54010000D01*
X33489003Y-56936196D01*
X33459999Y-56959999D01*
X33404871Y-57027174D01*
X33365026Y-57075724D01*
X33300703Y-57196063D01*
X33294454Y-57207754D01*
X33250997Y-57351015D01*
X33240000Y-57462668D01*
X33240000Y-57462678D01*
X33237493Y-57488129D01*
X33201971Y-57309549D01*
X33088144Y-57034747D01*
X32922893Y-56787431D01*
X32712569Y-56577107D01*
X32465253Y-56411856D01*
X32190451Y-56298029D01*
X31898722Y-56240000D01*
X31601278Y-56240000D01*
X31309549Y-56298029D01*
X31034747Y-56411856D01*
X30787431Y-56577107D01*
X30577107Y-56787431D01*
X30411856Y-57034747D01*
X30298029Y-57309549D01*
X30240000Y-57601278D01*
X30240000Y-57898722D01*
X30298029Y-58190451D01*
X30411856Y-58465253D01*
X30577107Y-58712569D01*
X30787431Y-58922893D01*
X31034747Y-59088144D01*
X31309549Y-59201971D01*
X31601278Y-59260000D01*
X31898722Y-59260000D01*
X32190451Y-59201971D01*
X32465253Y-59088144D01*
X32712569Y-58922893D01*
X32922893Y-58712569D01*
X33088144Y-58465253D01*
X33201971Y-58190451D01*
X33240000Y-57999268D01*
X33240001Y-69406430D01*
X33236324Y-69443762D01*
X33250998Y-69592747D01*
X33294454Y-69736008D01*
X33365026Y-69868038D01*
X33436201Y-69954764D01*
X33460000Y-69983763D01*
X33488998Y-70007561D01*
X36992439Y-73511003D01*
X37016237Y-73540001D01*
X37045235Y-73563799D01*
X37131961Y-73634974D01*
X37263991Y-73705546D01*
X37407252Y-73749003D01*
X37518905Y-73760000D01*
X37518915Y-73760000D01*
X37556237Y-73763676D01*
X37593560Y-73760000D01*
X83804103Y-73760000D01*
X83841425Y-73763676D01*
X83878747Y-73760000D01*
X83878758Y-73760000D01*
X83990411Y-73749003D01*
X84133672Y-73705546D01*
X84265701Y-73634974D01*
X84381426Y-73540001D01*
X84405229Y-73510997D01*
X86549855Y-71366372D01*
X86703833Y-71397000D01*
X86979017Y-71397000D01*
X87248915Y-71343314D01*
X87503152Y-71238005D01*
X87731960Y-71085120D01*
X87926545Y-70890535D01*
X88079430Y-70661727D01*
X88184739Y-70407490D01*
X88238425Y-70137592D01*
X88238425Y-69862408D01*
X88184739Y-69592510D01*
X88079430Y-69338273D01*
X87926545Y-69109465D01*
X87731960Y-68914880D01*
X87503152Y-68761995D01*
X87248915Y-68656686D01*
X86979017Y-68603000D01*
X86703833Y-68603000D01*
X86433935Y-68656686D01*
X86179698Y-68761995D01*
X85950890Y-68914880D01*
X85756305Y-69109465D01*
X85603420Y-69338273D01*
X85571425Y-69415515D01*
X85539430Y-69338273D01*
X85386545Y-69109465D01*
X85191960Y-68914880D01*
X84963152Y-68761995D01*
X84708915Y-68656686D01*
X84439017Y-68603000D01*
X84163833Y-68603000D01*
X83893935Y-68656686D01*
X83639698Y-68761995D01*
X83410890Y-68914880D01*
X83216305Y-69109465D01*
X83063420Y-69338273D01*
X83031425Y-69415515D01*
X82999430Y-69338273D01*
X82846545Y-69109465D01*
X82651960Y-68914880D01*
X82423152Y-68761995D01*
X82168915Y-68656686D01*
X81899017Y-68603000D01*
X81623833Y-68603000D01*
X81353935Y-68656686D01*
X81099698Y-68761995D01*
X80870890Y-68914880D01*
X80676305Y-69109465D01*
X80523420Y-69338273D01*
X80418111Y-69592510D01*
X80364425Y-69862408D01*
X80364425Y-70137592D01*
X80418111Y-70407490D01*
X80523420Y-70661727D01*
X80676305Y-70890535D01*
X80870890Y-71085120D01*
X81099698Y-71238005D01*
X81353935Y-71343314D01*
X81623833Y-71397000D01*
X81899017Y-71397000D01*
X82168915Y-71343314D01*
X82423152Y-71238005D01*
X82651960Y-71085120D01*
X82846545Y-70890535D01*
X82999430Y-70661727D01*
X83031425Y-70584485D01*
X83063420Y-70661727D01*
X83216305Y-70890535D01*
X83410890Y-71085120D01*
X83639698Y-71238005D01*
X83893935Y-71343314D01*
X84163833Y-71397000D01*
X84369624Y-71397000D01*
X83526624Y-72240000D01*
X37871040Y-72240000D01*
X36852095Y-71221055D01*
X37055535Y-71085120D01*
X37250120Y-70890535D01*
X37403005Y-70661727D01*
X37435000Y-70584485D01*
X37466995Y-70661727D01*
X37619880Y-70890535D01*
X37814465Y-71085120D01*
X38043273Y-71238005D01*
X38297510Y-71343314D01*
X38567408Y-71397000D01*
X38842592Y-71397000D01*
X39112490Y-71343314D01*
X39366727Y-71238005D01*
X39595535Y-71085120D01*
X39790120Y-70890535D01*
X39943005Y-70661727D01*
X39975000Y-70584485D01*
X40006995Y-70661727D01*
X40159880Y-70890535D01*
X40354465Y-71085120D01*
X40583273Y-71238005D01*
X40837510Y-71343314D01*
X41107408Y-71397000D01*
X41382592Y-71397000D01*
X41652490Y-71343314D01*
X41906727Y-71238005D01*
X42135535Y-71085120D01*
X42330120Y-70890535D01*
X42483005Y-70661727D01*
X42588314Y-70407490D01*
X42642000Y-70137592D01*
X42642000Y-69862408D01*
X43887285Y-69862408D01*
X43887285Y-70137592D01*
X43940971Y-70407490D01*
X44046280Y-70661727D01*
X44199165Y-70890535D01*
X44393750Y-71085120D01*
X44622558Y-71238005D01*
X44876795Y-71343314D01*
X45146693Y-71397000D01*
X45421877Y-71397000D01*
X45691775Y-71343314D01*
X45946012Y-71238005D01*
X46174820Y-71085120D01*
X46369405Y-70890535D01*
X46522290Y-70661727D01*
X46554285Y-70584485D01*
X46586280Y-70661727D01*
X46739165Y-70890535D01*
X46933750Y-71085120D01*
X47162558Y-71238005D01*
X47416795Y-71343314D01*
X47686693Y-71397000D01*
X47961877Y-71397000D01*
X48231775Y-71343314D01*
X48486012Y-71238005D01*
X48714820Y-71085120D01*
X48909405Y-70890535D01*
X49062290Y-70661727D01*
X49094285Y-70584485D01*
X49126280Y-70661727D01*
X49279165Y-70890535D01*
X49473750Y-71085120D01*
X49702558Y-71238005D01*
X49956795Y-71343314D01*
X50226693Y-71397000D01*
X50501877Y-71397000D01*
X50771775Y-71343314D01*
X51026012Y-71238005D01*
X51254820Y-71085120D01*
X51449405Y-70890535D01*
X51602290Y-70661727D01*
X51707599Y-70407490D01*
X51761285Y-70137592D01*
X51761285Y-69862408D01*
X51707599Y-69592510D01*
X51602290Y-69338273D01*
X51449405Y-69109465D01*
X51254820Y-68914880D01*
X51026012Y-68761995D01*
X50771775Y-68656686D01*
X50501877Y-68603000D01*
X50226693Y-68603000D01*
X49956795Y-68656686D01*
X49702558Y-68761995D01*
X49473750Y-68914880D01*
X49279165Y-69109465D01*
X49126280Y-69338273D01*
X49094285Y-69415515D01*
X49062290Y-69338273D01*
X48909405Y-69109465D01*
X48714820Y-68914880D01*
X48486012Y-68761995D01*
X48231775Y-68656686D01*
X47961877Y-68603000D01*
X47686693Y-68603000D01*
X47416795Y-68656686D01*
X47162558Y-68761995D01*
X46933750Y-68914880D01*
X46739165Y-69109465D01*
X46586280Y-69338273D01*
X46554285Y-69415515D01*
X46522290Y-69338273D01*
X46369405Y-69109465D01*
X46174820Y-68914880D01*
X45946012Y-68761995D01*
X45691775Y-68656686D01*
X45421877Y-68603000D01*
X45146693Y-68603000D01*
X44876795Y-68656686D01*
X44622558Y-68761995D01*
X44393750Y-68914880D01*
X44199165Y-69109465D01*
X44046280Y-69338273D01*
X43940971Y-69592510D01*
X43887285Y-69862408D01*
X42642000Y-69862408D01*
X42611372Y-69708430D01*
X44511003Y-67808799D01*
X44540001Y-67785001D01*
X44634974Y-67669276D01*
X44705546Y-67537247D01*
X44749003Y-67393986D01*
X44760000Y-67282333D01*
X44760000Y-67282324D01*
X44763676Y-67245001D01*
X44760000Y-67207678D01*
X44760000Y-57703711D01*
X44803937Y-57659774D01*
X44917205Y-57490256D01*
X44995226Y-57301898D01*
X45035000Y-57101939D01*
X45035000Y-56898061D01*
X44995226Y-56698102D01*
X44917205Y-56509744D01*
X44803937Y-56340226D01*
X44659774Y-56196063D01*
X44490256Y-56082795D01*
X44301898Y-56004774D01*
X44101939Y-55965000D01*
X43898061Y-55965000D01*
X43698102Y-56004774D01*
X43509744Y-56082795D01*
X43340226Y-56196063D01*
X43196063Y-56340226D01*
X43082795Y-56509744D01*
X43004774Y-56698102D01*
X42965000Y-56898061D01*
X42965000Y-57101939D01*
X43004774Y-57301898D01*
X43082795Y-57490256D01*
X43196063Y-57659774D01*
X43240000Y-57703711D01*
X43240001Y-66930197D01*
X41536570Y-68633628D01*
X41382592Y-68603000D01*
X41107408Y-68603000D01*
X40837510Y-68656686D01*
X40583273Y-68761995D01*
X40354465Y-68914880D01*
X40159880Y-69109465D01*
X40006995Y-69338273D01*
X39975000Y-69415515D01*
X39943005Y-69338273D01*
X39790120Y-69109465D01*
X39595535Y-68914880D01*
X39366727Y-68761995D01*
X39112490Y-68656686D01*
X38842592Y-68603000D01*
X38567408Y-68603000D01*
X38297510Y-68656686D01*
X38043273Y-68761995D01*
X37814465Y-68914880D01*
X37619880Y-69109465D01*
X37466995Y-69338273D01*
X37435000Y-69415515D01*
X37403005Y-69338273D01*
X37250120Y-69109465D01*
X37055535Y-68914880D01*
X36826727Y-68761995D01*
X36572490Y-68656686D01*
X36302592Y-68603000D01*
X36027408Y-68603000D01*
X35757510Y-68656686D01*
X35503273Y-68761995D01*
X35274465Y-68914880D01*
X35079880Y-69109465D01*
X34943945Y-69312906D01*
X34760000Y-69128961D01*
X34760000Y-57814801D01*
X34973523Y-57601278D01*
X36740000Y-57601278D01*
X36740000Y-57898722D01*
X36798029Y-58190451D01*
X36911856Y-58465253D01*
X37077107Y-58712569D01*
X37287431Y-58922893D01*
X37534747Y-59088144D01*
X37809549Y-59201971D01*
X38101278Y-59260000D01*
X38398722Y-59260000D01*
X38690451Y-59201971D01*
X38965253Y-59088144D01*
X39212569Y-58922893D01*
X39422893Y-58712569D01*
X39588144Y-58465253D01*
X39701971Y-58190451D01*
X39760000Y-57898722D01*
X39760000Y-57601278D01*
X39701971Y-57309549D01*
X39588144Y-57034747D01*
X39422893Y-56787431D01*
X39212569Y-56577107D01*
X38965253Y-56411856D01*
X38690451Y-56298029D01*
X38398722Y-56240000D01*
X38101278Y-56240000D01*
X37809549Y-56298029D01*
X37534747Y-56411856D01*
X37287431Y-56577107D01*
X37077107Y-56787431D01*
X36911856Y-57034747D01*
X36798029Y-57309549D01*
X36740000Y-57601278D01*
X34973523Y-57601278D01*
X37862332Y-54712470D01*
X38101278Y-54760000D01*
X38398722Y-54760000D01*
X38690451Y-54701971D01*
X38965253Y-54588144D01*
X39212569Y-54422893D01*
X39422893Y-54212569D01*
X39588144Y-53965253D01*
X39701971Y-53690451D01*
X39760000Y-53398722D01*
X39760000Y-53332929D01*
X39760308Y-53333673D01*
X39952919Y-53621935D01*
X40198065Y-53867081D01*
X40486327Y-54059692D01*
X40806627Y-54192364D01*
X41146655Y-54260000D01*
X41493345Y-54260000D01*
X41833373Y-54192364D01*
X42153673Y-54059692D01*
X42441935Y-53867081D01*
X42687081Y-53621935D01*
X42879692Y-53333673D01*
X43012364Y-53013373D01*
X43080000Y-52673345D01*
X43080000Y-52326655D01*
X43012364Y-51986627D01*
X42879692Y-51666327D01*
X42687081Y-51378065D01*
X42441935Y-51132919D01*
X42312212Y-51046240D01*
X42883365Y-51046240D01*
X42964025Y-51297868D01*
X43232329Y-51426267D01*
X43520526Y-51499855D01*
X43817543Y-51515804D01*
X44111963Y-51473501D01*
X44392474Y-51374572D01*
X44535975Y-51297868D01*
X44616635Y-51046240D01*
X43750000Y-50179605D01*
X42883365Y-51046240D01*
X42312212Y-51046240D01*
X42153673Y-50940308D01*
X41833373Y-50807636D01*
X41493345Y-50740000D01*
X41146655Y-50740000D01*
X40806627Y-50807636D01*
X40486327Y-50940308D01*
X40198065Y-51132919D01*
X39952919Y-51378065D01*
X39760308Y-51666327D01*
X39627636Y-51986627D01*
X39560000Y-52326655D01*
X39560000Y-52492626D01*
X39422893Y-52287431D01*
X39212569Y-52077107D01*
X38965253Y-51911856D01*
X38690451Y-51798029D01*
X38398722Y-51740000D01*
X38101278Y-51740000D01*
X37809549Y-51798029D01*
X37534747Y-51911856D01*
X37287431Y-52077107D01*
X37077107Y-52287431D01*
X36941755Y-52490000D01*
X33058245Y-52490000D01*
X32922893Y-52287431D01*
X32712569Y-52077107D01*
X32465253Y-51911856D01*
X32190451Y-51798029D01*
X31898722Y-51740000D01*
X31601278Y-51740000D01*
X31309549Y-51798029D01*
X31034747Y-51911856D01*
X30787431Y-52077107D01*
X30577107Y-52287431D01*
X30440000Y-52492626D01*
X30440000Y-52326655D01*
X30372364Y-51986627D01*
X30239692Y-51666327D01*
X30047081Y-51378065D01*
X29801935Y-51132919D01*
X29513673Y-50940308D01*
X29193373Y-50807636D01*
X28853345Y-50740000D01*
X28506655Y-50740000D01*
X28166627Y-50807636D01*
X27846327Y-50940308D01*
X27558065Y-51132919D01*
X27312919Y-51378065D01*
X27120308Y-51666327D01*
X26987636Y-51986627D01*
X26920000Y-52326655D01*
X21127000Y-52326655D01*
X21127000Y-50067543D01*
X42234196Y-50067543D01*
X42276499Y-50361963D01*
X42375428Y-50642474D01*
X42452132Y-50785975D01*
X42703760Y-50866635D01*
X43570395Y-50000000D01*
X43929605Y-50000000D01*
X44796240Y-50866635D01*
X45047868Y-50785975D01*
X45176267Y-50517671D01*
X45249855Y-50229474D01*
X45265804Y-49932457D01*
X45223501Y-49638037D01*
X45124572Y-49357526D01*
X45047868Y-49214025D01*
X44796240Y-49133365D01*
X43929605Y-50000000D01*
X43570395Y-50000000D01*
X42703760Y-49133365D01*
X42452132Y-49214025D01*
X42323733Y-49482329D01*
X42250145Y-49770526D01*
X42234196Y-50067543D01*
X21127000Y-50067543D01*
X21127000Y-42326655D01*
X26920000Y-42326655D01*
X26920000Y-42673345D01*
X26987636Y-43013373D01*
X27120308Y-43333673D01*
X27312919Y-43621935D01*
X27558065Y-43867081D01*
X27846327Y-44059692D01*
X28166627Y-44192364D01*
X28506655Y-44260000D01*
X28853345Y-44260000D01*
X29193373Y-44192364D01*
X29513673Y-44059692D01*
X29801935Y-43867081D01*
X30047081Y-43621935D01*
X30239692Y-43333673D01*
X30372364Y-43013373D01*
X30440000Y-42673345D01*
X30440000Y-42326655D01*
X30372364Y-41986627D01*
X30239692Y-41666327D01*
X30047081Y-41378065D01*
X29801935Y-41132919D01*
X29513673Y-40940308D01*
X29193373Y-40807636D01*
X28853345Y-40740000D01*
X28506655Y-40740000D01*
X28166627Y-40807636D01*
X27846327Y-40940308D01*
X27558065Y-41132919D01*
X27312919Y-41378065D01*
X27120308Y-41666327D01*
X26987636Y-41986627D01*
X26920000Y-42326655D01*
X21127000Y-42326655D01*
X21127000Y-39796240D01*
X31633365Y-39796240D01*
X31714025Y-40047868D01*
X31982329Y-40176267D01*
X32270526Y-40249855D01*
X32567543Y-40265804D01*
X32861963Y-40223501D01*
X33142474Y-40124572D01*
X33285975Y-40047868D01*
X33366635Y-39796240D01*
X32500000Y-38929605D01*
X31633365Y-39796240D01*
X21127000Y-39796240D01*
X21127000Y-38817543D01*
X30984196Y-38817543D01*
X31026499Y-39111963D01*
X31125428Y-39392474D01*
X31202132Y-39535975D01*
X31453760Y-39616635D01*
X32320395Y-38750000D01*
X31453760Y-37883365D01*
X31202132Y-37964025D01*
X31073733Y-38232329D01*
X31000145Y-38520526D01*
X30984196Y-38817543D01*
X21127000Y-38817543D01*
X21127000Y-37703760D01*
X31633365Y-37703760D01*
X32500000Y-38570395D01*
X33366635Y-37703760D01*
X33285975Y-37452132D01*
X33017671Y-37323733D01*
X32729474Y-37250145D01*
X32432457Y-37234196D01*
X32138037Y-37276499D01*
X31857526Y-37375428D01*
X31714025Y-37452132D01*
X31633365Y-37703760D01*
X21127000Y-37703760D01*
X21127000Y-33503882D01*
X30595723Y-33503882D01*
X30648832Y-33732321D01*
X30878347Y-33837985D01*
X31124066Y-33896843D01*
X31376546Y-33906631D01*
X31626084Y-33866975D01*
X31863092Y-33779399D01*
X31951168Y-33732321D01*
X32004277Y-33503882D01*
X31300000Y-32799605D01*
X30595723Y-33503882D01*
X21127000Y-33503882D01*
X21127000Y-32696546D01*
X30013369Y-32696546D01*
X30053025Y-32946084D01*
X30140601Y-33183092D01*
X30187679Y-33271168D01*
X30416118Y-33324277D01*
X31120395Y-32620000D01*
X31479605Y-32620000D01*
X32183882Y-33324277D01*
X32412321Y-33271168D01*
X32517985Y-33041653D01*
X32571556Y-32818005D01*
X32606594Y-32994150D01*
X32703286Y-33227586D01*
X32843662Y-33437673D01*
X33022327Y-33616338D01*
X33232414Y-33756714D01*
X33465850Y-33853406D01*
X33713665Y-33902700D01*
X33827899Y-33902700D01*
X37196071Y-37270873D01*
X37059549Y-37298029D01*
X36784747Y-37411856D01*
X36537431Y-37577107D01*
X36327107Y-37787431D01*
X36250000Y-37902830D01*
X36172893Y-37787431D01*
X35962569Y-37577107D01*
X35715253Y-37411856D01*
X35440451Y-37298029D01*
X35148722Y-37240000D01*
X34851278Y-37240000D01*
X34559549Y-37298029D01*
X34284747Y-37411856D01*
X34037431Y-37577107D01*
X33827107Y-37787431D01*
X33724768Y-37940593D01*
X33546240Y-37883365D01*
X32679605Y-38750000D01*
X33546240Y-39616635D01*
X33724768Y-39559407D01*
X33827107Y-39712569D01*
X34037431Y-39922893D01*
X34284747Y-40088144D01*
X34559549Y-40201971D01*
X34851278Y-40260000D01*
X35148722Y-40260000D01*
X35440451Y-40201971D01*
X35715253Y-40088144D01*
X35962569Y-39922893D01*
X36172893Y-39712569D01*
X36250000Y-39597170D01*
X36327107Y-39712569D01*
X36537431Y-39922893D01*
X36784747Y-40088144D01*
X37059549Y-40201971D01*
X37351278Y-40260000D01*
X37648722Y-40260000D01*
X37940451Y-40201971D01*
X38215253Y-40088144D01*
X38462569Y-39922893D01*
X38672893Y-39712569D01*
X38838144Y-39465253D01*
X38951971Y-39190451D01*
X38967289Y-39113445D01*
X39004774Y-39301898D01*
X39082795Y-39490256D01*
X39196063Y-39659774D01*
X39340226Y-39803937D01*
X39509744Y-39917205D01*
X39698102Y-39995226D01*
X39898061Y-40035000D01*
X40101939Y-40035000D01*
X40301898Y-39995226D01*
X40490256Y-39917205D01*
X40659774Y-39803937D01*
X40700000Y-39763711D01*
X40700000Y-40059088D01*
X40696324Y-40096410D01*
X40700000Y-40133732D01*
X40700000Y-40133742D01*
X40710997Y-40245395D01*
X40754454Y-40388656D01*
X40825026Y-40520686D01*
X40864871Y-40569236D01*
X40919999Y-40636411D01*
X40949003Y-40660214D01*
X41048344Y-40759555D01*
X40806627Y-40807636D01*
X40486327Y-40940308D01*
X40198065Y-41132919D01*
X39952919Y-41378065D01*
X39760308Y-41666327D01*
X39627636Y-41986627D01*
X39560000Y-42326655D01*
X39560000Y-42673345D01*
X39627636Y-43013373D01*
X39760308Y-43333673D01*
X39952919Y-43621935D01*
X40198065Y-43867081D01*
X40486327Y-44059692D01*
X40806627Y-44192364D01*
X41146655Y-44260000D01*
X41493345Y-44260000D01*
X41833373Y-44192364D01*
X42153673Y-44059692D01*
X42441935Y-43867081D01*
X42687081Y-43621935D01*
X42879692Y-43333673D01*
X43012364Y-43013373D01*
X43060445Y-42771656D01*
X43778788Y-43490000D01*
X43601278Y-43490000D01*
X43309549Y-43548029D01*
X43034747Y-43661856D01*
X42787431Y-43827107D01*
X42577107Y-44037431D01*
X42411856Y-44284747D01*
X42298029Y-44559549D01*
X42240000Y-44851278D01*
X42240000Y-45148722D01*
X42298029Y-45440451D01*
X42411856Y-45715253D01*
X42577107Y-45962569D01*
X42787431Y-46172893D01*
X42902830Y-46250000D01*
X42787431Y-46327107D01*
X42577107Y-46537431D01*
X42411856Y-46784747D01*
X42298029Y-47059549D01*
X42240000Y-47351278D01*
X42240000Y-47648722D01*
X42298029Y-47940451D01*
X42411856Y-48215253D01*
X42577107Y-48462569D01*
X42787431Y-48672893D01*
X42940593Y-48775232D01*
X42883365Y-48953760D01*
X43750000Y-49820395D01*
X44616635Y-48953760D01*
X44559407Y-48775232D01*
X44712569Y-48672893D01*
X44922893Y-48462569D01*
X45088144Y-48215253D01*
X45201971Y-47940451D01*
X45260000Y-47648722D01*
X45260000Y-47351278D01*
X45201971Y-47059549D01*
X45088144Y-46784747D01*
X44922893Y-46537431D01*
X44712569Y-46327107D01*
X44597170Y-46250000D01*
X44712569Y-46172893D01*
X44922893Y-45962569D01*
X45088144Y-45715253D01*
X45201971Y-45440451D01*
X45260000Y-45148722D01*
X45260000Y-44971212D01*
X46240001Y-45951213D01*
X46240000Y-59962678D01*
X46236324Y-60000000D01*
X46240000Y-60037322D01*
X46240000Y-60037332D01*
X46250997Y-60148985D01*
X46265278Y-60196063D01*
X46294454Y-60292246D01*
X46365026Y-60424276D01*
X46378301Y-60440451D01*
X46459999Y-60540001D01*
X46489003Y-60563804D01*
X50855494Y-64930297D01*
X50879288Y-64959290D01*
X50908281Y-64983084D01*
X50908285Y-64983088D01*
X50934710Y-65004774D01*
X50995013Y-65054263D01*
X51127042Y-65124835D01*
X51270303Y-65168292D01*
X51381956Y-65179289D01*
X51381965Y-65179289D01*
X51419288Y-65182965D01*
X51456611Y-65179289D01*
X70365330Y-65179289D01*
X70340226Y-65196063D01*
X70296289Y-65240000D01*
X63520892Y-65240000D01*
X63483569Y-65236324D01*
X63446246Y-65240000D01*
X63446237Y-65240000D01*
X63334584Y-65250997D01*
X63191323Y-65294454D01*
X63059294Y-65365026D01*
X62943569Y-65459999D01*
X62919771Y-65488997D01*
X59775141Y-68633628D01*
X59621162Y-68603000D01*
X59345978Y-68603000D01*
X59076080Y-68656686D01*
X58821843Y-68761995D01*
X58593035Y-68914880D01*
X58398450Y-69109465D01*
X58245565Y-69338273D01*
X58213570Y-69415515D01*
X58181575Y-69338273D01*
X58028690Y-69109465D01*
X57834105Y-68914880D01*
X57605297Y-68761995D01*
X57351060Y-68656686D01*
X57081162Y-68603000D01*
X56805978Y-68603000D01*
X56536080Y-68656686D01*
X56281843Y-68761995D01*
X56053035Y-68914880D01*
X55858450Y-69109465D01*
X55705565Y-69338273D01*
X55673570Y-69415515D01*
X55641575Y-69338273D01*
X55488690Y-69109465D01*
X55294105Y-68914880D01*
X55065297Y-68761995D01*
X54811060Y-68656686D01*
X54541162Y-68603000D01*
X54265978Y-68603000D01*
X53996080Y-68656686D01*
X53741843Y-68761995D01*
X53513035Y-68914880D01*
X53318450Y-69109465D01*
X53165565Y-69338273D01*
X53060256Y-69592510D01*
X53006570Y-69862408D01*
X53006570Y-70137592D01*
X53060256Y-70407490D01*
X53165565Y-70661727D01*
X53318450Y-70890535D01*
X53513035Y-71085120D01*
X53741843Y-71238005D01*
X53996080Y-71343314D01*
X54265978Y-71397000D01*
X54541162Y-71397000D01*
X54811060Y-71343314D01*
X55065297Y-71238005D01*
X55294105Y-71085120D01*
X55488690Y-70890535D01*
X55641575Y-70661727D01*
X55673570Y-70584485D01*
X55705565Y-70661727D01*
X55858450Y-70890535D01*
X56053035Y-71085120D01*
X56281843Y-71238005D01*
X56536080Y-71343314D01*
X56805978Y-71397000D01*
X57081162Y-71397000D01*
X57351060Y-71343314D01*
X57605297Y-71238005D01*
X57834105Y-71085120D01*
X58028690Y-70890535D01*
X58181575Y-70661727D01*
X58213570Y-70584485D01*
X58245565Y-70661727D01*
X58398450Y-70890535D01*
X58593035Y-71085120D01*
X58821843Y-71238005D01*
X59076080Y-71343314D01*
X59345978Y-71397000D01*
X59621162Y-71397000D01*
X59891060Y-71343314D01*
X60145297Y-71238005D01*
X60374105Y-71085120D01*
X60568690Y-70890535D01*
X60721575Y-70661727D01*
X60826884Y-70407490D01*
X60880570Y-70137592D01*
X60880570Y-69862408D01*
X62125855Y-69862408D01*
X62125855Y-70137592D01*
X62179541Y-70407490D01*
X62284850Y-70661727D01*
X62437735Y-70890535D01*
X62632320Y-71085120D01*
X62861128Y-71238005D01*
X63115365Y-71343314D01*
X63385263Y-71397000D01*
X63660447Y-71397000D01*
X63930345Y-71343314D01*
X64184582Y-71238005D01*
X64413390Y-71085120D01*
X64607975Y-70890535D01*
X64760860Y-70661727D01*
X64792855Y-70584485D01*
X64824850Y-70661727D01*
X64977735Y-70890535D01*
X65172320Y-71085120D01*
X65401128Y-71238005D01*
X65655365Y-71343314D01*
X65925263Y-71397000D01*
X66200447Y-71397000D01*
X66470345Y-71343314D01*
X66724582Y-71238005D01*
X66953390Y-71085120D01*
X67147975Y-70890535D01*
X67300860Y-70661727D01*
X67332855Y-70584485D01*
X67364850Y-70661727D01*
X67517735Y-70890535D01*
X67712320Y-71085120D01*
X67941128Y-71238005D01*
X68195365Y-71343314D01*
X68465263Y-71397000D01*
X68740447Y-71397000D01*
X69010345Y-71343314D01*
X69264582Y-71238005D01*
X69493390Y-71085120D01*
X69687975Y-70890535D01*
X69840860Y-70661727D01*
X69946169Y-70407490D01*
X69999855Y-70137592D01*
X69999855Y-69862408D01*
X71245140Y-69862408D01*
X71245140Y-70137592D01*
X71298826Y-70407490D01*
X71404135Y-70661727D01*
X71557020Y-70890535D01*
X71751605Y-71085120D01*
X71980413Y-71238005D01*
X72234650Y-71343314D01*
X72504548Y-71397000D01*
X72779732Y-71397000D01*
X73049630Y-71343314D01*
X73303867Y-71238005D01*
X73532675Y-71085120D01*
X73727260Y-70890535D01*
X73880145Y-70661727D01*
X73912140Y-70584485D01*
X73944135Y-70661727D01*
X74097020Y-70890535D01*
X74291605Y-71085120D01*
X74520413Y-71238005D01*
X74774650Y-71343314D01*
X75044548Y-71397000D01*
X75319732Y-71397000D01*
X75589630Y-71343314D01*
X75843867Y-71238005D01*
X76072675Y-71085120D01*
X76267260Y-70890535D01*
X76420145Y-70661727D01*
X76452140Y-70584485D01*
X76484135Y-70661727D01*
X76637020Y-70890535D01*
X76831605Y-71085120D01*
X77060413Y-71238005D01*
X77314650Y-71343314D01*
X77584548Y-71397000D01*
X77859732Y-71397000D01*
X78129630Y-71343314D01*
X78383867Y-71238005D01*
X78612675Y-71085120D01*
X78807260Y-70890535D01*
X78960145Y-70661727D01*
X79065454Y-70407490D01*
X79119140Y-70137592D01*
X79119140Y-69862408D01*
X79065454Y-69592510D01*
X78960145Y-69338273D01*
X78807260Y-69109465D01*
X78612675Y-68914880D01*
X78383867Y-68761995D01*
X78129630Y-68656686D01*
X77859732Y-68603000D01*
X77584548Y-68603000D01*
X77314650Y-68656686D01*
X77060413Y-68761995D01*
X76831605Y-68914880D01*
X76637020Y-69109465D01*
X76484135Y-69338273D01*
X76452140Y-69415515D01*
X76420145Y-69338273D01*
X76267260Y-69109465D01*
X76072675Y-68914880D01*
X75843867Y-68761995D01*
X75589630Y-68656686D01*
X75319732Y-68603000D01*
X75044548Y-68603000D01*
X74774650Y-68656686D01*
X74520413Y-68761995D01*
X74291605Y-68914880D01*
X74097020Y-69109465D01*
X73944135Y-69338273D01*
X73912140Y-69415515D01*
X73880145Y-69338273D01*
X73727260Y-69109465D01*
X73532675Y-68914880D01*
X73303867Y-68761995D01*
X73049630Y-68656686D01*
X72779732Y-68603000D01*
X72504548Y-68603000D01*
X72234650Y-68656686D01*
X71980413Y-68761995D01*
X71751605Y-68914880D01*
X71557020Y-69109465D01*
X71404135Y-69338273D01*
X71298826Y-69592510D01*
X71245140Y-69862408D01*
X69999855Y-69862408D01*
X69946169Y-69592510D01*
X69840860Y-69338273D01*
X69687975Y-69109465D01*
X69493390Y-68914880D01*
X69264582Y-68761995D01*
X69010345Y-68656686D01*
X68740447Y-68603000D01*
X68465263Y-68603000D01*
X68195365Y-68656686D01*
X67941128Y-68761995D01*
X67712320Y-68914880D01*
X67517735Y-69109465D01*
X67364850Y-69338273D01*
X67332855Y-69415515D01*
X67300860Y-69338273D01*
X67147975Y-69109465D01*
X66953390Y-68914880D01*
X66724582Y-68761995D01*
X66470345Y-68656686D01*
X66200447Y-68603000D01*
X65925263Y-68603000D01*
X65655365Y-68656686D01*
X65401128Y-68761995D01*
X65172320Y-68914880D01*
X64977735Y-69109465D01*
X64824850Y-69338273D01*
X64792855Y-69415515D01*
X64760860Y-69338273D01*
X64607975Y-69109465D01*
X64413390Y-68914880D01*
X64184582Y-68761995D01*
X63930345Y-68656686D01*
X63660447Y-68603000D01*
X63385263Y-68603000D01*
X63115365Y-68656686D01*
X62861128Y-68761995D01*
X62632320Y-68914880D01*
X62437735Y-69109465D01*
X62284850Y-69338273D01*
X62179541Y-69592510D01*
X62125855Y-69862408D01*
X60880570Y-69862408D01*
X60849942Y-69708429D01*
X63798372Y-66760000D01*
X70296289Y-66760000D01*
X70340226Y-66803937D01*
X70509744Y-66917205D01*
X70698102Y-66995226D01*
X70898061Y-67035000D01*
X71101939Y-67035000D01*
X71301898Y-66995226D01*
X71490256Y-66917205D01*
X71659774Y-66803937D01*
X71803937Y-66659774D01*
X71917205Y-66490256D01*
X71995226Y-66301898D01*
X72035000Y-66101939D01*
X72035000Y-65898061D01*
X71995226Y-65698102D01*
X71917205Y-65509744D01*
X71803937Y-65340226D01*
X71659774Y-65196063D01*
X71634670Y-65179289D01*
X84985198Y-65179289D01*
X89514338Y-69708430D01*
X89483710Y-69862408D01*
X89483710Y-70137592D01*
X89537396Y-70407490D01*
X89642705Y-70661727D01*
X89795590Y-70890535D01*
X89990175Y-71085120D01*
X90218983Y-71238005D01*
X90473220Y-71343314D01*
X90743118Y-71397000D01*
X91018302Y-71397000D01*
X91288200Y-71343314D01*
X91542437Y-71238005D01*
X91771245Y-71085120D01*
X91965830Y-70890535D01*
X92118715Y-70661727D01*
X92150710Y-70584485D01*
X92182705Y-70661727D01*
X92335590Y-70890535D01*
X92530175Y-71085120D01*
X92758983Y-71238005D01*
X93013220Y-71343314D01*
X93283118Y-71397000D01*
X93558302Y-71397000D01*
X93828200Y-71343314D01*
X94082437Y-71238005D01*
X94311245Y-71085120D01*
X94505830Y-70890535D01*
X94658715Y-70661727D01*
X94690710Y-70584485D01*
X94722705Y-70661727D01*
X94875590Y-70890535D01*
X95070175Y-71085120D01*
X95298983Y-71238005D01*
X95553220Y-71343314D01*
X95823118Y-71397000D01*
X96098302Y-71397000D01*
X96368200Y-71343314D01*
X96622437Y-71238005D01*
X96851245Y-71085120D01*
X97045830Y-70890535D01*
X97198715Y-70661727D01*
X97304024Y-70407490D01*
X97357710Y-70137592D01*
X97357710Y-69862408D01*
X97304024Y-69592510D01*
X97198715Y-69338273D01*
X97045830Y-69109465D01*
X96851245Y-68914880D01*
X96622437Y-68761995D01*
X96368200Y-68656686D01*
X96098302Y-68603000D01*
X95823118Y-68603000D01*
X95553220Y-68656686D01*
X95298983Y-68761995D01*
X95070175Y-68914880D01*
X94875590Y-69109465D01*
X94722705Y-69338273D01*
X94690710Y-69415515D01*
X94658715Y-69338273D01*
X94505830Y-69109465D01*
X94311245Y-68914880D01*
X94082437Y-68761995D01*
X93828200Y-68656686D01*
X93558302Y-68603000D01*
X93283118Y-68603000D01*
X93013220Y-68656686D01*
X92758983Y-68761995D01*
X92530175Y-68914880D01*
X92335590Y-69109465D01*
X92182705Y-69338273D01*
X92150710Y-69415515D01*
X92118715Y-69338273D01*
X91965830Y-69109465D01*
X91771245Y-68914880D01*
X91542437Y-68761995D01*
X91288200Y-68656686D01*
X91018302Y-68603000D01*
X90743118Y-68603000D01*
X90589140Y-68633628D01*
X85863803Y-63908292D01*
X85840000Y-63879288D01*
X85724275Y-63784315D01*
X85592246Y-63713743D01*
X85448985Y-63670286D01*
X85337332Y-63659289D01*
X85337321Y-63659289D01*
X85299999Y-63655613D01*
X85262677Y-63659289D01*
X60378786Y-63659289D01*
X60424276Y-63634974D01*
X60540001Y-63540001D01*
X60563804Y-63510997D01*
X65039802Y-59035000D01*
X65101939Y-59035000D01*
X65301898Y-58995226D01*
X65490256Y-58917205D01*
X65659774Y-58803937D01*
X65803937Y-58659774D01*
X65917205Y-58490256D01*
X65995226Y-58301898D01*
X66035000Y-58101939D01*
X66035000Y-57898061D01*
X65995226Y-57698102D01*
X65917205Y-57509744D01*
X65803937Y-57340226D01*
X65659774Y-57196063D01*
X65490256Y-57082795D01*
X65301898Y-57004774D01*
X65101939Y-56965000D01*
X64898061Y-56965000D01*
X64698102Y-57004774D01*
X64509744Y-57082795D01*
X64340226Y-57196063D01*
X64196063Y-57340226D01*
X64082795Y-57509744D01*
X64004774Y-57698102D01*
X63965000Y-57898061D01*
X63965000Y-57960198D01*
X59685199Y-62240000D01*
X52678405Y-62240000D01*
X52647121Y-62208716D01*
X52477603Y-62095448D01*
X52289245Y-62017427D01*
X52089286Y-61977653D01*
X51885408Y-61977653D01*
X51685449Y-62017427D01*
X51497091Y-62095448D01*
X51327573Y-62208716D01*
X51183410Y-62352879D01*
X51070142Y-62522397D01*
X50992121Y-62710755D01*
X50957850Y-62883048D01*
X47760000Y-59685199D01*
X47760000Y-46834802D01*
X49240001Y-48314804D01*
X49240000Y-59296289D01*
X49196063Y-59340226D01*
X49082795Y-59509744D01*
X49004774Y-59698102D01*
X48965000Y-59898061D01*
X48965000Y-60101939D01*
X49004774Y-60301898D01*
X49082795Y-60490256D01*
X49196063Y-60659774D01*
X49340226Y-60803937D01*
X49509744Y-60917205D01*
X49698102Y-60995226D01*
X49898061Y-61035000D01*
X50101939Y-61035000D01*
X50301898Y-60995226D01*
X50490256Y-60917205D01*
X50659774Y-60803937D01*
X50803937Y-60659774D01*
X50917205Y-60490256D01*
X50995226Y-60301898D01*
X51035000Y-60101939D01*
X51035000Y-59898061D01*
X50995226Y-59698102D01*
X50917205Y-59509744D01*
X50803937Y-59340226D01*
X50760000Y-59296289D01*
X50760000Y-48037322D01*
X50763676Y-47999999D01*
X50760000Y-47962676D01*
X50760000Y-47962667D01*
X50749003Y-47851014D01*
X50705546Y-47707753D01*
X50634974Y-47575724D01*
X50581036Y-47510000D01*
X50563799Y-47488996D01*
X50563795Y-47488992D01*
X50540001Y-47459999D01*
X50511008Y-47436205D01*
X44760000Y-41685199D01*
X44760000Y-40007538D01*
X44898061Y-40035000D01*
X44960199Y-40035000D01*
X48965000Y-44039802D01*
X48965000Y-44101939D01*
X49004774Y-44301898D01*
X49082795Y-44490256D01*
X49196063Y-44659774D01*
X49340226Y-44803937D01*
X49509744Y-44917205D01*
X49698102Y-44995226D01*
X49898061Y-45035000D01*
X50101939Y-45035000D01*
X50301898Y-44995226D01*
X50490256Y-44917205D01*
X50659774Y-44803937D01*
X50803937Y-44659774D01*
X50917205Y-44490256D01*
X50995226Y-44301898D01*
X51035000Y-44101939D01*
X51035000Y-43898061D01*
X50995226Y-43698102D01*
X50917205Y-43509744D01*
X50803937Y-43340226D01*
X50659774Y-43196063D01*
X50490256Y-43082795D01*
X50301898Y-43004774D01*
X50101939Y-42965000D01*
X50039802Y-42965000D01*
X46035000Y-38960199D01*
X46035000Y-38898061D01*
X45995226Y-38698102D01*
X45917205Y-38509744D01*
X45803937Y-38340226D01*
X45659774Y-38196063D01*
X45490256Y-38082795D01*
X45301898Y-38004774D01*
X45101939Y-37965000D01*
X44898061Y-37965000D01*
X44760000Y-37992462D01*
X44760000Y-33654874D01*
X44817673Y-33616338D01*
X44996338Y-33437673D01*
X45136714Y-33227586D01*
X45233406Y-32994150D01*
X45270000Y-32810182D01*
X45306594Y-32994150D01*
X45403286Y-33227586D01*
X45543662Y-33437673D01*
X45722327Y-33616338D01*
X45780001Y-33654874D01*
X45780000Y-36502677D01*
X45776324Y-36540000D01*
X45780000Y-36577322D01*
X45780000Y-36577332D01*
X45790997Y-36688985D01*
X45832868Y-36827017D01*
X45834454Y-36832246D01*
X45905026Y-36964276D01*
X45944871Y-37012826D01*
X45999999Y-37080001D01*
X46029003Y-37103804D01*
X52240001Y-43314803D01*
X52240000Y-58296289D01*
X52196063Y-58340226D01*
X52082795Y-58509744D01*
X52004774Y-58698102D01*
X51965000Y-58898061D01*
X51965000Y-59101939D01*
X52004774Y-59301898D01*
X52082795Y-59490256D01*
X52196063Y-59659774D01*
X52340226Y-59803937D01*
X52509744Y-59917205D01*
X52698102Y-59995226D01*
X52898061Y-60035000D01*
X53101939Y-60035000D01*
X53301898Y-59995226D01*
X53490256Y-59917205D01*
X53659774Y-59803937D01*
X53803937Y-59659774D01*
X53917205Y-59490256D01*
X53995226Y-59301898D01*
X54035000Y-59101939D01*
X54035000Y-58898061D01*
X53995226Y-58698102D01*
X53917205Y-58509744D01*
X53803937Y-58340226D01*
X53760000Y-58296289D01*
X53760000Y-43037332D01*
X53763677Y-43000000D01*
X53749003Y-42851014D01*
X53705546Y-42707753D01*
X53634974Y-42575724D01*
X53563799Y-42488997D01*
X53540001Y-42459999D01*
X53511003Y-42436201D01*
X47300000Y-36225199D01*
X47300000Y-33654874D01*
X47357673Y-33616338D01*
X47536338Y-33437673D01*
X47676714Y-33227586D01*
X47773406Y-32994150D01*
X47794228Y-32889472D01*
X47794228Y-33267700D01*
X47806488Y-33392182D01*
X47842798Y-33511880D01*
X47901763Y-33622194D01*
X47981115Y-33718885D01*
X48077806Y-33798237D01*
X48188120Y-33857202D01*
X48307818Y-33893512D01*
X48320001Y-33894712D01*
X48320000Y-35659961D01*
X48294454Y-35707754D01*
X48250998Y-35851015D01*
X48236324Y-36000000D01*
X48250998Y-36148985D01*
X48294454Y-36292246D01*
X48365026Y-36424276D01*
X48459999Y-36540001D01*
X48489003Y-36563804D01*
X54240001Y-42314804D01*
X54240000Y-51962678D01*
X54236324Y-52000000D01*
X54240000Y-52037322D01*
X54240000Y-52037332D01*
X54250997Y-52148985D01*
X54292993Y-52287431D01*
X54294454Y-52292246D01*
X54365026Y-52424276D01*
X54378301Y-52440451D01*
X54459999Y-52540001D01*
X54489003Y-52563804D01*
X58240001Y-56314803D01*
X58240000Y-58296289D01*
X58196063Y-58340226D01*
X58082795Y-58509744D01*
X58004774Y-58698102D01*
X57965000Y-58898061D01*
X57965000Y-59101939D01*
X58004774Y-59301898D01*
X58082795Y-59490256D01*
X58196063Y-59659774D01*
X58340226Y-59803937D01*
X58509744Y-59917205D01*
X58698102Y-59995226D01*
X58898061Y-60035000D01*
X59101939Y-60035000D01*
X59301898Y-59995226D01*
X59490256Y-59917205D01*
X59659774Y-59803937D01*
X59803937Y-59659774D01*
X59917205Y-59490256D01*
X59995226Y-59301898D01*
X60035000Y-59101939D01*
X60035000Y-58898061D01*
X59995226Y-58698102D01*
X59917205Y-58509744D01*
X59803937Y-58340226D01*
X59760000Y-58296289D01*
X59760000Y-56037322D01*
X59763676Y-55999999D01*
X59760000Y-55962676D01*
X59760000Y-55962667D01*
X59749003Y-55851014D01*
X59705546Y-55707753D01*
X59634974Y-55575724D01*
X59540001Y-55459999D01*
X59511003Y-55436201D01*
X55926080Y-51851278D01*
X65490000Y-51851278D01*
X65490000Y-52148722D01*
X65548029Y-52440451D01*
X65661856Y-52715253D01*
X65827107Y-52962569D01*
X66037431Y-53172893D01*
X66284747Y-53338144D01*
X66559549Y-53451971D01*
X66851278Y-53510000D01*
X67148722Y-53510000D01*
X67440451Y-53451971D01*
X67715253Y-53338144D01*
X67962569Y-53172893D01*
X68172893Y-52962569D01*
X68338144Y-52715253D01*
X68451971Y-52440451D01*
X68510000Y-52148722D01*
X68510000Y-51851278D01*
X68451971Y-51559549D01*
X68338144Y-51284747D01*
X68172893Y-51037431D01*
X67962569Y-50827107D01*
X67715253Y-50661856D01*
X67440451Y-50548029D01*
X67148722Y-50490000D01*
X66851278Y-50490000D01*
X66559549Y-50548029D01*
X66284747Y-50661856D01*
X66037431Y-50827107D01*
X65827107Y-51037431D01*
X65661856Y-51284747D01*
X65548029Y-51559549D01*
X65490000Y-51851278D01*
X55926080Y-51851278D01*
X55760000Y-51685199D01*
X55760000Y-42037322D01*
X55763676Y-41999999D01*
X55760000Y-41962676D01*
X55760000Y-41962667D01*
X55749003Y-41851014D01*
X55705546Y-41707753D01*
X55634974Y-41575724D01*
X55581036Y-41510000D01*
X55563799Y-41488996D01*
X55563795Y-41488992D01*
X55540001Y-41459999D01*
X55511008Y-41436205D01*
X49840000Y-35765199D01*
X49840000Y-33894712D01*
X49852182Y-33893512D01*
X49971880Y-33857202D01*
X50082194Y-33798237D01*
X50178885Y-33718885D01*
X50258237Y-33622194D01*
X50317202Y-33511880D01*
X50353512Y-33392182D01*
X50365772Y-33267700D01*
X50365772Y-31972300D01*
X50353512Y-31847818D01*
X50317202Y-31728120D01*
X50258237Y-31617806D01*
X50178885Y-31521115D01*
X50082194Y-31441763D01*
X49971880Y-31382798D01*
X49852182Y-31346488D01*
X49727700Y-31334228D01*
X48432300Y-31334228D01*
X48307818Y-31346488D01*
X48188120Y-31382798D01*
X48077806Y-31441763D01*
X47981115Y-31521115D01*
X47901763Y-31617806D01*
X47842798Y-31728120D01*
X47806488Y-31847818D01*
X47794228Y-31972300D01*
X47794228Y-32350528D01*
X47773406Y-32245850D01*
X47676714Y-32012414D01*
X47536338Y-31802327D01*
X47357673Y-31623662D01*
X47147586Y-31483286D01*
X46914150Y-31386594D01*
X46666335Y-31337300D01*
X46413665Y-31337300D01*
X46165850Y-31386594D01*
X45932414Y-31483286D01*
X45722327Y-31623662D01*
X45543662Y-31802327D01*
X45403286Y-32012414D01*
X45306594Y-32245850D01*
X45270000Y-32429818D01*
X45233406Y-32245850D01*
X45136714Y-32012414D01*
X44996338Y-31802327D01*
X44817673Y-31623662D01*
X44607586Y-31483286D01*
X44374150Y-31386594D01*
X44126335Y-31337300D01*
X43873665Y-31337300D01*
X43625850Y-31386594D01*
X43392414Y-31483286D01*
X43182327Y-31623662D01*
X43003662Y-31802327D01*
X42863286Y-32012414D01*
X42766594Y-32245850D01*
X42730000Y-32429818D01*
X42693406Y-32245850D01*
X42596714Y-32012414D01*
X42456338Y-31802327D01*
X42277673Y-31623662D01*
X42067586Y-31483286D01*
X41834150Y-31386594D01*
X41586335Y-31337300D01*
X41333665Y-31337300D01*
X41085850Y-31386594D01*
X40852414Y-31483286D01*
X40642327Y-31623662D01*
X40463662Y-31802327D01*
X40323286Y-32012414D01*
X40226594Y-32245850D01*
X40190000Y-32429818D01*
X40153406Y-32245850D01*
X40056714Y-32012414D01*
X39916338Y-31802327D01*
X39737673Y-31623662D01*
X39527586Y-31483286D01*
X39294150Y-31386594D01*
X39046335Y-31337300D01*
X38793665Y-31337300D01*
X38545850Y-31386594D01*
X38312414Y-31483286D01*
X38102327Y-31623662D01*
X37923662Y-31802327D01*
X37783286Y-32012414D01*
X37686594Y-32245850D01*
X37650000Y-32429818D01*
X37613406Y-32245850D01*
X37516714Y-32012414D01*
X37376338Y-31802327D01*
X37197673Y-31623662D01*
X36987586Y-31483286D01*
X36754150Y-31386594D01*
X36506335Y-31337300D01*
X36253665Y-31337300D01*
X36005850Y-31386594D01*
X35772414Y-31483286D01*
X35562327Y-31623662D01*
X35383662Y-31802327D01*
X35243286Y-32012414D01*
X35146594Y-32245850D01*
X35110000Y-32429818D01*
X35073406Y-32245850D01*
X34976714Y-32012414D01*
X34836338Y-31802327D01*
X34657673Y-31623662D01*
X34447586Y-31483286D01*
X34214150Y-31386594D01*
X33966335Y-31337300D01*
X33713665Y-31337300D01*
X33465850Y-31386594D01*
X33232414Y-31483286D01*
X33022327Y-31623662D01*
X32843662Y-31802327D01*
X32703286Y-32012414D01*
X32606594Y-32245850D01*
X32569206Y-32433808D01*
X32546975Y-32293916D01*
X32459399Y-32056908D01*
X32412321Y-31968832D01*
X32183882Y-31915723D01*
X31479605Y-32620000D01*
X31120395Y-32620000D01*
X30416118Y-31915723D01*
X30187679Y-31968832D01*
X30082015Y-32198347D01*
X30023157Y-32444066D01*
X30013369Y-32696546D01*
X21127000Y-32696546D01*
X21127000Y-31736118D01*
X30595723Y-31736118D01*
X31300000Y-32440395D01*
X32004277Y-31736118D01*
X31951168Y-31507679D01*
X31721653Y-31402015D01*
X31475934Y-31343157D01*
X31223454Y-31333369D01*
X30973916Y-31373025D01*
X30736908Y-31460601D01*
X30648832Y-31507679D01*
X30595723Y-31736118D01*
X21127000Y-31736118D01*
X21127000Y-26485807D01*
X21150000Y-26488072D01*
X22850000Y-26488072D01*
X22974482Y-26475812D01*
X23094180Y-26439502D01*
X23204494Y-26380537D01*
X23301185Y-26301185D01*
X23380537Y-26204494D01*
X23439502Y-26094180D01*
X23475812Y-25974482D01*
X23488072Y-25850000D01*
X23488072Y-25760000D01*
X30265126Y-25760000D01*
X30303662Y-25817673D01*
X30482327Y-25996338D01*
X30692414Y-26136714D01*
X30925850Y-26233406D01*
X31173665Y-26282700D01*
X31426335Y-26282700D01*
X31674150Y-26233406D01*
X31907586Y-26136714D01*
X32117673Y-25996338D01*
X32296338Y-25817673D01*
X32436714Y-25607586D01*
X32533406Y-25374150D01*
X32570000Y-25190182D01*
X32606594Y-25374150D01*
X32703286Y-25607586D01*
X32843662Y-25817673D01*
X33022327Y-25996338D01*
X33232414Y-26136714D01*
X33465850Y-26233406D01*
X33713665Y-26282700D01*
X33966335Y-26282700D01*
X34214150Y-26233406D01*
X34447586Y-26136714D01*
X34657673Y-25996338D01*
X34836338Y-25817673D01*
X34976714Y-25607586D01*
X35073406Y-25374150D01*
X35110000Y-25190182D01*
X35146594Y-25374150D01*
X35243286Y-25607586D01*
X35383662Y-25817673D01*
X35562327Y-25996338D01*
X35772414Y-26136714D01*
X36005850Y-26233406D01*
X36253665Y-26282700D01*
X36506335Y-26282700D01*
X36754150Y-26233406D01*
X36987586Y-26136714D01*
X37197673Y-25996338D01*
X37376338Y-25817673D01*
X37516714Y-25607586D01*
X37613406Y-25374150D01*
X37650000Y-25190182D01*
X37686594Y-25374150D01*
X37783286Y-25607586D01*
X37923662Y-25817673D01*
X38102327Y-25996338D01*
X38312414Y-26136714D01*
X38545850Y-26233406D01*
X38793665Y-26282700D01*
X39046335Y-26282700D01*
X39294150Y-26233406D01*
X39527586Y-26136714D01*
X39737673Y-25996338D01*
X39850129Y-25883882D01*
X40755723Y-25883882D01*
X40808832Y-26112321D01*
X41038347Y-26217985D01*
X41284066Y-26276843D01*
X41536546Y-26286631D01*
X41786084Y-26246975D01*
X42023092Y-26159399D01*
X42111168Y-26112321D01*
X42164277Y-25883882D01*
X41460000Y-25179605D01*
X40755723Y-25883882D01*
X39850129Y-25883882D01*
X39916338Y-25817673D01*
X40056714Y-25607586D01*
X40153406Y-25374150D01*
X40190794Y-25186192D01*
X40213025Y-25326084D01*
X40300601Y-25563092D01*
X40347679Y-25651168D01*
X40576118Y-25704277D01*
X41280395Y-25000000D01*
X41639605Y-25000000D01*
X42343882Y-25704277D01*
X42572321Y-25651168D01*
X42677985Y-25421653D01*
X42731556Y-25198005D01*
X42766594Y-25374150D01*
X42863286Y-25607586D01*
X43003662Y-25817673D01*
X43182327Y-25996338D01*
X43392414Y-26136714D01*
X43625850Y-26233406D01*
X43873665Y-26282700D01*
X44126335Y-26282700D01*
X44374150Y-26233406D01*
X44607586Y-26136714D01*
X44817673Y-25996338D01*
X44996338Y-25817673D01*
X45136714Y-25607586D01*
X45233406Y-25374150D01*
X45270000Y-25190182D01*
X45306594Y-25374150D01*
X45403286Y-25607586D01*
X45543662Y-25817673D01*
X45722327Y-25996338D01*
X45932414Y-26136714D01*
X46165850Y-26233406D01*
X46413665Y-26282700D01*
X46666335Y-26282700D01*
X46734366Y-26269168D01*
X46948901Y-26483703D01*
X46972700Y-26512702D01*
X47001698Y-26536500D01*
X47088424Y-26607675D01*
X47220454Y-26678247D01*
X47363715Y-26721704D01*
X47475368Y-26732701D01*
X47475378Y-26732701D01*
X47512701Y-26736377D01*
X47550024Y-26732701D01*
X48433902Y-26732701D01*
X66340120Y-44638920D01*
X66284747Y-44661856D01*
X66037431Y-44827107D01*
X65827107Y-45037431D01*
X65661856Y-45284747D01*
X65548029Y-45559549D01*
X65490000Y-45851278D01*
X65490000Y-46148722D01*
X65548029Y-46440451D01*
X65661856Y-46715253D01*
X65827107Y-46962569D01*
X66037431Y-47172893D01*
X66284747Y-47338144D01*
X66559549Y-47451971D01*
X66851278Y-47510000D01*
X67148722Y-47510000D01*
X67440451Y-47451971D01*
X67715253Y-47338144D01*
X67962569Y-47172893D01*
X68172893Y-46962569D01*
X68338144Y-46715253D01*
X68361080Y-46659880D01*
X72340120Y-50638920D01*
X72284747Y-50661856D01*
X72037431Y-50827107D01*
X71827107Y-51037431D01*
X71661856Y-51284747D01*
X71548029Y-51559549D01*
X71490000Y-51851278D01*
X71490000Y-52148722D01*
X71548029Y-52440451D01*
X71661856Y-52715253D01*
X71827107Y-52962569D01*
X72037431Y-53172893D01*
X72284747Y-53338144D01*
X72559549Y-53451971D01*
X72851278Y-53510000D01*
X73148722Y-53510000D01*
X73440451Y-53451971D01*
X73715253Y-53338144D01*
X73962569Y-53172893D01*
X74172893Y-52962569D01*
X74338144Y-52715253D01*
X74361080Y-52659880D01*
X75704668Y-54003468D01*
X75698102Y-54004774D01*
X75509744Y-54082795D01*
X75340226Y-54196063D01*
X75296289Y-54240000D01*
X73037333Y-54240000D01*
X73000000Y-54236323D01*
X72962667Y-54240000D01*
X72851014Y-54250997D01*
X72707753Y-54294454D01*
X72575724Y-54365026D01*
X72459999Y-54459999D01*
X72436201Y-54488997D01*
X71488998Y-55436201D01*
X71460000Y-55459999D01*
X71436202Y-55488997D01*
X71436201Y-55488998D01*
X71365026Y-55575724D01*
X71294454Y-55707754D01*
X71277393Y-55763999D01*
X71250999Y-55851013D01*
X71250998Y-55851015D01*
X71236324Y-56000000D01*
X71240001Y-56037332D01*
X71240000Y-57037332D01*
X71240001Y-57037342D01*
X71240000Y-60296289D01*
X71196063Y-60340226D01*
X71082795Y-60509744D01*
X71004774Y-60698102D01*
X70965000Y-60898061D01*
X70965000Y-61101939D01*
X71004774Y-61301898D01*
X71082795Y-61490256D01*
X71196063Y-61659774D01*
X71340226Y-61803937D01*
X71509744Y-61917205D01*
X71698102Y-61995226D01*
X71898061Y-62035000D01*
X72101939Y-62035000D01*
X72301898Y-61995226D01*
X72490256Y-61917205D01*
X72659774Y-61803937D01*
X72803937Y-61659774D01*
X72917205Y-61490256D01*
X72995226Y-61301898D01*
X73035000Y-61101939D01*
X73035000Y-60898061D01*
X72995226Y-60698102D01*
X72917205Y-60509744D01*
X72803937Y-60340226D01*
X72760000Y-60296289D01*
X72760000Y-56314801D01*
X73314802Y-55760000D01*
X75296289Y-55760000D01*
X75340226Y-55803937D01*
X75509744Y-55917205D01*
X75698102Y-55995226D01*
X75898061Y-56035000D01*
X76101939Y-56035000D01*
X76301898Y-55995226D01*
X76490256Y-55917205D01*
X76659774Y-55803937D01*
X76803937Y-55659774D01*
X76917205Y-55490256D01*
X76995226Y-55301898D01*
X76996532Y-55295332D01*
X77240001Y-55538801D01*
X77240000Y-61296289D01*
X77196063Y-61340226D01*
X77082795Y-61509744D01*
X77004774Y-61698102D01*
X76965000Y-61898061D01*
X76965000Y-62101939D01*
X77004774Y-62301898D01*
X77082795Y-62490256D01*
X77196063Y-62659774D01*
X77340226Y-62803937D01*
X77509744Y-62917205D01*
X77698102Y-62995226D01*
X77898061Y-63035000D01*
X78101939Y-63035000D01*
X78301898Y-62995226D01*
X78490256Y-62917205D01*
X78659774Y-62803937D01*
X78803937Y-62659774D01*
X78917205Y-62490256D01*
X78995226Y-62301898D01*
X79035000Y-62101939D01*
X79035000Y-61898061D01*
X78995226Y-61698102D01*
X78917205Y-61509744D01*
X78803937Y-61340226D01*
X78760000Y-61296289D01*
X78760000Y-55261321D01*
X78763676Y-55223998D01*
X78760000Y-55186675D01*
X78760000Y-55186665D01*
X78749003Y-55075012D01*
X78705546Y-54931751D01*
X78662391Y-54851014D01*
X78634974Y-54799721D01*
X78563799Y-54712995D01*
X78540001Y-54683997D01*
X78511003Y-54660199D01*
X67882760Y-44031956D01*
X67898061Y-44035000D01*
X68101939Y-44035000D01*
X68301898Y-43995226D01*
X68490256Y-43917205D01*
X68659774Y-43803937D01*
X68703711Y-43760000D01*
X72685199Y-43760000D01*
X73496405Y-44571206D01*
X73440451Y-44548029D01*
X73148722Y-44490000D01*
X72851278Y-44490000D01*
X72559549Y-44548029D01*
X72284747Y-44661856D01*
X72037431Y-44827107D01*
X71827107Y-45037431D01*
X71661856Y-45284747D01*
X71548029Y-45559549D01*
X71490000Y-45851278D01*
X71490000Y-46148722D01*
X71548029Y-46440451D01*
X71661856Y-46715253D01*
X71827107Y-46962569D01*
X72037431Y-47172893D01*
X72284747Y-47338144D01*
X72559549Y-47451971D01*
X72851278Y-47510000D01*
X73148722Y-47510000D01*
X73440451Y-47451971D01*
X73715253Y-47338144D01*
X73962569Y-47172893D01*
X74172893Y-46962569D01*
X74338144Y-46715253D01*
X74451971Y-46440451D01*
X74510000Y-46148722D01*
X74510000Y-45851278D01*
X74451971Y-45559549D01*
X74428794Y-45503595D01*
X98633628Y-69708430D01*
X98603000Y-69862408D01*
X98603000Y-70137592D01*
X98656686Y-70407490D01*
X98761995Y-70661727D01*
X98914880Y-70890535D01*
X99109465Y-71085120D01*
X99338273Y-71238005D01*
X99592510Y-71343314D01*
X99862408Y-71397000D01*
X100137592Y-71397000D01*
X100407490Y-71343314D01*
X100661727Y-71238005D01*
X100890535Y-71085120D01*
X101085120Y-70890535D01*
X101238005Y-70661727D01*
X101270000Y-70584485D01*
X101301995Y-70661727D01*
X101454880Y-70890535D01*
X101649465Y-71085120D01*
X101878273Y-71238005D01*
X102132510Y-71343314D01*
X102402408Y-71397000D01*
X102677592Y-71397000D01*
X102947490Y-71343314D01*
X103201727Y-71238005D01*
X103430535Y-71085120D01*
X103625120Y-70890535D01*
X103778005Y-70661727D01*
X103810000Y-70584485D01*
X103841995Y-70661727D01*
X103994880Y-70890535D01*
X104189465Y-71085120D01*
X104418273Y-71238005D01*
X104672510Y-71343314D01*
X104942408Y-71397000D01*
X105217592Y-71397000D01*
X105487490Y-71343314D01*
X105741727Y-71238005D01*
X105970535Y-71085120D01*
X106165120Y-70890535D01*
X106318005Y-70661727D01*
X106423314Y-70407490D01*
X106477000Y-70137592D01*
X106477000Y-69862408D01*
X106446372Y-69708430D01*
X106711005Y-69443797D01*
X106740002Y-69420000D01*
X106834975Y-69304275D01*
X106905547Y-69172246D01*
X106949004Y-69028985D01*
X106960001Y-68917332D01*
X106960001Y-68917331D01*
X106963678Y-68879999D01*
X106960001Y-68842666D01*
X106960001Y-55237326D01*
X106963677Y-55200001D01*
X106960001Y-55162676D01*
X106960001Y-55162668D01*
X106949004Y-55051015D01*
X106905547Y-54907754D01*
X106834975Y-54775725D01*
X106740002Y-54660000D01*
X106711004Y-54636202D01*
X106462470Y-54387668D01*
X106510000Y-54148722D01*
X106510000Y-53851278D01*
X106451971Y-53559549D01*
X106338144Y-53284747D01*
X106172893Y-53037431D01*
X105962569Y-52827107D01*
X105715253Y-52661856D01*
X105440451Y-52548029D01*
X105148722Y-52490000D01*
X104851278Y-52490000D01*
X104559549Y-52548029D01*
X104284747Y-52661856D01*
X104037431Y-52827107D01*
X103827107Y-53037431D01*
X103691755Y-53240000D01*
X100308245Y-53240000D01*
X100172893Y-53037431D01*
X99962569Y-52827107D01*
X99715253Y-52661856D01*
X99440451Y-52548029D01*
X99148722Y-52490000D01*
X98851278Y-52490000D01*
X98559999Y-52547939D01*
X98559999Y-50514802D01*
X99223523Y-49851278D01*
X108490000Y-49851278D01*
X108490000Y-50148722D01*
X108548029Y-50440451D01*
X108661856Y-50715253D01*
X108827107Y-50962569D01*
X109037431Y-51172893D01*
X109284747Y-51338144D01*
X109559549Y-51451971D01*
X109851278Y-51510000D01*
X110148722Y-51510000D01*
X110440451Y-51451971D01*
X110715253Y-51338144D01*
X110962569Y-51172893D01*
X111172893Y-50962569D01*
X111338144Y-50715253D01*
X111451971Y-50440451D01*
X111510000Y-50148722D01*
X111510000Y-49851278D01*
X114490000Y-49851278D01*
X114490000Y-50148722D01*
X114548029Y-50440451D01*
X114661856Y-50715253D01*
X114827107Y-50962569D01*
X115037431Y-51172893D01*
X115284747Y-51338144D01*
X115559549Y-51451971D01*
X115851278Y-51510000D01*
X116148722Y-51510000D01*
X116440451Y-51451971D01*
X116715253Y-51338144D01*
X116962569Y-51172893D01*
X117172893Y-50962569D01*
X117338144Y-50715253D01*
X117451971Y-50440451D01*
X117510000Y-50148722D01*
X117510000Y-49851278D01*
X117451971Y-49559549D01*
X117338144Y-49284747D01*
X117172893Y-49037431D01*
X116962569Y-48827107D01*
X116715253Y-48661856D01*
X116440451Y-48548029D01*
X116148722Y-48490000D01*
X115851278Y-48490000D01*
X115559549Y-48548029D01*
X115284747Y-48661856D01*
X115037431Y-48827107D01*
X114827107Y-49037431D01*
X114661856Y-49284747D01*
X114548029Y-49559549D01*
X114490000Y-49851278D01*
X111510000Y-49851278D01*
X111451971Y-49559549D01*
X111338144Y-49284747D01*
X111172893Y-49037431D01*
X110962569Y-48827107D01*
X110715253Y-48661856D01*
X110440451Y-48548029D01*
X110148722Y-48490000D01*
X109851278Y-48490000D01*
X109559549Y-48548029D01*
X109284747Y-48661856D01*
X109037431Y-48827107D01*
X108827107Y-49037431D01*
X108661856Y-49284747D01*
X108548029Y-49559549D01*
X108490000Y-49851278D01*
X99223523Y-49851278D01*
X104314802Y-44760000D01*
X108691755Y-44760000D01*
X108827107Y-44962569D01*
X109037431Y-45172893D01*
X109284747Y-45338144D01*
X109559549Y-45451971D01*
X109851278Y-45510000D01*
X110148722Y-45510000D01*
X110440451Y-45451971D01*
X110715253Y-45338144D01*
X110962569Y-45172893D01*
X111172893Y-44962569D01*
X111308245Y-44760000D01*
X114691755Y-44760000D01*
X114827107Y-44962569D01*
X115037431Y-45172893D01*
X115284747Y-45338144D01*
X115559549Y-45451971D01*
X115851278Y-45510000D01*
X116148722Y-45510000D01*
X116440451Y-45451971D01*
X116715253Y-45338144D01*
X116962569Y-45172893D01*
X117172893Y-44962569D01*
X117338144Y-44715253D01*
X117451971Y-44440451D01*
X117510000Y-44148722D01*
X117510000Y-43851278D01*
X117451971Y-43559549D01*
X117338144Y-43284747D01*
X117172893Y-43037431D01*
X116962569Y-42827107D01*
X116715253Y-42661856D01*
X116440451Y-42548029D01*
X116148722Y-42490000D01*
X115851278Y-42490000D01*
X115559549Y-42548029D01*
X115284747Y-42661856D01*
X115037431Y-42827107D01*
X114827107Y-43037431D01*
X114691755Y-43240000D01*
X111308245Y-43240000D01*
X111172893Y-43037431D01*
X110962569Y-42827107D01*
X110715253Y-42661856D01*
X110440451Y-42548029D01*
X110148722Y-42490000D01*
X109851278Y-42490000D01*
X109559549Y-42548029D01*
X109284747Y-42661856D01*
X109037431Y-42827107D01*
X108827107Y-43037431D01*
X108691755Y-43240000D01*
X104610804Y-43240000D01*
X110311003Y-37539801D01*
X110340000Y-37516004D01*
X110434973Y-37400279D01*
X110505545Y-37268250D01*
X110549002Y-37124989D01*
X110559999Y-37013336D01*
X110559999Y-37013328D01*
X110563675Y-36976003D01*
X110559999Y-36938678D01*
X110559999Y-30452061D01*
X110851278Y-30510000D01*
X111148722Y-30510000D01*
X111440451Y-30451971D01*
X111715253Y-30338144D01*
X111962569Y-30172893D01*
X112172893Y-29962569D01*
X112338144Y-29715253D01*
X112451971Y-29440451D01*
X112510000Y-29148722D01*
X112510000Y-28851278D01*
X115490000Y-28851278D01*
X115490000Y-29148722D01*
X115548029Y-29440451D01*
X115661856Y-29715253D01*
X115827107Y-29962569D01*
X116037431Y-30172893D01*
X116284747Y-30338144D01*
X116559549Y-30451971D01*
X116851278Y-30510000D01*
X117148722Y-30510000D01*
X117440451Y-30451971D01*
X117715253Y-30338144D01*
X117962569Y-30172893D01*
X118172893Y-29962569D01*
X118338144Y-29715253D01*
X118451971Y-29440451D01*
X118510000Y-29148722D01*
X118510000Y-28851278D01*
X118451971Y-28559549D01*
X118338144Y-28284747D01*
X118172893Y-28037431D01*
X117962569Y-27827107D01*
X117715253Y-27661856D01*
X117440451Y-27548029D01*
X117148722Y-27490000D01*
X116851278Y-27490000D01*
X116559549Y-27548029D01*
X116284747Y-27661856D01*
X116037431Y-27827107D01*
X115827107Y-28037431D01*
X115661856Y-28284747D01*
X115548029Y-28559549D01*
X115490000Y-28851278D01*
X112510000Y-28851278D01*
X112451971Y-28559549D01*
X112338144Y-28284747D01*
X112172893Y-28037431D01*
X111962569Y-27827107D01*
X111715253Y-27661856D01*
X111440451Y-27548029D01*
X111148722Y-27490000D01*
X110851278Y-27490000D01*
X110559999Y-27547939D01*
X110559999Y-24514802D01*
X110612331Y-24462470D01*
X110851278Y-24510000D01*
X111148722Y-24510000D01*
X111440451Y-24451971D01*
X111715253Y-24338144D01*
X111962569Y-24172893D01*
X112172893Y-23962569D01*
X112308245Y-23760000D01*
X115691755Y-23760000D01*
X115827107Y-23962569D01*
X116037431Y-24172893D01*
X116284747Y-24338144D01*
X116559549Y-24451971D01*
X116851278Y-24510000D01*
X117148722Y-24510000D01*
X117440451Y-24451971D01*
X117715253Y-24338144D01*
X117962569Y-24172893D01*
X118172893Y-23962569D01*
X118338144Y-23715253D01*
X118451971Y-23440451D01*
X118510000Y-23148722D01*
X118510000Y-22851278D01*
X118451971Y-22559549D01*
X118338144Y-22284747D01*
X118172893Y-22037431D01*
X117962569Y-21827107D01*
X117715253Y-21661856D01*
X117440451Y-21548029D01*
X117148722Y-21490000D01*
X116851278Y-21490000D01*
X116559549Y-21548029D01*
X116284747Y-21661856D01*
X116037431Y-21827107D01*
X115827107Y-22037431D01*
X115691755Y-22240000D01*
X112308245Y-22240000D01*
X112172893Y-22037431D01*
X111962569Y-21827107D01*
X111715253Y-21661856D01*
X111440451Y-21548029D01*
X111148722Y-21490000D01*
X110851278Y-21490000D01*
X110559549Y-21548029D01*
X110284747Y-21661856D01*
X110037431Y-21827107D01*
X109827107Y-22037431D01*
X109661856Y-22284747D01*
X109548029Y-22559549D01*
X109490000Y-22851278D01*
X109490000Y-23148722D01*
X109537530Y-23387669D01*
X109288997Y-23636202D01*
X109259999Y-23660000D01*
X109236201Y-23688998D01*
X109236200Y-23688999D01*
X109165025Y-23775725D01*
X109094453Y-23907755D01*
X109050997Y-24051016D01*
X109036323Y-24200001D01*
X109040000Y-24237333D01*
X109039999Y-36661201D01*
X106361080Y-39340120D01*
X106338144Y-39284747D01*
X106172893Y-39037431D01*
X105962569Y-38827107D01*
X105715253Y-38661856D01*
X105440451Y-38548029D01*
X105148722Y-38490000D01*
X104851278Y-38490000D01*
X104559549Y-38548029D01*
X104284747Y-38661856D01*
X104037431Y-38827107D01*
X103827107Y-39037431D01*
X103661856Y-39284747D01*
X103548029Y-39559549D01*
X103490000Y-39851278D01*
X103490000Y-40148722D01*
X103548029Y-40440451D01*
X103661856Y-40715253D01*
X103827107Y-40962569D01*
X104037431Y-41172893D01*
X104284747Y-41338144D01*
X104340120Y-41361080D01*
X95488998Y-50212203D01*
X95460000Y-50236001D01*
X95436202Y-50264999D01*
X95436201Y-50265000D01*
X95365026Y-50351726D01*
X95294454Y-50483756D01*
X95250998Y-50627017D01*
X95236324Y-50776002D01*
X95240001Y-50813334D01*
X95240000Y-55296289D01*
X95196063Y-55340226D01*
X95082795Y-55509744D01*
X95004774Y-55698102D01*
X94965000Y-55898061D01*
X94965000Y-56101939D01*
X95004774Y-56301898D01*
X95082795Y-56490256D01*
X95196063Y-56659774D01*
X95340226Y-56803937D01*
X95509744Y-56917205D01*
X95698102Y-56995226D01*
X95898061Y-57035000D01*
X96101939Y-57035000D01*
X96301898Y-56995226D01*
X96490256Y-56917205D01*
X96659774Y-56803937D01*
X96803937Y-56659774D01*
X96917205Y-56490256D01*
X96995226Y-56301898D01*
X97035000Y-56101939D01*
X97035000Y-55898061D01*
X96995226Y-55698102D01*
X96917205Y-55509744D01*
X96803937Y-55340226D01*
X96760000Y-55296289D01*
X96760000Y-51090803D01*
X97039999Y-50810804D01*
X97040000Y-56762657D01*
X97039999Y-56762667D01*
X97040000Y-57885198D01*
X93960199Y-60965000D01*
X93898061Y-60965000D01*
X93698102Y-61004774D01*
X93509744Y-61082795D01*
X93340226Y-61196063D01*
X93196063Y-61340226D01*
X93082795Y-61509744D01*
X93004774Y-61698102D01*
X92966305Y-61891503D01*
X80926080Y-49851278D01*
X84990000Y-49851278D01*
X84990000Y-50148722D01*
X85048029Y-50440451D01*
X85161856Y-50715253D01*
X85327107Y-50962569D01*
X85537431Y-51172893D01*
X85784747Y-51338144D01*
X86059549Y-51451971D01*
X86351278Y-51510000D01*
X86648722Y-51510000D01*
X86940451Y-51451971D01*
X87215253Y-51338144D01*
X87462569Y-51172893D01*
X87672893Y-50962569D01*
X87838144Y-50715253D01*
X87951971Y-50440451D01*
X88010000Y-50148722D01*
X88010000Y-49851278D01*
X87951971Y-49559549D01*
X87838144Y-49284747D01*
X87672893Y-49037431D01*
X87462569Y-48827107D01*
X87215253Y-48661856D01*
X86940451Y-48548029D01*
X86648722Y-48490000D01*
X86351278Y-48490000D01*
X86059549Y-48548029D01*
X85784747Y-48661856D01*
X85537431Y-48827107D01*
X85327107Y-49037431D01*
X85161856Y-49284747D01*
X85048029Y-49559549D01*
X84990000Y-49851278D01*
X80926080Y-49851278D01*
X79108497Y-48033696D01*
X79301898Y-47995226D01*
X79490256Y-47917205D01*
X79659774Y-47803937D01*
X79803937Y-47659774D01*
X79917205Y-47490256D01*
X79995226Y-47301898D01*
X80035000Y-47101939D01*
X80035000Y-47039801D01*
X82314802Y-44760000D01*
X85191755Y-44760000D01*
X85327107Y-44962569D01*
X85537431Y-45172893D01*
X85784747Y-45338144D01*
X86059549Y-45451971D01*
X86351278Y-45510000D01*
X86648722Y-45510000D01*
X86940451Y-45451971D01*
X87215253Y-45338144D01*
X87462569Y-45172893D01*
X87672893Y-44962569D01*
X87808245Y-44760000D01*
X91191755Y-44760000D01*
X91327107Y-44962569D01*
X91537431Y-45172893D01*
X91784747Y-45338144D01*
X92059549Y-45451971D01*
X92351278Y-45510000D01*
X92648722Y-45510000D01*
X92940451Y-45451971D01*
X93215253Y-45338144D01*
X93240001Y-45321608D01*
X93240000Y-48678392D01*
X93215253Y-48661856D01*
X92940451Y-48548029D01*
X92648722Y-48490000D01*
X92351278Y-48490000D01*
X92059549Y-48548029D01*
X91784747Y-48661856D01*
X91537431Y-48827107D01*
X91327107Y-49037431D01*
X91161856Y-49284747D01*
X91048029Y-49559549D01*
X90990000Y-49851278D01*
X90990000Y-50148722D01*
X91048029Y-50440451D01*
X91161856Y-50715253D01*
X91327107Y-50962569D01*
X91537431Y-51172893D01*
X91784747Y-51338144D01*
X92059549Y-51451971D01*
X92351278Y-51510000D01*
X92648722Y-51510000D01*
X92940451Y-51451971D01*
X93215253Y-51338144D01*
X93240000Y-51321608D01*
X93240000Y-53296289D01*
X93196063Y-53340226D01*
X93082795Y-53509744D01*
X93004774Y-53698102D01*
X92965000Y-53898061D01*
X92965000Y-54101939D01*
X93004774Y-54301898D01*
X93082795Y-54490256D01*
X93196063Y-54659774D01*
X93340226Y-54803937D01*
X93509744Y-54917205D01*
X93698102Y-54995226D01*
X93898061Y-55035000D01*
X94101939Y-55035000D01*
X94301898Y-54995226D01*
X94490256Y-54917205D01*
X94659774Y-54803937D01*
X94803937Y-54659774D01*
X94917205Y-54490256D01*
X94995226Y-54301898D01*
X95035000Y-54101939D01*
X95035000Y-53898061D01*
X94995226Y-53698102D01*
X94917205Y-53509744D01*
X94803937Y-53340226D01*
X94760000Y-53296289D01*
X94760000Y-43538799D01*
X97638920Y-40659880D01*
X97661856Y-40715253D01*
X97827107Y-40962569D01*
X98037431Y-41172893D01*
X98284747Y-41338144D01*
X98559549Y-41451971D01*
X98851278Y-41510000D01*
X99148722Y-41510000D01*
X99440451Y-41451971D01*
X99715253Y-41338144D01*
X99962569Y-41172893D01*
X100172893Y-40962569D01*
X100338144Y-40715253D01*
X100451971Y-40440451D01*
X100510000Y-40148722D01*
X100510000Y-39851278D01*
X100451971Y-39559549D01*
X100338144Y-39284747D01*
X100172893Y-39037431D01*
X99962569Y-38827107D01*
X99715253Y-38661856D01*
X99643582Y-38632169D01*
X99705546Y-38516245D01*
X99749003Y-38372984D01*
X99760000Y-38261331D01*
X99760000Y-38261321D01*
X99763676Y-38223998D01*
X99760000Y-38186675D01*
X99760000Y-35308245D01*
X99962569Y-35172893D01*
X100172893Y-34962569D01*
X100308245Y-34760000D01*
X103691755Y-34760000D01*
X103827107Y-34962569D01*
X104037431Y-35172893D01*
X104284747Y-35338144D01*
X104559549Y-35451971D01*
X104851278Y-35510000D01*
X105148722Y-35510000D01*
X105440451Y-35451971D01*
X105715253Y-35338144D01*
X105962569Y-35172893D01*
X106172893Y-34962569D01*
X106338144Y-34715253D01*
X106451971Y-34440451D01*
X106510000Y-34148722D01*
X106510000Y-33851278D01*
X106451971Y-33559549D01*
X106338144Y-33284747D01*
X106172893Y-33037431D01*
X105962569Y-32827107D01*
X105715253Y-32661856D01*
X105440451Y-32548029D01*
X105148722Y-32490000D01*
X104851278Y-32490000D01*
X104559549Y-32548029D01*
X104284747Y-32661856D01*
X104037431Y-32827107D01*
X103827107Y-33037431D01*
X103691755Y-33240000D01*
X100308245Y-33240000D01*
X100172893Y-33037431D01*
X99962569Y-32827107D01*
X99715253Y-32661856D01*
X99440451Y-32548029D01*
X99148722Y-32490000D01*
X98851278Y-32490000D01*
X98559549Y-32548029D01*
X98284747Y-32661856D01*
X98037431Y-32827107D01*
X97827107Y-33037431D01*
X97661856Y-33284747D01*
X97548029Y-33559549D01*
X97490000Y-33851278D01*
X97490000Y-34148722D01*
X97548029Y-34440451D01*
X97661856Y-34715253D01*
X97827107Y-34962569D01*
X98037431Y-35172893D01*
X98240001Y-35308246D01*
X98240000Y-37909196D01*
X93488998Y-42660199D01*
X93460000Y-42683997D01*
X93436202Y-42712995D01*
X93436201Y-42712996D01*
X93385057Y-42775315D01*
X93215253Y-42661856D01*
X92940451Y-42548029D01*
X92648722Y-42490000D01*
X92351278Y-42490000D01*
X92059549Y-42548029D01*
X91784747Y-42661856D01*
X91537431Y-42827107D01*
X91327107Y-43037431D01*
X91191755Y-43240000D01*
X87808245Y-43240000D01*
X87672893Y-43037431D01*
X87462569Y-42827107D01*
X87215253Y-42661856D01*
X86940451Y-42548029D01*
X86648722Y-42490000D01*
X86351278Y-42490000D01*
X86059549Y-42548029D01*
X85784747Y-42661856D01*
X85537431Y-42827107D01*
X85327107Y-43037431D01*
X85191755Y-43240000D01*
X84007538Y-43240000D01*
X84035000Y-43101939D01*
X84035000Y-42898061D01*
X83995226Y-42698102D01*
X83917205Y-42509744D01*
X83803937Y-42340226D01*
X83760000Y-42296289D01*
X83760000Y-37851278D01*
X85490000Y-37851278D01*
X85490000Y-38148722D01*
X85548029Y-38440451D01*
X85661856Y-38715253D01*
X85827107Y-38962569D01*
X86037431Y-39172893D01*
X86284747Y-39338144D01*
X86559549Y-39451971D01*
X86851278Y-39510000D01*
X87148722Y-39510000D01*
X87440451Y-39451971D01*
X87715253Y-39338144D01*
X87962569Y-39172893D01*
X88172893Y-38962569D01*
X88338144Y-38715253D01*
X88451971Y-38440451D01*
X88510000Y-38148722D01*
X88510000Y-37851278D01*
X91490000Y-37851278D01*
X91490000Y-38148722D01*
X91548029Y-38440451D01*
X91661856Y-38715253D01*
X91827107Y-38962569D01*
X92037431Y-39172893D01*
X92284747Y-39338144D01*
X92559549Y-39451971D01*
X92851278Y-39510000D01*
X93148722Y-39510000D01*
X93440451Y-39451971D01*
X93715253Y-39338144D01*
X93962569Y-39172893D01*
X94172893Y-38962569D01*
X94338144Y-38715253D01*
X94451971Y-38440451D01*
X94510000Y-38148722D01*
X94510000Y-37851278D01*
X94451971Y-37559549D01*
X94338144Y-37284747D01*
X94172893Y-37037431D01*
X93962569Y-36827107D01*
X93715253Y-36661856D01*
X93440451Y-36548029D01*
X93148722Y-36490000D01*
X92851278Y-36490000D01*
X92559549Y-36548029D01*
X92284747Y-36661856D01*
X92037431Y-36827107D01*
X91827107Y-37037431D01*
X91661856Y-37284747D01*
X91548029Y-37559549D01*
X91490000Y-37851278D01*
X88510000Y-37851278D01*
X88451971Y-37559549D01*
X88338144Y-37284747D01*
X88172893Y-37037431D01*
X87962569Y-36827107D01*
X87715253Y-36661856D01*
X87440451Y-36548029D01*
X87148722Y-36490000D01*
X86851278Y-36490000D01*
X86559549Y-36548029D01*
X86284747Y-36661856D01*
X86037431Y-36827107D01*
X85827107Y-37037431D01*
X85661856Y-37284747D01*
X85548029Y-37559549D01*
X85490000Y-37851278D01*
X83760000Y-37851278D01*
X83760000Y-36314801D01*
X86612332Y-33462470D01*
X86851278Y-33510000D01*
X87148722Y-33510000D01*
X87440451Y-33451971D01*
X87715253Y-33338144D01*
X87962569Y-33172893D01*
X88172893Y-32962569D01*
X88308245Y-32760000D01*
X91691755Y-32760000D01*
X91827107Y-32962569D01*
X92037431Y-33172893D01*
X92284747Y-33338144D01*
X92559549Y-33451971D01*
X92851278Y-33510000D01*
X93148722Y-33510000D01*
X93440451Y-33451971D01*
X93715253Y-33338144D01*
X93962569Y-33172893D01*
X94172893Y-32962569D01*
X94338144Y-32715253D01*
X94451971Y-32440451D01*
X94510000Y-32148722D01*
X94510000Y-31851278D01*
X94451971Y-31559549D01*
X94338144Y-31284747D01*
X94172893Y-31037431D01*
X93962569Y-30827107D01*
X93715253Y-30661856D01*
X93440451Y-30548029D01*
X93148722Y-30490000D01*
X92851278Y-30490000D01*
X92559549Y-30548029D01*
X92284747Y-30661856D01*
X92037431Y-30827107D01*
X91827107Y-31037431D01*
X91691755Y-31240000D01*
X88308245Y-31240000D01*
X88172893Y-31037431D01*
X87962569Y-30827107D01*
X87715253Y-30661856D01*
X87440451Y-30548029D01*
X87148722Y-30490000D01*
X86851278Y-30490000D01*
X86559549Y-30548029D01*
X86284747Y-30661856D01*
X86037431Y-30827107D01*
X85827107Y-31037431D01*
X85661856Y-31284747D01*
X85548029Y-31559549D01*
X85490000Y-31851278D01*
X85490000Y-32148722D01*
X85537530Y-32387668D01*
X82488998Y-35436201D01*
X82460000Y-35459999D01*
X82436202Y-35488997D01*
X82436201Y-35488998D01*
X82365026Y-35575724D01*
X82294454Y-35707754D01*
X82269203Y-35790998D01*
X82250998Y-35851014D01*
X82240526Y-35957333D01*
X82236324Y-36000000D01*
X82240001Y-36037332D01*
X82240000Y-42296289D01*
X82196063Y-42340226D01*
X82082795Y-42509744D01*
X82004774Y-42698102D01*
X81965000Y-42898061D01*
X81965000Y-43101939D01*
X81991890Y-43237123D01*
X81962675Y-43240000D01*
X81962667Y-43240000D01*
X81851014Y-43250997D01*
X81707753Y-43294454D01*
X81575724Y-43365026D01*
X81459999Y-43459999D01*
X81436201Y-43488997D01*
X78960199Y-45965000D01*
X78898061Y-45965000D01*
X78698102Y-46004774D01*
X78509744Y-46082795D01*
X78340226Y-46196063D01*
X78196063Y-46340226D01*
X78082795Y-46509744D01*
X78004774Y-46698102D01*
X77966304Y-46891503D01*
X73563804Y-42489003D01*
X73540001Y-42459999D01*
X73424276Y-42365026D01*
X73292247Y-42294454D01*
X73148986Y-42250997D01*
X73037333Y-42240000D01*
X73037322Y-42240000D01*
X73000000Y-42236324D01*
X72962678Y-42240000D01*
X68703711Y-42240000D01*
X68659774Y-42196063D01*
X68490256Y-42082795D01*
X68301898Y-42004774D01*
X68101939Y-41965000D01*
X67898061Y-41965000D01*
X67698102Y-42004774D01*
X67509744Y-42082795D01*
X67340226Y-42196063D01*
X67196063Y-42340226D01*
X67082795Y-42509744D01*
X67004774Y-42698102D01*
X66965000Y-42898061D01*
X66965000Y-43101939D01*
X66968044Y-43117240D01*
X62850239Y-38999436D01*
X63003411Y-38935990D01*
X63246632Y-38773475D01*
X63453475Y-38566632D01*
X63570000Y-38392240D01*
X63686525Y-38566632D01*
X63893368Y-38773475D01*
X64136589Y-38935990D01*
X64406842Y-39047932D01*
X64693740Y-39105000D01*
X64986260Y-39105000D01*
X65273158Y-39047932D01*
X65543411Y-38935990D01*
X65786632Y-38773475D01*
X65993475Y-38566632D01*
X66110000Y-38392240D01*
X66226525Y-38566632D01*
X66433368Y-38773475D01*
X66676589Y-38935990D01*
X66946842Y-39047932D01*
X67233740Y-39105000D01*
X67526260Y-39105000D01*
X67813158Y-39047932D01*
X68083411Y-38935990D01*
X68326632Y-38773475D01*
X68533475Y-38566632D01*
X68650000Y-38392240D01*
X68766525Y-38566632D01*
X68973368Y-38773475D01*
X69216589Y-38935990D01*
X69486842Y-39047932D01*
X69773740Y-39105000D01*
X70066260Y-39105000D01*
X70353158Y-39047932D01*
X70623411Y-38935990D01*
X70866632Y-38773475D01*
X71073475Y-38566632D01*
X71190000Y-38392240D01*
X71306525Y-38566632D01*
X71513368Y-38773475D01*
X71756589Y-38935990D01*
X72026842Y-39047932D01*
X72313740Y-39105000D01*
X72606260Y-39105000D01*
X72893158Y-39047932D01*
X73163411Y-38935990D01*
X73406632Y-38773475D01*
X73613475Y-38566632D01*
X73730000Y-38392240D01*
X73846525Y-38566632D01*
X74053368Y-38773475D01*
X74296589Y-38935990D01*
X74566842Y-39047932D01*
X74853740Y-39105000D01*
X75146260Y-39105000D01*
X75433158Y-39047932D01*
X75703411Y-38935990D01*
X75946632Y-38773475D01*
X76078487Y-38641620D01*
X76100498Y-38714180D01*
X76159463Y-38824494D01*
X76238815Y-38921185D01*
X76335506Y-39000537D01*
X76445820Y-39059502D01*
X76565518Y-39095812D01*
X76690000Y-39108072D01*
X78390000Y-39108072D01*
X78514482Y-39095812D01*
X78634180Y-39059502D01*
X78744494Y-39000537D01*
X78841185Y-38921185D01*
X78920537Y-38824494D01*
X78979502Y-38714180D01*
X79015812Y-38594482D01*
X79028072Y-38470000D01*
X79028072Y-36770000D01*
X79015812Y-36645518D01*
X78979502Y-36525820D01*
X78920537Y-36415506D01*
X78841185Y-36318815D01*
X78744494Y-36239463D01*
X78634180Y-36180498D01*
X78514482Y-36144188D01*
X78390000Y-36131928D01*
X78300000Y-36131928D01*
X78300000Y-31932333D01*
X78303677Y-31895000D01*
X78289003Y-31746014D01*
X78245546Y-31602753D01*
X78174974Y-31470724D01*
X78103799Y-31383997D01*
X78080001Y-31354999D01*
X78051003Y-31331201D01*
X76868000Y-30148199D01*
X76868000Y-29967424D01*
X76824075Y-29746599D01*
X76737913Y-29538587D01*
X76612826Y-29351380D01*
X76453620Y-29192174D01*
X76266413Y-29067087D01*
X76058401Y-28980925D01*
X75837576Y-28937000D01*
X75612424Y-28937000D01*
X75391599Y-28980925D01*
X75183587Y-29067087D01*
X74996380Y-29192174D01*
X74837174Y-29351380D01*
X74712087Y-29538587D01*
X74625925Y-29746599D01*
X74582000Y-29967424D01*
X74582000Y-30152199D01*
X74578000Y-30148199D01*
X74578000Y-29967424D01*
X74534075Y-29746599D01*
X74447913Y-29538587D01*
X74322826Y-29351380D01*
X74163620Y-29192174D01*
X74007828Y-29088077D01*
X74039246Y-29078547D01*
X74171275Y-29007975D01*
X74287000Y-28913002D01*
X74310802Y-28883999D01*
X74511801Y-28683000D01*
X74692576Y-28683000D01*
X74913401Y-28639075D01*
X75121413Y-28552913D01*
X75308620Y-28427826D01*
X75467826Y-28268620D01*
X75592913Y-28081413D01*
X75679075Y-27873401D01*
X75723000Y-27652576D01*
X75723000Y-27427424D01*
X75688167Y-27252307D01*
X79674000Y-27252307D01*
X79674000Y-27827693D01*
X79786253Y-28392024D01*
X80006444Y-28923612D01*
X80326112Y-29402029D01*
X80732971Y-29808888D01*
X81211388Y-30128556D01*
X81742976Y-30348747D01*
X82307307Y-30461000D01*
X82882693Y-30461000D01*
X83447024Y-30348747D01*
X83978612Y-30128556D01*
X84457029Y-29808888D01*
X84863888Y-29402029D01*
X85183556Y-28923612D01*
X85403747Y-28392024D01*
X85516000Y-27827693D01*
X85516000Y-27252307D01*
X85403747Y-26687976D01*
X85183556Y-26156388D01*
X85074185Y-25992702D01*
X89186903Y-25992702D01*
X89258486Y-26236671D01*
X89513996Y-26357571D01*
X89788184Y-26426300D01*
X90070512Y-26440217D01*
X90350130Y-26398787D01*
X90616292Y-26303603D01*
X90741514Y-26236671D01*
X90813097Y-25992702D01*
X90000000Y-25179605D01*
X89186903Y-25992702D01*
X85074185Y-25992702D01*
X84863888Y-25677971D01*
X84457029Y-25271112D01*
X84156810Y-25070512D01*
X88559783Y-25070512D01*
X88601213Y-25350130D01*
X88696397Y-25616292D01*
X88763329Y-25741514D01*
X89007298Y-25813097D01*
X89820395Y-25000000D01*
X90179605Y-25000000D01*
X90992702Y-25813097D01*
X91236671Y-25741514D01*
X91357571Y-25486004D01*
X91426300Y-25211816D01*
X91440217Y-24929488D01*
X91429724Y-24858665D01*
X98725000Y-24858665D01*
X98725000Y-25141335D01*
X98780147Y-25418574D01*
X98888320Y-25679727D01*
X99045363Y-25914759D01*
X99245241Y-26114637D01*
X99480273Y-26271680D01*
X99741426Y-26379853D01*
X100018665Y-26435000D01*
X100301335Y-26435000D01*
X100578574Y-26379853D01*
X100839727Y-26271680D01*
X101074759Y-26114637D01*
X101274637Y-25914759D01*
X101431680Y-25679727D01*
X101539853Y-25418574D01*
X101595000Y-25141335D01*
X101595000Y-24858665D01*
X101539853Y-24581426D01*
X101431680Y-24320273D01*
X101274637Y-24085241D01*
X101074759Y-23885363D01*
X100839727Y-23728320D01*
X100578574Y-23620147D01*
X100301335Y-23565000D01*
X100018665Y-23565000D01*
X99741426Y-23620147D01*
X99480273Y-23728320D01*
X99245241Y-23885363D01*
X99045363Y-24085241D01*
X98888320Y-24320273D01*
X98780147Y-24581426D01*
X98725000Y-24858665D01*
X91429724Y-24858665D01*
X91398787Y-24649870D01*
X91303603Y-24383708D01*
X91236671Y-24258486D01*
X90992702Y-24186903D01*
X90179605Y-25000000D01*
X89820395Y-25000000D01*
X89007298Y-24186903D01*
X88763329Y-24258486D01*
X88642429Y-24513996D01*
X88573700Y-24788184D01*
X88559783Y-25070512D01*
X84156810Y-25070512D01*
X83978612Y-24951444D01*
X83447024Y-24731253D01*
X82882693Y-24619000D01*
X82307307Y-24619000D01*
X81742976Y-24731253D01*
X81211388Y-24951444D01*
X80732971Y-25271112D01*
X80326112Y-25677971D01*
X80006444Y-26156388D01*
X79786253Y-26687976D01*
X79674000Y-27252307D01*
X75688167Y-27252307D01*
X75679075Y-27206599D01*
X75592913Y-26998587D01*
X75467826Y-26811380D01*
X75308620Y-26652174D01*
X75121413Y-26527087D01*
X74913401Y-26440925D01*
X74692576Y-26397000D01*
X74467424Y-26397000D01*
X74246599Y-26440925D01*
X74038587Y-26527087D01*
X73851380Y-26652174D01*
X73692174Y-26811380D01*
X73567087Y-26998587D01*
X73480925Y-27206599D01*
X73437000Y-27427424D01*
X73437000Y-27608199D01*
X73433000Y-27612199D01*
X73433000Y-27427424D01*
X73389075Y-27206599D01*
X73302913Y-26998587D01*
X73177826Y-26811380D01*
X73018620Y-26652174D01*
X72831413Y-26527087D01*
X72623401Y-26440925D01*
X72402576Y-26397000D01*
X72221801Y-26397000D01*
X72020802Y-26196001D01*
X71997000Y-26166998D01*
X71881275Y-26072025D01*
X71749246Y-26001453D01*
X71717828Y-25991923D01*
X71873620Y-25887826D01*
X72032826Y-25728620D01*
X72157913Y-25541413D01*
X72244075Y-25333401D01*
X72288000Y-25112576D01*
X72288000Y-24887424D01*
X72292000Y-24887424D01*
X72292000Y-25112576D01*
X72335925Y-25333401D01*
X72422087Y-25541413D01*
X72547174Y-25728620D01*
X72706380Y-25887826D01*
X72893587Y-26012913D01*
X73101599Y-26099075D01*
X73322424Y-26143000D01*
X73547576Y-26143000D01*
X73768401Y-26099075D01*
X73976413Y-26012913D01*
X74163620Y-25887826D01*
X74322826Y-25728620D01*
X74447913Y-25541413D01*
X74534075Y-25333401D01*
X74578000Y-25112576D01*
X74578000Y-24887424D01*
X74582000Y-24887424D01*
X74582000Y-25112576D01*
X74625925Y-25333401D01*
X74712087Y-25541413D01*
X74837174Y-25728620D01*
X74996380Y-25887826D01*
X75183587Y-26012913D01*
X75391599Y-26099075D01*
X75612424Y-26143000D01*
X75837576Y-26143000D01*
X76058401Y-26099075D01*
X76266413Y-26012913D01*
X76453620Y-25887826D01*
X76612826Y-25728620D01*
X76737913Y-25541413D01*
X76824075Y-25333401D01*
X76868000Y-25112576D01*
X76868000Y-24887424D01*
X76824075Y-24666599D01*
X76737913Y-24458587D01*
X76612826Y-24271380D01*
X76453620Y-24112174D01*
X76296662Y-24007298D01*
X89186903Y-24007298D01*
X90000000Y-24820395D01*
X90813097Y-24007298D01*
X90741514Y-23763329D01*
X90486004Y-23642429D01*
X90211816Y-23573700D01*
X89929488Y-23559783D01*
X89649870Y-23601213D01*
X89383708Y-23696397D01*
X89258486Y-23763329D01*
X89186903Y-24007298D01*
X76296662Y-24007298D01*
X76266413Y-23987087D01*
X76058401Y-23900925D01*
X75837576Y-23857000D01*
X75612424Y-23857000D01*
X75391599Y-23900925D01*
X75183587Y-23987087D01*
X74996380Y-24112174D01*
X74837174Y-24271380D01*
X74712087Y-24458587D01*
X74625925Y-24666599D01*
X74582000Y-24887424D01*
X74578000Y-24887424D01*
X74534075Y-24666599D01*
X74447913Y-24458587D01*
X74322826Y-24271380D01*
X74163620Y-24112174D01*
X73976413Y-23987087D01*
X73768401Y-23900925D01*
X73547576Y-23857000D01*
X73322424Y-23857000D01*
X73101599Y-23900925D01*
X72893587Y-23987087D01*
X72706380Y-24112174D01*
X72547174Y-24271380D01*
X72422087Y-24458587D01*
X72335925Y-24666599D01*
X72292000Y-24887424D01*
X72288000Y-24887424D01*
X72244075Y-24666599D01*
X72157913Y-24458587D01*
X72032826Y-24271380D01*
X71873620Y-24112174D01*
X71686413Y-23987087D01*
X71478401Y-23900925D01*
X71257576Y-23857000D01*
X71032424Y-23857000D01*
X70811599Y-23900925D01*
X70603587Y-23987087D01*
X70416380Y-24112174D01*
X70257174Y-24271380D01*
X70132087Y-24458587D01*
X70045925Y-24666599D01*
X70002000Y-24887424D01*
X70002000Y-25112576D01*
X70045925Y-25333401D01*
X70132087Y-25541413D01*
X70257174Y-25728620D01*
X70416380Y-25887826D01*
X70504939Y-25946999D01*
X69495061Y-25946999D01*
X69583620Y-25887826D01*
X69742826Y-25728620D01*
X69867913Y-25541413D01*
X69954075Y-25333401D01*
X69998000Y-25112576D01*
X69998000Y-24887424D01*
X69954075Y-24666599D01*
X69867913Y-24458587D01*
X69742826Y-24271380D01*
X69583620Y-24112174D01*
X69396413Y-23987087D01*
X69188401Y-23900925D01*
X68967576Y-23857000D01*
X68742424Y-23857000D01*
X68521599Y-23900925D01*
X68313587Y-23987087D01*
X68126380Y-24112174D01*
X67967174Y-24271380D01*
X67842087Y-24458587D01*
X67755925Y-24666599D01*
X67712000Y-24887424D01*
X67712000Y-25112576D01*
X67755925Y-25333401D01*
X67842087Y-25541413D01*
X67967174Y-25728620D01*
X68126380Y-25887826D01*
X68214939Y-25946999D01*
X67141817Y-25946999D01*
X67169292Y-25783897D01*
X66565000Y-25179605D01*
X65960708Y-25783897D01*
X65988183Y-25946999D01*
X63330323Y-25946999D01*
X63293000Y-25943323D01*
X63255677Y-25946999D01*
X63255668Y-25946999D01*
X63144015Y-25957996D01*
X63000754Y-26001453D01*
X62868725Y-26072025D01*
X62868723Y-26072026D01*
X62868724Y-26072026D01*
X62781997Y-26143200D01*
X62781993Y-26143204D01*
X62753000Y-26166998D01*
X62729206Y-26195991D01*
X61788998Y-27136201D01*
X61760000Y-27159999D01*
X61736202Y-27188997D01*
X61736201Y-27188998D01*
X61665026Y-27275724D01*
X61594454Y-27407754D01*
X61579819Y-27456002D01*
X61551904Y-27548029D01*
X61550998Y-27551015D01*
X61536324Y-27700000D01*
X61540001Y-27737332D01*
X61540000Y-36341821D01*
X61353368Y-36466525D01*
X61146525Y-36673368D01*
X60984010Y-36916589D01*
X60920564Y-37069761D01*
X51103110Y-27252307D01*
X55629000Y-27252307D01*
X55629000Y-27827693D01*
X55741253Y-28392024D01*
X55961444Y-28923612D01*
X56281112Y-29402029D01*
X56687971Y-29808888D01*
X57166388Y-30128556D01*
X57697976Y-30348747D01*
X58262307Y-30461000D01*
X58837693Y-30461000D01*
X59402024Y-30348747D01*
X59933612Y-30128556D01*
X60412029Y-29808888D01*
X60818888Y-29402029D01*
X61138556Y-28923612D01*
X61358747Y-28392024D01*
X61471000Y-27827693D01*
X61471000Y-27252307D01*
X61358747Y-26687976D01*
X61138556Y-26156388D01*
X60818888Y-25677971D01*
X60412029Y-25271112D01*
X60129134Y-25082087D01*
X65419407Y-25082087D01*
X65457434Y-25304004D01*
X65538024Y-25514238D01*
X65566869Y-25568204D01*
X65781103Y-25604292D01*
X66385395Y-25000000D01*
X66744605Y-25000000D01*
X67348897Y-25604292D01*
X67563131Y-25568204D01*
X67654803Y-25362561D01*
X67704595Y-25142984D01*
X67710593Y-24917913D01*
X67672566Y-24695996D01*
X67591976Y-24485762D01*
X67563131Y-24431796D01*
X67348897Y-24395708D01*
X66744605Y-25000000D01*
X66385395Y-25000000D01*
X65781103Y-24395708D01*
X65566869Y-24431796D01*
X65475197Y-24637439D01*
X65425405Y-24857016D01*
X65419407Y-25082087D01*
X60129134Y-25082087D01*
X59933612Y-24951444D01*
X59402024Y-24731253D01*
X58837693Y-24619000D01*
X58262307Y-24619000D01*
X57697976Y-24731253D01*
X57166388Y-24951444D01*
X56687971Y-25271112D01*
X56281112Y-25677971D01*
X55961444Y-26156388D01*
X55741253Y-26687976D01*
X55629000Y-27252307D01*
X51103110Y-27252307D01*
X49867381Y-26016578D01*
X49897673Y-25996338D01*
X50076338Y-25817673D01*
X50216714Y-25607586D01*
X50313406Y-25374150D01*
X50362700Y-25126335D01*
X50362700Y-24873665D01*
X50313406Y-24625850D01*
X50216714Y-24392414D01*
X50076338Y-24182327D01*
X49897673Y-24003662D01*
X49687586Y-23863286D01*
X49454150Y-23766594D01*
X49206335Y-23717300D01*
X48953665Y-23717300D01*
X48705850Y-23766594D01*
X48472414Y-23863286D01*
X48262327Y-24003662D01*
X48083662Y-24182327D01*
X47943286Y-24392414D01*
X47846594Y-24625850D01*
X47810000Y-24809818D01*
X47773406Y-24625850D01*
X47676714Y-24392414D01*
X47536338Y-24182327D01*
X47357673Y-24003662D01*
X47147586Y-23863286D01*
X46914150Y-23766594D01*
X46666335Y-23717300D01*
X46413665Y-23717300D01*
X46165850Y-23766594D01*
X45932414Y-23863286D01*
X45722327Y-24003662D01*
X45543662Y-24182327D01*
X45403286Y-24392414D01*
X45306594Y-24625850D01*
X45270000Y-24809818D01*
X45233406Y-24625850D01*
X45136714Y-24392414D01*
X44996338Y-24182327D01*
X44817673Y-24003662D01*
X44607586Y-23863286D01*
X44374150Y-23766594D01*
X44126335Y-23717300D01*
X43873665Y-23717300D01*
X43625850Y-23766594D01*
X43392414Y-23863286D01*
X43182327Y-24003662D01*
X43003662Y-24182327D01*
X42863286Y-24392414D01*
X42766594Y-24625850D01*
X42729206Y-24813808D01*
X42706975Y-24673916D01*
X42619399Y-24436908D01*
X42572321Y-24348832D01*
X42343882Y-24295723D01*
X41639605Y-25000000D01*
X41280395Y-25000000D01*
X40576118Y-24295723D01*
X40347679Y-24348832D01*
X40242015Y-24578347D01*
X40188444Y-24801995D01*
X40153406Y-24625850D01*
X40056714Y-24392414D01*
X39916338Y-24182327D01*
X39850129Y-24116118D01*
X40755723Y-24116118D01*
X41460000Y-24820395D01*
X42164277Y-24116118D01*
X42111168Y-23887679D01*
X41881653Y-23782015D01*
X41635934Y-23723157D01*
X41383454Y-23713369D01*
X41133916Y-23753025D01*
X40896908Y-23840601D01*
X40808832Y-23887679D01*
X40755723Y-24116118D01*
X39850129Y-24116118D01*
X39737673Y-24003662D01*
X39527586Y-23863286D01*
X39294150Y-23766594D01*
X39046335Y-23717300D01*
X38793665Y-23717300D01*
X38545850Y-23766594D01*
X38312414Y-23863286D01*
X38102327Y-24003662D01*
X37923662Y-24182327D01*
X37783286Y-24392414D01*
X37686594Y-24625850D01*
X37650000Y-24809818D01*
X37613406Y-24625850D01*
X37516714Y-24392414D01*
X37376338Y-24182327D01*
X37197673Y-24003662D01*
X36987586Y-23863286D01*
X36754150Y-23766594D01*
X36506335Y-23717300D01*
X36253665Y-23717300D01*
X36005850Y-23766594D01*
X35772414Y-23863286D01*
X35562327Y-24003662D01*
X35383662Y-24182327D01*
X35243286Y-24392414D01*
X35146594Y-24625850D01*
X35110000Y-24809818D01*
X35073406Y-24625850D01*
X34976714Y-24392414D01*
X34836338Y-24182327D01*
X34657673Y-24003662D01*
X34447586Y-23863286D01*
X34214150Y-23766594D01*
X33966335Y-23717300D01*
X33713665Y-23717300D01*
X33465850Y-23766594D01*
X33232414Y-23863286D01*
X33022327Y-24003662D01*
X32843662Y-24182327D01*
X32703286Y-24392414D01*
X32606594Y-24625850D01*
X32570000Y-24809818D01*
X32533406Y-24625850D01*
X32436714Y-24392414D01*
X32296338Y-24182327D01*
X32117673Y-24003662D01*
X31907586Y-23863286D01*
X31674150Y-23766594D01*
X31426335Y-23717300D01*
X31173665Y-23717300D01*
X30925850Y-23766594D01*
X30692414Y-23863286D01*
X30482327Y-24003662D01*
X30303662Y-24182327D01*
X30265126Y-24240000D01*
X23488072Y-24240000D01*
X23488072Y-24150000D01*
X23475812Y-24025518D01*
X23439502Y-23905820D01*
X23380537Y-23795506D01*
X23301185Y-23698815D01*
X23204494Y-23619463D01*
X23094180Y-23560498D01*
X22974482Y-23524188D01*
X22850000Y-23511928D01*
X21150000Y-23511928D01*
X21127000Y-23514193D01*
X21127000Y-21127000D01*
X47612721Y-21127000D01*
X47482148Y-21371285D01*
%TD*%
M02*
