  0
SECTION
  2
HEADER
  9
$ACADVER
  1
AC1015
  9
$ACADMAINTVER
 70
     6
  9
$DWGCODEPAGE
  3
ANSI_1252
  9
$INSBASE
 10
0.0
 20
0.0
 30
0.0
  9
$EXTMIN
 10
0.0
 20
0.0
 30
0.0
  9
$EXTMAX
 10
225.0
 20
225.0
 30
0.0
  9
$LIMMIN
 10
0.0
 20
0.0
  9
$LIMMAX
 10
420.0
 20
297.0
  9
$ORTHOMODE
 70
     0
  9
$REGENMODE
 70
     1
  9
$FILLMODE
 70
     1
  9
$QTEXTMODE
 70
     0
  9
$MIRRTEXT
 70
     1
  9
$LTSCALE
 40
1.0
  9
$ATTMODE
 70
     1
  9
$TEXTSIZE
 40
3.5
  9
$TRACEWID
 40
1.0
  9
$TEXTSTYLE
  7
Standard
  9
$CLAYER
  8
0
  9
$CELTYPE
  6
ByLayer
  9
$CECOLOR
 62
   256
  9
$CELTSCALE
 40
1.0
  9
$DISPSILH
 70
     0
  9
$DIMSCALE
 40
1.0
  9
$DIMASZ
 40
3.302
  9
$DIMEXO
 40
0.0
  9
$DIMDLI
 40
3.75
  9
$DIMRND
 40
0.0
  9
$DIMDLE
 40
0.0
  9
$DIMEXE
 40
1.0
  9
$DIMTP
 40
0.0
  9
$DIMTM
 40
0.0
  9
$DIMTXT
 40
3.5
  9
$DIMCEN
 40
2.5
  9
$DIMTSZ
 40
0.0
  9
$DIMTOL
 70
     0
  9
$DIMLIM
 70
     0
  9
$DIMTIH
 70
     1
  9
$DIMTOH
 70
     1
  9
$DIMSE1
 70
     0
  9
$DIMSE2
 70
     0
  9
$DIMTAD
 70
     1
  9
$DIMZIN
 70
     1
  9
$DIMBLK
  1

  9
$DIMASO
 70
     1
  9
$DIMSHO
 70
     1
  9
$DIMPOST
  1

  9
$DIMAPOST
  1

  9
$DIMALT
 70
     0
  9
$DIMALTD
 70
     3
  9
$DIMALTF
 40
0.0393700787
  9
$DIMLFAC
 40
1.0
  9
$DIMTOFL
 70
     1
  9
$DIMTVP
 40
0.0
  9
$DIMTIX
 70
     0
  9
$DIMSOXD
 70
     0
  9
$DIMSAH
 70
     0
  9
$DIMBLK1
  1

  9
$DIMBLK2
  1

  9
$DIMSTYLE
  2
ISO-25
  9
$DIMCLRD
 70
     0
  9
$DIMCLRE
 70
     0
  9
$DIMCLRT
 70
     0
  9
$DIMTFAC
 40
1.0
  9
$DIMGAP
 40
1.524
  9
$DIMJUST
 70
     0
  9
$DIMSD1
 70
     0
  9
$DIMSD2
 70
     0
  9
$DIMTOLJ
 70
     0
  9
$DIMTZIN
 70
     1
  9
$DIMALTZ
 70
     0
  9
$DIMALTTZ
 70
     0
  9
$DIMUPT
 70
     0
  9
$DIMDEC
 70
     2
  9
$DIMTDEC
 70
     2
  9
$DIMALTU
 70
     2
  9
$DIMALTTD
 70
     3
  9
$DIMTXSTY
  7
Standard
  9
$DIMAUNIT
 70
     0
  9
$DIMADEC
 70
     2
  9
$DIMALTRND
 40
0.0
  9
$DIMAZIN
 70
     0
  9
$DIMDSEP
 70
    44
  9
$DIMATFIT
 70
     3
  9
$DIMFRAC
 70
     0
  9
$DIMLDRBLK
  1

  9
$DIMLUNIT
 70
     2
  9
$DIMLWD
 70
    -2
  9
$DIMLWE
 70
    -2
  9
$DIMTMOVE
 70
     0
  9
$LUNITS
 70
     2
  9
$LUPREC
 70
     6
  9
$SKETCHINC
 40
1.0
  9
$FILLETRAD
 40
10.0
  9
$AUNITS
 70
     0
  9
$AUPREC
 70
     2
  9
$MENU
  1
.
  9
$ELEVATION
 40
0.0
  9
$PELEVATION
 40
0.0
  9
$THICKNESS
 40
0.0
  9
$LIMCHECK
 70
     0
  9
$CHAMFERA
 40
0.0
  9
$CHAMFERB
 40
0.0
  9
$CHAMFERC
 40
0.0
  9
$CHAMFERD
 40
0.0
  9
$SKPOLY
 70
     0
  9
$TDCREATE
 40
2459200.810451308
  9
$TDUCREATE
 40
2459201.060451308
  9
$TDUPDATE
 40
2459200.810464954
  9
$TDUUPDATE
 40
2459201.060464954
  9
$TDINDWG
 40
0.0000000116
  9
$TDUSRTIMER
 40
0.0000000116
  9
$USRTIMER
 70
     1
  9
$ANGBASE
 50
0.0
  9
$ANGDIR
 70
     0
  9
$PDMODE
 70
     0
  9
$PDSIZE
 40
-1.0
  9
$PLINEWID
 40
0.0
  9
$SPLFRAME
 70
     0
  9
$SPLINETYPE
 70
     6
  9
$SPLINESEGS
 70
     8
  9
$HANDSEED
  5
C5
  9
$SURFTAB1
 70
     6
  9
$SURFTAB2
 70
     6
  9
$SURFTYPE
 70
     6
  9
$SURFU
 70
     6
  9
$SURFV
 70
     6
  9
$UCSBASE
  2

  9
$UCSNAME
  2

  9
$UCSORG
 10
0.0
 20
0.0
 30
0.0
  9
$UCSXDIR
 10
1.0
 20
0.0
 30
0.0
  9
$UCSYDIR
 10
0.0
 20
1.0
 30
0.0
  9
$UCSORTHOREF
  2

  9
$UCSORTHOVIEW
 70
     0
  9
$UCSORGTOP
 10
0.0
 20
0.0
 30
0.0
  9
$UCSORGBOTTOM
 10
0.0
 20
0.0
 30
0.0
  9
$UCSORGLEFT
 10
0.0
 20
0.0
 30
0.0
  9
$UCSORGRIGHT
 10
0.0
 20
0.0
 30
0.0
  9
$UCSORGFRONT
 10
0.0
 20
0.0
 30
0.0
  9
$UCSORGBACK
 10
0.0
 20
0.0
 30
0.0
  9
$PUCSBASE
  2

  9
$PUCSNAME
  2

  9
$PUCSORG
 10
0.0
 20
0.0
 30
0.0
  9
$PUCSXDIR
 10
1.0
 20
0.0
 30
0.0
  9
$PUCSYDIR
 10
0.0
 20
1.0
 30
0.0
  9
$PUCSORTHOREF
  2

  9
$PUCSORTHOVIEW
 70
     0
  9
$PUCSORGTOP
 10
0.0
 20
0.0
 30
0.0
  9
$PUCSORGBOTTOM
 10
0.0
 20
0.0
 30
0.0
  9
$PUCSORGLEFT
 10
0.0
 20
0.0
 30
0.0
  9
$PUCSORGRIGHT
 10
0.0
 20
0.0
 30
0.0
  9
$PUCSORGFRONT
 10
0.0
 20
0.0
 30
0.0
  9
$PUCSORGBACK
 10
0.0
 20
0.0
 30
0.0
  9
$USERI1
 70
     0
  9
$USERI2
 70
     0
  9
$USERI3
 70
     0
  9
$USERI4
 70
     0
  9
$USERI5
 70
     0
  9
$USERR1
 40
0.0
  9
$USERR2
 40
0.0
  9
$USERR3
 40
0.0
  9
$USERR4
 40
0.0
  9
$USERR5
 40
0.0
  9
$WORLDVIEW
 70
     1
  9
$SHADEDGE
 70
     3
  9
$SHADEDIF
 70
    70
  9
$TILEMODE
 70
     1
  9
$MAXACTVP
 70
    64
  9
$PINSBASE
 10
0.0
 20
0.0
 30
0.0
  9
$PLIMCHECK
 70
     0
  9
$PEXTMIN
 10
1.0000000000E+20
 20
1.0000000000E+20
 30
1.0000000000E+20
  9
$PEXTMAX
 10
-1.0000000000E+20
 20
-1.0000000000E+20
 30
-1.0000000000E+20
  9
$PLIMMIN
 10
0.0
 20
0.0
  9
$PLIMMAX
 10
420.0
 20
297.0
  9
$UNITMODE
 70
     0
  9
$VISRETAIN
 70
     1
  9
$PLINEGEN
 70
     0
  9
$PSLTSCALE
 70
     1
  9
$TREEDEPTH
 70
  3020
  9
$CMLSTYLE
  2
Standard
  9
$CMLJUST
 70
     0
  9
$CMLSCALE
 40
20.0
  9
$PROXYGRAPHICS
 70
     1
  9
$MEASUREMENT
 70
     1
  9
$CELWEIGHT
370
    -1
  9
$ENDCAPS
280
     0
  9
$JOINSTYLE
280
     0
  9
$LWDISPLAY
290
     1
  9
$INSUNITS
 70
     4
  9
$HYPERLINKBASE
  1

  9
$STYLESHEET
  1

  9
$XEDIT
290
     1
  9
$CEPSNTYPE
380
     0
  9
$PSTYLEMODE
290
     1
  9
$FINGERPRINTGUID
  2
{c2da9134-4e61-476f-b544-b576bc975fa5}
  9
$VERSIONGUID
  2
{FAEB1C32-E019-11D5-929B-00C0DF256EC4}
  9
$EXTNAMES
290
     1
  9
$PSVPSCALE
 40
0.0
  9
$OLESTARTUP
290
     0
  0
ENDSEC
  0
SECTION
  2
CLASSES
  0
CLASS
  1
ACDBDICTIONARYWDFLT
  2
AcDbDictionaryWithDefault
  3
ObjectDBX Classes
 90
        0
280
     0
281
     0
  0
CLASS
  1
VISUALSTYLE
  2
AcDbVisualStyle
  3
ObjectDBX Classes
 90
     4095
280
     0
281
     0
  0
CLASS
  1
MATERIAL
  2
AcDbMaterial
  3
ObjectDBX Classes
 90
     1153
280
     0
281
     0
  0
CLASS
  1
SCALE
  2
AcDbScale
  3
ObjectDBX Classes
 90
     1153
280
     0
281
     0
  0
CLASS
  1
TABLESTYLE
  2
AcDbTableStyle
  3
ObjectDBX Classes
 90
     4095
280
     0
281
     0
  0
CLASS
  1
MLEADERSTYLE
  2
AcDbMLeaderStyle
  3
ACDB_MLEADERSTYLE_CLASS
 90
     4095
280
     0
281
     0
  0
CLASS
  1
SUN
  2
AcDbSun
  3
SCENEOE
 90
     1153
280
     0
281
     0
  0
CLASS
  1
ACDBPLACEHOLDER
  2
AcDbPlaceHolder
  3
ObjectDBX Classes
 90
        0
280
     0
281
     0
  0
CLASS
  1
LAYOUT
  2
AcDbLayout
  3
ObjectDBX Classes
 90
        0
280
     0
281
     0
  0
ENDSEC
  0
SECTION
  2
TABLES
  0
TABLE
  2
VPORT
  5
8
330
0
100
AcDbSymbolTable
 70
     1
  0
VPORT
  5
29
330
8
100
AcDbSymbolTableRecord
100
AcDbViewportTableRecord
  2
*Active
 70
     0
 10
0.0
 20
0.0
 11
1.0
 21
1.0
 12
112.5
 22
112.5
 13
0.0
 23
0.0
 14
10.0
 24
10.0
 15
10.0
 25
10.0
 16
0.0
 26
0.0
 36
1.0
 17
0.0
 27
0.0
 37
0.0
 40
229.5
 41
1.0
 42
50.0
 43
0.0
 44
0.0
 50
0.0
 51
0.0
 71
     0
 72
   100
 73
     1
 74
     3
 75
     0
 76
     0
 77
     0
 78
     0
281
     0
 65
     1
110
0.0
120
0.0
130
0.0
111
1.0
121
0.0
131
0.0
112
0.0
122
1.0
132
0.0
 79
     0
146
0.0
  0
ENDTAB
  0
TABLE
  2
LTYPE
  5
5
330
0
100
AcDbSymbolTable
 70
     6
  0
LTYPE
  5
14
330
5
100
AcDbSymbolTableRecord
100
AcDbLinetypeTableRecord
  2
ByBlock
 70
     0
  3

 72
    65
 73
     0
 40
0.0
  0
LTYPE
  5
15
330
5
100
AcDbSymbolTableRecord
100
AcDbLinetypeTableRecord
  2
ByLayer
 70
     0
  3

 72
    65
 73
     0
 40
0.0
  0
LTYPE
  5
16
330
5
100
AcDbSymbolTableRecord
100
AcDbLinetypeTableRecord
  2
Continuous
 70
     0
  3
Solid line
 72
    65
 73
     0
 40
0.0
  0
LTYPE
  5
6E
330
5
100
AcDbSymbolTableRecord
100
AcDbLinetypeTableRecord
  2
HIDDEN
 70
     0
  3
Hidden __ __ __ __ __ __ __ __ __ __ __ __ __ __
 72
    65
 73
     2
 40
1.905
 49
1.27
 74
     0
 49
-0.635
 74
     0
  0
LTYPE
  5
6F
330
5
100
AcDbSymbolTableRecord
100
AcDbLinetypeTableRecord
  2
PHANTOM
 70
     0
  3
Phantom ______  __  __  ______  __  __  ______
 72
    65
 73
     6
 40
12.7
 49
6.35
 74
     0
 49
-1.27
 74
     0
 49
1.27
 74
     0
 49
-1.27
 74
     0
 49
1.27
 74
     0
 49
-1.27
 74
     0
  0
LTYPE
  5
70
330
5
100
AcDbSymbolTableRecord
100
AcDbLinetypeTableRecord
  2
CENTER
 70
     0
  3
Center ____ _ ____ _ ____ _ ____ _ ____ _ ____
 72
    65
 73
     4
 40
10.16
 49
6.35
 74
     0
 49
-1.27
 74
     0
 49
1.27
 74
     0
 49
-1.27
 74
     0
  0
LTYPE
  5
71
330
5
100
AcDbSymbolTableRecord
100
AcDbLinetypeTableRecord
  2
CENTERX2
 70
     0
  3
Center (2x) ________  __  ________  __  _____
 72
    65
 73
     4
 40
20.32
 49
12.7
 74
     0
 49
-2.54
 74
     0
 49
2.54
 74
     0
 49
-2.54
 74
     0
  0
LTYPE
  5
72
330
5
100
AcDbSymbolTableRecord
100
AcDbLinetypeTableRecord
  2
DOT2
 70
     0
  3
Dot (.5x) ........................................
 72
    65
 73
     2
 40
0.635
 49
0.0
 74
     0
 49
-0.635
 74
     0
  0
ENDTAB
  0
TABLE
  2
LAYER
  5
2
330
0
100
AcDbSymbolTable
 70
     1
  0
LAYER
  5
10
330
2
100
AcDbSymbolTableRecord
100
AcDbLayerTableRecord
  2
0
 70
     0
 62
     7
  6
Continuous
370
    -3
390
F
  0
ENDTAB
  0
TABLE
  2
STYLE
  5
3
330
0
100
AcDbSymbolTable
 70
     2
  0
STYLE
  5
11
330
3
100
AcDbSymbolTableRecord
100
AcDbTextStyleTableRecord
  2
Standard
 70
     0
 40
0.0
 41
1.0
 50
0.0
 71
     0
 42
3.5
  3
txt
  4

  0
STYLE
  5
C1
330
3
100
AcDbSymbolTableRecord
100
AcDbTextStyleTableRecord
  2
SLDTEXTSTYLE0
 70
     0
 40
0.0
 41
0.7
 50
0.0
 71
     0
 42
3.5
  3
TXT
  4

  0
ENDTAB
  0
TABLE
  2
VIEW
  5
6
330
0
100
AcDbSymbolTable
 70
     0
  0
ENDTAB
  0
TABLE
  2
UCS
  5
7
330
0
100
AcDbSymbolTable
 70
     0
  0
ENDTAB
  0
TABLE
  2
APPID
  5
9
330
0
100
AcDbSymbolTable
 70
     1
  0
APPID
  5
12
330
9
100
AcDbSymbolTableRecord
100
AcDbRegAppTableRecord
  2
ACAD
 70
     0
  0
ENDTAB
  0
TABLE
  2
DIMSTYLE
  5
A
330
0
100
AcDbSymbolTable
 70
     1
100
AcDbDimStyleTable
  0
DIMSTYLE
105
27
330
A
100
AcDbSymbolTableRecord
100
AcDbDimStyleTableRecord
  2
ISO-25
 70
     0
 41
2.5
 42
0.625
 43
3.75
 44
1.25
 73
     0
 74
     0
 77
     1
 78
     8
140
2.5
141
2.5
143
0.0393700787
147
0.625
171
     3
172
     1
178
     0
271
     2
272
     2
274
     3
278
    44
283
     0
284
     8
340
11
  0
ENDTAB
  0
TABLE
  2
BLOCK_RECORD
  5
1
330
0
100
AcDbSymbolTable
 70
     1
  0
BLOCK_RECORD
  5
1F
330
1
100
AcDbSymbolTableRecord
100
AcDbBlockTableRecord
  2
*Model_Space
340
22
  0
BLOCK_RECORD
  5
1B
330
1
100
AcDbSymbolTableRecord
100
AcDbBlockTableRecord
  2
*Paper_Space
340
1E
  0
BLOCK_RECORD
  5
23
330
1
100
AcDbSymbolTableRecord
100
AcDbBlockTableRecord
  2
*Paper_Space0
340
26
  0
ENDTAB
  0
ENDSEC
  0
SECTION
  2
BLOCKS
  0
BLOCK
  5
20
330
1F
100
AcDbEntity
  8
0
100
AcDbBlockBegin
  2
*Model_Space
 70
     0
 10
0.0
 20
0.0
 30
0.0
  3
*Model_Space
  1

  0
ENDBLK
  5
21
330
1F
100
AcDbEntity
  8
0
100
AcDbBlockEnd
  0
BLOCK
  5
1C
330
1B
100
AcDbEntity
 67
     1
  8
0
100
AcDbBlockBegin
  2
*Paper_Space
 70
     0
 10
0.0
 20
0.0
 30
0.0
  3
*Paper_Space
  1

  0
ENDBLK
  5
1D
330
1B
100
AcDbEntity
 67
     1
  8
0
100
AcDbBlockEnd
  0
BLOCK
  5
24
330
23
100
AcDbEntity
  8
0
100
AcDbBlockBegin
  2
*Paper_Space0
 70
     0
 10
0.0
 20
0.0
 30
0.0
  3
*Paper_Space0
  1

  0
ENDBLK
  5
25
330
23
100
AcDbEntity
  8
0
100
AcDbBlockEnd
  0
ENDSEC
  0
SECTION
  2
ENTITIES
  0
LINE
  5
73
330
1F
100
AcDbEntity
  8
0
  6
Continuous
 62
     7
370
    25
100
AcDbLine
 10
32.1428571429
 20
218.65
 30
0.0
 11
64.2857142857
 21
218.65
 31
0.0
  0
LINE
  5
74
330
1F
100
AcDbEntity
  8
0
  6
Continuous
 62
     7
370
    25
100
AcDbLine
 10
32.1428571429
 20
225.0
 30
0.0
 11
32.1428571429
 21
218.65
 31
0.0
  0
LINE
  5
75
330
1F
100
AcDbEntity
  8
0
  6
Continuous
 62
     7
370
    25
100
AcDbLine
 10
6.35
 20
225.0
 30
0.0
 11
32.1428571429
 21
225.0
 31
0.0
  0
LINE
  5
76
330
1F
100
AcDbEntity
  8
0
  6
Continuous
 62
     7
370
    25
100
AcDbLine
 10
6.35
 20
192.8571428571
 30
0.0
 11
6.35
 21
225.0
 31
0.0
  0
LINE
  5
77
330
1F
100
AcDbEntity
  8
0
  6
Continuous
 62
     7
370
    25
100
AcDbLine
 10
0.0
 20
192.8571428571
 30
0.0
 11
6.35
 21
192.8571428571
 31
0.0
  0
LINE
  5
78
330
1F
100
AcDbEntity
  8
0
  6
Continuous
 62
     7
370
    25
100
AcDbLine
 10
0.0
 20
160.7142857143
 30
0.0
 11
0.0
 21
192.8571428571
 31
0.0
  0
LINE
  5
79
330
1F
100
AcDbEntity
  8
0
  6
Continuous
 62
     7
370
    25
100
AcDbLine
 10
0.0
 20
160.7142857143
 30
0.0
 11
6.35
 21
160.7142857143
 31
0.0
  0
LINE
  5
7A
330
1F
100
AcDbEntity
  8
0
  6
Continuous
 62
     7
370
    25
100
AcDbLine
 10
6.35
 20
128.5714285714
 30
0.0
 11
6.35
 21
160.7142857143
 31
0.0
  0
LINE
  5
7B
330
1F
100
AcDbEntity
  8
0
  6
Continuous
 62
     7
370
    25
100
AcDbLine
 10
0.0
 20
128.5714285714
 30
0.0
 11
6.35
 21
128.5714285714
 31
0.0
  0
LINE
  5
7C
330
1F
100
AcDbEntity
  8
0
  6
Continuous
 62
     7
370
    25
100
AcDbLine
 10
0.0
 20
96.4285714286
 30
0.0
 11
0.0
 21
128.5714285714
 31
0.0
  0
LINE
  5
7D
330
1F
100
AcDbEntity
  8
0
  6
Continuous
 62
     7
370
    25
100
AcDbLine
 10
0.0
 20
96.4285714286
 30
0.0
 11
6.35
 21
96.4285714286
 31
0.0
  0
LINE
  5
7E
330
1F
100
AcDbEntity
  8
0
  6
Continuous
 62
     7
370
    25
100
AcDbLine
 10
6.35
 20
64.2857142857
 30
0.0
 11
6.35
 21
96.4285714286
 31
0.0
  0
LINE
  5
7F
330
1F
100
AcDbEntity
  8
0
  6
Continuous
 62
     7
370
    25
100
AcDbLine
 10
0.0
 20
64.2857142857
 30
0.0
 11
6.35
 21
64.2857142857
 31
0.0
  0
LINE
  5
80
330
1F
100
AcDbEntity
  8
0
  6
Continuous
 62
     7
370
    25
100
AcDbLine
 10
0.0
 20
32.1428571429
 30
0.0
 11
0.0
 21
64.2857142857
 31
0.0
  0
LINE
  5
81
330
1F
100
AcDbEntity
  8
0
  6
Continuous
 62
     7
370
    25
100
AcDbLine
 10
0.0
 20
32.1428571429
 30
0.0
 11
6.35
 21
32.1428571429
 31
0.0
  0
LINE
  5
82
330
1F
100
AcDbEntity
  8
0
  6
Continuous
 62
     7
370
    25
100
AcDbLine
 10
6.35
 20
0.0
 30
0.0
 11
6.35
 21
32.1428571429
 31
0.0
  0
LINE
  5
83
330
1F
100
AcDbEntity
  8
0
  6
Continuous
 62
     7
370
    25
100
AcDbLine
 10
6.35
 20
0.0
 30
0.0
 11
32.1428571429
 21
0.0
 31
0.0
  0
LINE
  5
84
330
1F
100
AcDbEntity
  8
0
  6
Continuous
 62
     7
370
    25
100
AcDbLine
 10
32.1428571429
 20
0.0
 30
0.0
 11
32.1428571429
 21
6.35
 31
0.0
  0
LINE
  5
85
330
1F
100
AcDbEntity
  8
0
  6
Continuous
 62
     7
370
    25
100
AcDbLine
 10
32.1428571429
 20
6.35
 30
0.0
 11
64.2857142857
 21
6.35
 31
0.0
  0
LINE
  5
86
330
1F
100
AcDbEntity
  8
0
  6
Continuous
 62
     7
370
    25
100
AcDbLine
 10
64.2857142857
 20
0.0
 30
0.0
 11
64.2857142857
 21
6.35
 31
0.0
  0
LINE
  5
87
330
1F
100
AcDbEntity
  8
0
  6
Continuous
 62
     7
370
    25
100
AcDbLine
 10
64.2857142857
 20
0.0
 30
0.0
 11
96.4285714286
 21
0.0
 31
0.0
  0
LINE
  5
88
330
1F
100
AcDbEntity
  8
0
  6
Continuous
 62
     7
370
    25
100
AcDbLine
 10
96.4285714286
 20
0.0
 30
0.0
 11
96.4285714286
 21
6.35
 31
0.0
  0
LINE
  5
89
330
1F
100
AcDbEntity
  8
0
  6
Continuous
 62
     7
370
    25
100
AcDbLine
 10
96.4285714286
 20
6.35
 30
0.0
 11
128.5714285714
 21
6.35
 31
0.0
  0
LINE
  5
8A
330
1F
100
AcDbEntity
  8
0
  6
Continuous
 62
     7
370
    25
100
AcDbLine
 10
128.5714285714
 20
0.0
 30
0.0
 11
128.5714285714
 21
6.35
 31
0.0
  0
LINE
  5
8B
330
1F
100
AcDbEntity
  8
0
  6
Continuous
 62
     7
370
    25
100
AcDbLine
 10
128.5714285714
 20
0.0
 30
0.0
 11
160.7142857143
 21
0.0
 31
0.0
  0
LINE
  5
8C
330
1F
100
AcDbEntity
  8
0
  6
Continuous
 62
     7
370
    25
100
AcDbLine
 10
160.7142857143
 20
0.0
 30
0.0
 11
160.7142857143
 21
6.35
 31
0.0
  0
LINE
  5
8D
330
1F
100
AcDbEntity
  8
0
  6
Continuous
 62
     7
370
    25
100
AcDbLine
 10
160.7142857143
 20
6.35
 30
0.0
 11
192.8571428571
 21
6.35
 31
0.0
  0
LINE
  5
8E
330
1F
100
AcDbEntity
  8
0
  6
Continuous
 62
     7
370
    25
100
AcDbLine
 10
192.8571428571
 20
0.0
 30
0.0
 11
192.8571428571
 21
6.35
 31
0.0
  0
LINE
  5
8F
330
1F
100
AcDbEntity
  8
0
  6
Continuous
 62
     7
370
    25
100
AcDbLine
 10
192.8571428571
 20
0.0
 30
0.0
 11
218.65
 21
0.0
 31
0.0
  0
LINE
  5
90
330
1F
100
AcDbEntity
  8
0
  6
Continuous
 62
     7
370
    25
100
AcDbLine
 10
218.65
 20
0.0
 30
0.0
 11
218.65
 21
32.1428571429
 31
0.0
  0
LINE
  5
91
330
1F
100
AcDbEntity
  8
0
  6
Continuous
 62
     7
370
    25
100
AcDbLine
 10
225.0
 20
32.1428571429
 30
0.0
 11
218.65
 21
32.1428571429
 31
0.0
  0
LINE
  5
92
330
1F
100
AcDbEntity
  8
0
  6
Continuous
 62
     7
370
    25
100
AcDbLine
 10
225.0
 20
32.1428571429
 30
0.0
 11
225.0
 21
64.2857142857
 31
0.0
  0
LINE
  5
93
330
1F
100
AcDbEntity
  8
0
  6
Continuous
 62
     7
370
    25
100
AcDbLine
 10
225.0
 20
64.2857142857
 30
0.0
 11
218.65
 21
64.2857142857
 31
0.0
  0
LINE
  5
94
330
1F
100
AcDbEntity
  8
0
  6
Continuous
 62
     7
370
    25
100
AcDbLine
 10
218.65
 20
64.2857142857
 30
0.0
 11
218.65
 21
96.4285714286
 31
0.0
  0
LINE
  5
95
330
1F
100
AcDbEntity
  8
0
  6
Continuous
 62
     7
370
    25
100
AcDbLine
 10
225.0
 20
96.4285714286
 30
0.0
 11
218.65
 21
96.4285714286
 31
0.0
  0
LINE
  5
96
330
1F
100
AcDbEntity
  8
0
  6
Continuous
 62
     7
370
    25
100
AcDbLine
 10
225.0
 20
96.4285714286
 30
0.0
 11
225.0
 21
128.5714285714
 31
0.0
  0
LINE
  5
97
330
1F
100
AcDbEntity
  8
0
  6
Continuous
 62
     7
370
    25
100
AcDbLine
 10
225.0
 20
128.5714285714
 30
0.0
 11
218.65
 21
128.5714285714
 31
0.0
  0
LINE
  5
98
330
1F
100
AcDbEntity
  8
0
  6
Continuous
 62
     7
370
    25
100
AcDbLine
 10
218.65
 20
128.5714285714
 30
0.0
 11
218.65
 21
160.7142857143
 31
0.0
  0
LINE
  5
99
330
1F
100
AcDbEntity
  8
0
  6
Continuous
 62
     7
370
    25
100
AcDbLine
 10
225.0
 20
160.7142857143
 30
0.0
 11
218.65
 21
160.7142857143
 31
0.0
  0
LINE
  5
9A
330
1F
100
AcDbEntity
  8
0
  6
Continuous
 62
     7
370
    25
100
AcDbLine
 10
225.0
 20
160.7142857143
 30
0.0
 11
225.0
 21
192.8571428571
 31
0.0
  0
LINE
  5
9B
330
1F
100
AcDbEntity
  8
0
  6
Continuous
 62
     7
370
    25
100
AcDbLine
 10
225.0
 20
192.8571428571
 30
0.0
 11
218.65
 21
192.8571428571
 31
0.0
  0
LINE
  5
9C
330
1F
100
AcDbEntity
  8
0
  6
Continuous
 62
     7
370
    25
100
AcDbLine
 10
218.65
 20
192.8571428571
 30
0.0
 11
218.65
 21
225.0
 31
0.0
  0
LINE
  5
9D
330
1F
100
AcDbEntity
  8
0
  6
Continuous
 62
     7
370
    25
100
AcDbLine
 10
192.8571428571
 20
225.0
 30
0.0
 11
218.65
 21
225.0
 31
0.0
  0
LINE
  5
9E
330
1F
100
AcDbEntity
  8
0
  6
Continuous
 62
     7
370
    25
100
AcDbLine
 10
192.8571428571
 20
225.0
 30
0.0
 11
192.8571428571
 21
218.65
 31
0.0
  0
LINE
  5
9F
330
1F
100
AcDbEntity
  8
0
  6
Continuous
 62
     7
370
    25
100
AcDbLine
 10
160.7142857143
 20
218.65
 30
0.0
 11
192.8571428571
 21
218.65
 31
0.0
  0
LINE
  5
A0
330
1F
100
AcDbEntity
  8
0
  6
Continuous
 62
     7
370
    25
100
AcDbLine
 10
160.7142857143
 20
225.0
 30
0.0
 11
160.7142857143
 21
218.65
 31
0.0
  0
LINE
  5
A1
330
1F
100
AcDbEntity
  8
0
  6
Continuous
 62
     7
370
    25
100
AcDbLine
 10
128.5714285714
 20
225.0
 30
0.0
 11
160.7142857143
 21
225.0
 31
0.0
  0
LINE
  5
A2
330
1F
100
AcDbEntity
  8
0
  6
Continuous
 62
     7
370
    25
100
AcDbLine
 10
128.5714285714
 20
225.0
 30
0.0
 11
128.5714285714
 21
218.65
 31
0.0
  0
LINE
  5
A3
330
1F
100
AcDbEntity
  8
0
  6
Continuous
 62
     7
370
    25
100
AcDbLine
 10
96.4285714286
 20
218.65
 30
0.0
 11
128.5714285714
 21
218.65
 31
0.0
  0
LINE
  5
A4
330
1F
100
AcDbEntity
  8
0
  6
Continuous
 62
     7
370
    25
100
AcDbLine
 10
96.4285714286
 20
225.0
 30
0.0
 11
96.4285714286
 21
218.65
 31
0.0
  0
LINE
  5
A5
330
1F
100
AcDbEntity
  8
0
  6
Continuous
 62
     7
370
    25
100
AcDbLine
 10
64.2857142857
 20
225.0
 30
0.0
 11
96.4285714286
 21
225.0
 31
0.0
  0
LINE
  5
A6
330
1F
100
AcDbEntity
  8
0
  6
Continuous
 62
     7
370
    25
100
AcDbLine
 10
64.2857142857
 20
225.0
 30
0.0
 11
64.2857142857
 21
218.65
 31
0.0
  0
SPLINE
  5
A7
330
1F
100
AcDbEntity
  8
0
  6
Continuous
 62
     7
370
    25
100
AcDbSpline
210
0.0
220
0.0
230
1.0
 70
     8
 71
     3
 72
    23
 73
    19
 74
     0
 42
0.00000001
 43
0.00000001
 40
0.0
 40
0.0
 40
0.0
 40
0.0
 40
0.0645578459297198
 40
0.1270135315497584
 40
0.1879548102020915
 40
0.2480139127896339
 40
0.3077476818488372
 40
0.3682345146974852
 40
0.429469843942669
 40
0.4927434367465892
 40
0.5562577687060833
 40
0.6182167855431469
 40
0.6796554755875527
 40
0.7412455456206295
 40
0.8034152647056977
 40
0.8668154615439937
 40
0.9323283119492662
 40
0.9999999999999999
 40
0.9999999999999999
 40
0.9999999999999999
 40
0.9999999999999999
 10
191.9741458782362
 20
23.05555692295958
 30
0.0
 10
191.9757010717933
 20
23.11851237650086
 30
0.0
 10
191.9787608180268
 20
23.24237330106299
 30
0.0
 10
192.0047566134985
 20
23.42414725435211
 30
0.0
 10
192.0465754096901
 20
23.59829865320536
 30
0.0
 10
192.105972298285
 20
23.76450239779326
 30
0.0
 10
192.1812776495904
 20
23.9236326780253
 30
0.0
 10
192.2743042634299
 20
24.07447388287206
 30
0.0
 10
192.3839714056513
 20
24.21799068252859
 30
0.0
 10
192.5094189733349
 20
24.35200543382611
 30
0.0
 10
192.6469863086346
 20
24.4745447864484
 30
0.0
 10
192.7943051225238
 20
24.58235099019671
 30
0.0
 10
192.9510870694963
 20
24.67206850619581
 30
0.0
 10
193.1156049211719
 20
24.74706466862192
 30
0.0
 10
193.2890906027385
 20
24.80470913175775
 30
0.0
 10
193.471173971864
 20
24.84506231844572
 30
0.0
 10
193.6615128866452
 20
24.8701794347356
 30
0.0
 10
193.7913753122945
 20
24.87335464263842
 30
0.0
 10
193.8573590192618
 20
24.87496798065189
 30
0.0
  0
SPLINE
  5
A8
330
1F
100
AcDbEntity
  8
0
  6
Continuous
 62
     7
370
    25
100
AcDbSpline
210
0.0
220
0.0
230
1.0
 70
     8
 71
     3
 72
    23
 73
    19
 74
     0
 42
0.00000001
 43
0.00000001
 40
0.0
 40
0.0
 40
0.0
 40
0.0
 40
0.0685475367088979
 40
0.1356829456230542
 40
0.2012149895263302
 40
0.2656822347546947
 40
0.3292668348172547
 40
0.3923954278443362
 40
0.4550697616521497
 40
0.5171268500645108
 40
0.578790035286656
 40
0.6397398633435449
 40
0.7001915036663118
 40
0.7598062425966752
 40
0.8196283192750025
 40
0.8793547910462721
 40
0.9395116077646596
 40
0.9999999999999999
 40
0.9999999999999999
 40
0.9999999999999999
 40
0.9999999999999999
 10
193.8573590192618
 20
24.87496798065189
 30
0.0
 10
193.8975734912082
 20
24.87448584246102
 30
0.0
 10
193.977173988503
 20
24.87353149846742
 30
0.0
 10
194.0949266409154
 20
24.86422535635279
 30
0.0
 10
194.2095689678586
 20
24.84871175012566
 30
0.0
 10
194.321179949893
 20
24.82759568031256
 30
0.0
 10
194.4303025660959
 20
24.80138835884297
 30
0.0
 10
194.5361028069745
 20
24.7672480605264
 30
0.0
 10
194.639201493839
 20
24.72821152921079
 30
0.0
 10
194.7389484020155
 20
24.6832530632729
 30
0.0
 10
194.8348649521558
 20
24.63278632186605
 30
0.0
 10
194.926921270667
 20
24.57737069831974
 30
0.0
 10
195.0143861293749
 20
24.51707489281532
 30
0.0
 10
195.0978749778113
 20
24.45241171740568
 30
0.0
 10
195.1759911888874
 20
24.38201315811025
 30
0.0
 10
195.2509526674226
 20
24.30781556213659
 30
0.0
 10
195.3202137455841
 20
24.22768173797925
 30
0.0
 10
195.3629669405783
 20
24.17127680407032
 30
0.0
 10
195.3844022884926
 20
24.14299682680574
 30
0.0
  0
LINE
  5
A9
330
1F
100
AcDbEntity
  8
0
  6
Continuous
 62
     7
370
    25
100
AcDbLine
 10
195.3844022885
 20
24.1429968268
 30
0.0
 11
195.1095625449
 21
23.9326602883
 31
0.0
  0
SPLINE
  5
AA
330
1F
100
AcDbEntity
  8
0
  6
Continuous
 62
     7
370
    25
100
AcDbSpline
210
0.0
220
0.0
230
1.0
 70
     8
 71
     3
 72
    19
 73
    15
 74
     0
 42
0.00000001
 43
0.00000001
 40
0.0
 40
0.0
 40
0.0
 40
0.0
 40
0.0631632593634746
 40
0.1254749410306496
 40
0.1871212198160313
 40
0.2482943461143011
 40
0.3092948562551271
 40
0.3698500660671022
 40
0.430973375547377
 40
0.4924559896728137
 40
0.6161479662918553
 40
0.7408436984673646
 40
0.8681826486700448
 40
1.0
 40
1.0
 40
1.0
 40
1.0
 10
195.1095625449029
 20
23.9326602883442
 30
0.0
 10
195.0899566565467
 20
23.95602625817533
 30
0.0
 10
195.0510092097218
 20
24.00244317389866
 30
0.0
 10
194.9883500071977
 20
24.06762271837352
 30
0.0
 10
194.9230483643018
 20
24.12868797979627
 30
0.0
 10
194.8551292430855
 20
24.18592985942515
 30
0.0
 10
194.7833701235987
 20
24.23734662515992
 30
0.0
 10
194.7095093249328
 20
24.28561772810283
 30
0.0
 10
194.6323112797262
 20
24.32888546604538
 30
0.0
 10
194.5255595450808
 20
24.3813484521613
 30
0.0
 10
194.3859116968003
 20
24.43609460717353
 30
0.0
 10
194.2101168577273
 20
24.48199783847374
 30
0.0
 10
194.0266057592426
 20
24.51121901415804
 30
0.0
 10
193.9014081596156
 20
24.51438385561721
 30
0.0
 10
193.8377276090054
 20
24.51599362167753
 30
0.0
  0
SPLINE
  5
AB
330
1F
100
AcDbEntity
  8
0
  6
Continuous
 62
     7
370
    25
100
AcDbSpline
210
0.0
220
0.0
230
1.0
 70
     8
 71
     3
 72
    31
 73
    27
 74
     0
 42
0.00000001
 43
0.00000001
 40
0.0
 40
0.0
 40
0.0
 40
0.0
 40
0.0439549089061926
 40
0.0875018747976014
 40
0.130462626731486
 40
0.1727520205665118
 40
0.2154030673796083
 40
0.2576498297432442
 40
0.300152748957298
 40
0.3431214895020907
 40
0.3859251632064382
 40
0.4276857274027979
 40
0.468817950486587
 40
0.5094918001549952
 40
0.5498830310733503
 40
0.5899800229668898
 40
0.6304052300068382
 40
0.6708686260826405
 40
0.7113839438381744
 40
0.7516272580635847
 40
0.7917755768651908
 40
0.8324589188037403
 40
0.8733190450172891
 40
0.9145429556263491
 40
0.9569235582098848
 40
1.0
 40
1.0
 40
1.0
 40
1.0
 10
193.8377276090054
 20
24.51599362167753
 30
0.0
 10
193.802644309665
 20
24.51558965916769
 30
0.0
 10
193.7328033170941
 20
24.51478548330113
 30
0.0
 10
193.6291548435937
 20
24.50417635809622
 30
0.0
 10
193.5274417924623
 20
24.48926514805164
 30
0.0
 10
193.4277303262436
 20
24.46713982482818
 30
0.0
 10
193.3301473677043
 20
24.43916720575069
 30
0.0
 10
193.2340549656387
 20
24.40574179182699
 30
0.0
 10
193.1408443658416
 20
24.36438695196705
 30
0.0
 10
193.0492261276274
 20
24.31867869201015
 30
0.0
 10
192.9614469166321
 20
24.26705124726684
 30
0.0
 10
192.8783918688548
 20
24.2107378953853
 30
0.0
 10
192.8003639009336
 20
24.15036879894554
 30
0.0
 10
192.7273012888004
 20
24.08571769256773
 30
0.0
 10
192.6591293404649
 20
24.01707573209219
 30
0.0
 10
192.5963420296598
 20
23.94371139050312
 30
0.0
 10
192.5391566193943
 20
23.86585921698584
 30
0.0
 10
192.4864395943309
 20
23.78454580942752
 30
0.0
 10
192.4392268609762
 20
23.70000801779262
 30
0.0
 10
192.3996969815853
 20
23.61193294735413
 30
0.0
 10
192.3646918593797
 20
23.52182884432306
 30
0.0
 10
192.3369926167336
 20
23.42867768349434
 30
0.0
 10
192.3150680999023
 20
23.33313491765111
 30
0.0
 10
192.2999404366288
 20
23.23494412970113
 30
0.0
 10
192.2894519654345
 20
23.13431045010388
 30
0.0
 10
192.2886517885338
 20
23.06610113748946
 30
0.0
 10
192.2882484423388
 20
23.03171878193394
 30
0.0
  0
SPLINE
  5
AC
330
1F
100
AcDbEntity
  8
0
  6
Continuous
 62
     7
370
    25
100
AcDbSpline
210
0.0
220
0.0
230
1.0
 70
     8
 71
     3
 72
    23
 73
    19
 74
     0
 42
0.00000001
 43
0.00000001
 40
0.0
 40
0.0
 40
0.0
 40
0.0
 40
0.0643232165798416
 40
0.1262901037035554
 40
0.1867264692161337
 40
0.2461464323353439
 40
0.3055756426461394
 40
0.3654293856180544
 40
0.4263263089482626
 40
0.4888399064006425
 40
0.551724971814047
 40
0.6139185964661646
 40
0.6754837657683977
 40
0.7373338970992825
 40
0.8002290443945281
 40
0.8645022981233283
 40
0.9310407391556949
 40
1.0
 40
1.0
 40
1.0
 40
1.0
 10
192.2882484423388
 20
23.03171878193394
 30
0.0
 10
192.2895102613626
 20
22.97998746201122
 30
0.0
 10
192.2919876756441
 20
22.87841987716179
 30
0.0
 10
192.3140360097246
 20
22.72964926662054
 30
0.0
 10
192.3475411010132
 20
22.58712859284027
 30
0.0
 10
192.397756677949
 20
22.45174875052935
 30
0.0
 10
192.4596757285094
 20
22.32184039247135
 30
0.0
 10
192.5379163400147
 20
22.19960153906493
 30
0.0
 10
192.628532877379
 20
22.08318497455338
 30
0.0
 10
192.7328072968401
 20
21.97534202680495
 30
0.0
 10
192.8472131128292
 20
21.87682830150683
 30
0.0
 10
192.9699610244232
 20
21.79007771999553
 30
0.0
 10
193.1007453122073
 20
21.71776283752916
 30
0.0
 10
193.2381219423938
 20
21.65758689101282
 30
0.0
 10
193.3831480563125
 20
21.61133016335728
 30
0.0
 10
193.5355628587263
 20
21.57876603985402
 30
0.0
 10
193.6950348539765
 20
21.55752385931241
 30
0.0
 10
193.8040042538665
 20
21.55549017124327
 30
0.0
 10
193.8594623846464
 20
21.55445516013906
 30
0.0
  0
SPLINE
  5
AD
330
1F
100
AcDbEntity
  8
0
  6
Continuous
 62
     7
370
    25
100
AcDbSpline
210
0.0
220
0.0
230
1.0
 70
     8
 71
     3
 72
    15
 73
    11
 74
     0
 42
0.00000001
 43
0.00000001
 40
0.0
 40
0.0
 40
0.0
 40
0.0
 40
0.1285151895116608
 40
0.2529486363526581
 40
0.3747547340060075
 40
0.495939753867057
 40
0.6171806414298873
 40
0.7409094692781384
 40
0.8678111481861956
 40
1.0
 40
1.0
 40
1.0
 40
1.0
 10
193.8594623846464
 20
21.55445516013906
 30
0.0
 10
193.92056507364
 20
21.55614393988997
 30
0.0
 10
194.0408297825599
 20
21.55946786242951
 30
0.0
 10
194.2171978089014
 20
21.5876271115524
 30
0.0
 10
194.3860335745299
 20
21.63328502938739
 30
0.0
 10
194.5473461610715
 20
21.69718295170659
 30
0.0
 10
194.7006808072763
 20
21.78024823960933
 30
0.0
 10
194.8462774675853
 20
21.88094611701672
 30
0.0
 10
194.9842590380892
 20
22.00023444977736
 30
0.0
 10
195.0672303203256
 20
22.09131757803454
 30
0.0
 10
195.1095625449029
 20
22.1377884934724
 30
0.0
  0
LINE
  5
AE
330
1F
100
AcDbEntity
  8
0
  6
Continuous
 62
     7
370
    25
100
AcDbLine
 10
195.1095625449
 20
22.1377884935
 30
0.0
 11
195.3844022885
 21
21.9295553204
 31
0.0
  0
SPLINE
  5
AF
330
1F
100
AcDbEntity
  8
0
  6
Continuous
 62
     7
370
    25
100
AcDbSpline
210
0.0
220
0.0
230
1.0
 70
     8
 71
     3
 72
    23
 73
    19
 74
     0
 42
0.00000001
 43
0.00000001
 40
0.0
 40
0.0
 40
0.0
 40
0.0
 40
0.0616742388774292
 40
0.1230530616348109
 40
0.1834750007317081
 40
0.2437265005106071
 40
0.3042789165122503
 40
0.3648629209606793
 40
0.4259462039686159
 40
0.487391229965403
 40
0.5492203840754702
 40
0.6111435886926093
 40
0.6735285303101558
 40
0.7369614566573053
 40
0.8007852828728379
 40
0.8660125956416085
 40
0.9321007477905837
 40
0.9999999999999999
 40
0.9999999999999999
 40
0.9999999999999999
 40
0.9999999999999999
 10
195.3844022884926
 20
21.92955532039548
 30
0.0
 10
195.3622841786115
 20
21.90101686847217
 30
0.0
 10
195.3181539033461
 20
21.84407666219802
 30
0.0
 10
195.2466958863596
 20
21.76380495247396
 30
0.0
 10
195.171418588964
 20
21.68830091697484
 30
0.0
 10
195.0917628789571
 20
21.61817329574734
 30
0.0
 10
195.0086450873674
 20
21.5520188301425
 30
0.0
 10
194.9205727750227
 20
21.49171699886681
 30
0.0
 10
194.8287037425175
 20
21.43642611458443
 30
0.0
 10
194.7333492636118
 20
21.38579919007235
 30
0.0
 10
194.6346106508122
 20
21.34088194304786
 30
0.0
 10
194.5326062158702
 20
21.30242817525586
 30
0.0
 10
194.4277756403663
 20
21.26930328572333
 30
0.0
 10
194.3201141319541
 20
21.24205134899943
 30
0.0
 10
194.2093983751273
 20
21.22078026512598
 30
0.0
 10
194.096027901034
 20
21.20656059028122
 30
0.0
 10
193.979758025815
 20
21.19681867584639
 30
0.0
 10
193.9013166046893
 20
21.19593076002766
 30
0.0
 10
193.861565750031
 20
21.19548080116471
 30
0.0
  0
SPLINE
  5
B0
330
1F
100
AcDbEntity
  8
0
  6
Continuous
 62
     7
370
    25
100
AcDbSpline
210
0.0
220
0.0
230
1.0
 70
     8
 71
     3
 72
    23
 73
    19
 74
     0
 42
0.00000001
 43
0.00000001
 40
0.0
 40
0.0
 40
0.0
 40
0.0
 40
0.069662800899074
 40
0.1377495622582669
 40
0.2039167435177746
 40
0.2687798623293272
 40
0.3324137064772297
 40
0.3947535404471452
 40
0.456180031659174
 40
0.5169956491967257
 40
0.5773959379659592
 40
0.6371983435092843
 40
0.6969991842614652
 40
0.7567561942255585
 40
0.8165539052726093
 40
0.8769479965978754
 40
0.9381317879206036
 40
1.0
 40
1.0
 40
1.0
 40
1.0
 10
193.861565750031
 20
21.19548080116471
 30
0.0
 10
193.8239220829733
 20
21.19574279372049
 30
0.0
 10
193.7494863928766
 20
21.19626085155638
 30
0.0
 10
193.6395876412644
 20
21.20465301896732
 30
0.0
 10
193.5325980604628
 20
21.21610275587732
 30
0.0
 10
193.4288234345961
 20
21.2333428869413
 30
0.0
 10
193.3276974595497
 20
21.25368722699518
 30
0.0
 10
193.2301368750588
 20
21.2809584836204
 30
0.0
 10
193.1351816647004
 20
21.31150765021655
 30
0.0
 10
193.0432133240042
 20
21.34741263696127
 30
0.0
 10
192.9541536242076
 20
21.38792881949865
 30
0.0
 10
192.8682898128397
 20
21.43372037839976
 30
0.0
 10
192.7856613804408
 20
21.48440224306105
 30
0.0
 10
192.7054559595855
 20
21.53885725348471
 30
0.0
 10
192.6288583759105
 20
21.59883455535514
 30
0.0
 10
192.5552048505631
 20
21.66350118985878
 30
0.0
 10
192.4840823743304
 20
21.73263920061012
 30
0.0
 10
192.4400796893387
 20
21.7824940539525
 30
0.0
 10
192.4179559743901
 20
21.80756012808778
 30
0.0
  0
SPLINE
  5
B1
330
1F
100
AcDbEntity
  8
0
  6
Continuous
 62
     7
370
    25
100
AcDbSpline
210
0.0
220
0.0
230
1.0
 70
     8
 71
     3
 72
    15
 73
    11
 74
     0
 42
0.00000001
 43
0.00000001
 40
0.0
 40
0.0
 40
0.0
 40
0.0
 40
0.1243285095938613
 40
0.2471560163611974
 40
0.3687797492913401
 40
0.4907338624016521
 40
0.6136137718478479
 40
0.738957575722219
 40
0.8673105751912649
 40
1.0
 40
1.0
 40
1.0
 40
1.0
 10
192.4179559743901
 20
21.80756012808778
 30
0.0
 10
192.3825203308902
 20
21.85110131700491
 30
0.0
 10
192.3120768540625
 20
21.93765802741301
 30
0.0
 10
192.2219511705113
 20
22.07794400867145
 30
0.0
 10
192.144803615302
 20
22.2244122175473
 30
0.0
 10
192.0824276945239
 20
22.3778321463256
 30
0.0
 10
192.0336649613692
 20
22.53785953356608
 30
0.0
 10
191.9998837662895
 20
22.70457504797677
 30
0.0
 10
191.9779321618117
 20
22.87782299017897
 30
0.0
 10
191.9754218730305
 20
22.99565977883885
 30
0.0
 10
191.9741458782362
 20
23.05555692295958
 30
0.0
  0
SPLINE
  5
B2
330
1F
100
AcDbEntity
  8
0
  6
Continuous
 62
     7
370
    25
100
AcDbSpline
210
0.0
220
0.0
230
1.0
 70
     8
 71
     3
 72
    23
 73
    19
 74
     0
 42
0.00000001
 43
0.00000001
 40
0.0
 40
0.0
 40
0.0
 40
0.0
 40
0.0645578459297198
 40
0.1270135315497585
 40
0.1879548102020916
 40
0.2480139127896341
 40
0.3077476818488374
 40
0.3682345146974854
 40
0.4294698439426692
 40
0.4927434367465894
 40
0.5562577687060837
 40
0.6182167855431472
 40
0.6796554755875612
 40
0.7412455456206295
 40
0.8034152647056976
 40
0.8668154615439937
 40
0.9323283119492662
 40
1.0
 40
1.0
 40
1.0
 40
1.0
 10
188.0254279295182
 20
23.05555692295958
 30
0.0
 10
188.0269831230753
 20
23.11851237650086
 30
0.0
 10
188.0300428693089
 20
23.24237330106299
 30
0.0
 10
188.0560386647805
 20
23.42414725435211
 30
0.0
 10
188.0978574609722
 20
23.59829865320537
 30
0.0
 10
188.1572543495669
 20
23.76450239779324
 30
0.0
 10
188.2325597008725
 20
23.92363267802531
 30
0.0
 10
188.3255863147119
 20
24.07447388287205
 30
0.0
 10
188.4352534569334
 20
24.2179906825286
 30
0.0
 10
188.5607010246169
 20
24.35200543382611
 30
0.0
 10
188.6982683599167
 20
24.47454478644839
 30
0.0
 10
188.8455871738058
 20
24.58235099019672
 30
0.0
 10
189.0023691207783
 20
24.67206850619579
 30
0.0
 10
189.166886972454
 20
24.74706466862194
 30
0.0
 10
189.3403726540206
 20
24.80470913175776
 30
0.0
 10
189.522456023146
 20
24.84506231844571
 30
0.0
 10
189.7127949379273
 20
24.8701794347356
 30
0.0
 10
189.8426573635766
 20
24.87335464263843
 30
0.0
 10
189.9086410705439
 20
24.87496798065189
 30
0.0
  0
SPLINE
  5
B3
330
1F
100
AcDbEntity
  8
0
  6
Continuous
 62
     7
370
    25
100
AcDbSpline
210
0.0
220
0.0
230
1.0
 70
     8
 71
     3
 72
    23
 73
    19
 74
     0
 42
0.00000001
 43
0.00000001
 40
0.0
 40
0.0
 40
0.0
 40
0.0
 40
0.0685475367089136
 40
0.1356829456230541
 40
0.2012149895263301
 40
0.2656822347546945
 40
0.3292668348172698
 40
0.3923954278443362
 40
0.4550697616521496
 40
0.5171268500645105
 40
0.5787900352866557
 40
0.6397398633435447
 40
0.7001915036663114
 40
0.7598062425966747
 40
0.8196283192750139
 40
0.8793547910462723
 40
0.9395116077646597
 40
1.0
 40
1.0
 40
1.0
 40
1.0
 10
189.9086410705439
 20
24.87496798065189
 30
0.0
 10
189.9488555424903
 20
24.87448584246102
 30
0.0
 10
190.0284560397851
 20
24.87353149846742
 30
0.0
 10
190.1462086921975
 20
24.86422535635278
 30
0.0
 10
190.2608510191407
 20
24.84871175012568
 30
0.0
 10
190.372462001175
 20
24.82759568031254
 30
0.0
 10
190.4815846173779
 20
24.80138835884298
 30
0.0
 10
190.5873848582566
 20
24.76724806052639
 30
0.0
 10
190.690483545121
 20
24.72821152921078
 30
0.0
 10
190.7902304532976
 20
24.6832530632729
 30
0.0
 10
190.8861470034378
 20
24.63278632186604
 30
0.0
 10
190.9782033219492
 20
24.57737069831975
 30
0.0
 10
191.0656681806568
 20
24.51707489281531
 30
0.0
 10
191.1491570290934
 20
24.45241171740567
 30
0.0
 10
191.2272732401694
 20
24.38201315811027
 30
0.0
 10
191.3022347187046
 20
24.30781556213658
 30
0.0
 10
191.3714957968662
 20
24.22768173797925
 30
0.0
 10
191.4142489918604
 20
24.17127680407033
 30
0.0
 10
191.4356843397747
 20
24.14299682680574
 30
0.0
  0
LINE
  5
B4
330
1F
100
AcDbEntity
  8
0
  6
Continuous
 62
     7
370
    25
100
AcDbLine
 10
191.4356843398
 20
24.1429968268
 30
0.0
 11
191.1608445962
 21
23.9326602883
 31
0.0
  0
SPLINE
  5
B5
330
1F
100
AcDbEntity
  8
0
  6
Continuous
 62
     7
370
    25
100
AcDbSpline
210
0.0
220
0.0
230
1.0
 70
     8
 71
     3
 72
    19
 73
    15
 74
     0
 42
0.00000001
 43
0.00000001
 40
0.0
 40
0.0
 40
0.0
 40
0.0
 40
0.0631632593634745
 40
0.1254749410306362
 40
0.1871212198160318
 40
0.2482943461143016
 40
0.3092948562551275
 40
0.3698500660670864
 40
0.4309733755473779
 40
0.4924559896728144
 40
0.6161479662918559
 40
0.740843698467365
 40
0.868182648670045
 40
1.0
 40
1.0
 40
1.0
 40
1.0
 10
191.1608445961849
 20
23.9326602883442
 30
0.0
 10
191.1412387078287
 20
23.95602625817533
 30
0.0
 10
191.1022912610038
 20
24.00244317389865
 30
0.0
 10
191.0396320584798
 20
24.06762271837354
 30
0.0
 10
190.9743304155838
 20
24.12868797979626
 30
0.0
 10
190.9064112943677
 20
24.18592985942517
 30
0.0
 10
190.8346521748808
 20
24.23734662515991
 30
0.0
 10
190.7607913762148
 20
24.28561772810285
 30
0.0
 10
190.6835933310083
 20
24.32888546604537
 30
0.0
 10
190.5768415963628
 20
24.38134845216131
 30
0.0
 10
190.4371937480824
 20
24.43609460717353
 30
0.0
 10
190.2613989090093
 20
24.48199783847373
 30
0.0
 10
190.0778878105246
 20
24.51121901415804
 30
0.0
 10
189.9526902108976
 20
24.5143838556172
 30
0.0
 10
189.8890096602875
 20
24.51599362167753
 30
0.0
  0
SPLINE
  5
B6
330
1F
100
AcDbEntity
  8
0
  6
Continuous
 62
     7
370
    25
100
AcDbSpline
210
0.0
220
0.0
230
1.0
 70
     8
 71
     3
 72
    31
 73
    27
 74
     0
 42
0.00000001
 43
0.00000001
 40
0.0
 40
0.0
 40
0.0
 40
0.0
 40
0.0439549089061929
 40
0.0875018747976019
 40
0.1304626267314868
 40
0.1727520205665128
 40
0.2154030673795983
 40
0.2576498297432344
 40
0.3001527489572885
 40
0.3431214895020814
 40
0.3859251632064292
 40
0.4276857274027986
 40
0.468817950486588
 40
0.5094918001549964
 40
0.5498830310733518
 40
0.5899800229668838
 40
0.6304052300068393
 40
0.6708686260826356
 40
0.7113839438381753
 40
0.751627258063581
 40
0.7917755768651914
 40
0.8324589188037411
 40
0.8733190450172874
 40
0.9145429556263476
 40
0.9569235582098846
 40
1.0
 40
1.0
 40
1.0
 40
1.0
 10
189.8890096602875
 20
24.51599362167753
 30
0.0
 10
189.853926360947
 20
24.51558965916769
 30
0.0
 10
189.7840853683762
 20
24.51478548330114
 30
0.0
 10
189.6804368948756
 20
24.5041763580962
 30
0.0
 10
189.5787238437443
 20
24.48926514805164
 30
0.0
 10
189.4790123775257
 20
24.46713982482819
 30
0.0
 10
189.3814294189864
 20
24.43916720575069
 30
0.0
 10
189.2853370169208
 20
24.40574179182699
 30
0.0
 10
189.1921264171237
 20
24.36438695196705
 30
0.0
 10
189.1005081789095
 20
24.31867869201015
 30
0.0
 10
189.0127289679142
 20
24.26705124726684
 30
0.0
 10
188.9296739201368
 20
24.2107378953853
 30
0.0
 10
188.8516459522156
 20
24.15036879894553
 30
0.0
 10
188.7785833400825
 20
24.08571769256773
 30
0.0
 10
188.710411391747
 20
24.01707573209221
 30
0.0
 10
188.6476240809417
 20
23.9437113905031
 30
0.0
 10
188.5904386706764
 20
23.86585921698587
 30
0.0
 10
188.537721645613
 20
23.7845458094275
 30
0.0
 10
188.4905089122583
 20
23.70000801779263
 30
0.0
 10
188.4509790328674
 20
23.61193294735412
 30
0.0
 10
188.4159739106616
 20
23.52182884432305
 30
0.0
 10
188.3882746680158
 20
23.42867768349436
 30
0.0
 10
188.3663501511843
 20
23.3331349176511
 30
0.0
 10
188.3512224879108
 20
23.23494412970112
 30
0.0
 10
188.3407340167166
 20
23.13431045010389
 30
0.0
 10
188.3399338398158
 20
23.06610113748946
 30
0.0
 10
188.3395304936208
 20
23.03171878193394
 30
0.0
  0
SPLINE
  5
B7
330
1F
100
AcDbEntity
  8
0
  6
Continuous
 62
     7
370
    25
100
AcDbSpline
210
0.0
220
0.0
230
1.0
 70
     8
 71
     3
 72
    23
 73
    19
 74
     0
 42
0.00000001
 43
0.00000001
 40
0.0
 40
0.0
 40
0.0
 40
0.0
 40
0.0643232165798417
 40
0.1262901037035573
 40
0.1867264692161331
 40
0.2461464323353474
 40
0.3055756426461381
 40
0.3654293856180532
 40
0.4263263089482616
 40
0.4888399064006417
 40
0.5517249718140463
 40
0.6139185964661642
 40
0.6754837657683974
 40
0.737333897099293
 40
0.8002290443945278
 40
0.8645022981233282
 40
0.9310407391557062
 40
1.0
 40
1.0
 40
1.0
 40
1.0
 10
188.3395304936208
 20
23.03171878193394
 30
0.0
 10
188.3407923126447
 20
22.97998746201122
 30
0.0
 10
188.3432697269261
 20
22.87841987716178
 30
0.0
 10
188.3653180610066
 20
22.72964926662055
 30
0.0
 10
188.3988231522953
 20
22.58712859284027
 30
0.0
 10
188.4490387292309
 20
22.45174875052936
 30
0.0
 10
188.5109577797914
 20
22.32184039247134
 30
0.0
 10
188.5891983912967
 20
22.19960153906493
 30
0.0
 10
188.679814928661
 20
22.08318497455338
 30
0.0
 10
188.7840893481221
 20
21.97534202680495
 30
0.0
 10
188.8984951641112
 20
21.87682830150682
 30
0.0
 10
189.0212430757053
 20
21.79007771999554
 30
0.0
 10
189.1520273634893
 20
21.71776283752914
 30
0.0
 10
189.2894039936759
 20
21.65758689101283
 30
0.0
 10
189.4344301075946
 20
21.61133016335727
 30
0.0
 10
189.5868449100084
 20
21.57876603985402
 30
0.0
 10
189.7463169052585
 20
21.55752385931241
 30
0.0
 10
189.8552863051485
 20
21.55549017124326
 30
0.0
 10
189.9107444359285
 20
21.55445516013906
 30
0.0
  0
SPLINE
  5
B8
330
1F
100
AcDbEntity
  8
0
  6
Continuous
 62
     7
370
    25
100
AcDbSpline
210
0.0
220
0.0
230
1.0
 70
     8
 71
     3
 72
    15
 73
    11
 74
     0
 42
0.00000001
 43
0.00000001
 40
0.0
 40
0.0
 40
0.0
 40
0.0
 40
0.1285151895116606
 40
0.2529486363526578
 40
0.374754734006007
 40
0.4959397538670564
 40
0.6171806414298866
 40
0.7409094692781376
 40
0.8678111481862092
 40
1.0
 40
1.0
 40
1.0
 40
1.0
 10
189.9107444359285
 20
21.55445516013906
 30
0.0
 10
189.971847124922
 20
21.55614393988997
 30
0.0
 10
190.092111833842
 20
21.55946786242952
 30
0.0
 10
190.2684798601834
 20
21.58762711155239
 30
0.0
 10
190.4373156258121
 20
21.63328502938741
 30
0.0
 10
190.5986282123535
 20
21.69718295170659
 30
0.0
 10
190.7519628585583
 20
21.78024823960932
 30
0.0
 10
190.8975595188674
 20
21.88094611701674
 30
0.0
 10
191.0355410893713
 20
22.00023444977734
 30
0.0
 10
191.1185123716077
 20
22.09131757803454
 30
0.0
 10
191.1608445961849
 20
22.1377884934724
 30
0.0
  0
LINE
  5
B9
330
1F
100
AcDbEntity
  8
0
  6
Continuous
 62
     7
370
    25
100
AcDbLine
 10
191.1608445962
 20
22.1377884935
 30
0.0
 11
191.4356843398
 21
21.9295553204
 31
0.0
  0
SPLINE
  5
BA
330
1F
100
AcDbEntity
  8
0
  6
Continuous
 62
     7
370
    25
100
AcDbSpline
210
0.0
220
0.0
230
1.0
 70
     8
 71
     3
 72
    23
 73
    19
 74
     0
 42
0.00000001
 43
0.00000001
 40
0.0
 40
0.0
 40
0.0
 40
0.0
 40
0.0616742388774291
 40
0.1230530616348107
 40
0.1834750007316966
 40
0.2437265005106074
 40
0.3042789165122505
 40
0.3648629209606796
 40
0.425946203968616
 40
0.487391229965403
 40
0.5492203840754702
 40
0.6111435886925946
 40
0.6735285303101409
 40
0.7369614566573057
 40
0.8007852828728381
 40
0.8660125956416087
 40
0.9321007477905681
 40
0.9999999999999999
 40
0.9999999999999999
 40
0.9999999999999999
 40
0.9999999999999999
 10
191.4356843397747
 20
21.92955532039548
 30
0.0
 10
191.4135662298935
 20
21.90101686847216
 30
0.0
 10
191.3694359546281
 20
21.84407666219801
 30
0.0
 10
191.2979779376417
 20
21.76380495247398
 30
0.0
 10
191.2227006402461
 20
21.68830091697482
 30
0.0
 10
191.1430449302391
 20
21.61817329574735
 30
0.0
 10
191.0599271386494
 20
21.5520188301425
 30
0.0
 10
190.9718548263048
 20
21.49171699886681
 30
0.0
 10
190.8799857937996
 20
21.43642611458444
 30
0.0
 10
190.784631314894
 20
21.38579919007235
 30
0.0
 10
190.6858927020942
 20
21.34088194304785
 30
0.0
 10
190.5838882671523
 20
21.30242817525586
 30
0.0
 10
190.4790576916483
 20
21.26930328572331
 30
0.0
 10
190.3713961832362
 20
21.24205134899944
 30
0.0
 10
190.2606804264094
 20
21.22078026512599
 30
0.0
 10
190.147309952316
 20
21.20656059028122
 30
0.0
 10
190.0310400770971
 20
21.19681867584638
 30
0.0
 10
189.9525986559713
 20
21.19593076002766
 30
0.0
 10
189.9128478013131
 20
21.19548080116471
 30
0.0
  0
SPLINE
  5
BB
330
1F
100
AcDbEntity
  8
0
  6
Continuous
 62
     7
370
    25
100
AcDbSpline
210
0.0
220
0.0
230
1.0
 70
     8
 71
     3
 72
    23
 73
    19
 74
     0
 42
0.00000001
 43
0.00000001
 40
0.0
 40
0.0
 40
0.0
 40
0.0
 40
0.0696628008990743
 40
0.1377495622582673
 40
0.2039167435177752
 40
0.268779862329328
 40
0.332413706477214
 40
0.3947535404471297
 40
0.4561800316591588
 40
0.5169956491967106
 40
0.5773959379659442
 40
0.6371983435092696
 40
0.6969991842614507
 40
0.7567561942255583
 40
0.8165539052726093
 40
0.8769479965978756
 40
0.9381317879205918
 40
1.0
 40
1.0
 40
1.0
 40
1.0
 10
189.9128478013131
 20
21.19548080116471
 30
0.0
 10
189.8752041342554
 20
21.1957427937205
 30
0.0
 10
189.8007684441586
 20
21.19626085155637
 30
0.0
 10
189.6908696925466
 20
21.20465301896733
 30
0.0
 10
189.5838801117448
 20
21.21610275587732
 30
0.0
 10
189.4801054858782
 20
21.2333428869413
 30
0.0
 10
189.3789795108317
 20
21.25368722699517
 30
0.0
 10
189.281418926341
 20
21.28095848362041
 30
0.0
 10
189.1864637159824
 20
21.31150765021654
 30
0.0
 10
189.0944953752864
 20
21.34741263696128
 30
0.0
 10
189.0054356754897
 20
21.38792881949865
 30
0.0
 10
188.9195718641219
 20
21.43372037839978
 30
0.0
 10
188.8369434317229
 20
21.48440224306105
 30
0.0
 10
188.7567380108675
 20
21.5388572534847
 30
0.0
 10
188.6801404271926
 20
21.59883455535514
 30
0.0
 10
188.6064869018451
 20
21.66350118985877
 30
0.0
 10
188.5353644256127
 20
21.73263920061016
 30
0.0
 10
188.4913617406208
 20
21.7824940539525
 30
0.0
 10
188.4692380256721
 20
21.80756012808779
 30
0.0
  0
SPLINE
  5
BC
330
1F
100
AcDbEntity
  8
0
  6
Continuous
 62
     7
370
    25
100
AcDbSpline
210
0.0
220
0.0
230
1.0
 70
     8
 71
     3
 72
    15
 73
    11
 74
     0
 42
0.00000001
 43
0.00000001
 40
0.0
 40
0.0
 40
0.0
 40
0.0
 40
0.1243285095938493
 40
0.247156016361186
 40
0.3687797492913387
 40
0.4907338624016514
 40
0.6136137718478418
 40
0.7389575757222177
 40
0.8673105751912642
 40
1.0
 40
1.0
 40
1.0
 40
1.0
 10
188.4692380256721
 20
21.80756012808779
 30
0.0
 10
188.4338023821723
 20
21.85110131700491
 30
0.0
 10
188.3633589053445
 20
21.93765802741301
 30
0.0
 10
188.2732332217935
 20
22.07794400867148
 30
0.0
 10
188.196085666584
 20
22.22441221754728
 30
0.0
 10
188.133709745806
 20
22.37783214632561
 30
0.0
 10
188.0849470126513
 20
22.53785953356608
 30
0.0
 10
188.0511658175716
 20
22.70457504797677
 30
0.0
 10
188.0292142130937
 20
22.87782299017896
 30
0.0
 10
188.0267039243126
 20
22.99565977883885
 30
0.0
 10
188.0254279295182
 20
23.05555692295958
 30
0.0
  0
LINE
  5
BD
330
1F
100
AcDbEntity
  8
0
  6
Continuous
 62
     7
370
    25
100
AcDbLine
 10
186.2754279295
 20
22.4518910576
 30
0.0
 11
184.9292740834
 21
22.4518910576
 31
0.0
  0
LINE
  5
BE
330
1F
100
AcDbEntity
  8
0
  6
Continuous
 62
     7
370
    25
100
AcDbLine
 10
184.9292740834
 20
22.4518910576
 30
0.0
 11
184.9292740834
 21
22.8108654165
 31
0.0
  0
LINE
  5
BF
330
1F
100
AcDbEntity
  8
0
  6
Continuous
 62
     7
370
    25
100
AcDbLine
 10
184.9292740834
 20
22.8108654165
 30
0.0
 11
186.2754279295
 21
22.8108654165
 31
0.0
  0
LINE
  5
C0
330
1F
100
AcDbEntity
  8
0
  6
Continuous
 62
     7
370
    25
100
AcDbLine
 10
186.2754279295
 20
22.8108654165
 30
0.0
 11
186.2754279295
 21
22.4518910576
 31
0.0
  0
MTEXT
  5
C2
330
1F
100
AcDbEntity
  8
0
  6
Continuous
 62
     7
100
AcDbMText
 10
0.0
 20
-1.0195663917
 30
0.0
 40
4.83362
 41
0.0
 71
     1
 72
     1
  1
SOLIDWORKS Educational Product.
  7
SLDTEXTSTYLE0
 73
     1
 44
1.0
  0
MTEXT
  5
C3
330
1F
100
AcDbEntity
  8
0
  6
Continuous
 62
     7
100
AcDbMText
 10
0.0
 20
-8.2699963917
 30
0.0
 40
4.83362
 41
0.0
 71
     1
 72
     1
  1
For Instructional Use Only.
  7
SLDTEXTSTYLE0
 73
     1
 44
1.0
  0
ENDSEC
  0
SECTION
  2
OBJECTS
  0
DICTIONARY
  5
C
330
0
100
AcDbDictionary
281
     1
  3
ACAD_GROUP
350
D
  3
ACAD_LAYOUT
350
1A
  3
ACAD_MLINESTYLE
350
17
  3
ACAD_PLOTSETTINGS
350
19
  3
ACAD_PLOTSTYLENAME
350
E
  3
ACAD_SCALELIST
350
47
  3
DWGPROPS
350
C4
  0
DICTIONARY
  5
D
102
{ACAD_REACTORS
330
C
102
}
330
C
100
AcDbDictionary
281
     1
  0
DICTIONARY
  5
1A
102
{ACAD_REACTORS
330
C
102
}
330
C
100
AcDbDictionary
281
     1
  3
Layout1
350
1E
  3
Layout2
350
26
  3
Model
350
22
  0
DICTIONARY
  5
17
102
{ACAD_REACTORS
330
C
102
}
330
C
100
AcDbDictionary
281
     1
  3
Standard
350
18
  0
DICTIONARY
  5
19
102
{ACAD_REACTORS
330
C
102
}
330
C
100
AcDbDictionary
281
     1
  0
ACDBDICTIONARYWDFLT
  5
E
102
{ACAD_REACTORS
330
C
102
}
330
C
100
AcDbDictionary
281
     1
  3
Normal
350
F
100
AcDbDictionaryWithDefault
340
F
  0
DICTIONARY
  5
47
102
{ACAD_REACTORS
330
C
102
}
330
C
100
AcDbDictionary
281
     1
  3
A0
350
48
  3
A1
350
49
  3
A2
350
4A
  3
A3
350
4B
  3
A4
350
4C
  3
A5
350
4D
  3
A6
350
4E
  3
A7
350
4F
  3
A8
350
50
  3
A9
350
51
  3
B0
350
52
  3
B1
350
53
  3
B2
350
54
  3
B3
350
55
  3
B4
350
56
  3
B5
350
57
  3
B6
350
58
  3
B7
350
59
  3
B8
350
5A
  3
B9
350
5B
  3
C0
350
5C
  3
C1
350
5D
  3
C2
350
5E
  3
C3
350
5F
  3
C4
350
60
  3
C5
350
61
  3
C6
350
62
  3
C7
350
63
  3
C8
350
64
  3
C9
350
65
  3
D0
350
66
  3
D1
350
67
  3
D2
350
68
  0
XRECORD
  5
C4
102
{ACAD_REACTORS
330
C
102
}
330
C
100
AcDbXrecord
280
     1
  1
DWGPROPS COOKIE
  2

  3

  4

  6

  7

  8
ccade
  9

300
=
301
=
302
=
303
=
304
=
305
=
306
=
307
=
308
=
309
=
 40
0.0
 41
2459201.060451308
 42
2459201.060464954
  1

 90
        0
  0
LAYOUT
  5
1E
102
{ACAD_REACTORS
330
1A
102
}
330
1A
100
AcDbPlotSettings
  1

  2
none_device
  4

  6

 40
0.0
 41
0.0
 42
0.0
 43
0.0
 44
0.0
 45
0.0
 46
0.0
 47
0.0
 48
0.0
 49
0.0
140
0.0
141
0.0
142
1.0
143
1.0
 70
   688
 72
     1
 73
     0
 74
     5
  7

 75
    16
147
1.0
148
0.0
149
0.0
100
AcDbLayout
  1
Layout1
 70
     1
 71
     1
 10
0.0
 20
0.0
 11
420.0
 21
297.0
 12
0.0
 22
0.0
 32
0.0
 14
1.0000000000E+20
 24
1.0000000000E+20
 34
1.0000000000E+20
 15
-1.0000000000E+20
 25
-1.0000000000E+20
 35
-1.0000000000E+20
146
0.0
 13
0.0
 23
0.0
 33
0.0
 16
1.0
 26
0.0
 36
0.0
 17
0.0
 27
1.0
 37
0.0
 76
     0
330
1B
  0
LAYOUT
  5
26
102
{ACAD_REACTORS
330
1A
102
}
330
1A
100
AcDbPlotSettings
  1

  2
none_device
  4

  6

 40
0.0
 41
0.0
 42
0.0
 43
0.0
 44
0.0
 45
0.0
 46
0.0
 47
0.0
 48
0.0
 49
0.0
140
0.0
141
0.0
142
1.0
143
1.0
 70
   688
 72
     1
 73
     0
 74
     5
  7

 75
    16
147
1.0
148
0.0
149
0.0
100
AcDbLayout
  1
Layout2
 70
     1
 71
     2
 10
0.0
 20
0.0
 11
0.0
 21
0.0
 12
0.0
 22
0.0
 32
0.0
 14
0.0
 24
0.0
 34
0.0
 15
0.0
 25
0.0
 35
0.0
146
0.0
 13
0.0
 23
0.0
 33
0.0
 16
1.0
 26
0.0
 36
0.0
 17
0.0
 27
1.0
 37
0.0
 76
     0
330
23
  0
LAYOUT
  5
22
102
{ACAD_REACTORS
330
1A
102
}
330
1A
100
AcDbPlotSettings
  1

  2
none_device
  4
ANSI_A_(11.00_x_8.50_Inches)
  6

 40
6.35
 41
19.05
 42
6.35000508
 43
19.05000254
 44
279.4
 45
215.9
 46
26.47949746
 47
-17.97050127
 48
0.0
 49
0.0
140
0.0
141
0.0
142
0.0374
143
1.0
 70
  1696
 72
     0
 73
     0
 74
     0
  7

 75
     0
147
0.0179189148
148
-1300.4909072572
149
0.0
100
AcDbLayout
  1
Model
 70
     1
 71
     0
 10
0.0
 20
0.0
 11
420.0
 21
297.0
 12
0.0
 22
0.0
 32
0.0
 14
0.0
 24
0.0
 34
0.0
 15
225.0
 25
225.0
 35
0.0
146
0.0
 13
0.0
 23
0.0
 33
0.0
 16
1.0
 26
0.0
 36
0.0
 17
0.0
 27
1.0
 37
0.0
 76
     0
330
1F
331
29
  0
MLINESTYLE
  5
18
102
{ACAD_REACTORS
330
17
102
}
330
17
100
AcDbMlineStyle
  2
Standard
 70
     0
  3

 62
   256
 51
90.0
 52
90.0
 71
     2
 49
0.5
 62
   256
  6
BYLAYER
 49
-0.5
 62
   256
  6
BYLAYER
  0
ACDBPLACEHOLDER
  5
F
102
{ACAD_REACTORS
330
E
102
}
330
E
  0
SCALE
  5
48
102
{ACAD_REACTORS
330
47
102
}
330
47
100
AcDbScale
 70
     0
300
1:1
140
1.0
141
1.0
290
     1
  0
SCALE
  5
49
102
{ACAD_REACTORS
330
47
102
}
330
47
100
AcDbScale
 70
     0
300
1:2
140
1.0
141
2.0
290
     0
  0
SCALE
  5
4A
102
{ACAD_REACTORS
330
47
102
}
330
47
100
AcDbScale
 70
     0
300
1:4
140
1.0
141
4.0
290
     0
  0
SCALE
  5
4B
102
{ACAD_REACTORS
330
47
102
}
330
47
100
AcDbScale
 70
     0
300
1:5
140
1.0
141
5.0
290
     0
  0
SCALE
  5
4C
102
{ACAD_REACTORS
330
47
102
}
330
47
100
AcDbScale
 70
     0
300
1:8
140
1.0
141
8.0
290
     0
  0
SCALE
  5
4D
102
{ACAD_REACTORS
330
47
102
}
330
47
100
AcDbScale
 70
     0
300
1:10
140
1.0
141
10.0
290
     0
  0
SCALE
  5
4E
102
{ACAD_REACTORS
330
47
102
}
330
47
100
AcDbScale
 70
     0
300
1:16
140
1.0
141
16.0
290
     0
  0
SCALE
  5
4F
102
{ACAD_REACTORS
330
47
102
}
330
47
100
AcDbScale
 70
     0
300
1:20
140
1.0
141
20.0
290
     0
  0
SCALE
  5
50
102
{ACAD_REACTORS
330
47
102
}
330
47
100
AcDbScale
 70
     0
300
1:30
140
1.0
141
30.0
290
     0
  0
SCALE
  5
51
102
{ACAD_REACTORS
330
47
102
}
330
47
100
AcDbScale
 70
     0
300
1:40
140
1.0
141
40.0
290
     0
  0
SCALE
  5
52
102
{ACAD_REACTORS
330
47
102
}
330
47
100
AcDbScale
 70
     0
300
1:50
140
1.0
141
50.0
290
     0
  0
SCALE
  5
53
102
{ACAD_REACTORS
330
47
102
}
330
47
100
AcDbScale
 70
     0
300
1:100
140
1.0
141
100.0
290
     0
  0
SCALE
  5
54
102
{ACAD_REACTORS
330
47
102
}
330
47
100
AcDbScale
 70
     0
300
2:1
140
2.0
141
1.0
290
     0
  0
SCALE
  5
55
102
{ACAD_REACTORS
330
47
102
}
330
47
100
AcDbScale
 70
     0
300
4:1
140
4.0
141
1.0
290
     0
  0
SCALE
  5
56
102
{ACAD_REACTORS
330
47
102
}
330
47
100
AcDbScale
 70
     0
300
8:1
140
8.0
141
1.0
290
     0
  0
SCALE
  5
57
102
{ACAD_REACTORS
330
47
102
}
330
47
100
AcDbScale
 70
     0
300
10:1
140
10.0
141
1.0
290
     0
  0
SCALE
  5
58
102
{ACAD_REACTORS
330
47
102
}
330
47
100
AcDbScale
 70
     0
300
100:1
140
100.0
141
1.0
290
     0
  0
SCALE
  5
59
102
{ACAD_REACTORS
330
47
102
}
330
47
100
AcDbScale
 70
     0
300
1/128" = 1'-0"
140
0.0078125
141
12.0
290
     0
  0
SCALE
  5
5A
102
{ACAD_REACTORS
330
47
102
}
330
47
100
AcDbScale
 70
     0
300
1/64" = 1'-0"
140
0.015625
141
12.0
290
     0
  0
SCALE
  5
5B
102
{ACAD_REACTORS
330
47
102
}
330
47
100
AcDbScale
 70
     0
300
1/32" = 1'-0"
140
0.03125
141
12.0
290
     0
  0
SCALE
  5
5C
102
{ACAD_REACTORS
330
47
102
}
330
47
100
AcDbScale
 70
     0
300
1/16" = 1'-0"
140
0.0625
141
12.0
290
     0
  0
SCALE
  5
5D
102
{ACAD_REACTORS
330
47
102
}
330
47
100
AcDbScale
 70
     0
300
3/32" = 1'-0"
140
0.09375
141
12.0
290
     0
  0
SCALE
  5
5E
102
{ACAD_REACTORS
330
47
102
}
330
47
100
AcDbScale
 70
     0
300
1/8" = 1'-0"
140
0.125
141
12.0
290
     0
  0
SCALE
  5
5F
102
{ACAD_REACTORS
330
47
102
}
330
47
100
AcDbScale
 70
     0
300
3/16" = 1'-0"
140
0.1875
141
12.0
290
     0
  0
SCALE
  5
60
102
{ACAD_REACTORS
330
47
102
}
330
47
100
AcDbScale
 70
     0
300
1/4" = 1'-0"
140
0.25
141
12.0
290
     0
  0
SCALE
  5
61
102
{ACAD_REACTORS
330
47
102
}
330
47
100
AcDbScale
 70
     0
300
3/8" = 1'-0"
140
0.375
141
12.0
290
     0
  0
SCALE
  5
62
102
{ACAD_REACTORS
330
47
102
}
330
47
100
AcDbScale
 70
     0
300
1/2" = 1'-0"
140
0.5
141
12.0
290
     0
  0
SCALE
  5
63
102
{ACAD_REACTORS
330
47
102
}
330
47
100
AcDbScale
 70
     0
300
3/4" = 1'-0"
140
0.75
141
12.0
290
     0
  0
SCALE
  5
64
102
{ACAD_REACTORS
330
47
102
}
330
47
100
AcDbScale
 70
     0
300
1" = 1'-0"
140
1.0
141
12.0
290
     0
  0
SCALE
  5
65
102
{ACAD_REACTORS
330
47
102
}
330
47
100
AcDbScale
 70
     0
300
1-1/2" = 1'-0"
140
1.5
141
12.0
290
     0
  0
SCALE
  5
66
102
{ACAD_REACTORS
330
47
102
}
330
47
100
AcDbScale
 70
     0
300
3" = 1'-0"
140
3.0
141
12.0
290
     0
  0
SCALE
  5
67
102
{ACAD_REACTORS
330
47
102
}
330
47
100
AcDbScale
 70
     0
300
6" = 1'-0"
140
6.0
141
12.0
290
     0
  0
SCALE
  5
68
102
{ACAD_REACTORS
330
47
102
}
330
47
100
AcDbScale
 70
     0
300
1'-0" = 1'-0"
140
12.0
141
12.0
290
     0
  0
ENDSEC
  0
EOF
